<?xml version="1.0" encoding="UTF-8" standalone="no"?>
<!DOCTYPE svg PUBLIC "-//W3C//DTD SVG 1.1//EN"
 "http://www.w3.org/Graphics/SVG/1.1/DTD/svg11.dtd">
<!-- Generated by graphviz version 2.43.0 (0)
 -->
<!-- Title: orphans Pages: 1 -->
<svg width="336pt" height="236pt"
 viewBox="0.00 0.00 336.00 236.00" xmlns="http://www.w3.org/2000/svg" xmlns:xlink="http://www.w3.org/1999/xlink">
<g id="graph0" class="graph" transform="scale(1 1) rotate(0) translate(4 232)">
<title>orphans</title>
<polygon fill="#ffffff" stroke="transparent" points="-4,4 -4,-232 332,-232 332,4 -4,4"/>
<!-- pum_migrations -->
<g id="node1" class="node">
<title>pum_migrations</title>
<g id="a_node1"><a xlink:href="../../tables/pum_migrations.html" xlink:title="pum_migrations" target="_top">
<polygon fill="#ffffff" stroke="transparent" points="8,-4 8,-224 320,-224 320,-4 8,-4"/>
<polygon fill="#f5f5f5" stroke="transparent" points="10,-200 10,-222 318,-222 318,-200 10,-200"/>
<polygon fill="none" stroke="black" points="10,-200 10,-222 318,-222 318,-200 10,-200"/>
<text text-anchor="start" x="15" y="-209.2" font-family="Helvetica,sans-Serif" font-weight="bold" font-size="11.00">pum_migrations</text>
<text text-anchor="start" x="276" y="-208.2" font-family="Helvetica,sans-Serif" font-size="11.00">[table]</text>
<polygon fill="none" stroke="black" points="10,-178 10,-200 206,-200 206,-178 10,-178"/>
<image xlink:href="../../images/primaryKeys.png" width="11px" height="12px" preserveAspectRatio="xMinYMin meet" x="15" y="-195"/>
<text text-anchor="start" x="30" y="-186.2" font-family="Helvetica,sans-Serif" font-size="11.00">id</text>
<polygon fill="none" stroke="black" points="206,-178 206,-200 318,-200 318,-178 206,-178"/>
<text text-anchor="start" x="209" y="-186.2" font-family="Helvetica,sans-Serif" font-size="11.00">uuid[2147483647]</text>
<polygon fill="none" stroke="black" points="10,-156 10,-178 206,-178 206,-156 10,-156"/>
<text text-anchor="start" x="30" y="-164.2" font-family="Helvetica,sans-Serif" font-size="11.00">date_installed</text>
<polygon fill="none" stroke="black" points="206,-156 206,-178 318,-178 318,-156 206,-156"/>
<text text-anchor="start" x="209" y="-164.2" font-family="Helvetica,sans-Serif" font-size="11.00">timestamp[29,6]</text>
<polygon fill="none" stroke="black" points="10,-134 10,-156 206,-156 206,-134 10,-134"/>
<text text-anchor="start" x="30" y="-142.2" font-family="Helvetica,sans-Serif" font-size="11.00">module</text>
<polygon fill="none" stroke="black" points="206,-134 206,-156 318,-156 318,-134 206,-134"/>
<text text-anchor="start" x="209" y="-142.2" font-family="Helvetica,sans-Serif" font-size="11.00">varchar[50]</text>
<polygon fill="none" stroke="black" points="10,-112 10,-134 206,-134 206,-112 10,-112"/>
<text text-anchor="start" x="30" y="-120.2" font-family="Helvetica,sans-Serif" font-size="11.00">version</text>
<polygon fill="none" stroke="black" points="206,-112 206,-134 318,-134 318,-112 206,-112"/>
<text text-anchor="start" x="209" y="-120.2" font-family="Helvetica,sans-Serif" font-size="11.00">varchar[50]</text>
<polygon fill="none" stroke="black" points="10,-90 10,-112 206,-112 206,-90 10,-90"/>
<text text-anchor="start" x="30" y="-98.2" font-family="Helvetica,sans-Serif" font-size="11.00">beta_testing</text>
<polygon fill="none" stroke="black" points="206,-90 206,-112 318,-112 318,-90 206,-90"/>
<text text-anchor="start" x="209" y="-98.2" font-family="Helvetica,sans-Serif" font-size="11.00">bool[1]</text>
<polygon fill="none" stroke="black" points="10,-68 10,-90 206,-90 206,-68 10,-68"/>
<text text-anchor="start" x="30" y="-76.2" font-family="Helvetica,sans-Serif" font-size="11.00">changelog_files</text>
<polygon fill="none" stroke="black" points="206,-68 206,-90 318,-90 318,-68 206,-68"/>
<text text-anchor="start" x="209" y="-76.2" font-family="Helvetica,sans-Serif" font-size="11.00">_text[2147483647]</text>
<polygon fill="none" stroke="black" points="10,-46 10,-68 206,-68 206,-46 10,-46"/>
<text text-anchor="start" x="30" y="-54.2" font-family="Helvetica,sans-Serif" font-size="11.00">parameters</text>
<polygon fill="none" stroke="black" points="206,-46 206,-68 318,-68 318,-46 206,-46"/>
<text text-anchor="start" x="209" y="-54.2" font-family="Helvetica,sans-Serif" font-size="11.00">jsonb[2147483647]</text>
<polygon fill="none" stroke="black" points="10,-24 10,-46 206,-46 206,-24 10,-24"/>
<text text-anchor="start" x="30" y="-32.2" font-family="Helvetica,sans-Serif" font-size="11.00">migration_table_version</text>
<polygon fill="none" stroke="black" points="206,-24 206,-46 318,-46 318,-24 206,-24"/>
<text text-anchor="start" x="209" y="-32.2" font-family="Helvetica,sans-Serif" font-size="11.00">varchar[50]</text>
<polygon fill="#ffffff" stroke="transparent" points="10,-6 10,-24 318,-24 318,-6 10,-6"/>
<polygon fill="none" stroke="black" points="10,-6 10,-24 318,-24 318,-6 10,-6"/>
<polygon fill="#ffffff" stroke="transparent" points="11,-7 11,-23 117,-23 117,-7 11,-7"/>
<text text-anchor="start" x="13" y="-12.2" font-family="Helvetica,sans-Serif" font-size="11.00">&lt; 0</text>
<polygon fill="#ffffff" stroke="transparent" points="117,-7 117,-23 211,-23 211,-7 117,-7"/>
<text text-anchor="start" x="160" y="-12.2" font-family="Helvetica,sans-Serif" font-size="11.00"> &#160;</text>
<polygon fill="#ffffff" stroke="transparent" points="211,-7 211,-23 317,-23 317,-7 211,-7"/>
<text text-anchor="start" x="295" y="-12.2" font-family="Helvetica,sans-Serif" font-size="11.00">0 &gt;</text>
<polygon fill="black" stroke="black" points="117,-7 117,-23 117,-23 117,-7 117,-7"/>
<polygon fill="black" stroke="black" points="211,-7 211,-23 211,-23 211,-7 211,-7"/>
<polygon fill="none" stroke="black" stroke-width="2" points="9,-5 9,-223 319,-223 319,-5 9,-5"/>
</a>
</g>
</g>
</g>
</svg>
