<?xml version="1.0" encoding="UTF-8" standalone="no"?>
<!DOCTYPE svg PUBLIC "-//W3C//DTD SVG 1.1//EN"
 "http://www.w3.org/Graphics/SVG/1.1/DTD/svg11.dtd">
<!-- Generated by graphviz version 2.43.0 (0)
 -->
<!-- Title: orphans Pages: 1 -->
<svg width="898pt" height="948pt"
 viewBox="0.00 0.00 898.00 948.00" xmlns="http://www.w3.org/2000/svg" xmlns:xlink="http://www.w3.org/1999/xlink">
<g id="graph0" class="graph" transform="scale(1 1) rotate(0) translate(4 944)">
<title>orphans</title>
<polygon fill="#ffffff" stroke="transparent" points="-4,4 -4,-944 894,-944 894,4 -4,4"/>
<!-- deceased -->
<g id="node1" class="node">
<title>deceased</title>
<g id="a_node1"><a xlink:href="../../tables/deceased.html" xlink:title="deceased" target="_top">
<polygon fill="#ffffff" stroke="transparent" points="163,-35 163,-607 457,-607 457,-35 163,-35"/>
<polygon fill="#f5f5f5" stroke="transparent" points="165,-583 165,-605 455,-605 455,-583 165,-583"/>
<polygon fill="none" stroke="black" points="165,-583 165,-605 455,-605 455,-583 165,-583"/>
<text text-anchor="start" x="170" y="-592.2" font-family="Helvetica,sans-Serif" font-weight="bold" font-size="11.00">deceased</text>
<text text-anchor="start" x="413" y="-591.2" font-family="Helvetica,sans-Serif" font-size="11.00">[table]</text>
<polygon fill="none" stroke="black" points="165,-561 165,-583 319,-583 319,-561 165,-561"/>
<image xlink:href="../../images/primaryKeys.png" width="11px" height="12px" preserveAspectRatio="xMinYMin meet" x="170" y="-578"/>
<text text-anchor="start" x="185" y="-569.2" font-family="Helvetica,sans-Serif" font-size="11.00">id</text>
<polygon fill="none" stroke="black" points="319,-561 319,-583 455,-583 455,-561 319,-561"/>
<text text-anchor="start" x="322" y="-569.2" font-family="Helvetica,sans-Serif" font-size="11.00">uuid[2147483647]</text>
<polygon fill="none" stroke="black" points="165,-539 165,-561 319,-561 319,-539 165,-539"/>
<text text-anchor="start" x="185" y="-547.2" font-family="Helvetica,sans-Serif" font-size="11.00">last_name</text>
<polygon fill="none" stroke="black" points="319,-539 319,-561 455,-561 455,-539 319,-539"/>
<text text-anchor="start" x="322" y="-547.2" font-family="Helvetica,sans-Serif" font-size="11.00">varchar[50]</text>
<polygon fill="none" stroke="black" points="165,-517 165,-539 319,-539 319,-517 165,-517"/>
<text text-anchor="start" x="185" y="-525.2" font-family="Helvetica,sans-Serif" font-size="11.00">first_name</text>
<polygon fill="none" stroke="black" points="319,-517 319,-539 455,-539 455,-517 319,-517"/>
<text text-anchor="start" x="322" y="-525.2" font-family="Helvetica,sans-Serif" font-size="11.00">varchar[50]</text>
<polygon fill="none" stroke="black" points="165,-495 165,-517 319,-517 319,-495 165,-495"/>
<text text-anchor="start" x="185" y="-503.2" font-family="Helvetica,sans-Serif" font-size="11.00">address</text>
<polygon fill="none" stroke="black" points="319,-495 319,-517 455,-517 455,-495 319,-495"/>
<text text-anchor="start" x="322" y="-503.2" font-family="Helvetica,sans-Serif" font-size="11.00">varchar[50]</text>
<polygon fill="none" stroke="black" points="165,-473 165,-495 319,-495 319,-473 165,-473"/>
<text text-anchor="start" x="185" y="-481.2" font-family="Helvetica,sans-Serif" font-size="11.00">city</text>
<polygon fill="none" stroke="black" points="319,-473 319,-495 455,-495 455,-473 319,-473"/>
<text text-anchor="start" x="322" y="-481.2" font-family="Helvetica,sans-Serif" font-size="11.00">varchar[50]</text>
<polygon fill="none" stroke="black" points="165,-451 165,-473 319,-473 319,-451 165,-451"/>
<text text-anchor="start" x="185" y="-459.2" font-family="Helvetica,sans-Serif" font-size="11.00">postal_code</text>
<polygon fill="none" stroke="black" points="319,-451 319,-473 455,-473 455,-451 319,-451"/>
<text text-anchor="start" x="322" y="-459.2" font-family="Helvetica,sans-Serif" font-size="11.00">varchar[10]</text>
<polygon fill="none" stroke="black" points="165,-429 165,-451 319,-451 319,-429 165,-429"/>
<text text-anchor="start" x="185" y="-437.2" font-family="Helvetica,sans-Serif" font-size="11.00">birth_date</text>
<polygon fill="none" stroke="black" points="319,-429 319,-451 455,-451 455,-429 319,-429"/>
<text text-anchor="start" x="322" y="-437.2" font-family="Helvetica,sans-Serif" font-size="11.00">date[13]</text>
<polygon fill="none" stroke="black" points="165,-407 165,-429 319,-429 319,-407 165,-407"/>
<text text-anchor="start" x="185" y="-415.2" font-family="Helvetica,sans-Serif" font-size="11.00">death_date</text>
<polygon fill="none" stroke="black" points="319,-407 319,-429 455,-429 455,-407 319,-407"/>
<text text-anchor="start" x="322" y="-415.2" font-family="Helvetica,sans-Serif" font-size="11.00">date[13]</text>
<polygon fill="none" stroke="black" points="165,-385 165,-407 319,-407 319,-385 165,-385"/>
<text text-anchor="start" x="185" y="-393.2" font-family="Helvetica,sans-Serif" font-size="11.00">death_place</text>
<polygon fill="none" stroke="black" points="319,-385 319,-407 455,-407 455,-385 319,-385"/>
<text text-anchor="start" x="322" y="-393.2" font-family="Helvetica,sans-Serif" font-size="11.00">varchar[50]</text>
<polygon fill="none" stroke="black" points="165,-363 165,-385 319,-385 319,-363 165,-363"/>
<text text-anchor="start" x="185" y="-371.2" font-family="Helvetica,sans-Serif" font-size="11.00">burial_date</text>
<polygon fill="none" stroke="black" points="319,-363 319,-385 455,-385 455,-363 319,-363"/>
<text text-anchor="start" x="322" y="-371.2" font-family="Helvetica,sans-Serif" font-size="11.00">date[13]</text>
<polygon fill="none" stroke="black" points="165,-341 165,-363 319,-363 319,-341 165,-341"/>
<text text-anchor="start" x="185" y="-349.2" font-family="Helvetica,sans-Serif" font-size="11.00">burial_place</text>
<polygon fill="none" stroke="black" points="319,-341 319,-363 455,-363 455,-341 319,-341"/>
<text text-anchor="start" x="322" y="-349.2" font-family="Helvetica,sans-Serif" font-size="11.00">varchar[50]</text>
<polygon fill="none" stroke="black" points="165,-319 165,-341 319,-341 319,-319 165,-319"/>
<text text-anchor="start" x="185" y="-327.2" font-family="Helvetica,sans-Serif" font-size="11.00">flag_main</text>
<polygon fill="none" stroke="black" points="319,-319 319,-341 455,-341 455,-319 319,-319"/>
<text text-anchor="start" x="322" y="-327.2" font-family="Helvetica,sans-Serif" font-size="11.00">bool[1]</text>
<polygon fill="none" stroke="black" points="165,-297 165,-319 319,-319 319,-297 165,-297"/>
<text text-anchor="start" x="185" y="-305.2" font-family="Helvetica,sans-Serif" font-size="11.00">flag_ashes</text>
<polygon fill="none" stroke="black" points="319,-297 319,-319 455,-319 455,-297 319,-297"/>
<text text-anchor="start" x="322" y="-305.2" font-family="Helvetica,sans-Serif" font-size="11.00">bool[1]</text>
<polygon fill="none" stroke="black" points="165,-275 165,-297 319,-297 319,-275 165,-275"/>
<text text-anchor="start" x="185" y="-283.2" font-family="Helvetica,sans-Serif" font-size="11.00">incineration_date</text>
<polygon fill="none" stroke="black" points="319,-275 319,-297 455,-297 455,-275 319,-275"/>
<text text-anchor="start" x="322" y="-283.2" font-family="Helvetica,sans-Serif" font-size="11.00">date[13]</text>
<polygon fill="none" stroke="black" points="165,-253 165,-275 319,-275 319,-253 165,-253"/>
<text text-anchor="start" x="185" y="-261.2" font-family="Helvetica,sans-Serif" font-size="11.00">incineration_place</text>
<polygon fill="none" stroke="black" points="319,-253 319,-275 455,-275 455,-253 319,-253"/>
<text text-anchor="start" x="322" y="-261.2" font-family="Helvetica,sans-Serif" font-size="11.00">varchar[50]</text>
<polygon fill="none" stroke="black" points="165,-231 165,-253 319,-253 319,-231 165,-231"/>
<text text-anchor="start" x="185" y="-239.2" font-family="Helvetica,sans-Serif" font-size="11.00">fk_urn_kind</text>
<polygon fill="none" stroke="black" points="319,-231 319,-253 455,-253 455,-231 319,-231"/>
<text text-anchor="start" x="322" y="-239.2" font-family="Helvetica,sans-Serif" font-size="11.00">int4[10]</text>
<polygon fill="none" stroke="black" points="165,-209 165,-231 319,-231 319,-209 165,-209"/>
<text text-anchor="start" x="185" y="-217.2" font-family="Helvetica,sans-Serif" font-size="11.00">exumation_date</text>
<polygon fill="none" stroke="black" points="319,-209 319,-231 455,-231 455,-209 319,-209"/>
<text text-anchor="start" x="322" y="-217.2" font-family="Helvetica,sans-Serif" font-size="11.00">date[13]</text>
<polygon fill="none" stroke="black" points="165,-187 165,-209 319,-209 319,-187 165,-187"/>
<text text-anchor="start" x="185" y="-195.2" font-family="Helvetica,sans-Serif" font-size="11.00">exumation_place</text>
<polygon fill="none" stroke="black" points="319,-187 319,-209 455,-209 455,-187 319,-187"/>
<text text-anchor="start" x="322" y="-195.2" font-family="Helvetica,sans-Serif" font-size="11.00">varchar[50]</text>
<polygon fill="none" stroke="black" points="165,-165 165,-187 319,-187 319,-165 165,-165"/>
<text text-anchor="start" x="185" y="-173.2" font-family="Helvetica,sans-Serif" font-size="11.00">remark</text>
<polygon fill="none" stroke="black" points="319,-165 319,-187 455,-187 455,-165 319,-165"/>
<text text-anchor="start" x="322" y="-173.2" font-family="Helvetica,sans-Serif" font-size="11.00">text[2147483647]</text>
<polygon fill="none" stroke="black" points="165,-143 165,-165 319,-165 319,-143 165,-143"/>
<text text-anchor="start" x="185" y="-151.2" font-family="Helvetica,sans-Serif" font-size="11.00">child</text>
<polygon fill="none" stroke="black" points="319,-143 319,-165 455,-165 455,-143 319,-143"/>
<text text-anchor="start" x="322" y="-151.2" font-family="Helvetica,sans-Serif" font-size="11.00">bool[1]</text>
<polygon fill="none" stroke="black" points="165,-121 165,-143 319,-143 319,-121 165,-121"/>
<text text-anchor="start" x="185" y="-129.2" font-family="Helvetica,sans-Serif" font-size="11.00">quality</text>
<polygon fill="none" stroke="black" points="319,-121 319,-143 455,-143 455,-121 319,-121"/>
<text text-anchor="start" x="322" y="-129.2" font-family="Helvetica,sans-Serif" font-size="11.00">float8[17,17]</text>
<polygon fill="none" stroke="black" points="165,-99 165,-121 319,-121 319,-99 165,-99"/>
<text text-anchor="start" x="185" y="-107.2" font-family="Helvetica,sans-Serif" font-size="11.00">orientation</text>
<polygon fill="none" stroke="black" points="319,-99 319,-121 455,-121 455,-99 319,-99"/>
<text text-anchor="start" x="322" y="-107.2" font-family="Helvetica,sans-Serif" font-size="11.00">float8[17,17]</text>
<polygon fill="none" stroke="black" points="165,-77 165,-99 319,-99 319,-77 165,-77"/>
<text text-anchor="start" x="185" y="-85.2" font-family="Helvetica,sans-Serif" font-size="11.00">fk_unit</text>
<polygon fill="none" stroke="black" points="319,-77 319,-99 455,-99 455,-77 319,-77"/>
<text text-anchor="start" x="322" y="-85.2" font-family="Helvetica,sans-Serif" font-size="11.00">uuid[2147483647]</text>
<polygon fill="none" stroke="black" points="165,-55 165,-77 319,-77 319,-55 165,-55"/>
<text text-anchor="start" x="185" y="-63.2" font-family="Helvetica,sans-Serif" font-size="11.00">the_geom</text>
<polygon fill="none" stroke="black" points="319,-55 319,-77 455,-77 455,-55 319,-55"/>
<text text-anchor="start" x="322" y="-63.2" font-family="Helvetica,sans-Serif" font-size="11.00">geometry[2147483647]</text>
<polygon fill="#ffffff" stroke="transparent" points="165,-37 165,-55 455,-55 455,-37 165,-37"/>
<polygon fill="none" stroke="black" points="165,-37 165,-55 455,-55 455,-37 165,-37"/>
<polygon fill="#ffffff" stroke="transparent" points="166,-38 166,-54 266,-54 266,-38 166,-38"/>
<text text-anchor="start" x="168" y="-43.2" font-family="Helvetica,sans-Serif" font-size="11.00">&lt; 0</text>
<polygon fill="#ffffff" stroke="transparent" points="266,-38 266,-54 354,-54 354,-38 266,-38"/>
<text text-anchor="start" x="306" y="-43.2" font-family="Helvetica,sans-Serif" font-size="11.00"> &#160;</text>
<polygon fill="#ffffff" stroke="transparent" points="354,-38 354,-54 454,-54 454,-38 354,-38"/>
<text text-anchor="start" x="432" y="-43.2" font-family="Helvetica,sans-Serif" font-size="11.00">0 &gt;</text>
<polygon fill="black" stroke="black" points="266,-38 266,-54 266,-54 266,-38 266,-38"/>
<polygon fill="black" stroke="black" points="354,-38 354,-54 354,-54 354,-38 354,-38"/>
<polygon fill="none" stroke="black" stroke-width="2" points="164,-36 164,-606 456,-606 456,-36 164,-36"/>
</a>
</g>
</g>
<!-- furniture -->
<g id="node2" class="node">
<title>furniture</title>
<g id="a_node2"><a xlink:href="../../tables/furniture.html" xlink:title="furniture" target="_top">
<polygon fill="#ffffff" stroke="transparent" points="535,-376 535,-508 820,-508 820,-376 535,-376"/>
<polygon fill="#f5f5f5" stroke="transparent" points="537.5,-484 537.5,-506 818.5,-506 818.5,-484 537.5,-484"/>
<polygon fill="none" stroke="black" points="537.5,-484 537.5,-506 818.5,-506 818.5,-484 537.5,-484"/>
<text text-anchor="start" x="542.5" y="-493.2" font-family="Helvetica,sans-Serif" font-weight="bold" font-size="11.00">furniture</text>
<text text-anchor="start" x="776.5" y="-492.2" font-family="Helvetica,sans-Serif" font-size="11.00">[table]</text>
<polygon fill="none" stroke="black" points="537.5,-462 537.5,-484 682.5,-484 682.5,-462 537.5,-462"/>
<image xlink:href="../../images/primaryKeys.png" width="11px" height="12px" preserveAspectRatio="xMinYMin meet" x="542.5" y="-479"/>
<text text-anchor="start" x="557.5" y="-470.2" font-family="Helvetica,sans-Serif" font-size="11.00">id</text>
<polygon fill="none" stroke="black" points="682.5,-462 682.5,-484 818.5,-484 818.5,-462 682.5,-462"/>
<text text-anchor="start" x="685.5" y="-470.2" font-family="Helvetica,sans-Serif" font-size="11.00">uuid[2147483647]</text>
<polygon fill="none" stroke="black" points="537.5,-440 537.5,-462 682.5,-462 682.5,-440 537.5,-440"/>
<text text-anchor="start" x="557.5" y="-448.2" font-family="Helvetica,sans-Serif" font-size="11.00">fk_furniture_kind</text>
<polygon fill="none" stroke="black" points="682.5,-440 682.5,-462 818.5,-462 818.5,-440 682.5,-440"/>
<text text-anchor="start" x="685.5" y="-448.2" font-family="Helvetica,sans-Serif" font-size="11.00">int4[10]</text>
<polygon fill="none" stroke="black" points="537.5,-418 537.5,-440 682.5,-440 682.5,-418 537.5,-418"/>
<text text-anchor="start" x="557.5" y="-426.2" font-family="Helvetica,sans-Serif" font-size="11.00">remark</text>
<polygon fill="none" stroke="black" points="682.5,-418 682.5,-440 818.5,-440 818.5,-418 682.5,-418"/>
<text text-anchor="start" x="685.5" y="-426.2" font-family="Helvetica,sans-Serif" font-size="11.00">text[2147483647]</text>
<polygon fill="none" stroke="black" points="537.5,-396 537.5,-418 682.5,-418 682.5,-396 537.5,-396"/>
<text text-anchor="start" x="557.5" y="-404.2" font-family="Helvetica,sans-Serif" font-size="11.00">the_geom</text>
<polygon fill="none" stroke="black" points="682.5,-396 682.5,-418 818.5,-418 818.5,-396 682.5,-396"/>
<text text-anchor="start" x="685.5" y="-404.2" font-family="Helvetica,sans-Serif" font-size="11.00">geometry[2147483647]</text>
<polygon fill="#ffffff" stroke="transparent" points="537.5,-378 537.5,-396 818.5,-396 818.5,-378 537.5,-378"/>
<polygon fill="none" stroke="black" points="537.5,-378 537.5,-396 818.5,-396 818.5,-378 537.5,-378"/>
<polygon fill="#ffffff" stroke="transparent" points="538.5,-379 538.5,-395 635.5,-395 635.5,-379 538.5,-379"/>
<text text-anchor="start" x="540.5" y="-384.2" font-family="Helvetica,sans-Serif" font-size="11.00">&lt; 0</text>
<polygon fill="#ffffff" stroke="transparent" points="635.5,-379 635.5,-395 720.5,-395 720.5,-379 635.5,-379"/>
<text text-anchor="start" x="674" y="-384.2" font-family="Helvetica,sans-Serif" font-size="11.00"> &#160;</text>
<polygon fill="#ffffff" stroke="transparent" points="720.5,-379 720.5,-395 817.5,-395 817.5,-379 720.5,-379"/>
<text text-anchor="start" x="795.5" y="-384.2" font-family="Helvetica,sans-Serif" font-size="11.00">0 &gt;</text>
<polygon fill="black" stroke="black" points="635.5,-379 635.5,-395 635.5,-395 635.5,-379 635.5,-379"/>
<polygon fill="black" stroke="black" points="720.5,-379 720.5,-395 720.5,-395 720.5,-379 720.5,-379"/>
<polygon fill="none" stroke="black" stroke-width="2" points="536,-377 536,-507 819,-507 819,-377 536,-377"/>
</a>
</g>
</g>
<!-- organisation -->
<g id="node3" class="node">
<title>organisation</title>
<g id="a_node3"><a xlink:href="../../tables/organisation.html" xlink:title="organisation" target="_top">
<polygon fill="#ffffff" stroke="transparent" points="659,-4 659,-114 882,-114 882,-4 659,-4"/>
<polygon fill="#f5f5f5" stroke="transparent" points="661.5,-90 661.5,-112 880.5,-112 880.5,-90 661.5,-90"/>
<polygon fill="none" stroke="black" points="661.5,-90 661.5,-112 880.5,-112 880.5,-90 661.5,-90"/>
<text text-anchor="start" x="666.5" y="-99.2" font-family="Helvetica,sans-Serif" font-weight="bold" font-size="11.00">organisation</text>
<text text-anchor="start" x="838.5" y="-98.2" font-family="Helvetica,sans-Serif" font-size="11.00">[table]</text>
<polygon fill="none" stroke="black" points="661.5,-68 661.5,-90 774.5,-90 774.5,-68 661.5,-68"/>
<image xlink:href="../../images/primaryKeys.png" width="11px" height="12px" preserveAspectRatio="xMinYMin meet" x="666.5" y="-85"/>
<text text-anchor="start" x="681.5" y="-76.2" font-family="Helvetica,sans-Serif" font-size="11.00">id</text>
<polygon fill="none" stroke="black" points="774.5,-68 774.5,-90 880.5,-90 880.5,-68 774.5,-68"/>
<text text-anchor="start" x="777.5" y="-76.2" font-family="Helvetica,sans-Serif" font-size="11.00">uuid[2147483647]</text>
<polygon fill="none" stroke="black" points="661.5,-46 661.5,-68 774.5,-68 774.5,-46 661.5,-46"/>
<text text-anchor="start" x="681.5" y="-54.2" font-family="Helvetica,sans-Serif" font-size="11.00">identifier</text>
<polygon fill="none" stroke="black" points="774.5,-46 774.5,-68 880.5,-68 880.5,-46 774.5,-46"/>
<text text-anchor="start" x="777.5" y="-54.2" font-family="Helvetica,sans-Serif" font-size="11.00">int4[10]</text>
<polygon fill="none" stroke="black" points="661.5,-24 661.5,-46 774.5,-46 774.5,-24 661.5,-24"/>
<text text-anchor="start" x="681.5" y="-32.2" font-family="Helvetica,sans-Serif" font-size="11.00">remark</text>
<polygon fill="none" stroke="black" points="774.5,-24 774.5,-46 880.5,-46 880.5,-24 774.5,-24"/>
<text text-anchor="start" x="777.5" y="-32.2" font-family="Helvetica,sans-Serif" font-size="11.00">text[2147483647]</text>
<polygon fill="#ffffff" stroke="transparent" points="661.5,-6 661.5,-24 880.5,-24 880.5,-6 661.5,-6"/>
<polygon fill="none" stroke="black" points="661.5,-6 661.5,-24 880.5,-24 880.5,-6 661.5,-6"/>
<polygon fill="#ffffff" stroke="transparent" points="662.5,-7 662.5,-23 739.5,-23 739.5,-7 662.5,-7"/>
<text text-anchor="start" x="664.5" y="-12.2" font-family="Helvetica,sans-Serif" font-size="11.00">&lt; 0</text>
<polygon fill="#ffffff" stroke="transparent" points="739.5,-7 739.5,-23 803.5,-23 803.5,-7 739.5,-7"/>
<text text-anchor="start" x="767.5" y="-12.2" font-family="Helvetica,sans-Serif" font-size="11.00"> &#160;</text>
<polygon fill="#ffffff" stroke="transparent" points="803.5,-7 803.5,-23 879.5,-23 879.5,-7 803.5,-7"/>
<text text-anchor="start" x="857.5" y="-12.2" font-family="Helvetica,sans-Serif" font-size="11.00">0 &gt;</text>
<polygon fill="black" stroke="black" points="739.5,-7 739.5,-23 739.5,-23 739.5,-7 739.5,-7"/>
<polygon fill="black" stroke="black" points="803.5,-7 803.5,-23 803.5,-23 803.5,-7 803.5,-7"/>
<polygon fill="none" stroke="black" stroke-width="2" points="660,-5 660,-113 881,-113 881,-5 660,-5"/>
</a>
</g>
</g>
<!-- sector -->
<g id="node4" class="node">
<title>sector</title>
<g id="a_node4"><a xlink:href="../../tables/sector.html" xlink:title="sector" target="_top">
<polygon fill="#ffffff" stroke="transparent" points="8,-655 8,-809 252,-809 252,-655 8,-655"/>
<polygon fill="#f5f5f5" stroke="transparent" points="10,-785 10,-807 250,-807 250,-785 10,-785"/>
<polygon fill="none" stroke="black" points="10,-785 10,-807 250,-807 250,-785 10,-785"/>
<text text-anchor="start" x="15" y="-794.2" font-family="Helvetica,sans-Serif" font-weight="bold" font-size="11.00">sector</text>
<text text-anchor="start" x="208" y="-793.2" font-family="Helvetica,sans-Serif" font-size="11.00">[table]</text>
<polygon fill="none" stroke="black" points="10,-763 10,-785 114,-785 114,-763 10,-763"/>
<image xlink:href="../../images/primaryKeys.png" width="11px" height="12px" preserveAspectRatio="xMinYMin meet" x="15" y="-780"/>
<text text-anchor="start" x="30" y="-771.2" font-family="Helvetica,sans-Serif" font-size="11.00">id</text>
<polygon fill="none" stroke="black" points="114,-763 114,-785 250,-785 250,-763 114,-763"/>
<text text-anchor="start" x="117" y="-771.2" font-family="Helvetica,sans-Serif" font-size="11.00">uuid[2147483647]</text>
<polygon fill="none" stroke="black" points="10,-741 10,-763 114,-763 114,-741 10,-741"/>
<text text-anchor="start" x="30" y="-749.2" font-family="Helvetica,sans-Serif" font-size="11.00">ident_short</text>
<polygon fill="none" stroke="black" points="114,-741 114,-763 250,-763 250,-741 114,-741"/>
<text text-anchor="start" x="117" y="-749.2" font-family="Helvetica,sans-Serif" font-size="11.00">varchar[10]</text>
<polygon fill="none" stroke="black" points="10,-719 10,-741 114,-741 114,-719 10,-719"/>
<text text-anchor="start" x="30" y="-727.2" font-family="Helvetica,sans-Serif" font-size="11.00">identifier</text>
<polygon fill="none" stroke="black" points="114,-719 114,-741 250,-741 250,-719 114,-719"/>
<text text-anchor="start" x="117" y="-727.2" font-family="Helvetica,sans-Serif" font-size="11.00">varchar[100]</text>
<polygon fill="none" stroke="black" points="10,-697 10,-719 114,-719 114,-697 10,-697"/>
<text text-anchor="start" x="30" y="-705.2" font-family="Helvetica,sans-Serif" font-size="11.00">remark</text>
<polygon fill="none" stroke="black" points="114,-697 114,-719 250,-719 250,-697 114,-697"/>
<text text-anchor="start" x="117" y="-705.2" font-family="Helvetica,sans-Serif" font-size="11.00">text[2147483647]</text>
<polygon fill="none" stroke="black" points="10,-675 10,-697 114,-697 114,-675 10,-675"/>
<text text-anchor="start" x="30" y="-683.2" font-family="Helvetica,sans-Serif" font-size="11.00">the_geom</text>
<polygon fill="none" stroke="black" points="114,-675 114,-697 250,-697 250,-675 114,-675"/>
<text text-anchor="start" x="117" y="-683.2" font-family="Helvetica,sans-Serif" font-size="11.00">geometry[2147483647]</text>
<polygon fill="#ffffff" stroke="transparent" points="10,-657 10,-675 250,-675 250,-657 10,-657"/>
<polygon fill="none" stroke="black" points="10,-657 10,-675 250,-675 250,-657 10,-657"/>
<polygon fill="#ffffff" stroke="transparent" points="11,-658 11,-674 95,-674 95,-658 11,-658"/>
<text text-anchor="start" x="13" y="-663.2" font-family="Helvetica,sans-Serif" font-size="11.00">&lt; 0</text>
<polygon fill="#ffffff" stroke="transparent" points="95,-658 95,-674 166,-674 166,-658 95,-658"/>
<text text-anchor="start" x="126.5" y="-663.2" font-family="Helvetica,sans-Serif" font-size="11.00"> &#160;</text>
<polygon fill="#ffffff" stroke="transparent" points="166,-658 166,-674 249,-674 249,-658 166,-658"/>
<text text-anchor="start" x="227" y="-663.2" font-family="Helvetica,sans-Serif" font-size="11.00">0 &gt;</text>
<polygon fill="black" stroke="black" points="95,-658 95,-674 95,-674 95,-658 95,-658"/>
<polygon fill="black" stroke="black" points="166,-658 166,-674 166,-674 166,-658 166,-658"/>
<polygon fill="none" stroke="black" stroke-width="2" points="9,-656 9,-808 251,-808 251,-656 9,-656"/>
</a>
</g>
</g>
<!-- unit -->
<g id="node5" class="node">
<title>unit</title>
<g id="a_node5"><a xlink:href="../../tables/unit.html" xlink:title="unit" target="_top">
<polygon fill="#ffffff" stroke="transparent" points="535,-562 535,-936 816,-936 816,-562 535,-562"/>
<polygon fill="#f5f5f5" stroke="transparent" points="537.5,-912 537.5,-934 814.5,-934 814.5,-912 537.5,-912"/>
<polygon fill="none" stroke="black" points="537.5,-912 537.5,-934 814.5,-934 814.5,-912 537.5,-912"/>
<text text-anchor="start" x="542.5" y="-921.2" font-family="Helvetica,sans-Serif" font-weight="bold" font-size="11.00">unit</text>
<text text-anchor="start" x="772.5" y="-920.2" font-family="Helvetica,sans-Serif" font-size="11.00">[table]</text>
<polygon fill="none" stroke="black" points="537.5,-890 537.5,-912 678.5,-912 678.5,-890 537.5,-890"/>
<image xlink:href="../../images/primaryKeys.png" width="11px" height="12px" preserveAspectRatio="xMinYMin meet" x="542.5" y="-907"/>
<text text-anchor="start" x="557.5" y="-898.2" font-family="Helvetica,sans-Serif" font-size="11.00">id</text>
<polygon fill="none" stroke="black" points="678.5,-890 678.5,-912 814.5,-912 814.5,-890 678.5,-890"/>
<text text-anchor="start" x="681.5" y="-898.2" font-family="Helvetica,sans-Serif" font-size="11.00">uuid[2147483647]</text>
<polygon fill="none" stroke="black" points="537.5,-868 537.5,-890 678.5,-890 678.5,-868 537.5,-868"/>
<text text-anchor="start" x="557.5" y="-876.2" font-family="Helvetica,sans-Serif" font-size="11.00">identifier</text>
<polygon fill="none" stroke="black" points="678.5,-868 678.5,-890 814.5,-890 814.5,-868 678.5,-868"/>
<text text-anchor="start" x="681.5" y="-876.2" font-family="Helvetica,sans-Serif" font-size="11.00">varchar[10]</text>
<polygon fill="none" stroke="black" points="537.5,-846 537.5,-868 678.5,-868 678.5,-846 537.5,-846"/>
<text text-anchor="start" x="557.5" y="-854.2" font-family="Helvetica,sans-Serif" font-size="11.00">start_date</text>
<polygon fill="none" stroke="black" points="678.5,-846 678.5,-868 814.5,-868 814.5,-846 678.5,-846"/>
<text text-anchor="start" x="681.5" y="-854.2" font-family="Helvetica,sans-Serif" font-size="11.00">date[13]</text>
<polygon fill="none" stroke="black" points="537.5,-824 537.5,-846 678.5,-846 678.5,-824 537.5,-824"/>
<text text-anchor="start" x="557.5" y="-832.2" font-family="Helvetica,sans-Serif" font-size="11.00">end_date</text>
<polygon fill="none" stroke="black" points="678.5,-824 678.5,-846 814.5,-846 814.5,-824 678.5,-824"/>
<text text-anchor="start" x="681.5" y="-832.2" font-family="Helvetica,sans-Serif" font-size="11.00">date[13]</text>
<polygon fill="none" stroke="black" points="537.5,-802 537.5,-824 678.5,-824 678.5,-802 537.5,-802"/>
<text text-anchor="start" x="557.5" y="-810.2" font-family="Helvetica,sans-Serif" font-size="11.00">fk_company</text>
<polygon fill="none" stroke="black" points="678.5,-802 678.5,-824 814.5,-824 814.5,-802 678.5,-802"/>
<text text-anchor="start" x="681.5" y="-810.2" font-family="Helvetica,sans-Serif" font-size="11.00">uuid[2147483647]</text>
<polygon fill="none" stroke="black" points="537.5,-780 537.5,-802 678.5,-802 678.5,-780 537.5,-780"/>
<text text-anchor="start" x="557.5" y="-788.2" font-family="Helvetica,sans-Serif" font-size="11.00">fk_sector</text>
<polygon fill="none" stroke="black" points="678.5,-780 678.5,-802 814.5,-802 814.5,-780 678.5,-780"/>
<text text-anchor="start" x="681.5" y="-788.2" font-family="Helvetica,sans-Serif" font-size="11.00">uuid[2147483647]</text>
<polygon fill="none" stroke="black" points="537.5,-758 537.5,-780 678.5,-780 678.5,-758 537.5,-758"/>
<text text-anchor="start" x="557.5" y="-766.2" font-family="Helvetica,sans-Serif" font-size="11.00">fk_cemetery</text>
<polygon fill="none" stroke="black" points="678.5,-758 678.5,-780 814.5,-780 814.5,-758 678.5,-758"/>
<text text-anchor="start" x="681.5" y="-766.2" font-family="Helvetica,sans-Serif" font-size="11.00">int4[10]</text>
<polygon fill="none" stroke="black" points="537.5,-736 537.5,-758 678.5,-758 678.5,-736 537.5,-736"/>
<text text-anchor="start" x="557.5" y="-744.2" font-family="Helvetica,sans-Serif" font-size="11.00">fk_unit_size</text>
<polygon fill="none" stroke="black" points="678.5,-736 678.5,-758 814.5,-758 814.5,-736 678.5,-736"/>
<text text-anchor="start" x="681.5" y="-744.2" font-family="Helvetica,sans-Serif" font-size="11.00">int4[10]</text>
<polygon fill="none" stroke="black" points="537.5,-714 537.5,-736 678.5,-736 678.5,-714 537.5,-714"/>
<text text-anchor="start" x="557.5" y="-722.2" font-family="Helvetica,sans-Serif" font-size="11.00">fk_unit_kind</text>
<polygon fill="none" stroke="black" points="678.5,-714 678.5,-736 814.5,-736 814.5,-714 678.5,-714"/>
<text text-anchor="start" x="681.5" y="-722.2" font-family="Helvetica,sans-Serif" font-size="11.00">int4[10]</text>
<polygon fill="none" stroke="black" points="537.5,-692 537.5,-714 678.5,-714 678.5,-692 537.5,-692"/>
<text text-anchor="start" x="557.5" y="-700.2" font-family="Helvetica,sans-Serif" font-size="11.00">fk_contract_kind</text>
<polygon fill="none" stroke="black" points="678.5,-692 678.5,-714 814.5,-714 814.5,-692 678.5,-692"/>
<text text-anchor="start" x="681.5" y="-700.2" font-family="Helvetica,sans-Serif" font-size="11.00">int4[10]</text>
<polygon fill="none" stroke="black" points="537.5,-670 537.5,-692 678.5,-692 678.5,-670 537.5,-670"/>
<text text-anchor="start" x="557.5" y="-678.2" font-family="Helvetica,sans-Serif" font-size="11.00">remark</text>
<polygon fill="none" stroke="black" points="678.5,-670 678.5,-692 814.5,-692 814.5,-670 678.5,-670"/>
<text text-anchor="start" x="681.5" y="-678.2" font-family="Helvetica,sans-Serif" font-size="11.00">text[2147483647]</text>
<polygon fill="none" stroke="black" points="537.5,-648 537.5,-670 678.5,-670 678.5,-648 537.5,-648"/>
<text text-anchor="start" x="557.5" y="-656.2" font-family="Helvetica,sans-Serif" font-size="11.00">disused</text>
<polygon fill="none" stroke="black" points="678.5,-648 678.5,-670 814.5,-670 814.5,-648 678.5,-648"/>
<text text-anchor="start" x="681.5" y="-656.2" font-family="Helvetica,sans-Serif" font-size="11.00">bool[1]</text>
<polygon fill="none" stroke="black" points="537.5,-626 537.5,-648 678.5,-648 678.5,-626 537.5,-626"/>
<text text-anchor="start" x="557.5" y="-634.2" font-family="Helvetica,sans-Serif" font-size="11.00">disused_date</text>
<polygon fill="none" stroke="black" points="678.5,-626 678.5,-648 814.5,-648 814.5,-626 678.5,-626"/>
<text text-anchor="start" x="681.5" y="-634.2" font-family="Helvetica,sans-Serif" font-size="11.00">date[13]</text>
<polygon fill="none" stroke="black" points="537.5,-604 537.5,-626 678.5,-626 678.5,-604 537.5,-604"/>
<text text-anchor="start" x="557.5" y="-612.2" font-family="Helvetica,sans-Serif" font-size="11.00">fk_control</text>
<polygon fill="none" stroke="black" points="678.5,-604 678.5,-626 814.5,-626 814.5,-604 678.5,-604"/>
<text text-anchor="start" x="681.5" y="-612.2" font-family="Helvetica,sans-Serif" font-size="11.00">int4[10]</text>
<polygon fill="none" stroke="black" points="537.5,-582 537.5,-604 678.5,-604 678.5,-582 537.5,-582"/>
<text text-anchor="start" x="557.5" y="-590.2" font-family="Helvetica,sans-Serif" font-size="11.00">the_geom</text>
<polygon fill="none" stroke="black" points="678.5,-582 678.5,-604 814.5,-604 814.5,-582 678.5,-582"/>
<text text-anchor="start" x="681.5" y="-590.2" font-family="Helvetica,sans-Serif" font-size="11.00">geometry[2147483647]</text>
<polygon fill="#ffffff" stroke="transparent" points="537.5,-564 537.5,-582 814.5,-582 814.5,-564 537.5,-564"/>
<polygon fill="none" stroke="black" points="537.5,-564 537.5,-582 814.5,-582 814.5,-564 537.5,-564"/>
<polygon fill="#ffffff" stroke="transparent" points="538.5,-565 538.5,-581 634.5,-581 634.5,-565 538.5,-565"/>
<text text-anchor="start" x="540.5" y="-570.2" font-family="Helvetica,sans-Serif" font-size="11.00">&lt; 0</text>
<polygon fill="#ffffff" stroke="transparent" points="634.5,-565 634.5,-581 718.5,-581 718.5,-565 634.5,-565"/>
<text text-anchor="start" x="672.5" y="-570.2" font-family="Helvetica,sans-Serif" font-size="11.00"> &#160;</text>
<polygon fill="#ffffff" stroke="transparent" points="718.5,-565 718.5,-581 813.5,-581 813.5,-565 718.5,-565"/>
<text text-anchor="start" x="791.5" y="-570.2" font-family="Helvetica,sans-Serif" font-size="11.00">0 &gt;</text>
<polygon fill="black" stroke="black" points="634.5,-565 634.5,-581 634.5,-581 634.5,-565 634.5,-565"/>
<polygon fill="black" stroke="black" points="718.5,-565 718.5,-581 718.5,-581 718.5,-565 718.5,-565"/>
<polygon fill="none" stroke="black" stroke-width="2" points="536,-563 536,-935 815,-935 815,-563 536,-563"/>
</a>
</g>
</g>
<!-- vegetation -->
<g id="node6" class="node">
<title>vegetation</title>
<g id="a_node6"><a xlink:href="../../tables/vegetation.html" xlink:title="vegetation" target="_top">
<polygon fill="#ffffff" stroke="transparent" points="535,-190 535,-322 834,-322 834,-190 535,-190"/>
<polygon fill="#f5f5f5" stroke="transparent" points="537.5,-298 537.5,-320 832.5,-320 832.5,-298 537.5,-298"/>
<polygon fill="none" stroke="black" points="537.5,-298 537.5,-320 832.5,-320 832.5,-298 537.5,-298"/>
<text text-anchor="start" x="542.5" y="-307.2" font-family="Helvetica,sans-Serif" font-weight="bold" font-size="11.00">vegetation</text>
<text text-anchor="start" x="790.5" y="-306.2" font-family="Helvetica,sans-Serif" font-size="11.00">[table]</text>
<polygon fill="none" stroke="black" points="537.5,-276 537.5,-298 696.5,-298 696.5,-276 537.5,-276"/>
<image xlink:href="../../images/primaryKeys.png" width="11px" height="12px" preserveAspectRatio="xMinYMin meet" x="542.5" y="-293"/>
<text text-anchor="start" x="557.5" y="-284.2" font-family="Helvetica,sans-Serif" font-size="11.00">id</text>
<polygon fill="none" stroke="black" points="696.5,-276 696.5,-298 832.5,-298 832.5,-276 696.5,-276"/>
<text text-anchor="start" x="699.5" y="-284.2" font-family="Helvetica,sans-Serif" font-size="11.00">uuid[2147483647]</text>
<polygon fill="none" stroke="black" points="537.5,-254 537.5,-276 696.5,-276 696.5,-254 537.5,-254"/>
<text text-anchor="start" x="557.5" y="-262.2" font-family="Helvetica,sans-Serif" font-size="11.00">fk_vegetation_kind</text>
<polygon fill="none" stroke="black" points="696.5,-254 696.5,-276 832.5,-276 832.5,-254 696.5,-254"/>
<text text-anchor="start" x="699.5" y="-262.2" font-family="Helvetica,sans-Serif" font-size="11.00">int4[10]</text>
<polygon fill="none" stroke="black" points="537.5,-232 537.5,-254 696.5,-254 696.5,-232 537.5,-232"/>
<text text-anchor="start" x="557.5" y="-240.2" font-family="Helvetica,sans-Serif" font-size="11.00">remark</text>
<polygon fill="none" stroke="black" points="696.5,-232 696.5,-254 832.5,-254 832.5,-232 696.5,-232"/>
<text text-anchor="start" x="699.5" y="-240.2" font-family="Helvetica,sans-Serif" font-size="11.00">text[2147483647]</text>
<polygon fill="none" stroke="black" points="537.5,-210 537.5,-232 696.5,-232 696.5,-210 537.5,-210"/>
<text text-anchor="start" x="557.5" y="-218.2" font-family="Helvetica,sans-Serif" font-size="11.00">the_geom</text>
<polygon fill="none" stroke="black" points="696.5,-210 696.5,-232 832.5,-232 832.5,-210 696.5,-210"/>
<text text-anchor="start" x="699.5" y="-218.2" font-family="Helvetica,sans-Serif" font-size="11.00">geometry[2147483647]</text>
<polygon fill="#ffffff" stroke="transparent" points="537.5,-192 537.5,-210 832.5,-210 832.5,-192 537.5,-192"/>
<polygon fill="none" stroke="black" points="537.5,-192 537.5,-210 832.5,-210 832.5,-192 537.5,-192"/>
<polygon fill="#ffffff" stroke="transparent" points="538.5,-193 538.5,-209 640.5,-209 640.5,-193 538.5,-193"/>
<text text-anchor="start" x="540.5" y="-198.2" font-family="Helvetica,sans-Serif" font-size="11.00">&lt; 0</text>
<polygon fill="#ffffff" stroke="transparent" points="640.5,-193 640.5,-209 730.5,-209 730.5,-193 640.5,-193"/>
<text text-anchor="start" x="681.5" y="-198.2" font-family="Helvetica,sans-Serif" font-size="11.00"> &#160;</text>
<polygon fill="#ffffff" stroke="transparent" points="730.5,-193 730.5,-209 831.5,-209 831.5,-193 730.5,-193"/>
<text text-anchor="start" x="809.5" y="-198.2" font-family="Helvetica,sans-Serif" font-size="11.00">0 &gt;</text>
<polygon fill="black" stroke="black" points="640.5,-193 640.5,-209 640.5,-209 640.5,-193 640.5,-193"/>
<polygon fill="black" stroke="black" points="730.5,-193 730.5,-209 730.5,-209 730.5,-193 730.5,-193"/>
<polygon fill="none" stroke="black" stroke-width="2" points="536,-191 536,-321 833,-321 833,-191 536,-191"/>
</a>
</g>
</g>
</g>
</svg>
