<?xml version="1.0" encoding="UTF-8" standalone="no"?>
<!DOCTYPE svg PUBLIC "-//W3C//DTD SVG 1.1//EN"
 "http://www.w3.org/Graphics/SVG/1.1/DTD/svg11.dtd">
<!-- Generated by graphviz version 2.43.0 (0)
 -->
<!-- Title: orphans Pages: 1 -->
<svg width="1061pt" height="1050pt"
 viewBox="0.00 0.00 1061.00 1050.00" xmlns="http://www.w3.org/2000/svg" xmlns:xlink="http://www.w3.org/1999/xlink">
<g id="graph0" class="graph" transform="scale(1 1) rotate(0) translate(4 1046)">
<title>orphans</title>
<polygon fill="#ffffff" stroke="transparent" points="-4,4 -4,-1046 1057,-1046 1057,4 -4,4"/>
<!-- deceased -->
<g id="node1" class="node">
<title>deceased</title>
<g id="a_node1"><a xlink:href="../../tables/deceased.html" xlink:title="deceased" target="_top">
<polygon fill="#ffffff" stroke="transparent" points="308,-154 308,-726 602,-726 602,-154 308,-154"/>
<polygon fill="#f5f5f5" stroke="transparent" points="310,-702 310,-724 600,-724 600,-702 310,-702"/>
<polygon fill="none" stroke="black" points="310,-702 310,-724 600,-724 600,-702 310,-702"/>
<text text-anchor="start" x="315" y="-711.2" font-family="Helvetica,sans-Serif" font-weight="bold" font-size="11.00">deceased</text>
<text text-anchor="start" x="558" y="-710.2" font-family="Helvetica,sans-Serif" font-size="11.00">[table]</text>
<polygon fill="none" stroke="black" points="310,-680 310,-702 464,-702 464,-680 310,-680"/>
<image xlink:href="../../images/primaryKeys.png" width="11px" height="12px" preserveAspectRatio="xMinYMin meet" x="315" y="-697"/>
<text text-anchor="start" x="330" y="-688.2" font-family="Helvetica,sans-Serif" font-size="11.00">id</text>
<polygon fill="none" stroke="black" points="464,-680 464,-702 600,-702 600,-680 464,-680"/>
<text text-anchor="start" x="467" y="-688.2" font-family="Helvetica,sans-Serif" font-size="11.00">uuid[2147483647]</text>
<polygon fill="none" stroke="black" points="310,-658 310,-680 464,-680 464,-658 310,-658"/>
<text text-anchor="start" x="330" y="-666.2" font-family="Helvetica,sans-Serif" font-size="11.00">last_name</text>
<polygon fill="none" stroke="black" points="464,-658 464,-680 600,-680 600,-658 464,-658"/>
<text text-anchor="start" x="467" y="-666.2" font-family="Helvetica,sans-Serif" font-size="11.00">varchar[50]</text>
<polygon fill="none" stroke="black" points="310,-636 310,-658 464,-658 464,-636 310,-636"/>
<text text-anchor="start" x="330" y="-644.2" font-family="Helvetica,sans-Serif" font-size="11.00">first_name</text>
<polygon fill="none" stroke="black" points="464,-636 464,-658 600,-658 600,-636 464,-636"/>
<text text-anchor="start" x="467" y="-644.2" font-family="Helvetica,sans-Serif" font-size="11.00">varchar[50]</text>
<polygon fill="none" stroke="black" points="310,-614 310,-636 464,-636 464,-614 310,-614"/>
<text text-anchor="start" x="330" y="-622.2" font-family="Helvetica,sans-Serif" font-size="11.00">address</text>
<polygon fill="none" stroke="black" points="464,-614 464,-636 600,-636 600,-614 464,-614"/>
<text text-anchor="start" x="467" y="-622.2" font-family="Helvetica,sans-Serif" font-size="11.00">varchar[50]</text>
<polygon fill="none" stroke="black" points="310,-592 310,-614 464,-614 464,-592 310,-592"/>
<text text-anchor="start" x="330" y="-600.2" font-family="Helvetica,sans-Serif" font-size="11.00">city</text>
<polygon fill="none" stroke="black" points="464,-592 464,-614 600,-614 600,-592 464,-592"/>
<text text-anchor="start" x="467" y="-600.2" font-family="Helvetica,sans-Serif" font-size="11.00">varchar[50]</text>
<polygon fill="none" stroke="black" points="310,-570 310,-592 464,-592 464,-570 310,-570"/>
<text text-anchor="start" x="330" y="-578.2" font-family="Helvetica,sans-Serif" font-size="11.00">postal_code</text>
<polygon fill="none" stroke="black" points="464,-570 464,-592 600,-592 600,-570 464,-570"/>
<text text-anchor="start" x="467" y="-578.2" font-family="Helvetica,sans-Serif" font-size="11.00">varchar[10]</text>
<polygon fill="none" stroke="black" points="310,-548 310,-570 464,-570 464,-548 310,-548"/>
<text text-anchor="start" x="330" y="-556.2" font-family="Helvetica,sans-Serif" font-size="11.00">birth_date</text>
<polygon fill="none" stroke="black" points="464,-548 464,-570 600,-570 600,-548 464,-548"/>
<text text-anchor="start" x="467" y="-556.2" font-family="Helvetica,sans-Serif" font-size="11.00">date[13]</text>
<polygon fill="none" stroke="black" points="310,-526 310,-548 464,-548 464,-526 310,-526"/>
<text text-anchor="start" x="330" y="-534.2" font-family="Helvetica,sans-Serif" font-size="11.00">death_date</text>
<polygon fill="none" stroke="black" points="464,-526 464,-548 600,-548 600,-526 464,-526"/>
<text text-anchor="start" x="467" y="-534.2" font-family="Helvetica,sans-Serif" font-size="11.00">date[13]</text>
<polygon fill="none" stroke="black" points="310,-504 310,-526 464,-526 464,-504 310,-504"/>
<text text-anchor="start" x="330" y="-512.2" font-family="Helvetica,sans-Serif" font-size="11.00">death_place</text>
<polygon fill="none" stroke="black" points="464,-504 464,-526 600,-526 600,-504 464,-504"/>
<text text-anchor="start" x="467" y="-512.2" font-family="Helvetica,sans-Serif" font-size="11.00">varchar[50]</text>
<polygon fill="none" stroke="black" points="310,-482 310,-504 464,-504 464,-482 310,-482"/>
<text text-anchor="start" x="330" y="-490.2" font-family="Helvetica,sans-Serif" font-size="11.00">burial_date</text>
<polygon fill="none" stroke="black" points="464,-482 464,-504 600,-504 600,-482 464,-482"/>
<text text-anchor="start" x="467" y="-490.2" font-family="Helvetica,sans-Serif" font-size="11.00">date[13]</text>
<polygon fill="none" stroke="black" points="310,-460 310,-482 464,-482 464,-460 310,-460"/>
<text text-anchor="start" x="330" y="-468.2" font-family="Helvetica,sans-Serif" font-size="11.00">burial_place</text>
<polygon fill="none" stroke="black" points="464,-460 464,-482 600,-482 600,-460 464,-460"/>
<text text-anchor="start" x="467" y="-468.2" font-family="Helvetica,sans-Serif" font-size="11.00">varchar[50]</text>
<polygon fill="none" stroke="black" points="310,-438 310,-460 464,-460 464,-438 310,-438"/>
<text text-anchor="start" x="330" y="-446.2" font-family="Helvetica,sans-Serif" font-size="11.00">flag_main</text>
<polygon fill="none" stroke="black" points="464,-438 464,-460 600,-460 600,-438 464,-438"/>
<text text-anchor="start" x="467" y="-446.2" font-family="Helvetica,sans-Serif" font-size="11.00">bool[1]</text>
<polygon fill="none" stroke="black" points="310,-416 310,-438 464,-438 464,-416 310,-416"/>
<text text-anchor="start" x="330" y="-424.2" font-family="Helvetica,sans-Serif" font-size="11.00">flag_ashes</text>
<polygon fill="none" stroke="black" points="464,-416 464,-438 600,-438 600,-416 464,-416"/>
<text text-anchor="start" x="467" y="-424.2" font-family="Helvetica,sans-Serif" font-size="11.00">bool[1]</text>
<polygon fill="none" stroke="black" points="310,-394 310,-416 464,-416 464,-394 310,-394"/>
<text text-anchor="start" x="330" y="-402.2" font-family="Helvetica,sans-Serif" font-size="11.00">incineration_date</text>
<polygon fill="none" stroke="black" points="464,-394 464,-416 600,-416 600,-394 464,-394"/>
<text text-anchor="start" x="467" y="-402.2" font-family="Helvetica,sans-Serif" font-size="11.00">date[13]</text>
<polygon fill="none" stroke="black" points="310,-372 310,-394 464,-394 464,-372 310,-372"/>
<text text-anchor="start" x="330" y="-380.2" font-family="Helvetica,sans-Serif" font-size="11.00">incineration_place</text>
<polygon fill="none" stroke="black" points="464,-372 464,-394 600,-394 600,-372 464,-372"/>
<text text-anchor="start" x="467" y="-380.2" font-family="Helvetica,sans-Serif" font-size="11.00">varchar[50]</text>
<polygon fill="none" stroke="black" points="310,-350 310,-372 464,-372 464,-350 310,-350"/>
<text text-anchor="start" x="330" y="-358.2" font-family="Helvetica,sans-Serif" font-size="11.00">fk_urn_kind</text>
<polygon fill="none" stroke="black" points="464,-350 464,-372 600,-372 600,-350 464,-350"/>
<text text-anchor="start" x="467" y="-358.2" font-family="Helvetica,sans-Serif" font-size="11.00">int4[10]</text>
<polygon fill="none" stroke="black" points="310,-328 310,-350 464,-350 464,-328 310,-328"/>
<text text-anchor="start" x="330" y="-336.2" font-family="Helvetica,sans-Serif" font-size="11.00">exumation_date</text>
<polygon fill="none" stroke="black" points="464,-328 464,-350 600,-350 600,-328 464,-328"/>
<text text-anchor="start" x="467" y="-336.2" font-family="Helvetica,sans-Serif" font-size="11.00">date[13]</text>
<polygon fill="none" stroke="black" points="310,-306 310,-328 464,-328 464,-306 310,-306"/>
<text text-anchor="start" x="330" y="-314.2" font-family="Helvetica,sans-Serif" font-size="11.00">exumation_place</text>
<polygon fill="none" stroke="black" points="464,-306 464,-328 600,-328 600,-306 464,-306"/>
<text text-anchor="start" x="467" y="-314.2" font-family="Helvetica,sans-Serif" font-size="11.00">varchar[50]</text>
<polygon fill="none" stroke="black" points="310,-284 310,-306 464,-306 464,-284 310,-284"/>
<text text-anchor="start" x="330" y="-292.2" font-family="Helvetica,sans-Serif" font-size="11.00">remark</text>
<polygon fill="none" stroke="black" points="464,-284 464,-306 600,-306 600,-284 464,-284"/>
<text text-anchor="start" x="467" y="-292.2" font-family="Helvetica,sans-Serif" font-size="11.00">text[2147483647]</text>
<polygon fill="none" stroke="black" points="310,-262 310,-284 464,-284 464,-262 310,-262"/>
<text text-anchor="start" x="330" y="-270.2" font-family="Helvetica,sans-Serif" font-size="11.00">child</text>
<polygon fill="none" stroke="black" points="464,-262 464,-284 600,-284 600,-262 464,-262"/>
<text text-anchor="start" x="467" y="-270.2" font-family="Helvetica,sans-Serif" font-size="11.00">bool[1]</text>
<polygon fill="none" stroke="black" points="310,-240 310,-262 464,-262 464,-240 310,-240"/>
<text text-anchor="start" x="330" y="-248.2" font-family="Helvetica,sans-Serif" font-size="11.00">quality</text>
<polygon fill="none" stroke="black" points="464,-240 464,-262 600,-262 600,-240 464,-240"/>
<text text-anchor="start" x="467" y="-248.2" font-family="Helvetica,sans-Serif" font-size="11.00">float8[17,17]</text>
<polygon fill="none" stroke="black" points="310,-218 310,-240 464,-240 464,-218 310,-218"/>
<text text-anchor="start" x="330" y="-226.2" font-family="Helvetica,sans-Serif" font-size="11.00">orientation</text>
<polygon fill="none" stroke="black" points="464,-218 464,-240 600,-240 600,-218 464,-218"/>
<text text-anchor="start" x="467" y="-226.2" font-family="Helvetica,sans-Serif" font-size="11.00">float8[17,17]</text>
<polygon fill="none" stroke="black" points="310,-196 310,-218 464,-218 464,-196 310,-196"/>
<text text-anchor="start" x="330" y="-204.2" font-family="Helvetica,sans-Serif" font-size="11.00">fk_unit</text>
<polygon fill="none" stroke="black" points="464,-196 464,-218 600,-218 600,-196 464,-196"/>
<text text-anchor="start" x="467" y="-204.2" font-family="Helvetica,sans-Serif" font-size="11.00">uuid[2147483647]</text>
<polygon fill="none" stroke="black" points="310,-174 310,-196 464,-196 464,-174 310,-174"/>
<text text-anchor="start" x="330" y="-182.2" font-family="Helvetica,sans-Serif" font-size="11.00">the_geom</text>
<polygon fill="none" stroke="black" points="464,-174 464,-196 600,-196 600,-174 464,-174"/>
<text text-anchor="start" x="467" y="-182.2" font-family="Helvetica,sans-Serif" font-size="11.00">geometry[2147483647]</text>
<polygon fill="#ffffff" stroke="transparent" points="310,-156 310,-174 600,-174 600,-156 310,-156"/>
<polygon fill="none" stroke="black" points="310,-156 310,-174 600,-174 600,-156 310,-156"/>
<polygon fill="#ffffff" stroke="transparent" points="311,-157 311,-173 411,-173 411,-157 311,-157"/>
<text text-anchor="start" x="313" y="-162.2" font-family="Helvetica,sans-Serif" font-size="11.00">&lt; 0</text>
<polygon fill="#ffffff" stroke="transparent" points="411,-157 411,-173 499,-173 499,-157 411,-157"/>
<text text-anchor="start" x="451" y="-162.2" font-family="Helvetica,sans-Serif" font-size="11.00"> &#160;</text>
<polygon fill="#ffffff" stroke="transparent" points="499,-157 499,-173 599,-173 599,-157 499,-157"/>
<text text-anchor="start" x="577" y="-162.2" font-family="Helvetica,sans-Serif" font-size="11.00">0 &gt;</text>
<polygon fill="black" stroke="black" points="411,-157 411,-173 411,-173 411,-157 411,-157"/>
<polygon fill="black" stroke="black" points="499,-157 499,-173 499,-173 499,-157 499,-157"/>
<polygon fill="none" stroke="black" stroke-width="2" points="309,-155 309,-725 601,-725 601,-155 309,-155"/>
</a>
</g>
</g>
<!-- file -->
<g id="node2" class="node">
<title>file</title>
<g id="a_node2"><a xlink:href="../../tables/file.html" xlink:title="file" target="_top">
<polygon fill="#ffffff" stroke="transparent" points="818,-94 818,-248 1045,-248 1045,-94 818,-94"/>
<polygon fill="#f5f5f5" stroke="transparent" points="820.5,-224 820.5,-246 1043.5,-246 1043.5,-224 820.5,-224"/>
<polygon fill="none" stroke="black" points="820.5,-224 820.5,-246 1043.5,-246 1043.5,-224 820.5,-224"/>
<text text-anchor="start" x="825" y="-233.2" font-family="Helvetica,sans-Serif" font-weight="bold" font-size="11.00">file</text>
<text text-anchor="start" x="1001.5" y="-232.2" font-family="Helvetica,sans-Serif" font-size="11.00">[table]</text>
<polygon fill="none" stroke="black" points="820.5,-202 820.5,-224 937.5,-224 937.5,-202 820.5,-202"/>
<image xlink:href="../../images/primaryKeys.png" width="11px" height="12px" preserveAspectRatio="xMinYMin meet" x="825.5" y="-219"/>
<text text-anchor="start" x="840.5" y="-210.2" font-family="Helvetica,sans-Serif" font-size="11.00">id</text>
<polygon fill="none" stroke="black" points="937.5,-202 937.5,-224 1043.5,-224 1043.5,-202 937.5,-202"/>
<text text-anchor="start" x="940.5" y="-210.2" font-family="Helvetica,sans-Serif" font-size="11.00">uuid[2147483647]</text>
<polygon fill="none" stroke="black" points="820.5,-180 820.5,-202 937.5,-202 937.5,-180 820.5,-180"/>
<text text-anchor="start" x="840.5" y="-188.2" font-family="Helvetica,sans-Serif" font-size="11.00">identifier</text>
<polygon fill="none" stroke="black" points="937.5,-180 937.5,-202 1043.5,-202 1043.5,-180 937.5,-180"/>
<text text-anchor="start" x="940.5" y="-188.2" font-family="Helvetica,sans-Serif" font-size="11.00">text[2147483647]</text>
<polygon fill="none" stroke="black" points="820.5,-158 820.5,-180 937.5,-180 937.5,-158 820.5,-158"/>
<text text-anchor="start" x="840.5" y="-166.2" font-family="Helvetica,sans-Serif" font-size="11.00">object</text>
<polygon fill="none" stroke="black" points="937.5,-158 937.5,-180 1043.5,-180 1043.5,-158 937.5,-158"/>
<text text-anchor="start" x="940.5" y="-166.2" font-family="Helvetica,sans-Serif" font-size="11.00">text[2147483647]</text>
<polygon fill="none" stroke="black" points="820.5,-136 820.5,-158 937.5,-158 937.5,-136 820.5,-136"/>
<text text-anchor="start" x="840.5" y="-144.2" font-family="Helvetica,sans-Serif" font-size="11.00">path_relative</text>
<polygon fill="none" stroke="black" points="937.5,-136 937.5,-158 1043.5,-158 1043.5,-136 937.5,-136"/>
<text text-anchor="start" x="940.5" y="-144.2" font-family="Helvetica,sans-Serif" font-size="11.00">text[2147483647]</text>
<polygon fill="none" stroke="black" points="820.5,-114 820.5,-136 937.5,-136 937.5,-114 820.5,-114"/>
<text text-anchor="start" x="840.5" y="-122.2" font-family="Helvetica,sans-Serif" font-size="11.00">remark</text>
<polygon fill="none" stroke="black" points="937.5,-114 937.5,-136 1043.5,-136 1043.5,-114 937.5,-114"/>
<text text-anchor="start" x="940.5" y="-122.2" font-family="Helvetica,sans-Serif" font-size="11.00">text[2147483647]</text>
<polygon fill="#ffffff" stroke="transparent" points="820.5,-96 820.5,-114 1043.5,-114 1043.5,-96 820.5,-96"/>
<polygon fill="none" stroke="black" points="820.5,-96 820.5,-114 1043.5,-114 1043.5,-96 820.5,-96"/>
<polygon fill="#ffffff" stroke="transparent" points="821.5,-97 821.5,-113 899.5,-113 899.5,-97 821.5,-97"/>
<text text-anchor="start" x="823.5" y="-102.2" font-family="Helvetica,sans-Serif" font-size="11.00">&lt; 0</text>
<polygon fill="#ffffff" stroke="transparent" points="899.5,-97 899.5,-113 965.5,-113 965.5,-97 899.5,-97"/>
<text text-anchor="start" x="928.5" y="-102.2" font-family="Helvetica,sans-Serif" font-size="11.00"> &#160;</text>
<polygon fill="#ffffff" stroke="transparent" points="965.5,-97 965.5,-113 1042.5,-113 1042.5,-97 965.5,-97"/>
<text text-anchor="start" x="1020.5" y="-102.2" font-family="Helvetica,sans-Serif" font-size="11.00">0 &gt;</text>
<polygon fill="black" stroke="black" points="899.5,-97 899.5,-113 899.5,-113 899.5,-97 899.5,-97"/>
<polygon fill="black" stroke="black" points="965.5,-97 965.5,-113 965.5,-113 965.5,-97 965.5,-97"/>
<polygon fill="none" stroke="black" stroke-width="2" points="819,-95 819,-247 1044,-247 1044,-95 819,-95"/>
</a>
</g>
</g>
<!-- furniture -->
<g id="node3" class="node">
<title>furniture</title>
<g id="a_node3"><a xlink:href="../../tables/furniture.html" xlink:title="furniture" target="_top">
<polygon fill="#ffffff" stroke="transparent" points="668,-304 668,-436 953,-436 953,-304 668,-304"/>
<polygon fill="#f5f5f5" stroke="transparent" points="670.5,-412 670.5,-434 951.5,-434 951.5,-412 670.5,-412"/>
<polygon fill="none" stroke="black" points="670.5,-412 670.5,-434 951.5,-434 951.5,-412 670.5,-412"/>
<text text-anchor="start" x="675.5" y="-421.2" font-family="Helvetica,sans-Serif" font-weight="bold" font-size="11.00">furniture</text>
<text text-anchor="start" x="909.5" y="-420.2" font-family="Helvetica,sans-Serif" font-size="11.00">[table]</text>
<polygon fill="none" stroke="black" points="670.5,-390 670.5,-412 815.5,-412 815.5,-390 670.5,-390"/>
<image xlink:href="../../images/primaryKeys.png" width="11px" height="12px" preserveAspectRatio="xMinYMin meet" x="675.5" y="-407"/>
<text text-anchor="start" x="690.5" y="-398.2" font-family="Helvetica,sans-Serif" font-size="11.00">id</text>
<polygon fill="none" stroke="black" points="815.5,-390 815.5,-412 951.5,-412 951.5,-390 815.5,-390"/>
<text text-anchor="start" x="818.5" y="-398.2" font-family="Helvetica,sans-Serif" font-size="11.00">uuid[2147483647]</text>
<polygon fill="none" stroke="black" points="670.5,-368 670.5,-390 815.5,-390 815.5,-368 670.5,-368"/>
<text text-anchor="start" x="690.5" y="-376.2" font-family="Helvetica,sans-Serif" font-size="11.00">fk_furniture_kind</text>
<polygon fill="none" stroke="black" points="815.5,-368 815.5,-390 951.5,-390 951.5,-368 815.5,-368"/>
<text text-anchor="start" x="818.5" y="-376.2" font-family="Helvetica,sans-Serif" font-size="11.00">int4[10]</text>
<polygon fill="none" stroke="black" points="670.5,-346 670.5,-368 815.5,-368 815.5,-346 670.5,-346"/>
<text text-anchor="start" x="690.5" y="-354.2" font-family="Helvetica,sans-Serif" font-size="11.00">remark</text>
<polygon fill="none" stroke="black" points="815.5,-346 815.5,-368 951.5,-368 951.5,-346 815.5,-346"/>
<text text-anchor="start" x="818.5" y="-354.2" font-family="Helvetica,sans-Serif" font-size="11.00">text[2147483647]</text>
<polygon fill="none" stroke="black" points="670.5,-324 670.5,-346 815.5,-346 815.5,-324 670.5,-324"/>
<text text-anchor="start" x="690.5" y="-332.2" font-family="Helvetica,sans-Serif" font-size="11.00">the_geom</text>
<polygon fill="none" stroke="black" points="815.5,-324 815.5,-346 951.5,-346 951.5,-324 815.5,-324"/>
<text text-anchor="start" x="818.5" y="-332.2" font-family="Helvetica,sans-Serif" font-size="11.00">geometry[2147483647]</text>
<polygon fill="#ffffff" stroke="transparent" points="670.5,-306 670.5,-324 951.5,-324 951.5,-306 670.5,-306"/>
<polygon fill="none" stroke="black" points="670.5,-306 670.5,-324 951.5,-324 951.5,-306 670.5,-306"/>
<polygon fill="#ffffff" stroke="transparent" points="671.5,-307 671.5,-323 768.5,-323 768.5,-307 671.5,-307"/>
<text text-anchor="start" x="673.5" y="-312.2" font-family="Helvetica,sans-Serif" font-size="11.00">&lt; 0</text>
<polygon fill="#ffffff" stroke="transparent" points="768.5,-307 768.5,-323 853.5,-323 853.5,-307 768.5,-307"/>
<text text-anchor="start" x="807" y="-312.2" font-family="Helvetica,sans-Serif" font-size="11.00"> &#160;</text>
<polygon fill="#ffffff" stroke="transparent" points="853.5,-307 853.5,-323 950.5,-323 950.5,-307 853.5,-307"/>
<text text-anchor="start" x="928.5" y="-312.2" font-family="Helvetica,sans-Serif" font-size="11.00">0 &gt;</text>
<polygon fill="black" stroke="black" points="768.5,-307 768.5,-323 768.5,-323 768.5,-307 768.5,-307"/>
<polygon fill="black" stroke="black" points="853.5,-307 853.5,-323 853.5,-323 853.5,-307 853.5,-307"/>
<polygon fill="none" stroke="black" stroke-width="2" points="669,-305 669,-435 952,-435 952,-305 669,-305"/>
</a>
</g>
</g>
<!-- organisation -->
<g id="node4" class="node">
<title>organisation</title>
<g id="a_node4"><a xlink:href="../../tables/organisation.html" xlink:title="organisation" target="_top">
<polygon fill="#ffffff" stroke="transparent" points="8,-4 8,-114 231,-114 231,-4 8,-4"/>
<polygon fill="#f5f5f5" stroke="transparent" points="10.5,-90 10.5,-112 229.5,-112 229.5,-90 10.5,-90"/>
<polygon fill="none" stroke="black" points="10.5,-90 10.5,-112 229.5,-112 229.5,-90 10.5,-90"/>
<text text-anchor="start" x="15.5" y="-99.2" font-family="Helvetica,sans-Serif" font-weight="bold" font-size="11.00">organisation</text>
<text text-anchor="start" x="187.5" y="-98.2" font-family="Helvetica,sans-Serif" font-size="11.00">[table]</text>
<polygon fill="none" stroke="black" points="10.5,-68 10.5,-90 123.5,-90 123.5,-68 10.5,-68"/>
<image xlink:href="../../images/primaryKeys.png" width="11px" height="12px" preserveAspectRatio="xMinYMin meet" x="15.5" y="-85"/>
<text text-anchor="start" x="30.5" y="-76.2" font-family="Helvetica,sans-Serif" font-size="11.00">id</text>
<polygon fill="none" stroke="black" points="123.5,-68 123.5,-90 229.5,-90 229.5,-68 123.5,-68"/>
<text text-anchor="start" x="126.5" y="-76.2" font-family="Helvetica,sans-Serif" font-size="11.00">uuid[2147483647]</text>
<polygon fill="none" stroke="black" points="10.5,-46 10.5,-68 123.5,-68 123.5,-46 10.5,-46"/>
<text text-anchor="start" x="30.5" y="-54.2" font-family="Helvetica,sans-Serif" font-size="11.00">identifier</text>
<polygon fill="none" stroke="black" points="123.5,-46 123.5,-68 229.5,-68 229.5,-46 123.5,-46"/>
<text text-anchor="start" x="126.5" y="-54.2" font-family="Helvetica,sans-Serif" font-size="11.00">int4[10]</text>
<polygon fill="none" stroke="black" points="10.5,-24 10.5,-46 123.5,-46 123.5,-24 10.5,-24"/>
<text text-anchor="start" x="30.5" y="-32.2" font-family="Helvetica,sans-Serif" font-size="11.00">remark</text>
<polygon fill="none" stroke="black" points="123.5,-24 123.5,-46 229.5,-46 229.5,-24 123.5,-24"/>
<text text-anchor="start" x="126.5" y="-32.2" font-family="Helvetica,sans-Serif" font-size="11.00">text[2147483647]</text>
<polygon fill="#ffffff" stroke="transparent" points="10.5,-6 10.5,-24 229.5,-24 229.5,-6 10.5,-6"/>
<polygon fill="none" stroke="black" points="10.5,-6 10.5,-24 229.5,-24 229.5,-6 10.5,-6"/>
<polygon fill="#ffffff" stroke="transparent" points="11.5,-7 11.5,-23 88.5,-23 88.5,-7 11.5,-7"/>
<text text-anchor="start" x="13.5" y="-12.2" font-family="Helvetica,sans-Serif" font-size="11.00">&lt; 0</text>
<polygon fill="#ffffff" stroke="transparent" points="88.5,-7 88.5,-23 152.5,-23 152.5,-7 88.5,-7"/>
<text text-anchor="start" x="116.5" y="-12.2" font-family="Helvetica,sans-Serif" font-size="11.00"> &#160;</text>
<polygon fill="#ffffff" stroke="transparent" points="152.5,-7 152.5,-23 228.5,-23 228.5,-7 152.5,-7"/>
<text text-anchor="start" x="206.5" y="-12.2" font-family="Helvetica,sans-Serif" font-size="11.00">0 &gt;</text>
<polygon fill="black" stroke="black" points="88.5,-7 88.5,-23 88.5,-23 88.5,-7 88.5,-7"/>
<polygon fill="black" stroke="black" points="152.5,-7 152.5,-23 152.5,-23 152.5,-7 152.5,-7"/>
<polygon fill="none" stroke="black" stroke-width="2" points="9,-5 9,-113 230,-113 230,-5 9,-5"/>
</a>
</g>
</g>
<!-- sector -->
<g id="node5" class="node">
<title>sector</title>
<g id="a_node5"><a xlink:href="../../tables/sector.html" xlink:title="sector" target="_top">
<polygon fill="#ffffff" stroke="transparent" points="128,-784 128,-938 372,-938 372,-784 128,-784"/>
<polygon fill="#f5f5f5" stroke="transparent" points="130,-914 130,-936 370,-936 370,-914 130,-914"/>
<polygon fill="none" stroke="black" points="130,-914 130,-936 370,-936 370,-914 130,-914"/>
<text text-anchor="start" x="135" y="-923.2" font-family="Helvetica,sans-Serif" font-weight="bold" font-size="11.00">sector</text>
<text text-anchor="start" x="328" y="-922.2" font-family="Helvetica,sans-Serif" font-size="11.00">[table]</text>
<polygon fill="none" stroke="black" points="130,-892 130,-914 234,-914 234,-892 130,-892"/>
<image xlink:href="../../images/primaryKeys.png" width="11px" height="12px" preserveAspectRatio="xMinYMin meet" x="135" y="-909"/>
<text text-anchor="start" x="150" y="-900.2" font-family="Helvetica,sans-Serif" font-size="11.00">id</text>
<polygon fill="none" stroke="black" points="234,-892 234,-914 370,-914 370,-892 234,-892"/>
<text text-anchor="start" x="237" y="-900.2" font-family="Helvetica,sans-Serif" font-size="11.00">uuid[2147483647]</text>
<polygon fill="none" stroke="black" points="130,-870 130,-892 234,-892 234,-870 130,-870"/>
<text text-anchor="start" x="150" y="-878.2" font-family="Helvetica,sans-Serif" font-size="11.00">ident_short</text>
<polygon fill="none" stroke="black" points="234,-870 234,-892 370,-892 370,-870 234,-870"/>
<text text-anchor="start" x="237" y="-878.2" font-family="Helvetica,sans-Serif" font-size="11.00">varchar[10]</text>
<polygon fill="none" stroke="black" points="130,-848 130,-870 234,-870 234,-848 130,-848"/>
<text text-anchor="start" x="150" y="-856.2" font-family="Helvetica,sans-Serif" font-size="11.00">identifier</text>
<polygon fill="none" stroke="black" points="234,-848 234,-870 370,-870 370,-848 234,-848"/>
<text text-anchor="start" x="237" y="-856.2" font-family="Helvetica,sans-Serif" font-size="11.00">varchar[100]</text>
<polygon fill="none" stroke="black" points="130,-826 130,-848 234,-848 234,-826 130,-826"/>
<text text-anchor="start" x="150" y="-834.2" font-family="Helvetica,sans-Serif" font-size="11.00">remark</text>
<polygon fill="none" stroke="black" points="234,-826 234,-848 370,-848 370,-826 234,-826"/>
<text text-anchor="start" x="237" y="-834.2" font-family="Helvetica,sans-Serif" font-size="11.00">text[2147483647]</text>
<polygon fill="none" stroke="black" points="130,-804 130,-826 234,-826 234,-804 130,-804"/>
<text text-anchor="start" x="150" y="-812.2" font-family="Helvetica,sans-Serif" font-size="11.00">the_geom</text>
<polygon fill="none" stroke="black" points="234,-804 234,-826 370,-826 370,-804 234,-804"/>
<text text-anchor="start" x="237" y="-812.2" font-family="Helvetica,sans-Serif" font-size="11.00">geometry[2147483647]</text>
<polygon fill="#ffffff" stroke="transparent" points="130,-786 130,-804 370,-804 370,-786 130,-786"/>
<polygon fill="none" stroke="black" points="130,-786 130,-804 370,-804 370,-786 130,-786"/>
<polygon fill="#ffffff" stroke="transparent" points="131,-787 131,-803 215,-803 215,-787 131,-787"/>
<text text-anchor="start" x="133" y="-792.2" font-family="Helvetica,sans-Serif" font-size="11.00">&lt; 0</text>
<polygon fill="#ffffff" stroke="transparent" points="215,-787 215,-803 286,-803 286,-787 215,-787"/>
<text text-anchor="start" x="246.5" y="-792.2" font-family="Helvetica,sans-Serif" font-size="11.00"> &#160;</text>
<polygon fill="#ffffff" stroke="transparent" points="286,-787 286,-803 369,-803 369,-787 286,-787"/>
<text text-anchor="start" x="347" y="-792.2" font-family="Helvetica,sans-Serif" font-size="11.00">0 &gt;</text>
<polygon fill="black" stroke="black" points="215,-787 215,-803 215,-803 215,-787 215,-787"/>
<polygon fill="black" stroke="black" points="286,-787 286,-803 286,-803 286,-787 286,-787"/>
<polygon fill="none" stroke="black" stroke-width="2" points="129,-785 129,-937 371,-937 371,-785 129,-785"/>
</a>
</g>
</g>
<!-- unit -->
<g id="node6" class="node">
<title>unit</title>
<g id="a_node6"><a xlink:href="../../tables/unit.html" xlink:title="unit" target="_top">
<polygon fill="#ffffff" stroke="transparent" points="668,-664 668,-1038 949,-1038 949,-664 668,-664"/>
<polygon fill="#f5f5f5" stroke="transparent" points="670.5,-1014 670.5,-1036 947.5,-1036 947.5,-1014 670.5,-1014"/>
<polygon fill="none" stroke="black" points="670.5,-1014 670.5,-1036 947.5,-1036 947.5,-1014 670.5,-1014"/>
<text text-anchor="start" x="675.5" y="-1023.2" font-family="Helvetica,sans-Serif" font-weight="bold" font-size="11.00">unit</text>
<text text-anchor="start" x="905.5" y="-1022.2" font-family="Helvetica,sans-Serif" font-size="11.00">[table]</text>
<polygon fill="none" stroke="black" points="670.5,-992 670.5,-1014 811.5,-1014 811.5,-992 670.5,-992"/>
<image xlink:href="../../images/primaryKeys.png" width="11px" height="12px" preserveAspectRatio="xMinYMin meet" x="675.5" y="-1009"/>
<text text-anchor="start" x="690.5" y="-1000.2" font-family="Helvetica,sans-Serif" font-size="11.00">id</text>
<polygon fill="none" stroke="black" points="811.5,-992 811.5,-1014 947.5,-1014 947.5,-992 811.5,-992"/>
<text text-anchor="start" x="814.5" y="-1000.2" font-family="Helvetica,sans-Serif" font-size="11.00">uuid[2147483647]</text>
<polygon fill="none" stroke="black" points="670.5,-970 670.5,-992 811.5,-992 811.5,-970 670.5,-970"/>
<text text-anchor="start" x="690.5" y="-978.2" font-family="Helvetica,sans-Serif" font-size="11.00">identifier</text>
<polygon fill="none" stroke="black" points="811.5,-970 811.5,-992 947.5,-992 947.5,-970 811.5,-970"/>
<text text-anchor="start" x="814.5" y="-978.2" font-family="Helvetica,sans-Serif" font-size="11.00">varchar[10]</text>
<polygon fill="none" stroke="black" points="670.5,-948 670.5,-970 811.5,-970 811.5,-948 670.5,-948"/>
<text text-anchor="start" x="690.5" y="-956.2" font-family="Helvetica,sans-Serif" font-size="11.00">start_date</text>
<polygon fill="none" stroke="black" points="811.5,-948 811.5,-970 947.5,-970 947.5,-948 811.5,-948"/>
<text text-anchor="start" x="814.5" y="-956.2" font-family="Helvetica,sans-Serif" font-size="11.00">date[13]</text>
<polygon fill="none" stroke="black" points="670.5,-926 670.5,-948 811.5,-948 811.5,-926 670.5,-926"/>
<text text-anchor="start" x="690.5" y="-934.2" font-family="Helvetica,sans-Serif" font-size="11.00">end_date</text>
<polygon fill="none" stroke="black" points="811.5,-926 811.5,-948 947.5,-948 947.5,-926 811.5,-926"/>
<text text-anchor="start" x="814.5" y="-934.2" font-family="Helvetica,sans-Serif" font-size="11.00">date[13]</text>
<polygon fill="none" stroke="black" points="670.5,-904 670.5,-926 811.5,-926 811.5,-904 670.5,-904"/>
<text text-anchor="start" x="690.5" y="-912.2" font-family="Helvetica,sans-Serif" font-size="11.00">fk_company</text>
<polygon fill="none" stroke="black" points="811.5,-904 811.5,-926 947.5,-926 947.5,-904 811.5,-904"/>
<text text-anchor="start" x="814.5" y="-912.2" font-family="Helvetica,sans-Serif" font-size="11.00">uuid[2147483647]</text>
<polygon fill="none" stroke="black" points="670.5,-882 670.5,-904 811.5,-904 811.5,-882 670.5,-882"/>
<text text-anchor="start" x="690.5" y="-890.2" font-family="Helvetica,sans-Serif" font-size="11.00">fk_sector</text>
<polygon fill="none" stroke="black" points="811.5,-882 811.5,-904 947.5,-904 947.5,-882 811.5,-882"/>
<text text-anchor="start" x="814.5" y="-890.2" font-family="Helvetica,sans-Serif" font-size="11.00">uuid[2147483647]</text>
<polygon fill="none" stroke="black" points="670.5,-860 670.5,-882 811.5,-882 811.5,-860 670.5,-860"/>
<text text-anchor="start" x="690.5" y="-868.2" font-family="Helvetica,sans-Serif" font-size="11.00">fk_cemetery</text>
<polygon fill="none" stroke="black" points="811.5,-860 811.5,-882 947.5,-882 947.5,-860 811.5,-860"/>
<text text-anchor="start" x="814.5" y="-868.2" font-family="Helvetica,sans-Serif" font-size="11.00">int4[10]</text>
<polygon fill="none" stroke="black" points="670.5,-838 670.5,-860 811.5,-860 811.5,-838 670.5,-838"/>
<text text-anchor="start" x="690.5" y="-846.2" font-family="Helvetica,sans-Serif" font-size="11.00">fk_unit_size</text>
<polygon fill="none" stroke="black" points="811.5,-838 811.5,-860 947.5,-860 947.5,-838 811.5,-838"/>
<text text-anchor="start" x="814.5" y="-846.2" font-family="Helvetica,sans-Serif" font-size="11.00">int4[10]</text>
<polygon fill="none" stroke="black" points="670.5,-816 670.5,-838 811.5,-838 811.5,-816 670.5,-816"/>
<text text-anchor="start" x="690.5" y="-824.2" font-family="Helvetica,sans-Serif" font-size="11.00">fk_unit_kind</text>
<polygon fill="none" stroke="black" points="811.5,-816 811.5,-838 947.5,-838 947.5,-816 811.5,-816"/>
<text text-anchor="start" x="814.5" y="-824.2" font-family="Helvetica,sans-Serif" font-size="11.00">int4[10]</text>
<polygon fill="none" stroke="black" points="670.5,-794 670.5,-816 811.5,-816 811.5,-794 670.5,-794"/>
<text text-anchor="start" x="690.5" y="-802.2" font-family="Helvetica,sans-Serif" font-size="11.00">fk_contract_kind</text>
<polygon fill="none" stroke="black" points="811.5,-794 811.5,-816 947.5,-816 947.5,-794 811.5,-794"/>
<text text-anchor="start" x="814.5" y="-802.2" font-family="Helvetica,sans-Serif" font-size="11.00">int4[10]</text>
<polygon fill="none" stroke="black" points="670.5,-772 670.5,-794 811.5,-794 811.5,-772 670.5,-772"/>
<text text-anchor="start" x="690.5" y="-780.2" font-family="Helvetica,sans-Serif" font-size="11.00">remark</text>
<polygon fill="none" stroke="black" points="811.5,-772 811.5,-794 947.5,-794 947.5,-772 811.5,-772"/>
<text text-anchor="start" x="814.5" y="-780.2" font-family="Helvetica,sans-Serif" font-size="11.00">text[2147483647]</text>
<polygon fill="none" stroke="black" points="670.5,-750 670.5,-772 811.5,-772 811.5,-750 670.5,-750"/>
<text text-anchor="start" x="690.5" y="-758.2" font-family="Helvetica,sans-Serif" font-size="11.00">disused</text>
<polygon fill="none" stroke="black" points="811.5,-750 811.5,-772 947.5,-772 947.5,-750 811.5,-750"/>
<text text-anchor="start" x="814.5" y="-758.2" font-family="Helvetica,sans-Serif" font-size="11.00">bool[1]</text>
<polygon fill="none" stroke="black" points="670.5,-728 670.5,-750 811.5,-750 811.5,-728 670.5,-728"/>
<text text-anchor="start" x="690.5" y="-736.2" font-family="Helvetica,sans-Serif" font-size="11.00">disused_date</text>
<polygon fill="none" stroke="black" points="811.5,-728 811.5,-750 947.5,-750 947.5,-728 811.5,-728"/>
<text text-anchor="start" x="814.5" y="-736.2" font-family="Helvetica,sans-Serif" font-size="11.00">date[13]</text>
<polygon fill="none" stroke="black" points="670.5,-706 670.5,-728 811.5,-728 811.5,-706 670.5,-706"/>
<text text-anchor="start" x="690.5" y="-714.2" font-family="Helvetica,sans-Serif" font-size="11.00">fk_control</text>
<polygon fill="none" stroke="black" points="811.5,-706 811.5,-728 947.5,-728 947.5,-706 811.5,-706"/>
<text text-anchor="start" x="814.5" y="-714.2" font-family="Helvetica,sans-Serif" font-size="11.00">int4[10]</text>
<polygon fill="none" stroke="black" points="670.5,-684 670.5,-706 811.5,-706 811.5,-684 670.5,-684"/>
<text text-anchor="start" x="690.5" y="-692.2" font-family="Helvetica,sans-Serif" font-size="11.00">the_geom</text>
<polygon fill="none" stroke="black" points="811.5,-684 811.5,-706 947.5,-706 947.5,-684 811.5,-684"/>
<text text-anchor="start" x="814.5" y="-692.2" font-family="Helvetica,sans-Serif" font-size="11.00">geometry[2147483647]</text>
<polygon fill="#ffffff" stroke="transparent" points="670.5,-666 670.5,-684 947.5,-684 947.5,-666 670.5,-666"/>
<polygon fill="none" stroke="black" points="670.5,-666 670.5,-684 947.5,-684 947.5,-666 670.5,-666"/>
<polygon fill="#ffffff" stroke="transparent" points="671.5,-667 671.5,-683 767.5,-683 767.5,-667 671.5,-667"/>
<text text-anchor="start" x="673.5" y="-672.2" font-family="Helvetica,sans-Serif" font-size="11.00">&lt; 0</text>
<polygon fill="#ffffff" stroke="transparent" points="767.5,-667 767.5,-683 851.5,-683 851.5,-667 767.5,-667"/>
<text text-anchor="start" x="805.5" y="-672.2" font-family="Helvetica,sans-Serif" font-size="11.00"> &#160;</text>
<polygon fill="#ffffff" stroke="transparent" points="851.5,-667 851.5,-683 946.5,-683 946.5,-667 851.5,-667"/>
<text text-anchor="start" x="924.5" y="-672.2" font-family="Helvetica,sans-Serif" font-size="11.00">0 &gt;</text>
<polygon fill="black" stroke="black" points="767.5,-667 767.5,-683 767.5,-683 767.5,-667 767.5,-667"/>
<polygon fill="black" stroke="black" points="851.5,-667 851.5,-683 851.5,-683 851.5,-667 851.5,-667"/>
<polygon fill="none" stroke="black" stroke-width="2" points="669,-665 669,-1037 948,-1037 948,-665 669,-665"/>
</a>
</g>
</g>
<!-- vegetation -->
<g id="node7" class="node">
<title>vegetation</title>
<g id="a_node7"><a xlink:href="../../tables/vegetation.html" xlink:title="vegetation" target="_top">
<polygon fill="#ffffff" stroke="transparent" points="668,-484 668,-616 967,-616 967,-484 668,-484"/>
<polygon fill="#f5f5f5" stroke="transparent" points="670.5,-592 670.5,-614 965.5,-614 965.5,-592 670.5,-592"/>
<polygon fill="none" stroke="black" points="670.5,-592 670.5,-614 965.5,-614 965.5,-592 670.5,-592"/>
<text text-anchor="start" x="675.5" y="-601.2" font-family="Helvetica,sans-Serif" font-weight="bold" font-size="11.00">vegetation</text>
<text text-anchor="start" x="923.5" y="-600.2" font-family="Helvetica,sans-Serif" font-size="11.00">[table]</text>
<polygon fill="none" stroke="black" points="670.5,-570 670.5,-592 829.5,-592 829.5,-570 670.5,-570"/>
<image xlink:href="../../images/primaryKeys.png" width="11px" height="12px" preserveAspectRatio="xMinYMin meet" x="675.5" y="-587"/>
<text text-anchor="start" x="690.5" y="-578.2" font-family="Helvetica,sans-Serif" font-size="11.00">id</text>
<polygon fill="none" stroke="black" points="829.5,-570 829.5,-592 965.5,-592 965.5,-570 829.5,-570"/>
<text text-anchor="start" x="832.5" y="-578.2" font-family="Helvetica,sans-Serif" font-size="11.00">uuid[2147483647]</text>
<polygon fill="none" stroke="black" points="670.5,-548 670.5,-570 829.5,-570 829.5,-548 670.5,-548"/>
<text text-anchor="start" x="690.5" y="-556.2" font-family="Helvetica,sans-Serif" font-size="11.00">fk_vegetation_kind</text>
<polygon fill="none" stroke="black" points="829.5,-548 829.5,-570 965.5,-570 965.5,-548 829.5,-548"/>
<text text-anchor="start" x="832.5" y="-556.2" font-family="Helvetica,sans-Serif" font-size="11.00">int4[10]</text>
<polygon fill="none" stroke="black" points="670.5,-526 670.5,-548 829.5,-548 829.5,-526 670.5,-526"/>
<text text-anchor="start" x="690.5" y="-534.2" font-family="Helvetica,sans-Serif" font-size="11.00">remark</text>
<polygon fill="none" stroke="black" points="829.5,-526 829.5,-548 965.5,-548 965.5,-526 829.5,-526"/>
<text text-anchor="start" x="832.5" y="-534.2" font-family="Helvetica,sans-Serif" font-size="11.00">text[2147483647]</text>
<polygon fill="none" stroke="black" points="670.5,-504 670.5,-526 829.5,-526 829.5,-504 670.5,-504"/>
<text text-anchor="start" x="690.5" y="-512.2" font-family="Helvetica,sans-Serif" font-size="11.00">the_geom</text>
<polygon fill="none" stroke="black" points="829.5,-504 829.5,-526 965.5,-526 965.5,-504 829.5,-504"/>
<text text-anchor="start" x="832.5" y="-512.2" font-family="Helvetica,sans-Serif" font-size="11.00">geometry[2147483647]</text>
<polygon fill="#ffffff" stroke="transparent" points="670.5,-486 670.5,-504 965.5,-504 965.5,-486 670.5,-486"/>
<polygon fill="none" stroke="black" points="670.5,-486 670.5,-504 965.5,-504 965.5,-486 670.5,-486"/>
<polygon fill="#ffffff" stroke="transparent" points="671.5,-487 671.5,-503 773.5,-503 773.5,-487 671.5,-487"/>
<text text-anchor="start" x="673.5" y="-492.2" font-family="Helvetica,sans-Serif" font-size="11.00">&lt; 0</text>
<polygon fill="#ffffff" stroke="transparent" points="773.5,-487 773.5,-503 863.5,-503 863.5,-487 773.5,-487"/>
<text text-anchor="start" x="814.5" y="-492.2" font-family="Helvetica,sans-Serif" font-size="11.00"> &#160;</text>
<polygon fill="#ffffff" stroke="transparent" points="863.5,-487 863.5,-503 964.5,-503 964.5,-487 863.5,-487"/>
<text text-anchor="start" x="942.5" y="-492.2" font-family="Helvetica,sans-Serif" font-size="11.00">0 &gt;</text>
<polygon fill="black" stroke="black" points="773.5,-487 773.5,-503 773.5,-503 773.5,-487 773.5,-487"/>
<polygon fill="black" stroke="black" points="863.5,-487 863.5,-503 863.5,-503 863.5,-487 863.5,-487"/>
<polygon fill="none" stroke="black" stroke-width="2" points="669,-485 669,-615 966,-615 966,-485 669,-485"/>
</a>
</g>
</g>
</g>
</svg>
