<?xml version="1.0" encoding="UTF-8" standalone="no"?>
<!DOCTYPE svg PUBLIC "-//W3C//DTD SVG 1.1//EN"
 "http://www.w3.org/Graphics/SVG/1.1/DTD/svg11.dtd">
<!-- Generated by graphviz version 2.43.0 (0)
 -->
<!-- Title: oneDegreeRelationshipsDiagram Pages: 1 -->
<svg width="1141pt" height="535pt"
 viewBox="0.00 0.00 1141.00 535.00" xmlns="http://www.w3.org/2000/svg" xmlns:xlink="http://www.w3.org/1999/xlink">
<g id="graph0" class="graph" transform="scale(1 1) rotate(0) translate(4 531)">
<title>oneDegreeRelationshipsDiagram</title>
<polygon fill="#ffffff" stroke="transparent" points="-4,4 -4,-531 1137,-531 1137,4 -4,4"/>
<text text-anchor="middle" x="79.5" y="-7.2" font-family="Helvetica,sans-Serif" font-size="11.00">Generated by SchemaSpy</text>
<!-- contact -->
<g id="node1" class="node">
<title>contact</title>
<g id="a_node1"><a xlink:href="../../tables/contact.html" xlink:title="contact" target="_top">
<polygon fill="#ffffff" stroke="transparent" points="244,-37 244,-433 526,-433 526,-37 244,-37"/>
<polygon fill="#f5f5f5" stroke="transparent" points="246,-409 246,-431 524,-431 524,-409 246,-409"/>
<polygon fill="none" stroke="black" points="246,-409 246,-431 524,-431 524,-409 246,-409"/>
<text text-anchor="start" x="251" y="-418.2" font-family="Helvetica,sans-Serif" font-weight="bold" font-size="11.00">contact</text>
<text text-anchor="start" x="482" y="-417.2" font-family="Helvetica,sans-Serif" font-size="11.00">[table]</text>
<polygon fill="none" stroke="black" points="246,-387 246,-409 418,-409 418,-387 246,-387"/>
<image xlink:href="../../images/primaryKeys.png" width="11px" height="12px" preserveAspectRatio="xMinYMin meet" x="251" y="-404"/>
<text text-anchor="start" x="266" y="-395.2" font-family="Helvetica,sans-Serif" font-size="11.00">id</text>
<polygon fill="none" stroke="black" points="418,-387 418,-409 524,-409 524,-387 418,-387"/>
<text text-anchor="start" x="421" y="-395.2" font-family="Helvetica,sans-Serif" font-size="11.00">uuid[2147483647]</text>
<polygon fill="#ffffff" stroke="transparent" points="246,-365 246,-387 418,-387 418,-365 246,-365"/>
<polygon fill="none" stroke="black" points="246,-365 246,-387 418,-387 418,-365 246,-365"/>
<image xlink:href="../../images/foreignKeys.png" width="11px" height="12px" preserveAspectRatio="xMinYMin meet" x="251" y="-382"/>
<text text-anchor="start" x="266" y="-373.2" font-family="Helvetica,sans-Serif" font-size="11.00">fk_kind</text>
<polygon fill="none" stroke="black" points="418,-365 418,-387 524,-387 524,-365 418,-365"/>
<text text-anchor="start" x="421" y="-373.2" font-family="Helvetica,sans-Serif" font-size="11.00">int4[10]</text>
<polygon fill="#ffffff" stroke="transparent" points="246,-343 246,-365 418,-365 418,-343 246,-343"/>
<polygon fill="none" stroke="black" points="246,-343 246,-365 418,-365 418,-343 246,-343"/>
<text text-anchor="start" x="266" y="-351.2" font-family="Helvetica,sans-Serif" font-size="11.00">fk_organisation</text>
<polygon fill="none" stroke="black" points="418,-343 418,-365 524,-365 524,-343 418,-343"/>
<text text-anchor="start" x="421" y="-351.2" font-family="Helvetica,sans-Serif" font-size="11.00">uuid[2147483647]</text>
<polygon fill="#ffffff" stroke="transparent" points="246,-321 246,-343 418,-343 418,-321 246,-321"/>
<polygon fill="none" stroke="black" points="246,-321 246,-343 418,-343 418,-321 246,-321"/>
<image xlink:href="../../images/foreignKeys.png" width="11px" height="12px" preserveAspectRatio="xMinYMin meet" x="251" y="-338"/>
<text text-anchor="start" x="266" y="-329.2" font-family="Helvetica,sans-Serif" font-size="11.00">fk_civility</text>
<polygon fill="none" stroke="black" points="418,-321 418,-343 524,-343 524,-321 418,-321"/>
<text text-anchor="start" x="421" y="-329.2" font-family="Helvetica,sans-Serif" font-size="11.00">int4[10]</text>
<polygon fill="#ffffff" stroke="transparent" points="246,-299 246,-321 418,-321 418,-299 246,-299"/>
<polygon fill="none" stroke="black" points="246,-299 246,-321 418,-321 418,-299 246,-299"/>
<text text-anchor="start" x="266" y="-307.2" font-family="Helvetica,sans-Serif" font-size="11.00">first_name</text>
<polygon fill="none" stroke="black" points="418,-299 418,-321 524,-321 524,-299 418,-299"/>
<text text-anchor="start" x="421" y="-307.2" font-family="Helvetica,sans-Serif" font-size="11.00">text[2147483647]</text>
<polygon fill="#ffffff" stroke="transparent" points="246,-277 246,-299 418,-299 418,-277 246,-277"/>
<polygon fill="none" stroke="black" points="246,-277 246,-299 418,-299 418,-277 246,-277"/>
<text text-anchor="start" x="266" y="-285.2" font-family="Helvetica,sans-Serif" font-size="11.00">last_name</text>
<polygon fill="none" stroke="black" points="418,-277 418,-299 524,-299 524,-277 418,-277"/>
<text text-anchor="start" x="421" y="-285.2" font-family="Helvetica,sans-Serif" font-size="11.00">text[2147483647]</text>
<polygon fill="#ffffff" stroke="transparent" points="246,-255 246,-277 418,-277 418,-255 246,-255"/>
<polygon fill="none" stroke="black" points="246,-255 246,-277 418,-277 418,-255 246,-255"/>
<text text-anchor="start" x="266" y="-263.2" font-family="Helvetica,sans-Serif" font-size="11.00">street_name</text>
<polygon fill="none" stroke="black" points="418,-255 418,-277 524,-277 524,-255 418,-255"/>
<text text-anchor="start" x="421" y="-263.2" font-family="Helvetica,sans-Serif" font-size="11.00">text[2147483647]</text>
<polygon fill="#ffffff" stroke="transparent" points="246,-233 246,-255 418,-255 418,-233 246,-233"/>
<polygon fill="none" stroke="black" points="246,-233 246,-255 418,-255 418,-233 246,-233"/>
<text text-anchor="start" x="266" y="-241.2" font-family="Helvetica,sans-Serif" font-size="11.00">house_number</text>
<polygon fill="none" stroke="black" points="418,-233 418,-255 524,-255 524,-233 418,-233"/>
<text text-anchor="start" x="421" y="-241.2" font-family="Helvetica,sans-Serif" font-size="11.00">varchar[10]</text>
<polygon fill="#ffffff" stroke="transparent" points="246,-211 246,-233 418,-233 418,-211 246,-211"/>
<polygon fill="none" stroke="black" points="246,-211 246,-233 418,-233 418,-211 246,-211"/>
<text text-anchor="start" x="266" y="-219.2" font-family="Helvetica,sans-Serif" font-size="11.00">address_supplement</text>
<polygon fill="none" stroke="black" points="418,-211 418,-233 524,-233 524,-211 418,-211"/>
<text text-anchor="start" x="421" y="-219.2" font-family="Helvetica,sans-Serif" font-size="11.00">text[2147483647]</text>
<polygon fill="#ffffff" stroke="transparent" points="246,-189 246,-211 418,-211 418,-189 246,-189"/>
<polygon fill="none" stroke="black" points="246,-189 246,-211 418,-211 418,-189 246,-189"/>
<text text-anchor="start" x="266" y="-197.2" font-family="Helvetica,sans-Serif" font-size="11.00">city</text>
<polygon fill="none" stroke="black" points="418,-189 418,-211 524,-211 524,-189 418,-189"/>
<text text-anchor="start" x="421" y="-197.2" font-family="Helvetica,sans-Serif" font-size="11.00">text[2147483647]</text>
<polygon fill="#ffffff" stroke="transparent" points="246,-167 246,-189 418,-189 418,-167 246,-167"/>
<polygon fill="none" stroke="black" points="246,-167 246,-189 418,-189 418,-167 246,-167"/>
<text text-anchor="start" x="266" y="-175.2" font-family="Helvetica,sans-Serif" font-size="11.00">postal_code</text>
<polygon fill="none" stroke="black" points="418,-167 418,-189 524,-189 524,-167 418,-167"/>
<text text-anchor="start" x="421" y="-175.2" font-family="Helvetica,sans-Serif" font-size="11.00">varchar[10]</text>
<polygon fill="#ffffff" stroke="transparent" points="246,-145 246,-167 418,-167 418,-145 246,-145"/>
<polygon fill="none" stroke="black" points="246,-145 246,-167 418,-167 418,-145 246,-145"/>
<text text-anchor="start" x="266" y="-153.2" font-family="Helvetica,sans-Serif" font-size="11.00">phone</text>
<polygon fill="none" stroke="black" points="418,-145 418,-167 524,-167 524,-145 418,-145"/>
<text text-anchor="start" x="421" y="-153.2" font-family="Helvetica,sans-Serif" font-size="11.00">varchar[20]</text>
<polygon fill="#ffffff" stroke="transparent" points="246,-123 246,-145 418,-145 418,-123 246,-123"/>
<polygon fill="none" stroke="black" points="246,-123 246,-145 418,-145 418,-123 246,-123"/>
<text text-anchor="start" x="266" y="-131.2" font-family="Helvetica,sans-Serif" font-size="11.00">email</text>
<polygon fill="none" stroke="black" points="418,-123 418,-145 524,-145 524,-123 418,-123"/>
<text text-anchor="start" x="421" y="-131.2" font-family="Helvetica,sans-Serif" font-size="11.00">varchar[255]</text>
<polygon fill="none" stroke="black" points="246,-101 246,-123 418,-123 418,-101 246,-101"/>
<text text-anchor="start" x="266" y="-109.2" font-family="Helvetica,sans-Serif" font-size="11.00">remark</text>
<polygon fill="none" stroke="black" points="418,-101 418,-123 524,-123 524,-101 418,-101"/>
<text text-anchor="start" x="421" y="-109.2" font-family="Helvetica,sans-Serif" font-size="11.00">text[2147483647]</text>
<polygon fill="none" stroke="black" points="246,-79 246,-101 418,-101 418,-79 246,-79"/>
<text text-anchor="start" x="266" y="-87.2" font-family="Helvetica,sans-Serif" font-size="11.00">second_first_name</text>
<polygon fill="none" stroke="black" points="418,-79 418,-101 524,-101 524,-79 418,-79"/>
<text text-anchor="start" x="421" y="-87.2" font-family="Helvetica,sans-Serif" font-size="11.00">text[2147483647]</text>
<polygon fill="none" stroke="black" points="246,-57 246,-79 418,-79 418,-57 246,-57"/>
<text text-anchor="start" x="266" y="-65.2" font-family="Helvetica,sans-Serif" font-size="11.00">display_txt</text>
<polygon fill="none" stroke="black" points="418,-57 418,-79 524,-79 524,-57 418,-57"/>
<text text-anchor="start" x="421" y="-65.2" font-family="Helvetica,sans-Serif" font-size="11.00">text[2147483647]</text>
<polygon fill="#ffffff" stroke="transparent" points="246,-39 246,-57 524,-57 524,-39 246,-39"/>
<polygon fill="none" stroke="black" points="246,-39 246,-57 524,-57 524,-39 246,-39"/>
<polygon fill="#ffffff" stroke="transparent" points="247,-40 247,-56 343,-56 343,-40 247,-40"/>
<text text-anchor="start" x="249" y="-45.2" font-family="Helvetica,sans-Serif" font-size="11.00">&lt; 2</text>
<polygon fill="#ffffff" stroke="transparent" points="343,-40 343,-56 427,-56 427,-40 343,-40"/>
<text text-anchor="start" x="381" y="-45.2" font-family="Helvetica,sans-Serif" font-size="11.00"> &#160;</text>
<polygon fill="#ffffff" stroke="transparent" points="427,-40 427,-56 523,-56 523,-40 427,-40"/>
<text text-anchor="start" x="501" y="-45.2" font-family="Helvetica,sans-Serif" font-size="11.00">3 &gt;</text>
<polygon fill="black" stroke="black" points="343,-40 343,-56 343,-56 343,-40 343,-40"/>
<polygon fill="black" stroke="black" points="427,-40 427,-56 427,-56 427,-40 427,-40"/>
<polygon fill="none" stroke="black" stroke-width="2" points="245,-38 245,-432 525,-432 525,-38 245,-38"/>
</a>
</g>
</g>
<!-- tce_vl.civility -->
<g id="node2" class="node">
<title>tce_vl.civility</title>
<g id="a_node2"><a xlink:href="../../../tce_vl/tables/civility.html" xlink:title="tce_vl.civility" target="_top">
<polygon fill="#ffffff" stroke="transparent" points="30.5,-285 30.5,-343 172.5,-343 172.5,-285 30.5,-285"/>
<polygon fill="#f5f5f5" stroke="transparent" points="30.5,-321 30.5,-343 172.5,-343 172.5,-321 30.5,-321"/>
<polygon fill="none" stroke="black" points="30.5,-321 30.5,-343 172.5,-343 172.5,-321 30.5,-321"/>
<text text-anchor="start" x="35.5" y="-330.2" font-family="Helvetica,sans-Serif" font-weight="bold" font-size="11.00">tce_vl.civility</text>
<text text-anchor="start" x="130.5" y="-329.2" font-family="Helvetica,sans-Serif" font-size="11.00">[table]</text>
<polygon fill="none" stroke="black" points="30.5,-303 30.5,-321 172.5,-321 172.5,-303 30.5,-303"/>
<text text-anchor="start" x="33.5" y="-309.2" font-family="Helvetica,sans-Serif" font-size="11.00">...</text>
<polygon fill="#ffffff" stroke="transparent" points="30.5,-285 30.5,-303 172.5,-303 172.5,-285 30.5,-285"/>
<polygon fill="none" stroke="black" points="30.5,-285 30.5,-303 172.5,-303 172.5,-285 30.5,-285"/>
<polygon fill="#ffffff" stroke="transparent" points="31.5,-286 31.5,-302 64.5,-302 64.5,-286 31.5,-286"/>
<text text-anchor="start" x="33.5" y="-291.2" font-family="Helvetica,sans-Serif" font-size="11.00"> &#160;</text>
<polygon fill="#ffffff" stroke="transparent" points="64.5,-286 64.5,-302 126.5,-302 126.5,-286 64.5,-286"/>
<text text-anchor="start" x="77" y="-291.2" font-family="Helvetica,sans-Serif" font-size="11.00">0 rows</text>
<polygon fill="#ffffff" stroke="transparent" points="126.5,-286 126.5,-302 171.5,-302 171.5,-286 126.5,-286"/>
<text text-anchor="start" x="149.5" y="-291.2" font-family="Helvetica,sans-Serif" font-size="11.00">2 &gt;</text>
<polygon fill="black" stroke="black" points="64.5,-286 64.5,-302 64.5,-302 64.5,-286 64.5,-286"/>
<polygon fill="black" stroke="black" points="126.5,-286 126.5,-302 126.5,-302 126.5,-286 126.5,-286"/>
</a>
</g>
</g>
<!-- contact&#45;&gt;tce_vl.civility -->
<g id="edge1" class="edge">
<title>contact:w&#45;&gt;tce_vl.civility:e</title>
<path fill="none" stroke="black" d="M230.56,-331.72C213.93,-331.09 196.79,-329.47 180.67,-327.46"/>
<polygon fill="black" stroke="black" points="237,-331.84 244.93,-335.6 241,-331.92 245,-332 245,-332 245,-332 241,-331.92 245.07,-328.4 237,-331.84 237,-331.84"/>
<ellipse fill="none" stroke="black" cx="233.8" cy="-331.78" rx="3.2" ry="3.2"/>
</g>
<!-- tce_vl.contact_kind -->
<g id="node3" class="node">
<title>tce_vl.contact_kind</title>
<g id="a_node3"><a xlink:href="../../../tce_vl/tables/contact_kind.html" xlink:title="tce_vl.contact_kind" target="_top">
<polygon fill="#ffffff" stroke="transparent" points="8,-364 8,-422 195,-422 195,-364 8,-364"/>
<polygon fill="#f5f5f5" stroke="transparent" points="8.5,-400 8.5,-422 195.5,-422 195.5,-400 8.5,-400"/>
<polygon fill="none" stroke="black" points="8.5,-400 8.5,-422 195.5,-422 195.5,-400 8.5,-400"/>
<text text-anchor="start" x="13.5" y="-409.2" font-family="Helvetica,sans-Serif" font-weight="bold" font-size="11.00">tce_vl.contact_kind</text>
<text text-anchor="start" x="153.5" y="-408.2" font-family="Helvetica,sans-Serif" font-size="11.00">[table]</text>
<polygon fill="none" stroke="black" points="8.5,-382 8.5,-400 195.5,-400 195.5,-382 8.5,-382"/>
<text text-anchor="start" x="11.5" y="-388.2" font-family="Helvetica,sans-Serif" font-size="11.00">...</text>
<polygon fill="#ffffff" stroke="transparent" points="8.5,-364 8.5,-382 195.5,-382 195.5,-364 8.5,-364"/>
<polygon fill="none" stroke="black" points="8.5,-364 8.5,-382 195.5,-382 195.5,-364 8.5,-364"/>
<polygon fill="#ffffff" stroke="transparent" points="9.5,-365 9.5,-381 57.5,-381 57.5,-365 9.5,-365"/>
<text text-anchor="start" x="11.5" y="-370.2" font-family="Helvetica,sans-Serif" font-size="11.00"> &#160;</text>
<polygon fill="#ffffff" stroke="transparent" points="57.5,-365 57.5,-381 134.5,-381 134.5,-365 57.5,-365"/>
<text text-anchor="start" x="77.5" y="-370.2" font-family="Helvetica,sans-Serif" font-size="11.00">0 rows</text>
<polygon fill="#ffffff" stroke="transparent" points="134.5,-365 134.5,-381 194.5,-381 194.5,-365 134.5,-365"/>
<text text-anchor="start" x="172.5" y="-370.2" font-family="Helvetica,sans-Serif" font-size="11.00">1 &gt;</text>
<polygon fill="black" stroke="black" points="57.5,-365 57.5,-381 57.5,-381 57.5,-365 57.5,-365"/>
<polygon fill="black" stroke="black" points="134.5,-365 134.5,-381 134.5,-381 134.5,-365 134.5,-365"/>
</a>
</g>
</g>
<!-- contact&#45;&gt;tce_vl.contact_kind -->
<g id="edge2" class="edge">
<title>contact:w&#45;&gt;tce_vl.contact_kind:e</title>
<path fill="none" stroke="black" d="M230.47,-376.27C221.43,-376.6 212.23,-377.2 203.14,-377.98"/>
<polygon fill="black" stroke="black" points="237,-376.15 245.07,-379.6 241,-376.07 245,-376 245,-376 245,-376 241,-376.07 244.93,-372.4 237,-376.15 237,-376.15"/>
<ellipse fill="none" stroke="black" cx="233.8" cy="-376.21" rx="3.2" ry="3.2"/>
</g>
<!-- contract -->
<g id="node4" class="node">
<title>contract</title>
<g id="a_node4"><a xlink:href="../../tables/contract.html" xlink:title="contract" target="_top">
<polygon fill="#ffffff" stroke="transparent" points="777,-311 777,-457 936,-457 936,-311 777,-311"/>
<polygon fill="#f5f5f5" stroke="transparent" points="777.5,-435 777.5,-457 936.5,-457 936.5,-435 777.5,-435"/>
<polygon fill="none" stroke="black" points="777.5,-435 777.5,-457 936.5,-457 936.5,-435 777.5,-435"/>
<text text-anchor="start" x="782.5" y="-444.2" font-family="Helvetica,sans-Serif" font-weight="bold" font-size="11.00">contract</text>
<text text-anchor="start" x="894.5" y="-443.2" font-family="Helvetica,sans-Serif" font-size="11.00">[table]</text>
<polygon fill="none" stroke="black" points="777.5,-413 777.5,-435 936.5,-435 936.5,-413 777.5,-413"/>
<image xlink:href="../../images/primaryKeys.png" width="11px" height="12px" preserveAspectRatio="xMinYMin meet" x="782.5" y="-430"/>
<text text-anchor="start" x="797.5" y="-421.2" font-family="Helvetica,sans-Serif" font-size="11.00">id</text>
<polygon fill="none" stroke="black" points="777.5,-391 777.5,-413 936.5,-413 936.5,-391 777.5,-391"/>
<image xlink:href="../../images/foreignKeys.png" width="11px" height="12px" preserveAspectRatio="xMinYMin meet" x="782.5" y="-408"/>
<text text-anchor="start" x="797.5" y="-399.2" font-family="Helvetica,sans-Serif" font-size="11.00">fk_kind</text>
<polygon fill="none" stroke="black" points="777.5,-369 777.5,-391 936.5,-391 936.5,-369 777.5,-369"/>
<image xlink:href="../../images/foreignKeys.png" width="11px" height="12px" preserveAspectRatio="xMinYMin meet" x="782.5" y="-386"/>
<text text-anchor="start" x="797.5" y="-377.2" font-family="Helvetica,sans-Serif" font-size="11.00">fk_contract_person</text>
<polygon fill="none" stroke="black" points="777.5,-347 777.5,-369 936.5,-369 936.5,-347 777.5,-347"/>
<image xlink:href="../../images/foreignKeys.png" width="11px" height="12px" preserveAspectRatio="xMinYMin meet" x="782.5" y="-364"/>
<text text-anchor="start" x="797.5" y="-355.2" font-family="Helvetica,sans-Serif" font-size="11.00">fk_unit</text>
<polygon fill="none" stroke="black" points="777.5,-329 777.5,-347 936.5,-347 936.5,-329 777.5,-329"/>
<text text-anchor="start" x="780.5" y="-335.2" font-family="Helvetica,sans-Serif" font-size="11.00">...</text>
<polygon fill="#ffffff" stroke="transparent" points="777.5,-311 777.5,-329 936.5,-329 936.5,-311 777.5,-311"/>
<polygon fill="none" stroke="black" points="777.5,-311 777.5,-329 936.5,-329 936.5,-311 777.5,-311"/>
<polygon fill="#ffffff" stroke="transparent" points="778.5,-312 778.5,-328 835.5,-328 835.5,-312 778.5,-312"/>
<text text-anchor="start" x="780.5" y="-317.2" font-family="Helvetica,sans-Serif" font-size="11.00">&lt; 3</text>
<polygon fill="#ffffff" stroke="transparent" points="835.5,-312 835.5,-328 879.5,-328 879.5,-312 835.5,-312"/>
<text text-anchor="start" x="853.5" y="-317.2" font-family="Helvetica,sans-Serif" font-size="11.00"> &#160;</text>
<polygon fill="#ffffff" stroke="transparent" points="879.5,-312 879.5,-328 935.5,-328 935.5,-312 879.5,-312"/>
<text text-anchor="start" x="913.5" y="-317.2" font-family="Helvetica,sans-Serif" font-size="11.00">1 &gt;</text>
<polygon fill="black" stroke="black" points="835.5,-312 835.5,-328 835.5,-328 835.5,-312 835.5,-312"/>
<polygon fill="black" stroke="black" points="879.5,-312 879.5,-328 879.5,-328 879.5,-312 879.5,-312"/>
</a>
</g>
</g>
<!-- contract&#45;&gt;contact -->
<g id="edge3" class="edge">
<title>contract:w&#45;&gt;contact:e</title>
<path fill="none" stroke="black" d="M761.86,-380.94C753.92,-382.05 747.99,-383.89 736,-385 642.44,-393.65 618.96,-398 525,-398"/>
<polygon fill="black" stroke="black" points="768.52,-380.51 776.73,-383.59 772.51,-380.26 776.5,-380 776.5,-380 776.5,-380 772.51,-380.26 776.27,-376.41 768.52,-380.51 768.52,-380.51"/>
<ellipse fill="none" stroke="black" cx="765.32" cy="-380.72" rx="3.2" ry="3.2"/>
</g>
<!-- unit -->
<g id="node5" class="node">
<title>unit</title>
<g id="a_node5"><a xlink:href="../../tables/unit.html" xlink:title="unit" target="_top">
<polygon fill="#ffffff" stroke="transparent" points="575,-74 575,-374 728,-374 728,-74 575,-74"/>
<polygon fill="#f5f5f5" stroke="transparent" points="575.5,-352 575.5,-374 728.5,-374 728.5,-352 575.5,-352"/>
<polygon fill="none" stroke="black" points="575.5,-352 575.5,-374 728.5,-374 728.5,-352 575.5,-352"/>
<text text-anchor="start" x="580.5" y="-361.2" font-family="Helvetica,sans-Serif" font-weight="bold" font-size="11.00">unit</text>
<text text-anchor="start" x="686.5" y="-360.2" font-family="Helvetica,sans-Serif" font-size="11.00">[table]</text>
<polygon fill="none" stroke="black" points="575.5,-330 575.5,-352 728.5,-352 728.5,-330 575.5,-330"/>
<image xlink:href="../../images/primaryKeys.png" width="11px" height="12px" preserveAspectRatio="xMinYMin meet" x="580.5" y="-347"/>
<text text-anchor="start" x="595.5" y="-338.2" font-family="Helvetica,sans-Serif" font-size="11.00">id</text>
<polygon fill="#ffffff" stroke="transparent" points="575.5,-308 575.5,-330 728.5,-330 728.5,-308 575.5,-308"/>
<polygon fill="none" stroke="black" points="575.5,-308 575.5,-330 728.5,-330 728.5,-308 575.5,-308"/>
<text text-anchor="start" x="595.5" y="-316.2" font-family="Helvetica,sans-Serif" font-size="11.00">identifier</text>
<polygon fill="none" stroke="black" points="575.5,-286 575.5,-308 728.5,-308 728.5,-286 575.5,-286"/>
<image xlink:href="../../images/foreignKeys.png" width="11px" height="12px" preserveAspectRatio="xMinYMin meet" x="580.5" y="-303"/>
<text text-anchor="start" x="595.5" y="-294.2" font-family="Helvetica,sans-Serif" font-size="11.00">fk_company</text>
<polygon fill="none" stroke="black" points="575.5,-264 575.5,-286 728.5,-286 728.5,-264 575.5,-264"/>
<image xlink:href="../../images/foreignKeys.png" width="11px" height="12px" preserveAspectRatio="xMinYMin meet" x="580.5" y="-281"/>
<text text-anchor="start" x="595.5" y="-272.2" font-family="Helvetica,sans-Serif" font-size="11.00">fk_sector</text>
<polygon fill="none" stroke="black" points="575.5,-242 575.5,-264 728.5,-264 728.5,-242 575.5,-242"/>
<image xlink:href="../../images/foreignKeys.png" width="11px" height="12px" preserveAspectRatio="xMinYMin meet" x="580.5" y="-259"/>
<text text-anchor="start" x="595.5" y="-250.2" font-family="Helvetica,sans-Serif" font-size="11.00">fk_cemetery</text>
<polygon fill="none" stroke="black" points="575.5,-220 575.5,-242 728.5,-242 728.5,-220 575.5,-220"/>
<image xlink:href="../../images/foreignKeys.png" width="11px" height="12px" preserveAspectRatio="xMinYMin meet" x="580.5" y="-237"/>
<text text-anchor="start" x="595.5" y="-228.2" font-family="Helvetica,sans-Serif" font-size="11.00">fk_size</text>
<polygon fill="none" stroke="black" points="575.5,-198 575.5,-220 728.5,-220 728.5,-198 575.5,-198"/>
<image xlink:href="../../images/foreignKeys.png" width="11px" height="12px" preserveAspectRatio="xMinYMin meet" x="580.5" y="-215"/>
<text text-anchor="start" x="595.5" y="-206.2" font-family="Helvetica,sans-Serif" font-size="11.00">fk_kind</text>
<polygon fill="none" stroke="black" points="575.5,-176 575.5,-198 728.5,-198 728.5,-176 575.5,-176"/>
<image xlink:href="../../images/foreignKeys.png" width="11px" height="12px" preserveAspectRatio="xMinYMin meet" x="580.5" y="-193"/>
<text text-anchor="start" x="595.5" y="-184.2" font-family="Helvetica,sans-Serif" font-size="11.00">fk_urn_material</text>
<polygon fill="none" stroke="black" points="575.5,-154 575.5,-176 728.5,-176 728.5,-154 575.5,-154"/>
<image xlink:href="../../images/foreignKeys.png" width="11px" height="12px" preserveAspectRatio="xMinYMin meet" x="580.5" y="-171"/>
<text text-anchor="start" x="595.5" y="-162.2" font-family="Helvetica,sans-Serif" font-size="11.00">fk_urn_shape</text>
<polygon fill="none" stroke="black" points="575.5,-132 575.5,-154 728.5,-154 728.5,-132 575.5,-132"/>
<image xlink:href="../../images/foreignKeys.png" width="11px" height="12px" preserveAspectRatio="xMinYMin meet" x="580.5" y="-149"/>
<text text-anchor="start" x="595.5" y="-140.2" font-family="Helvetica,sans-Serif" font-size="11.00">fk_contact_person</text>
<polygon fill="none" stroke="black" points="575.5,-110 575.5,-132 728.5,-132 728.5,-110 575.5,-110"/>
<image xlink:href="../../images/foreignKeys.png" width="11px" height="12px" preserveAspectRatio="xMinYMin meet" x="580.5" y="-127"/>
<text text-anchor="start" x="595.5" y="-118.2" font-family="Helvetica,sans-Serif" font-size="11.00">fk_control</text>
<polygon fill="none" stroke="black" points="575.5,-92 575.5,-110 728.5,-110 728.5,-92 575.5,-92"/>
<text text-anchor="start" x="578.5" y="-98.2" font-family="Helvetica,sans-Serif" font-size="11.00">...</text>
<polygon fill="#ffffff" stroke="transparent" points="575.5,-74 575.5,-92 728.5,-92 728.5,-74 575.5,-74"/>
<polygon fill="none" stroke="black" points="575.5,-74 575.5,-92 728.5,-92 728.5,-74 575.5,-74"/>
<polygon fill="#ffffff" stroke="transparent" points="576.5,-75 576.5,-91 631.5,-91 631.5,-75 576.5,-75"/>
<text text-anchor="start" x="578.5" y="-80.2" font-family="Helvetica,sans-Serif" font-size="11.00">&lt; 9</text>
<polygon fill="#ffffff" stroke="transparent" points="631.5,-75 631.5,-91 673.5,-91 673.5,-75 631.5,-75"/>
<text text-anchor="start" x="648.5" y="-80.2" font-family="Helvetica,sans-Serif" font-size="11.00"> &#160;</text>
<polygon fill="#ffffff" stroke="transparent" points="673.5,-75 673.5,-91 727.5,-91 727.5,-75 673.5,-75"/>
<text text-anchor="start" x="705.5" y="-80.2" font-family="Helvetica,sans-Serif" font-size="11.00">3 &gt;</text>
<polygon fill="black" stroke="black" points="631.5,-75 631.5,-91 631.5,-91 631.5,-75 631.5,-75"/>
<polygon fill="black" stroke="black" points="673.5,-75 673.5,-91 673.5,-91 673.5,-75 673.5,-75"/>
</a>
</g>
</g>
<!-- contract&#45;&gt;unit -->
<g id="edge4" class="edge">
<title>contract:w&#45;&gt;unit:e</title>
<path fill="none" stroke="black" d="M762.22,-355.04C751.53,-350.17 745.81,-341 729.5,-341"/>
<polygon fill="black" stroke="black" points="768.67,-356.38 775.77,-361.53 772.58,-357.19 776.5,-358 776.5,-358 776.5,-358 772.58,-357.19 777.23,-354.47 768.67,-356.38 768.67,-356.38"/>
<ellipse fill="none" stroke="black" cx="765.53" cy="-355.73" rx="3.2" ry="3.2"/>
</g>
<!-- unit&#45;&gt;contact -->
<g id="edge8" class="edge">
<title>unit:w&#45;&gt;contact:e</title>
<path fill="none" stroke="black" d="M560.16,-144.63C475.4,-166.35 635.04,-398 525,-398"/>
<polygon fill="black" stroke="black" points="566.55,-143.9 574.91,-146.58 570.53,-143.45 574.5,-143 574.5,-143 574.5,-143 570.53,-143.45 574.09,-139.42 566.55,-143.9 566.55,-143.9"/>
<ellipse fill="none" stroke="black" cx="563.37" cy="-144.26" rx="3.2" ry="3.2"/>
</g>
<!-- file -->
<g id="node6" class="node">
<title>file</title>
<g id="a_node6"><a xlink:href="../../tables/file.html" xlink:title="file" target="_top">
<polygon fill="#ffffff" stroke="transparent" points="985,-245 985,-523 1125,-523 1125,-245 985,-245"/>
<polygon fill="#f5f5f5" stroke="transparent" points="985,-501 985,-523 1125,-523 1125,-501 985,-501"/>
<polygon fill="none" stroke="black" points="985,-501 985,-523 1125,-523 1125,-501 985,-501"/>
<text text-anchor="start" x="989.5" y="-510.2" font-family="Helvetica,sans-Serif" font-weight="bold" font-size="11.00">file</text>
<text text-anchor="start" x="1083" y="-509.2" font-family="Helvetica,sans-Serif" font-size="11.00">[table]</text>
<polygon fill="none" stroke="black" points="985,-479 985,-501 1125,-501 1125,-479 985,-479"/>
<image xlink:href="../../images/primaryKeys.png" width="11px" height="12px" preserveAspectRatio="xMinYMin meet" x="990" y="-496"/>
<text text-anchor="start" x="1005" y="-487.2" font-family="Helvetica,sans-Serif" font-size="11.00">id</text>
<polygon fill="none" stroke="black" points="985,-457 985,-479 1125,-479 1125,-457 985,-457"/>
<image xlink:href="../../images/foreignKeys.png" width="11px" height="12px" preserveAspectRatio="xMinYMin meet" x="990" y="-474"/>
<text text-anchor="start" x="1005" y="-465.2" font-family="Helvetica,sans-Serif" font-size="11.00">cemetery_ref</text>
<polygon fill="none" stroke="black" points="985,-435 985,-457 1125,-457 1125,-435 985,-435"/>
<image xlink:href="../../images/foreignKeys.png" width="11px" height="12px" preserveAspectRatio="xMinYMin meet" x="990" y="-452"/>
<text text-anchor="start" x="1005" y="-443.2" font-family="Helvetica,sans-Serif" font-size="11.00">contact_ref</text>
<polygon fill="none" stroke="black" points="985,-413 985,-435 1125,-435 1125,-413 985,-413"/>
<image xlink:href="../../images/foreignKeys.png" width="11px" height="12px" preserveAspectRatio="xMinYMin meet" x="990" y="-430"/>
<text text-anchor="start" x="1005" y="-421.2" font-family="Helvetica,sans-Serif" font-size="11.00">contract_ref</text>
<polygon fill="none" stroke="black" points="985,-391 985,-413 1125,-413 1125,-391 985,-391"/>
<image xlink:href="../../images/foreignKeys.png" width="11px" height="12px" preserveAspectRatio="xMinYMin meet" x="990" y="-408"/>
<text text-anchor="start" x="1005" y="-399.2" font-family="Helvetica,sans-Serif" font-size="11.00">deceased_ref</text>
<polygon fill="none" stroke="black" points="985,-369 985,-391 1125,-391 1125,-369 985,-369"/>
<image xlink:href="../../images/foreignKeys.png" width="11px" height="12px" preserveAspectRatio="xMinYMin meet" x="990" y="-386"/>
<text text-anchor="start" x="1005" y="-377.2" font-family="Helvetica,sans-Serif" font-size="11.00">furniture_ref</text>
<polygon fill="none" stroke="black" points="985,-347 985,-369 1125,-369 1125,-347 985,-347"/>
<image xlink:href="../../images/foreignKeys.png" width="11px" height="12px" preserveAspectRatio="xMinYMin meet" x="990" y="-364"/>
<text text-anchor="start" x="1005" y="-355.2" font-family="Helvetica,sans-Serif" font-size="11.00">organisation_ref</text>
<polygon fill="none" stroke="black" points="985,-325 985,-347 1125,-347 1125,-325 985,-325"/>
<image xlink:href="../../images/foreignKeys.png" width="11px" height="12px" preserveAspectRatio="xMinYMin meet" x="990" y="-342"/>
<text text-anchor="start" x="1005" y="-333.2" font-family="Helvetica,sans-Serif" font-size="11.00">sector_ref</text>
<polygon fill="none" stroke="black" points="985,-303 985,-325 1125,-325 1125,-303 985,-303"/>
<image xlink:href="../../images/foreignKeys.png" width="11px" height="12px" preserveAspectRatio="xMinYMin meet" x="990" y="-320"/>
<text text-anchor="start" x="1005" y="-311.2" font-family="Helvetica,sans-Serif" font-size="11.00">unit_ref</text>
<polygon fill="none" stroke="black" points="985,-281 985,-303 1125,-303 1125,-281 985,-281"/>
<image xlink:href="../../images/foreignKeys.png" width="11px" height="12px" preserveAspectRatio="xMinYMin meet" x="990" y="-298"/>
<text text-anchor="start" x="1005" y="-289.2" font-family="Helvetica,sans-Serif" font-size="11.00">vegetation_ref</text>
<polygon fill="none" stroke="black" points="985,-263 985,-281 1125,-281 1125,-263 985,-263"/>
<text text-anchor="start" x="988" y="-269.2" font-family="Helvetica,sans-Serif" font-size="11.00">...</text>
<polygon fill="#ffffff" stroke="transparent" points="985,-245 985,-263 1125,-263 1125,-245 985,-245"/>
<polygon fill="none" stroke="black" points="985,-245 985,-263 1125,-263 1125,-245 985,-245"/>
<polygon fill="#ffffff" stroke="transparent" points="986,-246 986,-262 1040,-262 1040,-246 986,-246"/>
<text text-anchor="start" x="988" y="-251.2" font-family="Helvetica,sans-Serif" font-size="11.00">&lt; 9</text>
<polygon fill="#ffffff" stroke="transparent" points="1040,-246 1040,-262 1082,-262 1082,-246 1040,-246"/>
<text text-anchor="start" x="1057" y="-251.2" font-family="Helvetica,sans-Serif" font-size="11.00"> &#160;</text>
<polygon fill="#ffffff" stroke="transparent" points="1082,-246 1082,-262 1124,-262 1124,-246 1082,-246"/>
<text text-anchor="start" x="1114" y="-251.2" font-family="Helvetica,sans-Serif" font-size="11.00"> &#160;</text>
<polygon fill="black" stroke="black" points="1040,-246 1040,-262 1040,-262 1040,-246 1040,-246"/>
<polygon fill="black" stroke="black" points="1082,-246 1082,-262 1082,-262 1082,-246 1082,-246"/>
</a>
</g>
</g>
<!-- file&#45;&gt;contact -->
<g id="edge5" class="edge">
<title>file:w&#45;&gt;contact:e</title>
<path fill="none" stroke="black" d="M969.96,-449.91C961.86,-455.23 957.66,-464.49 944,-468 868.67,-487.35 846.02,-478.83 769,-468 713.14,-460.15 581.41,-398 525,-398"/>
<polygon fill="black" stroke="black" points="976.29,-448.14 984.96,-449.47 980.15,-447.07 984,-446 984,-446 984,-446 980.15,-447.07 983.04,-442.53 976.29,-448.14 976.29,-448.14"/>
<ellipse fill="none" stroke="black" cx="973.21" cy="-449" rx="3.2" ry="3.2"/>
</g>
<!-- file&#45;&gt;contract -->
<g id="edge6" class="edge">
<title>file:w&#45;&gt;contract:e</title>
<path fill="none" stroke="black" d="M969.55,-424C959.2,-424 952.35,-424 937.5,-424"/>
<polygon fill="black" stroke="black" points="976,-424 984,-427.6 980,-424 984,-424 984,-424 984,-424 980,-424 984,-420.4 976,-424 976,-424"/>
<ellipse fill="none" stroke="black" cx="972.8" cy="-424" rx="3.2" ry="3.2"/>
</g>
<!-- file&#45;&gt;unit -->
<g id="edge7" class="edge">
<title>file:w&#45;&gt;unit:e</title>
<path fill="none" stroke="black" d="M969.61,-311.35C961.76,-308.16 956.4,-302.97 944,-301 867.18,-288.83 840.76,-271.01 769,-301 745.95,-310.63 754.48,-341 729.5,-341"/>
<polygon fill="black" stroke="black" points="976.13,-312.55 983.35,-317.54 980.07,-313.28 984,-314 984,-314 984,-314 980.07,-313.28 984.65,-310.46 976.13,-312.55 976.13,-312.55"/>
<ellipse fill="none" stroke="black" cx="972.98" cy="-311.98" rx="3.2" ry="3.2"/>
</g>
</g>
</svg>
