<?xml version="1.0" encoding="UTF-8" standalone="no"?>
<!DOCTYPE svg PUBLIC "-//W3C//DTD SVG 1.1//EN"
 "http://www.w3.org/Graphics/SVG/1.1/DTD/svg11.dtd">
<!-- Generated by graphviz version 2.43.0 (0)
 -->
<!-- Title: oneDegreeRelationshipsDiagram Pages: 1 -->
<svg width="449pt" height="327pt"
 viewBox="0.00 0.00 449.00 327.00" xmlns="http://www.w3.org/2000/svg" xmlns:xlink="http://www.w3.org/1999/xlink">
<g id="graph0" class="graph" transform="scale(1 1) rotate(0) translate(4 323)">
<title>oneDegreeRelationshipsDiagram</title>
<polygon fill="#ffffff" stroke="transparent" points="-4,4 -4,-323 445,-323 445,4 -4,4"/>
<text text-anchor="middle" x="79.5" y="-7.2" font-family="Helvetica,sans-Serif" font-size="11.00">Generated by SchemaSpy</text>
<!-- unit -->
<g id="node1" class="node">
<title>unit</title>
<g id="a_node1"><a xlink:href="../../tables/unit.html" xlink:title="unit" target="_top">
<polygon fill="#ffffff" stroke="transparent" points="280,-37 280,-315 433,-315 433,-37 280,-37"/>
<polygon fill="#f5f5f5" stroke="transparent" points="280.5,-293 280.5,-315 433.5,-315 433.5,-293 280.5,-293"/>
<polygon fill="none" stroke="black" points="280.5,-293 280.5,-315 433.5,-315 433.5,-293 280.5,-293"/>
<text text-anchor="start" x="285.5" y="-302.2" font-family="Helvetica,sans-Serif" font-weight="bold" font-size="11.00">unit</text>
<text text-anchor="start" x="391.5" y="-301.2" font-family="Helvetica,sans-Serif" font-size="11.00">[table]</text>
<polygon fill="none" stroke="black" points="280.5,-271 280.5,-293 433.5,-293 433.5,-271 280.5,-271"/>
<image xlink:href="../../images/primaryKeys.png" width="11px" height="12px" preserveAspectRatio="xMinYMin meet" x="285.5" y="-288"/>
<text text-anchor="start" x="300.5" y="-279.2" font-family="Helvetica,sans-Serif" font-size="11.00">id</text>
<polygon fill="none" stroke="black" points="280.5,-249 280.5,-271 433.5,-271 433.5,-249 280.5,-249"/>
<image xlink:href="../../images/foreignKeys.png" width="11px" height="12px" preserveAspectRatio="xMinYMin meet" x="285.5" y="-266"/>
<text text-anchor="start" x="300.5" y="-257.2" font-family="Helvetica,sans-Serif" font-size="11.00">fk_company</text>
<polygon fill="none" stroke="black" points="280.5,-227 280.5,-249 433.5,-249 433.5,-227 280.5,-227"/>
<image xlink:href="../../images/foreignKeys.png" width="11px" height="12px" preserveAspectRatio="xMinYMin meet" x="285.5" y="-244"/>
<text text-anchor="start" x="300.5" y="-235.2" font-family="Helvetica,sans-Serif" font-size="11.00">fk_sector</text>
<polygon fill="none" stroke="black" points="280.5,-205 280.5,-227 433.5,-227 433.5,-205 280.5,-205"/>
<image xlink:href="../../images/foreignKeys.png" width="11px" height="12px" preserveAspectRatio="xMinYMin meet" x="285.5" y="-222"/>
<text text-anchor="start" x="300.5" y="-213.2" font-family="Helvetica,sans-Serif" font-size="11.00">fk_cemetery</text>
<polygon fill="none" stroke="black" points="280.5,-183 280.5,-205 433.5,-205 433.5,-183 280.5,-183"/>
<image xlink:href="../../images/foreignKeys.png" width="11px" height="12px" preserveAspectRatio="xMinYMin meet" x="285.5" y="-200"/>
<text text-anchor="start" x="300.5" y="-191.2" font-family="Helvetica,sans-Serif" font-size="11.00">fk_size</text>
<polygon fill="none" stroke="black" points="280.5,-161 280.5,-183 433.5,-183 433.5,-161 280.5,-161"/>
<image xlink:href="../../images/foreignKeys.png" width="11px" height="12px" preserveAspectRatio="xMinYMin meet" x="285.5" y="-178"/>
<text text-anchor="start" x="300.5" y="-169.2" font-family="Helvetica,sans-Serif" font-size="11.00">fk_kind</text>
<polygon fill="none" stroke="black" points="280.5,-139 280.5,-161 433.5,-161 433.5,-139 280.5,-139"/>
<image xlink:href="../../images/foreignKeys.png" width="11px" height="12px" preserveAspectRatio="xMinYMin meet" x="285.5" y="-156"/>
<text text-anchor="start" x="300.5" y="-147.2" font-family="Helvetica,sans-Serif" font-size="11.00">fk_urn_material</text>
<polygon fill="none" stroke="black" points="280.5,-117 280.5,-139 433.5,-139 433.5,-117 280.5,-117"/>
<image xlink:href="../../images/foreignKeys.png" width="11px" height="12px" preserveAspectRatio="xMinYMin meet" x="285.5" y="-134"/>
<text text-anchor="start" x="300.5" y="-125.2" font-family="Helvetica,sans-Serif" font-size="11.00">fk_urn_shape</text>
<polygon fill="none" stroke="black" points="280.5,-95 280.5,-117 433.5,-117 433.5,-95 280.5,-95"/>
<image xlink:href="../../images/foreignKeys.png" width="11px" height="12px" preserveAspectRatio="xMinYMin meet" x="285.5" y="-112"/>
<text text-anchor="start" x="300.5" y="-103.2" font-family="Helvetica,sans-Serif" font-size="11.00">fk_contact_person</text>
<polygon fill="none" stroke="black" points="280.5,-73 280.5,-95 433.5,-95 433.5,-73 280.5,-73"/>
<image xlink:href="../../images/foreignKeys.png" width="11px" height="12px" preserveAspectRatio="xMinYMin meet" x="285.5" y="-90"/>
<text text-anchor="start" x="300.5" y="-81.2" font-family="Helvetica,sans-Serif" font-size="11.00">fk_control</text>
<polygon fill="none" stroke="black" points="280.5,-55 280.5,-73 433.5,-73 433.5,-55 280.5,-55"/>
<text text-anchor="start" x="283.5" y="-61.2" font-family="Helvetica,sans-Serif" font-size="11.00">...</text>
<polygon fill="#ffffff" stroke="transparent" points="280.5,-37 280.5,-55 433.5,-55 433.5,-37 280.5,-37"/>
<polygon fill="none" stroke="black" points="280.5,-37 280.5,-55 433.5,-55 433.5,-37 280.5,-37"/>
<polygon fill="#ffffff" stroke="transparent" points="281.5,-38 281.5,-54 336.5,-54 336.5,-38 281.5,-38"/>
<text text-anchor="start" x="283.5" y="-43.2" font-family="Helvetica,sans-Serif" font-size="11.00">&lt; 9</text>
<polygon fill="#ffffff" stroke="transparent" points="336.5,-38 336.5,-54 378.5,-54 378.5,-38 336.5,-38"/>
<text text-anchor="start" x="353.5" y="-43.2" font-family="Helvetica,sans-Serif" font-size="11.00"> &#160;</text>
<polygon fill="#ffffff" stroke="transparent" points="378.5,-38 378.5,-54 432.5,-54 432.5,-38 378.5,-38"/>
<text text-anchor="start" x="410.5" y="-43.2" font-family="Helvetica,sans-Serif" font-size="11.00">2 &gt;</text>
<polygon fill="black" stroke="black" points="336.5,-38 336.5,-54 336.5,-54 336.5,-38 336.5,-38"/>
<polygon fill="black" stroke="black" points="378.5,-38 378.5,-54 378.5,-54 378.5,-38 378.5,-38"/>
</a>
</g>
</g>
<!-- organisation -->
<g id="node2" class="node">
<title>organisation</title>
<g id="a_node2"><a xlink:href="../../tables/organisation.html" xlink:title="organisation" target="_top">
<polygon fill="#ffffff" stroke="transparent" points="8,-185 8,-295 231,-295 231,-185 8,-185"/>
<polygon fill="#f5f5f5" stroke="transparent" points="10.5,-271 10.5,-293 229.5,-293 229.5,-271 10.5,-271"/>
<polygon fill="none" stroke="black" points="10.5,-271 10.5,-293 229.5,-293 229.5,-271 10.5,-271"/>
<text text-anchor="start" x="15.5" y="-280.2" font-family="Helvetica,sans-Serif" font-weight="bold" font-size="11.00">organisation</text>
<text text-anchor="start" x="187.5" y="-279.2" font-family="Helvetica,sans-Serif" font-size="11.00">[table]</text>
<polygon fill="none" stroke="black" points="10.5,-249 10.5,-271 123.5,-271 123.5,-249 10.5,-249"/>
<image xlink:href="../../images/primaryKeys.png" width="11px" height="12px" preserveAspectRatio="xMinYMin meet" x="15.5" y="-266"/>
<text text-anchor="start" x="30.5" y="-257.2" font-family="Helvetica,sans-Serif" font-size="11.00">id</text>
<polygon fill="none" stroke="black" points="123.5,-249 123.5,-271 229.5,-271 229.5,-249 123.5,-249"/>
<text text-anchor="start" x="126.5" y="-257.2" font-family="Helvetica,sans-Serif" font-size="11.00">uuid[2147483647]</text>
<polygon fill="none" stroke="black" points="10.5,-227 10.5,-249 123.5,-249 123.5,-227 10.5,-227"/>
<text text-anchor="start" x="30.5" y="-235.2" font-family="Helvetica,sans-Serif" font-size="11.00">identifier</text>
<polygon fill="none" stroke="black" points="123.5,-227 123.5,-249 229.5,-249 229.5,-227 123.5,-227"/>
<text text-anchor="start" x="126.5" y="-235.2" font-family="Helvetica,sans-Serif" font-size="11.00">text[2147483647]</text>
<polygon fill="none" stroke="black" points="10.5,-205 10.5,-227 123.5,-227 123.5,-205 10.5,-205"/>
<text text-anchor="start" x="30.5" y="-213.2" font-family="Helvetica,sans-Serif" font-size="11.00">remark</text>
<polygon fill="none" stroke="black" points="123.5,-205 123.5,-227 229.5,-227 229.5,-205 123.5,-205"/>
<text text-anchor="start" x="126.5" y="-213.2" font-family="Helvetica,sans-Serif" font-size="11.00">text[2147483647]</text>
<polygon fill="#ffffff" stroke="transparent" points="10.5,-187 10.5,-205 229.5,-205 229.5,-187 10.5,-187"/>
<polygon fill="none" stroke="black" points="10.5,-187 10.5,-205 229.5,-205 229.5,-187 10.5,-187"/>
<polygon fill="#ffffff" stroke="transparent" points="11.5,-188 11.5,-204 88.5,-204 88.5,-188 11.5,-188"/>
<text text-anchor="start" x="13.5" y="-193.2" font-family="Helvetica,sans-Serif" font-size="11.00">&lt; 0</text>
<polygon fill="#ffffff" stroke="transparent" points="88.5,-188 88.5,-204 152.5,-204 152.5,-188 88.5,-188"/>
<text text-anchor="start" x="116.5" y="-193.2" font-family="Helvetica,sans-Serif" font-size="11.00"> &#160;</text>
<polygon fill="#ffffff" stroke="transparent" points="152.5,-188 152.5,-204 228.5,-204 228.5,-188 152.5,-188"/>
<text text-anchor="start" x="206.5" y="-193.2" font-family="Helvetica,sans-Serif" font-size="11.00">1 &gt;</text>
<polygon fill="black" stroke="black" points="88.5,-188 88.5,-204 88.5,-204 88.5,-188 88.5,-188"/>
<polygon fill="black" stroke="black" points="152.5,-188 152.5,-204 152.5,-204 152.5,-188 152.5,-188"/>
<polygon fill="none" stroke="black" stroke-width="2" points="9,-186 9,-294 230,-294 230,-186 9,-186"/>
</a>
</g>
</g>
<!-- unit&#45;&gt;organisation -->
<g id="edge1" class="edge">
<title>unit:w&#45;&gt;organisation:e</title>
<path fill="none" stroke="black" d="M264.99,-260C253.68,-260 246.49,-260 230.5,-260"/>
<polygon fill="black" stroke="black" points="271.5,-260 279.5,-263.6 275.5,-260 279.5,-260 279.5,-260 279.5,-260 275.5,-260 279.5,-256.4 271.5,-260 271.5,-260"/>
<ellipse fill="none" stroke="black" cx="268.3" cy="-260" rx="3.2" ry="3.2"/>
</g>
</g>
</svg>
