<?xml version="1.0" encoding="UTF-8" standalone="no"?>
<!DOCTYPE svg PUBLIC "-//W3C//DTD SVG 1.1//EN"
 "http://www.w3.org/Graphics/SVG/1.1/DTD/svg11.dtd">
<!-- Generated by graphviz version 2.43.0 (0)
 -->
<!-- Title: oneDegreeRelationshipsDiagram Pages: 1 -->
<svg width="470pt" height="349pt"
 viewBox="0.00 0.00 470.00 349.00" xmlns="http://www.w3.org/2000/svg" xmlns:xlink="http://www.w3.org/1999/xlink">
<g id="graph0" class="graph" transform="scale(1 1) rotate(0) translate(4 345)">
<title>oneDegreeRelationshipsDiagram</title>
<polygon fill="#ffffff" stroke="transparent" points="-4,4 -4,-345 466,-345 466,4 -4,4"/>
<text text-anchor="middle" x="79.5" y="-7.2" font-family="Helvetica,sans-Serif" font-size="11.00">Generated by SchemaSpy</text>
<!-- unit -->
<g id="node1" class="node">
<title>unit</title>
<g id="a_node1"><a xlink:href="../../tables/unit.html" xlink:title="unit" target="_top">
<polygon fill="#ffffff" stroke="transparent" points="301,-37 301,-337 454,-337 454,-37 301,-37"/>
<polygon fill="#f5f5f5" stroke="transparent" points="301.5,-315 301.5,-337 454.5,-337 454.5,-315 301.5,-315"/>
<polygon fill="none" stroke="black" points="301.5,-315 301.5,-337 454.5,-337 454.5,-315 301.5,-315"/>
<text text-anchor="start" x="306.5" y="-324.2" font-family="Helvetica,sans-Serif" font-weight="bold" font-size="11.00">unit</text>
<text text-anchor="start" x="412.5" y="-323.2" font-family="Helvetica,sans-Serif" font-size="11.00">[table]</text>
<polygon fill="none" stroke="black" points="301.5,-293 301.5,-315 454.5,-315 454.5,-293 301.5,-293"/>
<image xlink:href="../../images/primaryKeys.png" width="11px" height="12px" preserveAspectRatio="xMinYMin meet" x="306.5" y="-310"/>
<text text-anchor="start" x="321.5" y="-301.2" font-family="Helvetica,sans-Serif" font-size="11.00">id</text>
<polygon fill="#ffffff" stroke="transparent" points="301.5,-271 301.5,-293 454.5,-293 454.5,-271 301.5,-271"/>
<polygon fill="none" stroke="black" points="301.5,-271 301.5,-293 454.5,-293 454.5,-271 301.5,-271"/>
<text text-anchor="start" x="321.5" y="-279.2" font-family="Helvetica,sans-Serif" font-size="11.00">identifier</text>
<polygon fill="none" stroke="black" points="301.5,-249 301.5,-271 454.5,-271 454.5,-249 301.5,-249"/>
<image xlink:href="../../images/foreignKeys.png" width="11px" height="12px" preserveAspectRatio="xMinYMin meet" x="306.5" y="-266"/>
<text text-anchor="start" x="321.5" y="-257.2" font-family="Helvetica,sans-Serif" font-size="11.00">fk_company</text>
<polygon fill="none" stroke="black" points="301.5,-227 301.5,-249 454.5,-249 454.5,-227 301.5,-227"/>
<image xlink:href="../../images/foreignKeys.png" width="11px" height="12px" preserveAspectRatio="xMinYMin meet" x="306.5" y="-244"/>
<text text-anchor="start" x="321.5" y="-235.2" font-family="Helvetica,sans-Serif" font-size="11.00">fk_sector</text>
<polygon fill="none" stroke="black" points="301.5,-205 301.5,-227 454.5,-227 454.5,-205 301.5,-205"/>
<image xlink:href="../../images/foreignKeys.png" width="11px" height="12px" preserveAspectRatio="xMinYMin meet" x="306.5" y="-222"/>
<text text-anchor="start" x="321.5" y="-213.2" font-family="Helvetica,sans-Serif" font-size="11.00">fk_cemetery</text>
<polygon fill="none" stroke="black" points="301.5,-183 301.5,-205 454.5,-205 454.5,-183 301.5,-183"/>
<image xlink:href="../../images/foreignKeys.png" width="11px" height="12px" preserveAspectRatio="xMinYMin meet" x="306.5" y="-200"/>
<text text-anchor="start" x="321.5" y="-191.2" font-family="Helvetica,sans-Serif" font-size="11.00">fk_size</text>
<polygon fill="none" stroke="black" points="301.5,-161 301.5,-183 454.5,-183 454.5,-161 301.5,-161"/>
<image xlink:href="../../images/foreignKeys.png" width="11px" height="12px" preserveAspectRatio="xMinYMin meet" x="306.5" y="-178"/>
<text text-anchor="start" x="321.5" y="-169.2" font-family="Helvetica,sans-Serif" font-size="11.00">fk_kind</text>
<polygon fill="none" stroke="black" points="301.5,-139 301.5,-161 454.5,-161 454.5,-139 301.5,-139"/>
<image xlink:href="../../images/foreignKeys.png" width="11px" height="12px" preserveAspectRatio="xMinYMin meet" x="306.5" y="-156"/>
<text text-anchor="start" x="321.5" y="-147.2" font-family="Helvetica,sans-Serif" font-size="11.00">fk_urn_material</text>
<polygon fill="none" stroke="black" points="301.5,-117 301.5,-139 454.5,-139 454.5,-117 301.5,-117"/>
<image xlink:href="../../images/foreignKeys.png" width="11px" height="12px" preserveAspectRatio="xMinYMin meet" x="306.5" y="-134"/>
<text text-anchor="start" x="321.5" y="-125.2" font-family="Helvetica,sans-Serif" font-size="11.00">fk_urn_shape</text>
<polygon fill="none" stroke="black" points="301.5,-95 301.5,-117 454.5,-117 454.5,-95 301.5,-95"/>
<image xlink:href="../../images/foreignKeys.png" width="11px" height="12px" preserveAspectRatio="xMinYMin meet" x="306.5" y="-112"/>
<text text-anchor="start" x="321.5" y="-103.2" font-family="Helvetica,sans-Serif" font-size="11.00">fk_contact_person</text>
<polygon fill="none" stroke="black" points="301.5,-73 301.5,-95 454.5,-95 454.5,-73 301.5,-73"/>
<image xlink:href="../../images/foreignKeys.png" width="11px" height="12px" preserveAspectRatio="xMinYMin meet" x="306.5" y="-90"/>
<text text-anchor="start" x="321.5" y="-81.2" font-family="Helvetica,sans-Serif" font-size="11.00">fk_control</text>
<polygon fill="none" stroke="black" points="301.5,-55 301.5,-73 454.5,-73 454.5,-55 301.5,-55"/>
<text text-anchor="start" x="304.5" y="-61.2" font-family="Helvetica,sans-Serif" font-size="11.00">...</text>
<polygon fill="#ffffff" stroke="transparent" points="301.5,-37 301.5,-55 454.5,-55 454.5,-37 301.5,-37"/>
<polygon fill="none" stroke="black" points="301.5,-37 301.5,-55 454.5,-55 454.5,-37 301.5,-37"/>
<polygon fill="#ffffff" stroke="transparent" points="302.5,-38 302.5,-54 357.5,-54 357.5,-38 302.5,-38"/>
<text text-anchor="start" x="304.5" y="-43.2" font-family="Helvetica,sans-Serif" font-size="11.00">&lt; 9</text>
<polygon fill="#ffffff" stroke="transparent" points="357.5,-38 357.5,-54 399.5,-54 399.5,-38 357.5,-38"/>
<text text-anchor="start" x="374.5" y="-43.2" font-family="Helvetica,sans-Serif" font-size="11.00"> &#160;</text>
<polygon fill="#ffffff" stroke="transparent" points="399.5,-38 399.5,-54 453.5,-54 453.5,-38 399.5,-38"/>
<text text-anchor="start" x="431.5" y="-43.2" font-family="Helvetica,sans-Serif" font-size="11.00">2 &gt;</text>
<polygon fill="black" stroke="black" points="357.5,-38 357.5,-54 357.5,-54 357.5,-38 357.5,-38"/>
<polygon fill="black" stroke="black" points="399.5,-38 399.5,-54 399.5,-54 399.5,-38 399.5,-38"/>
</a>
</g>
</g>
<!-- sector -->
<g id="node2" class="node">
<title>sector</title>
<g id="a_node2"><a xlink:href="../../tables/sector.html" xlink:title="sector" target="_top">
<polygon fill="#ffffff" stroke="transparent" points="8,-119 8,-273 252,-273 252,-119 8,-119"/>
<polygon fill="#f5f5f5" stroke="transparent" points="10,-249 10,-271 250,-271 250,-249 10,-249"/>
<polygon fill="none" stroke="black" points="10,-249 10,-271 250,-271 250,-249 10,-249"/>
<text text-anchor="start" x="15" y="-258.2" font-family="Helvetica,sans-Serif" font-weight="bold" font-size="11.00">sector</text>
<text text-anchor="start" x="208" y="-257.2" font-family="Helvetica,sans-Serif" font-size="11.00">[table]</text>
<polygon fill="none" stroke="black" points="10,-227 10,-249 114,-249 114,-227 10,-227"/>
<image xlink:href="../../images/primaryKeys.png" width="11px" height="12px" preserveAspectRatio="xMinYMin meet" x="15" y="-244"/>
<text text-anchor="start" x="30" y="-235.2" font-family="Helvetica,sans-Serif" font-size="11.00">id</text>
<polygon fill="none" stroke="black" points="114,-227 114,-249 250,-249 250,-227 114,-227"/>
<text text-anchor="start" x="117" y="-235.2" font-family="Helvetica,sans-Serif" font-size="11.00">uuid[2147483647]</text>
<polygon fill="none" stroke="black" points="10,-205 10,-227 114,-227 114,-205 10,-205"/>
<text text-anchor="start" x="30" y="-213.2" font-family="Helvetica,sans-Serif" font-size="11.00">ident_short</text>
<polygon fill="none" stroke="black" points="114,-205 114,-227 250,-227 250,-205 114,-205"/>
<text text-anchor="start" x="117" y="-213.2" font-family="Helvetica,sans-Serif" font-size="11.00">varchar[10]</text>
<polygon fill="none" stroke="black" points="10,-183 10,-205 114,-205 114,-183 10,-183"/>
<text text-anchor="start" x="30" y="-191.2" font-family="Helvetica,sans-Serif" font-size="11.00">identifier</text>
<polygon fill="none" stroke="black" points="114,-183 114,-205 250,-205 250,-183 114,-183"/>
<text text-anchor="start" x="117" y="-191.2" font-family="Helvetica,sans-Serif" font-size="11.00">text[2147483647]</text>
<polygon fill="none" stroke="black" points="10,-161 10,-183 114,-183 114,-161 10,-161"/>
<text text-anchor="start" x="30" y="-169.2" font-family="Helvetica,sans-Serif" font-size="11.00">remark</text>
<polygon fill="none" stroke="black" points="114,-161 114,-183 250,-183 250,-161 114,-161"/>
<text text-anchor="start" x="117" y="-169.2" font-family="Helvetica,sans-Serif" font-size="11.00">text[2147483647]</text>
<polygon fill="none" stroke="black" points="10,-139 10,-161 114,-161 114,-139 10,-139"/>
<text text-anchor="start" x="30" y="-147.2" font-family="Helvetica,sans-Serif" font-size="11.00">the_geom</text>
<polygon fill="none" stroke="black" points="114,-139 114,-161 250,-161 250,-139 114,-139"/>
<text text-anchor="start" x="117" y="-147.2" font-family="Helvetica,sans-Serif" font-size="11.00">geometry[2147483647]</text>
<polygon fill="#ffffff" stroke="transparent" points="10,-121 10,-139 250,-139 250,-121 10,-121"/>
<polygon fill="none" stroke="black" points="10,-121 10,-139 250,-139 250,-121 10,-121"/>
<polygon fill="#ffffff" stroke="transparent" points="11,-122 11,-138 95,-138 95,-122 11,-122"/>
<text text-anchor="start" x="13" y="-127.2" font-family="Helvetica,sans-Serif" font-size="11.00">&lt; 0</text>
<polygon fill="#ffffff" stroke="transparent" points="95,-122 95,-138 166,-138 166,-122 95,-122"/>
<text text-anchor="start" x="126.5" y="-127.2" font-family="Helvetica,sans-Serif" font-size="11.00"> &#160;</text>
<polygon fill="#ffffff" stroke="transparent" points="166,-122 166,-138 249,-138 249,-122 166,-122"/>
<text text-anchor="start" x="227" y="-127.2" font-family="Helvetica,sans-Serif" font-size="11.00">1 &gt;</text>
<polygon fill="black" stroke="black" points="95,-122 95,-138 95,-138 95,-122 95,-122"/>
<polygon fill="black" stroke="black" points="166,-122 166,-138 166,-138 166,-122 166,-122"/>
<polygon fill="none" stroke="black" stroke-width="2" points="9,-120 9,-272 251,-272 251,-120 9,-120"/>
</a>
</g>
</g>
<!-- unit&#45;&gt;sector -->
<g id="edge1" class="edge">
<title>unit:w&#45;&gt;sector:e</title>
<path fill="none" stroke="black" d="M285.84,-238C274.41,-238 267.16,-238 251,-238"/>
<polygon fill="black" stroke="black" points="292.5,-238 300.5,-241.6 296.5,-238 300.5,-238 300.5,-238 300.5,-238 296.5,-238 300.5,-234.4 292.5,-238 292.5,-238"/>
<ellipse fill="none" stroke="black" cx="289.3" cy="-238" rx="3.2" ry="3.2"/>
</g>
</g>
</svg>
