<?xml version="1.0" encoding="UTF-8" standalone="no"?>
<!DOCTYPE svg PUBLIC "-//W3C//DTD SVG 1.1//EN"
 "http://www.w3.org/Graphics/SVG/1.1/DTD/svg11.dtd">
<!-- Generated by graphviz version 2.43.0 (0)
 -->
<!-- Title: oneDegreeRelationshipsDiagram Pages: 1 -->
<svg width="317pt" height="445pt"
 viewBox="0.00 0.00 317.00 445.00" xmlns="http://www.w3.org/2000/svg" xmlns:xlink="http://www.w3.org/1999/xlink">
<g id="graph0" class="graph" transform="scale(1 1) rotate(0) translate(4 441)">
<title>oneDegreeRelationshipsDiagram</title>
<polygon fill="#ffffff" stroke="transparent" points="-4,4 -4,-441 313,-441 313,4 -4,4"/>
<text text-anchor="middle" x="79.5" y="-7.2" font-family="Helvetica,sans-Serif" font-size="11.00">Generated by SchemaSpy</text>
<!-- unit -->
<g id="node1" class="node">
<title>unit</title>
<g id="a_node1"><a xlink:href="../../tables/unit.html" xlink:title="unit" target="_top">
<polygon fill="#ffffff" stroke="transparent" points="8,-37 8,-433 301,-433 301,-37 8,-37"/>
<polygon fill="#f5f5f5" stroke="transparent" points="10.5,-409 10.5,-431 299.5,-431 299.5,-409 10.5,-409"/>
<polygon fill="none" stroke="black" points="10.5,-409 10.5,-431 299.5,-431 299.5,-409 10.5,-409"/>
<text text-anchor="start" x="15.5" y="-418.2" font-family="Helvetica,sans-Serif" font-weight="bold" font-size="11.00">unit</text>
<text text-anchor="start" x="257.5" y="-417.2" font-family="Helvetica,sans-Serif" font-size="11.00">[table]</text>
<polygon fill="none" stroke="black" points="10.5,-387 10.5,-409 163.5,-409 163.5,-387 10.5,-387"/>
<image xlink:href="../../images/primaryKeys.png" width="11px" height="12px" preserveAspectRatio="xMinYMin meet" x="15.5" y="-404"/>
<text text-anchor="start" x="30.5" y="-395.2" font-family="Helvetica,sans-Serif" font-size="11.00">id</text>
<polygon fill="none" stroke="black" points="163.5,-387 163.5,-409 299.5,-409 299.5,-387 163.5,-387"/>
<text text-anchor="start" x="166.5" y="-395.2" font-family="Helvetica,sans-Serif" font-size="11.00">uuid[2147483647]</text>
<polygon fill="none" stroke="black" points="10.5,-365 10.5,-387 163.5,-387 163.5,-365 10.5,-365"/>
<text text-anchor="start" x="30.5" y="-373.2" font-family="Helvetica,sans-Serif" font-size="11.00">identifier</text>
<polygon fill="none" stroke="black" points="163.5,-365 163.5,-387 299.5,-387 299.5,-365 163.5,-365"/>
<text text-anchor="start" x="166.5" y="-373.2" font-family="Helvetica,sans-Serif" font-size="11.00">varchar[10]</text>
<polygon fill="none" stroke="black" points="10.5,-343 10.5,-365 163.5,-365 163.5,-343 10.5,-343"/>
<text text-anchor="start" x="30.5" y="-351.2" font-family="Helvetica,sans-Serif" font-size="11.00">excavation_date</text>
<polygon fill="none" stroke="black" points="163.5,-343 163.5,-365 299.5,-365 299.5,-343 163.5,-343"/>
<text text-anchor="start" x="166.5" y="-351.2" font-family="Helvetica,sans-Serif" font-size="11.00">date[13]</text>
<polygon fill="none" stroke="black" points="10.5,-321 10.5,-343 163.5,-343 163.5,-321 10.5,-321"/>
<text text-anchor="start" x="30.5" y="-329.2" font-family="Helvetica,sans-Serif" font-size="11.00">begin_date</text>
<polygon fill="none" stroke="black" points="163.5,-321 163.5,-343 299.5,-343 299.5,-321 163.5,-321"/>
<text text-anchor="start" x="166.5" y="-329.2" font-family="Helvetica,sans-Serif" font-size="11.00">date[13]</text>
<polygon fill="none" stroke="black" points="10.5,-299 10.5,-321 163.5,-321 163.5,-299 10.5,-299"/>
<text text-anchor="start" x="30.5" y="-307.2" font-family="Helvetica,sans-Serif" font-size="11.00">end_date</text>
<polygon fill="none" stroke="black" points="163.5,-299 163.5,-321 299.5,-321 299.5,-299 163.5,-299"/>
<text text-anchor="start" x="166.5" y="-307.2" font-family="Helvetica,sans-Serif" font-size="11.00">date[13]</text>
<polygon fill="none" stroke="black" points="10.5,-277 10.5,-299 163.5,-299 163.5,-277 10.5,-277"/>
<text text-anchor="start" x="30.5" y="-285.2" font-family="Helvetica,sans-Serif" font-size="11.00">fk_company</text>
<polygon fill="none" stroke="black" points="163.5,-277 163.5,-299 299.5,-299 299.5,-277 163.5,-277"/>
<text text-anchor="start" x="166.5" y="-285.2" font-family="Helvetica,sans-Serif" font-size="11.00">uuid[2147483647]</text>
<polygon fill="none" stroke="black" points="10.5,-255 10.5,-277 163.5,-277 163.5,-255 10.5,-255"/>
<text text-anchor="start" x="30.5" y="-263.2" font-family="Helvetica,sans-Serif" font-size="11.00">fk_sector</text>
<polygon fill="none" stroke="black" points="163.5,-255 163.5,-277 299.5,-277 299.5,-255 163.5,-255"/>
<text text-anchor="start" x="166.5" y="-263.2" font-family="Helvetica,sans-Serif" font-size="11.00">uuid[2147483647]</text>
<polygon fill="none" stroke="black" points="10.5,-233 10.5,-255 163.5,-255 163.5,-233 10.5,-233"/>
<text text-anchor="start" x="30.5" y="-241.2" font-family="Helvetica,sans-Serif" font-size="11.00">fk_cemetery</text>
<polygon fill="none" stroke="black" points="163.5,-233 163.5,-255 299.5,-255 299.5,-233 163.5,-233"/>
<text text-anchor="start" x="166.5" y="-241.2" font-family="Helvetica,sans-Serif" font-size="11.00">int4[10]</text>
<polygon fill="none" stroke="black" points="10.5,-211 10.5,-233 163.5,-233 163.5,-211 10.5,-211"/>
<text text-anchor="start" x="30.5" y="-219.2" font-family="Helvetica,sans-Serif" font-size="11.00">fk_unit_size</text>
<polygon fill="none" stroke="black" points="163.5,-211 163.5,-233 299.5,-233 299.5,-211 163.5,-211"/>
<text text-anchor="start" x="166.5" y="-219.2" font-family="Helvetica,sans-Serif" font-size="11.00">int4[10]</text>
<polygon fill="none" stroke="black" points="10.5,-189 10.5,-211 163.5,-211 163.5,-189 10.5,-189"/>
<text text-anchor="start" x="30.5" y="-197.2" font-family="Helvetica,sans-Serif" font-size="11.00">fk_unit_kind</text>
<polygon fill="none" stroke="black" points="163.5,-189 163.5,-211 299.5,-211 299.5,-189 163.5,-189"/>
<text text-anchor="start" x="166.5" y="-197.2" font-family="Helvetica,sans-Serif" font-size="11.00">int4[10]</text>
<polygon fill="none" stroke="black" points="10.5,-167 10.5,-189 163.5,-189 163.5,-167 10.5,-167"/>
<text text-anchor="start" x="30.5" y="-175.2" font-family="Helvetica,sans-Serif" font-size="11.00">fk_contact_person</text>
<polygon fill="none" stroke="black" points="163.5,-167 163.5,-189 299.5,-189 299.5,-167 163.5,-167"/>
<text text-anchor="start" x="166.5" y="-175.2" font-family="Helvetica,sans-Serif" font-size="11.00">uuid[2147483647]</text>
<polygon fill="none" stroke="black" points="10.5,-145 10.5,-167 163.5,-167 163.5,-145 10.5,-145"/>
<text text-anchor="start" x="30.5" y="-153.2" font-family="Helvetica,sans-Serif" font-size="11.00">remark</text>
<polygon fill="none" stroke="black" points="163.5,-145 163.5,-167 299.5,-167 299.5,-145 163.5,-145"/>
<text text-anchor="start" x="166.5" y="-153.2" font-family="Helvetica,sans-Serif" font-size="11.00">text[2147483647]</text>
<polygon fill="none" stroke="black" points="10.5,-123 10.5,-145 163.5,-145 163.5,-123 10.5,-123"/>
<text text-anchor="start" x="30.5" y="-131.2" font-family="Helvetica,sans-Serif" font-size="11.00">disused</text>
<polygon fill="none" stroke="black" points="163.5,-123 163.5,-145 299.5,-145 299.5,-123 163.5,-123"/>
<text text-anchor="start" x="166.5" y="-131.2" font-family="Helvetica,sans-Serif" font-size="11.00">bool[1]</text>
<polygon fill="none" stroke="black" points="10.5,-101 10.5,-123 163.5,-123 163.5,-101 10.5,-101"/>
<text text-anchor="start" x="30.5" y="-109.2" font-family="Helvetica,sans-Serif" font-size="11.00">disused_date</text>
<polygon fill="none" stroke="black" points="163.5,-101 163.5,-123 299.5,-123 299.5,-101 163.5,-101"/>
<text text-anchor="start" x="166.5" y="-109.2" font-family="Helvetica,sans-Serif" font-size="11.00">date[13]</text>
<polygon fill="none" stroke="black" points="10.5,-79 10.5,-101 163.5,-101 163.5,-79 10.5,-79"/>
<text text-anchor="start" x="30.5" y="-87.2" font-family="Helvetica,sans-Serif" font-size="11.00">fk_control</text>
<polygon fill="none" stroke="black" points="163.5,-79 163.5,-101 299.5,-101 299.5,-79 163.5,-79"/>
<text text-anchor="start" x="166.5" y="-87.2" font-family="Helvetica,sans-Serif" font-size="11.00">int4[10]</text>
<polygon fill="none" stroke="black" points="10.5,-57 10.5,-79 163.5,-79 163.5,-57 10.5,-57"/>
<text text-anchor="start" x="30.5" y="-65.2" font-family="Helvetica,sans-Serif" font-size="11.00">the_geom</text>
<polygon fill="none" stroke="black" points="163.5,-57 163.5,-79 299.5,-79 299.5,-57 163.5,-57"/>
<text text-anchor="start" x="166.5" y="-65.2" font-family="Helvetica,sans-Serif" font-size="11.00">geometry[2147483647]</text>
<polygon fill="#ffffff" stroke="transparent" points="10.5,-39 10.5,-57 299.5,-57 299.5,-39 10.5,-39"/>
<polygon fill="none" stroke="black" points="10.5,-39 10.5,-57 299.5,-57 299.5,-39 10.5,-39"/>
<polygon fill="#ffffff" stroke="transparent" points="11.5,-40 11.5,-56 111.5,-56 111.5,-40 11.5,-40"/>
<text text-anchor="start" x="13.5" y="-45.2" font-family="Helvetica,sans-Serif" font-size="11.00">&lt; 0</text>
<polygon fill="#ffffff" stroke="transparent" points="111.5,-40 111.5,-56 199.5,-56 199.5,-40 111.5,-40"/>
<text text-anchor="start" x="151.5" y="-45.2" font-family="Helvetica,sans-Serif" font-size="11.00"> &#160;</text>
<polygon fill="#ffffff" stroke="transparent" points="199.5,-40 199.5,-56 298.5,-56 298.5,-40 199.5,-40"/>
<text text-anchor="start" x="276.5" y="-45.2" font-family="Helvetica,sans-Serif" font-size="11.00">0 &gt;</text>
<polygon fill="black" stroke="black" points="111.5,-40 111.5,-56 111.5,-56 111.5,-40 111.5,-40"/>
<polygon fill="black" stroke="black" points="199.5,-40 199.5,-56 199.5,-56 199.5,-40 199.5,-40"/>
<polygon fill="none" stroke="black" stroke-width="2" points="9,-38 9,-432 300,-432 300,-38 9,-38"/>
</a>
</g>
</g>
</g>
</svg>
