<?xml version="1.0" encoding="UTF-8" standalone="no"?>
<!DOCTYPE svg PUBLIC "-//W3C//DTD SVG 1.1//EN"
 "http://www.w3.org/Graphics/SVG/1.1/DTD/svg11.dtd">
<!-- Generated by graphviz version 2.43.0 (0)
 -->
<!-- Title: oneDegreeRelationshipsDiagram Pages: 1 -->
<svg width="272pt" height="423pt"
 viewBox="0.00 0.00 272.00 423.00" xmlns="http://www.w3.org/2000/svg" xmlns:xlink="http://www.w3.org/1999/xlink">
<g id="graph0" class="graph" transform="scale(1 1) rotate(0) translate(4 419)">
<title>oneDegreeRelationshipsDiagram</title>
<polygon fill="#ffffff" stroke="transparent" points="-4,4 -4,-419 268,-419 268,4 -4,4"/>
<text text-anchor="middle" x="79.5" y="-7.2" font-family="Helvetica,sans-Serif" font-size="11.00">Generated by SchemaSpy</text>
<!-- vegetation_kind -->
<g id="node1" class="node">
<title>vegetation_kind</title>
<g id="a_node1"><a xlink:href="../../tables/vegetation_kind.html" xlink:title="vegetation_kind" target="_top">
<polygon fill="#ffffff" stroke="transparent" points="8,-37 8,-411 256,-411 256,-37 8,-37"/>
<polygon fill="#f5f5f5" stroke="transparent" points="10,-387 10,-409 254,-409 254,-387 10,-387"/>
<polygon fill="none" stroke="black" points="10,-387 10,-409 254,-409 254,-387 10,-387"/>
<text text-anchor="start" x="15" y="-396.2" font-family="Helvetica,sans-Serif" font-weight="bold" font-size="11.00">vegetation_kind</text>
<text text-anchor="start" x="212" y="-395.2" font-family="Helvetica,sans-Serif" font-size="11.00">[table]</text>
<polygon fill="none" stroke="black" points="10,-365 10,-387 148,-387 148,-365 10,-365"/>
<image xlink:href="../../images/primaryKeys.png" width="11px" height="12px" preserveAspectRatio="xMinYMin meet" x="15" y="-382"/>
<text text-anchor="start" x="30" y="-373.2" font-family="Helvetica,sans-Serif" font-size="11.00">id</text>
<polygon fill="none" stroke="black" points="148,-365 148,-387 254,-387 254,-365 148,-365"/>
<text text-anchor="start" x="151" y="-373.2" font-family="Helvetica,sans-Serif" font-size="11.00">int4[10]</text>
<polygon fill="none" stroke="black" points="10,-343 10,-365 148,-365 148,-343 10,-343"/>
<text text-anchor="start" x="30" y="-351.2" font-family="Helvetica,sans-Serif" font-size="11.00">active</text>
<polygon fill="none" stroke="black" points="148,-343 148,-365 254,-365 254,-343 148,-343"/>
<text text-anchor="start" x="151" y="-351.2" font-family="Helvetica,sans-Serif" font-size="11.00">bool[1]</text>
<polygon fill="none" stroke="black" points="10,-321 10,-343 148,-343 148,-321 10,-321"/>
<text text-anchor="start" x="30" y="-329.2" font-family="Helvetica,sans-Serif" font-size="11.00">short_en</text>
<polygon fill="none" stroke="black" points="148,-321 148,-343 254,-343 254,-321 148,-321"/>
<text text-anchor="start" x="151" y="-329.2" font-family="Helvetica,sans-Serif" font-size="11.00">varchar[10]</text>
<polygon fill="none" stroke="black" points="10,-299 10,-321 148,-321 148,-299 10,-299"/>
<text text-anchor="start" x="30" y="-307.2" font-family="Helvetica,sans-Serif" font-size="11.00">short_fr</text>
<polygon fill="none" stroke="black" points="148,-299 148,-321 254,-321 254,-299 148,-299"/>
<text text-anchor="start" x="151" y="-307.2" font-family="Helvetica,sans-Serif" font-size="11.00">varchar[10]</text>
<polygon fill="none" stroke="black" points="10,-277 10,-299 148,-299 148,-277 10,-277"/>
<text text-anchor="start" x="30" y="-285.2" font-family="Helvetica,sans-Serif" font-size="11.00">short_de</text>
<polygon fill="none" stroke="black" points="148,-277 148,-299 254,-299 254,-277 148,-277"/>
<text text-anchor="start" x="151" y="-285.2" font-family="Helvetica,sans-Serif" font-size="11.00">varchar[10]</text>
<polygon fill="none" stroke="black" points="10,-255 10,-277 148,-277 148,-255 10,-255"/>
<text text-anchor="start" x="30" y="-263.2" font-family="Helvetica,sans-Serif" font-size="11.00">short_it</text>
<polygon fill="none" stroke="black" points="148,-255 148,-277 254,-277 254,-255 148,-255"/>
<text text-anchor="start" x="151" y="-263.2" font-family="Helvetica,sans-Serif" font-size="11.00">varchar[10]</text>
<polygon fill="none" stroke="black" points="10,-233 10,-255 148,-255 148,-233 10,-233"/>
<text text-anchor="start" x="30" y="-241.2" font-family="Helvetica,sans-Serif" font-size="11.00">value_en</text>
<polygon fill="none" stroke="black" points="148,-233 148,-255 254,-255 254,-233 148,-233"/>
<text text-anchor="start" x="151" y="-241.2" font-family="Helvetica,sans-Serif" font-size="11.00">varchar[50]</text>
<polygon fill="none" stroke="black" points="10,-211 10,-233 148,-233 148,-211 10,-211"/>
<text text-anchor="start" x="30" y="-219.2" font-family="Helvetica,sans-Serif" font-size="11.00">value_fr</text>
<polygon fill="none" stroke="black" points="148,-211 148,-233 254,-233 254,-211 148,-211"/>
<text text-anchor="start" x="151" y="-219.2" font-family="Helvetica,sans-Serif" font-size="11.00">varchar[50]</text>
<polygon fill="none" stroke="black" points="10,-189 10,-211 148,-211 148,-189 10,-189"/>
<text text-anchor="start" x="30" y="-197.2" font-family="Helvetica,sans-Serif" font-size="11.00">value_de</text>
<polygon fill="none" stroke="black" points="148,-189 148,-211 254,-211 254,-189 148,-189"/>
<text text-anchor="start" x="151" y="-197.2" font-family="Helvetica,sans-Serif" font-size="11.00">varchar[50]</text>
<polygon fill="none" stroke="black" points="10,-167 10,-189 148,-189 148,-167 10,-167"/>
<text text-anchor="start" x="30" y="-175.2" font-family="Helvetica,sans-Serif" font-size="11.00">value_it</text>
<polygon fill="none" stroke="black" points="148,-167 148,-189 254,-189 254,-167 148,-167"/>
<text text-anchor="start" x="151" y="-175.2" font-family="Helvetica,sans-Serif" font-size="11.00">varchar[50]</text>
<polygon fill="none" stroke="black" points="10,-145 10,-167 148,-167 148,-145 10,-145"/>
<text text-anchor="start" x="30" y="-153.2" font-family="Helvetica,sans-Serif" font-size="11.00">description_en</text>
<polygon fill="none" stroke="black" points="148,-145 148,-167 254,-167 254,-145 148,-145"/>
<text text-anchor="start" x="151" y="-153.2" font-family="Helvetica,sans-Serif" font-size="11.00">text[2147483647]</text>
<polygon fill="none" stroke="black" points="10,-123 10,-145 148,-145 148,-123 10,-123"/>
<text text-anchor="start" x="30" y="-131.2" font-family="Helvetica,sans-Serif" font-size="11.00">description_fr</text>
<polygon fill="none" stroke="black" points="148,-123 148,-145 254,-145 254,-123 148,-123"/>
<text text-anchor="start" x="151" y="-131.2" font-family="Helvetica,sans-Serif" font-size="11.00">text[2147483647]</text>
<polygon fill="none" stroke="black" points="10,-101 10,-123 148,-123 148,-101 10,-101"/>
<text text-anchor="start" x="30" y="-109.2" font-family="Helvetica,sans-Serif" font-size="11.00">description_de</text>
<polygon fill="none" stroke="black" points="148,-101 148,-123 254,-123 254,-101 148,-101"/>
<text text-anchor="start" x="151" y="-109.2" font-family="Helvetica,sans-Serif" font-size="11.00">text[2147483647]</text>
<polygon fill="none" stroke="black" points="10,-79 10,-101 148,-101 148,-79 10,-79"/>
<text text-anchor="start" x="30" y="-87.2" font-family="Helvetica,sans-Serif" font-size="11.00">description_it</text>
<polygon fill="none" stroke="black" points="148,-79 148,-101 254,-101 254,-79 148,-79"/>
<text text-anchor="start" x="151" y="-87.2" font-family="Helvetica,sans-Serif" font-size="11.00">text[2147483647]</text>
<polygon fill="none" stroke="black" points="10,-57 10,-79 148,-79 148,-57 10,-57"/>
<text text-anchor="start" x="30" y="-65.2" font-family="Helvetica,sans-Serif" font-size="11.00">sia405code</text>
<polygon fill="none" stroke="black" points="148,-57 148,-79 254,-79 254,-57 148,-57"/>
<text text-anchor="start" x="151" y="-65.2" font-family="Helvetica,sans-Serif" font-size="11.00">text[2147483647]</text>
<polygon fill="#ffffff" stroke="transparent" points="10,-39 10,-57 254,-57 254,-39 10,-39"/>
<polygon fill="none" stroke="black" points="10,-39 10,-57 254,-57 254,-39 10,-39"/>
<polygon fill="#ffffff" stroke="transparent" points="11,-40 11,-56 96,-56 96,-40 11,-40"/>
<text text-anchor="start" x="13" y="-45.2" font-family="Helvetica,sans-Serif" font-size="11.00">&lt; 0</text>
<polygon fill="#ffffff" stroke="transparent" points="96,-40 96,-56 169,-56 169,-40 96,-40"/>
<text text-anchor="start" x="128.5" y="-45.2" font-family="Helvetica,sans-Serif" font-size="11.00"> &#160;</text>
<polygon fill="#ffffff" stroke="transparent" points="169,-40 169,-56 253,-56 253,-40 169,-40"/>
<text text-anchor="start" x="231" y="-45.2" font-family="Helvetica,sans-Serif" font-size="11.00">0 &gt;</text>
<polygon fill="black" stroke="black" points="96,-40 96,-56 96,-56 96,-40 96,-40"/>
<polygon fill="black" stroke="black" points="169,-40 169,-56 169,-56 169,-40 169,-40"/>
<polygon fill="none" stroke="black" stroke-width="2" points="9,-38 9,-410 255,-410 255,-38 9,-38"/>
</a>
</g>
</g>
</g>
</svg>
