<?xml version="1.0" encoding="UTF-8" standalone="no"?>
<!DOCTYPE svg PUBLIC "-//W3C//DTD SVG 1.1//EN"
 "http://www.w3.org/Graphics/SVG/1.1/DTD/svg11.dtd">
<!-- Generated by graphviz version 2.43.0 (0)
 -->
<!-- Title: oneDegreeRelationshipsDiagram Pages: 1 -->
<svg width="293pt" height="291pt"
 viewBox="0.00 0.00 293.00 291.00" xmlns="http://www.w3.org/2000/svg" xmlns:xlink="http://www.w3.org/1999/xlink">
<g id="graph0" class="graph" transform="scale(1 1) rotate(0) translate(4 287)">
<title>oneDegreeRelationshipsDiagram</title>
<polygon fill="#ffffff" stroke="transparent" points="-4,4 -4,-287 289,-287 289,4 -4,4"/>
<text text-anchor="middle" x="79.5" y="-7.2" font-family="Helvetica,sans-Serif" font-size="11.00">Generated by SchemaSpy</text>
<!-- contract -->
<g id="node1" class="node">
<title>contract</title>
<g id="a_node1"><a xlink:href="../../tables/contract.html" xlink:title="contract" target="_top">
<polygon fill="#ffffff" stroke="transparent" points="8,-37 8,-279 277,-279 277,-37 8,-37"/>
<polygon fill="#f5f5f5" stroke="transparent" points="10.5,-255 10.5,-277 275.5,-277 275.5,-255 10.5,-255"/>
<polygon fill="none" stroke="black" points="10.5,-255 10.5,-277 275.5,-277 275.5,-255 10.5,-255"/>
<text text-anchor="start" x="15.5" y="-264.2" font-family="Helvetica,sans-Serif" font-weight="bold" font-size="11.00">contract</text>
<text text-anchor="start" x="233.5" y="-263.2" font-family="Helvetica,sans-Serif" font-size="11.00">[table]</text>
<polygon fill="none" stroke="black" points="10.5,-233 10.5,-255 169.5,-255 169.5,-233 10.5,-233"/>
<image xlink:href="../../images/primaryKeys.png" width="11px" height="12px" preserveAspectRatio="xMinYMin meet" x="15.5" y="-250"/>
<text text-anchor="start" x="30.5" y="-241.2" font-family="Helvetica,sans-Serif" font-size="11.00">id</text>
<polygon fill="none" stroke="black" points="169.5,-233 169.5,-255 275.5,-255 275.5,-233 169.5,-233"/>
<text text-anchor="start" x="172.5" y="-241.2" font-family="Helvetica,sans-Serif" font-size="11.00">uuid[2147483647]</text>
<polygon fill="none" stroke="black" points="10.5,-211 10.5,-233 169.5,-233 169.5,-211 10.5,-211"/>
<text text-anchor="start" x="30.5" y="-219.2" font-family="Helvetica,sans-Serif" font-size="11.00">fk_kind</text>
<polygon fill="none" stroke="black" points="169.5,-211 169.5,-233 275.5,-233 275.5,-211 169.5,-211"/>
<text text-anchor="start" x="172.5" y="-219.2" font-family="Helvetica,sans-Serif" font-size="11.00">int4[10]</text>
<polygon fill="none" stroke="black" points="10.5,-189 10.5,-211 169.5,-211 169.5,-189 10.5,-189"/>
<text text-anchor="start" x="30.5" y="-197.2" font-family="Helvetica,sans-Serif" font-size="11.00">begin_date</text>
<polygon fill="none" stroke="black" points="169.5,-189 169.5,-211 275.5,-211 275.5,-189 169.5,-189"/>
<text text-anchor="start" x="172.5" y="-197.2" font-family="Helvetica,sans-Serif" font-size="11.00">date[13]</text>
<polygon fill="none" stroke="black" points="10.5,-167 10.5,-189 169.5,-189 169.5,-167 10.5,-167"/>
<text text-anchor="start" x="30.5" y="-175.2" font-family="Helvetica,sans-Serif" font-size="11.00">end_date</text>
<polygon fill="none" stroke="black" points="169.5,-167 169.5,-189 275.5,-189 275.5,-167 169.5,-167"/>
<text text-anchor="start" x="172.5" y="-175.2" font-family="Helvetica,sans-Serif" font-size="11.00">date[13]</text>
<polygon fill="none" stroke="black" points="10.5,-145 10.5,-167 169.5,-167 169.5,-145 10.5,-145"/>
<text text-anchor="start" x="30.5" y="-153.2" font-family="Helvetica,sans-Serif" font-size="11.00">approval_date</text>
<polygon fill="none" stroke="black" points="169.5,-145 169.5,-167 275.5,-167 275.5,-145 169.5,-145"/>
<text text-anchor="start" x="172.5" y="-153.2" font-family="Helvetica,sans-Serif" font-size="11.00">date[13]</text>
<polygon fill="none" stroke="black" points="10.5,-123 10.5,-145 169.5,-145 169.5,-123 10.5,-123"/>
<text text-anchor="start" x="30.5" y="-131.2" font-family="Helvetica,sans-Serif" font-size="11.00">valid</text>
<polygon fill="none" stroke="black" points="169.5,-123 169.5,-145 275.5,-145 275.5,-123 169.5,-123"/>
<text text-anchor="start" x="172.5" y="-131.2" font-family="Helvetica,sans-Serif" font-size="11.00">bool[1]</text>
<polygon fill="none" stroke="black" points="10.5,-101 10.5,-123 169.5,-123 169.5,-101 10.5,-101"/>
<text text-anchor="start" x="30.5" y="-109.2" font-family="Helvetica,sans-Serif" font-size="11.00">invoiced</text>
<polygon fill="none" stroke="black" points="169.5,-101 169.5,-123 275.5,-123 275.5,-101 169.5,-101"/>
<text text-anchor="start" x="172.5" y="-109.2" font-family="Helvetica,sans-Serif" font-size="11.00">bool[1]</text>
<polygon fill="none" stroke="black" points="10.5,-79 10.5,-101 169.5,-101 169.5,-79 10.5,-79"/>
<text text-anchor="start" x="30.5" y="-87.2" font-family="Helvetica,sans-Serif" font-size="11.00">fk_contract_person</text>
<polygon fill="none" stroke="black" points="169.5,-79 169.5,-101 275.5,-101 275.5,-79 169.5,-79"/>
<text text-anchor="start" x="172.5" y="-87.2" font-family="Helvetica,sans-Serif" font-size="11.00">uuid[2147483647]</text>
<polygon fill="none" stroke="black" points="10.5,-57 10.5,-79 169.5,-79 169.5,-57 10.5,-57"/>
<text text-anchor="start" x="30.5" y="-65.2" font-family="Helvetica,sans-Serif" font-size="11.00">remark</text>
<polygon fill="none" stroke="black" points="169.5,-57 169.5,-79 275.5,-79 275.5,-57 169.5,-57"/>
<text text-anchor="start" x="172.5" y="-65.2" font-family="Helvetica,sans-Serif" font-size="11.00">text[2147483647]</text>
<polygon fill="#ffffff" stroke="transparent" points="10.5,-39 10.5,-57 275.5,-57 275.5,-39 10.5,-39"/>
<polygon fill="none" stroke="black" points="10.5,-39 10.5,-57 275.5,-57 275.5,-39 10.5,-39"/>
<polygon fill="#ffffff" stroke="transparent" points="11.5,-40 11.5,-56 103.5,-56 103.5,-40 11.5,-40"/>
<text text-anchor="start" x="13.5" y="-45.2" font-family="Helvetica,sans-Serif" font-size="11.00">&lt; 0</text>
<polygon fill="#ffffff" stroke="transparent" points="103.5,-40 103.5,-56 183.5,-56 183.5,-40 103.5,-40"/>
<text text-anchor="start" x="139.5" y="-45.2" font-family="Helvetica,sans-Serif" font-size="11.00"> &#160;</text>
<polygon fill="#ffffff" stroke="transparent" points="183.5,-40 183.5,-56 274.5,-56 274.5,-40 183.5,-40"/>
<text text-anchor="start" x="252.5" y="-45.2" font-family="Helvetica,sans-Serif" font-size="11.00">0 &gt;</text>
<polygon fill="black" stroke="black" points="103.5,-40 103.5,-56 103.5,-56 103.5,-40 103.5,-40"/>
<polygon fill="black" stroke="black" points="183.5,-40 183.5,-56 183.5,-56 183.5,-40 183.5,-40"/>
<polygon fill="none" stroke="black" stroke-width="2" points="9,-38 9,-278 276,-278 276,-38 9,-38"/>
</a>
</g>
</g>
</g>
</svg>
