<?xml version="1.0" encoding="UTF-8" standalone="no"?>
<!DOCTYPE svg PUBLIC "-//W3C//DTD SVG 1.1//EN"
 "http://www.w3.org/Graphics/SVG/1.1/DTD/svg11.dtd">
<!-- Generated by graphviz version 2.43.0 (0)
 -->
<!-- Title: oneDegreeRelationshipsDiagram Pages: 1 -->
<svg width="756pt" height="544pt"
 viewBox="0.00 0.00 756.00 544.00" xmlns="http://www.w3.org/2000/svg" xmlns:xlink="http://www.w3.org/1999/xlink">
<g id="graph0" class="graph" transform="scale(1 1) rotate(0) translate(4 540)">
<title>oneDegreeRelationshipsDiagram</title>
<polygon fill="#ffffff" stroke="transparent" points="-4,4 -4,-540 752,-540 752,4 -4,4"/>
<text text-anchor="middle" x="79.5" y="-7.2" font-family="Helvetica,sans-Serif" font-size="11.00">Generated by SchemaSpy</text>
<!-- contract -->
<g id="node1" class="node">
<title>contract</title>
<g id="a_node1"><a xlink:href="../../tables/contract.html" xlink:title="contract" target="_top">
<polygon fill="#ffffff" stroke="transparent" points="471,-246 471,-532 740,-532 740,-246 471,-246"/>
<polygon fill="#f5f5f5" stroke="transparent" points="473.5,-508 473.5,-530 738.5,-530 738.5,-508 473.5,-508"/>
<polygon fill="none" stroke="black" points="473.5,-508 473.5,-530 738.5,-530 738.5,-508 473.5,-508"/>
<text text-anchor="start" x="478.5" y="-517.2" font-family="Helvetica,sans-Serif" font-weight="bold" font-size="11.00">contract</text>
<text text-anchor="start" x="696.5" y="-516.2" font-family="Helvetica,sans-Serif" font-size="11.00">[table]</text>
<polygon fill="none" stroke="black" points="473.5,-486 473.5,-508 632.5,-508 632.5,-486 473.5,-486"/>
<image xlink:href="../../images/primaryKeys.png" width="11px" height="12px" preserveAspectRatio="xMinYMin meet" x="478.5" y="-503"/>
<text text-anchor="start" x="493.5" y="-494.2" font-family="Helvetica,sans-Serif" font-size="11.00">id</text>
<polygon fill="none" stroke="black" points="632.5,-486 632.5,-508 738.5,-508 738.5,-486 632.5,-486"/>
<text text-anchor="start" x="635.5" y="-494.2" font-family="Helvetica,sans-Serif" font-size="11.00">uuid[2147483647]</text>
<polygon fill="none" stroke="black" points="473.5,-464 473.5,-486 632.5,-486 632.5,-464 473.5,-464"/>
<image xlink:href="../../images/foreignKeys.png" width="11px" height="12px" preserveAspectRatio="xMinYMin meet" x="478.5" y="-481"/>
<text text-anchor="start" x="493.5" y="-472.2" font-family="Helvetica,sans-Serif" font-size="11.00">fk_kind</text>
<polygon fill="none" stroke="black" points="632.5,-464 632.5,-486 738.5,-486 738.5,-464 632.5,-464"/>
<text text-anchor="start" x="635.5" y="-472.2" font-family="Helvetica,sans-Serif" font-size="11.00">int4[10]</text>
<polygon fill="none" stroke="black" points="473.5,-442 473.5,-464 632.5,-464 632.5,-442 473.5,-442"/>
<text text-anchor="start" x="493.5" y="-450.2" font-family="Helvetica,sans-Serif" font-size="11.00">identifier</text>
<polygon fill="none" stroke="black" points="632.5,-442 632.5,-464 738.5,-464 738.5,-442 632.5,-442"/>
<text text-anchor="start" x="635.5" y="-450.2" font-family="Helvetica,sans-Serif" font-size="11.00">text[2147483647]</text>
<polygon fill="none" stroke="black" points="473.5,-420 473.5,-442 632.5,-442 632.5,-420 473.5,-420"/>
<text text-anchor="start" x="493.5" y="-428.2" font-family="Helvetica,sans-Serif" font-size="11.00">begin_date</text>
<polygon fill="none" stroke="black" points="632.5,-420 632.5,-442 738.5,-442 738.5,-420 632.5,-420"/>
<text text-anchor="start" x="635.5" y="-428.2" font-family="Helvetica,sans-Serif" font-size="11.00">date[13]</text>
<polygon fill="none" stroke="black" points="473.5,-398 473.5,-420 632.5,-420 632.5,-398 473.5,-398"/>
<text text-anchor="start" x="493.5" y="-406.2" font-family="Helvetica,sans-Serif" font-size="11.00">end_date</text>
<polygon fill="none" stroke="black" points="632.5,-398 632.5,-420 738.5,-420 738.5,-398 632.5,-398"/>
<text text-anchor="start" x="635.5" y="-406.2" font-family="Helvetica,sans-Serif" font-size="11.00">date[13]</text>
<polygon fill="none" stroke="black" points="473.5,-376 473.5,-398 632.5,-398 632.5,-376 473.5,-376"/>
<text text-anchor="start" x="493.5" y="-384.2" font-family="Helvetica,sans-Serif" font-size="11.00">approval_date</text>
<polygon fill="none" stroke="black" points="632.5,-376 632.5,-398 738.5,-398 738.5,-376 632.5,-376"/>
<text text-anchor="start" x="635.5" y="-384.2" font-family="Helvetica,sans-Serif" font-size="11.00">date[13]</text>
<polygon fill="none" stroke="black" points="473.5,-354 473.5,-376 632.5,-376 632.5,-354 473.5,-354"/>
<text text-anchor="start" x="493.5" y="-362.2" font-family="Helvetica,sans-Serif" font-size="11.00">valid</text>
<polygon fill="none" stroke="black" points="632.5,-354 632.5,-376 738.5,-376 738.5,-354 632.5,-354"/>
<text text-anchor="start" x="635.5" y="-362.2" font-family="Helvetica,sans-Serif" font-size="11.00">bool[1]</text>
<polygon fill="none" stroke="black" points="473.5,-332 473.5,-354 632.5,-354 632.5,-332 473.5,-332"/>
<text text-anchor="start" x="493.5" y="-340.2" font-family="Helvetica,sans-Serif" font-size="11.00">invoiced</text>
<polygon fill="none" stroke="black" points="632.5,-332 632.5,-354 738.5,-354 738.5,-332 632.5,-332"/>
<text text-anchor="start" x="635.5" y="-340.2" font-family="Helvetica,sans-Serif" font-size="11.00">bool[1]</text>
<polygon fill="none" stroke="black" points="473.5,-310 473.5,-332 632.5,-332 632.5,-310 473.5,-310"/>
<image xlink:href="../../images/foreignKeys.png" width="11px" height="12px" preserveAspectRatio="xMinYMin meet" x="478.5" y="-327"/>
<text text-anchor="start" x="493.5" y="-318.2" font-family="Helvetica,sans-Serif" font-size="11.00">fk_contract_person</text>
<polygon fill="none" stroke="black" points="632.5,-310 632.5,-332 738.5,-332 738.5,-310 632.5,-310"/>
<text text-anchor="start" x="635.5" y="-318.2" font-family="Helvetica,sans-Serif" font-size="11.00">uuid[2147483647]</text>
<polygon fill="none" stroke="black" points="473.5,-288 473.5,-310 632.5,-310 632.5,-288 473.5,-288"/>
<image xlink:href="../../images/foreignKeys.png" width="11px" height="12px" preserveAspectRatio="xMinYMin meet" x="478.5" y="-305"/>
<text text-anchor="start" x="493.5" y="-296.2" font-family="Helvetica,sans-Serif" font-size="11.00">fk_unit</text>
<polygon fill="none" stroke="black" points="632.5,-288 632.5,-310 738.5,-310 738.5,-288 632.5,-288"/>
<text text-anchor="start" x="635.5" y="-296.2" font-family="Helvetica,sans-Serif" font-size="11.00">uuid[2147483647]</text>
<polygon fill="none" stroke="black" points="473.5,-266 473.5,-288 632.5,-288 632.5,-266 473.5,-266"/>
<text text-anchor="start" x="493.5" y="-274.2" font-family="Helvetica,sans-Serif" font-size="11.00">remark</text>
<polygon fill="none" stroke="black" points="632.5,-266 632.5,-288 738.5,-288 738.5,-266 632.5,-266"/>
<text text-anchor="start" x="635.5" y="-274.2" font-family="Helvetica,sans-Serif" font-size="11.00">text[2147483647]</text>
<polygon fill="#ffffff" stroke="transparent" points="473.5,-248 473.5,-266 738.5,-266 738.5,-248 473.5,-248"/>
<polygon fill="none" stroke="black" points="473.5,-248 473.5,-266 738.5,-266 738.5,-248 473.5,-248"/>
<polygon fill="#ffffff" stroke="transparent" points="474.5,-249 474.5,-265 566.5,-265 566.5,-249 474.5,-249"/>
<text text-anchor="start" x="476.5" y="-254.2" font-family="Helvetica,sans-Serif" font-size="11.00">&lt; 3</text>
<polygon fill="#ffffff" stroke="transparent" points="566.5,-249 566.5,-265 646.5,-265 646.5,-249 566.5,-249"/>
<text text-anchor="start" x="602.5" y="-254.2" font-family="Helvetica,sans-Serif" font-size="11.00"> &#160;</text>
<polygon fill="#ffffff" stroke="transparent" points="646.5,-249 646.5,-265 737.5,-265 737.5,-249 646.5,-249"/>
<text text-anchor="start" x="715.5" y="-254.2" font-family="Helvetica,sans-Serif" font-size="11.00">0 &gt;</text>
<polygon fill="black" stroke="black" points="566.5,-249 566.5,-265 566.5,-265 566.5,-249 566.5,-249"/>
<polygon fill="black" stroke="black" points="646.5,-249 646.5,-265 646.5,-265 646.5,-249 646.5,-249"/>
<polygon fill="none" stroke="black" stroke-width="2" points="472,-247 472,-531 739,-531 739,-247 472,-247"/>
</a>
</g>
</g>
<!-- contact -->
<g id="node2" class="node">
<title>contact</title>
<g id="a_node2"><a xlink:href="../../tables/contact.html" xlink:title="contact" target="_top">
<polygon fill="#ffffff" stroke="transparent" points="8,-131 8,-255 180,-255 180,-131 8,-131"/>
<polygon fill="#f5f5f5" stroke="transparent" points="8,-233 8,-255 180,-255 180,-233 8,-233"/>
<polygon fill="none" stroke="black" points="8,-233 8,-255 180,-255 180,-233 8,-233"/>
<text text-anchor="start" x="13" y="-242.2" font-family="Helvetica,sans-Serif" font-weight="bold" font-size="11.00">contact</text>
<text text-anchor="start" x="138" y="-241.2" font-family="Helvetica,sans-Serif" font-size="11.00">[table]</text>
<polygon fill="none" stroke="black" points="8,-211 8,-233 180,-233 180,-211 8,-211"/>
<image xlink:href="../../images/primaryKeys.png" width="11px" height="12px" preserveAspectRatio="xMinYMin meet" x="13" y="-228"/>
<text text-anchor="start" x="28" y="-219.2" font-family="Helvetica,sans-Serif" font-size="11.00">id</text>
<polygon fill="none" stroke="black" points="8,-189 8,-211 180,-211 180,-189 8,-189"/>
<image xlink:href="../../images/foreignKeys.png" width="11px" height="12px" preserveAspectRatio="xMinYMin meet" x="13" y="-206"/>
<text text-anchor="start" x="28" y="-197.2" font-family="Helvetica,sans-Serif" font-size="11.00">fk_kind</text>
<polygon fill="none" stroke="black" points="8,-167 8,-189 180,-189 180,-167 8,-167"/>
<image xlink:href="../../images/foreignKeys.png" width="11px" height="12px" preserveAspectRatio="xMinYMin meet" x="13" y="-184"/>
<text text-anchor="start" x="28" y="-175.2" font-family="Helvetica,sans-Serif" font-size="11.00">fk_civility</text>
<polygon fill="none" stroke="black" points="8,-149 8,-167 180,-167 180,-149 8,-149"/>
<text text-anchor="start" x="11" y="-155.2" font-family="Helvetica,sans-Serif" font-size="11.00">...</text>
<polygon fill="#ffffff" stroke="transparent" points="8,-131 8,-149 180,-149 180,-131 8,-131"/>
<polygon fill="none" stroke="black" points="8,-131 8,-149 180,-149 180,-131 8,-131"/>
<polygon fill="#ffffff" stroke="transparent" points="9,-132 9,-148 70,-148 70,-132 9,-132"/>
<text text-anchor="start" x="11" y="-137.2" font-family="Helvetica,sans-Serif" font-size="11.00">&lt; 2</text>
<polygon fill="#ffffff" stroke="transparent" points="70,-132 70,-148 119,-148 119,-132 70,-132"/>
<text text-anchor="start" x="90.5" y="-137.2" font-family="Helvetica,sans-Serif" font-size="11.00"> &#160;</text>
<polygon fill="#ffffff" stroke="transparent" points="119,-132 119,-148 179,-148 179,-132 119,-132"/>
<text text-anchor="start" x="157" y="-137.2" font-family="Helvetica,sans-Serif" font-size="11.00">2 &gt;</text>
<polygon fill="black" stroke="black" points="70,-132 70,-148 70,-148 70,-132 70,-132"/>
<polygon fill="black" stroke="black" points="119,-132 119,-148 119,-148 119,-132 119,-132"/>
</a>
</g>
</g>
<!-- contract&#45;&gt;contact -->
<g id="edge1" class="edge">
<title>contract:w&#45;&gt;contact:e</title>
<path fill="none" stroke="black" d="M458.04,-321.94C449.26,-323.16 443.05,-325.23 430,-326 337.27,-331.44 297.57,-378.59 221,-326 180.18,-297.96 230.52,-222 181,-222"/>
<polygon fill="black" stroke="black" points="464.52,-321.52 472.73,-324.59 468.51,-321.26 472.5,-321 472.5,-321 472.5,-321 468.51,-321.26 472.27,-317.41 464.52,-321.52 464.52,-321.52"/>
<ellipse fill="none" stroke="black" cx="461.32" cy="-321.72" rx="3.2" ry="3.2"/>
</g>
<!-- tce_vl.contract_kind -->
<g id="node3" class="node">
<title>tce_vl.contract_kind</title>
<g id="a_node3"><a xlink:href="../../../tce_vl/tables/contract_kind.html" xlink:title="tce_vl.contract_kind" target="_top">
<polygon fill="#ffffff" stroke="transparent" points="229,-446 229,-504 422,-504 422,-446 229,-446"/>
<polygon fill="#f5f5f5" stroke="transparent" points="229.5,-482 229.5,-504 422.5,-504 422.5,-482 229.5,-482"/>
<polygon fill="none" stroke="black" points="229.5,-482 229.5,-504 422.5,-504 422.5,-482 229.5,-482"/>
<text text-anchor="start" x="234.5" y="-491.2" font-family="Helvetica,sans-Serif" font-weight="bold" font-size="11.00">tce_vl.contract_kind</text>
<text text-anchor="start" x="380.5" y="-490.2" font-family="Helvetica,sans-Serif" font-size="11.00">[table]</text>
<polygon fill="none" stroke="black" points="229.5,-464 229.5,-482 422.5,-482 422.5,-464 229.5,-464"/>
<text text-anchor="start" x="232.5" y="-470.2" font-family="Helvetica,sans-Serif" font-size="11.00">...</text>
<polygon fill="#ffffff" stroke="transparent" points="229.5,-446 229.5,-464 422.5,-464 422.5,-446 229.5,-446"/>
<polygon fill="none" stroke="black" points="229.5,-446 229.5,-464 422.5,-464 422.5,-446 229.5,-446"/>
<polygon fill="#ffffff" stroke="transparent" points="230.5,-447 230.5,-463 280.5,-463 280.5,-447 230.5,-447"/>
<text text-anchor="start" x="232.5" y="-452.2" font-family="Helvetica,sans-Serif" font-size="11.00"> &#160;</text>
<polygon fill="#ffffff" stroke="transparent" points="280.5,-447 280.5,-463 359.5,-463 359.5,-447 280.5,-447"/>
<text text-anchor="start" x="301.5" y="-452.2" font-family="Helvetica,sans-Serif" font-size="11.00">0 rows</text>
<polygon fill="#ffffff" stroke="transparent" points="359.5,-447 359.5,-463 421.5,-463 421.5,-447 359.5,-447"/>
<text text-anchor="start" x="399.5" y="-452.2" font-family="Helvetica,sans-Serif" font-size="11.00">1 &gt;</text>
<polygon fill="black" stroke="black" points="280.5,-447 280.5,-463 280.5,-463 280.5,-447 280.5,-447"/>
<polygon fill="black" stroke="black" points="359.5,-447 359.5,-463 359.5,-463 359.5,-447 359.5,-447"/>
</a>
</g>
</g>
<!-- contract&#45;&gt;tce_vl.contract_kind -->
<g id="edge2" class="edge">
<title>contract:w&#45;&gt;tce_vl.contract_kind:e</title>
<path fill="none" stroke="black" d="M457.84,-475C448.7,-475 439.4,-475 430.19,-475"/>
<polygon fill="black" stroke="black" points="464.5,-475 472.5,-478.6 468.5,-475 472.5,-475 472.5,-475 472.5,-475 468.5,-475 472.5,-471.4 464.5,-475 464.5,-475"/>
<ellipse fill="none" stroke="black" cx="461.3" cy="-475" rx="3.2" ry="3.2"/>
</g>
<!-- unit -->
<g id="node4" class="node">
<title>unit</title>
<g id="a_node4"><a xlink:href="../../tables/unit.html" xlink:title="unit" target="_top">
<polygon fill="#ffffff" stroke="transparent" points="249,-37 249,-315 402,-315 402,-37 249,-37"/>
<polygon fill="#f5f5f5" stroke="transparent" points="249.5,-293 249.5,-315 402.5,-315 402.5,-293 249.5,-293"/>
<polygon fill="none" stroke="black" points="249.5,-293 249.5,-315 402.5,-315 402.5,-293 249.5,-293"/>
<text text-anchor="start" x="254.5" y="-302.2" font-family="Helvetica,sans-Serif" font-weight="bold" font-size="11.00">unit</text>
<text text-anchor="start" x="360.5" y="-301.2" font-family="Helvetica,sans-Serif" font-size="11.00">[table]</text>
<polygon fill="none" stroke="black" points="249.5,-271 249.5,-293 402.5,-293 402.5,-271 249.5,-271"/>
<image xlink:href="../../images/primaryKeys.png" width="11px" height="12px" preserveAspectRatio="xMinYMin meet" x="254.5" y="-288"/>
<text text-anchor="start" x="269.5" y="-279.2" font-family="Helvetica,sans-Serif" font-size="11.00">id</text>
<polygon fill="none" stroke="black" points="249.5,-249 249.5,-271 402.5,-271 402.5,-249 249.5,-249"/>
<image xlink:href="../../images/foreignKeys.png" width="11px" height="12px" preserveAspectRatio="xMinYMin meet" x="254.5" y="-266"/>
<text text-anchor="start" x="269.5" y="-257.2" font-family="Helvetica,sans-Serif" font-size="11.00">fk_company</text>
<polygon fill="none" stroke="black" points="249.5,-227 249.5,-249 402.5,-249 402.5,-227 249.5,-227"/>
<image xlink:href="../../images/foreignKeys.png" width="11px" height="12px" preserveAspectRatio="xMinYMin meet" x="254.5" y="-244"/>
<text text-anchor="start" x="269.5" y="-235.2" font-family="Helvetica,sans-Serif" font-size="11.00">fk_sector</text>
<polygon fill="none" stroke="black" points="249.5,-205 249.5,-227 402.5,-227 402.5,-205 249.5,-205"/>
<image xlink:href="../../images/foreignKeys.png" width="11px" height="12px" preserveAspectRatio="xMinYMin meet" x="254.5" y="-222"/>
<text text-anchor="start" x="269.5" y="-213.2" font-family="Helvetica,sans-Serif" font-size="11.00">fk_cemetery</text>
<polygon fill="none" stroke="black" points="249.5,-183 249.5,-205 402.5,-205 402.5,-183 249.5,-183"/>
<image xlink:href="../../images/foreignKeys.png" width="11px" height="12px" preserveAspectRatio="xMinYMin meet" x="254.5" y="-200"/>
<text text-anchor="start" x="269.5" y="-191.2" font-family="Helvetica,sans-Serif" font-size="11.00">fk_size</text>
<polygon fill="none" stroke="black" points="249.5,-161 249.5,-183 402.5,-183 402.5,-161 249.5,-161"/>
<image xlink:href="../../images/foreignKeys.png" width="11px" height="12px" preserveAspectRatio="xMinYMin meet" x="254.5" y="-178"/>
<text text-anchor="start" x="269.5" y="-169.2" font-family="Helvetica,sans-Serif" font-size="11.00">fk_kind</text>
<polygon fill="none" stroke="black" points="249.5,-139 249.5,-161 402.5,-161 402.5,-139 249.5,-139"/>
<image xlink:href="../../images/foreignKeys.png" width="11px" height="12px" preserveAspectRatio="xMinYMin meet" x="254.5" y="-156"/>
<text text-anchor="start" x="269.5" y="-147.2" font-family="Helvetica,sans-Serif" font-size="11.00">fk_urn_material</text>
<polygon fill="none" stroke="black" points="249.5,-117 249.5,-139 402.5,-139 402.5,-117 249.5,-117"/>
<image xlink:href="../../images/foreignKeys.png" width="11px" height="12px" preserveAspectRatio="xMinYMin meet" x="254.5" y="-134"/>
<text text-anchor="start" x="269.5" y="-125.2" font-family="Helvetica,sans-Serif" font-size="11.00">fk_urn_shape</text>
<polygon fill="none" stroke="black" points="249.5,-95 249.5,-117 402.5,-117 402.5,-95 249.5,-95"/>
<image xlink:href="../../images/foreignKeys.png" width="11px" height="12px" preserveAspectRatio="xMinYMin meet" x="254.5" y="-112"/>
<text text-anchor="start" x="269.5" y="-103.2" font-family="Helvetica,sans-Serif" font-size="11.00">fk_contact_person</text>
<polygon fill="none" stroke="black" points="249.5,-73 249.5,-95 402.5,-95 402.5,-73 249.5,-73"/>
<image xlink:href="../../images/foreignKeys.png" width="11px" height="12px" preserveAspectRatio="xMinYMin meet" x="254.5" y="-90"/>
<text text-anchor="start" x="269.5" y="-81.2" font-family="Helvetica,sans-Serif" font-size="11.00">fk_control</text>
<polygon fill="none" stroke="black" points="249.5,-55 249.5,-73 402.5,-73 402.5,-55 249.5,-55"/>
<text text-anchor="start" x="252.5" y="-61.2" font-family="Helvetica,sans-Serif" font-size="11.00">...</text>
<polygon fill="#ffffff" stroke="transparent" points="249.5,-37 249.5,-55 402.5,-55 402.5,-37 249.5,-37"/>
<polygon fill="none" stroke="black" points="249.5,-37 249.5,-55 402.5,-55 402.5,-37 249.5,-37"/>
<polygon fill="#ffffff" stroke="transparent" points="250.5,-38 250.5,-54 305.5,-54 305.5,-38 250.5,-38"/>
<text text-anchor="start" x="252.5" y="-43.2" font-family="Helvetica,sans-Serif" font-size="11.00">&lt; 9</text>
<polygon fill="#ffffff" stroke="transparent" points="305.5,-38 305.5,-54 347.5,-54 347.5,-38 305.5,-38"/>
<text text-anchor="start" x="322.5" y="-43.2" font-family="Helvetica,sans-Serif" font-size="11.00"> &#160;</text>
<polygon fill="#ffffff" stroke="transparent" points="347.5,-38 347.5,-54 401.5,-54 401.5,-38 347.5,-38"/>
<text text-anchor="start" x="379.5" y="-43.2" font-family="Helvetica,sans-Serif" font-size="11.00">2 &gt;</text>
<polygon fill="black" stroke="black" points="305.5,-38 305.5,-54 305.5,-54 305.5,-38 305.5,-38"/>
<polygon fill="black" stroke="black" points="347.5,-38 347.5,-54 347.5,-54 347.5,-38 347.5,-38"/>
</a>
</g>
</g>
<!-- contract&#45;&gt;unit -->
<g id="edge3" class="edge">
<title>contract:w&#45;&gt;unit:e</title>
<path fill="none" stroke="black" d="M457.95,-297.61C438.07,-293.55 429.53,-282 403.5,-282"/>
<polygon fill="black" stroke="black" points="464.54,-298.24 472.16,-302.58 468.52,-298.62 472.5,-299 472.5,-299 472.5,-299 468.52,-298.62 472.84,-295.42 464.54,-298.24 464.54,-298.24"/>
<ellipse fill="none" stroke="black" cx="461.35" cy="-297.93" rx="3.2" ry="3.2"/>
</g>
<!-- unit&#45;&gt;contact -->
<g id="edge4" class="edge">
<title>unit:w&#45;&gt;contact:e</title>
<path fill="none" stroke="black" d="M234.01,-109.1C197.91,-127.55 234.82,-222 181,-222"/>
<polygon fill="black" stroke="black" points="240.68,-107.67 249.25,-109.52 244.59,-106.84 248.5,-106 248.5,-106 248.5,-106 244.59,-106.84 247.75,-102.48 240.68,-107.67 240.68,-107.67"/>
<ellipse fill="none" stroke="black" cx="237.55" cy="-108.34" rx="3.2" ry="3.2"/>
</g>
</g>
</svg>
