<?xml version="1.0" encoding="UTF-8" standalone="no"?>
<!DOCTYPE svg PUBLIC "-//W3C//DTD SVG 1.1//EN"
 "http://www.w3.org/Graphics/SVG/1.1/DTD/svg11.dtd">
<!-- Generated by graphviz version 2.43.0 (0)
 -->
<!-- Title: oneDegreeRelationshipsDiagram Pages: 1 -->
<svg width="638pt" height="531pt"
 viewBox="0.00 0.00 638.00 531.00" xmlns="http://www.w3.org/2000/svg" xmlns:xlink="http://www.w3.org/1999/xlink">
<g id="graph0" class="graph" transform="scale(1 1) rotate(0) translate(4 527)">
<title>oneDegreeRelationshipsDiagram</title>
<polygon fill="#ffffff" stroke="transparent" points="-4,4 -4,-527 634,-527 634,4 -4,4"/>
<text text-anchor="middle" x="79.5" y="-7.2" font-family="Helvetica,sans-Serif" font-size="11.00">Generated by SchemaSpy</text>
<!-- file -->
<g id="node1" class="node">
<title>file</title>
<g id="a_node1"><a xlink:href="../../tables/file.html" xlink:title="file" target="_top">
<polygon fill="#ffffff" stroke="transparent" points="482,-241 482,-519 622,-519 622,-241 482,-241"/>
<polygon fill="#f5f5f5" stroke="transparent" points="482,-497 482,-519 622,-519 622,-497 482,-497"/>
<polygon fill="none" stroke="black" points="482,-497 482,-519 622,-519 622,-497 482,-497"/>
<text text-anchor="start" x="486.5" y="-506.2" font-family="Helvetica,sans-Serif" font-weight="bold" font-size="11.00">file</text>
<text text-anchor="start" x="580" y="-505.2" font-family="Helvetica,sans-Serif" font-size="11.00">[table]</text>
<polygon fill="none" stroke="black" points="482,-475 482,-497 622,-497 622,-475 482,-475"/>
<image xlink:href="../../images/primaryKeys.png" width="11px" height="12px" preserveAspectRatio="xMinYMin meet" x="487" y="-492"/>
<text text-anchor="start" x="502" y="-483.2" font-family="Helvetica,sans-Serif" font-size="11.00">id</text>
<polygon fill="none" stroke="black" points="482,-453 482,-475 622,-475 622,-453 482,-453"/>
<image xlink:href="../../images/foreignKeys.png" width="11px" height="12px" preserveAspectRatio="xMinYMin meet" x="487" y="-470"/>
<text text-anchor="start" x="502" y="-461.2" font-family="Helvetica,sans-Serif" font-size="11.00">cemetery_ref</text>
<polygon fill="none" stroke="black" points="482,-431 482,-453 622,-453 622,-431 482,-431"/>
<image xlink:href="../../images/foreignKeys.png" width="11px" height="12px" preserveAspectRatio="xMinYMin meet" x="487" y="-448"/>
<text text-anchor="start" x="502" y="-439.2" font-family="Helvetica,sans-Serif" font-size="11.00">contact_ref</text>
<polygon fill="none" stroke="black" points="482,-409 482,-431 622,-431 622,-409 482,-409"/>
<image xlink:href="../../images/foreignKeys.png" width="11px" height="12px" preserveAspectRatio="xMinYMin meet" x="487" y="-426"/>
<text text-anchor="start" x="502" y="-417.2" font-family="Helvetica,sans-Serif" font-size="11.00">contract_ref</text>
<polygon fill="none" stroke="black" points="482,-387 482,-409 622,-409 622,-387 482,-387"/>
<image xlink:href="../../images/foreignKeys.png" width="11px" height="12px" preserveAspectRatio="xMinYMin meet" x="487" y="-404"/>
<text text-anchor="start" x="502" y="-395.2" font-family="Helvetica,sans-Serif" font-size="11.00">deceased_ref</text>
<polygon fill="none" stroke="black" points="482,-365 482,-387 622,-387 622,-365 482,-365"/>
<image xlink:href="../../images/foreignKeys.png" width="11px" height="12px" preserveAspectRatio="xMinYMin meet" x="487" y="-382"/>
<text text-anchor="start" x="502" y="-373.2" font-family="Helvetica,sans-Serif" font-size="11.00">furniture_ref</text>
<polygon fill="none" stroke="black" points="482,-343 482,-365 622,-365 622,-343 482,-343"/>
<image xlink:href="../../images/foreignKeys.png" width="11px" height="12px" preserveAspectRatio="xMinYMin meet" x="487" y="-360"/>
<text text-anchor="start" x="502" y="-351.2" font-family="Helvetica,sans-Serif" font-size="11.00">organisation_ref</text>
<polygon fill="none" stroke="black" points="482,-321 482,-343 622,-343 622,-321 482,-321"/>
<image xlink:href="../../images/foreignKeys.png" width="11px" height="12px" preserveAspectRatio="xMinYMin meet" x="487" y="-338"/>
<text text-anchor="start" x="502" y="-329.2" font-family="Helvetica,sans-Serif" font-size="11.00">sector_ref</text>
<polygon fill="none" stroke="black" points="482,-299 482,-321 622,-321 622,-299 482,-299"/>
<image xlink:href="../../images/foreignKeys.png" width="11px" height="12px" preserveAspectRatio="xMinYMin meet" x="487" y="-316"/>
<text text-anchor="start" x="502" y="-307.2" font-family="Helvetica,sans-Serif" font-size="11.00">unit_ref</text>
<polygon fill="none" stroke="black" points="482,-277 482,-299 622,-299 622,-277 482,-277"/>
<image xlink:href="../../images/foreignKeys.png" width="11px" height="12px" preserveAspectRatio="xMinYMin meet" x="487" y="-294"/>
<text text-anchor="start" x="502" y="-285.2" font-family="Helvetica,sans-Serif" font-size="11.00">vegetation_ref</text>
<polygon fill="none" stroke="black" points="482,-259 482,-277 622,-277 622,-259 482,-259"/>
<text text-anchor="start" x="485" y="-265.2" font-family="Helvetica,sans-Serif" font-size="11.00">...</text>
<polygon fill="#ffffff" stroke="transparent" points="482,-241 482,-259 622,-259 622,-241 482,-241"/>
<polygon fill="none" stroke="black" points="482,-241 482,-259 622,-259 622,-241 482,-241"/>
<polygon fill="#ffffff" stroke="transparent" points="483,-242 483,-258 537,-258 537,-242 483,-242"/>
<text text-anchor="start" x="485" y="-247.2" font-family="Helvetica,sans-Serif" font-size="11.00">&lt; 9</text>
<polygon fill="#ffffff" stroke="transparent" points="537,-242 537,-258 579,-258 579,-242 537,-242"/>
<text text-anchor="start" x="554" y="-247.2" font-family="Helvetica,sans-Serif" font-size="11.00"> &#160;</text>
<polygon fill="#ffffff" stroke="transparent" points="579,-242 579,-258 621,-258 621,-242 579,-242"/>
<text text-anchor="start" x="611" y="-247.2" font-family="Helvetica,sans-Serif" font-size="11.00"> &#160;</text>
<polygon fill="black" stroke="black" points="537,-242 537,-258 537,-258 537,-242 537,-242"/>
<polygon fill="black" stroke="black" points="579,-242 579,-258 579,-258 579,-242 579,-242"/>
</a>
</g>
</g>
<!-- organisation -->
<g id="node2" class="node">
<title>organisation</title>
<g id="a_node2"><a xlink:href="../../tables/organisation.html" xlink:title="organisation" target="_top">
<polygon fill="#ffffff" stroke="transparent" points="8,-213 8,-345 231,-345 231,-213 8,-213"/>
<polygon fill="#f5f5f5" stroke="transparent" points="10.5,-321 10.5,-343 229.5,-343 229.5,-321 10.5,-321"/>
<polygon fill="none" stroke="black" points="10.5,-321 10.5,-343 229.5,-343 229.5,-321 10.5,-321"/>
<text text-anchor="start" x="15.5" y="-330.2" font-family="Helvetica,sans-Serif" font-weight="bold" font-size="11.00">organisation</text>
<text text-anchor="start" x="187.5" y="-329.2" font-family="Helvetica,sans-Serif" font-size="11.00">[table]</text>
<polygon fill="none" stroke="black" points="10.5,-299 10.5,-321 123.5,-321 123.5,-299 10.5,-299"/>
<image xlink:href="../../images/primaryKeys.png" width="11px" height="12px" preserveAspectRatio="xMinYMin meet" x="15.5" y="-316"/>
<text text-anchor="start" x="30.5" y="-307.2" font-family="Helvetica,sans-Serif" font-size="11.00">id</text>
<polygon fill="none" stroke="black" points="123.5,-299 123.5,-321 229.5,-321 229.5,-299 123.5,-299"/>
<text text-anchor="start" x="126.5" y="-307.2" font-family="Helvetica,sans-Serif" font-size="11.00">uuid[2147483647]</text>
<polygon fill="none" stroke="black" points="10.5,-277 10.5,-299 123.5,-299 123.5,-277 10.5,-277"/>
<text text-anchor="start" x="30.5" y="-285.2" font-family="Helvetica,sans-Serif" font-size="11.00">identifier</text>
<polygon fill="none" stroke="black" points="123.5,-277 123.5,-299 229.5,-299 229.5,-277 123.5,-277"/>
<text text-anchor="start" x="126.5" y="-285.2" font-family="Helvetica,sans-Serif" font-size="11.00">text[2147483647]</text>
<polygon fill="none" stroke="black" points="10.5,-255 10.5,-277 123.5,-277 123.5,-255 10.5,-255"/>
<text text-anchor="start" x="30.5" y="-263.2" font-family="Helvetica,sans-Serif" font-size="11.00">remark</text>
<polygon fill="none" stroke="black" points="123.5,-255 123.5,-277 229.5,-277 229.5,-255 123.5,-255"/>
<text text-anchor="start" x="126.5" y="-263.2" font-family="Helvetica,sans-Serif" font-size="11.00">text[2147483647]</text>
<polygon fill="none" stroke="black" points="10.5,-233 10.5,-255 123.5,-255 123.5,-233 10.5,-233"/>
<text text-anchor="start" x="30.5" y="-241.2" font-family="Helvetica,sans-Serif" font-size="11.00">display_txt</text>
<polygon fill="none" stroke="black" points="123.5,-233 123.5,-255 229.5,-255 229.5,-233 123.5,-233"/>
<text text-anchor="start" x="126.5" y="-241.2" font-family="Helvetica,sans-Serif" font-size="11.00">text[2147483647]</text>
<polygon fill="#ffffff" stroke="transparent" points="10.5,-215 10.5,-233 229.5,-233 229.5,-215 10.5,-215"/>
<polygon fill="none" stroke="black" points="10.5,-215 10.5,-233 229.5,-233 229.5,-215 10.5,-215"/>
<polygon fill="#ffffff" stroke="transparent" points="11.5,-216 11.5,-232 88.5,-232 88.5,-216 11.5,-216"/>
<text text-anchor="start" x="13.5" y="-221.2" font-family="Helvetica,sans-Serif" font-size="11.00">&lt; 0</text>
<polygon fill="#ffffff" stroke="transparent" points="88.5,-216 88.5,-232 152.5,-232 152.5,-216 88.5,-216"/>
<text text-anchor="start" x="116.5" y="-221.2" font-family="Helvetica,sans-Serif" font-size="11.00"> &#160;</text>
<polygon fill="#ffffff" stroke="transparent" points="152.5,-216 152.5,-232 228.5,-232 228.5,-216 152.5,-216"/>
<text text-anchor="start" x="206.5" y="-221.2" font-family="Helvetica,sans-Serif" font-size="11.00">2 &gt;</text>
<polygon fill="black" stroke="black" points="88.5,-216 88.5,-232 88.5,-232 88.5,-216 88.5,-216"/>
<polygon fill="black" stroke="black" points="152.5,-216 152.5,-232 152.5,-232 152.5,-216 152.5,-216"/>
<polygon fill="none" stroke="black" stroke-width="2" points="9,-214 9,-344 230,-344 230,-214 9,-214"/>
</a>
</g>
</g>
<!-- file&#45;&gt;organisation -->
<g id="edge1" class="edge">
<title>file:w&#45;&gt;organisation:e</title>
<path fill="none" stroke="black" d="M466.55,-354.22C384.7,-356.78 353.65,-379.69 272,-347 249.06,-337.82 255.21,-310 230.5,-310"/>
<polygon fill="black" stroke="black" points="473,-354.12 481.06,-357.6 477,-354.06 481,-354 481,-354 481,-354 477,-354.06 480.94,-350.4 473,-354.12 473,-354.12"/>
<ellipse fill="none" stroke="black" cx="469.8" cy="-354.17" rx="3.2" ry="3.2"/>
</g>
<!-- unit -->
<g id="node3" class="node">
<title>unit</title>
<g id="a_node3"><a xlink:href="../../tables/unit.html" xlink:title="unit" target="_top">
<polygon fill="#ffffff" stroke="transparent" points="280,-37 280,-337 433,-337 433,-37 280,-37"/>
<polygon fill="#f5f5f5" stroke="transparent" points="280.5,-315 280.5,-337 433.5,-337 433.5,-315 280.5,-315"/>
<polygon fill="none" stroke="black" points="280.5,-315 280.5,-337 433.5,-337 433.5,-315 280.5,-315"/>
<text text-anchor="start" x="285.5" y="-324.2" font-family="Helvetica,sans-Serif" font-weight="bold" font-size="11.00">unit</text>
<text text-anchor="start" x="391.5" y="-323.2" font-family="Helvetica,sans-Serif" font-size="11.00">[table]</text>
<polygon fill="none" stroke="black" points="280.5,-293 280.5,-315 433.5,-315 433.5,-293 280.5,-293"/>
<image xlink:href="../../images/primaryKeys.png" width="11px" height="12px" preserveAspectRatio="xMinYMin meet" x="285.5" y="-310"/>
<text text-anchor="start" x="300.5" y="-301.2" font-family="Helvetica,sans-Serif" font-size="11.00">id</text>
<polygon fill="#ffffff" stroke="transparent" points="280.5,-271 280.5,-293 433.5,-293 433.5,-271 280.5,-271"/>
<polygon fill="none" stroke="black" points="280.5,-271 280.5,-293 433.5,-293 433.5,-271 280.5,-271"/>
<text text-anchor="start" x="300.5" y="-279.2" font-family="Helvetica,sans-Serif" font-size="11.00">identifier</text>
<polygon fill="none" stroke="black" points="280.5,-249 280.5,-271 433.5,-271 433.5,-249 280.5,-249"/>
<image xlink:href="../../images/foreignKeys.png" width="11px" height="12px" preserveAspectRatio="xMinYMin meet" x="285.5" y="-266"/>
<text text-anchor="start" x="300.5" y="-257.2" font-family="Helvetica,sans-Serif" font-size="11.00">fk_company</text>
<polygon fill="none" stroke="black" points="280.5,-227 280.5,-249 433.5,-249 433.5,-227 280.5,-227"/>
<image xlink:href="../../images/foreignKeys.png" width="11px" height="12px" preserveAspectRatio="xMinYMin meet" x="285.5" y="-244"/>
<text text-anchor="start" x="300.5" y="-235.2" font-family="Helvetica,sans-Serif" font-size="11.00">fk_sector</text>
<polygon fill="none" stroke="black" points="280.5,-205 280.5,-227 433.5,-227 433.5,-205 280.5,-205"/>
<image xlink:href="../../images/foreignKeys.png" width="11px" height="12px" preserveAspectRatio="xMinYMin meet" x="285.5" y="-222"/>
<text text-anchor="start" x="300.5" y="-213.2" font-family="Helvetica,sans-Serif" font-size="11.00">fk_cemetery</text>
<polygon fill="none" stroke="black" points="280.5,-183 280.5,-205 433.5,-205 433.5,-183 280.5,-183"/>
<image xlink:href="../../images/foreignKeys.png" width="11px" height="12px" preserveAspectRatio="xMinYMin meet" x="285.5" y="-200"/>
<text text-anchor="start" x="300.5" y="-191.2" font-family="Helvetica,sans-Serif" font-size="11.00">fk_size</text>
<polygon fill="none" stroke="black" points="280.5,-161 280.5,-183 433.5,-183 433.5,-161 280.5,-161"/>
<image xlink:href="../../images/foreignKeys.png" width="11px" height="12px" preserveAspectRatio="xMinYMin meet" x="285.5" y="-178"/>
<text text-anchor="start" x="300.5" y="-169.2" font-family="Helvetica,sans-Serif" font-size="11.00">fk_kind</text>
<polygon fill="none" stroke="black" points="280.5,-139 280.5,-161 433.5,-161 433.5,-139 280.5,-139"/>
<image xlink:href="../../images/foreignKeys.png" width="11px" height="12px" preserveAspectRatio="xMinYMin meet" x="285.5" y="-156"/>
<text text-anchor="start" x="300.5" y="-147.2" font-family="Helvetica,sans-Serif" font-size="11.00">fk_urn_material</text>
<polygon fill="none" stroke="black" points="280.5,-117 280.5,-139 433.5,-139 433.5,-117 280.5,-117"/>
<image xlink:href="../../images/foreignKeys.png" width="11px" height="12px" preserveAspectRatio="xMinYMin meet" x="285.5" y="-134"/>
<text text-anchor="start" x="300.5" y="-125.2" font-family="Helvetica,sans-Serif" font-size="11.00">fk_urn_shape</text>
<polygon fill="none" stroke="black" points="280.5,-95 280.5,-117 433.5,-117 433.5,-95 280.5,-95"/>
<image xlink:href="../../images/foreignKeys.png" width="11px" height="12px" preserveAspectRatio="xMinYMin meet" x="285.5" y="-112"/>
<text text-anchor="start" x="300.5" y="-103.2" font-family="Helvetica,sans-Serif" font-size="11.00">fk_contact_person</text>
<polygon fill="none" stroke="black" points="280.5,-73 280.5,-95 433.5,-95 433.5,-73 280.5,-73"/>
<image xlink:href="../../images/foreignKeys.png" width="11px" height="12px" preserveAspectRatio="xMinYMin meet" x="285.5" y="-90"/>
<text text-anchor="start" x="300.5" y="-81.2" font-family="Helvetica,sans-Serif" font-size="11.00">fk_control</text>
<polygon fill="none" stroke="black" points="280.5,-55 280.5,-73 433.5,-73 433.5,-55 280.5,-55"/>
<text text-anchor="start" x="283.5" y="-61.2" font-family="Helvetica,sans-Serif" font-size="11.00">...</text>
<polygon fill="#ffffff" stroke="transparent" points="280.5,-37 280.5,-55 433.5,-55 433.5,-37 280.5,-37"/>
<polygon fill="none" stroke="black" points="280.5,-37 280.5,-55 433.5,-55 433.5,-37 280.5,-37"/>
<polygon fill="#ffffff" stroke="transparent" points="281.5,-38 281.5,-54 336.5,-54 336.5,-38 281.5,-38"/>
<text text-anchor="start" x="283.5" y="-43.2" font-family="Helvetica,sans-Serif" font-size="11.00">&lt; 9</text>
<polygon fill="#ffffff" stroke="transparent" points="336.5,-38 336.5,-54 378.5,-54 378.5,-38 336.5,-38"/>
<text text-anchor="start" x="353.5" y="-43.2" font-family="Helvetica,sans-Serif" font-size="11.00"> &#160;</text>
<polygon fill="#ffffff" stroke="transparent" points="378.5,-38 378.5,-54 432.5,-54 432.5,-38 378.5,-38"/>
<text text-anchor="start" x="410.5" y="-43.2" font-family="Helvetica,sans-Serif" font-size="11.00">3 &gt;</text>
<polygon fill="black" stroke="black" points="336.5,-38 336.5,-54 336.5,-54 336.5,-38 336.5,-38"/>
<polygon fill="black" stroke="black" points="378.5,-38 378.5,-54 378.5,-54 378.5,-38 378.5,-38"/>
</a>
</g>
</g>
<!-- file&#45;&gt;unit -->
<g id="edge2" class="edge">
<title>file:w&#45;&gt;unit:e</title>
<path fill="none" stroke="black" d="M466.51,-308.84C456.18,-307.1 449.48,-304 434.5,-304"/>
<polygon fill="black" stroke="black" points="473.03,-309.36 480.71,-313.59 477.01,-309.68 481,-310 481,-310 481,-310 477.01,-309.68 481.29,-306.41 473.03,-309.36 473.03,-309.36"/>
<ellipse fill="none" stroke="black" cx="469.84" cy="-309.11" rx="3.2" ry="3.2"/>
</g>
<!-- unit&#45;&gt;organisation -->
<g id="edge3" class="edge">
<title>unit:w&#45;&gt;organisation:e</title>
<path fill="none" stroke="black" d="M265.68,-264.98C251.86,-277.62 255.54,-310 230.5,-310"/>
<polygon fill="black" stroke="black" points="271.97,-262.71 280.72,-263.39 275.74,-261.36 279.5,-260 279.5,-260 279.5,-260 275.74,-261.36 278.28,-256.61 271.97,-262.71 271.97,-262.71"/>
<ellipse fill="none" stroke="black" cx="268.96" cy="-263.8" rx="3.2" ry="3.2"/>
</g>
</g>
</svg>
