<?xml version="1.0" encoding="UTF-8" standalone="no"?>
<!DOCTYPE svg PUBLIC "-//W3C//DTD SVG 1.1//EN"
 "http://www.w3.org/Graphics/SVG/1.1/DTD/svg11.dtd">
<!-- Generated by graphviz version 2.43.0 (0)
 -->
<!-- Title: oneDegreeRelationshipsDiagram Pages: 1 -->
<svg width="659pt" height="542pt"
 viewBox="0.00 0.00 659.00 542.00" xmlns="http://www.w3.org/2000/svg" xmlns:xlink="http://www.w3.org/1999/xlink">
<g id="graph0" class="graph" transform="scale(1 1) rotate(0) translate(4 538)">
<title>oneDegreeRelationshipsDiagram</title>
<polygon fill="#ffffff" stroke="transparent" points="-4,4 -4,-538 655,-538 655,4 -4,4"/>
<text text-anchor="middle" x="79.5" y="-7.2" font-family="Helvetica,sans-Serif" font-size="11.00">Generated by SchemaSpy</text>
<!-- file -->
<g id="node1" class="node">
<title>file</title>
<g id="a_node1"><a xlink:href="../../tables/file.html" xlink:title="file" target="_top">
<polygon fill="#ffffff" stroke="transparent" points="503,-252 503,-530 643,-530 643,-252 503,-252"/>
<polygon fill="#f5f5f5" stroke="transparent" points="503,-508 503,-530 643,-530 643,-508 503,-508"/>
<polygon fill="none" stroke="black" points="503,-508 503,-530 643,-530 643,-508 503,-508"/>
<text text-anchor="start" x="507.5" y="-517.2" font-family="Helvetica,sans-Serif" font-weight="bold" font-size="11.00">file</text>
<text text-anchor="start" x="601" y="-516.2" font-family="Helvetica,sans-Serif" font-size="11.00">[table]</text>
<polygon fill="none" stroke="black" points="503,-486 503,-508 643,-508 643,-486 503,-486"/>
<image xlink:href="../../images/primaryKeys.png" width="11px" height="12px" preserveAspectRatio="xMinYMin meet" x="508" y="-503"/>
<text text-anchor="start" x="523" y="-494.2" font-family="Helvetica,sans-Serif" font-size="11.00">id</text>
<polygon fill="none" stroke="black" points="503,-464 503,-486 643,-486 643,-464 503,-464"/>
<image xlink:href="../../images/foreignKeys.png" width="11px" height="12px" preserveAspectRatio="xMinYMin meet" x="508" y="-481"/>
<text text-anchor="start" x="523" y="-472.2" font-family="Helvetica,sans-Serif" font-size="11.00">cemetery_ref</text>
<polygon fill="none" stroke="black" points="503,-442 503,-464 643,-464 643,-442 503,-442"/>
<image xlink:href="../../images/foreignKeys.png" width="11px" height="12px" preserveAspectRatio="xMinYMin meet" x="508" y="-459"/>
<text text-anchor="start" x="523" y="-450.2" font-family="Helvetica,sans-Serif" font-size="11.00">contact_ref</text>
<polygon fill="none" stroke="black" points="503,-420 503,-442 643,-442 643,-420 503,-420"/>
<image xlink:href="../../images/foreignKeys.png" width="11px" height="12px" preserveAspectRatio="xMinYMin meet" x="508" y="-437"/>
<text text-anchor="start" x="523" y="-428.2" font-family="Helvetica,sans-Serif" font-size="11.00">contract_ref</text>
<polygon fill="none" stroke="black" points="503,-398 503,-420 643,-420 643,-398 503,-398"/>
<image xlink:href="../../images/foreignKeys.png" width="11px" height="12px" preserveAspectRatio="xMinYMin meet" x="508" y="-415"/>
<text text-anchor="start" x="523" y="-406.2" font-family="Helvetica,sans-Serif" font-size="11.00">deceased_ref</text>
<polygon fill="none" stroke="black" points="503,-376 503,-398 643,-398 643,-376 503,-376"/>
<image xlink:href="../../images/foreignKeys.png" width="11px" height="12px" preserveAspectRatio="xMinYMin meet" x="508" y="-393"/>
<text text-anchor="start" x="523" y="-384.2" font-family="Helvetica,sans-Serif" font-size="11.00">furniture_ref</text>
<polygon fill="none" stroke="black" points="503,-354 503,-376 643,-376 643,-354 503,-354"/>
<image xlink:href="../../images/foreignKeys.png" width="11px" height="12px" preserveAspectRatio="xMinYMin meet" x="508" y="-371"/>
<text text-anchor="start" x="523" y="-362.2" font-family="Helvetica,sans-Serif" font-size="11.00">organisation_ref</text>
<polygon fill="none" stroke="black" points="503,-332 503,-354 643,-354 643,-332 503,-332"/>
<image xlink:href="../../images/foreignKeys.png" width="11px" height="12px" preserveAspectRatio="xMinYMin meet" x="508" y="-349"/>
<text text-anchor="start" x="523" y="-340.2" font-family="Helvetica,sans-Serif" font-size="11.00">sector_ref</text>
<polygon fill="none" stroke="black" points="503,-310 503,-332 643,-332 643,-310 503,-310"/>
<image xlink:href="../../images/foreignKeys.png" width="11px" height="12px" preserveAspectRatio="xMinYMin meet" x="508" y="-327"/>
<text text-anchor="start" x="523" y="-318.2" font-family="Helvetica,sans-Serif" font-size="11.00">unit_ref</text>
<polygon fill="none" stroke="black" points="503,-288 503,-310 643,-310 643,-288 503,-288"/>
<image xlink:href="../../images/foreignKeys.png" width="11px" height="12px" preserveAspectRatio="xMinYMin meet" x="508" y="-305"/>
<text text-anchor="start" x="523" y="-296.2" font-family="Helvetica,sans-Serif" font-size="11.00">vegetation_ref</text>
<polygon fill="none" stroke="black" points="503,-270 503,-288 643,-288 643,-270 503,-270"/>
<text text-anchor="start" x="506" y="-276.2" font-family="Helvetica,sans-Serif" font-size="11.00">...</text>
<polygon fill="#ffffff" stroke="transparent" points="503,-252 503,-270 643,-270 643,-252 503,-252"/>
<polygon fill="none" stroke="black" points="503,-252 503,-270 643,-270 643,-252 503,-252"/>
<polygon fill="#ffffff" stroke="transparent" points="504,-253 504,-269 558,-269 558,-253 504,-253"/>
<text text-anchor="start" x="506" y="-258.2" font-family="Helvetica,sans-Serif" font-size="11.00">&lt; 9</text>
<polygon fill="#ffffff" stroke="transparent" points="558,-253 558,-269 600,-269 600,-253 558,-253"/>
<text text-anchor="start" x="575" y="-258.2" font-family="Helvetica,sans-Serif" font-size="11.00"> &#160;</text>
<polygon fill="#ffffff" stroke="transparent" points="600,-253 600,-269 642,-269 642,-253 600,-253"/>
<text text-anchor="start" x="632" y="-258.2" font-family="Helvetica,sans-Serif" font-size="11.00"> &#160;</text>
<polygon fill="black" stroke="black" points="558,-253 558,-269 558,-269 558,-253 558,-253"/>
<polygon fill="black" stroke="black" points="600,-253 600,-269 600,-269 600,-253 600,-253"/>
</a>
</g>
</g>
<!-- sector -->
<g id="node2" class="node">
<title>sector</title>
<g id="a_node2"><a xlink:href="../../tables/sector.html" xlink:title="sector" target="_top">
<polygon fill="#ffffff" stroke="transparent" points="8,-158 8,-334 252,-334 252,-158 8,-158"/>
<polygon fill="#f5f5f5" stroke="transparent" points="10,-310 10,-332 250,-332 250,-310 10,-310"/>
<polygon fill="none" stroke="black" points="10,-310 10,-332 250,-332 250,-310 10,-310"/>
<text text-anchor="start" x="15" y="-319.2" font-family="Helvetica,sans-Serif" font-weight="bold" font-size="11.00">sector</text>
<text text-anchor="start" x="208" y="-318.2" font-family="Helvetica,sans-Serif" font-size="11.00">[table]</text>
<polygon fill="none" stroke="black" points="10,-288 10,-310 114,-310 114,-288 10,-288"/>
<image xlink:href="../../images/primaryKeys.png" width="11px" height="12px" preserveAspectRatio="xMinYMin meet" x="15" y="-305"/>
<text text-anchor="start" x="30" y="-296.2" font-family="Helvetica,sans-Serif" font-size="11.00">id</text>
<polygon fill="none" stroke="black" points="114,-288 114,-310 250,-310 250,-288 114,-288"/>
<text text-anchor="start" x="117" y="-296.2" font-family="Helvetica,sans-Serif" font-size="11.00">uuid[2147483647]</text>
<polygon fill="none" stroke="black" points="10,-266 10,-288 114,-288 114,-266 10,-266"/>
<text text-anchor="start" x="30" y="-274.2" font-family="Helvetica,sans-Serif" font-size="11.00">ident_short</text>
<polygon fill="none" stroke="black" points="114,-266 114,-288 250,-288 250,-266 114,-266"/>
<text text-anchor="start" x="117" y="-274.2" font-family="Helvetica,sans-Serif" font-size="11.00">varchar[10]</text>
<polygon fill="none" stroke="black" points="10,-244 10,-266 114,-266 114,-244 10,-244"/>
<text text-anchor="start" x="30" y="-252.2" font-family="Helvetica,sans-Serif" font-size="11.00">identifier</text>
<polygon fill="none" stroke="black" points="114,-244 114,-266 250,-266 250,-244 114,-244"/>
<text text-anchor="start" x="117" y="-252.2" font-family="Helvetica,sans-Serif" font-size="11.00">text[2147483647]</text>
<polygon fill="none" stroke="black" points="10,-222 10,-244 114,-244 114,-222 10,-222"/>
<text text-anchor="start" x="30" y="-230.2" font-family="Helvetica,sans-Serif" font-size="11.00">remark</text>
<polygon fill="none" stroke="black" points="114,-222 114,-244 250,-244 250,-222 114,-222"/>
<text text-anchor="start" x="117" y="-230.2" font-family="Helvetica,sans-Serif" font-size="11.00">text[2147483647]</text>
<polygon fill="none" stroke="black" points="10,-200 10,-222 114,-222 114,-200 10,-200"/>
<text text-anchor="start" x="30" y="-208.2" font-family="Helvetica,sans-Serif" font-size="11.00">the_geom</text>
<polygon fill="none" stroke="black" points="114,-200 114,-222 250,-222 250,-200 114,-200"/>
<text text-anchor="start" x="117" y="-208.2" font-family="Helvetica,sans-Serif" font-size="11.00">geometry[2147483647]</text>
<polygon fill="none" stroke="black" points="10,-178 10,-200 114,-200 114,-178 10,-178"/>
<text text-anchor="start" x="30" y="-186.2" font-family="Helvetica,sans-Serif" font-size="11.00">display_txt</text>
<polygon fill="none" stroke="black" points="114,-178 114,-200 250,-200 250,-178 114,-178"/>
<text text-anchor="start" x="117" y="-186.2" font-family="Helvetica,sans-Serif" font-size="11.00">text[2147483647]</text>
<polygon fill="#ffffff" stroke="transparent" points="10,-160 10,-178 250,-178 250,-160 10,-160"/>
<polygon fill="none" stroke="black" points="10,-160 10,-178 250,-178 250,-160 10,-160"/>
<polygon fill="#ffffff" stroke="transparent" points="11,-161 11,-177 95,-177 95,-161 11,-161"/>
<text text-anchor="start" x="13" y="-166.2" font-family="Helvetica,sans-Serif" font-size="11.00">&lt; 0</text>
<polygon fill="#ffffff" stroke="transparent" points="95,-161 95,-177 166,-177 166,-161 95,-161"/>
<text text-anchor="start" x="126.5" y="-166.2" font-family="Helvetica,sans-Serif" font-size="11.00"> &#160;</text>
<polygon fill="#ffffff" stroke="transparent" points="166,-161 166,-177 249,-177 249,-161 166,-161"/>
<text text-anchor="start" x="227" y="-166.2" font-family="Helvetica,sans-Serif" font-size="11.00">2 &gt;</text>
<polygon fill="black" stroke="black" points="95,-161 95,-177 95,-177 95,-161 95,-161"/>
<polygon fill="black" stroke="black" points="166,-161 166,-177 166,-177 166,-161 166,-161"/>
<polygon fill="none" stroke="black" stroke-width="2" points="9,-159 9,-333 251,-333 251,-159 9,-159"/>
</a>
</g>
</g>
<!-- file&#45;&gt;sector -->
<g id="edge1" class="edge">
<title>file:w&#45;&gt;sector:e</title>
<path fill="none" stroke="black" d="M487.55,-344.06C479.72,-345.3 473.87,-347.26 462,-348 387.03,-352.67 361.24,-379.39 293,-348 266.94,-336.01 279.68,-299 251,-299"/>
<polygon fill="black" stroke="black" points="494.02,-343.59 502.26,-346.59 498.01,-343.29 502,-343 502,-343 502,-343 498.01,-343.29 501.74,-339.41 494.02,-343.59 494.02,-343.59"/>
<ellipse fill="none" stroke="black" cx="490.83" cy="-343.82" rx="3.2" ry="3.2"/>
</g>
<!-- unit -->
<g id="node3" class="node">
<title>unit</title>
<g id="a_node3"><a xlink:href="../../tables/unit.html" xlink:title="unit" target="_top">
<polygon fill="#ffffff" stroke="transparent" points="301,-37 301,-337 454,-337 454,-37 301,-37"/>
<polygon fill="#f5f5f5" stroke="transparent" points="301.5,-315 301.5,-337 454.5,-337 454.5,-315 301.5,-315"/>
<polygon fill="none" stroke="black" points="301.5,-315 301.5,-337 454.5,-337 454.5,-315 301.5,-315"/>
<text text-anchor="start" x="306.5" y="-324.2" font-family="Helvetica,sans-Serif" font-weight="bold" font-size="11.00">unit</text>
<text text-anchor="start" x="412.5" y="-323.2" font-family="Helvetica,sans-Serif" font-size="11.00">[table]</text>
<polygon fill="none" stroke="black" points="301.5,-293 301.5,-315 454.5,-315 454.5,-293 301.5,-293"/>
<image xlink:href="../../images/primaryKeys.png" width="11px" height="12px" preserveAspectRatio="xMinYMin meet" x="306.5" y="-310"/>
<text text-anchor="start" x="321.5" y="-301.2" font-family="Helvetica,sans-Serif" font-size="11.00">id</text>
<polygon fill="#ffffff" stroke="transparent" points="301.5,-271 301.5,-293 454.5,-293 454.5,-271 301.5,-271"/>
<polygon fill="none" stroke="black" points="301.5,-271 301.5,-293 454.5,-293 454.5,-271 301.5,-271"/>
<text text-anchor="start" x="321.5" y="-279.2" font-family="Helvetica,sans-Serif" font-size="11.00">identifier</text>
<polygon fill="none" stroke="black" points="301.5,-249 301.5,-271 454.5,-271 454.5,-249 301.5,-249"/>
<image xlink:href="../../images/foreignKeys.png" width="11px" height="12px" preserveAspectRatio="xMinYMin meet" x="306.5" y="-266"/>
<text text-anchor="start" x="321.5" y="-257.2" font-family="Helvetica,sans-Serif" font-size="11.00">fk_company</text>
<polygon fill="none" stroke="black" points="301.5,-227 301.5,-249 454.5,-249 454.5,-227 301.5,-227"/>
<image xlink:href="../../images/foreignKeys.png" width="11px" height="12px" preserveAspectRatio="xMinYMin meet" x="306.5" y="-244"/>
<text text-anchor="start" x="321.5" y="-235.2" font-family="Helvetica,sans-Serif" font-size="11.00">fk_sector</text>
<polygon fill="none" stroke="black" points="301.5,-205 301.5,-227 454.5,-227 454.5,-205 301.5,-205"/>
<image xlink:href="../../images/foreignKeys.png" width="11px" height="12px" preserveAspectRatio="xMinYMin meet" x="306.5" y="-222"/>
<text text-anchor="start" x="321.5" y="-213.2" font-family="Helvetica,sans-Serif" font-size="11.00">fk_cemetery</text>
<polygon fill="none" stroke="black" points="301.5,-183 301.5,-205 454.5,-205 454.5,-183 301.5,-183"/>
<image xlink:href="../../images/foreignKeys.png" width="11px" height="12px" preserveAspectRatio="xMinYMin meet" x="306.5" y="-200"/>
<text text-anchor="start" x="321.5" y="-191.2" font-family="Helvetica,sans-Serif" font-size="11.00">fk_size</text>
<polygon fill="none" stroke="black" points="301.5,-161 301.5,-183 454.5,-183 454.5,-161 301.5,-161"/>
<image xlink:href="../../images/foreignKeys.png" width="11px" height="12px" preserveAspectRatio="xMinYMin meet" x="306.5" y="-178"/>
<text text-anchor="start" x="321.5" y="-169.2" font-family="Helvetica,sans-Serif" font-size="11.00">fk_kind</text>
<polygon fill="none" stroke="black" points="301.5,-139 301.5,-161 454.5,-161 454.5,-139 301.5,-139"/>
<image xlink:href="../../images/foreignKeys.png" width="11px" height="12px" preserveAspectRatio="xMinYMin meet" x="306.5" y="-156"/>
<text text-anchor="start" x="321.5" y="-147.2" font-family="Helvetica,sans-Serif" font-size="11.00">fk_urn_material</text>
<polygon fill="none" stroke="black" points="301.5,-117 301.5,-139 454.5,-139 454.5,-117 301.5,-117"/>
<image xlink:href="../../images/foreignKeys.png" width="11px" height="12px" preserveAspectRatio="xMinYMin meet" x="306.5" y="-134"/>
<text text-anchor="start" x="321.5" y="-125.2" font-family="Helvetica,sans-Serif" font-size="11.00">fk_urn_shape</text>
<polygon fill="none" stroke="black" points="301.5,-95 301.5,-117 454.5,-117 454.5,-95 301.5,-95"/>
<image xlink:href="../../images/foreignKeys.png" width="11px" height="12px" preserveAspectRatio="xMinYMin meet" x="306.5" y="-112"/>
<text text-anchor="start" x="321.5" y="-103.2" font-family="Helvetica,sans-Serif" font-size="11.00">fk_contact_person</text>
<polygon fill="none" stroke="black" points="301.5,-73 301.5,-95 454.5,-95 454.5,-73 301.5,-73"/>
<image xlink:href="../../images/foreignKeys.png" width="11px" height="12px" preserveAspectRatio="xMinYMin meet" x="306.5" y="-90"/>
<text text-anchor="start" x="321.5" y="-81.2" font-family="Helvetica,sans-Serif" font-size="11.00">fk_control</text>
<polygon fill="none" stroke="black" points="301.5,-55 301.5,-73 454.5,-73 454.5,-55 301.5,-55"/>
<text text-anchor="start" x="304.5" y="-61.2" font-family="Helvetica,sans-Serif" font-size="11.00">...</text>
<polygon fill="#ffffff" stroke="transparent" points="301.5,-37 301.5,-55 454.5,-55 454.5,-37 301.5,-37"/>
<polygon fill="none" stroke="black" points="301.5,-37 301.5,-55 454.5,-55 454.5,-37 301.5,-37"/>
<polygon fill="#ffffff" stroke="transparent" points="302.5,-38 302.5,-54 357.5,-54 357.5,-38 302.5,-38"/>
<text text-anchor="start" x="304.5" y="-43.2" font-family="Helvetica,sans-Serif" font-size="11.00">&lt; 9</text>
<polygon fill="#ffffff" stroke="transparent" points="357.5,-38 357.5,-54 399.5,-54 399.5,-38 357.5,-38"/>
<text text-anchor="start" x="374.5" y="-43.2" font-family="Helvetica,sans-Serif" font-size="11.00"> &#160;</text>
<polygon fill="#ffffff" stroke="transparent" points="399.5,-38 399.5,-54 453.5,-54 453.5,-38 399.5,-38"/>
<text text-anchor="start" x="431.5" y="-43.2" font-family="Helvetica,sans-Serif" font-size="11.00">3 &gt;</text>
<polygon fill="black" stroke="black" points="357.5,-38 357.5,-54 357.5,-54 357.5,-38 357.5,-38"/>
<polygon fill="black" stroke="black" points="399.5,-38 399.5,-54 399.5,-54 399.5,-38 399.5,-38"/>
</a>
</g>
</g>
<!-- file&#45;&gt;unit -->
<g id="edge2" class="edge">
<title>file:w&#45;&gt;unit:e</title>
<path fill="none" stroke="black" d="M487.86,-318.04C477.3,-313.17 471.66,-304 455.5,-304"/>
<polygon fill="black" stroke="black" points="494.17,-319.36 501.26,-324.52 498.08,-320.18 502,-321 502,-321 502,-321 498.08,-320.18 502.74,-317.48 494.17,-319.36 494.17,-319.36"/>
<ellipse fill="none" stroke="black" cx="491.04" cy="-318.7" rx="3.2" ry="3.2"/>
</g>
<!-- unit&#45;&gt;sector -->
<g id="edge3" class="edge">
<title>unit:w&#45;&gt;sector:e</title>
<path fill="none" stroke="black" d="M286.83,-242.79C270.94,-257.17 279.91,-299 251,-299"/>
<polygon fill="black" stroke="black" points="292.95,-240.64 301.69,-241.4 296.72,-239.32 300.5,-238 300.5,-238 300.5,-238 296.72,-239.32 299.31,-234.6 292.95,-240.64 292.95,-240.64"/>
<ellipse fill="none" stroke="black" cx="289.93" cy="-241.7" rx="3.2" ry="3.2"/>
</g>
</g>
</svg>
