<?xml version="1.0" encoding="UTF-8" standalone="no"?>
<!DOCTYPE svg PUBLIC "-//W3C//DTD SVG 1.1//EN"
 "http://www.w3.org/Graphics/SVG/1.1/DTD/svg11.dtd">
<!-- Generated by graphviz version 2.43.0 (0)
 -->
<!-- Title: oneDegreeRelationshipsDiagram Pages: 1 -->
<svg width="819pt" height="871pt"
 viewBox="0.00 0.00 819.00 871.00" xmlns="http://www.w3.org/2000/svg" xmlns:xlink="http://www.w3.org/1999/xlink">
<g id="graph0" class="graph" transform="scale(1 1) rotate(0) translate(4 867)">
<title>oneDegreeRelationshipsDiagram</title>
<polygon fill="#ffffff" stroke="transparent" points="-4,4 -4,-867 815,-867 815,4 -4,4"/>
<text text-anchor="middle" x="79.5" y="-7.2" font-family="Helvetica,sans-Serif" font-size="11.00">Generated by SchemaSpy</text>
<!-- contract -->
<g id="node1" class="node">
<title>contract</title>
<g id="a_node1"><a xlink:href="../../tables/contract.html" xlink:title="contract" target="_top">
<polygon fill="#ffffff" stroke="transparent" points="614.5,-562 614.5,-708 773.5,-708 773.5,-562 614.5,-562"/>
<polygon fill="#f5f5f5" stroke="transparent" points="615,-686 615,-708 774,-708 774,-686 615,-686"/>
<polygon fill="none" stroke="black" points="615,-686 615,-708 774,-708 774,-686 615,-686"/>
<text text-anchor="start" x="620" y="-695.2" font-family="Helvetica,sans-Serif" font-weight="bold" font-size="11.00">contract</text>
<text text-anchor="start" x="732" y="-694.2" font-family="Helvetica,sans-Serif" font-size="11.00">[table]</text>
<polygon fill="none" stroke="black" points="615,-664 615,-686 774,-686 774,-664 615,-664"/>
<image xlink:href="../../images/primaryKeys.png" width="11px" height="12px" preserveAspectRatio="xMinYMin meet" x="620" y="-681"/>
<text text-anchor="start" x="635" y="-672.2" font-family="Helvetica,sans-Serif" font-size="11.00">id</text>
<polygon fill="none" stroke="black" points="615,-642 615,-664 774,-664 774,-642 615,-642"/>
<image xlink:href="../../images/foreignKeys.png" width="11px" height="12px" preserveAspectRatio="xMinYMin meet" x="620" y="-659"/>
<text text-anchor="start" x="635" y="-650.2" font-family="Helvetica,sans-Serif" font-size="11.00">fk_kind</text>
<polygon fill="none" stroke="black" points="615,-620 615,-642 774,-642 774,-620 615,-620"/>
<image xlink:href="../../images/foreignKeys.png" width="11px" height="12px" preserveAspectRatio="xMinYMin meet" x="620" y="-637"/>
<text text-anchor="start" x="635" y="-628.2" font-family="Helvetica,sans-Serif" font-size="11.00">fk_contract_person</text>
<polygon fill="none" stroke="black" points="615,-598 615,-620 774,-620 774,-598 615,-598"/>
<image xlink:href="../../images/foreignKeys.png" width="11px" height="12px" preserveAspectRatio="xMinYMin meet" x="620" y="-615"/>
<text text-anchor="start" x="635" y="-606.2" font-family="Helvetica,sans-Serif" font-size="11.00">fk_unit</text>
<polygon fill="none" stroke="black" points="615,-580 615,-598 774,-598 774,-580 615,-580"/>
<text text-anchor="start" x="618" y="-586.2" font-family="Helvetica,sans-Serif" font-size="11.00">...</text>
<polygon fill="#ffffff" stroke="transparent" points="615,-562 615,-580 774,-580 774,-562 615,-562"/>
<polygon fill="none" stroke="black" points="615,-562 615,-580 774,-580 774,-562 615,-562"/>
<polygon fill="#ffffff" stroke="transparent" points="616,-563 616,-579 677,-579 677,-563 616,-563"/>
<text text-anchor="start" x="618" y="-568.2" font-family="Helvetica,sans-Serif" font-size="11.00">&lt; 3</text>
<polygon fill="#ffffff" stroke="transparent" points="677,-563 677,-579 725,-579 725,-563 677,-563"/>
<text text-anchor="start" x="697" y="-568.2" font-family="Helvetica,sans-Serif" font-size="11.00"> &#160;</text>
<polygon fill="#ffffff" stroke="transparent" points="725,-563 725,-579 773,-579 773,-563 725,-563"/>
<text text-anchor="start" x="763" y="-568.2" font-family="Helvetica,sans-Serif" font-size="11.00"> &#160;</text>
<polygon fill="black" stroke="black" points="677,-563 677,-579 677,-579 677,-563 677,-563"/>
<polygon fill="black" stroke="black" points="725,-563 725,-579 725,-579 725,-563 725,-563"/>
</a>
</g>
</g>
<!-- contact -->
<g id="node2" class="node">
<title>contact</title>
<g id="a_node2"><a xlink:href="../../tables/contact.html" xlink:title="contact" target="_top">
<polygon fill="#ffffff" stroke="transparent" points="15,-533 15,-657 187,-657 187,-533 15,-533"/>
<polygon fill="#f5f5f5" stroke="transparent" points="15,-635 15,-657 187,-657 187,-635 15,-635"/>
<polygon fill="none" stroke="black" points="15,-635 15,-657 187,-657 187,-635 15,-635"/>
<text text-anchor="start" x="20" y="-644.2" font-family="Helvetica,sans-Serif" font-weight="bold" font-size="11.00">contact</text>
<text text-anchor="start" x="145" y="-643.2" font-family="Helvetica,sans-Serif" font-size="11.00">[table]</text>
<polygon fill="none" stroke="black" points="15,-613 15,-635 187,-635 187,-613 15,-613"/>
<image xlink:href="../../images/primaryKeys.png" width="11px" height="12px" preserveAspectRatio="xMinYMin meet" x="20" y="-630"/>
<text text-anchor="start" x="35" y="-621.2" font-family="Helvetica,sans-Serif" font-size="11.00">id</text>
<polygon fill="none" stroke="black" points="15,-591 15,-613 187,-613 187,-591 15,-591"/>
<image xlink:href="../../images/foreignKeys.png" width="11px" height="12px" preserveAspectRatio="xMinYMin meet" x="20" y="-608"/>
<text text-anchor="start" x="35" y="-599.2" font-family="Helvetica,sans-Serif" font-size="11.00">fk_kind</text>
<polygon fill="none" stroke="black" points="15,-569 15,-591 187,-591 187,-569 15,-569"/>
<image xlink:href="../../images/foreignKeys.png" width="11px" height="12px" preserveAspectRatio="xMinYMin meet" x="20" y="-586"/>
<text text-anchor="start" x="35" y="-577.2" font-family="Helvetica,sans-Serif" font-size="11.00">fk_civility</text>
<polygon fill="none" stroke="black" points="15,-551 15,-569 187,-569 187,-551 15,-551"/>
<text text-anchor="start" x="18" y="-557.2" font-family="Helvetica,sans-Serif" font-size="11.00">...</text>
<polygon fill="#ffffff" stroke="transparent" points="15,-533 15,-551 187,-551 187,-533 15,-533"/>
<polygon fill="none" stroke="black" points="15,-533 15,-551 187,-551 187,-533 15,-533"/>
<polygon fill="#ffffff" stroke="transparent" points="16,-534 16,-550 77,-550 77,-534 16,-534"/>
<text text-anchor="start" x="18" y="-539.2" font-family="Helvetica,sans-Serif" font-size="11.00">&lt; 2</text>
<polygon fill="#ffffff" stroke="transparent" points="77,-534 77,-550 126,-550 126,-534 77,-534"/>
<text text-anchor="start" x="97.5" y="-539.2" font-family="Helvetica,sans-Serif" font-size="11.00"> &#160;</text>
<polygon fill="#ffffff" stroke="transparent" points="126,-534 126,-550 186,-550 186,-534 126,-534"/>
<text text-anchor="start" x="164" y="-539.2" font-family="Helvetica,sans-Serif" font-size="11.00">2 &gt;</text>
<polygon fill="black" stroke="black" points="77,-534 77,-550 77,-550 77,-534 77,-534"/>
<polygon fill="black" stroke="black" points="126,-534 126,-550 126,-550 126,-534 126,-534"/>
</a>
</g>
</g>
<!-- contract&#45;&gt;contact -->
<g id="edge1" class="edge">
<title>contract:w&#45;&gt;contact:e</title>
<path fill="none" stroke="black" d="M599.58,-630.99C422.1,-630.64 372.46,-624 188,-624"/>
<polygon fill="black" stroke="black" points="606,-630.99 614,-634.6 610,-631 614,-631 614,-631 614,-631 610,-631 614,-627.4 606,-630.99 606,-630.99"/>
<ellipse fill="none" stroke="black" cx="602.8" cy="-630.99" rx="3.2" ry="3.2"/>
</g>
<!-- unit -->
<g id="node3" class="node">
<title>unit</title>
<g id="a_node3"><a xlink:href="../../tables/unit.html" xlink:title="unit" target="_top">
<polygon fill="#ffffff" stroke="transparent" points="243,-145 243,-607 536,-607 536,-145 243,-145"/>
<polygon fill="#f5f5f5" stroke="transparent" points="245.5,-583 245.5,-605 534.5,-605 534.5,-583 245.5,-583"/>
<polygon fill="none" stroke="black" points="245.5,-583 245.5,-605 534.5,-605 534.5,-583 245.5,-583"/>
<text text-anchor="start" x="250.5" y="-592.2" font-family="Helvetica,sans-Serif" font-weight="bold" font-size="11.00">unit</text>
<text text-anchor="start" x="492.5" y="-591.2" font-family="Helvetica,sans-Serif" font-size="11.00">[table]</text>
<polygon fill="none" stroke="black" points="245.5,-561 245.5,-583 398.5,-583 398.5,-561 245.5,-561"/>
<image xlink:href="../../images/primaryKeys.png" width="11px" height="12px" preserveAspectRatio="xMinYMin meet" x="250.5" y="-578"/>
<text text-anchor="start" x="265.5" y="-569.2" font-family="Helvetica,sans-Serif" font-size="11.00">id</text>
<polygon fill="none" stroke="black" points="398.5,-561 398.5,-583 534.5,-583 534.5,-561 398.5,-561"/>
<text text-anchor="start" x="401.5" y="-569.2" font-family="Helvetica,sans-Serif" font-size="11.00">uuid[2147483647]</text>
<polygon fill="none" stroke="black" points="245.5,-539 245.5,-561 398.5,-561 398.5,-539 245.5,-539"/>
<text text-anchor="start" x="265.5" y="-547.2" font-family="Helvetica,sans-Serif" font-size="11.00">ident_short</text>
<polygon fill="none" stroke="black" points="398.5,-539 398.5,-561 534.5,-561 534.5,-539 398.5,-539"/>
<text text-anchor="start" x="401.5" y="-547.2" font-family="Helvetica,sans-Serif" font-size="11.00">varchar[10]</text>
<polygon fill="none" stroke="black" points="245.5,-517 245.5,-539 398.5,-539 398.5,-517 245.5,-517"/>
<text text-anchor="start" x="265.5" y="-525.2" font-family="Helvetica,sans-Serif" font-size="11.00">identifier</text>
<polygon fill="none" stroke="black" points="398.5,-517 398.5,-539 534.5,-539 534.5,-517 398.5,-517"/>
<text text-anchor="start" x="401.5" y="-525.2" font-family="Helvetica,sans-Serif" font-size="11.00">text[2147483647]</text>
<polygon fill="none" stroke="black" points="245.5,-495 245.5,-517 398.5,-517 398.5,-495 245.5,-495"/>
<text text-anchor="start" x="265.5" y="-503.2" font-family="Helvetica,sans-Serif" font-size="11.00">excavation_date</text>
<polygon fill="none" stroke="black" points="398.5,-495 398.5,-517 534.5,-517 534.5,-495 398.5,-495"/>
<text text-anchor="start" x="401.5" y="-503.2" font-family="Helvetica,sans-Serif" font-size="11.00">date[13]</text>
<polygon fill="none" stroke="black" points="245.5,-473 245.5,-495 398.5,-495 398.5,-473 245.5,-473"/>
<text text-anchor="start" x="265.5" y="-481.2" font-family="Helvetica,sans-Serif" font-size="11.00">begin_date</text>
<polygon fill="none" stroke="black" points="398.5,-473 398.5,-495 534.5,-495 534.5,-473 398.5,-473"/>
<text text-anchor="start" x="401.5" y="-481.2" font-family="Helvetica,sans-Serif" font-size="11.00">date[13]</text>
<polygon fill="none" stroke="black" points="245.5,-451 245.5,-473 398.5,-473 398.5,-451 245.5,-451"/>
<text text-anchor="start" x="265.5" y="-459.2" font-family="Helvetica,sans-Serif" font-size="11.00">end_date</text>
<polygon fill="none" stroke="black" points="398.5,-451 398.5,-473 534.5,-473 534.5,-451 398.5,-451"/>
<text text-anchor="start" x="401.5" y="-459.2" font-family="Helvetica,sans-Serif" font-size="11.00">date[13]</text>
<polygon fill="none" stroke="black" points="245.5,-429 245.5,-451 398.5,-451 398.5,-429 245.5,-429"/>
<image xlink:href="../../images/foreignKeys.png" width="11px" height="12px" preserveAspectRatio="xMinYMin meet" x="250.5" y="-446"/>
<text text-anchor="start" x="265.5" y="-437.2" font-family="Helvetica,sans-Serif" font-size="11.00">fk_company</text>
<polygon fill="none" stroke="black" points="398.5,-429 398.5,-451 534.5,-451 534.5,-429 398.5,-429"/>
<text text-anchor="start" x="401.5" y="-437.2" font-family="Helvetica,sans-Serif" font-size="11.00">uuid[2147483647]</text>
<polygon fill="none" stroke="black" points="245.5,-407 245.5,-429 398.5,-429 398.5,-407 245.5,-407"/>
<image xlink:href="../../images/foreignKeys.png" width="11px" height="12px" preserveAspectRatio="xMinYMin meet" x="250.5" y="-424"/>
<text text-anchor="start" x="265.5" y="-415.2" font-family="Helvetica,sans-Serif" font-size="11.00">fk_sector</text>
<polygon fill="none" stroke="black" points="398.5,-407 398.5,-429 534.5,-429 534.5,-407 398.5,-407"/>
<text text-anchor="start" x="401.5" y="-415.2" font-family="Helvetica,sans-Serif" font-size="11.00">uuid[2147483647]</text>
<polygon fill="none" stroke="black" points="245.5,-385 245.5,-407 398.5,-407 398.5,-385 245.5,-385"/>
<image xlink:href="../../images/foreignKeys.png" width="11px" height="12px" preserveAspectRatio="xMinYMin meet" x="250.5" y="-402"/>
<text text-anchor="start" x="265.5" y="-393.2" font-family="Helvetica,sans-Serif" font-size="11.00">fk_cemetery</text>
<polygon fill="none" stroke="black" points="398.5,-385 398.5,-407 534.5,-407 534.5,-385 398.5,-385"/>
<text text-anchor="start" x="401.5" y="-393.2" font-family="Helvetica,sans-Serif" font-size="11.00">uuid[2147483647]</text>
<polygon fill="none" stroke="black" points="245.5,-363 245.5,-385 398.5,-385 398.5,-363 245.5,-363"/>
<image xlink:href="../../images/foreignKeys.png" width="11px" height="12px" preserveAspectRatio="xMinYMin meet" x="250.5" y="-380"/>
<text text-anchor="start" x="265.5" y="-371.2" font-family="Helvetica,sans-Serif" font-size="11.00">fk_size</text>
<polygon fill="none" stroke="black" points="398.5,-363 398.5,-385 534.5,-385 534.5,-363 398.5,-363"/>
<text text-anchor="start" x="401.5" y="-371.2" font-family="Helvetica,sans-Serif" font-size="11.00">int4[10]</text>
<polygon fill="none" stroke="black" points="245.5,-341 245.5,-363 398.5,-363 398.5,-341 245.5,-341"/>
<image xlink:href="../../images/foreignKeys.png" width="11px" height="12px" preserveAspectRatio="xMinYMin meet" x="250.5" y="-358"/>
<text text-anchor="start" x="265.5" y="-349.2" font-family="Helvetica,sans-Serif" font-size="11.00">fk_kind</text>
<polygon fill="none" stroke="black" points="398.5,-341 398.5,-363 534.5,-363 534.5,-341 398.5,-341"/>
<text text-anchor="start" x="401.5" y="-349.2" font-family="Helvetica,sans-Serif" font-size="11.00">int4[10]</text>
<polygon fill="none" stroke="black" points="245.5,-319 245.5,-341 398.5,-341 398.5,-319 245.5,-319"/>
<image xlink:href="../../images/foreignKeys.png" width="11px" height="12px" preserveAspectRatio="xMinYMin meet" x="250.5" y="-336"/>
<text text-anchor="start" x="265.5" y="-327.2" font-family="Helvetica,sans-Serif" font-size="11.00">fk_urn_material</text>
<polygon fill="none" stroke="black" points="398.5,-319 398.5,-341 534.5,-341 534.5,-319 398.5,-319"/>
<text text-anchor="start" x="401.5" y="-327.2" font-family="Helvetica,sans-Serif" font-size="11.00">int4[10]</text>
<polygon fill="none" stroke="black" points="245.5,-297 245.5,-319 398.5,-319 398.5,-297 245.5,-297"/>
<image xlink:href="../../images/foreignKeys.png" width="11px" height="12px" preserveAspectRatio="xMinYMin meet" x="250.5" y="-314"/>
<text text-anchor="start" x="265.5" y="-305.2" font-family="Helvetica,sans-Serif" font-size="11.00">fk_urn_shape</text>
<polygon fill="none" stroke="black" points="398.5,-297 398.5,-319 534.5,-319 534.5,-297 398.5,-297"/>
<text text-anchor="start" x="401.5" y="-305.2" font-family="Helvetica,sans-Serif" font-size="11.00">int4[10]</text>
<polygon fill="none" stroke="black" points="245.5,-275 245.5,-297 398.5,-297 398.5,-275 245.5,-275"/>
<image xlink:href="../../images/foreignKeys.png" width="11px" height="12px" preserveAspectRatio="xMinYMin meet" x="250.5" y="-292"/>
<text text-anchor="start" x="265.5" y="-283.2" font-family="Helvetica,sans-Serif" font-size="11.00">fk_contact_person</text>
<polygon fill="none" stroke="black" points="398.5,-275 398.5,-297 534.5,-297 534.5,-275 398.5,-275"/>
<text text-anchor="start" x="401.5" y="-283.2" font-family="Helvetica,sans-Serif" font-size="11.00">uuid[2147483647]</text>
<polygon fill="none" stroke="black" points="245.5,-253 245.5,-275 398.5,-275 398.5,-253 245.5,-253"/>
<text text-anchor="start" x="265.5" y="-261.2" font-family="Helvetica,sans-Serif" font-size="11.00">remark</text>
<polygon fill="none" stroke="black" points="398.5,-253 398.5,-275 534.5,-275 534.5,-253 398.5,-253"/>
<text text-anchor="start" x="401.5" y="-261.2" font-family="Helvetica,sans-Serif" font-size="11.00">text[2147483647]</text>
<polygon fill="none" stroke="black" points="245.5,-231 245.5,-253 398.5,-253 398.5,-231 245.5,-231"/>
<text text-anchor="start" x="265.5" y="-239.2" font-family="Helvetica,sans-Serif" font-size="11.00">disused</text>
<polygon fill="none" stroke="black" points="398.5,-231 398.5,-253 534.5,-253 534.5,-231 398.5,-231"/>
<text text-anchor="start" x="401.5" y="-239.2" font-family="Helvetica,sans-Serif" font-size="11.00">bool[1]</text>
<polygon fill="none" stroke="black" points="245.5,-209 245.5,-231 398.5,-231 398.5,-209 245.5,-209"/>
<text text-anchor="start" x="265.5" y="-217.2" font-family="Helvetica,sans-Serif" font-size="11.00">disused_date</text>
<polygon fill="none" stroke="black" points="398.5,-209 398.5,-231 534.5,-231 534.5,-209 398.5,-209"/>
<text text-anchor="start" x="401.5" y="-217.2" font-family="Helvetica,sans-Serif" font-size="11.00">date[13]</text>
<polygon fill="none" stroke="black" points="245.5,-187 245.5,-209 398.5,-209 398.5,-187 245.5,-187"/>
<image xlink:href="../../images/foreignKeys.png" width="11px" height="12px" preserveAspectRatio="xMinYMin meet" x="250.5" y="-204"/>
<text text-anchor="start" x="265.5" y="-195.2" font-family="Helvetica,sans-Serif" font-size="11.00">fk_control</text>
<polygon fill="none" stroke="black" points="398.5,-187 398.5,-209 534.5,-209 534.5,-187 398.5,-187"/>
<text text-anchor="start" x="401.5" y="-195.2" font-family="Helvetica,sans-Serif" font-size="11.00">int4[10]</text>
<polygon fill="none" stroke="black" points="245.5,-165 245.5,-187 398.5,-187 398.5,-165 245.5,-165"/>
<text text-anchor="start" x="265.5" y="-173.2" font-family="Helvetica,sans-Serif" font-size="11.00">the_geom</text>
<polygon fill="none" stroke="black" points="398.5,-165 398.5,-187 534.5,-187 534.5,-165 398.5,-165"/>
<text text-anchor="start" x="401.5" y="-173.2" font-family="Helvetica,sans-Serif" font-size="11.00">geometry[2147483647]</text>
<polygon fill="#ffffff" stroke="transparent" points="245.5,-147 245.5,-165 534.5,-165 534.5,-147 245.5,-147"/>
<polygon fill="none" stroke="black" points="245.5,-147 245.5,-165 534.5,-165 534.5,-147 245.5,-147"/>
<polygon fill="#ffffff" stroke="transparent" points="246.5,-148 246.5,-164 346.5,-164 346.5,-148 246.5,-148"/>
<text text-anchor="start" x="248.5" y="-153.2" font-family="Helvetica,sans-Serif" font-size="11.00">&lt; 9</text>
<polygon fill="#ffffff" stroke="transparent" points="346.5,-148 346.5,-164 434.5,-164 434.5,-148 346.5,-148"/>
<text text-anchor="start" x="386.5" y="-153.2" font-family="Helvetica,sans-Serif" font-size="11.00"> &#160;</text>
<polygon fill="#ffffff" stroke="transparent" points="434.5,-148 434.5,-164 533.5,-164 533.5,-148 434.5,-148"/>
<text text-anchor="start" x="511.5" y="-153.2" font-family="Helvetica,sans-Serif" font-size="11.00">2 &gt;</text>
<polygon fill="black" stroke="black" points="346.5,-148 346.5,-164 346.5,-164 346.5,-148 346.5,-148"/>
<polygon fill="black" stroke="black" points="434.5,-148 434.5,-164 434.5,-164 434.5,-148 434.5,-148"/>
<polygon fill="none" stroke="black" stroke-width="2" points="244,-146 244,-606 535,-606 535,-146 244,-146"/>
</a>
</g>
</g>
<!-- contract&#45;&gt;unit -->
<g id="edge2" class="edge">
<title>contract:w&#45;&gt;unit:e</title>
<path fill="none" stroke="black" d="M599.73,-607.01C574.31,-599.33 568.65,-572 535.5,-572"/>
<polygon fill="black" stroke="black" points="606.08,-607.9 613.5,-612.57 610.04,-608.45 614,-609 614,-609 614,-609 610.04,-608.45 614.5,-605.43 606.08,-607.9 606.08,-607.9"/>
<ellipse fill="none" stroke="black" cx="602.91" cy="-607.45" rx="3.2" ry="3.2"/>
</g>
<!-- unit&#45;&gt;contact -->
<g id="edge6" class="edge">
<title>unit:w&#45;&gt;contact:e</title>
<path fill="none" stroke="black" d="M230.87,-290.78C180.97,-331.86 258.8,-624 188,-624"/>
<polygon fill="black" stroke="black" points="236.95,-288.65 245.69,-289.4 240.73,-287.32 244.5,-286 244.5,-286 244.5,-286 240.73,-287.32 243.31,-282.6 236.95,-288.65 236.95,-288.65"/>
<ellipse fill="none" stroke="black" cx="233.93" cy="-289.7" rx="3.2" ry="3.2"/>
</g>
<!-- cemetery -->
<g id="node5" class="node">
<title>cemetery</title>
<g id="a_node5"><a xlink:href="../../tables/cemetery.html" xlink:title="cemetery" target="_top">
<polygon fill="#ffffff" stroke="transparent" points="43.5,-432 43.5,-512 158.5,-512 158.5,-432 43.5,-432"/>
<polygon fill="#f5f5f5" stroke="transparent" points="44,-490 44,-512 159,-512 159,-490 44,-490"/>
<polygon fill="none" stroke="black" points="44,-490 44,-512 159,-512 159,-490 44,-490"/>
<text text-anchor="start" x="49" y="-499.2" font-family="Helvetica,sans-Serif" font-weight="bold" font-size="11.00">cemetery</text>
<text text-anchor="start" x="117" y="-498.2" font-family="Helvetica,sans-Serif" font-size="11.00">[table]</text>
<polygon fill="none" stroke="black" points="44,-468 44,-490 159,-490 159,-468 44,-468"/>
<image xlink:href="../../images/primaryKeys.png" width="11px" height="12px" preserveAspectRatio="xMinYMin meet" x="49" y="-485"/>
<text text-anchor="start" x="76" y="-476.2" font-family="Helvetica,sans-Serif" font-size="11.00">id</text>
<polygon fill="none" stroke="black" points="44,-450 44,-468 159,-468 159,-450 44,-450"/>
<text text-anchor="start" x="47" y="-456.2" font-family="Helvetica,sans-Serif" font-size="11.00">...</text>
<polygon fill="#ffffff" stroke="transparent" points="44,-432 44,-450 159,-450 159,-432 44,-432"/>
<polygon fill="none" stroke="black" points="44,-432 44,-450 159,-450 159,-432 44,-432"/>
<polygon fill="#ffffff" stroke="transparent" points="45,-433 45,-449 79,-449 79,-433 45,-433"/>
<text text-anchor="start" x="47" y="-438.2" font-family="Helvetica,sans-Serif" font-size="11.00"> &#160;</text>
<polygon fill="#ffffff" stroke="transparent" points="79,-433 79,-449 113,-449 113,-433 79,-433"/>
<text text-anchor="start" x="92" y="-438.2" font-family="Helvetica,sans-Serif" font-size="11.00"> &#160;</text>
<polygon fill="#ffffff" stroke="transparent" points="113,-433 113,-449 158,-449 158,-433 113,-433"/>
<text text-anchor="start" x="136" y="-438.2" font-family="Helvetica,sans-Serif" font-size="11.00">1 &gt;</text>
<polygon fill="black" stroke="black" points="79,-433 79,-449 79,-449 79,-433 79,-433"/>
<polygon fill="black" stroke="black" points="113,-433 113,-449 113,-449 113,-433 113,-433"/>
</a>
</g>
</g>
<!-- unit&#45;&gt;cemetery -->
<g id="edge4" class="edge">
<title>unit:w&#45;&gt;cemetery:e</title>
<path fill="none" stroke="black" d="M230.12,-398.58C195.43,-412.58 207.09,-479 160,-479"/>
<polygon fill="black" stroke="black" points="236.63,-397.41 245.13,-399.54 240.56,-396.71 244.5,-396 244.5,-396 244.5,-396 240.56,-396.71 243.87,-392.46 236.63,-397.41 236.63,-397.41"/>
<ellipse fill="none" stroke="black" cx="233.48" cy="-397.97" rx="3.2" ry="3.2"/>
</g>
<!-- organisation -->
<g id="node6" class="node">
<title>organisation</title>
<g id="a_node6"><a xlink:href="../../tables/organisation.html" xlink:title="organisation" target="_top">
<polygon fill="#ffffff" stroke="transparent" points="31.5,-779 31.5,-859 170.5,-859 170.5,-779 31.5,-779"/>
<polygon fill="#f5f5f5" stroke="transparent" points="32,-837 32,-859 171,-859 171,-837 32,-837"/>
<polygon fill="none" stroke="black" points="32,-837 32,-859 171,-859 171,-837 32,-837"/>
<text text-anchor="start" x="37" y="-846.2" font-family="Helvetica,sans-Serif" font-weight="bold" font-size="11.00">organisation</text>
<text text-anchor="start" x="129" y="-845.2" font-family="Helvetica,sans-Serif" font-size="11.00">[table]</text>
<polygon fill="none" stroke="black" points="32,-815 32,-837 171,-837 171,-815 32,-815"/>
<image xlink:href="../../images/primaryKeys.png" width="11px" height="12px" preserveAspectRatio="xMinYMin meet" x="37" y="-832"/>
<text text-anchor="start" x="65" y="-823.2" font-family="Helvetica,sans-Serif" font-size="11.00">id</text>
<polygon fill="none" stroke="black" points="32,-797 32,-815 171,-815 171,-797 32,-797"/>
<text text-anchor="start" x="35" y="-803.2" font-family="Helvetica,sans-Serif" font-size="11.00">...</text>
<polygon fill="#ffffff" stroke="transparent" points="32,-779 32,-797 171,-797 171,-779 32,-779"/>
<polygon fill="none" stroke="black" points="32,-779 32,-797 171,-797 171,-779 32,-779"/>
<polygon fill="#ffffff" stroke="transparent" points="33,-780 33,-796 75,-796 75,-780 33,-780"/>
<text text-anchor="start" x="35" y="-785.2" font-family="Helvetica,sans-Serif" font-size="11.00"> &#160;</text>
<polygon fill="#ffffff" stroke="transparent" points="75,-780 75,-796 117,-796 117,-780 75,-780"/>
<text text-anchor="start" x="92" y="-785.2" font-family="Helvetica,sans-Serif" font-size="11.00"> &#160;</text>
<polygon fill="#ffffff" stroke="transparent" points="117,-780 117,-796 170,-796 170,-780 117,-780"/>
<text text-anchor="start" x="148" y="-785.2" font-family="Helvetica,sans-Serif" font-size="11.00">1 &gt;</text>
<polygon fill="black" stroke="black" points="75,-780 75,-796 75,-796 75,-780 75,-780"/>
<polygon fill="black" stroke="black" points="117,-780 117,-796 117,-796 117,-780 117,-780"/>
</a>
</g>
</g>
<!-- unit&#45;&gt;organisation -->
<g id="edge5" class="edge">
<title>unit:w&#45;&gt;organisation:e</title>
<path fill="none" stroke="black" d="M230.65,-444.07C168.89,-485.33 253.99,-826 172,-826"/>
<polygon fill="black" stroke="black" points="236.82,-442.26 245.52,-443.45 240.66,-441.13 244.5,-440 244.5,-440 244.5,-440 240.66,-441.13 243.48,-436.55 236.82,-442.26 236.82,-442.26"/>
<ellipse fill="none" stroke="black" cx="233.75" cy="-443.16" rx="3.2" ry="3.2"/>
</g>
<!-- tce_vl.control_kind -->
<g id="node7" class="node">
<title>tce_vl.control_kind</title>
<g id="a_node7"><a xlink:href="../../../tce_vl/tables/control_kind.html" xlink:title="tce_vl.control_kind" target="_top">
<polygon fill="#ffffff" stroke="transparent" points="9,-37 9,-95 193,-95 193,-37 9,-37"/>
<polygon fill="#f5f5f5" stroke="transparent" points="9,-73 9,-95 193,-95 193,-73 9,-73"/>
<polygon fill="none" stroke="black" points="9,-73 9,-95 193,-95 193,-73 9,-73"/>
<text text-anchor="start" x="14" y="-82.2" font-family="Helvetica,sans-Serif" font-weight="bold" font-size="11.00">tce_vl.control_kind</text>
<text text-anchor="start" x="151" y="-81.2" font-family="Helvetica,sans-Serif" font-size="11.00">[table]</text>
<polygon fill="none" stroke="black" points="9,-55 9,-73 193,-73 193,-55 9,-55"/>
<text text-anchor="start" x="12" y="-61.2" font-family="Helvetica,sans-Serif" font-size="11.00">...</text>
<polygon fill="#ffffff" stroke="transparent" points="9,-37 9,-55 193,-55 193,-37 9,-37"/>
<polygon fill="none" stroke="black" points="9,-37 9,-55 193,-55 193,-37 9,-37"/>
<polygon fill="#ffffff" stroke="transparent" points="10,-38 10,-54 57,-54 57,-38 10,-38"/>
<text text-anchor="start" x="12" y="-43.2" font-family="Helvetica,sans-Serif" font-size="11.00"> &#160;</text>
<polygon fill="#ffffff" stroke="transparent" points="57,-38 57,-54 133,-54 133,-38 57,-38"/>
<text text-anchor="start" x="76.5" y="-43.2" font-family="Helvetica,sans-Serif" font-size="11.00">0 rows</text>
<polygon fill="#ffffff" stroke="transparent" points="133,-38 133,-54 192,-54 192,-38 133,-38"/>
<text text-anchor="start" x="170" y="-43.2" font-family="Helvetica,sans-Serif" font-size="11.00">1 &gt;</text>
<polygon fill="black" stroke="black" points="57,-38 57,-54 57,-54 57,-38 57,-38"/>
<polygon fill="black" stroke="black" points="133,-38 133,-54 133,-54 133,-38 133,-38"/>
</a>
</g>
</g>
<!-- unit&#45;&gt;tce_vl.control_kind -->
<g id="edge7" class="edge">
<title>unit:w&#45;&gt;tce_vl.control_kind:e</title>
<path fill="none" stroke="black" d="M230.35,-194.95C207.39,-182.13 230.65,-132.06 202,-105 199.83,-102.95 197.55,-101.01 195.16,-99.16"/>
<polygon fill="black" stroke="black" points="236.68,-196.31 243.74,-201.52 240.59,-197.16 244.5,-198 244.5,-198 244.5,-198 240.59,-197.16 245.26,-194.48 236.68,-196.31 236.68,-196.31"/>
<ellipse fill="none" stroke="black" cx="233.55" cy="-195.64" rx="3.2" ry="3.2"/>
</g>
<!-- tce_vl.unit_kind -->
<g id="node8" class="node">
<title>tce_vl.unit_kind</title>
<g id="a_node8"><a xlink:href="../../../tce_vl/tables/unit_kind.html" xlink:title="tce_vl.unit_kind" target="_top">
<polygon fill="#ffffff" stroke="transparent" points="20.5,-274 20.5,-332 181.5,-332 181.5,-274 20.5,-274"/>
<polygon fill="#f5f5f5" stroke="transparent" points="21,-310 21,-332 182,-332 182,-310 21,-310"/>
<polygon fill="none" stroke="black" points="21,-310 21,-332 182,-332 182,-310 21,-310"/>
<text text-anchor="start" x="26" y="-319.2" font-family="Helvetica,sans-Serif" font-weight="bold" font-size="11.00">tce_vl.unit_kind</text>
<text text-anchor="start" x="140" y="-318.2" font-family="Helvetica,sans-Serif" font-size="11.00">[table]</text>
<polygon fill="none" stroke="black" points="21,-292 21,-310 182,-310 182,-292 21,-292"/>
<text text-anchor="start" x="24" y="-298.2" font-family="Helvetica,sans-Serif" font-size="11.00">...</text>
<polygon fill="#ffffff" stroke="transparent" points="21,-274 21,-292 182,-292 182,-274 21,-274"/>
<polygon fill="none" stroke="black" points="21,-274 21,-292 182,-292 182,-274 21,-274"/>
<polygon fill="#ffffff" stroke="transparent" points="22,-275 22,-291 62,-291 62,-275 22,-275"/>
<text text-anchor="start" x="24" y="-280.2" font-family="Helvetica,sans-Serif" font-size="11.00"> &#160;</text>
<polygon fill="#ffffff" stroke="transparent" points="62,-275 62,-291 130,-291 130,-275 62,-275"/>
<text text-anchor="start" x="77.5" y="-280.2" font-family="Helvetica,sans-Serif" font-size="11.00">0 rows</text>
<polygon fill="#ffffff" stroke="transparent" points="130,-275 130,-291 181,-291 181,-275 130,-275"/>
<text text-anchor="start" x="159" y="-280.2" font-family="Helvetica,sans-Serif" font-size="11.00">1 &gt;</text>
<polygon fill="black" stroke="black" points="62,-275 62,-291 62,-291 62,-275 62,-275"/>
<polygon fill="black" stroke="black" points="130,-275 130,-291 130,-291 130,-275 130,-275"/>
</a>
</g>
</g>
<!-- unit&#45;&gt;tce_vl.unit_kind -->
<g id="edge8" class="edge">
<title>unit:w&#45;&gt;tce_vl.unit_kind:e</title>
<path fill="none" stroke="black" d="M230.26,-348.98C219.81,-346.02 205.28,-341.16 189.74,-335.68"/>
<polygon fill="black" stroke="black" points="236.67,-350.34 243.75,-355.52 240.59,-351.17 244.5,-352 244.5,-352 244.5,-352 240.59,-351.17 245.25,-348.48 236.67,-350.34 236.67,-350.34"/>
<ellipse fill="none" stroke="black" cx="233.54" cy="-349.68" rx="3.2" ry="3.2"/>
</g>
<!-- sector -->
<g id="node9" class="node">
<title>sector</title>
<g id="a_node9"><a xlink:href="../../tables/sector.html" xlink:title="sector" target="_top">
<polygon fill="#ffffff" stroke="transparent" points="49,-678 49,-758 153,-758 153,-678 49,-678"/>
<polygon fill="#f5f5f5" stroke="transparent" points="49,-736 49,-758 153,-758 153,-736 49,-736"/>
<polygon fill="none" stroke="black" points="49,-736 49,-758 153,-758 153,-736 49,-736"/>
<text text-anchor="start" x="54" y="-745.2" font-family="Helvetica,sans-Serif" font-weight="bold" font-size="11.00">sector</text>
<text text-anchor="start" x="111" y="-744.2" font-family="Helvetica,sans-Serif" font-size="11.00">[table]</text>
<polygon fill="none" stroke="black" points="49,-714 49,-736 153,-736 153,-714 49,-714"/>
<image xlink:href="../../images/primaryKeys.png" width="11px" height="12px" preserveAspectRatio="xMinYMin meet" x="54" y="-731"/>
<text text-anchor="start" x="69" y="-722.2" font-family="Helvetica,sans-Serif" font-size="11.00">id</text>
<polygon fill="none" stroke="black" points="49,-696 49,-714 153,-714 153,-696 49,-696"/>
<text text-anchor="start" x="52" y="-702.2" font-family="Helvetica,sans-Serif" font-size="11.00">...</text>
<polygon fill="#ffffff" stroke="transparent" points="49,-678 49,-696 153,-696 153,-678 49,-678"/>
<polygon fill="none" stroke="black" points="49,-678 49,-696 153,-696 153,-678 49,-678"/>
<polygon fill="#ffffff" stroke="transparent" points="50,-679 50,-695 80,-695 80,-679 50,-679"/>
<text text-anchor="start" x="52" y="-684.2" font-family="Helvetica,sans-Serif" font-size="11.00"> &#160;</text>
<polygon fill="#ffffff" stroke="transparent" points="80,-679 80,-695 110,-695 110,-679 80,-679"/>
<text text-anchor="start" x="91" y="-684.2" font-family="Helvetica,sans-Serif" font-size="11.00"> &#160;</text>
<polygon fill="#ffffff" stroke="transparent" points="110,-679 110,-695 152,-695 152,-679 110,-679"/>
<text text-anchor="start" x="130" y="-684.2" font-family="Helvetica,sans-Serif" font-size="11.00">1 &gt;</text>
<polygon fill="black" stroke="black" points="80,-679 80,-695 80,-695 80,-679 80,-679"/>
<polygon fill="black" stroke="black" points="110,-679 110,-695 110,-695 110,-679 110,-679"/>
</a>
</g>
</g>
<!-- unit&#45;&gt;sector -->
<g id="edge9" class="edge">
<title>unit:w&#45;&gt;sector:e</title>
<path fill="none" stroke="black" d="M230.53,-423.37C194.9,-455.43 223.39,-621.87 202,-668 188.07,-698.05 187.12,-725 154,-725"/>
<polygon fill="black" stroke="black" points="237.03,-420.87 245.79,-421.36 240.77,-419.43 244.5,-418 244.5,-418 244.5,-418 240.77,-419.43 243.21,-414.64 237.03,-420.87 237.03,-420.87"/>
<ellipse fill="none" stroke="black" cx="234.05" cy="-422.02" rx="3.2" ry="3.2"/>
</g>
<!-- tce_vl.unit_size -->
<g id="node10" class="node">
<title>tce_vl.unit_size</title>
<g id="a_node10"><a xlink:href="../../../tce_vl/tables/unit_size.html" xlink:title="tce_vl.unit_size" target="_top">
<polygon fill="#ffffff" stroke="transparent" points="22,-353 22,-411 180,-411 180,-353 22,-353"/>
<polygon fill="#f5f5f5" stroke="transparent" points="22,-389 22,-411 180,-411 180,-389 22,-389"/>
<polygon fill="none" stroke="black" points="22,-389 22,-411 180,-411 180,-389 22,-389"/>
<text text-anchor="start" x="27" y="-398.2" font-family="Helvetica,sans-Serif" font-weight="bold" font-size="11.00">tce_vl.unit_size</text>
<text text-anchor="start" x="138" y="-397.2" font-family="Helvetica,sans-Serif" font-size="11.00">[table]</text>
<polygon fill="none" stroke="black" points="22,-371 22,-389 180,-389 180,-371 22,-371"/>
<text text-anchor="start" x="25" y="-377.2" font-family="Helvetica,sans-Serif" font-size="11.00">...</text>
<polygon fill="#ffffff" stroke="transparent" points="22,-353 22,-371 180,-371 180,-353 22,-353"/>
<polygon fill="none" stroke="black" points="22,-353 22,-371 180,-371 180,-353 22,-353"/>
<polygon fill="#ffffff" stroke="transparent" points="23,-354 23,-370 62,-370 62,-354 23,-354"/>
<text text-anchor="start" x="25" y="-359.2" font-family="Helvetica,sans-Serif" font-size="11.00"> &#160;</text>
<polygon fill="#ffffff" stroke="transparent" points="62,-354 62,-370 129,-370 129,-354 62,-354"/>
<text text-anchor="start" x="77" y="-359.2" font-family="Helvetica,sans-Serif" font-size="11.00">0 rows</text>
<polygon fill="#ffffff" stroke="transparent" points="129,-354 129,-370 179,-370 179,-354 129,-354"/>
<text text-anchor="start" x="157" y="-359.2" font-family="Helvetica,sans-Serif" font-size="11.00">1 &gt;</text>
<polygon fill="black" stroke="black" points="62,-354 62,-370 62,-370 62,-354 62,-354"/>
<polygon fill="black" stroke="black" points="129,-354 129,-370 129,-370 129,-354 129,-354"/>
</a>
</g>
</g>
<!-- unit&#45;&gt;tce_vl.unit_size -->
<g id="edge10" class="edge">
<title>unit:w&#45;&gt;tce_vl.unit_size:e</title>
<path fill="none" stroke="black" d="M229.76,-374.13C216,-374.37 201.86,-374.91 188.24,-375.6"/>
<polygon fill="black" stroke="black" points="236.5,-374.07 244.53,-377.6 240.5,-374.04 244.5,-374 244.5,-374 244.5,-374 240.5,-374.04 244.47,-370.4 236.5,-374.07 236.5,-374.07"/>
<ellipse fill="none" stroke="black" cx="233.3" cy="-374.1" rx="3.2" ry="3.2"/>
</g>
<!-- tce_vl.urn_material -->
<g id="node11" class="node">
<title>tce_vl.urn_material</title>
<g id="a_node11"><a xlink:href="../../../tce_vl/tables/urn_material.html" xlink:title="tce_vl.urn_material" target="_top">
<polygon fill="#ffffff" stroke="transparent" points="8,-195 8,-253 194,-253 194,-195 8,-195"/>
<polygon fill="#f5f5f5" stroke="transparent" points="8,-231 8,-253 194,-253 194,-231 8,-231"/>
<polygon fill="none" stroke="black" points="8,-231 8,-253 194,-253 194,-231 8,-231"/>
<text text-anchor="start" x="13" y="-240.2" font-family="Helvetica,sans-Serif" font-weight="bold" font-size="11.00">tce_vl.urn_material</text>
<text text-anchor="start" x="152" y="-239.2" font-family="Helvetica,sans-Serif" font-size="11.00">[table]</text>
<polygon fill="none" stroke="black" points="8,-213 8,-231 194,-231 194,-213 8,-213"/>
<text text-anchor="start" x="11" y="-219.2" font-family="Helvetica,sans-Serif" font-size="11.00">...</text>
<polygon fill="#ffffff" stroke="transparent" points="8,-195 8,-213 194,-213 194,-195 8,-195"/>
<polygon fill="none" stroke="black" points="8,-195 8,-213 194,-213 194,-195 8,-195"/>
<polygon fill="#ffffff" stroke="transparent" points="9,-196 9,-212 57,-212 57,-196 9,-196"/>
<text text-anchor="start" x="11" y="-201.2" font-family="Helvetica,sans-Serif" font-size="11.00"> &#160;</text>
<polygon fill="#ffffff" stroke="transparent" points="57,-196 57,-212 134,-212 134,-196 57,-196"/>
<text text-anchor="start" x="77" y="-201.2" font-family="Helvetica,sans-Serif" font-size="11.00">0 rows</text>
<polygon fill="#ffffff" stroke="transparent" points="134,-196 134,-212 193,-212 193,-196 134,-196"/>
<text text-anchor="start" x="171" y="-201.2" font-family="Helvetica,sans-Serif" font-size="11.00">1 &gt;</text>
<polygon fill="black" stroke="black" points="57,-196 57,-212 57,-212 57,-196 57,-196"/>
<polygon fill="black" stroke="black" points="134,-196 134,-212 134,-212 134,-196 134,-196"/>
</a>
</g>
</g>
<!-- unit&#45;&gt;tce_vl.urn_material -->
<g id="edge11" class="edge">
<title>unit:w&#45;&gt;tce_vl.urn_material:e</title>
<path fill="none" stroke="black" d="M230.25,-326.07C214.9,-314.69 224.33,-281.38 202,-263 199.55,-260.99 196.99,-259.07 194.34,-257.24"/>
<polygon fill="black" stroke="black" points="236.79,-327.87 243.54,-333.47 240.64,-328.94 244.5,-330 244.5,-330 244.5,-330 240.64,-328.94 245.46,-326.53 236.79,-327.87 236.79,-327.87"/>
<ellipse fill="none" stroke="black" cx="233.7" cy="-327.02" rx="3.2" ry="3.2"/>
</g>
<!-- tce_vl.urn_shape -->
<g id="node12" class="node">
<title>tce_vl.urn_shape</title>
<g id="a_node12"><a xlink:href="../../../tce_vl/tables/urn_shape.html" xlink:title="tce_vl.urn_shape" target="_top">
<polygon fill="#ffffff" stroke="transparent" points="16.5,-116 16.5,-174 185.5,-174 185.5,-116 16.5,-116"/>
<polygon fill="#f5f5f5" stroke="transparent" points="17,-152 17,-174 186,-174 186,-152 17,-152"/>
<polygon fill="none" stroke="black" points="17,-152 17,-174 186,-174 186,-152 17,-152"/>
<text text-anchor="start" x="22" y="-161.2" font-family="Helvetica,sans-Serif" font-weight="bold" font-size="11.00">tce_vl.urn_shape</text>
<text text-anchor="start" x="144" y="-160.2" font-family="Helvetica,sans-Serif" font-size="11.00">[table]</text>
<polygon fill="none" stroke="black" points="17,-134 17,-152 186,-152 186,-134 17,-134"/>
<text text-anchor="start" x="20" y="-140.2" font-family="Helvetica,sans-Serif" font-size="11.00">...</text>
<polygon fill="#ffffff" stroke="transparent" points="17,-116 17,-134 186,-134 186,-116 17,-116"/>
<polygon fill="none" stroke="black" points="17,-116 17,-134 186,-134 186,-116 17,-116"/>
<polygon fill="#ffffff" stroke="transparent" points="18,-117 18,-133 60,-133 60,-117 18,-117"/>
<text text-anchor="start" x="20" y="-122.2" font-family="Helvetica,sans-Serif" font-size="11.00"> &#160;</text>
<polygon fill="#ffffff" stroke="transparent" points="60,-117 60,-133 131,-133 131,-117 60,-117"/>
<text text-anchor="start" x="77" y="-122.2" font-family="Helvetica,sans-Serif" font-size="11.00">0 rows</text>
<polygon fill="#ffffff" stroke="transparent" points="131,-117 131,-133 185,-133 185,-117 131,-117"/>
<text text-anchor="start" x="163" y="-122.2" font-family="Helvetica,sans-Serif" font-size="11.00">1 &gt;</text>
<polygon fill="black" stroke="black" points="60,-117 60,-133 60,-133 60,-117 60,-117"/>
<polygon fill="black" stroke="black" points="131,-117 131,-133 131,-133 131,-117 131,-117"/>
</a>
</g>
</g>
<!-- unit&#45;&gt;tce_vl.urn_shape -->
<g id="edge12" class="edge">
<title>unit:w&#45;&gt;tce_vl.urn_shape:e</title>
<path fill="none" stroke="black" d="M230.07,-305.59C196.64,-291.76 238.23,-221.77 202,-184 199.42,-181.31 196.63,-178.8 193.69,-176.47"/>
<polygon fill="black" stroke="black" points="236.61,-306.68 243.91,-311.55 240.55,-307.34 244.5,-308 244.5,-308 244.5,-308 240.55,-307.34 245.09,-304.45 236.61,-306.68 236.61,-306.68"/>
<ellipse fill="none" stroke="black" cx="233.45" cy="-306.16" rx="3.2" ry="3.2"/>
</g>
<!-- deceased -->
<g id="node4" class="node">
<title>deceased</title>
<g id="a_node4"><a xlink:href="../../tables/deceased.html" xlink:title="deceased" target="_top">
<polygon fill="#ffffff" stroke="transparent" points="585,-417 585,-541 803,-541 803,-417 585,-417"/>
<polygon fill="#f5f5f5" stroke="transparent" points="585,-519 585,-541 803,-541 803,-519 585,-519"/>
<polygon fill="none" stroke="black" points="585,-519 585,-541 803,-541 803,-519 585,-519"/>
<text text-anchor="start" x="590" y="-528.2" font-family="Helvetica,sans-Serif" font-weight="bold" font-size="11.00">deceased</text>
<text text-anchor="start" x="761" y="-527.2" font-family="Helvetica,sans-Serif" font-size="11.00">[table]</text>
<polygon fill="none" stroke="black" points="585,-497 585,-519 803,-519 803,-497 585,-497"/>
<image xlink:href="../../images/primaryKeys.png" width="11px" height="12px" preserveAspectRatio="xMinYMin meet" x="590" y="-514"/>
<text text-anchor="start" x="605" y="-505.2" font-family="Helvetica,sans-Serif" font-size="11.00">id</text>
<polygon fill="none" stroke="black" points="585,-475 585,-497 803,-497 803,-475 585,-475"/>
<image xlink:href="../../images/foreignKeys.png" width="11px" height="12px" preserveAspectRatio="xMinYMin meet" x="590" y="-492"/>
<text text-anchor="start" x="605" y="-483.2" font-family="Helvetica,sans-Serif" font-size="11.00">fk_civility</text>
<polygon fill="none" stroke="black" points="585,-453 585,-475 803,-475 803,-453 585,-453"/>
<image xlink:href="../../images/foreignKeys.png" width="11px" height="12px" preserveAspectRatio="xMinYMin meet" x="590" y="-470"/>
<text text-anchor="start" x="605" y="-461.2" font-family="Helvetica,sans-Serif" font-size="11.00">fk_unit</text>
<polygon fill="none" stroke="black" points="585,-435 585,-453 803,-453 803,-435 585,-435"/>
<text text-anchor="start" x="588" y="-441.2" font-family="Helvetica,sans-Serif" font-size="11.00">...</text>
<polygon fill="#ffffff" stroke="transparent" points="585,-417 585,-435 803,-435 803,-417 585,-417"/>
<polygon fill="none" stroke="black" points="585,-417 585,-435 803,-435 803,-417 585,-417"/>
<polygon fill="#ffffff" stroke="transparent" points="586,-418 586,-434 666,-434 666,-418 586,-418"/>
<text text-anchor="start" x="588" y="-423.2" font-family="Helvetica,sans-Serif" font-size="11.00">&lt; 2</text>
<polygon fill="#ffffff" stroke="transparent" points="666,-418 666,-434 734,-434 734,-418 666,-418"/>
<text text-anchor="start" x="696" y="-423.2" font-family="Helvetica,sans-Serif" font-size="11.00"> &#160;</text>
<polygon fill="#ffffff" stroke="transparent" points="734,-418 734,-434 802,-434 802,-418 734,-418"/>
<text text-anchor="start" x="792" y="-423.2" font-family="Helvetica,sans-Serif" font-size="11.00"> &#160;</text>
<polygon fill="black" stroke="black" points="666,-418 666,-434 666,-434 666,-418 666,-418"/>
<polygon fill="black" stroke="black" points="734,-418 734,-434 734,-434 734,-418 734,-418"/>
</a>
</g>
</g>
<!-- deceased&#45;&gt;unit -->
<g id="edge3" class="edge">
<title>deceased:w&#45;&gt;unit:e</title>
<path fill="none" stroke="black" d="M570.01,-467.84C542.83,-487.08 582.16,-572 535.5,-572"/>
<polygon fill="black" stroke="black" points="576.29,-466.12 584.95,-467.47 580.14,-465.06 584,-464 584,-464 584,-464 580.14,-465.06 583.05,-460.53 576.29,-466.12 576.29,-466.12"/>
<ellipse fill="none" stroke="black" cx="573.2" cy="-466.97" rx="3.2" ry="3.2"/>
</g>
</g>
</svg>
