<?xml version="1.0" encoding="UTF-8" standalone="no"?>
<!DOCTYPE svg PUBLIC "-//W3C//DTD SVG 1.1//EN"
 "http://www.w3.org/Graphics/SVG/1.1/DTD/svg11.dtd">
<!-- Generated by graphviz version 2.43.0 (0)
 -->
<!-- Title: oneDegreeRelationshipsDiagram Pages: 1 -->
<svg width="305pt" height="423pt"
 viewBox="0.00 0.00 305.00 423.00" xmlns="http://www.w3.org/2000/svg" xmlns:xlink="http://www.w3.org/1999/xlink">
<g id="graph0" class="graph" transform="scale(1 1) rotate(0) translate(4 419)">
<title>oneDegreeRelationshipsDiagram</title>
<polygon fill="#ffffff" stroke="transparent" points="-4,4 -4,-419 301,-419 301,4 -4,4"/>
<text text-anchor="middle" x="79.5" y="-7.2" font-family="Helvetica,sans-Serif" font-size="11.00">Generated by SchemaSpy</text>
<!-- unit -->
<g id="node1" class="node">
<title>unit</title>
<g id="a_node1"><a xlink:href="../../tables/unit.html" xlink:title="unit" target="_top">
<polygon fill="#ffffff" stroke="transparent" points="8,-37 8,-411 289,-411 289,-37 8,-37"/>
<polygon fill="#f5f5f5" stroke="transparent" points="10.5,-387 10.5,-409 287.5,-409 287.5,-387 10.5,-387"/>
<polygon fill="none" stroke="black" points="10.5,-387 10.5,-409 287.5,-409 287.5,-387 10.5,-387"/>
<text text-anchor="start" x="15.5" y="-396.2" font-family="Helvetica,sans-Serif" font-weight="bold" font-size="11.00">unit</text>
<text text-anchor="start" x="245.5" y="-395.2" font-family="Helvetica,sans-Serif" font-size="11.00">[table]</text>
<polygon fill="none" stroke="black" points="10.5,-365 10.5,-387 151.5,-387 151.5,-365 10.5,-365"/>
<image xlink:href="../../images/primaryKeys.png" width="11px" height="12px" preserveAspectRatio="xMinYMin meet" x="15.5" y="-382"/>
<text text-anchor="start" x="30.5" y="-373.2" font-family="Helvetica,sans-Serif" font-size="11.00">id</text>
<polygon fill="none" stroke="black" points="151.5,-365 151.5,-387 287.5,-387 287.5,-365 151.5,-365"/>
<text text-anchor="start" x="154.5" y="-373.2" font-family="Helvetica,sans-Serif" font-size="11.00">uuid[2147483647]</text>
<polygon fill="none" stroke="black" points="10.5,-343 10.5,-365 151.5,-365 151.5,-343 10.5,-343"/>
<text text-anchor="start" x="30.5" y="-351.2" font-family="Helvetica,sans-Serif" font-size="11.00">identifier</text>
<polygon fill="none" stroke="black" points="151.5,-343 151.5,-365 287.5,-365 287.5,-343 151.5,-343"/>
<text text-anchor="start" x="154.5" y="-351.2" font-family="Helvetica,sans-Serif" font-size="11.00">varchar[10]</text>
<polygon fill="none" stroke="black" points="10.5,-321 10.5,-343 151.5,-343 151.5,-321 10.5,-321"/>
<text text-anchor="start" x="30.5" y="-329.2" font-family="Helvetica,sans-Serif" font-size="11.00">start_date</text>
<polygon fill="none" stroke="black" points="151.5,-321 151.5,-343 287.5,-343 287.5,-321 151.5,-321"/>
<text text-anchor="start" x="154.5" y="-329.2" font-family="Helvetica,sans-Serif" font-size="11.00">date[13]</text>
<polygon fill="none" stroke="black" points="10.5,-299 10.5,-321 151.5,-321 151.5,-299 10.5,-299"/>
<text text-anchor="start" x="30.5" y="-307.2" font-family="Helvetica,sans-Serif" font-size="11.00">end_date</text>
<polygon fill="none" stroke="black" points="151.5,-299 151.5,-321 287.5,-321 287.5,-299 151.5,-299"/>
<text text-anchor="start" x="154.5" y="-307.2" font-family="Helvetica,sans-Serif" font-size="11.00">date[13]</text>
<polygon fill="none" stroke="black" points="10.5,-277 10.5,-299 151.5,-299 151.5,-277 10.5,-277"/>
<text text-anchor="start" x="30.5" y="-285.2" font-family="Helvetica,sans-Serif" font-size="11.00">fk_company</text>
<polygon fill="none" stroke="black" points="151.5,-277 151.5,-299 287.5,-299 287.5,-277 151.5,-277"/>
<text text-anchor="start" x="154.5" y="-285.2" font-family="Helvetica,sans-Serif" font-size="11.00">uuid[2147483647]</text>
<polygon fill="none" stroke="black" points="10.5,-255 10.5,-277 151.5,-277 151.5,-255 10.5,-255"/>
<text text-anchor="start" x="30.5" y="-263.2" font-family="Helvetica,sans-Serif" font-size="11.00">fk_sector</text>
<polygon fill="none" stroke="black" points="151.5,-255 151.5,-277 287.5,-277 287.5,-255 151.5,-255"/>
<text text-anchor="start" x="154.5" y="-263.2" font-family="Helvetica,sans-Serif" font-size="11.00">uuid[2147483647]</text>
<polygon fill="none" stroke="black" points="10.5,-233 10.5,-255 151.5,-255 151.5,-233 10.5,-233"/>
<text text-anchor="start" x="30.5" y="-241.2" font-family="Helvetica,sans-Serif" font-size="11.00">fk_cemetery</text>
<polygon fill="none" stroke="black" points="151.5,-233 151.5,-255 287.5,-255 287.5,-233 151.5,-233"/>
<text text-anchor="start" x="154.5" y="-241.2" font-family="Helvetica,sans-Serif" font-size="11.00">int4[10]</text>
<polygon fill="none" stroke="black" points="10.5,-211 10.5,-233 151.5,-233 151.5,-211 10.5,-211"/>
<text text-anchor="start" x="30.5" y="-219.2" font-family="Helvetica,sans-Serif" font-size="11.00">fk_unit_size</text>
<polygon fill="none" stroke="black" points="151.5,-211 151.5,-233 287.5,-233 287.5,-211 151.5,-211"/>
<text text-anchor="start" x="154.5" y="-219.2" font-family="Helvetica,sans-Serif" font-size="11.00">int4[10]</text>
<polygon fill="none" stroke="black" points="10.5,-189 10.5,-211 151.5,-211 151.5,-189 10.5,-189"/>
<text text-anchor="start" x="30.5" y="-197.2" font-family="Helvetica,sans-Serif" font-size="11.00">fk_unit_kind</text>
<polygon fill="none" stroke="black" points="151.5,-189 151.5,-211 287.5,-211 287.5,-189 151.5,-189"/>
<text text-anchor="start" x="154.5" y="-197.2" font-family="Helvetica,sans-Serif" font-size="11.00">int4[10]</text>
<polygon fill="none" stroke="black" points="10.5,-167 10.5,-189 151.5,-189 151.5,-167 10.5,-167"/>
<text text-anchor="start" x="30.5" y="-175.2" font-family="Helvetica,sans-Serif" font-size="11.00">fk_contract_kind</text>
<polygon fill="none" stroke="black" points="151.5,-167 151.5,-189 287.5,-189 287.5,-167 151.5,-167"/>
<text text-anchor="start" x="154.5" y="-175.2" font-family="Helvetica,sans-Serif" font-size="11.00">int4[10]</text>
<polygon fill="none" stroke="black" points="10.5,-145 10.5,-167 151.5,-167 151.5,-145 10.5,-145"/>
<text text-anchor="start" x="30.5" y="-153.2" font-family="Helvetica,sans-Serif" font-size="11.00">remark</text>
<polygon fill="none" stroke="black" points="151.5,-145 151.5,-167 287.5,-167 287.5,-145 151.5,-145"/>
<text text-anchor="start" x="154.5" y="-153.2" font-family="Helvetica,sans-Serif" font-size="11.00">text[2147483647]</text>
<polygon fill="none" stroke="black" points="10.5,-123 10.5,-145 151.5,-145 151.5,-123 10.5,-123"/>
<text text-anchor="start" x="30.5" y="-131.2" font-family="Helvetica,sans-Serif" font-size="11.00">disused</text>
<polygon fill="none" stroke="black" points="151.5,-123 151.5,-145 287.5,-145 287.5,-123 151.5,-123"/>
<text text-anchor="start" x="154.5" y="-131.2" font-family="Helvetica,sans-Serif" font-size="11.00">bool[1]</text>
<polygon fill="none" stroke="black" points="10.5,-101 10.5,-123 151.5,-123 151.5,-101 10.5,-101"/>
<text text-anchor="start" x="30.5" y="-109.2" font-family="Helvetica,sans-Serif" font-size="11.00">disused_date</text>
<polygon fill="none" stroke="black" points="151.5,-101 151.5,-123 287.5,-123 287.5,-101 151.5,-101"/>
<text text-anchor="start" x="154.5" y="-109.2" font-family="Helvetica,sans-Serif" font-size="11.00">date[13]</text>
<polygon fill="none" stroke="black" points="10.5,-79 10.5,-101 151.5,-101 151.5,-79 10.5,-79"/>
<text text-anchor="start" x="30.5" y="-87.2" font-family="Helvetica,sans-Serif" font-size="11.00">fk_control</text>
<polygon fill="none" stroke="black" points="151.5,-79 151.5,-101 287.5,-101 287.5,-79 151.5,-79"/>
<text text-anchor="start" x="154.5" y="-87.2" font-family="Helvetica,sans-Serif" font-size="11.00">int4[10]</text>
<polygon fill="none" stroke="black" points="10.5,-57 10.5,-79 151.5,-79 151.5,-57 10.5,-57"/>
<text text-anchor="start" x="30.5" y="-65.2" font-family="Helvetica,sans-Serif" font-size="11.00">the_geom</text>
<polygon fill="none" stroke="black" points="151.5,-57 151.5,-79 287.5,-79 287.5,-57 151.5,-57"/>
<text text-anchor="start" x="154.5" y="-65.2" font-family="Helvetica,sans-Serif" font-size="11.00">geometry[2147483647]</text>
<polygon fill="#ffffff" stroke="transparent" points="10.5,-39 10.5,-57 287.5,-57 287.5,-39 10.5,-39"/>
<polygon fill="none" stroke="black" points="10.5,-39 10.5,-57 287.5,-57 287.5,-39 10.5,-39"/>
<polygon fill="#ffffff" stroke="transparent" points="11.5,-40 11.5,-56 107.5,-56 107.5,-40 11.5,-40"/>
<text text-anchor="start" x="13.5" y="-45.2" font-family="Helvetica,sans-Serif" font-size="11.00">&lt; 0</text>
<polygon fill="#ffffff" stroke="transparent" points="107.5,-40 107.5,-56 191.5,-56 191.5,-40 107.5,-40"/>
<text text-anchor="start" x="145.5" y="-45.2" font-family="Helvetica,sans-Serif" font-size="11.00"> &#160;</text>
<polygon fill="#ffffff" stroke="transparent" points="191.5,-40 191.5,-56 286.5,-56 286.5,-40 191.5,-40"/>
<text text-anchor="start" x="264.5" y="-45.2" font-family="Helvetica,sans-Serif" font-size="11.00">0 &gt;</text>
<polygon fill="black" stroke="black" points="107.5,-40 107.5,-56 107.5,-56 107.5,-40 107.5,-40"/>
<polygon fill="black" stroke="black" points="191.5,-40 191.5,-56 191.5,-56 191.5,-40 191.5,-40"/>
<polygon fill="none" stroke="black" stroke-width="2" points="9,-38 9,-410 288,-410 288,-38 9,-38"/>
</a>
</g>
</g>
</g>
</svg>
