<?xml version="1.0" encoding="UTF-8" standalone="no"?>
<!DOCTYPE svg PUBLIC "-//W3C//DTD SVG 1.1//EN"
 "http://www.w3.org/Graphics/SVG/1.1/DTD/svg11.dtd">
<!-- Generated by graphviz version 2.43.0 (0)
 -->
<!-- Title: oneDegreeRelationshipsDiagram Pages: 1 -->
<svg width="524pt" height="203pt"
 viewBox="0.00 0.00 524.00 203.00" xmlns="http://www.w3.org/2000/svg" xmlns:xlink="http://www.w3.org/1999/xlink">
<g id="graph0" class="graph" transform="scale(1 1) rotate(0) translate(4 199)">
<title>oneDegreeRelationshipsDiagram</title>
<polygon fill="#ffffff" stroke="transparent" points="-4,4 -4,-199 520,-199 520,4 -4,4"/>
<text text-anchor="middle" x="79.5" y="-7.2" font-family="Helvetica,sans-Serif" font-size="11.00">Generated by SchemaSpy</text>
<!-- vegetation -->
<g id="node1" class="node">
<title>vegetation</title>
<g id="a_node1"><a xlink:href="../../tables/vegetation.html" xlink:title="vegetation" target="_top">
<polygon fill="#ffffff" stroke="transparent" points="268,-37 268,-191 508,-191 508,-37 268,-37"/>
<polygon fill="#f5f5f5" stroke="transparent" points="270,-167 270,-189 506,-189 506,-167 270,-167"/>
<polygon fill="none" stroke="black" points="270,-167 270,-189 506,-189 506,-167 270,-167"/>
<text text-anchor="start" x="275" y="-176.2" font-family="Helvetica,sans-Serif" font-weight="bold" font-size="11.00">vegetation</text>
<text text-anchor="start" x="464" y="-175.2" font-family="Helvetica,sans-Serif" font-size="11.00">[table]</text>
<polygon fill="none" stroke="black" points="270,-145 270,-167 370,-167 370,-145 270,-145"/>
<image xlink:href="../../images/primaryKeys.png" width="11px" height="12px" preserveAspectRatio="xMinYMin meet" x="275" y="-162"/>
<text text-anchor="start" x="290" y="-153.2" font-family="Helvetica,sans-Serif" font-size="11.00">id</text>
<polygon fill="none" stroke="black" points="370,-145 370,-167 506,-167 506,-145 370,-145"/>
<text text-anchor="start" x="373" y="-153.2" font-family="Helvetica,sans-Serif" font-size="11.00">uuid[2147483647]</text>
<polygon fill="none" stroke="black" points="270,-123 270,-145 370,-145 370,-123 270,-123"/>
<image xlink:href="../../images/foreignKeys.png" width="11px" height="12px" preserveAspectRatio="xMinYMin meet" x="275" y="-140"/>
<text text-anchor="start" x="290" y="-131.2" font-family="Helvetica,sans-Serif" font-size="11.00">fk_kind</text>
<polygon fill="none" stroke="black" points="370,-123 370,-145 506,-145 506,-123 370,-123"/>
<text text-anchor="start" x="373" y="-131.2" font-family="Helvetica,sans-Serif" font-size="11.00">int4[10]</text>
<polygon fill="none" stroke="black" points="270,-101 270,-123 370,-123 370,-101 270,-101"/>
<text text-anchor="start" x="290" y="-109.2" font-family="Helvetica,sans-Serif" font-size="11.00">remark</text>
<polygon fill="none" stroke="black" points="370,-101 370,-123 506,-123 506,-101 370,-101"/>
<text text-anchor="start" x="373" y="-109.2" font-family="Helvetica,sans-Serif" font-size="11.00">text[2147483647]</text>
<polygon fill="none" stroke="black" points="270,-79 270,-101 370,-101 370,-79 270,-79"/>
<text text-anchor="start" x="290" y="-87.2" font-family="Helvetica,sans-Serif" font-size="11.00">the_geom</text>
<polygon fill="none" stroke="black" points="370,-79 370,-101 506,-101 506,-79 370,-79"/>
<text text-anchor="start" x="373" y="-87.2" font-family="Helvetica,sans-Serif" font-size="11.00">geometry[2147483647]</text>
<polygon fill="none" stroke="black" points="270,-57 270,-79 370,-79 370,-57 270,-57"/>
<text text-anchor="start" x="290" y="-65.2" font-family="Helvetica,sans-Serif" font-size="11.00">display_txt</text>
<polygon fill="none" stroke="black" points="370,-57 370,-79 506,-79 506,-57 370,-57"/>
<text text-anchor="start" x="373" y="-65.2" font-family="Helvetica,sans-Serif" font-size="11.00">text[2147483647]</text>
<polygon fill="#ffffff" stroke="transparent" points="270,-39 270,-57 506,-57 506,-39 270,-39"/>
<polygon fill="none" stroke="black" points="270,-39 270,-57 506,-57 506,-39 270,-39"/>
<polygon fill="#ffffff" stroke="transparent" points="271,-40 271,-56 353,-56 353,-40 271,-40"/>
<text text-anchor="start" x="273" y="-45.2" font-family="Helvetica,sans-Serif" font-size="11.00">&lt; 1</text>
<polygon fill="#ffffff" stroke="transparent" points="353,-40 353,-56 423,-56 423,-40 353,-40"/>
<text text-anchor="start" x="384" y="-45.2" font-family="Helvetica,sans-Serif" font-size="11.00"> &#160;</text>
<polygon fill="#ffffff" stroke="transparent" points="423,-40 423,-56 505,-56 505,-40 423,-40"/>
<text text-anchor="start" x="483" y="-45.2" font-family="Helvetica,sans-Serif" font-size="11.00">0 &gt;</text>
<polygon fill="black" stroke="black" points="353,-40 353,-56 353,-56 353,-40 353,-40"/>
<polygon fill="black" stroke="black" points="423,-40 423,-56 423,-56 423,-40 423,-40"/>
<polygon fill="none" stroke="black" stroke-width="2" points="269,-38 269,-190 507,-190 507,-38 269,-38"/>
</a>
</g>
</g>
<!-- tce_vl.vegetation_kind -->
<g id="node2" class="node">
<title>tce_vl.vegetation_kind</title>
<g id="a_node2"><a xlink:href="../../../tce_vl/tables/vegetation_kind.html" xlink:title="tce_vl.vegetation_kind" target="_top">
<polygon fill="#ffffff" stroke="transparent" points="8,-105 8,-163 219,-163 219,-105 8,-105"/>
<polygon fill="#f5f5f5" stroke="transparent" points="8.5,-141 8.5,-163 219.5,-163 219.5,-141 8.5,-141"/>
<polygon fill="none" stroke="black" points="8.5,-141 8.5,-163 219.5,-163 219.5,-141 8.5,-141"/>
<text text-anchor="start" x="13.5" y="-150.2" font-family="Helvetica,sans-Serif" font-weight="bold" font-size="11.00">tce_vl.vegetation_kind</text>
<text text-anchor="start" x="177.5" y="-149.2" font-family="Helvetica,sans-Serif" font-size="11.00">[table]</text>
<polygon fill="none" stroke="black" points="8.5,-123 8.5,-141 219.5,-141 219.5,-123 8.5,-123"/>
<text text-anchor="start" x="11.5" y="-129.2" font-family="Helvetica,sans-Serif" font-size="11.00">...</text>
<polygon fill="#ffffff" stroke="transparent" points="8.5,-105 8.5,-123 219.5,-123 219.5,-105 8.5,-105"/>
<polygon fill="none" stroke="black" points="8.5,-105 8.5,-123 219.5,-123 219.5,-105 8.5,-105"/>
<polygon fill="#ffffff" stroke="transparent" points="9.5,-106 9.5,-122 65.5,-122 65.5,-106 9.5,-106"/>
<text text-anchor="start" x="11.5" y="-111.2" font-family="Helvetica,sans-Serif" font-size="11.00"> &#160;</text>
<polygon fill="#ffffff" stroke="transparent" points="65.5,-106 65.5,-122 150.5,-122 150.5,-106 65.5,-106"/>
<text text-anchor="start" x="89.5" y="-111.2" font-family="Helvetica,sans-Serif" font-size="11.00">0 rows</text>
<polygon fill="#ffffff" stroke="transparent" points="150.5,-106 150.5,-122 218.5,-122 218.5,-106 150.5,-106"/>
<text text-anchor="start" x="196.5" y="-111.2" font-family="Helvetica,sans-Serif" font-size="11.00">1 &gt;</text>
<polygon fill="black" stroke="black" points="65.5,-106 65.5,-122 65.5,-122 65.5,-106 65.5,-106"/>
<polygon fill="black" stroke="black" points="150.5,-106 150.5,-122 150.5,-122 150.5,-106 150.5,-106"/>
</a>
</g>
</g>
<!-- vegetation&#45;&gt;tce_vl.vegetation_kind -->
<g id="edge1" class="edge">
<title>vegetation:w&#45;&gt;tce_vl.vegetation_kind:e</title>
<path fill="none" stroke="black" d="M254.5,-134C245.48,-134 236.29,-134 227.15,-134"/>
<polygon fill="black" stroke="black" points="261,-134 269,-137.6 265,-134 269,-134 269,-134 269,-134 265,-134 269,-130.4 261,-134 261,-134"/>
<ellipse fill="none" stroke="black" cx="257.8" cy="-134" rx="3.2" ry="3.2"/>
</g>
</g>
</svg>
