<?xml version="1.0" encoding="UTF-8" standalone="no"?>
<!DOCTYPE svg PUBLIC "-//W3C//DTD SVG 1.1//EN"
 "http://www.w3.org/Graphics/SVG/1.1/DTD/svg11.dtd">
<!-- Generated by graphviz version 2.43.0 (0)
 -->
<!-- Title: orphans Pages: 1 -->
<svg width="222pt" height="170pt"
 viewBox="0.00 0.00 222.00 170.00" xmlns="http://www.w3.org/2000/svg" xmlns:xlink="http://www.w3.org/1999/xlink">
<g id="graph0" class="graph" transform="scale(1 1) rotate(0) translate(4 166)">
<title>orphans</title>
<polygon fill="#ffffff" stroke="transparent" points="-4,4 -4,-166 218,-166 218,4 -4,4"/>
<!-- file -->
<g id="node1" class="node">
<title>file</title>
<g id="a_node1"><a xlink:href="../../tables/file.html" xlink:title="file" target="_top">
<polygon fill="#ffffff" stroke="transparent" points="8,-4 8,-158 206,-158 206,-4 8,-4"/>
<polygon fill="#f5f5f5" stroke="transparent" points="10,-134 10,-156 204,-156 204,-134 10,-134"/>
<polygon fill="none" stroke="black" points="10,-134 10,-156 204,-156 204,-134 10,-134"/>
<text text-anchor="start" x="14.5" y="-143.2" font-family="Helvetica,sans-Serif" font-weight="bold" font-size="11.00">file</text>
<text text-anchor="start" x="162" y="-142.2" font-family="Helvetica,sans-Serif" font-size="11.00">[table]</text>
<polygon fill="none" stroke="black" points="10,-112 10,-134 98,-134 98,-112 10,-112"/>
<image xlink:href="../../images/primaryKeys.png" width="11px" height="12px" preserveAspectRatio="xMinYMin meet" x="15" y="-129"/>
<text text-anchor="start" x="30" y="-120.2" font-family="Helvetica,sans-Serif" font-size="11.00">id</text>
<polygon fill="none" stroke="black" points="98,-112 98,-134 204,-134 204,-112 98,-112"/>
<text text-anchor="start" x="101" y="-120.2" font-family="Helvetica,sans-Serif" font-size="11.00">uuid[2147483647]</text>
<polygon fill="none" stroke="black" points="10,-90 10,-112 98,-112 98,-90 10,-90"/>
<text text-anchor="start" x="30" y="-98.2" font-family="Helvetica,sans-Serif" font-size="11.00">identifier</text>
<polygon fill="none" stroke="black" points="98,-90 98,-112 204,-112 204,-90 98,-90"/>
<text text-anchor="start" x="101" y="-98.2" font-family="Helvetica,sans-Serif" font-size="11.00">text[2147483647]</text>
<polygon fill="none" stroke="black" points="10,-68 10,-90 98,-90 98,-68 10,-68"/>
<text text-anchor="start" x="30" y="-76.2" font-family="Helvetica,sans-Serif" font-size="11.00">object</text>
<polygon fill="none" stroke="black" points="98,-68 98,-90 204,-90 204,-68 98,-68"/>
<text text-anchor="start" x="101" y="-76.2" font-family="Helvetica,sans-Serif" font-size="11.00">text[2147483647]</text>
<polygon fill="none" stroke="black" points="10,-46 10,-68 98,-68 98,-46 10,-46"/>
<text text-anchor="start" x="30" y="-54.2" font-family="Helvetica,sans-Serif" font-size="11.00">filepath</text>
<polygon fill="none" stroke="black" points="98,-46 98,-68 204,-68 204,-46 98,-46"/>
<text text-anchor="start" x="101" y="-54.2" font-family="Helvetica,sans-Serif" font-size="11.00">text[2147483647]</text>
<polygon fill="none" stroke="black" points="10,-24 10,-46 98,-46 98,-24 10,-24"/>
<text text-anchor="start" x="30" y="-32.2" font-family="Helvetica,sans-Serif" font-size="11.00">remark</text>
<polygon fill="none" stroke="black" points="98,-24 98,-46 204,-46 204,-24 98,-24"/>
<text text-anchor="start" x="101" y="-32.2" font-family="Helvetica,sans-Serif" font-size="11.00">text[2147483647]</text>
<polygon fill="#ffffff" stroke="transparent" points="10,-6 10,-24 204,-24 204,-6 10,-6"/>
<polygon fill="none" stroke="black" points="10,-6 10,-24 204,-24 204,-6 10,-6"/>
<polygon fill="#ffffff" stroke="transparent" points="11,-7 11,-23 79,-23 79,-7 11,-7"/>
<text text-anchor="start" x="13" y="-12.2" font-family="Helvetica,sans-Serif" font-size="11.00">&lt; 0</text>
<polygon fill="#ffffff" stroke="transparent" points="79,-7 79,-23 135,-23 135,-7 79,-7"/>
<text text-anchor="start" x="103" y="-12.2" font-family="Helvetica,sans-Serif" font-size="11.00"> &#160;</text>
<polygon fill="#ffffff" stroke="transparent" points="135,-7 135,-23 203,-23 203,-7 135,-7"/>
<text text-anchor="start" x="181" y="-12.2" font-family="Helvetica,sans-Serif" font-size="11.00">0 &gt;</text>
<polygon fill="black" stroke="black" points="79,-7 79,-23 79,-23 79,-7 79,-7"/>
<polygon fill="black" stroke="black" points="135,-7 135,-23 135,-23 135,-7 135,-7"/>
<polygon fill="none" stroke="black" stroke-width="2" points="9,-5 9,-157 205,-157 205,-5 9,-5"/>
</a>
</g>
</g>
</g>
</svg>
