<?xml version="1.0" encoding="UTF-8" standalone="no"?>
<!DOCTYPE svg PUBLIC "-//W3C//DTD SVG 1.1//EN"
 "http://www.w3.org/Graphics/SVG/1.1/DTD/svg11.dtd">
<!-- Generated by graphviz version 2.43.0 (0)
 -->
<!-- Title: oneDegreeRelationshipsDiagram Pages: 1 -->
<svg width="945pt" height="641pt"
 viewBox="0.00 0.00 945.00 641.26" xmlns="http://www.w3.org/2000/svg" xmlns:xlink="http://www.w3.org/1999/xlink">
<g id="graph0" class="graph" transform="scale(1 1) rotate(0) translate(4 637.26)">
<title>oneDegreeRelationshipsDiagram</title>
<polygon fill="#ffffff" stroke="transparent" points="-4,4 -4,-637.26 941,-637.26 941,4 -4,4"/>
<text text-anchor="middle" x="79.5" y="-7.2" font-family="Helvetica,sans-Serif" font-size="11.00">Generated by SchemaSpy</text>
<!-- contract -->
<g id="node1" class="node">
<title>contract</title>
<g id="a_node1"><a xlink:href="../../tables/contract.html" xlink:title="contract" target="_top">
<polygon fill="#ffffff" stroke="transparent" points="471,-247 471,-555 740,-555 740,-247 471,-247"/>
<polygon fill="#f5f5f5" stroke="transparent" points="473.5,-531 473.5,-553 738.5,-553 738.5,-531 473.5,-531"/>
<polygon fill="none" stroke="black" points="473.5,-531 473.5,-553 738.5,-553 738.5,-531 473.5,-531"/>
<text text-anchor="start" x="478.5" y="-540.2" font-family="Helvetica,sans-Serif" font-weight="bold" font-size="11.00">contract</text>
<text text-anchor="start" x="696.5" y="-539.2" font-family="Helvetica,sans-Serif" font-size="11.00">[table]</text>
<polygon fill="none" stroke="black" points="473.5,-509 473.5,-531 632.5,-531 632.5,-509 473.5,-509"/>
<image xlink:href="../../images/primaryKeys.png" width="11px" height="12px" preserveAspectRatio="xMinYMin meet" x="478.5" y="-526"/>
<text text-anchor="start" x="493.5" y="-517.2" font-family="Helvetica,sans-Serif" font-size="11.00">id</text>
<polygon fill="none" stroke="black" points="632.5,-509 632.5,-531 738.5,-531 738.5,-509 632.5,-509"/>
<text text-anchor="start" x="635.5" y="-517.2" font-family="Helvetica,sans-Serif" font-size="11.00">uuid[2147483647]</text>
<polygon fill="none" stroke="black" points="473.5,-487 473.5,-509 632.5,-509 632.5,-487 473.5,-487"/>
<image xlink:href="../../images/foreignKeys.png" width="11px" height="12px" preserveAspectRatio="xMinYMin meet" x="478.5" y="-504"/>
<text text-anchor="start" x="493.5" y="-495.2" font-family="Helvetica,sans-Serif" font-size="11.00">fk_kind</text>
<polygon fill="none" stroke="black" points="632.5,-487 632.5,-509 738.5,-509 738.5,-487 632.5,-487"/>
<text text-anchor="start" x="635.5" y="-495.2" font-family="Helvetica,sans-Serif" font-size="11.00">int4[10]</text>
<polygon fill="none" stroke="black" points="473.5,-465 473.5,-487 632.5,-487 632.5,-465 473.5,-465"/>
<text text-anchor="start" x="493.5" y="-473.2" font-family="Helvetica,sans-Serif" font-size="11.00">identifier</text>
<polygon fill="none" stroke="black" points="632.5,-465 632.5,-487 738.5,-487 738.5,-465 632.5,-465"/>
<text text-anchor="start" x="635.5" y="-473.2" font-family="Helvetica,sans-Serif" font-size="11.00">text[2147483647]</text>
<polygon fill="none" stroke="black" points="473.5,-443 473.5,-465 632.5,-465 632.5,-443 473.5,-443"/>
<text text-anchor="start" x="493.5" y="-451.2" font-family="Helvetica,sans-Serif" font-size="11.00">begin_date</text>
<polygon fill="none" stroke="black" points="632.5,-443 632.5,-465 738.5,-465 738.5,-443 632.5,-443"/>
<text text-anchor="start" x="635.5" y="-451.2" font-family="Helvetica,sans-Serif" font-size="11.00">date[13]</text>
<polygon fill="none" stroke="black" points="473.5,-421 473.5,-443 632.5,-443 632.5,-421 473.5,-421"/>
<text text-anchor="start" x="493.5" y="-429.2" font-family="Helvetica,sans-Serif" font-size="11.00">end_date</text>
<polygon fill="none" stroke="black" points="632.5,-421 632.5,-443 738.5,-443 738.5,-421 632.5,-421"/>
<text text-anchor="start" x="635.5" y="-429.2" font-family="Helvetica,sans-Serif" font-size="11.00">date[13]</text>
<polygon fill="none" stroke="black" points="473.5,-399 473.5,-421 632.5,-421 632.5,-399 473.5,-399"/>
<text text-anchor="start" x="493.5" y="-407.2" font-family="Helvetica,sans-Serif" font-size="11.00">approval_date</text>
<polygon fill="none" stroke="black" points="632.5,-399 632.5,-421 738.5,-421 738.5,-399 632.5,-399"/>
<text text-anchor="start" x="635.5" y="-407.2" font-family="Helvetica,sans-Serif" font-size="11.00">date[13]</text>
<polygon fill="none" stroke="black" points="473.5,-377 473.5,-399 632.5,-399 632.5,-377 473.5,-377"/>
<text text-anchor="start" x="493.5" y="-385.2" font-family="Helvetica,sans-Serif" font-size="11.00">valid</text>
<polygon fill="none" stroke="black" points="632.5,-377 632.5,-399 738.5,-399 738.5,-377 632.5,-377"/>
<text text-anchor="start" x="635.5" y="-385.2" font-family="Helvetica,sans-Serif" font-size="11.00">bool[1]</text>
<polygon fill="none" stroke="black" points="473.5,-355 473.5,-377 632.5,-377 632.5,-355 473.5,-355"/>
<text text-anchor="start" x="493.5" y="-363.2" font-family="Helvetica,sans-Serif" font-size="11.00">invoiced</text>
<polygon fill="none" stroke="black" points="632.5,-355 632.5,-377 738.5,-377 738.5,-355 632.5,-355"/>
<text text-anchor="start" x="635.5" y="-363.2" font-family="Helvetica,sans-Serif" font-size="11.00">bool[1]</text>
<polygon fill="none" stroke="black" points="473.5,-333 473.5,-355 632.5,-355 632.5,-333 473.5,-333"/>
<image xlink:href="../../images/foreignKeys.png" width="11px" height="12px" preserveAspectRatio="xMinYMin meet" x="478.5" y="-350"/>
<text text-anchor="start" x="493.5" y="-341.2" font-family="Helvetica,sans-Serif" font-size="11.00">fk_contract_person</text>
<polygon fill="none" stroke="black" points="632.5,-333 632.5,-355 738.5,-355 738.5,-333 632.5,-333"/>
<text text-anchor="start" x="635.5" y="-341.2" font-family="Helvetica,sans-Serif" font-size="11.00">uuid[2147483647]</text>
<polygon fill="none" stroke="black" points="473.5,-311 473.5,-333 632.5,-333 632.5,-311 473.5,-311"/>
<image xlink:href="../../images/foreignKeys.png" width="11px" height="12px" preserveAspectRatio="xMinYMin meet" x="478.5" y="-328"/>
<text text-anchor="start" x="493.5" y="-319.2" font-family="Helvetica,sans-Serif" font-size="11.00">fk_unit</text>
<polygon fill="none" stroke="black" points="632.5,-311 632.5,-333 738.5,-333 738.5,-311 632.5,-311"/>
<text text-anchor="start" x="635.5" y="-319.2" font-family="Helvetica,sans-Serif" font-size="11.00">uuid[2147483647]</text>
<polygon fill="none" stroke="black" points="473.5,-289 473.5,-311 632.5,-311 632.5,-289 473.5,-289"/>
<text text-anchor="start" x="493.5" y="-297.2" font-family="Helvetica,sans-Serif" font-size="11.00">remark</text>
<polygon fill="none" stroke="black" points="632.5,-289 632.5,-311 738.5,-311 738.5,-289 632.5,-289"/>
<text text-anchor="start" x="635.5" y="-297.2" font-family="Helvetica,sans-Serif" font-size="11.00">text[2147483647]</text>
<polygon fill="none" stroke="black" points="473.5,-267 473.5,-289 632.5,-289 632.5,-267 473.5,-267"/>
<text text-anchor="start" x="493.5" y="-275.2" font-family="Helvetica,sans-Serif" font-size="11.00">display_txt</text>
<polygon fill="none" stroke="black" points="632.5,-267 632.5,-289 738.5,-289 738.5,-267 632.5,-267"/>
<text text-anchor="start" x="635.5" y="-275.2" font-family="Helvetica,sans-Serif" font-size="11.00">text[2147483647]</text>
<polygon fill="#ffffff" stroke="transparent" points="473.5,-249 473.5,-267 738.5,-267 738.5,-249 473.5,-249"/>
<polygon fill="none" stroke="black" points="473.5,-249 473.5,-267 738.5,-267 738.5,-249 473.5,-249"/>
<polygon fill="#ffffff" stroke="transparent" points="474.5,-250 474.5,-266 566.5,-266 566.5,-250 474.5,-250"/>
<text text-anchor="start" x="476.5" y="-255.2" font-family="Helvetica,sans-Serif" font-size="11.00">&lt; 3</text>
<polygon fill="#ffffff" stroke="transparent" points="566.5,-250 566.5,-266 646.5,-266 646.5,-250 566.5,-250"/>
<text text-anchor="start" x="602.5" y="-255.2" font-family="Helvetica,sans-Serif" font-size="11.00"> &#160;</text>
<polygon fill="#ffffff" stroke="transparent" points="646.5,-250 646.5,-266 737.5,-266 737.5,-250 646.5,-250"/>
<text text-anchor="start" x="715.5" y="-255.2" font-family="Helvetica,sans-Serif" font-size="11.00">1 &gt;</text>
<polygon fill="black" stroke="black" points="566.5,-250 566.5,-266 566.5,-266 566.5,-250 566.5,-250"/>
<polygon fill="black" stroke="black" points="646.5,-250 646.5,-266 646.5,-266 646.5,-250 646.5,-250"/>
<polygon fill="none" stroke="black" stroke-width="2" points="472,-248 472,-554 739,-554 739,-248 472,-248"/>
</a>
</g>
</g>
<!-- contact -->
<g id="node2" class="node">
<title>contact</title>
<g id="a_node2"><a xlink:href="../../tables/contact.html" xlink:title="contact" target="_top">
<polygon fill="#ffffff" stroke="transparent" points="8,-50 8,-394 180,-394 180,-50 8,-50"/>
<polygon fill="#f5f5f5" stroke="transparent" points="8,-372 8,-394 180,-394 180,-372 8,-372"/>
<polygon fill="none" stroke="black" points="8,-372 8,-394 180,-394 180,-372 8,-372"/>
<text text-anchor="start" x="13" y="-381.2" font-family="Helvetica,sans-Serif" font-weight="bold" font-size="11.00">contact</text>
<text text-anchor="start" x="138" y="-380.2" font-family="Helvetica,sans-Serif" font-size="11.00">[table]</text>
<polygon fill="none" stroke="black" points="8,-350 8,-372 180,-372 180,-350 8,-350"/>
<image xlink:href="../../images/primaryKeys.png" width="11px" height="12px" preserveAspectRatio="xMinYMin meet" x="13" y="-367"/>
<text text-anchor="start" x="28" y="-358.2" font-family="Helvetica,sans-Serif" font-size="11.00">id</text>
<polygon fill="#ffffff" stroke="transparent" points="8,-328 8,-350 180,-350 180,-328 8,-328"/>
<polygon fill="none" stroke="black" points="8,-328 8,-350 180,-350 180,-328 8,-328"/>
<image xlink:href="../../images/foreignKeys.png" width="11px" height="12px" preserveAspectRatio="xMinYMin meet" x="13" y="-345"/>
<text text-anchor="start" x="28" y="-336.2" font-family="Helvetica,sans-Serif" font-size="11.00">fk_kind</text>
<polygon fill="#ffffff" stroke="transparent" points="8,-306 8,-328 180,-328 180,-306 8,-306"/>
<polygon fill="none" stroke="black" points="8,-306 8,-328 180,-328 180,-306 8,-306"/>
<text text-anchor="start" x="28" y="-314.2" font-family="Helvetica,sans-Serif" font-size="11.00">fk_organisation</text>
<polygon fill="#ffffff" stroke="transparent" points="8,-284 8,-306 180,-306 180,-284 8,-284"/>
<polygon fill="none" stroke="black" points="8,-284 8,-306 180,-306 180,-284 8,-284"/>
<image xlink:href="../../images/foreignKeys.png" width="11px" height="12px" preserveAspectRatio="xMinYMin meet" x="13" y="-301"/>
<text text-anchor="start" x="28" y="-292.2" font-family="Helvetica,sans-Serif" font-size="11.00">fk_civility</text>
<polygon fill="#ffffff" stroke="transparent" points="8,-262 8,-284 180,-284 180,-262 8,-262"/>
<polygon fill="none" stroke="black" points="8,-262 8,-284 180,-284 180,-262 8,-262"/>
<text text-anchor="start" x="28" y="-270.2" font-family="Helvetica,sans-Serif" font-size="11.00">first_name</text>
<polygon fill="#ffffff" stroke="transparent" points="8,-240 8,-262 180,-262 180,-240 8,-240"/>
<polygon fill="none" stroke="black" points="8,-240 8,-262 180,-262 180,-240 8,-240"/>
<text text-anchor="start" x="28" y="-248.2" font-family="Helvetica,sans-Serif" font-size="11.00">last_name</text>
<polygon fill="#ffffff" stroke="transparent" points="8,-218 8,-240 180,-240 180,-218 8,-218"/>
<polygon fill="none" stroke="black" points="8,-218 8,-240 180,-240 180,-218 8,-218"/>
<text text-anchor="start" x="28" y="-226.2" font-family="Helvetica,sans-Serif" font-size="11.00">street_name</text>
<polygon fill="#ffffff" stroke="transparent" points="8,-196 8,-218 180,-218 180,-196 8,-196"/>
<polygon fill="none" stroke="black" points="8,-196 8,-218 180,-218 180,-196 8,-196"/>
<text text-anchor="start" x="28" y="-204.2" font-family="Helvetica,sans-Serif" font-size="11.00">house_number</text>
<polygon fill="#ffffff" stroke="transparent" points="8,-174 8,-196 180,-196 180,-174 8,-174"/>
<polygon fill="none" stroke="black" points="8,-174 8,-196 180,-196 180,-174 8,-174"/>
<text text-anchor="start" x="28" y="-182.2" font-family="Helvetica,sans-Serif" font-size="11.00">address_supplement</text>
<polygon fill="#ffffff" stroke="transparent" points="8,-152 8,-174 180,-174 180,-152 8,-152"/>
<polygon fill="none" stroke="black" points="8,-152 8,-174 180,-174 180,-152 8,-152"/>
<text text-anchor="start" x="28" y="-160.2" font-family="Helvetica,sans-Serif" font-size="11.00">city</text>
<polygon fill="#ffffff" stroke="transparent" points="8,-130 8,-152 180,-152 180,-130 8,-130"/>
<polygon fill="none" stroke="black" points="8,-130 8,-152 180,-152 180,-130 8,-130"/>
<text text-anchor="start" x="28" y="-138.2" font-family="Helvetica,sans-Serif" font-size="11.00">postal_code</text>
<polygon fill="#ffffff" stroke="transparent" points="8,-108 8,-130 180,-130 180,-108 8,-108"/>
<polygon fill="none" stroke="black" points="8,-108 8,-130 180,-130 180,-108 8,-108"/>
<text text-anchor="start" x="28" y="-116.2" font-family="Helvetica,sans-Serif" font-size="11.00">phone</text>
<polygon fill="#ffffff" stroke="transparent" points="8,-86 8,-108 180,-108 180,-86 8,-86"/>
<polygon fill="none" stroke="black" points="8,-86 8,-108 180,-108 180,-86 8,-86"/>
<text text-anchor="start" x="28" y="-94.2" font-family="Helvetica,sans-Serif" font-size="11.00">email</text>
<polygon fill="none" stroke="black" points="8,-68 8,-86 180,-86 180,-68 8,-68"/>
<text text-anchor="start" x="11" y="-74.2" font-family="Helvetica,sans-Serif" font-size="11.00">...</text>
<polygon fill="#ffffff" stroke="transparent" points="8,-50 8,-68 180,-68 180,-50 8,-50"/>
<polygon fill="none" stroke="black" points="8,-50 8,-68 180,-68 180,-50 8,-50"/>
<polygon fill="#ffffff" stroke="transparent" points="9,-51 9,-67 70,-67 70,-51 9,-51"/>
<text text-anchor="start" x="11" y="-56.2" font-family="Helvetica,sans-Serif" font-size="11.00">&lt; 2</text>
<polygon fill="#ffffff" stroke="transparent" points="70,-51 70,-67 119,-67 119,-51 70,-51"/>
<text text-anchor="start" x="90.5" y="-56.2" font-family="Helvetica,sans-Serif" font-size="11.00"> &#160;</text>
<polygon fill="#ffffff" stroke="transparent" points="119,-51 119,-67 179,-67 179,-51 119,-51"/>
<text text-anchor="start" x="157" y="-56.2" font-family="Helvetica,sans-Serif" font-size="11.00">4 &gt;</text>
<polygon fill="black" stroke="black" points="70,-51 70,-67 70,-67 70,-51 70,-51"/>
<polygon fill="black" stroke="black" points="119,-51 119,-67 119,-67 119,-51 119,-51"/>
</a>
</g>
</g>
<!-- contract&#45;&gt;contact -->
<g id="edge1" class="edge">
<title>contract:w&#45;&gt;contact:e</title>
<path fill="none" stroke="black" d="M458.06,-344.45C449.26,-345.07 442.99,-346.18 430,-347 319.38,-354.01 291.84,-361 181,-361"/>
<polygon fill="black" stroke="black" points="464.5,-344.25 472.61,-347.6 468.5,-344.13 472.5,-344 472.5,-344 472.5,-344 468.5,-344.13 472.39,-340.4 464.5,-344.25 464.5,-344.25"/>
<ellipse fill="none" stroke="black" cx="461.31" cy="-344.35" rx="3.2" ry="3.2"/>
</g>
<!-- tce_vl.contract_kind -->
<g id="node3" class="node">
<title>tce_vl.contract_kind</title>
<g id="a_node3"><a xlink:href="../../../tce_vl/tables/contract_kind.html" xlink:title="tce_vl.contract_kind" target="_top">
<polygon fill="#ffffff" stroke="transparent" points="229,-469 229,-527 422,-527 422,-469 229,-469"/>
<polygon fill="#f5f5f5" stroke="transparent" points="229.5,-505 229.5,-527 422.5,-527 422.5,-505 229.5,-505"/>
<polygon fill="none" stroke="black" points="229.5,-505 229.5,-527 422.5,-527 422.5,-505 229.5,-505"/>
<text text-anchor="start" x="234.5" y="-514.2" font-family="Helvetica,sans-Serif" font-weight="bold" font-size="11.00">tce_vl.contract_kind</text>
<text text-anchor="start" x="380.5" y="-513.2" font-family="Helvetica,sans-Serif" font-size="11.00">[table]</text>
<polygon fill="none" stroke="black" points="229.5,-487 229.5,-505 422.5,-505 422.5,-487 229.5,-487"/>
<text text-anchor="start" x="232.5" y="-493.2" font-family="Helvetica,sans-Serif" font-size="11.00">...</text>
<polygon fill="#ffffff" stroke="transparent" points="229.5,-469 229.5,-487 422.5,-487 422.5,-469 229.5,-469"/>
<polygon fill="none" stroke="black" points="229.5,-469 229.5,-487 422.5,-487 422.5,-469 229.5,-469"/>
<polygon fill="#ffffff" stroke="transparent" points="230.5,-470 230.5,-486 280.5,-486 280.5,-470 230.5,-470"/>
<text text-anchor="start" x="232.5" y="-475.2" font-family="Helvetica,sans-Serif" font-size="11.00"> &#160;</text>
<polygon fill="#ffffff" stroke="transparent" points="280.5,-470 280.5,-486 359.5,-486 359.5,-470 280.5,-470"/>
<text text-anchor="start" x="301.5" y="-475.2" font-family="Helvetica,sans-Serif" font-size="11.00">0 rows</text>
<polygon fill="#ffffff" stroke="transparent" points="359.5,-470 359.5,-486 421.5,-486 421.5,-470 359.5,-470"/>
<text text-anchor="start" x="399.5" y="-475.2" font-family="Helvetica,sans-Serif" font-size="11.00">1 &gt;</text>
<polygon fill="black" stroke="black" points="280.5,-470 280.5,-486 280.5,-486 280.5,-470 280.5,-470"/>
<polygon fill="black" stroke="black" points="359.5,-470 359.5,-486 359.5,-486 359.5,-470 359.5,-470"/>
</a>
</g>
</g>
<!-- contract&#45;&gt;tce_vl.contract_kind -->
<g id="edge2" class="edge">
<title>contract:w&#45;&gt;tce_vl.contract_kind:e</title>
<path fill="none" stroke="black" d="M457.84,-498C448.7,-498 439.4,-498 430.19,-498"/>
<polygon fill="black" stroke="black" points="464.5,-498 472.5,-501.6 468.5,-498 472.5,-498 472.5,-498 472.5,-498 468.5,-498 472.5,-494.4 464.5,-498 464.5,-498"/>
<ellipse fill="none" stroke="black" cx="461.3" cy="-498" rx="3.2" ry="3.2"/>
</g>
<!-- unit -->
<g id="node4" class="node">
<title>unit</title>
<g id="a_node4"><a xlink:href="../../tables/unit.html" xlink:title="unit" target="_top">
<polygon fill="#ffffff" stroke="transparent" points="249,-37 249,-337 402,-337 402,-37 249,-37"/>
<polygon fill="#f5f5f5" stroke="transparent" points="249.5,-315 249.5,-337 402.5,-337 402.5,-315 249.5,-315"/>
<polygon fill="none" stroke="black" points="249.5,-315 249.5,-337 402.5,-337 402.5,-315 249.5,-315"/>
<text text-anchor="start" x="254.5" y="-324.2" font-family="Helvetica,sans-Serif" font-weight="bold" font-size="11.00">unit</text>
<text text-anchor="start" x="360.5" y="-323.2" font-family="Helvetica,sans-Serif" font-size="11.00">[table]</text>
<polygon fill="none" stroke="black" points="249.5,-293 249.5,-315 402.5,-315 402.5,-293 249.5,-293"/>
<image xlink:href="../../images/primaryKeys.png" width="11px" height="12px" preserveAspectRatio="xMinYMin meet" x="254.5" y="-310"/>
<text text-anchor="start" x="269.5" y="-301.2" font-family="Helvetica,sans-Serif" font-size="11.00">id</text>
<polygon fill="#ffffff" stroke="transparent" points="249.5,-271 249.5,-293 402.5,-293 402.5,-271 249.5,-271"/>
<polygon fill="none" stroke="black" points="249.5,-271 249.5,-293 402.5,-293 402.5,-271 249.5,-271"/>
<text text-anchor="start" x="269.5" y="-279.2" font-family="Helvetica,sans-Serif" font-size="11.00">identifier</text>
<polygon fill="none" stroke="black" points="249.5,-249 249.5,-271 402.5,-271 402.5,-249 249.5,-249"/>
<image xlink:href="../../images/foreignKeys.png" width="11px" height="12px" preserveAspectRatio="xMinYMin meet" x="254.5" y="-266"/>
<text text-anchor="start" x="269.5" y="-257.2" font-family="Helvetica,sans-Serif" font-size="11.00">fk_company</text>
<polygon fill="none" stroke="black" points="249.5,-227 249.5,-249 402.5,-249 402.5,-227 249.5,-227"/>
<image xlink:href="../../images/foreignKeys.png" width="11px" height="12px" preserveAspectRatio="xMinYMin meet" x="254.5" y="-244"/>
<text text-anchor="start" x="269.5" y="-235.2" font-family="Helvetica,sans-Serif" font-size="11.00">fk_sector</text>
<polygon fill="none" stroke="black" points="249.5,-205 249.5,-227 402.5,-227 402.5,-205 249.5,-205"/>
<image xlink:href="../../images/foreignKeys.png" width="11px" height="12px" preserveAspectRatio="xMinYMin meet" x="254.5" y="-222"/>
<text text-anchor="start" x="269.5" y="-213.2" font-family="Helvetica,sans-Serif" font-size="11.00">fk_cemetery</text>
<polygon fill="none" stroke="black" points="249.5,-183 249.5,-205 402.5,-205 402.5,-183 249.5,-183"/>
<image xlink:href="../../images/foreignKeys.png" width="11px" height="12px" preserveAspectRatio="xMinYMin meet" x="254.5" y="-200"/>
<text text-anchor="start" x="269.5" y="-191.2" font-family="Helvetica,sans-Serif" font-size="11.00">fk_size</text>
<polygon fill="none" stroke="black" points="249.5,-161 249.5,-183 402.5,-183 402.5,-161 249.5,-161"/>
<image xlink:href="../../images/foreignKeys.png" width="11px" height="12px" preserveAspectRatio="xMinYMin meet" x="254.5" y="-178"/>
<text text-anchor="start" x="269.5" y="-169.2" font-family="Helvetica,sans-Serif" font-size="11.00">fk_kind</text>
<polygon fill="none" stroke="black" points="249.5,-139 249.5,-161 402.5,-161 402.5,-139 249.5,-139"/>
<image xlink:href="../../images/foreignKeys.png" width="11px" height="12px" preserveAspectRatio="xMinYMin meet" x="254.5" y="-156"/>
<text text-anchor="start" x="269.5" y="-147.2" font-family="Helvetica,sans-Serif" font-size="11.00">fk_urn_material</text>
<polygon fill="none" stroke="black" points="249.5,-117 249.5,-139 402.5,-139 402.5,-117 249.5,-117"/>
<image xlink:href="../../images/foreignKeys.png" width="11px" height="12px" preserveAspectRatio="xMinYMin meet" x="254.5" y="-134"/>
<text text-anchor="start" x="269.5" y="-125.2" font-family="Helvetica,sans-Serif" font-size="11.00">fk_urn_shape</text>
<polygon fill="none" stroke="black" points="249.5,-95 249.5,-117 402.5,-117 402.5,-95 249.5,-95"/>
<image xlink:href="../../images/foreignKeys.png" width="11px" height="12px" preserveAspectRatio="xMinYMin meet" x="254.5" y="-112"/>
<text text-anchor="start" x="269.5" y="-103.2" font-family="Helvetica,sans-Serif" font-size="11.00">fk_contact_person</text>
<polygon fill="none" stroke="black" points="249.5,-73 249.5,-95 402.5,-95 402.5,-73 249.5,-73"/>
<image xlink:href="../../images/foreignKeys.png" width="11px" height="12px" preserveAspectRatio="xMinYMin meet" x="254.5" y="-90"/>
<text text-anchor="start" x="269.5" y="-81.2" font-family="Helvetica,sans-Serif" font-size="11.00">fk_control</text>
<polygon fill="none" stroke="black" points="249.5,-55 249.5,-73 402.5,-73 402.5,-55 249.5,-55"/>
<text text-anchor="start" x="252.5" y="-61.2" font-family="Helvetica,sans-Serif" font-size="11.00">...</text>
<polygon fill="#ffffff" stroke="transparent" points="249.5,-37 249.5,-55 402.5,-55 402.5,-37 249.5,-37"/>
<polygon fill="none" stroke="black" points="249.5,-37 249.5,-55 402.5,-55 402.5,-37 249.5,-37"/>
<polygon fill="#ffffff" stroke="transparent" points="250.5,-38 250.5,-54 305.5,-54 305.5,-38 250.5,-38"/>
<text text-anchor="start" x="252.5" y="-43.2" font-family="Helvetica,sans-Serif" font-size="11.00">&lt; 9</text>
<polygon fill="#ffffff" stroke="transparent" points="305.5,-38 305.5,-54 347.5,-54 347.5,-38 305.5,-38"/>
<text text-anchor="start" x="322.5" y="-43.2" font-family="Helvetica,sans-Serif" font-size="11.00"> &#160;</text>
<polygon fill="#ffffff" stroke="transparent" points="347.5,-38 347.5,-54 401.5,-54 401.5,-38 347.5,-38"/>
<text text-anchor="start" x="379.5" y="-43.2" font-family="Helvetica,sans-Serif" font-size="11.00">3 &gt;</text>
<polygon fill="black" stroke="black" points="305.5,-38 305.5,-54 305.5,-54 305.5,-38 305.5,-38"/>
<polygon fill="black" stroke="black" points="347.5,-38 347.5,-54 347.5,-54 347.5,-38 347.5,-38"/>
</a>
</g>
</g>
<!-- contract&#45;&gt;unit -->
<g id="edge3" class="edge">
<title>contract:w&#45;&gt;unit:e</title>
<path fill="none" stroke="black" d="M457.92,-320.53C438.03,-316.23 429.62,-304 403.5,-304"/>
<polygon fill="black" stroke="black" points="464.54,-321.2 472.14,-325.58 468.52,-321.6 472.5,-322 472.5,-322 472.5,-322 468.52,-321.6 472.86,-318.42 464.54,-321.2 464.54,-321.2"/>
<ellipse fill="none" stroke="black" cx="461.36" cy="-320.87" rx="3.2" ry="3.2"/>
</g>
<!-- unit&#45;&gt;contact -->
<g id="edge7" class="edge">
<title>unit:w&#45;&gt;contact:e</title>
<path fill="none" stroke="black" d="M234.1,-107.56C145.99,-128.87 292.86,-361 181,-361"/>
<polygon fill="black" stroke="black" points="240.55,-106.86 248.89,-109.58 244.52,-106.43 248.5,-106 248.5,-106 248.5,-106 244.52,-106.43 248.11,-102.42 240.55,-106.86 240.55,-106.86"/>
<ellipse fill="none" stroke="black" cx="237.37" cy="-107.21" rx="3.2" ry="3.2"/>
</g>
<!-- file -->
<g id="node5" class="node">
<title>file</title>
<g id="a_node5"><a xlink:href="../../tables/file.html" xlink:title="file" target="_top">
<polygon fill="#ffffff" stroke="transparent" points="789,-341 789,-619 929,-619 929,-341 789,-341"/>
<polygon fill="#f5f5f5" stroke="transparent" points="789,-597 789,-619 929,-619 929,-597 789,-597"/>
<polygon fill="none" stroke="black" points="789,-597 789,-619 929,-619 929,-597 789,-597"/>
<text text-anchor="start" x="793.5" y="-606.2" font-family="Helvetica,sans-Serif" font-weight="bold" font-size="11.00">file</text>
<text text-anchor="start" x="887" y="-605.2" font-family="Helvetica,sans-Serif" font-size="11.00">[table]</text>
<polygon fill="none" stroke="black" points="789,-575 789,-597 929,-597 929,-575 789,-575"/>
<image xlink:href="../../images/primaryKeys.png" width="11px" height="12px" preserveAspectRatio="xMinYMin meet" x="794" y="-592"/>
<text text-anchor="start" x="809" y="-583.2" font-family="Helvetica,sans-Serif" font-size="11.00">id</text>
<polygon fill="none" stroke="black" points="789,-553 789,-575 929,-575 929,-553 789,-553"/>
<image xlink:href="../../images/foreignKeys.png" width="11px" height="12px" preserveAspectRatio="xMinYMin meet" x="794" y="-570"/>
<text text-anchor="start" x="809" y="-561.2" font-family="Helvetica,sans-Serif" font-size="11.00">cemetery_ref</text>
<polygon fill="none" stroke="black" points="789,-531 789,-553 929,-553 929,-531 789,-531"/>
<image xlink:href="../../images/foreignKeys.png" width="11px" height="12px" preserveAspectRatio="xMinYMin meet" x="794" y="-548"/>
<text text-anchor="start" x="809" y="-539.2" font-family="Helvetica,sans-Serif" font-size="11.00">contact_ref</text>
<polygon fill="none" stroke="black" points="789,-509 789,-531 929,-531 929,-509 789,-509"/>
<image xlink:href="../../images/foreignKeys.png" width="11px" height="12px" preserveAspectRatio="xMinYMin meet" x="794" y="-526"/>
<text text-anchor="start" x="809" y="-517.2" font-family="Helvetica,sans-Serif" font-size="11.00">contract_ref</text>
<polygon fill="none" stroke="black" points="789,-487 789,-509 929,-509 929,-487 789,-487"/>
<image xlink:href="../../images/foreignKeys.png" width="11px" height="12px" preserveAspectRatio="xMinYMin meet" x="794" y="-504"/>
<text text-anchor="start" x="809" y="-495.2" font-family="Helvetica,sans-Serif" font-size="11.00">deceased_ref</text>
<polygon fill="none" stroke="black" points="789,-465 789,-487 929,-487 929,-465 789,-465"/>
<image xlink:href="../../images/foreignKeys.png" width="11px" height="12px" preserveAspectRatio="xMinYMin meet" x="794" y="-482"/>
<text text-anchor="start" x="809" y="-473.2" font-family="Helvetica,sans-Serif" font-size="11.00">furniture_ref</text>
<polygon fill="none" stroke="black" points="789,-443 789,-465 929,-465 929,-443 789,-443"/>
<image xlink:href="../../images/foreignKeys.png" width="11px" height="12px" preserveAspectRatio="xMinYMin meet" x="794" y="-460"/>
<text text-anchor="start" x="809" y="-451.2" font-family="Helvetica,sans-Serif" font-size="11.00">organisation_ref</text>
<polygon fill="none" stroke="black" points="789,-421 789,-443 929,-443 929,-421 789,-421"/>
<image xlink:href="../../images/foreignKeys.png" width="11px" height="12px" preserveAspectRatio="xMinYMin meet" x="794" y="-438"/>
<text text-anchor="start" x="809" y="-429.2" font-family="Helvetica,sans-Serif" font-size="11.00">sector_ref</text>
<polygon fill="none" stroke="black" points="789,-399 789,-421 929,-421 929,-399 789,-399"/>
<image xlink:href="../../images/foreignKeys.png" width="11px" height="12px" preserveAspectRatio="xMinYMin meet" x="794" y="-416"/>
<text text-anchor="start" x="809" y="-407.2" font-family="Helvetica,sans-Serif" font-size="11.00">unit_ref</text>
<polygon fill="none" stroke="black" points="789,-377 789,-399 929,-399 929,-377 789,-377"/>
<image xlink:href="../../images/foreignKeys.png" width="11px" height="12px" preserveAspectRatio="xMinYMin meet" x="794" y="-394"/>
<text text-anchor="start" x="809" y="-385.2" font-family="Helvetica,sans-Serif" font-size="11.00">vegetation_ref</text>
<polygon fill="none" stroke="black" points="789,-359 789,-377 929,-377 929,-359 789,-359"/>
<text text-anchor="start" x="792" y="-365.2" font-family="Helvetica,sans-Serif" font-size="11.00">...</text>
<polygon fill="#ffffff" stroke="transparent" points="789,-341 789,-359 929,-359 929,-341 789,-341"/>
<polygon fill="none" stroke="black" points="789,-341 789,-359 929,-359 929,-341 789,-341"/>
<polygon fill="#ffffff" stroke="transparent" points="790,-342 790,-358 844,-358 844,-342 790,-342"/>
<text text-anchor="start" x="792" y="-347.2" font-family="Helvetica,sans-Serif" font-size="11.00">&lt; 9</text>
<polygon fill="#ffffff" stroke="transparent" points="844,-342 844,-358 886,-358 886,-342 844,-342"/>
<text text-anchor="start" x="861" y="-347.2" font-family="Helvetica,sans-Serif" font-size="11.00"> &#160;</text>
<polygon fill="#ffffff" stroke="transparent" points="886,-342 886,-358 928,-358 928,-342 886,-342"/>
<text text-anchor="start" x="918" y="-347.2" font-family="Helvetica,sans-Serif" font-size="11.00"> &#160;</text>
<polygon fill="black" stroke="black" points="844,-342 844,-358 844,-358 844,-342 844,-342"/>
<polygon fill="black" stroke="black" points="886,-342 886,-358 886,-358 886,-342 886,-342"/>
</a>
</g>
</g>
<!-- file&#45;&gt;contract -->
<g id="edge5" class="edge">
<title>file:w&#45;&gt;contract:e</title>
<path fill="none" stroke="black" d="M773.28,-520C762.29,-520 755.16,-520 739.5,-520"/>
<polygon fill="black" stroke="black" points="780,-520 788,-523.6 784,-520 788,-520 788,-520 788,-520 784,-520 788,-516.4 780,-520 780,-520"/>
<ellipse fill="none" stroke="black" cx="776.8" cy="-520" rx="3.2" ry="3.2"/>
</g>
<!-- file&#45;&gt;contact -->
<g id="edge4" class="edge">
<title>file:w&#45;&gt;contact:e</title>
<path fill="none" stroke="black" d="M773.9,-546.08C765.82,-551.64 761.78,-561.32 748,-565 521.39,-625.51 395.59,-693.64 221,-537 161.29,-483.43 261.22,-361 181,-361"/>
<polygon fill="black" stroke="black" points="780.32,-544.22 789,-545.46 784.16,-543.11 788,-542 788,-542 788,-542 784.16,-543.11 787,-538.54 780.32,-544.22 780.32,-544.22"/>
<ellipse fill="none" stroke="black" cx="777.24" cy="-545.11" rx="3.2" ry="3.2"/>
</g>
<!-- file&#45;&gt;unit -->
<g id="edge6" class="edge">
<title>file:w&#45;&gt;unit:e</title>
<path fill="none" stroke="black" d="M773.5,-408.12C722.46,-392.39 805.59,-281.85 748,-236 648.91,-157.1 578.35,-183.66 463,-236 426.43,-252.59 443.66,-304 403.5,-304"/>
<polygon fill="black" stroke="black" points="780.07,-408.97 787.54,-413.57 784.03,-409.49 788,-410 788,-410 788,-410 784.03,-409.49 788.46,-406.43 780.07,-408.97 780.07,-408.97"/>
<ellipse fill="none" stroke="black" cx="776.89" cy="-408.56" rx="3.2" ry="3.2"/>
</g>
</g>
</svg>
