<?xml version="1.0" encoding="UTF-8" standalone="no"?>
<!DOCTYPE svg PUBLIC "-//W3C//DTD SVG 1.1//EN"
 "http://www.w3.org/Graphics/SVG/1.1/DTD/svg11.dtd">
<!-- Generated by graphviz version 2.43.0 (0)
 -->
<!-- Title: oneDegreeRelationshipsDiagram Pages: 1 -->
<svg width="952pt" height="552pt"
 viewBox="0.00 0.00 952.00 552.00" xmlns="http://www.w3.org/2000/svg" xmlns:xlink="http://www.w3.org/1999/xlink">
<g id="graph0" class="graph" transform="scale(1 1) rotate(0) translate(4 548)">
<title>oneDegreeRelationshipsDiagram</title>
<polygon fill="#ffffff" stroke="transparent" points="-4,4 -4,-548 948,-548 948,4 -4,4"/>
<text text-anchor="middle" x="79.5" y="-7.2" font-family="Helvetica,sans-Serif" font-size="11.00">Generated by SchemaSpy</text>
<!-- contact -->
<g id="node1" class="node">
<title>contact</title>
<g id="a_node1"><a xlink:href="../../tables/contact.html" xlink:title="contact" target="_top">
<polygon fill="#ffffff" stroke="transparent" points="244,-37 244,-389 526,-389 526,-37 244,-37"/>
<polygon fill="#f5f5f5" stroke="transparent" points="246,-365 246,-387 524,-387 524,-365 246,-365"/>
<polygon fill="none" stroke="black" points="246,-365 246,-387 524,-387 524,-365 246,-365"/>
<text text-anchor="start" x="251" y="-374.2" font-family="Helvetica,sans-Serif" font-weight="bold" font-size="11.00">contact</text>
<text text-anchor="start" x="482" y="-373.2" font-family="Helvetica,sans-Serif" font-size="11.00">[table]</text>
<polygon fill="none" stroke="black" points="246,-343 246,-365 418,-365 418,-343 246,-343"/>
<image xlink:href="../../images/primaryKeys.png" width="11px" height="12px" preserveAspectRatio="xMinYMin meet" x="251" y="-360"/>
<text text-anchor="start" x="266" y="-351.2" font-family="Helvetica,sans-Serif" font-size="11.00">id</text>
<polygon fill="none" stroke="black" points="418,-343 418,-365 524,-365 524,-343 418,-343"/>
<text text-anchor="start" x="421" y="-351.2" font-family="Helvetica,sans-Serif" font-size="11.00">uuid[2147483647]</text>
<polygon fill="none" stroke="black" points="246,-321 246,-343 418,-343 418,-321 246,-321"/>
<image xlink:href="../../images/foreignKeys.png" width="11px" height="12px" preserveAspectRatio="xMinYMin meet" x="251" y="-338"/>
<text text-anchor="start" x="266" y="-329.2" font-family="Helvetica,sans-Serif" font-size="11.00">fk_kind</text>
<polygon fill="none" stroke="black" points="418,-321 418,-343 524,-343 524,-321 418,-321"/>
<text text-anchor="start" x="421" y="-329.2" font-family="Helvetica,sans-Serif" font-size="11.00">int4[10]</text>
<polygon fill="none" stroke="black" points="246,-299 246,-321 418,-321 418,-299 246,-299"/>
<text text-anchor="start" x="266" y="-307.2" font-family="Helvetica,sans-Serif" font-size="11.00">fk_organisation</text>
<polygon fill="none" stroke="black" points="418,-299 418,-321 524,-321 524,-299 418,-299"/>
<text text-anchor="start" x="421" y="-307.2" font-family="Helvetica,sans-Serif" font-size="11.00">uuid[2147483647]</text>
<polygon fill="none" stroke="black" points="246,-277 246,-299 418,-299 418,-277 246,-277"/>
<image xlink:href="../../images/foreignKeys.png" width="11px" height="12px" preserveAspectRatio="xMinYMin meet" x="251" y="-294"/>
<text text-anchor="start" x="266" y="-285.2" font-family="Helvetica,sans-Serif" font-size="11.00">fk_civility</text>
<polygon fill="none" stroke="black" points="418,-277 418,-299 524,-299 524,-277 418,-277"/>
<text text-anchor="start" x="421" y="-285.2" font-family="Helvetica,sans-Serif" font-size="11.00">int4[10]</text>
<polygon fill="none" stroke="black" points="246,-255 246,-277 418,-277 418,-255 246,-255"/>
<text text-anchor="start" x="266" y="-263.2" font-family="Helvetica,sans-Serif" font-size="11.00">first_name</text>
<polygon fill="none" stroke="black" points="418,-255 418,-277 524,-277 524,-255 418,-255"/>
<text text-anchor="start" x="421" y="-263.2" font-family="Helvetica,sans-Serif" font-size="11.00">text[2147483647]</text>
<polygon fill="none" stroke="black" points="246,-233 246,-255 418,-255 418,-233 246,-233"/>
<text text-anchor="start" x="266" y="-241.2" font-family="Helvetica,sans-Serif" font-size="11.00">last_name</text>
<polygon fill="none" stroke="black" points="418,-233 418,-255 524,-255 524,-233 418,-233"/>
<text text-anchor="start" x="421" y="-241.2" font-family="Helvetica,sans-Serif" font-size="11.00">text[2147483647]</text>
<polygon fill="none" stroke="black" points="246,-211 246,-233 418,-233 418,-211 246,-211"/>
<text text-anchor="start" x="266" y="-219.2" font-family="Helvetica,sans-Serif" font-size="11.00">street_name</text>
<polygon fill="none" stroke="black" points="418,-211 418,-233 524,-233 524,-211 418,-211"/>
<text text-anchor="start" x="421" y="-219.2" font-family="Helvetica,sans-Serif" font-size="11.00">text[2147483647]</text>
<polygon fill="none" stroke="black" points="246,-189 246,-211 418,-211 418,-189 246,-189"/>
<text text-anchor="start" x="266" y="-197.2" font-family="Helvetica,sans-Serif" font-size="11.00">house_number</text>
<polygon fill="none" stroke="black" points="418,-189 418,-211 524,-211 524,-189 418,-189"/>
<text text-anchor="start" x="421" y="-197.2" font-family="Helvetica,sans-Serif" font-size="11.00">varchar[10]</text>
<polygon fill="none" stroke="black" points="246,-167 246,-189 418,-189 418,-167 246,-167"/>
<text text-anchor="start" x="266" y="-175.2" font-family="Helvetica,sans-Serif" font-size="11.00">address_supplement</text>
<polygon fill="none" stroke="black" points="418,-167 418,-189 524,-189 524,-167 418,-167"/>
<text text-anchor="start" x="421" y="-175.2" font-family="Helvetica,sans-Serif" font-size="11.00">text[2147483647]</text>
<polygon fill="none" stroke="black" points="246,-145 246,-167 418,-167 418,-145 246,-145"/>
<text text-anchor="start" x="266" y="-153.2" font-family="Helvetica,sans-Serif" font-size="11.00">city</text>
<polygon fill="none" stroke="black" points="418,-145 418,-167 524,-167 524,-145 418,-145"/>
<text text-anchor="start" x="421" y="-153.2" font-family="Helvetica,sans-Serif" font-size="11.00">text[2147483647]</text>
<polygon fill="none" stroke="black" points="246,-123 246,-145 418,-145 418,-123 246,-123"/>
<text text-anchor="start" x="266" y="-131.2" font-family="Helvetica,sans-Serif" font-size="11.00">postal_code</text>
<polygon fill="none" stroke="black" points="418,-123 418,-145 524,-145 524,-123 418,-123"/>
<text text-anchor="start" x="421" y="-131.2" font-family="Helvetica,sans-Serif" font-size="11.00">varchar[10]</text>
<polygon fill="none" stroke="black" points="246,-101 246,-123 418,-123 418,-101 246,-101"/>
<text text-anchor="start" x="266" y="-109.2" font-family="Helvetica,sans-Serif" font-size="11.00">phone</text>
<polygon fill="none" stroke="black" points="418,-101 418,-123 524,-123 524,-101 418,-101"/>
<text text-anchor="start" x="421" y="-109.2" font-family="Helvetica,sans-Serif" font-size="11.00">varchar[20]</text>
<polygon fill="none" stroke="black" points="246,-79 246,-101 418,-101 418,-79 246,-79"/>
<text text-anchor="start" x="266" y="-87.2" font-family="Helvetica,sans-Serif" font-size="11.00">email</text>
<polygon fill="none" stroke="black" points="418,-79 418,-101 524,-101 524,-79 418,-79"/>
<text text-anchor="start" x="421" y="-87.2" font-family="Helvetica,sans-Serif" font-size="11.00">varchar[255]</text>
<polygon fill="none" stroke="black" points="246,-57 246,-79 418,-79 418,-57 246,-57"/>
<text text-anchor="start" x="266" y="-65.2" font-family="Helvetica,sans-Serif" font-size="11.00">remark</text>
<polygon fill="none" stroke="black" points="418,-57 418,-79 524,-79 524,-57 418,-57"/>
<text text-anchor="start" x="421" y="-65.2" font-family="Helvetica,sans-Serif" font-size="11.00">text[2147483647]</text>
<polygon fill="#ffffff" stroke="transparent" points="246,-39 246,-57 524,-57 524,-39 246,-39"/>
<polygon fill="none" stroke="black" points="246,-39 246,-57 524,-57 524,-39 246,-39"/>
<polygon fill="#ffffff" stroke="transparent" points="247,-40 247,-56 343,-56 343,-40 247,-40"/>
<text text-anchor="start" x="249" y="-45.2" font-family="Helvetica,sans-Serif" font-size="11.00">&lt; 2</text>
<polygon fill="#ffffff" stroke="transparent" points="343,-40 343,-56 427,-56 427,-40 343,-40"/>
<text text-anchor="start" x="381" y="-45.2" font-family="Helvetica,sans-Serif" font-size="11.00"> &#160;</text>
<polygon fill="#ffffff" stroke="transparent" points="427,-40 427,-56 523,-56 523,-40 427,-40"/>
<text text-anchor="start" x="501" y="-45.2" font-family="Helvetica,sans-Serif" font-size="11.00">2 &gt;</text>
<polygon fill="black" stroke="black" points="343,-40 343,-56 343,-56 343,-40 343,-40"/>
<polygon fill="black" stroke="black" points="427,-40 427,-56 427,-56 427,-40 427,-40"/>
<polygon fill="none" stroke="black" stroke-width="2" points="245,-38 245,-388 525,-388 525,-38 245,-38"/>
</a>
</g>
</g>
<!-- tce_vl.civility -->
<g id="node2" class="node">
<title>tce_vl.civility</title>
<g id="a_node2"><a xlink:href="../../../tce_vl/tables/civility.html" xlink:title="tce_vl.civility" target="_top">
<polygon fill="#ffffff" stroke="transparent" points="30.5,-241 30.5,-299 172.5,-299 172.5,-241 30.5,-241"/>
<polygon fill="#f5f5f5" stroke="transparent" points="30.5,-277 30.5,-299 172.5,-299 172.5,-277 30.5,-277"/>
<polygon fill="none" stroke="black" points="30.5,-277 30.5,-299 172.5,-299 172.5,-277 30.5,-277"/>
<text text-anchor="start" x="35.5" y="-286.2" font-family="Helvetica,sans-Serif" font-weight="bold" font-size="11.00">tce_vl.civility</text>
<text text-anchor="start" x="130.5" y="-285.2" font-family="Helvetica,sans-Serif" font-size="11.00">[table]</text>
<polygon fill="none" stroke="black" points="30.5,-259 30.5,-277 172.5,-277 172.5,-259 30.5,-259"/>
<text text-anchor="start" x="33.5" y="-265.2" font-family="Helvetica,sans-Serif" font-size="11.00">...</text>
<polygon fill="#ffffff" stroke="transparent" points="30.5,-241 30.5,-259 172.5,-259 172.5,-241 30.5,-241"/>
<polygon fill="none" stroke="black" points="30.5,-241 30.5,-259 172.5,-259 172.5,-241 30.5,-241"/>
<polygon fill="#ffffff" stroke="transparent" points="31.5,-242 31.5,-258 64.5,-258 64.5,-242 31.5,-242"/>
<text text-anchor="start" x="33.5" y="-247.2" font-family="Helvetica,sans-Serif" font-size="11.00"> &#160;</text>
<polygon fill="#ffffff" stroke="transparent" points="64.5,-242 64.5,-258 126.5,-258 126.5,-242 64.5,-242"/>
<text text-anchor="start" x="77" y="-247.2" font-family="Helvetica,sans-Serif" font-size="11.00">0 rows</text>
<polygon fill="#ffffff" stroke="transparent" points="126.5,-242 126.5,-258 171.5,-258 171.5,-242 126.5,-242"/>
<text text-anchor="start" x="149.5" y="-247.2" font-family="Helvetica,sans-Serif" font-size="11.00">2 &gt;</text>
<polygon fill="black" stroke="black" points="64.5,-242 64.5,-258 64.5,-258 64.5,-242 64.5,-242"/>
<polygon fill="black" stroke="black" points="126.5,-242 126.5,-258 126.5,-258 126.5,-242 126.5,-242"/>
</a>
</g>
</g>
<!-- contact&#45;&gt;tce_vl.civility -->
<g id="edge1" class="edge">
<title>contact:w&#45;&gt;tce_vl.civility:e</title>
<path fill="none" stroke="black" d="M230.56,-287.72C213.93,-287.09 196.79,-285.47 180.67,-283.46"/>
<polygon fill="black" stroke="black" points="237,-287.84 244.93,-291.6 241,-287.92 245,-288 245,-288 245,-288 241,-287.92 245.07,-284.4 237,-287.84 237,-287.84"/>
<ellipse fill="none" stroke="black" cx="233.8" cy="-287.78" rx="3.2" ry="3.2"/>
</g>
<!-- tce_vl.contact_kind -->
<g id="node3" class="node">
<title>tce_vl.contact_kind</title>
<g id="a_node3"><a xlink:href="../../../tce_vl/tables/contact_kind.html" xlink:title="tce_vl.contact_kind" target="_top">
<polygon fill="#ffffff" stroke="transparent" points="8,-320 8,-378 195,-378 195,-320 8,-320"/>
<polygon fill="#f5f5f5" stroke="transparent" points="8.5,-356 8.5,-378 195.5,-378 195.5,-356 8.5,-356"/>
<polygon fill="none" stroke="black" points="8.5,-356 8.5,-378 195.5,-378 195.5,-356 8.5,-356"/>
<text text-anchor="start" x="13.5" y="-365.2" font-family="Helvetica,sans-Serif" font-weight="bold" font-size="11.00">tce_vl.contact_kind</text>
<text text-anchor="start" x="153.5" y="-364.2" font-family="Helvetica,sans-Serif" font-size="11.00">[table]</text>
<polygon fill="none" stroke="black" points="8.5,-338 8.5,-356 195.5,-356 195.5,-338 8.5,-338"/>
<text text-anchor="start" x="11.5" y="-344.2" font-family="Helvetica,sans-Serif" font-size="11.00">...</text>
<polygon fill="#ffffff" stroke="transparent" points="8.5,-320 8.5,-338 195.5,-338 195.5,-320 8.5,-320"/>
<polygon fill="none" stroke="black" points="8.5,-320 8.5,-338 195.5,-338 195.5,-320 8.5,-320"/>
<polygon fill="#ffffff" stroke="transparent" points="9.5,-321 9.5,-337 57.5,-337 57.5,-321 9.5,-321"/>
<text text-anchor="start" x="11.5" y="-326.2" font-family="Helvetica,sans-Serif" font-size="11.00"> &#160;</text>
<polygon fill="#ffffff" stroke="transparent" points="57.5,-321 57.5,-337 134.5,-337 134.5,-321 57.5,-321"/>
<text text-anchor="start" x="77.5" y="-326.2" font-family="Helvetica,sans-Serif" font-size="11.00">0 rows</text>
<polygon fill="#ffffff" stroke="transparent" points="134.5,-321 134.5,-337 194.5,-337 194.5,-321 134.5,-321"/>
<text text-anchor="start" x="172.5" y="-326.2" font-family="Helvetica,sans-Serif" font-size="11.00">1 &gt;</text>
<polygon fill="black" stroke="black" points="57.5,-321 57.5,-337 57.5,-337 57.5,-321 57.5,-321"/>
<polygon fill="black" stroke="black" points="134.5,-321 134.5,-337 134.5,-337 134.5,-321 134.5,-321"/>
</a>
</g>
</g>
<!-- contact&#45;&gt;tce_vl.contact_kind -->
<g id="edge2" class="edge">
<title>contact:w&#45;&gt;tce_vl.contact_kind:e</title>
<path fill="none" stroke="black" d="M230.47,-332.27C221.43,-332.6 212.23,-333.2 203.14,-333.98"/>
<polygon fill="black" stroke="black" points="237,-332.15 245.07,-335.6 241,-332.07 245,-332 245,-332 245,-332 241,-332.07 244.93,-328.4 237,-332.15 237,-332.15"/>
<ellipse fill="none" stroke="black" cx="233.8" cy="-332.21" rx="3.2" ry="3.2"/>
</g>
<!-- contract -->
<g id="node4" class="node">
<title>contract</title>
<g id="a_node4"><a xlink:href="../../tables/contract.html" xlink:title="contract" target="_top">
<polygon fill="#ffffff" stroke="transparent" points="777,-394 777,-540 936,-540 936,-394 777,-394"/>
<polygon fill="#f5f5f5" stroke="transparent" points="777.5,-518 777.5,-540 936.5,-540 936.5,-518 777.5,-518"/>
<polygon fill="none" stroke="black" points="777.5,-518 777.5,-540 936.5,-540 936.5,-518 777.5,-518"/>
<text text-anchor="start" x="782.5" y="-527.2" font-family="Helvetica,sans-Serif" font-weight="bold" font-size="11.00">contract</text>
<text text-anchor="start" x="894.5" y="-526.2" font-family="Helvetica,sans-Serif" font-size="11.00">[table]</text>
<polygon fill="none" stroke="black" points="777.5,-496 777.5,-518 936.5,-518 936.5,-496 777.5,-496"/>
<image xlink:href="../../images/primaryKeys.png" width="11px" height="12px" preserveAspectRatio="xMinYMin meet" x="782.5" y="-513"/>
<text text-anchor="start" x="797.5" y="-504.2" font-family="Helvetica,sans-Serif" font-size="11.00">id</text>
<polygon fill="none" stroke="black" points="777.5,-474 777.5,-496 936.5,-496 936.5,-474 777.5,-474"/>
<image xlink:href="../../images/foreignKeys.png" width="11px" height="12px" preserveAspectRatio="xMinYMin meet" x="782.5" y="-491"/>
<text text-anchor="start" x="797.5" y="-482.2" font-family="Helvetica,sans-Serif" font-size="11.00">fk_kind</text>
<polygon fill="none" stroke="black" points="777.5,-452 777.5,-474 936.5,-474 936.5,-452 777.5,-452"/>
<image xlink:href="../../images/foreignKeys.png" width="11px" height="12px" preserveAspectRatio="xMinYMin meet" x="782.5" y="-469"/>
<text text-anchor="start" x="797.5" y="-460.2" font-family="Helvetica,sans-Serif" font-size="11.00">fk_contract_person</text>
<polygon fill="none" stroke="black" points="777.5,-430 777.5,-452 936.5,-452 936.5,-430 777.5,-430"/>
<image xlink:href="../../images/foreignKeys.png" width="11px" height="12px" preserveAspectRatio="xMinYMin meet" x="782.5" y="-447"/>
<text text-anchor="start" x="797.5" y="-438.2" font-family="Helvetica,sans-Serif" font-size="11.00">fk_unit</text>
<polygon fill="none" stroke="black" points="777.5,-412 777.5,-430 936.5,-430 936.5,-412 777.5,-412"/>
<text text-anchor="start" x="780.5" y="-418.2" font-family="Helvetica,sans-Serif" font-size="11.00">...</text>
<polygon fill="#ffffff" stroke="transparent" points="777.5,-394 777.5,-412 936.5,-412 936.5,-394 777.5,-394"/>
<polygon fill="none" stroke="black" points="777.5,-394 777.5,-412 936.5,-412 936.5,-394 777.5,-394"/>
<polygon fill="#ffffff" stroke="transparent" points="778.5,-395 778.5,-411 839.5,-411 839.5,-395 778.5,-395"/>
<text text-anchor="start" x="780.5" y="-400.2" font-family="Helvetica,sans-Serif" font-size="11.00">&lt; 3</text>
<polygon fill="#ffffff" stroke="transparent" points="839.5,-395 839.5,-411 887.5,-411 887.5,-395 839.5,-395"/>
<text text-anchor="start" x="859.5" y="-400.2" font-family="Helvetica,sans-Serif" font-size="11.00"> &#160;</text>
<polygon fill="#ffffff" stroke="transparent" points="887.5,-395 887.5,-411 935.5,-411 935.5,-395 887.5,-395"/>
<text text-anchor="start" x="925.5" y="-400.2" font-family="Helvetica,sans-Serif" font-size="11.00"> &#160;</text>
<polygon fill="black" stroke="black" points="839.5,-395 839.5,-411 839.5,-411 839.5,-395 839.5,-395"/>
<polygon fill="black" stroke="black" points="887.5,-395 887.5,-411 887.5,-411 887.5,-395 887.5,-395"/>
</a>
</g>
</g>
<!-- contract&#45;&gt;contact -->
<g id="edge3" class="edge">
<title>contract:w&#45;&gt;contact:e</title>
<path fill="none" stroke="black" d="M761.87,-464.06C753.94,-465.3 748.02,-467.26 736,-468 661.03,-472.61 628.61,-510.96 567,-468 522.71,-437.12 579,-354 525,-354"/>
<polygon fill="black" stroke="black" points="768.52,-463.58 776.76,-466.59 772.51,-463.29 776.5,-463 776.5,-463 776.5,-463 772.51,-463.29 776.24,-459.41 768.52,-463.58 768.52,-463.58"/>
<ellipse fill="none" stroke="black" cx="765.33" cy="-463.81" rx="3.2" ry="3.2"/>
</g>
<!-- unit -->
<g id="node5" class="node">
<title>unit</title>
<g id="a_node5"><a xlink:href="../../tables/unit.html" xlink:title="unit" target="_top">
<polygon fill="#ffffff" stroke="transparent" points="575,-157 575,-457 728,-457 728,-157 575,-157"/>
<polygon fill="#f5f5f5" stroke="transparent" points="575.5,-435 575.5,-457 728.5,-457 728.5,-435 575.5,-435"/>
<polygon fill="none" stroke="black" points="575.5,-435 575.5,-457 728.5,-457 728.5,-435 575.5,-435"/>
<text text-anchor="start" x="580.5" y="-444.2" font-family="Helvetica,sans-Serif" font-weight="bold" font-size="11.00">unit</text>
<text text-anchor="start" x="686.5" y="-443.2" font-family="Helvetica,sans-Serif" font-size="11.00">[table]</text>
<polygon fill="none" stroke="black" points="575.5,-413 575.5,-435 728.5,-435 728.5,-413 575.5,-413"/>
<image xlink:href="../../images/primaryKeys.png" width="11px" height="12px" preserveAspectRatio="xMinYMin meet" x="580.5" y="-430"/>
<text text-anchor="start" x="595.5" y="-421.2" font-family="Helvetica,sans-Serif" font-size="11.00">id</text>
<polygon fill="#ffffff" stroke="transparent" points="575.5,-391 575.5,-413 728.5,-413 728.5,-391 575.5,-391"/>
<polygon fill="none" stroke="black" points="575.5,-391 575.5,-413 728.5,-413 728.5,-391 575.5,-391"/>
<text text-anchor="start" x="595.5" y="-399.2" font-family="Helvetica,sans-Serif" font-size="11.00">identifier</text>
<polygon fill="none" stroke="black" points="575.5,-369 575.5,-391 728.5,-391 728.5,-369 575.5,-369"/>
<image xlink:href="../../images/foreignKeys.png" width="11px" height="12px" preserveAspectRatio="xMinYMin meet" x="580.5" y="-386"/>
<text text-anchor="start" x="595.5" y="-377.2" font-family="Helvetica,sans-Serif" font-size="11.00">fk_company</text>
<polygon fill="none" stroke="black" points="575.5,-347 575.5,-369 728.5,-369 728.5,-347 575.5,-347"/>
<image xlink:href="../../images/foreignKeys.png" width="11px" height="12px" preserveAspectRatio="xMinYMin meet" x="580.5" y="-364"/>
<text text-anchor="start" x="595.5" y="-355.2" font-family="Helvetica,sans-Serif" font-size="11.00">fk_sector</text>
<polygon fill="none" stroke="black" points="575.5,-325 575.5,-347 728.5,-347 728.5,-325 575.5,-325"/>
<image xlink:href="../../images/foreignKeys.png" width="11px" height="12px" preserveAspectRatio="xMinYMin meet" x="580.5" y="-342"/>
<text text-anchor="start" x="595.5" y="-333.2" font-family="Helvetica,sans-Serif" font-size="11.00">fk_cemetery</text>
<polygon fill="none" stroke="black" points="575.5,-303 575.5,-325 728.5,-325 728.5,-303 575.5,-303"/>
<image xlink:href="../../images/foreignKeys.png" width="11px" height="12px" preserveAspectRatio="xMinYMin meet" x="580.5" y="-320"/>
<text text-anchor="start" x="595.5" y="-311.2" font-family="Helvetica,sans-Serif" font-size="11.00">fk_size</text>
<polygon fill="none" stroke="black" points="575.5,-281 575.5,-303 728.5,-303 728.5,-281 575.5,-281"/>
<image xlink:href="../../images/foreignKeys.png" width="11px" height="12px" preserveAspectRatio="xMinYMin meet" x="580.5" y="-298"/>
<text text-anchor="start" x="595.5" y="-289.2" font-family="Helvetica,sans-Serif" font-size="11.00">fk_kind</text>
<polygon fill="none" stroke="black" points="575.5,-259 575.5,-281 728.5,-281 728.5,-259 575.5,-259"/>
<image xlink:href="../../images/foreignKeys.png" width="11px" height="12px" preserveAspectRatio="xMinYMin meet" x="580.5" y="-276"/>
<text text-anchor="start" x="595.5" y="-267.2" font-family="Helvetica,sans-Serif" font-size="11.00">fk_urn_material</text>
<polygon fill="none" stroke="black" points="575.5,-237 575.5,-259 728.5,-259 728.5,-237 575.5,-237"/>
<image xlink:href="../../images/foreignKeys.png" width="11px" height="12px" preserveAspectRatio="xMinYMin meet" x="580.5" y="-254"/>
<text text-anchor="start" x="595.5" y="-245.2" font-family="Helvetica,sans-Serif" font-size="11.00">fk_urn_shape</text>
<polygon fill="none" stroke="black" points="575.5,-215 575.5,-237 728.5,-237 728.5,-215 575.5,-215"/>
<image xlink:href="../../images/foreignKeys.png" width="11px" height="12px" preserveAspectRatio="xMinYMin meet" x="580.5" y="-232"/>
<text text-anchor="start" x="595.5" y="-223.2" font-family="Helvetica,sans-Serif" font-size="11.00">fk_contact_person</text>
<polygon fill="none" stroke="black" points="575.5,-193 575.5,-215 728.5,-215 728.5,-193 575.5,-193"/>
<image xlink:href="../../images/foreignKeys.png" width="11px" height="12px" preserveAspectRatio="xMinYMin meet" x="580.5" y="-210"/>
<text text-anchor="start" x="595.5" y="-201.2" font-family="Helvetica,sans-Serif" font-size="11.00">fk_control</text>
<polygon fill="none" stroke="black" points="575.5,-175 575.5,-193 728.5,-193 728.5,-175 575.5,-175"/>
<text text-anchor="start" x="578.5" y="-181.2" font-family="Helvetica,sans-Serif" font-size="11.00">...</text>
<polygon fill="#ffffff" stroke="transparent" points="575.5,-157 575.5,-175 728.5,-175 728.5,-157 575.5,-157"/>
<polygon fill="none" stroke="black" points="575.5,-157 575.5,-175 728.5,-175 728.5,-157 575.5,-157"/>
<polygon fill="#ffffff" stroke="transparent" points="576.5,-158 576.5,-174 631.5,-174 631.5,-158 576.5,-158"/>
<text text-anchor="start" x="578.5" y="-163.2" font-family="Helvetica,sans-Serif" font-size="11.00">&lt; 9</text>
<polygon fill="#ffffff" stroke="transparent" points="631.5,-158 631.5,-174 673.5,-174 673.5,-158 631.5,-158"/>
<text text-anchor="start" x="648.5" y="-163.2" font-family="Helvetica,sans-Serif" font-size="11.00"> &#160;</text>
<polygon fill="#ffffff" stroke="transparent" points="673.5,-158 673.5,-174 727.5,-174 727.5,-158 673.5,-158"/>
<text text-anchor="start" x="705.5" y="-163.2" font-family="Helvetica,sans-Serif" font-size="11.00">2 &gt;</text>
<polygon fill="black" stroke="black" points="631.5,-158 631.5,-174 631.5,-174 631.5,-158 631.5,-158"/>
<polygon fill="black" stroke="black" points="673.5,-158 673.5,-174 673.5,-174 673.5,-158 673.5,-158"/>
</a>
</g>
</g>
<!-- contract&#45;&gt;unit -->
<g id="edge4" class="edge">
<title>contract:w&#45;&gt;unit:e</title>
<path fill="none" stroke="black" d="M762.22,-438.04C751.53,-433.17 745.81,-424 729.5,-424"/>
<polygon fill="black" stroke="black" points="768.67,-439.38 775.77,-444.53 772.58,-440.19 776.5,-441 776.5,-441 776.5,-441 772.58,-440.19 777.23,-437.47 768.67,-439.38 768.67,-439.38"/>
<ellipse fill="none" stroke="black" cx="765.53" cy="-438.73" rx="3.2" ry="3.2"/>
</g>
<!-- unit&#45;&gt;contact -->
<g id="edge5" class="edge">
<title>unit:w&#45;&gt;contact:e</title>
<path fill="none" stroke="black" d="M560.2,-229.42C526.39,-249.78 580.04,-354 525,-354"/>
<polygon fill="black" stroke="black" points="566.72,-227.86 575.34,-229.5 570.61,-226.93 574.5,-226 574.5,-226 574.5,-226 570.61,-226.93 573.66,-222.5 566.72,-227.86 566.72,-227.86"/>
<ellipse fill="none" stroke="black" cx="563.61" cy="-228.61" rx="3.2" ry="3.2"/>
</g>
</g>
</svg>
