<?xml version="1.0" encoding="UTF-8" standalone="no"?>
<!DOCTYPE svg PUBLIC "-//W3C//DTD SVG 1.1//EN"
 "http://www.w3.org/Graphics/SVG/1.1/DTD/svg11.dtd">
<!-- Generated by graphviz version 2.43.0 (0)
 -->
<!-- Title: oneDegreeRelationshipsDiagram Pages: 1 -->
<svg width="1200pt" height="553pt"
 viewBox="0.00 0.00 1200.00 553.11" xmlns="http://www.w3.org/2000/svg" xmlns:xlink="http://www.w3.org/1999/xlink">
<g id="graph0" class="graph" transform="scale(1 1) rotate(0) translate(4 549.11)">
<title>oneDegreeRelationshipsDiagram</title>
<polygon fill="#ffffff" stroke="transparent" points="-4,4 -4,-549.11 1196,-549.11 1196,4 -4,4"/>
<text text-anchor="middle" x="79.5" y="-7.2" font-family="Helvetica,sans-Serif" font-size="11.00">Generated by SchemaSpy</text>
<!-- contact -->
<g id="node1" class="node">
<title>contact</title>
<g id="a_node1"><a xlink:href="../../tables/contact.html" xlink:title="contact" target="_top">
<polygon fill="#ffffff" stroke="transparent" points="244,-123.11 244,-519.11 526,-519.11 526,-123.11 244,-123.11"/>
<polygon fill="#f5f5f5" stroke="transparent" points="246,-495.11 246,-517.11 524,-517.11 524,-495.11 246,-495.11"/>
<polygon fill="none" stroke="black" points="246,-495.11 246,-517.11 524,-517.11 524,-495.11 246,-495.11"/>
<text text-anchor="start" x="251" y="-504.31" font-family="Helvetica,sans-Serif" font-weight="bold" font-size="11.00">contact</text>
<text text-anchor="start" x="482" y="-503.31" font-family="Helvetica,sans-Serif" font-size="11.00">[table]</text>
<polygon fill="none" stroke="black" points="246,-473.11 246,-495.11 418,-495.11 418,-473.11 246,-473.11"/>
<image xlink:href="../../images/primaryKeys.png" width="11px" height="12px" preserveAspectRatio="xMinYMin meet" x="251" y="-490.109"/>
<text text-anchor="start" x="266" y="-481.31" font-family="Helvetica,sans-Serif" font-size="11.00">id</text>
<polygon fill="none" stroke="black" points="418,-473.11 418,-495.11 524,-495.11 524,-473.11 418,-473.11"/>
<text text-anchor="start" x="421" y="-481.31" font-family="Helvetica,sans-Serif" font-size="11.00">uuid[2147483647]</text>
<polygon fill="#ffffff" stroke="transparent" points="246,-451.11 246,-473.11 418,-473.11 418,-451.11 246,-451.11"/>
<polygon fill="none" stroke="black" points="246,-451.11 246,-473.11 418,-473.11 418,-451.11 246,-451.11"/>
<image xlink:href="../../images/foreignKeys.png" width="11px" height="12px" preserveAspectRatio="xMinYMin meet" x="251" y="-468.109"/>
<text text-anchor="start" x="266" y="-459.31" font-family="Helvetica,sans-Serif" font-size="11.00">fk_kind</text>
<polygon fill="none" stroke="black" points="418,-451.11 418,-473.11 524,-473.11 524,-451.11 418,-451.11"/>
<text text-anchor="start" x="421" y="-459.31" font-family="Helvetica,sans-Serif" font-size="11.00">int4[10]</text>
<polygon fill="#ffffff" stroke="transparent" points="246,-429.11 246,-451.11 418,-451.11 418,-429.11 246,-429.11"/>
<polygon fill="none" stroke="black" points="246,-429.11 246,-451.11 418,-451.11 418,-429.11 246,-429.11"/>
<text text-anchor="start" x="266" y="-437.31" font-family="Helvetica,sans-Serif" font-size="11.00">fk_organisation</text>
<polygon fill="none" stroke="black" points="418,-429.11 418,-451.11 524,-451.11 524,-429.11 418,-429.11"/>
<text text-anchor="start" x="421" y="-437.31" font-family="Helvetica,sans-Serif" font-size="11.00">uuid[2147483647]</text>
<polygon fill="#ffffff" stroke="transparent" points="246,-407.11 246,-429.11 418,-429.11 418,-407.11 246,-407.11"/>
<polygon fill="none" stroke="black" points="246,-407.11 246,-429.11 418,-429.11 418,-407.11 246,-407.11"/>
<image xlink:href="../../images/foreignKeys.png" width="11px" height="12px" preserveAspectRatio="xMinYMin meet" x="251" y="-424.109"/>
<text text-anchor="start" x="266" y="-415.31" font-family="Helvetica,sans-Serif" font-size="11.00">fk_civility</text>
<polygon fill="none" stroke="black" points="418,-407.11 418,-429.11 524,-429.11 524,-407.11 418,-407.11"/>
<text text-anchor="start" x="421" y="-415.31" font-family="Helvetica,sans-Serif" font-size="11.00">int4[10]</text>
<polygon fill="#ffffff" stroke="transparent" points="246,-385.11 246,-407.11 418,-407.11 418,-385.11 246,-385.11"/>
<polygon fill="none" stroke="black" points="246,-385.11 246,-407.11 418,-407.11 418,-385.11 246,-385.11"/>
<text text-anchor="start" x="266" y="-393.31" font-family="Helvetica,sans-Serif" font-size="11.00">first_name</text>
<polygon fill="none" stroke="black" points="418,-385.11 418,-407.11 524,-407.11 524,-385.11 418,-385.11"/>
<text text-anchor="start" x="421" y="-393.31" font-family="Helvetica,sans-Serif" font-size="11.00">text[2147483647]</text>
<polygon fill="#ffffff" stroke="transparent" points="246,-363.11 246,-385.11 418,-385.11 418,-363.11 246,-363.11"/>
<polygon fill="none" stroke="black" points="246,-363.11 246,-385.11 418,-385.11 418,-363.11 246,-363.11"/>
<text text-anchor="start" x="266" y="-371.31" font-family="Helvetica,sans-Serif" font-size="11.00">last_name</text>
<polygon fill="none" stroke="black" points="418,-363.11 418,-385.11 524,-385.11 524,-363.11 418,-363.11"/>
<text text-anchor="start" x="421" y="-371.31" font-family="Helvetica,sans-Serif" font-size="11.00">text[2147483647]</text>
<polygon fill="#ffffff" stroke="transparent" points="246,-341.11 246,-363.11 418,-363.11 418,-341.11 246,-341.11"/>
<polygon fill="none" stroke="black" points="246,-341.11 246,-363.11 418,-363.11 418,-341.11 246,-341.11"/>
<text text-anchor="start" x="266" y="-349.31" font-family="Helvetica,sans-Serif" font-size="11.00">street_name</text>
<polygon fill="none" stroke="black" points="418,-341.11 418,-363.11 524,-363.11 524,-341.11 418,-341.11"/>
<text text-anchor="start" x="421" y="-349.31" font-family="Helvetica,sans-Serif" font-size="11.00">text[2147483647]</text>
<polygon fill="#ffffff" stroke="transparent" points="246,-319.11 246,-341.11 418,-341.11 418,-319.11 246,-319.11"/>
<polygon fill="none" stroke="black" points="246,-319.11 246,-341.11 418,-341.11 418,-319.11 246,-319.11"/>
<text text-anchor="start" x="266" y="-327.31" font-family="Helvetica,sans-Serif" font-size="11.00">house_number</text>
<polygon fill="none" stroke="black" points="418,-319.11 418,-341.11 524,-341.11 524,-319.11 418,-319.11"/>
<text text-anchor="start" x="421" y="-327.31" font-family="Helvetica,sans-Serif" font-size="11.00">varchar[10]</text>
<polygon fill="#ffffff" stroke="transparent" points="246,-297.11 246,-319.11 418,-319.11 418,-297.11 246,-297.11"/>
<polygon fill="none" stroke="black" points="246,-297.11 246,-319.11 418,-319.11 418,-297.11 246,-297.11"/>
<text text-anchor="start" x="266" y="-305.31" font-family="Helvetica,sans-Serif" font-size="11.00">address_supplement</text>
<polygon fill="none" stroke="black" points="418,-297.11 418,-319.11 524,-319.11 524,-297.11 418,-297.11"/>
<text text-anchor="start" x="421" y="-305.31" font-family="Helvetica,sans-Serif" font-size="11.00">text[2147483647]</text>
<polygon fill="#ffffff" stroke="transparent" points="246,-275.11 246,-297.11 418,-297.11 418,-275.11 246,-275.11"/>
<polygon fill="none" stroke="black" points="246,-275.11 246,-297.11 418,-297.11 418,-275.11 246,-275.11"/>
<text text-anchor="start" x="266" y="-283.31" font-family="Helvetica,sans-Serif" font-size="11.00">city</text>
<polygon fill="none" stroke="black" points="418,-275.11 418,-297.11 524,-297.11 524,-275.11 418,-275.11"/>
<text text-anchor="start" x="421" y="-283.31" font-family="Helvetica,sans-Serif" font-size="11.00">text[2147483647]</text>
<polygon fill="#ffffff" stroke="transparent" points="246,-253.11 246,-275.11 418,-275.11 418,-253.11 246,-253.11"/>
<polygon fill="none" stroke="black" points="246,-253.11 246,-275.11 418,-275.11 418,-253.11 246,-253.11"/>
<text text-anchor="start" x="266" y="-261.31" font-family="Helvetica,sans-Serif" font-size="11.00">postal_code</text>
<polygon fill="none" stroke="black" points="418,-253.11 418,-275.11 524,-275.11 524,-253.11 418,-253.11"/>
<text text-anchor="start" x="421" y="-261.31" font-family="Helvetica,sans-Serif" font-size="11.00">varchar[10]</text>
<polygon fill="#ffffff" stroke="transparent" points="246,-231.11 246,-253.11 418,-253.11 418,-231.11 246,-231.11"/>
<polygon fill="none" stroke="black" points="246,-231.11 246,-253.11 418,-253.11 418,-231.11 246,-231.11"/>
<text text-anchor="start" x="266" y="-239.31" font-family="Helvetica,sans-Serif" font-size="11.00">phone</text>
<polygon fill="none" stroke="black" points="418,-231.11 418,-253.11 524,-253.11 524,-231.11 418,-231.11"/>
<text text-anchor="start" x="421" y="-239.31" font-family="Helvetica,sans-Serif" font-size="11.00">varchar[20]</text>
<polygon fill="#ffffff" stroke="transparent" points="246,-209.11 246,-231.11 418,-231.11 418,-209.11 246,-209.11"/>
<polygon fill="none" stroke="black" points="246,-209.11 246,-231.11 418,-231.11 418,-209.11 246,-209.11"/>
<text text-anchor="start" x="266" y="-217.31" font-family="Helvetica,sans-Serif" font-size="11.00">email</text>
<polygon fill="none" stroke="black" points="418,-209.11 418,-231.11 524,-231.11 524,-209.11 418,-209.11"/>
<text text-anchor="start" x="421" y="-217.31" font-family="Helvetica,sans-Serif" font-size="11.00">varchar[255]</text>
<polygon fill="none" stroke="black" points="246,-187.11 246,-209.11 418,-209.11 418,-187.11 246,-187.11"/>
<text text-anchor="start" x="266" y="-195.31" font-family="Helvetica,sans-Serif" font-size="11.00">remark</text>
<polygon fill="none" stroke="black" points="418,-187.11 418,-209.11 524,-209.11 524,-187.11 418,-187.11"/>
<text text-anchor="start" x="421" y="-195.31" font-family="Helvetica,sans-Serif" font-size="11.00">text[2147483647]</text>
<polygon fill="none" stroke="black" points="246,-165.11 246,-187.11 418,-187.11 418,-165.11 246,-165.11"/>
<text text-anchor="start" x="266" y="-173.31" font-family="Helvetica,sans-Serif" font-size="11.00">second_first_name</text>
<polygon fill="none" stroke="black" points="418,-165.11 418,-187.11 524,-187.11 524,-165.11 418,-165.11"/>
<text text-anchor="start" x="421" y="-173.31" font-family="Helvetica,sans-Serif" font-size="11.00">text[2147483647]</text>
<polygon fill="none" stroke="black" points="246,-143.11 246,-165.11 418,-165.11 418,-143.11 246,-143.11"/>
<text text-anchor="start" x="266" y="-151.31" font-family="Helvetica,sans-Serif" font-size="11.00">display_txt</text>
<polygon fill="none" stroke="black" points="418,-143.11 418,-165.11 524,-165.11 524,-143.11 418,-143.11"/>
<text text-anchor="start" x="421" y="-151.31" font-family="Helvetica,sans-Serif" font-size="11.00">text[2147483647]</text>
<polygon fill="#ffffff" stroke="transparent" points="246,-125.11 246,-143.11 524,-143.11 524,-125.11 246,-125.11"/>
<polygon fill="none" stroke="black" points="246,-125.11 246,-143.11 524,-143.11 524,-125.11 246,-125.11"/>
<polygon fill="#ffffff" stroke="transparent" points="247,-126.11 247,-142.11 343,-142.11 343,-126.11 247,-126.11"/>
<text text-anchor="start" x="249" y="-131.31" font-family="Helvetica,sans-Serif" font-size="11.00">&lt; 2</text>
<polygon fill="#ffffff" stroke="transparent" points="343,-126.11 343,-142.11 427,-142.11 427,-126.11 343,-126.11"/>
<text text-anchor="start" x="381" y="-131.31" font-family="Helvetica,sans-Serif" font-size="11.00"> &#160;</text>
<polygon fill="#ffffff" stroke="transparent" points="427,-126.11 427,-142.11 523,-142.11 523,-126.11 427,-126.11"/>
<text text-anchor="start" x="501" y="-131.31" font-family="Helvetica,sans-Serif" font-size="11.00">4 &gt;</text>
<polygon fill="black" stroke="black" points="343,-126.11 343,-142.11 343,-142.11 343,-126.11 343,-126.11"/>
<polygon fill="black" stroke="black" points="427,-126.11 427,-142.11 427,-142.11 427,-126.11 427,-126.11"/>
<polygon fill="none" stroke="black" stroke-width="2" points="245,-124.11 245,-518.11 525,-518.11 525,-124.11 245,-124.11"/>
</a>
</g>
</g>
<!-- tce_vl.civility -->
<g id="node2" class="node">
<title>tce_vl.civility</title>
<g id="a_node2"><a xlink:href="../../../tce_vl/tables/civility.html" xlink:title="tce_vl.civility" target="_top">
<polygon fill="#ffffff" stroke="transparent" points="30.5,-212.11 30.5,-270.11 172.5,-270.11 172.5,-212.11 30.5,-212.11"/>
<polygon fill="#f5f5f5" stroke="transparent" points="30.5,-248.11 30.5,-270.11 172.5,-270.11 172.5,-248.11 30.5,-248.11"/>
<polygon fill="none" stroke="black" points="30.5,-248.11 30.5,-270.11 172.5,-270.11 172.5,-248.11 30.5,-248.11"/>
<text text-anchor="start" x="35.5" y="-257.31" font-family="Helvetica,sans-Serif" font-weight="bold" font-size="11.00">tce_vl.civility</text>
<text text-anchor="start" x="130.5" y="-256.31" font-family="Helvetica,sans-Serif" font-size="11.00">[table]</text>
<polygon fill="none" stroke="black" points="30.5,-230.11 30.5,-248.11 172.5,-248.11 172.5,-230.11 30.5,-230.11"/>
<text text-anchor="start" x="33.5" y="-236.31" font-family="Helvetica,sans-Serif" font-size="11.00">...</text>
<polygon fill="#ffffff" stroke="transparent" points="30.5,-212.11 30.5,-230.11 172.5,-230.11 172.5,-212.11 30.5,-212.11"/>
<polygon fill="none" stroke="black" points="30.5,-212.11 30.5,-230.11 172.5,-230.11 172.5,-212.11 30.5,-212.11"/>
<polygon fill="#ffffff" stroke="transparent" points="31.5,-213.11 31.5,-229.11 64.5,-229.11 64.5,-213.11 31.5,-213.11"/>
<text text-anchor="start" x="33.5" y="-218.31" font-family="Helvetica,sans-Serif" font-size="11.00"> &#160;</text>
<polygon fill="#ffffff" stroke="transparent" points="64.5,-213.11 64.5,-229.11 126.5,-229.11 126.5,-213.11 64.5,-213.11"/>
<text text-anchor="start" x="77" y="-218.31" font-family="Helvetica,sans-Serif" font-size="11.00">0 rows</text>
<polygon fill="#ffffff" stroke="transparent" points="126.5,-213.11 126.5,-229.11 171.5,-229.11 171.5,-213.11 126.5,-213.11"/>
<text text-anchor="start" x="149.5" y="-218.31" font-family="Helvetica,sans-Serif" font-size="11.00">2 &gt;</text>
<polygon fill="black" stroke="black" points="64.5,-213.11 64.5,-229.11 64.5,-229.11 64.5,-213.11 64.5,-213.11"/>
<polygon fill="black" stroke="black" points="126.5,-213.11 126.5,-229.11 126.5,-229.11 126.5,-213.11 126.5,-213.11"/>
</a>
</g>
</g>
<!-- contact&#45;&gt;tce_vl.civility -->
<g id="edge1" class="edge">
<title>contact:w&#45;&gt;tce_vl.civility:e</title>
<path fill="none" stroke="black" d="M230.47,-416.86C166.4,-405.66 128.89,-322.17 112.46,-274.4"/>
<polygon fill="black" stroke="black" points="237.03,-417.42 244.69,-421.7 241.01,-417.77 245,-418.11 245,-418.11 245,-418.11 241.01,-417.77 245.31,-414.52 237.03,-417.42 237.03,-417.42"/>
<ellipse fill="none" stroke="black" cx="233.84" cy="-417.15" rx="3.2" ry="3.2"/>
</g>
<!-- tce_vl.contact_kind -->
<g id="node3" class="node">
<title>tce_vl.contact_kind</title>
<g id="a_node3"><a xlink:href="../../../tce_vl/tables/contact_kind.html" xlink:title="tce_vl.contact_kind" target="_top">
<polygon fill="#ffffff" stroke="transparent" points="8,-433.11 8,-491.11 195,-491.11 195,-433.11 8,-433.11"/>
<polygon fill="#f5f5f5" stroke="transparent" points="8.5,-469.11 8.5,-491.11 195.5,-491.11 195.5,-469.11 8.5,-469.11"/>
<polygon fill="none" stroke="black" points="8.5,-469.11 8.5,-491.11 195.5,-491.11 195.5,-469.11 8.5,-469.11"/>
<text text-anchor="start" x="13.5" y="-478.31" font-family="Helvetica,sans-Serif" font-weight="bold" font-size="11.00">tce_vl.contact_kind</text>
<text text-anchor="start" x="153.5" y="-477.31" font-family="Helvetica,sans-Serif" font-size="11.00">[table]</text>
<polygon fill="none" stroke="black" points="8.5,-451.11 8.5,-469.11 195.5,-469.11 195.5,-451.11 8.5,-451.11"/>
<text text-anchor="start" x="11.5" y="-457.31" font-family="Helvetica,sans-Serif" font-size="11.00">...</text>
<polygon fill="#ffffff" stroke="transparent" points="8.5,-433.11 8.5,-451.11 195.5,-451.11 195.5,-433.11 8.5,-433.11"/>
<polygon fill="none" stroke="black" points="8.5,-433.11 8.5,-451.11 195.5,-451.11 195.5,-433.11 8.5,-433.11"/>
<polygon fill="#ffffff" stroke="transparent" points="9.5,-434.11 9.5,-450.11 57.5,-450.11 57.5,-434.11 9.5,-434.11"/>
<text text-anchor="start" x="11.5" y="-439.31" font-family="Helvetica,sans-Serif" font-size="11.00"> &#160;</text>
<polygon fill="#ffffff" stroke="transparent" points="57.5,-434.11 57.5,-450.11 134.5,-450.11 134.5,-434.11 57.5,-434.11"/>
<text text-anchor="start" x="77.5" y="-439.31" font-family="Helvetica,sans-Serif" font-size="11.00">0 rows</text>
<polygon fill="#ffffff" stroke="transparent" points="134.5,-434.11 134.5,-450.11 194.5,-450.11 194.5,-434.11 134.5,-434.11"/>
<text text-anchor="start" x="172.5" y="-439.31" font-family="Helvetica,sans-Serif" font-size="11.00">1 &gt;</text>
<polygon fill="black" stroke="black" points="57.5,-434.11 57.5,-450.11 57.5,-450.11 57.5,-434.11 57.5,-434.11"/>
<polygon fill="black" stroke="black" points="134.5,-434.11 134.5,-450.11 134.5,-450.11 134.5,-434.11 134.5,-434.11"/>
</a>
</g>
</g>
<!-- contact&#45;&gt;tce_vl.contact_kind -->
<g id="edge2" class="edge">
<title>contact:w&#45;&gt;tce_vl.contact_kind:e</title>
<path fill="none" stroke="black" d="M230.55,-462.11C221.56,-462.11 212.39,-462.11 203.31,-462.11"/>
<polygon fill="black" stroke="black" points="237,-462.11 245,-465.71 241,-462.11 245,-462.11 245,-462.11 245,-462.11 241,-462.11 245,-458.51 237,-462.11 237,-462.11"/>
<ellipse fill="none" stroke="black" cx="233.8" cy="-462.11" rx="3.2" ry="3.2"/>
</g>
<!-- contract -->
<g id="node4" class="node">
<title>contract</title>
<g id="a_node4"><a xlink:href="../../tables/contract.html" xlink:title="contract" target="_top">
<polygon fill="#ffffff" stroke="transparent" points="806.5,-343.11 806.5,-489.11 965.5,-489.11 965.5,-343.11 806.5,-343.11"/>
<polygon fill="#f5f5f5" stroke="transparent" points="807,-467.11 807,-489.11 966,-489.11 966,-467.11 807,-467.11"/>
<polygon fill="none" stroke="black" points="807,-467.11 807,-489.11 966,-489.11 966,-467.11 807,-467.11"/>
<text text-anchor="start" x="812" y="-476.31" font-family="Helvetica,sans-Serif" font-weight="bold" font-size="11.00">contract</text>
<text text-anchor="start" x="924" y="-475.31" font-family="Helvetica,sans-Serif" font-size="11.00">[table]</text>
<polygon fill="none" stroke="black" points="807,-445.11 807,-467.11 966,-467.11 966,-445.11 807,-445.11"/>
<image xlink:href="../../images/primaryKeys.png" width="11px" height="12px" preserveAspectRatio="xMinYMin meet" x="812" y="-462.109"/>
<text text-anchor="start" x="827" y="-453.31" font-family="Helvetica,sans-Serif" font-size="11.00">id</text>
<polygon fill="none" stroke="black" points="807,-423.11 807,-445.11 966,-445.11 966,-423.11 807,-423.11"/>
<image xlink:href="../../images/foreignKeys.png" width="11px" height="12px" preserveAspectRatio="xMinYMin meet" x="812" y="-440.109"/>
<text text-anchor="start" x="827" y="-431.31" font-family="Helvetica,sans-Serif" font-size="11.00">fk_kind</text>
<polygon fill="none" stroke="black" points="807,-401.11 807,-423.11 966,-423.11 966,-401.11 807,-401.11"/>
<image xlink:href="../../images/foreignKeys.png" width="11px" height="12px" preserveAspectRatio="xMinYMin meet" x="812" y="-418.109"/>
<text text-anchor="start" x="827" y="-409.31" font-family="Helvetica,sans-Serif" font-size="11.00">fk_contract_person</text>
<polygon fill="none" stroke="black" points="807,-379.11 807,-401.11 966,-401.11 966,-379.11 807,-379.11"/>
<image xlink:href="../../images/foreignKeys.png" width="11px" height="12px" preserveAspectRatio="xMinYMin meet" x="812" y="-396.109"/>
<text text-anchor="start" x="827" y="-387.31" font-family="Helvetica,sans-Serif" font-size="11.00">fk_unit</text>
<polygon fill="none" stroke="black" points="807,-361.11 807,-379.11 966,-379.11 966,-361.11 807,-361.11"/>
<text text-anchor="start" x="810" y="-367.31" font-family="Helvetica,sans-Serif" font-size="11.00">...</text>
<polygon fill="#ffffff" stroke="transparent" points="807,-343.11 807,-361.11 966,-361.11 966,-343.11 807,-343.11"/>
<polygon fill="none" stroke="black" points="807,-343.11 807,-361.11 966,-361.11 966,-343.11 807,-343.11"/>
<polygon fill="#ffffff" stroke="transparent" points="808,-344.11 808,-360.11 865,-360.11 865,-344.11 808,-344.11"/>
<text text-anchor="start" x="810" y="-349.31" font-family="Helvetica,sans-Serif" font-size="11.00">&lt; 3</text>
<polygon fill="#ffffff" stroke="transparent" points="865,-344.11 865,-360.11 909,-360.11 909,-344.11 865,-344.11"/>
<text text-anchor="start" x="883" y="-349.31" font-family="Helvetica,sans-Serif" font-size="11.00"> &#160;</text>
<polygon fill="#ffffff" stroke="transparent" points="909,-344.11 909,-360.11 965,-360.11 965,-344.11 909,-344.11"/>
<text text-anchor="start" x="943" y="-349.31" font-family="Helvetica,sans-Serif" font-size="11.00">1 &gt;</text>
<polygon fill="black" stroke="black" points="865,-344.11 865,-360.11 865,-360.11 865,-344.11 865,-344.11"/>
<polygon fill="black" stroke="black" points="909,-344.11 909,-360.11 909,-360.11 909,-344.11 909,-344.11"/>
</a>
</g>
</g>
<!-- contract&#45;&gt;contact -->
<g id="edge3" class="edge">
<title>contract:w&#45;&gt;contact:e</title>
<path fill="none" stroke="black" d="M791.58,-413.15C770.67,-416.46 762.16,-426.91 736,-434.11 643.08,-459.68 621.37,-484.11 525,-484.11"/>
<polygon fill="black" stroke="black" points="798.02,-412.69 806.26,-415.7 802.01,-412.4 806,-412.11 806,-412.11 806,-412.11 802.01,-412.4 805.74,-408.52 798.02,-412.69 798.02,-412.69"/>
<ellipse fill="none" stroke="black" cx="794.83" cy="-412.92" rx="3.2" ry="3.2"/>
</g>
<!-- unit -->
<g id="node5" class="node">
<title>unit</title>
<g id="a_node5"><a xlink:href="../../tables/unit.html" xlink:title="unit" target="_top">
<polygon fill="#ffffff" stroke="transparent" points="575,-123.11 575,-423.11 728,-423.11 728,-123.11 575,-123.11"/>
<polygon fill="#f5f5f5" stroke="transparent" points="575.5,-401.11 575.5,-423.11 728.5,-423.11 728.5,-401.11 575.5,-401.11"/>
<polygon fill="none" stroke="black" points="575.5,-401.11 575.5,-423.11 728.5,-423.11 728.5,-401.11 575.5,-401.11"/>
<text text-anchor="start" x="580.5" y="-410.31" font-family="Helvetica,sans-Serif" font-weight="bold" font-size="11.00">unit</text>
<text text-anchor="start" x="686.5" y="-409.31" font-family="Helvetica,sans-Serif" font-size="11.00">[table]</text>
<polygon fill="none" stroke="black" points="575.5,-379.11 575.5,-401.11 728.5,-401.11 728.5,-379.11 575.5,-379.11"/>
<image xlink:href="../../images/primaryKeys.png" width="11px" height="12px" preserveAspectRatio="xMinYMin meet" x="580.5" y="-396.109"/>
<text text-anchor="start" x="595.5" y="-387.31" font-family="Helvetica,sans-Serif" font-size="11.00">id</text>
<polygon fill="#ffffff" stroke="transparent" points="575.5,-357.11 575.5,-379.11 728.5,-379.11 728.5,-357.11 575.5,-357.11"/>
<polygon fill="none" stroke="black" points="575.5,-357.11 575.5,-379.11 728.5,-379.11 728.5,-357.11 575.5,-357.11"/>
<text text-anchor="start" x="595.5" y="-365.31" font-family="Helvetica,sans-Serif" font-size="11.00">identifier</text>
<polygon fill="none" stroke="black" points="575.5,-335.11 575.5,-357.11 728.5,-357.11 728.5,-335.11 575.5,-335.11"/>
<image xlink:href="../../images/foreignKeys.png" width="11px" height="12px" preserveAspectRatio="xMinYMin meet" x="580.5" y="-352.109"/>
<text text-anchor="start" x="595.5" y="-343.31" font-family="Helvetica,sans-Serif" font-size="11.00">fk_company</text>
<polygon fill="none" stroke="black" points="575.5,-313.11 575.5,-335.11 728.5,-335.11 728.5,-313.11 575.5,-313.11"/>
<image xlink:href="../../images/foreignKeys.png" width="11px" height="12px" preserveAspectRatio="xMinYMin meet" x="580.5" y="-330.109"/>
<text text-anchor="start" x="595.5" y="-321.31" font-family="Helvetica,sans-Serif" font-size="11.00">fk_sector</text>
<polygon fill="none" stroke="black" points="575.5,-291.11 575.5,-313.11 728.5,-313.11 728.5,-291.11 575.5,-291.11"/>
<image xlink:href="../../images/foreignKeys.png" width="11px" height="12px" preserveAspectRatio="xMinYMin meet" x="580.5" y="-308.109"/>
<text text-anchor="start" x="595.5" y="-299.31" font-family="Helvetica,sans-Serif" font-size="11.00">fk_cemetery</text>
<polygon fill="none" stroke="black" points="575.5,-269.11 575.5,-291.11 728.5,-291.11 728.5,-269.11 575.5,-269.11"/>
<image xlink:href="../../images/foreignKeys.png" width="11px" height="12px" preserveAspectRatio="xMinYMin meet" x="580.5" y="-286.109"/>
<text text-anchor="start" x="595.5" y="-277.31" font-family="Helvetica,sans-Serif" font-size="11.00">fk_size</text>
<polygon fill="none" stroke="black" points="575.5,-247.11 575.5,-269.11 728.5,-269.11 728.5,-247.11 575.5,-247.11"/>
<image xlink:href="../../images/foreignKeys.png" width="11px" height="12px" preserveAspectRatio="xMinYMin meet" x="580.5" y="-264.109"/>
<text text-anchor="start" x="595.5" y="-255.31" font-family="Helvetica,sans-Serif" font-size="11.00">fk_kind</text>
<polygon fill="none" stroke="black" points="575.5,-225.11 575.5,-247.11 728.5,-247.11 728.5,-225.11 575.5,-225.11"/>
<image xlink:href="../../images/foreignKeys.png" width="11px" height="12px" preserveAspectRatio="xMinYMin meet" x="580.5" y="-242.109"/>
<text text-anchor="start" x="595.5" y="-233.31" font-family="Helvetica,sans-Serif" font-size="11.00">fk_urn_material</text>
<polygon fill="none" stroke="black" points="575.5,-203.11 575.5,-225.11 728.5,-225.11 728.5,-203.11 575.5,-203.11"/>
<image xlink:href="../../images/foreignKeys.png" width="11px" height="12px" preserveAspectRatio="xMinYMin meet" x="580.5" y="-220.109"/>
<text text-anchor="start" x="595.5" y="-211.31" font-family="Helvetica,sans-Serif" font-size="11.00">fk_urn_shape</text>
<polygon fill="none" stroke="black" points="575.5,-181.11 575.5,-203.11 728.5,-203.11 728.5,-181.11 575.5,-181.11"/>
<image xlink:href="../../images/foreignKeys.png" width="11px" height="12px" preserveAspectRatio="xMinYMin meet" x="580.5" y="-198.109"/>
<text text-anchor="start" x="595.5" y="-189.31" font-family="Helvetica,sans-Serif" font-size="11.00">fk_contact_person</text>
<polygon fill="none" stroke="black" points="575.5,-159.11 575.5,-181.11 728.5,-181.11 728.5,-159.11 575.5,-159.11"/>
<image xlink:href="../../images/foreignKeys.png" width="11px" height="12px" preserveAspectRatio="xMinYMin meet" x="580.5" y="-176.109"/>
<text text-anchor="start" x="595.5" y="-167.31" font-family="Helvetica,sans-Serif" font-size="11.00">fk_control</text>
<polygon fill="none" stroke="black" points="575.5,-141.11 575.5,-159.11 728.5,-159.11 728.5,-141.11 575.5,-141.11"/>
<text text-anchor="start" x="578.5" y="-147.31" font-family="Helvetica,sans-Serif" font-size="11.00">...</text>
<polygon fill="#ffffff" stroke="transparent" points="575.5,-123.11 575.5,-141.11 728.5,-141.11 728.5,-123.11 575.5,-123.11"/>
<polygon fill="none" stroke="black" points="575.5,-123.11 575.5,-141.11 728.5,-141.11 728.5,-123.11 575.5,-123.11"/>
<polygon fill="#ffffff" stroke="transparent" points="576.5,-124.11 576.5,-140.11 631.5,-140.11 631.5,-124.11 576.5,-124.11"/>
<text text-anchor="start" x="578.5" y="-129.31" font-family="Helvetica,sans-Serif" font-size="11.00">&lt; 9</text>
<polygon fill="#ffffff" stroke="transparent" points="631.5,-124.11 631.5,-140.11 673.5,-140.11 673.5,-124.11 631.5,-124.11"/>
<text text-anchor="start" x="648.5" y="-129.31" font-family="Helvetica,sans-Serif" font-size="11.00"> &#160;</text>
<polygon fill="#ffffff" stroke="transparent" points="673.5,-124.11 673.5,-140.11 727.5,-140.11 727.5,-124.11 673.5,-124.11"/>
<text text-anchor="start" x="705.5" y="-129.31" font-family="Helvetica,sans-Serif" font-size="11.00">3 &gt;</text>
<polygon fill="black" stroke="black" points="631.5,-124.11 631.5,-140.11 631.5,-140.11 631.5,-124.11 631.5,-124.11"/>
<polygon fill="black" stroke="black" points="673.5,-124.11 673.5,-140.11 673.5,-140.11 673.5,-124.11 673.5,-124.11"/>
</a>
</g>
</g>
<!-- contract&#45;&gt;unit -->
<g id="edge4" class="edge">
<title>contract:w&#45;&gt;unit:e</title>
<path fill="none" stroke="black" d="M791.42,-390.11C768.62,-390.11 758.05,-390.11 729.5,-390.11"/>
<polygon fill="black" stroke="black" points="798,-390.11 806,-393.71 802,-390.11 806,-390.11 806,-390.11 806,-390.11 802,-390.11 806,-386.51 798,-390.11 798,-390.11"/>
<ellipse fill="none" stroke="black" cx="794.8" cy="-390.11" rx="3.2" ry="3.2"/>
</g>
<!-- unit&#45;&gt;contact -->
<g id="edge12" class="edge">
<title>unit:w&#45;&gt;contact:e</title>
<path fill="none" stroke="black" d="M561.13,-197.68C521.16,-238.05 585.42,-484.11 525,-484.11"/>
<polygon fill="black" stroke="black" points="567.12,-195.19 575.88,-195.43 570.81,-193.65 574.5,-192.11 574.5,-192.11 574.5,-192.11 570.81,-193.65 573.12,-188.79 567.12,-195.19 567.12,-195.19"/>
<ellipse fill="none" stroke="black" cx="564.16" cy="-196.42" rx="3.2" ry="3.2"/>
</g>
<!-- deceased -->
<g id="node6" class="node">
<title>deceased</title>
<g id="a_node6"><a xlink:href="../../tables/deceased.html" xlink:title="deceased" target="_top">
<polygon fill="#ffffff" stroke="transparent" points="777,-54.11 777,-266.11 995,-266.11 995,-54.11 777,-54.11"/>
<polygon fill="#f5f5f5" stroke="transparent" points="777,-244.11 777,-266.11 995,-266.11 995,-244.11 777,-244.11"/>
<polygon fill="none" stroke="black" points="777,-244.11 777,-266.11 995,-266.11 995,-244.11 777,-244.11"/>
<text text-anchor="start" x="782" y="-253.31" font-family="Helvetica,sans-Serif" font-weight="bold" font-size="11.00">deceased</text>
<text text-anchor="start" x="953" y="-252.31" font-family="Helvetica,sans-Serif" font-size="11.00">[table]</text>
<polygon fill="none" stroke="black" points="777,-222.11 777,-244.11 995,-244.11 995,-222.11 777,-222.11"/>
<image xlink:href="../../images/primaryKeys.png" width="11px" height="12px" preserveAspectRatio="xMinYMin meet" x="782" y="-239.109"/>
<text text-anchor="start" x="797" y="-230.31" font-family="Helvetica,sans-Serif" font-size="11.00">id</text>
<polygon fill="none" stroke="black" points="777,-200.11 777,-222.11 995,-222.11 995,-200.11 777,-200.11"/>
<image xlink:href="../../images/foreignKeys.png" width="11px" height="12px" preserveAspectRatio="xMinYMin meet" x="782" y="-217.109"/>
<text text-anchor="start" x="797" y="-208.31" font-family="Helvetica,sans-Serif" font-size="11.00">fk_civility</text>
<polygon fill="none" stroke="black" points="777,-178.11 777,-200.11 995,-200.11 995,-178.11 777,-178.11"/>
<image xlink:href="../../images/foreignKeys.png" width="11px" height="12px" preserveAspectRatio="xMinYMin meet" x="782" y="-195.109"/>
<text text-anchor="start" x="797" y="-186.31" font-family="Helvetica,sans-Serif" font-size="11.00">fk_birth_country</text>
<polygon fill="none" stroke="black" points="777,-156.11 777,-178.11 995,-178.11 995,-156.11 777,-156.11"/>
<image xlink:href="../../images/foreignKeys.png" width="11px" height="12px" preserveAspectRatio="xMinYMin meet" x="782" y="-173.109"/>
<text text-anchor="start" x="797" y="-164.31" font-family="Helvetica,sans-Serif" font-size="11.00">fk_death_country</text>
<polygon fill="none" stroke="black" points="777,-134.11 777,-156.11 995,-156.11 995,-134.11 777,-134.11"/>
<image xlink:href="../../images/foreignKeys.png" width="11px" height="12px" preserveAspectRatio="xMinYMin meet" x="782" y="-151.109"/>
<text text-anchor="start" x="797" y="-142.31" font-family="Helvetica,sans-Serif" font-size="11.00">fk_burial_country</text>
<polygon fill="none" stroke="black" points="777,-112.11 777,-134.11 995,-134.11 995,-112.11 777,-112.11"/>
<image xlink:href="../../images/foreignKeys.png" width="11px" height="12px" preserveAspectRatio="xMinYMin meet" x="782" y="-129.109"/>
<text text-anchor="start" x="797" y="-120.31" font-family="Helvetica,sans-Serif" font-size="11.00">fk_unit</text>
<polygon fill="none" stroke="black" points="777,-90.11 777,-112.11 995,-112.11 995,-90.11 777,-90.11"/>
<image xlink:href="../../images/foreignKeys.png" width="11px" height="12px" preserveAspectRatio="xMinYMin meet" x="782" y="-107.109"/>
<text text-anchor="start" x="797" y="-98.31" font-family="Helvetica,sans-Serif" font-size="11.00">fk_contact_person</text>
<polygon fill="none" stroke="black" points="777,-72.11 777,-90.11 995,-90.11 995,-72.11 777,-72.11"/>
<text text-anchor="start" x="780" y="-78.31" font-family="Helvetica,sans-Serif" font-size="11.00">...</text>
<polygon fill="#ffffff" stroke="transparent" points="777,-54.11 777,-72.11 995,-72.11 995,-54.11 777,-54.11"/>
<polygon fill="none" stroke="black" points="777,-54.11 777,-72.11 995,-72.11 995,-54.11 777,-54.11"/>
<polygon fill="#ffffff" stroke="transparent" points="778,-55.11 778,-71.11 854,-71.11 854,-55.11 778,-55.11"/>
<text text-anchor="start" x="780" y="-60.31" font-family="Helvetica,sans-Serif" font-size="11.00">&lt; 6</text>
<polygon fill="#ffffff" stroke="transparent" points="854,-55.11 854,-71.11 918,-71.11 918,-55.11 854,-55.11"/>
<text text-anchor="start" x="882" y="-60.31" font-family="Helvetica,sans-Serif" font-size="11.00"> &#160;</text>
<polygon fill="#ffffff" stroke="transparent" points="918,-55.11 918,-71.11 994,-71.11 994,-55.11 918,-55.11"/>
<text text-anchor="start" x="972" y="-60.31" font-family="Helvetica,sans-Serif" font-size="11.00">1 &gt;</text>
<polygon fill="black" stroke="black" points="854,-55.11 854,-71.11 854,-71.11 854,-55.11 854,-55.11"/>
<polygon fill="black" stroke="black" points="918,-55.11 918,-71.11 918,-71.11 918,-55.11 918,-55.11"/>
</a>
</g>
</g>
<!-- deceased&#45;&gt;contact -->
<g id="edge6" class="edge">
<title>deceased:w&#45;&gt;contact:e</title>
<path fill="none" stroke="black" d="M761.39,-100.68C677.74,-95.78 631.07,-51.76 567,-112.11 506.44,-169.15 608.19,-484.11 525,-484.11"/>
<polygon fill="black" stroke="black" points="768,-100.87 775.89,-104.71 772,-100.99 776,-101.11 776,-101.11 776,-101.11 772,-100.99 776.11,-97.51 768,-100.87 768,-100.87"/>
<ellipse fill="none" stroke="black" cx="764.8" cy="-100.78" rx="3.2" ry="3.2"/>
</g>
<!-- deceased&#45;&gt;tce_vl.civility -->
<g id="edge5" class="edge">
<title>deceased:w&#45;&gt;tce_vl.civility:e</title>
<path fill="none" stroke="black" d="M761.96,-207.75C739.18,-193.19 770.27,-135.23 736,-112.11 551.77,12.15 442.03,-28.83 236,-112.11 188.49,-131.31 148.5,-176.42 125.01,-207.85"/>
<polygon fill="black" stroke="black" points="768.22,-209.25 775.16,-214.61 772.11,-210.18 776,-211.11 776,-211.11 776,-211.11 772.11,-210.18 776.84,-207.61 768.22,-209.25 768.22,-209.25"/>
<ellipse fill="none" stroke="black" cx="765.11" cy="-208.5" rx="3.2" ry="3.2"/>
</g>
<!-- deceased&#45;&gt;unit -->
<g id="edge7" class="edge">
<title>deceased:w&#45;&gt;unit:e</title>
<path fill="none" stroke="black" d="M762.82,-129.19C727.98,-168.93 784.32,-390.11 729.5,-390.11"/>
<polygon fill="black" stroke="black" points="768.74,-126.46 777.51,-126.38 772.37,-124.78 776,-123.11 776,-123.11 776,-123.11 772.37,-124.78 774.49,-119.84 768.74,-126.46 768.74,-126.46"/>
<ellipse fill="none" stroke="black" cx="765.83" cy="-127.8" rx="3.2" ry="3.2"/>
</g>
<!-- file -->
<g id="node7" class="node">
<title>file</title>
<g id="a_node7"><a xlink:href="../../tables/file.html" xlink:title="file" target="_top">
<polygon fill="#ffffff" stroke="transparent" points="1044,-263.11 1044,-541.11 1184,-541.11 1184,-263.11 1044,-263.11"/>
<polygon fill="#f5f5f5" stroke="transparent" points="1044,-519.11 1044,-541.11 1184,-541.11 1184,-519.11 1044,-519.11"/>
<polygon fill="none" stroke="black" points="1044,-519.11 1044,-541.11 1184,-541.11 1184,-519.11 1044,-519.11"/>
<text text-anchor="start" x="1048.5" y="-528.31" font-family="Helvetica,sans-Serif" font-weight="bold" font-size="11.00">file</text>
<text text-anchor="start" x="1142" y="-527.31" font-family="Helvetica,sans-Serif" font-size="11.00">[table]</text>
<polygon fill="none" stroke="black" points="1044,-497.11 1044,-519.11 1184,-519.11 1184,-497.11 1044,-497.11"/>
<image xlink:href="../../images/primaryKeys.png" width="11px" height="12px" preserveAspectRatio="xMinYMin meet" x="1049" y="-514.109"/>
<text text-anchor="start" x="1064" y="-505.31" font-family="Helvetica,sans-Serif" font-size="11.00">id</text>
<polygon fill="none" stroke="black" points="1044,-475.11 1044,-497.11 1184,-497.11 1184,-475.11 1044,-475.11"/>
<image xlink:href="../../images/foreignKeys.png" width="11px" height="12px" preserveAspectRatio="xMinYMin meet" x="1049" y="-492.109"/>
<text text-anchor="start" x="1064" y="-483.31" font-family="Helvetica,sans-Serif" font-size="11.00">cemetery_ref</text>
<polygon fill="none" stroke="black" points="1044,-453.11 1044,-475.11 1184,-475.11 1184,-453.11 1044,-453.11"/>
<image xlink:href="../../images/foreignKeys.png" width="11px" height="12px" preserveAspectRatio="xMinYMin meet" x="1049" y="-470.109"/>
<text text-anchor="start" x="1064" y="-461.31" font-family="Helvetica,sans-Serif" font-size="11.00">contact_ref</text>
<polygon fill="none" stroke="black" points="1044,-431.11 1044,-453.11 1184,-453.11 1184,-431.11 1044,-431.11"/>
<image xlink:href="../../images/foreignKeys.png" width="11px" height="12px" preserveAspectRatio="xMinYMin meet" x="1049" y="-448.109"/>
<text text-anchor="start" x="1064" y="-439.31" font-family="Helvetica,sans-Serif" font-size="11.00">contract_ref</text>
<polygon fill="none" stroke="black" points="1044,-409.11 1044,-431.11 1184,-431.11 1184,-409.11 1044,-409.11"/>
<image xlink:href="../../images/foreignKeys.png" width="11px" height="12px" preserveAspectRatio="xMinYMin meet" x="1049" y="-426.109"/>
<text text-anchor="start" x="1064" y="-417.31" font-family="Helvetica,sans-Serif" font-size="11.00">deceased_ref</text>
<polygon fill="none" stroke="black" points="1044,-387.11 1044,-409.11 1184,-409.11 1184,-387.11 1044,-387.11"/>
<image xlink:href="../../images/foreignKeys.png" width="11px" height="12px" preserveAspectRatio="xMinYMin meet" x="1049" y="-404.109"/>
<text text-anchor="start" x="1064" y="-395.31" font-family="Helvetica,sans-Serif" font-size="11.00">furniture_ref</text>
<polygon fill="none" stroke="black" points="1044,-365.11 1044,-387.11 1184,-387.11 1184,-365.11 1044,-365.11"/>
<image xlink:href="../../images/foreignKeys.png" width="11px" height="12px" preserveAspectRatio="xMinYMin meet" x="1049" y="-382.109"/>
<text text-anchor="start" x="1064" y="-373.31" font-family="Helvetica,sans-Serif" font-size="11.00">organisation_ref</text>
<polygon fill="none" stroke="black" points="1044,-343.11 1044,-365.11 1184,-365.11 1184,-343.11 1044,-343.11"/>
<image xlink:href="../../images/foreignKeys.png" width="11px" height="12px" preserveAspectRatio="xMinYMin meet" x="1049" y="-360.109"/>
<text text-anchor="start" x="1064" y="-351.31" font-family="Helvetica,sans-Serif" font-size="11.00">sector_ref</text>
<polygon fill="none" stroke="black" points="1044,-321.11 1044,-343.11 1184,-343.11 1184,-321.11 1044,-321.11"/>
<image xlink:href="../../images/foreignKeys.png" width="11px" height="12px" preserveAspectRatio="xMinYMin meet" x="1049" y="-338.109"/>
<text text-anchor="start" x="1064" y="-329.31" font-family="Helvetica,sans-Serif" font-size="11.00">unit_ref</text>
<polygon fill="none" stroke="black" points="1044,-299.11 1044,-321.11 1184,-321.11 1184,-299.11 1044,-299.11"/>
<image xlink:href="../../images/foreignKeys.png" width="11px" height="12px" preserveAspectRatio="xMinYMin meet" x="1049" y="-316.109"/>
<text text-anchor="start" x="1064" y="-307.31" font-family="Helvetica,sans-Serif" font-size="11.00">vegetation_ref</text>
<polygon fill="none" stroke="black" points="1044,-281.11 1044,-299.11 1184,-299.11 1184,-281.11 1044,-281.11"/>
<text text-anchor="start" x="1047" y="-287.31" font-family="Helvetica,sans-Serif" font-size="11.00">...</text>
<polygon fill="#ffffff" stroke="transparent" points="1044,-263.11 1044,-281.11 1184,-281.11 1184,-263.11 1044,-263.11"/>
<polygon fill="none" stroke="black" points="1044,-263.11 1044,-281.11 1184,-281.11 1184,-263.11 1044,-263.11"/>
<polygon fill="#ffffff" stroke="transparent" points="1045,-264.11 1045,-280.11 1099,-280.11 1099,-264.11 1045,-264.11"/>
<text text-anchor="start" x="1047" y="-269.31" font-family="Helvetica,sans-Serif" font-size="11.00">&lt; 9</text>
<polygon fill="#ffffff" stroke="transparent" points="1099,-264.11 1099,-280.11 1141,-280.11 1141,-264.11 1099,-264.11"/>
<text text-anchor="start" x="1116" y="-269.31" font-family="Helvetica,sans-Serif" font-size="11.00"> &#160;</text>
<polygon fill="#ffffff" stroke="transparent" points="1141,-264.11 1141,-280.11 1183,-280.11 1183,-264.11 1141,-264.11"/>
<text text-anchor="start" x="1173" y="-269.31" font-family="Helvetica,sans-Serif" font-size="11.00"> &#160;</text>
<polygon fill="black" stroke="black" points="1099,-264.11 1099,-280.11 1099,-280.11 1099,-264.11 1099,-264.11"/>
<polygon fill="black" stroke="black" points="1141,-264.11 1141,-280.11 1141,-280.11 1141,-264.11 1141,-264.11"/>
</a>
</g>
</g>
<!-- file&#45;&gt;contact -->
<g id="edge8" class="edge">
<title>file:w&#45;&gt;contact:e</title>
<path fill="none" stroke="black" d="M1029.22,-469.05C1020.39,-477.35 1019.4,-493.82 1003,-500.11 804.55,-576.26 737.56,-484.11 525,-484.11"/>
<polygon fill="black" stroke="black" points="1035.47,-466.81 1044.21,-467.5 1039.23,-465.46 1043,-464.11 1043,-464.11 1043,-464.11 1039.23,-465.46 1041.79,-460.72 1035.47,-466.81 1035.47,-466.81"/>
<ellipse fill="none" stroke="black" cx="1032.46" cy="-467.89" rx="3.2" ry="3.2"/>
</g>
<!-- file&#45;&gt;contract -->
<g id="edge9" class="edge">
<title>file:w&#45;&gt;contract:e</title>
<path fill="none" stroke="black" d="M1028.36,-443.07C1005.62,-446.23 995.85,-456.11 967,-456.11"/>
<polygon fill="black" stroke="black" points="1035.02,-442.63 1043.24,-445.7 1039.01,-442.37 1043,-442.11 1043,-442.11 1043,-442.11 1039.01,-442.37 1042.76,-438.52 1035.02,-442.63 1035.02,-442.63"/>
<ellipse fill="none" stroke="black" cx="1031.82" cy="-442.84" rx="3.2" ry="3.2"/>
</g>
<!-- file&#45;&gt;unit -->
<g id="edge11" class="edge">
<title>file:w&#45;&gt;unit:e</title>
<path fill="none" stroke="black" d="M1028.4,-331.84C917.47,-327.73 872.36,-278.74 769,-333.11 741.72,-347.46 760.32,-390.11 729.5,-390.11"/>
<polygon fill="black" stroke="black" points="1035,-331.96 1042.93,-335.71 1039,-332.04 1043,-332.11 1043,-332.11 1043,-332.11 1039,-332.04 1043.07,-328.51 1035,-331.96 1035,-331.96"/>
<ellipse fill="none" stroke="black" cx="1031.8" cy="-331.9" rx="3.2" ry="3.2"/>
</g>
<!-- file&#45;&gt;deceased -->
<g id="edge10" class="edge">
<title>file:w&#45;&gt;deceased:e</title>
<path fill="none" stroke="black" d="M1028.58,-417.74C972.9,-396.1 1076.01,-233.11 996,-233.11"/>
<polygon fill="black" stroke="black" points="1035.11,-418.81 1042.42,-423.66 1039.05,-419.46 1043,-420.11 1043,-420.11 1043,-420.11 1039.05,-419.46 1043.58,-416.56 1035.11,-418.81 1035.11,-418.81"/>
<ellipse fill="none" stroke="black" cx="1031.95" cy="-418.3" rx="3.2" ry="3.2"/>
</g>
</g>
</svg>
