<?xml version="1.0" encoding="UTF-8" standalone="no"?>
<!DOCTYPE svg PUBLIC "-//W3C//DTD SVG 1.1//EN"
 "http://www.w3.org/Graphics/SVG/1.1/DTD/svg11.dtd">
<!-- Generated by graphviz version 2.43.0 (0)
 -->
<!-- Title: oneDegreeRelationshipsDiagram Pages: 1 -->
<svg width="773pt" height="1126pt"
 viewBox="0.00 0.00 773.00 1126.00" xmlns="http://www.w3.org/2000/svg" xmlns:xlink="http://www.w3.org/1999/xlink">
<g id="graph0" class="graph" transform="scale(1 1) rotate(0) translate(4 1122)">
<title>oneDegreeRelationshipsDiagram</title>
<polygon fill="#ffffff" stroke="transparent" points="-4,4 -4,-1122 769,-1122 769,4 -4,4"/>
<text text-anchor="middle" x="79.5" y="-7.2" font-family="Helvetica,sans-Serif" font-size="11.00">Generated by SchemaSpy</text>
<!-- deceased -->
<g id="node1" class="node">
<title>deceased</title>
<g id="a_node1"><a xlink:href="../../tables/deceased.html" xlink:title="deceased" target="_top">
<polygon fill="#ffffff" stroke="transparent" points="210,-256 210,-1114 568,-1114 568,-256 210,-256"/>
<polygon fill="#f5f5f5" stroke="transparent" points="212,-1090 212,-1112 566,-1112 566,-1090 212,-1090"/>
<polygon fill="none" stroke="black" points="212,-1090 212,-1112 566,-1112 566,-1090 212,-1090"/>
<text text-anchor="start" x="217" y="-1099.2" font-family="Helvetica,sans-Serif" font-weight="bold" font-size="11.00">deceased</text>
<text text-anchor="start" x="524" y="-1098.2" font-family="Helvetica,sans-Serif" font-size="11.00">[table]</text>
<polygon fill="none" stroke="black" points="212,-1068 212,-1090 430,-1090 430,-1068 212,-1068"/>
<image xlink:href="../../images/primaryKeys.png" width="11px" height="12px" preserveAspectRatio="xMinYMin meet" x="217" y="-1085"/>
<text text-anchor="start" x="232" y="-1076.2" font-family="Helvetica,sans-Serif" font-size="11.00">id</text>
<polygon fill="none" stroke="black" points="430,-1068 430,-1090 566,-1090 566,-1068 430,-1068"/>
<text text-anchor="start" x="433" y="-1076.2" font-family="Helvetica,sans-Serif" font-size="11.00">uuid[2147483647]</text>
<polygon fill="none" stroke="black" points="212,-1046 212,-1068 430,-1068 430,-1046 212,-1046"/>
<text text-anchor="start" x="232" y="-1054.2" font-family="Helvetica,sans-Serif" font-size="11.00">ahv_number</text>
<polygon fill="none" stroke="black" points="430,-1046 430,-1068 566,-1068 566,-1046 430,-1046"/>
<text text-anchor="start" x="433" y="-1054.2" font-family="Helvetica,sans-Serif" font-size="11.00">varchar[16]</text>
<polygon fill="none" stroke="black" points="212,-1024 212,-1046 430,-1046 430,-1024 212,-1024"/>
<image xlink:href="../../images/foreignKeys.png" width="11px" height="12px" preserveAspectRatio="xMinYMin meet" x="217" y="-1041"/>
<text text-anchor="start" x="232" y="-1032.2" font-family="Helvetica,sans-Serif" font-size="11.00">fk_civility</text>
<polygon fill="none" stroke="black" points="430,-1024 430,-1046 566,-1046 566,-1024 430,-1024"/>
<text text-anchor="start" x="433" y="-1032.2" font-family="Helvetica,sans-Serif" font-size="11.00">int4[10]</text>
<polygon fill="none" stroke="black" points="212,-1002 212,-1024 430,-1024 430,-1002 212,-1002"/>
<text text-anchor="start" x="232" y="-1010.2" font-family="Helvetica,sans-Serif" font-size="11.00">first_name</text>
<polygon fill="none" stroke="black" points="430,-1002 430,-1024 566,-1024 566,-1002 430,-1002"/>
<text text-anchor="start" x="433" y="-1010.2" font-family="Helvetica,sans-Serif" font-size="11.00">text[2147483647]</text>
<polygon fill="none" stroke="black" points="212,-980 212,-1002 430,-1002 430,-980 212,-980"/>
<text text-anchor="start" x="232" y="-988.2" font-family="Helvetica,sans-Serif" font-size="11.00">second_first_name</text>
<polygon fill="none" stroke="black" points="430,-980 430,-1002 566,-1002 566,-980 430,-980"/>
<text text-anchor="start" x="433" y="-988.2" font-family="Helvetica,sans-Serif" font-size="11.00">text[2147483647]</text>
<polygon fill="none" stroke="black" points="212,-958 212,-980 430,-980 430,-958 212,-958"/>
<text text-anchor="start" x="232" y="-966.2" font-family="Helvetica,sans-Serif" font-size="11.00">last_name</text>
<polygon fill="none" stroke="black" points="430,-958 430,-980 566,-980 566,-958 430,-958"/>
<text text-anchor="start" x="433" y="-966.2" font-family="Helvetica,sans-Serif" font-size="11.00">text[2147483647]</text>
<polygon fill="none" stroke="black" points="212,-936 212,-958 430,-958 430,-936 212,-936"/>
<text text-anchor="start" x="232" y="-944.2" font-family="Helvetica,sans-Serif" font-size="11.00">street_name</text>
<polygon fill="none" stroke="black" points="430,-936 430,-958 566,-958 566,-936 430,-936"/>
<text text-anchor="start" x="433" y="-944.2" font-family="Helvetica,sans-Serif" font-size="11.00">text[2147483647]</text>
<polygon fill="none" stroke="black" points="212,-914 212,-936 430,-936 430,-914 212,-914"/>
<text text-anchor="start" x="232" y="-922.2" font-family="Helvetica,sans-Serif" font-size="11.00">house_number</text>
<polygon fill="none" stroke="black" points="430,-914 430,-936 566,-936 566,-914 430,-914"/>
<text text-anchor="start" x="433" y="-922.2" font-family="Helvetica,sans-Serif" font-size="11.00">varchar[10]</text>
<polygon fill="none" stroke="black" points="212,-892 212,-914 430,-914 430,-892 212,-892"/>
<text text-anchor="start" x="232" y="-900.2" font-family="Helvetica,sans-Serif" font-size="11.00">address_supplement</text>
<polygon fill="none" stroke="black" points="430,-892 430,-914 566,-914 566,-892 430,-892"/>
<text text-anchor="start" x="433" y="-900.2" font-family="Helvetica,sans-Serif" font-size="11.00">text[2147483647]</text>
<polygon fill="none" stroke="black" points="212,-870 212,-892 430,-892 430,-870 212,-870"/>
<text text-anchor="start" x="232" y="-878.2" font-family="Helvetica,sans-Serif" font-size="11.00">city</text>
<polygon fill="none" stroke="black" points="430,-870 430,-892 566,-892 566,-870 430,-870"/>
<text text-anchor="start" x="433" y="-878.2" font-family="Helvetica,sans-Serif" font-size="11.00">text[2147483647]</text>
<polygon fill="none" stroke="black" points="212,-848 212,-870 430,-870 430,-848 212,-848"/>
<text text-anchor="start" x="232" y="-856.2" font-family="Helvetica,sans-Serif" font-size="11.00">postal_code</text>
<polygon fill="none" stroke="black" points="430,-848 430,-870 566,-870 566,-848 430,-848"/>
<text text-anchor="start" x="433" y="-856.2" font-family="Helvetica,sans-Serif" font-size="11.00">varchar[10]</text>
<polygon fill="none" stroke="black" points="212,-826 212,-848 430,-848 430,-826 212,-826"/>
<text text-anchor="start" x="232" y="-834.2" font-family="Helvetica,sans-Serif" font-size="11.00">birth_date</text>
<polygon fill="none" stroke="black" points="430,-826 430,-848 566,-848 566,-826 430,-826"/>
<text text-anchor="start" x="433" y="-834.2" font-family="Helvetica,sans-Serif" font-size="11.00">date[13]</text>
<polygon fill="none" stroke="black" points="212,-804 212,-826 430,-826 430,-804 212,-804"/>
<text text-anchor="start" x="232" y="-812.2" font-family="Helvetica,sans-Serif" font-size="11.00">birth_place</text>
<polygon fill="none" stroke="black" points="430,-804 430,-826 566,-826 566,-804 430,-804"/>
<text text-anchor="start" x="433" y="-812.2" font-family="Helvetica,sans-Serif" font-size="11.00">text[2147483647]</text>
<polygon fill="none" stroke="black" points="212,-782 212,-804 430,-804 430,-782 212,-782"/>
<image xlink:href="../../images/foreignKeys.png" width="11px" height="12px" preserveAspectRatio="xMinYMin meet" x="217" y="-799"/>
<text text-anchor="start" x="232" y="-790.2" font-family="Helvetica,sans-Serif" font-size="11.00">fk_birth_country</text>
<polygon fill="none" stroke="black" points="430,-782 430,-804 566,-804 566,-782 430,-782"/>
<text text-anchor="start" x="433" y="-790.2" font-family="Helvetica,sans-Serif" font-size="11.00">int4[10]</text>
<polygon fill="none" stroke="black" points="212,-760 212,-782 430,-782 430,-760 212,-760"/>
<text text-anchor="start" x="232" y="-768.2" font-family="Helvetica,sans-Serif" font-size="11.00">death_date</text>
<polygon fill="none" stroke="black" points="430,-760 430,-782 566,-782 566,-760 430,-760"/>
<text text-anchor="start" x="433" y="-768.2" font-family="Helvetica,sans-Serif" font-size="11.00">date[13]</text>
<polygon fill="none" stroke="black" points="212,-738 212,-760 430,-760 430,-738 212,-738"/>
<text text-anchor="start" x="232" y="-746.2" font-family="Helvetica,sans-Serif" font-size="11.00">death_place</text>
<polygon fill="none" stroke="black" points="430,-738 430,-760 566,-760 566,-738 430,-738"/>
<text text-anchor="start" x="433" y="-746.2" font-family="Helvetica,sans-Serif" font-size="11.00">text[2147483647]</text>
<polygon fill="none" stroke="black" points="212,-716 212,-738 430,-738 430,-716 212,-716"/>
<image xlink:href="../../images/foreignKeys.png" width="11px" height="12px" preserveAspectRatio="xMinYMin meet" x="217" y="-733"/>
<text text-anchor="start" x="232" y="-724.2" font-family="Helvetica,sans-Serif" font-size="11.00">fk_death_country</text>
<polygon fill="none" stroke="black" points="430,-716 430,-738 566,-738 566,-716 430,-716"/>
<text text-anchor="start" x="433" y="-724.2" font-family="Helvetica,sans-Serif" font-size="11.00">int4[10]</text>
<polygon fill="none" stroke="black" points="212,-694 212,-716 430,-716 430,-694 212,-694"/>
<text text-anchor="start" x="232" y="-702.2" font-family="Helvetica,sans-Serif" font-size="11.00">burial_date</text>
<polygon fill="none" stroke="black" points="430,-694 430,-716 566,-716 566,-694 430,-694"/>
<text text-anchor="start" x="433" y="-702.2" font-family="Helvetica,sans-Serif" font-size="11.00">date[13]</text>
<polygon fill="none" stroke="black" points="212,-672 212,-694 430,-694 430,-672 212,-672"/>
<text text-anchor="start" x="232" y="-680.2" font-family="Helvetica,sans-Serif" font-size="11.00">burial_place</text>
<polygon fill="none" stroke="black" points="430,-672 430,-694 566,-694 566,-672 430,-672"/>
<text text-anchor="start" x="433" y="-680.2" font-family="Helvetica,sans-Serif" font-size="11.00">text[2147483647]</text>
<polygon fill="none" stroke="black" points="212,-650 212,-672 430,-672 430,-650 212,-650"/>
<image xlink:href="../../images/foreignKeys.png" width="11px" height="12px" preserveAspectRatio="xMinYMin meet" x="217" y="-667"/>
<text text-anchor="start" x="232" y="-658.2" font-family="Helvetica,sans-Serif" font-size="11.00">fk_burial_country</text>
<polygon fill="none" stroke="black" points="430,-650 430,-672 566,-672 566,-650 430,-650"/>
<text text-anchor="start" x="433" y="-658.2" font-family="Helvetica,sans-Serif" font-size="11.00">int4[10]</text>
<polygon fill="none" stroke="black" points="212,-628 212,-650 430,-650 430,-628 212,-628"/>
<text text-anchor="start" x="232" y="-636.2" font-family="Helvetica,sans-Serif" font-size="11.00">municipality_disposal_date</text>
<polygon fill="none" stroke="black" points="430,-628 430,-650 566,-650 566,-628 430,-628"/>
<text text-anchor="start" x="433" y="-636.2" font-family="Helvetica,sans-Serif" font-size="11.00">date[13]</text>
<polygon fill="none" stroke="black" points="212,-606 212,-628 430,-628 430,-606 212,-606"/>
<text text-anchor="start" x="232" y="-614.2" font-family="Helvetica,sans-Serif" font-size="11.00">municipality_approval</text>
<polygon fill="none" stroke="black" points="430,-606 430,-628 566,-628 566,-606 430,-606"/>
<text text-anchor="start" x="433" y="-614.2" font-family="Helvetica,sans-Serif" font-size="11.00">bool[1]</text>
<polygon fill="none" stroke="black" points="212,-584 212,-606 430,-606 430,-584 212,-584"/>
<text text-anchor="start" x="232" y="-592.2" font-family="Helvetica,sans-Serif" font-size="11.00">incineration_date</text>
<polygon fill="none" stroke="black" points="430,-584 430,-606 566,-606 566,-584 430,-584"/>
<text text-anchor="start" x="433" y="-592.2" font-family="Helvetica,sans-Serif" font-size="11.00">date[13]</text>
<polygon fill="none" stroke="black" points="212,-562 212,-584 430,-584 430,-562 212,-562"/>
<text text-anchor="start" x="232" y="-570.2" font-family="Helvetica,sans-Serif" font-size="11.00">incineration_place</text>
<polygon fill="none" stroke="black" points="430,-562 430,-584 566,-584 566,-562 430,-562"/>
<text text-anchor="start" x="433" y="-570.2" font-family="Helvetica,sans-Serif" font-size="11.00">text[2147483647]</text>
<polygon fill="none" stroke="black" points="212,-540 212,-562 430,-562 430,-540 212,-540"/>
<text text-anchor="start" x="232" y="-548.2" font-family="Helvetica,sans-Serif" font-size="11.00">fk_urn_kind</text>
<polygon fill="none" stroke="black" points="430,-540 430,-562 566,-562 566,-540 430,-540"/>
<text text-anchor="start" x="433" y="-548.2" font-family="Helvetica,sans-Serif" font-size="11.00">int4[10]</text>
<polygon fill="none" stroke="black" points="212,-518 212,-540 430,-540 430,-518 212,-518"/>
<text text-anchor="start" x="232" y="-526.2" font-family="Helvetica,sans-Serif" font-size="11.00">exumation_date</text>
<polygon fill="none" stroke="black" points="430,-518 430,-540 566,-540 566,-518 430,-518"/>
<text text-anchor="start" x="433" y="-526.2" font-family="Helvetica,sans-Serif" font-size="11.00">date[13]</text>
<polygon fill="none" stroke="black" points="212,-496 212,-518 430,-518 430,-496 212,-496"/>
<text text-anchor="start" x="232" y="-504.2" font-family="Helvetica,sans-Serif" font-size="11.00">exumation_place</text>
<polygon fill="none" stroke="black" points="430,-496 430,-518 566,-518 566,-496 430,-496"/>
<text text-anchor="start" x="433" y="-504.2" font-family="Helvetica,sans-Serif" font-size="11.00">text[2147483647]</text>
<polygon fill="none" stroke="black" points="212,-474 212,-496 430,-496 430,-474 212,-474"/>
<text text-anchor="start" x="232" y="-482.2" font-family="Helvetica,sans-Serif" font-size="11.00">remark</text>
<polygon fill="none" stroke="black" points="430,-474 430,-496 566,-496 566,-474 430,-474"/>
<text text-anchor="start" x="433" y="-482.2" font-family="Helvetica,sans-Serif" font-size="11.00">text[2147483647]</text>
<polygon fill="none" stroke="black" points="212,-452 212,-474 430,-474 430,-452 212,-452"/>
<text text-anchor="start" x="232" y="-460.2" font-family="Helvetica,sans-Serif" font-size="11.00">child</text>
<polygon fill="none" stroke="black" points="430,-452 430,-474 566,-474 566,-452 430,-452"/>
<text text-anchor="start" x="433" y="-460.2" font-family="Helvetica,sans-Serif" font-size="11.00">bool[1]</text>
<polygon fill="none" stroke="black" points="212,-430 212,-452 430,-452 430,-430 212,-430"/>
<text text-anchor="start" x="232" y="-438.2" font-family="Helvetica,sans-Serif" font-size="11.00">quality</text>
<polygon fill="none" stroke="black" points="430,-430 430,-452 566,-452 566,-430 430,-430"/>
<text text-anchor="start" x="433" y="-438.2" font-family="Helvetica,sans-Serif" font-size="11.00">float8[17,17]</text>
<polygon fill="none" stroke="black" points="212,-408 212,-430 430,-430 430,-408 212,-408"/>
<text text-anchor="start" x="232" y="-416.2" font-family="Helvetica,sans-Serif" font-size="11.00">depth</text>
<polygon fill="none" stroke="black" points="430,-408 430,-430 566,-430 566,-408 430,-408"/>
<text text-anchor="start" x="433" y="-416.2" font-family="Helvetica,sans-Serif" font-size="11.00">float8[17,17]</text>
<polygon fill="none" stroke="black" points="212,-386 212,-408 430,-408 430,-386 212,-386"/>
<text text-anchor="start" x="232" y="-394.2" font-family="Helvetica,sans-Serif" font-size="11.00">orientation</text>
<polygon fill="none" stroke="black" points="430,-386 430,-408 566,-408 566,-386 430,-386"/>
<text text-anchor="start" x="433" y="-394.2" font-family="Helvetica,sans-Serif" font-size="11.00">float8[17,17]</text>
<polygon fill="none" stroke="black" points="212,-364 212,-386 430,-386 430,-364 212,-364"/>
<image xlink:href="../../images/foreignKeys.png" width="11px" height="12px" preserveAspectRatio="xMinYMin meet" x="217" y="-381"/>
<text text-anchor="start" x="232" y="-372.2" font-family="Helvetica,sans-Serif" font-size="11.00">fk_unit</text>
<polygon fill="none" stroke="black" points="430,-364 430,-386 566,-386 566,-364 430,-364"/>
<text text-anchor="start" x="433" y="-372.2" font-family="Helvetica,sans-Serif" font-size="11.00">uuid[2147483647]</text>
<polygon fill="none" stroke="black" points="212,-342 212,-364 430,-364 430,-342 212,-342"/>
<text text-anchor="start" x="232" y="-350.2" font-family="Helvetica,sans-Serif" font-size="11.00">the_geom</text>
<polygon fill="none" stroke="black" points="430,-342 430,-364 566,-364 566,-342 430,-342"/>
<text text-anchor="start" x="433" y="-350.2" font-family="Helvetica,sans-Serif" font-size="11.00">geometry[2147483647]</text>
<polygon fill="none" stroke="black" points="212,-320 212,-342 430,-342 430,-320 212,-320"/>
<text text-anchor="start" x="232" y="-328.2" font-family="Helvetica,sans-Serif" font-size="11.00">nickname</text>
<polygon fill="none" stroke="black" points="430,-320 430,-342 566,-342 566,-320 430,-320"/>
<text text-anchor="start" x="433" y="-328.2" font-family="Helvetica,sans-Serif" font-size="11.00">text[2147483647]</text>
<polygon fill="none" stroke="black" points="212,-298 212,-320 430,-320 430,-298 212,-298"/>
<text text-anchor="start" x="232" y="-306.2" font-family="Helvetica,sans-Serif" font-size="11.00">family_name_at_birth</text>
<polygon fill="none" stroke="black" points="430,-298 430,-320 566,-320 566,-298 430,-298"/>
<text text-anchor="start" x="433" y="-306.2" font-family="Helvetica,sans-Serif" font-size="11.00">text[2147483647]</text>
<polygon fill="none" stroke="black" points="212,-276 212,-298 430,-298 430,-276 212,-276"/>
<text text-anchor="start" x="232" y="-284.2" font-family="Helvetica,sans-Serif" font-size="11.00">display_txt</text>
<polygon fill="none" stroke="black" points="430,-276 430,-298 566,-298 566,-276 430,-276"/>
<text text-anchor="start" x="433" y="-284.2" font-family="Helvetica,sans-Serif" font-size="11.00">text[2147483647]</text>
<polygon fill="#ffffff" stroke="transparent" points="212,-258 212,-276 566,-276 566,-258 212,-258"/>
<polygon fill="none" stroke="black" points="212,-258 212,-276 566,-276 566,-258 212,-258"/>
<polygon fill="#ffffff" stroke="transparent" points="213,-259 213,-275 335,-275 335,-259 213,-259"/>
<text text-anchor="start" x="215" y="-264.2" font-family="Helvetica,sans-Serif" font-size="11.00">&lt; 5</text>
<polygon fill="#ffffff" stroke="transparent" points="335,-259 335,-275 444,-275 444,-259 335,-259"/>
<text text-anchor="start" x="385.5" y="-264.2" font-family="Helvetica,sans-Serif" font-size="11.00"> &#160;</text>
<polygon fill="#ffffff" stroke="transparent" points="444,-259 444,-275 565,-275 565,-259 444,-259"/>
<text text-anchor="start" x="543" y="-264.2" font-family="Helvetica,sans-Serif" font-size="11.00">1 &gt;</text>
<polygon fill="black" stroke="black" points="335,-259 335,-275 335,-275 335,-259 335,-259"/>
<polygon fill="black" stroke="black" points="444,-259 444,-275 444,-275 444,-259 444,-259"/>
<polygon fill="none" stroke="black" stroke-width="2" points="211,-257 211,-1113 567,-1113 567,-257 211,-257"/>
</a>
</g>
</g>
<!-- tce_vl.country -->
<g id="node2" class="node">
<title>tce_vl.country</title>
<g id="a_node2"><a xlink:href="../../../tce_vl/tables/country.html" xlink:title="tce_vl.country" target="_top">
<polygon fill="#ffffff" stroke="transparent" points="9.5,-698 9.5,-756 159.5,-756 159.5,-698 9.5,-698"/>
<polygon fill="#f5f5f5" stroke="transparent" points="9.5,-734 9.5,-756 159.5,-756 159.5,-734 9.5,-734"/>
<polygon fill="none" stroke="black" points="9.5,-734 9.5,-756 159.5,-756 159.5,-734 9.5,-734"/>
<text text-anchor="start" x="14.5" y="-743.2" font-family="Helvetica,sans-Serif" font-weight="bold" font-size="11.00">tce_vl.country</text>
<text text-anchor="start" x="117.5" y="-742.2" font-family="Helvetica,sans-Serif" font-size="11.00">[table]</text>
<polygon fill="none" stroke="black" points="9.5,-716 9.5,-734 159.5,-734 159.5,-716 9.5,-716"/>
<text text-anchor="start" x="12.5" y="-722.2" font-family="Helvetica,sans-Serif" font-size="11.00">...</text>
<polygon fill="#ffffff" stroke="transparent" points="9.5,-698 9.5,-716 159.5,-716 159.5,-698 9.5,-698"/>
<polygon fill="none" stroke="black" points="9.5,-698 9.5,-716 159.5,-716 159.5,-698 9.5,-698"/>
<polygon fill="#ffffff" stroke="transparent" points="10.5,-699 10.5,-715 46.5,-715 46.5,-699 10.5,-699"/>
<text text-anchor="start" x="12.5" y="-704.2" font-family="Helvetica,sans-Serif" font-size="11.00"> &#160;</text>
<polygon fill="#ffffff" stroke="transparent" points="46.5,-699 46.5,-715 111.5,-715 111.5,-699 46.5,-699"/>
<text text-anchor="start" x="60.5" y="-704.2" font-family="Helvetica,sans-Serif" font-size="11.00">0 rows</text>
<polygon fill="#ffffff" stroke="transparent" points="111.5,-699 111.5,-715 158.5,-715 158.5,-699 111.5,-699"/>
<text text-anchor="start" x="136.5" y="-704.2" font-family="Helvetica,sans-Serif" font-size="11.00">3 &gt;</text>
<polygon fill="black" stroke="black" points="46.5,-699 46.5,-715 46.5,-715 46.5,-699 46.5,-699"/>
<polygon fill="black" stroke="black" points="111.5,-699 111.5,-715 111.5,-715 111.5,-699 111.5,-699"/>
</a>
</g>
</g>
<!-- deceased&#45;&gt;tce_vl.country -->
<g id="edge1" class="edge">
<title>deceased:w&#45;&gt;tce_vl.country:e</title>
<path fill="none" stroke="black" d="M196.33,-791.86C170.04,-787.88 144.69,-774.06 124.89,-760.19"/>
<polygon fill="black" stroke="black" points="203.02,-792.38 210.72,-796.59 207.01,-792.69 211,-793 211,-793 211,-793 207.01,-792.69 211.28,-789.41 203.02,-792.38 203.02,-792.38"/>
<ellipse fill="none" stroke="black" cx="199.83" cy="-792.13" rx="3.2" ry="3.2"/>
</g>
<!-- deceased&#45;&gt;tce_vl.country -->
<g id="edge2" class="edge">
<title>deceased:w&#45;&gt;tce_vl.country:e</title>
<path fill="none" stroke="black" d="M196.33,-662.14C170.04,-666.12 144.69,-679.94 124.89,-693.81"/>
<polygon fill="black" stroke="black" points="203.02,-661.62 211.28,-664.59 207.01,-661.31 211,-661 211,-661 211,-661 207.01,-661.31 210.72,-657.41 203.02,-661.62 203.02,-661.62"/>
<ellipse fill="none" stroke="black" cx="199.83" cy="-661.87" rx="3.2" ry="3.2"/>
</g>
<!-- deceased&#45;&gt;tce_vl.country -->
<g id="edge4" class="edge">
<title>deceased:w&#45;&gt;tce_vl.country:e</title>
<path fill="none" stroke="black" d="M196.59,-727C186.96,-727 177.14,-727 167.52,-727"/>
<polygon fill="black" stroke="black" points="203,-727 211,-730.6 207,-727 211,-727 211,-727 211,-727 207,-727 211,-723.4 203,-727 203,-727"/>
<ellipse fill="none" stroke="black" cx="199.8" cy="-727" rx="3.2" ry="3.2"/>
</g>
<!-- tce_vl.civility -->
<g id="node3" class="node">
<title>tce_vl.civility</title>
<g id="a_node3"><a xlink:href="../../../tce_vl/tables/civility.html" xlink:title="tce_vl.civility" target="_top">
<polygon fill="#ffffff" stroke="transparent" points="13.5,-1006 13.5,-1064 155.5,-1064 155.5,-1006 13.5,-1006"/>
<polygon fill="#f5f5f5" stroke="transparent" points="13.5,-1042 13.5,-1064 155.5,-1064 155.5,-1042 13.5,-1042"/>
<polygon fill="none" stroke="black" points="13.5,-1042 13.5,-1064 155.5,-1064 155.5,-1042 13.5,-1042"/>
<text text-anchor="start" x="18.5" y="-1051.2" font-family="Helvetica,sans-Serif" font-weight="bold" font-size="11.00">tce_vl.civility</text>
<text text-anchor="start" x="113.5" y="-1050.2" font-family="Helvetica,sans-Serif" font-size="11.00">[table]</text>
<polygon fill="none" stroke="black" points="13.5,-1024 13.5,-1042 155.5,-1042 155.5,-1024 13.5,-1024"/>
<text text-anchor="start" x="16.5" y="-1030.2" font-family="Helvetica,sans-Serif" font-size="11.00">...</text>
<polygon fill="#ffffff" stroke="transparent" points="13.5,-1006 13.5,-1024 155.5,-1024 155.5,-1006 13.5,-1006"/>
<polygon fill="none" stroke="black" points="13.5,-1006 13.5,-1024 155.5,-1024 155.5,-1006 13.5,-1006"/>
<polygon fill="#ffffff" stroke="transparent" points="14.5,-1007 14.5,-1023 47.5,-1023 47.5,-1007 14.5,-1007"/>
<text text-anchor="start" x="16.5" y="-1012.2" font-family="Helvetica,sans-Serif" font-size="11.00"> &#160;</text>
<polygon fill="#ffffff" stroke="transparent" points="47.5,-1007 47.5,-1023 109.5,-1023 109.5,-1007 47.5,-1007"/>
<text text-anchor="start" x="60" y="-1012.2" font-family="Helvetica,sans-Serif" font-size="11.00">0 rows</text>
<polygon fill="#ffffff" stroke="transparent" points="109.5,-1007 109.5,-1023 154.5,-1023 154.5,-1007 109.5,-1007"/>
<text text-anchor="start" x="132.5" y="-1012.2" font-family="Helvetica,sans-Serif" font-size="11.00">2 &gt;</text>
<polygon fill="black" stroke="black" points="47.5,-1007 47.5,-1023 47.5,-1023 47.5,-1007 47.5,-1007"/>
<polygon fill="black" stroke="black" points="109.5,-1007 109.5,-1023 109.5,-1023 109.5,-1007 109.5,-1007"/>
</a>
</g>
</g>
<!-- deceased&#45;&gt;tce_vl.civility -->
<g id="edge3" class="edge">
<title>deceased:w&#45;&gt;tce_vl.civility:e</title>
<path fill="none" stroke="black" d="M196.45,-1035C185.63,-1035 174.57,-1035 163.83,-1035"/>
<polygon fill="black" stroke="black" points="203,-1035 211,-1038.6 207,-1035 211,-1035 211,-1035 211,-1035 207,-1035 211,-1031.4 203,-1035 203,-1035"/>
<ellipse fill="none" stroke="black" cx="199.8" cy="-1035" rx="3.2" ry="3.2"/>
</g>
<!-- unit -->
<g id="node4" class="node">
<title>unit</title>
<g id="a_node4"><a xlink:href="../../tables/unit.html" xlink:title="unit" target="_top">
<polygon fill="#ffffff" stroke="transparent" points="8,-37 8,-337 161,-337 161,-37 8,-37"/>
<polygon fill="#f5f5f5" stroke="transparent" points="8.5,-315 8.5,-337 161.5,-337 161.5,-315 8.5,-315"/>
<polygon fill="none" stroke="black" points="8.5,-315 8.5,-337 161.5,-337 161.5,-315 8.5,-315"/>
<text text-anchor="start" x="13.5" y="-324.2" font-family="Helvetica,sans-Serif" font-weight="bold" font-size="11.00">unit</text>
<text text-anchor="start" x="119.5" y="-323.2" font-family="Helvetica,sans-Serif" font-size="11.00">[table]</text>
<polygon fill="none" stroke="black" points="8.5,-293 8.5,-315 161.5,-315 161.5,-293 8.5,-293"/>
<image xlink:href="../../images/primaryKeys.png" width="11px" height="12px" preserveAspectRatio="xMinYMin meet" x="13.5" y="-310"/>
<text text-anchor="start" x="28.5" y="-301.2" font-family="Helvetica,sans-Serif" font-size="11.00">id</text>
<polygon fill="#ffffff" stroke="transparent" points="8.5,-271 8.5,-293 161.5,-293 161.5,-271 8.5,-271"/>
<polygon fill="none" stroke="black" points="8.5,-271 8.5,-293 161.5,-293 161.5,-271 8.5,-271"/>
<text text-anchor="start" x="28.5" y="-279.2" font-family="Helvetica,sans-Serif" font-size="11.00">identifier</text>
<polygon fill="none" stroke="black" points="8.5,-249 8.5,-271 161.5,-271 161.5,-249 8.5,-249"/>
<image xlink:href="../../images/foreignKeys.png" width="11px" height="12px" preserveAspectRatio="xMinYMin meet" x="13.5" y="-266"/>
<text text-anchor="start" x="28.5" y="-257.2" font-family="Helvetica,sans-Serif" font-size="11.00">fk_company</text>
<polygon fill="none" stroke="black" points="8.5,-227 8.5,-249 161.5,-249 161.5,-227 8.5,-227"/>
<image xlink:href="../../images/foreignKeys.png" width="11px" height="12px" preserveAspectRatio="xMinYMin meet" x="13.5" y="-244"/>
<text text-anchor="start" x="28.5" y="-235.2" font-family="Helvetica,sans-Serif" font-size="11.00">fk_sector</text>
<polygon fill="none" stroke="black" points="8.5,-205 8.5,-227 161.5,-227 161.5,-205 8.5,-205"/>
<image xlink:href="../../images/foreignKeys.png" width="11px" height="12px" preserveAspectRatio="xMinYMin meet" x="13.5" y="-222"/>
<text text-anchor="start" x="28.5" y="-213.2" font-family="Helvetica,sans-Serif" font-size="11.00">fk_cemetery</text>
<polygon fill="none" stroke="black" points="8.5,-183 8.5,-205 161.5,-205 161.5,-183 8.5,-183"/>
<image xlink:href="../../images/foreignKeys.png" width="11px" height="12px" preserveAspectRatio="xMinYMin meet" x="13.5" y="-200"/>
<text text-anchor="start" x="28.5" y="-191.2" font-family="Helvetica,sans-Serif" font-size="11.00">fk_size</text>
<polygon fill="none" stroke="black" points="8.5,-161 8.5,-183 161.5,-183 161.5,-161 8.5,-161"/>
<image xlink:href="../../images/foreignKeys.png" width="11px" height="12px" preserveAspectRatio="xMinYMin meet" x="13.5" y="-178"/>
<text text-anchor="start" x="28.5" y="-169.2" font-family="Helvetica,sans-Serif" font-size="11.00">fk_kind</text>
<polygon fill="none" stroke="black" points="8.5,-139 8.5,-161 161.5,-161 161.5,-139 8.5,-139"/>
<image xlink:href="../../images/foreignKeys.png" width="11px" height="12px" preserveAspectRatio="xMinYMin meet" x="13.5" y="-156"/>
<text text-anchor="start" x="28.5" y="-147.2" font-family="Helvetica,sans-Serif" font-size="11.00">fk_urn_material</text>
<polygon fill="none" stroke="black" points="8.5,-117 8.5,-139 161.5,-139 161.5,-117 8.5,-117"/>
<image xlink:href="../../images/foreignKeys.png" width="11px" height="12px" preserveAspectRatio="xMinYMin meet" x="13.5" y="-134"/>
<text text-anchor="start" x="28.5" y="-125.2" font-family="Helvetica,sans-Serif" font-size="11.00">fk_urn_shape</text>
<polygon fill="none" stroke="black" points="8.5,-95 8.5,-117 161.5,-117 161.5,-95 8.5,-95"/>
<image xlink:href="../../images/foreignKeys.png" width="11px" height="12px" preserveAspectRatio="xMinYMin meet" x="13.5" y="-112"/>
<text text-anchor="start" x="28.5" y="-103.2" font-family="Helvetica,sans-Serif" font-size="11.00">fk_contact_person</text>
<polygon fill="none" stroke="black" points="8.5,-73 8.5,-95 161.5,-95 161.5,-73 8.5,-73"/>
<image xlink:href="../../images/foreignKeys.png" width="11px" height="12px" preserveAspectRatio="xMinYMin meet" x="13.5" y="-90"/>
<text text-anchor="start" x="28.5" y="-81.2" font-family="Helvetica,sans-Serif" font-size="11.00">fk_control</text>
<polygon fill="none" stroke="black" points="8.5,-55 8.5,-73 161.5,-73 161.5,-55 8.5,-55"/>
<text text-anchor="start" x="11.5" y="-61.2" font-family="Helvetica,sans-Serif" font-size="11.00">...</text>
<polygon fill="#ffffff" stroke="transparent" points="8.5,-37 8.5,-55 161.5,-55 161.5,-37 8.5,-37"/>
<polygon fill="none" stroke="black" points="8.5,-37 8.5,-55 161.5,-55 161.5,-37 8.5,-37"/>
<polygon fill="#ffffff" stroke="transparent" points="9.5,-38 9.5,-54 64.5,-54 64.5,-38 9.5,-38"/>
<text text-anchor="start" x="11.5" y="-43.2" font-family="Helvetica,sans-Serif" font-size="11.00">&lt; 9</text>
<polygon fill="#ffffff" stroke="transparent" points="64.5,-38 64.5,-54 106.5,-54 106.5,-38 64.5,-38"/>
<text text-anchor="start" x="81.5" y="-43.2" font-family="Helvetica,sans-Serif" font-size="11.00"> &#160;</text>
<polygon fill="#ffffff" stroke="transparent" points="106.5,-38 106.5,-54 160.5,-54 160.5,-38 106.5,-38"/>
<text text-anchor="start" x="138.5" y="-43.2" font-family="Helvetica,sans-Serif" font-size="11.00">3 &gt;</text>
<polygon fill="black" stroke="black" points="64.5,-38 64.5,-54 64.5,-54 64.5,-38 64.5,-38"/>
<polygon fill="black" stroke="black" points="106.5,-38 106.5,-54 106.5,-54 106.5,-38 106.5,-38"/>
</a>
</g>
</g>
<!-- deceased&#45;&gt;unit -->
<g id="edge5" class="edge">
<title>deceased:w&#45;&gt;unit:e</title>
<path fill="none" stroke="black" d="M196.95,-369.89C180.17,-353.61 194.45,-304 162.5,-304"/>
<polygon fill="black" stroke="black" points="203.48,-372.27 209.77,-378.38 207.24,-373.63 211,-375 211,-375 211,-375 207.24,-373.63 212.23,-371.62 203.48,-372.27 203.48,-372.27"/>
<ellipse fill="none" stroke="black" cx="200.47" cy="-371.17" rx="3.2" ry="3.2"/>
</g>
<!-- file -->
<g id="node5" class="node">
<title>file</title>
<g id="a_node5"><a xlink:href="../../tables/file.html" xlink:title="file" target="_top">
<polygon fill="#ffffff" stroke="transparent" points="617,-542 617,-820 757,-820 757,-542 617,-542"/>
<polygon fill="#f5f5f5" stroke="transparent" points="617,-798 617,-820 757,-820 757,-798 617,-798"/>
<polygon fill="none" stroke="black" points="617,-798 617,-820 757,-820 757,-798 617,-798"/>
<text text-anchor="start" x="621.5" y="-807.2" font-family="Helvetica,sans-Serif" font-weight="bold" font-size="11.00">file</text>
<text text-anchor="start" x="715" y="-806.2" font-family="Helvetica,sans-Serif" font-size="11.00">[table]</text>
<polygon fill="none" stroke="black" points="617,-776 617,-798 757,-798 757,-776 617,-776"/>
<image xlink:href="../../images/primaryKeys.png" width="11px" height="12px" preserveAspectRatio="xMinYMin meet" x="622" y="-793"/>
<text text-anchor="start" x="637" y="-784.2" font-family="Helvetica,sans-Serif" font-size="11.00">id</text>
<polygon fill="none" stroke="black" points="617,-754 617,-776 757,-776 757,-754 617,-754"/>
<image xlink:href="../../images/foreignKeys.png" width="11px" height="12px" preserveAspectRatio="xMinYMin meet" x="622" y="-771"/>
<text text-anchor="start" x="637" y="-762.2" font-family="Helvetica,sans-Serif" font-size="11.00">cemetery_ref</text>
<polygon fill="none" stroke="black" points="617,-732 617,-754 757,-754 757,-732 617,-732"/>
<image xlink:href="../../images/foreignKeys.png" width="11px" height="12px" preserveAspectRatio="xMinYMin meet" x="622" y="-749"/>
<text text-anchor="start" x="637" y="-740.2" font-family="Helvetica,sans-Serif" font-size="11.00">contact_ref</text>
<polygon fill="none" stroke="black" points="617,-710 617,-732 757,-732 757,-710 617,-710"/>
<image xlink:href="../../images/foreignKeys.png" width="11px" height="12px" preserveAspectRatio="xMinYMin meet" x="622" y="-727"/>
<text text-anchor="start" x="637" y="-718.2" font-family="Helvetica,sans-Serif" font-size="11.00">contract_ref</text>
<polygon fill="none" stroke="black" points="617,-688 617,-710 757,-710 757,-688 617,-688"/>
<image xlink:href="../../images/foreignKeys.png" width="11px" height="12px" preserveAspectRatio="xMinYMin meet" x="622" y="-705"/>
<text text-anchor="start" x="637" y="-696.2" font-family="Helvetica,sans-Serif" font-size="11.00">deceased_ref</text>
<polygon fill="none" stroke="black" points="617,-666 617,-688 757,-688 757,-666 617,-666"/>
<image xlink:href="../../images/foreignKeys.png" width="11px" height="12px" preserveAspectRatio="xMinYMin meet" x="622" y="-683"/>
<text text-anchor="start" x="637" y="-674.2" font-family="Helvetica,sans-Serif" font-size="11.00">furniture_ref</text>
<polygon fill="none" stroke="black" points="617,-644 617,-666 757,-666 757,-644 617,-644"/>
<image xlink:href="../../images/foreignKeys.png" width="11px" height="12px" preserveAspectRatio="xMinYMin meet" x="622" y="-661"/>
<text text-anchor="start" x="637" y="-652.2" font-family="Helvetica,sans-Serif" font-size="11.00">organisation_ref</text>
<polygon fill="none" stroke="black" points="617,-622 617,-644 757,-644 757,-622 617,-622"/>
<image xlink:href="../../images/foreignKeys.png" width="11px" height="12px" preserveAspectRatio="xMinYMin meet" x="622" y="-639"/>
<text text-anchor="start" x="637" y="-630.2" font-family="Helvetica,sans-Serif" font-size="11.00">sector_ref</text>
<polygon fill="none" stroke="black" points="617,-600 617,-622 757,-622 757,-600 617,-600"/>
<image xlink:href="../../images/foreignKeys.png" width="11px" height="12px" preserveAspectRatio="xMinYMin meet" x="622" y="-617"/>
<text text-anchor="start" x="637" y="-608.2" font-family="Helvetica,sans-Serif" font-size="11.00">unit_ref</text>
<polygon fill="none" stroke="black" points="617,-578 617,-600 757,-600 757,-578 617,-578"/>
<image xlink:href="../../images/foreignKeys.png" width="11px" height="12px" preserveAspectRatio="xMinYMin meet" x="622" y="-595"/>
<text text-anchor="start" x="637" y="-586.2" font-family="Helvetica,sans-Serif" font-size="11.00">vegetation_ref</text>
<polygon fill="none" stroke="black" points="617,-560 617,-578 757,-578 757,-560 617,-560"/>
<text text-anchor="start" x="620" y="-566.2" font-family="Helvetica,sans-Serif" font-size="11.00">...</text>
<polygon fill="#ffffff" stroke="transparent" points="617,-542 617,-560 757,-560 757,-542 617,-542"/>
<polygon fill="none" stroke="black" points="617,-542 617,-560 757,-560 757,-542 617,-542"/>
<polygon fill="#ffffff" stroke="transparent" points="618,-543 618,-559 672,-559 672,-543 618,-543"/>
<text text-anchor="start" x="620" y="-548.2" font-family="Helvetica,sans-Serif" font-size="11.00">&lt; 9</text>
<polygon fill="#ffffff" stroke="transparent" points="672,-543 672,-559 714,-559 714,-543 672,-543"/>
<text text-anchor="start" x="689" y="-548.2" font-family="Helvetica,sans-Serif" font-size="11.00"> &#160;</text>
<polygon fill="#ffffff" stroke="transparent" points="714,-543 714,-559 756,-559 756,-543 714,-543"/>
<text text-anchor="start" x="746" y="-548.2" font-family="Helvetica,sans-Serif" font-size="11.00"> &#160;</text>
<polygon fill="black" stroke="black" points="672,-543 672,-559 672,-559 672,-543 672,-543"/>
<polygon fill="black" stroke="black" points="714,-543 714,-559 714,-559 714,-543 714,-543"/>
</a>
</g>
</g>
<!-- file&#45;&gt;deceased -->
<g id="edge6" class="edge">
<title>file:w&#45;&gt;deceased:e</title>
<path fill="none" stroke="black" d="M602,-703.53C545.63,-746.41 646.66,-1079 567,-1079"/>
<polygon fill="black" stroke="black" points="608.39,-701.46 617.11,-702.43 612.19,-700.23 616,-699 616,-699 616,-699 612.19,-700.23 614.89,-695.57 608.39,-701.46 608.39,-701.46"/>
<ellipse fill="none" stroke="black" cx="605.34" cy="-702.45" rx="3.2" ry="3.2"/>
</g>
<!-- file&#45;&gt;unit -->
<g id="edge7" class="edge">
<title>file:w&#45;&gt;unit:e</title>
<path fill="none" stroke="black" d="M602.08,-607.06C547.28,-570.89 632.72,-296.85 576,-246 452.23,-135.05 348.94,-168.29 202,-246 174.43,-260.58 193.69,-304 162.5,-304"/>
<polygon fill="black" stroke="black" points="608.3,-608.82 615.02,-614.46 612.15,-609.91 616,-611 616,-611 616,-611 612.15,-609.91 616.98,-607.54 608.3,-608.82 608.3,-608.82"/>
<ellipse fill="none" stroke="black" cx="605.22" cy="-607.95" rx="3.2" ry="3.2"/>
</g>
</g>
</svg>
