<?xml version="1.0" encoding="UTF-8" standalone="no"?>
<!DOCTYPE svg PUBLIC "-//W3C//DTD SVG 1.1//EN"
 "http://www.w3.org/Graphics/SVG/1.1/DTD/svg11.dtd">
<!-- Generated by graphviz version 2.43.0 (0)
 -->
<!-- Title: oneDegreeRelationshipsDiagram Pages: 1 -->
<svg width="318pt" height="621pt"
 viewBox="0.00 0.00 318.00 621.00" xmlns="http://www.w3.org/2000/svg" xmlns:xlink="http://www.w3.org/1999/xlink">
<g id="graph0" class="graph" transform="scale(1 1) rotate(0) translate(4 617)">
<title>oneDegreeRelationshipsDiagram</title>
<polygon fill="#ffffff" stroke="transparent" points="-4,4 -4,-617 314,-617 314,4 -4,4"/>
<text text-anchor="middle" x="79.5" y="-7.2" font-family="Helvetica,sans-Serif" font-size="11.00">Generated by SchemaSpy</text>
<!-- deceased -->
<g id="node1" class="node">
<title>deceased</title>
<g id="a_node1"><a xlink:href="../../tables/deceased.html" xlink:title="deceased" target="_top">
<polygon fill="#ffffff" stroke="transparent" points="8,-37 8,-609 302,-609 302,-37 8,-37"/>
<polygon fill="#f5f5f5" stroke="transparent" points="10,-585 10,-607 300,-607 300,-585 10,-585"/>
<polygon fill="none" stroke="black" points="10,-585 10,-607 300,-607 300,-585 10,-585"/>
<text text-anchor="start" x="15" y="-594.2" font-family="Helvetica,sans-Serif" font-weight="bold" font-size="11.00">deceased</text>
<text text-anchor="start" x="258" y="-593.2" font-family="Helvetica,sans-Serif" font-size="11.00">[table]</text>
<polygon fill="none" stroke="black" points="10,-563 10,-585 164,-585 164,-563 10,-563"/>
<image xlink:href="../../images/primaryKeys.png" width="11px" height="12px" preserveAspectRatio="xMinYMin meet" x="15" y="-580"/>
<text text-anchor="start" x="30" y="-571.2" font-family="Helvetica,sans-Serif" font-size="11.00">id</text>
<polygon fill="none" stroke="black" points="164,-563 164,-585 300,-585 300,-563 164,-563"/>
<text text-anchor="start" x="167" y="-571.2" font-family="Helvetica,sans-Serif" font-size="11.00">uuid[2147483647]</text>
<polygon fill="none" stroke="black" points="10,-541 10,-563 164,-563 164,-541 10,-541"/>
<text text-anchor="start" x="30" y="-549.2" font-family="Helvetica,sans-Serif" font-size="11.00">last_name</text>
<polygon fill="none" stroke="black" points="164,-541 164,-563 300,-563 300,-541 164,-541"/>
<text text-anchor="start" x="167" y="-549.2" font-family="Helvetica,sans-Serif" font-size="11.00">varchar[50]</text>
<polygon fill="none" stroke="black" points="10,-519 10,-541 164,-541 164,-519 10,-519"/>
<text text-anchor="start" x="30" y="-527.2" font-family="Helvetica,sans-Serif" font-size="11.00">first_name</text>
<polygon fill="none" stroke="black" points="164,-519 164,-541 300,-541 300,-519 164,-519"/>
<text text-anchor="start" x="167" y="-527.2" font-family="Helvetica,sans-Serif" font-size="11.00">varchar[50]</text>
<polygon fill="none" stroke="black" points="10,-497 10,-519 164,-519 164,-497 10,-497"/>
<text text-anchor="start" x="30" y="-505.2" font-family="Helvetica,sans-Serif" font-size="11.00">address</text>
<polygon fill="none" stroke="black" points="164,-497 164,-519 300,-519 300,-497 164,-497"/>
<text text-anchor="start" x="167" y="-505.2" font-family="Helvetica,sans-Serif" font-size="11.00">varchar[50]</text>
<polygon fill="none" stroke="black" points="10,-475 10,-497 164,-497 164,-475 10,-475"/>
<text text-anchor="start" x="30" y="-483.2" font-family="Helvetica,sans-Serif" font-size="11.00">city</text>
<polygon fill="none" stroke="black" points="164,-475 164,-497 300,-497 300,-475 164,-475"/>
<text text-anchor="start" x="167" y="-483.2" font-family="Helvetica,sans-Serif" font-size="11.00">varchar[50]</text>
<polygon fill="none" stroke="black" points="10,-453 10,-475 164,-475 164,-453 10,-453"/>
<text text-anchor="start" x="30" y="-461.2" font-family="Helvetica,sans-Serif" font-size="11.00">postal_code</text>
<polygon fill="none" stroke="black" points="164,-453 164,-475 300,-475 300,-453 164,-453"/>
<text text-anchor="start" x="167" y="-461.2" font-family="Helvetica,sans-Serif" font-size="11.00">varchar[10]</text>
<polygon fill="none" stroke="black" points="10,-431 10,-453 164,-453 164,-431 10,-431"/>
<text text-anchor="start" x="30" y="-439.2" font-family="Helvetica,sans-Serif" font-size="11.00">birth_date</text>
<polygon fill="none" stroke="black" points="164,-431 164,-453 300,-453 300,-431 164,-431"/>
<text text-anchor="start" x="167" y="-439.2" font-family="Helvetica,sans-Serif" font-size="11.00">date[13]</text>
<polygon fill="none" stroke="black" points="10,-409 10,-431 164,-431 164,-409 10,-409"/>
<text text-anchor="start" x="30" y="-417.2" font-family="Helvetica,sans-Serif" font-size="11.00">death_date</text>
<polygon fill="none" stroke="black" points="164,-409 164,-431 300,-431 300,-409 164,-409"/>
<text text-anchor="start" x="167" y="-417.2" font-family="Helvetica,sans-Serif" font-size="11.00">date[13]</text>
<polygon fill="none" stroke="black" points="10,-387 10,-409 164,-409 164,-387 10,-387"/>
<text text-anchor="start" x="30" y="-395.2" font-family="Helvetica,sans-Serif" font-size="11.00">death_place</text>
<polygon fill="none" stroke="black" points="164,-387 164,-409 300,-409 300,-387 164,-387"/>
<text text-anchor="start" x="167" y="-395.2" font-family="Helvetica,sans-Serif" font-size="11.00">varchar[50]</text>
<polygon fill="none" stroke="black" points="10,-365 10,-387 164,-387 164,-365 10,-365"/>
<text text-anchor="start" x="30" y="-373.2" font-family="Helvetica,sans-Serif" font-size="11.00">burial_date</text>
<polygon fill="none" stroke="black" points="164,-365 164,-387 300,-387 300,-365 164,-365"/>
<text text-anchor="start" x="167" y="-373.2" font-family="Helvetica,sans-Serif" font-size="11.00">date[13]</text>
<polygon fill="none" stroke="black" points="10,-343 10,-365 164,-365 164,-343 10,-343"/>
<text text-anchor="start" x="30" y="-351.2" font-family="Helvetica,sans-Serif" font-size="11.00">burial_place</text>
<polygon fill="none" stroke="black" points="164,-343 164,-365 300,-365 300,-343 164,-343"/>
<text text-anchor="start" x="167" y="-351.2" font-family="Helvetica,sans-Serif" font-size="11.00">varchar[50]</text>
<polygon fill="none" stroke="black" points="10,-321 10,-343 164,-343 164,-321 10,-321"/>
<text text-anchor="start" x="30" y="-329.2" font-family="Helvetica,sans-Serif" font-size="11.00">flag_main</text>
<polygon fill="none" stroke="black" points="164,-321 164,-343 300,-343 300,-321 164,-321"/>
<text text-anchor="start" x="167" y="-329.2" font-family="Helvetica,sans-Serif" font-size="11.00">bool[1]</text>
<polygon fill="none" stroke="black" points="10,-299 10,-321 164,-321 164,-299 10,-299"/>
<text text-anchor="start" x="30" y="-307.2" font-family="Helvetica,sans-Serif" font-size="11.00">flag_ashes</text>
<polygon fill="none" stroke="black" points="164,-299 164,-321 300,-321 300,-299 164,-299"/>
<text text-anchor="start" x="167" y="-307.2" font-family="Helvetica,sans-Serif" font-size="11.00">bool[1]</text>
<polygon fill="none" stroke="black" points="10,-277 10,-299 164,-299 164,-277 10,-277"/>
<text text-anchor="start" x="30" y="-285.2" font-family="Helvetica,sans-Serif" font-size="11.00">incineration_date</text>
<polygon fill="none" stroke="black" points="164,-277 164,-299 300,-299 300,-277 164,-277"/>
<text text-anchor="start" x="167" y="-285.2" font-family="Helvetica,sans-Serif" font-size="11.00">date[13]</text>
<polygon fill="none" stroke="black" points="10,-255 10,-277 164,-277 164,-255 10,-255"/>
<text text-anchor="start" x="30" y="-263.2" font-family="Helvetica,sans-Serif" font-size="11.00">incineration_place</text>
<polygon fill="none" stroke="black" points="164,-255 164,-277 300,-277 300,-255 164,-255"/>
<text text-anchor="start" x="167" y="-263.2" font-family="Helvetica,sans-Serif" font-size="11.00">varchar[50]</text>
<polygon fill="none" stroke="black" points="10,-233 10,-255 164,-255 164,-233 10,-233"/>
<text text-anchor="start" x="30" y="-241.2" font-family="Helvetica,sans-Serif" font-size="11.00">fk_urn_kind</text>
<polygon fill="none" stroke="black" points="164,-233 164,-255 300,-255 300,-233 164,-233"/>
<text text-anchor="start" x="167" y="-241.2" font-family="Helvetica,sans-Serif" font-size="11.00">int4[10]</text>
<polygon fill="none" stroke="black" points="10,-211 10,-233 164,-233 164,-211 10,-211"/>
<text text-anchor="start" x="30" y="-219.2" font-family="Helvetica,sans-Serif" font-size="11.00">exumation_date</text>
<polygon fill="none" stroke="black" points="164,-211 164,-233 300,-233 300,-211 164,-211"/>
<text text-anchor="start" x="167" y="-219.2" font-family="Helvetica,sans-Serif" font-size="11.00">date[13]</text>
<polygon fill="none" stroke="black" points="10,-189 10,-211 164,-211 164,-189 10,-189"/>
<text text-anchor="start" x="30" y="-197.2" font-family="Helvetica,sans-Serif" font-size="11.00">exumation_place</text>
<polygon fill="none" stroke="black" points="164,-189 164,-211 300,-211 300,-189 164,-189"/>
<text text-anchor="start" x="167" y="-197.2" font-family="Helvetica,sans-Serif" font-size="11.00">varchar[50]</text>
<polygon fill="none" stroke="black" points="10,-167 10,-189 164,-189 164,-167 10,-167"/>
<text text-anchor="start" x="30" y="-175.2" font-family="Helvetica,sans-Serif" font-size="11.00">remark</text>
<polygon fill="none" stroke="black" points="164,-167 164,-189 300,-189 300,-167 164,-167"/>
<text text-anchor="start" x="167" y="-175.2" font-family="Helvetica,sans-Serif" font-size="11.00">text[2147483647]</text>
<polygon fill="none" stroke="black" points="10,-145 10,-167 164,-167 164,-145 10,-145"/>
<text text-anchor="start" x="30" y="-153.2" font-family="Helvetica,sans-Serif" font-size="11.00">child</text>
<polygon fill="none" stroke="black" points="164,-145 164,-167 300,-167 300,-145 164,-145"/>
<text text-anchor="start" x="167" y="-153.2" font-family="Helvetica,sans-Serif" font-size="11.00">bool[1]</text>
<polygon fill="none" stroke="black" points="10,-123 10,-145 164,-145 164,-123 10,-123"/>
<text text-anchor="start" x="30" y="-131.2" font-family="Helvetica,sans-Serif" font-size="11.00">quality</text>
<polygon fill="none" stroke="black" points="164,-123 164,-145 300,-145 300,-123 164,-123"/>
<text text-anchor="start" x="167" y="-131.2" font-family="Helvetica,sans-Serif" font-size="11.00">float8[17,17]</text>
<polygon fill="none" stroke="black" points="10,-101 10,-123 164,-123 164,-101 10,-101"/>
<text text-anchor="start" x="30" y="-109.2" font-family="Helvetica,sans-Serif" font-size="11.00">orientation</text>
<polygon fill="none" stroke="black" points="164,-101 164,-123 300,-123 300,-101 164,-101"/>
<text text-anchor="start" x="167" y="-109.2" font-family="Helvetica,sans-Serif" font-size="11.00">float8[17,17]</text>
<polygon fill="none" stroke="black" points="10,-79 10,-101 164,-101 164,-79 10,-79"/>
<text text-anchor="start" x="30" y="-87.2" font-family="Helvetica,sans-Serif" font-size="11.00">fk_unit</text>
<polygon fill="none" stroke="black" points="164,-79 164,-101 300,-101 300,-79 164,-79"/>
<text text-anchor="start" x="167" y="-87.2" font-family="Helvetica,sans-Serif" font-size="11.00">uuid[2147483647]</text>
<polygon fill="none" stroke="black" points="10,-57 10,-79 164,-79 164,-57 10,-57"/>
<text text-anchor="start" x="30" y="-65.2" font-family="Helvetica,sans-Serif" font-size="11.00">the_geom</text>
<polygon fill="none" stroke="black" points="164,-57 164,-79 300,-79 300,-57 164,-57"/>
<text text-anchor="start" x="167" y="-65.2" font-family="Helvetica,sans-Serif" font-size="11.00">geometry[2147483647]</text>
<polygon fill="#ffffff" stroke="transparent" points="10,-39 10,-57 300,-57 300,-39 10,-39"/>
<polygon fill="none" stroke="black" points="10,-39 10,-57 300,-57 300,-39 10,-39"/>
<polygon fill="#ffffff" stroke="transparent" points="11,-40 11,-56 111,-56 111,-40 11,-40"/>
<text text-anchor="start" x="13" y="-45.2" font-family="Helvetica,sans-Serif" font-size="11.00">&lt; 0</text>
<polygon fill="#ffffff" stroke="transparent" points="111,-40 111,-56 199,-56 199,-40 111,-40"/>
<text text-anchor="start" x="151" y="-45.2" font-family="Helvetica,sans-Serif" font-size="11.00"> &#160;</text>
<polygon fill="#ffffff" stroke="transparent" points="199,-40 199,-56 299,-56 299,-40 199,-40"/>
<text text-anchor="start" x="277" y="-45.2" font-family="Helvetica,sans-Serif" font-size="11.00">0 &gt;</text>
<polygon fill="black" stroke="black" points="111,-40 111,-56 111,-56 111,-40 111,-40"/>
<polygon fill="black" stroke="black" points="199,-40 199,-56 199,-56 199,-40 199,-40"/>
<polygon fill="none" stroke="black" stroke-width="2" points="9,-38 9,-608 301,-608 301,-38 9,-38"/>
</a>
</g>
</g>
</g>
</svg>
