<?xml version="1.0" encoding="UTF-8" standalone="no"?>
<!DOCTYPE svg PUBLIC "-//W3C//DTD SVG 1.1//EN"
 "http://www.w3.org/Graphics/SVG/1.1/DTD/svg11.dtd">
<!-- Generated by graphviz version 2.43.0 (0)
 -->
<!-- Title: oneDegreeRelationshipsDiagram Pages: 1 -->
<svg width="336pt" height="731pt"
 viewBox="0.00 0.00 336.00 731.00" xmlns="http://www.w3.org/2000/svg" xmlns:xlink="http://www.w3.org/1999/xlink">
<g id="graph0" class="graph" transform="scale(1 1) rotate(0) translate(4 727)">
<title>oneDegreeRelationshipsDiagram</title>
<polygon fill="#ffffff" stroke="transparent" points="-4,4 -4,-727 332,-727 332,4 -4,4"/>
<text text-anchor="middle" x="79.5" y="-7.2" font-family="Helvetica,sans-Serif" font-size="11.00">Generated by SchemaSpy</text>
<!-- deceased -->
<g id="node1" class="node">
<title>deceased</title>
<g id="a_node1"><a xlink:href="../../tables/deceased.html" xlink:title="deceased" target="_top">
<polygon fill="#ffffff" stroke="transparent" points="8,-37 8,-719 320,-719 320,-37 8,-37"/>
<polygon fill="#f5f5f5" stroke="transparent" points="10,-695 10,-717 318,-717 318,-695 10,-695"/>
<polygon fill="none" stroke="black" points="10,-695 10,-717 318,-717 318,-695 10,-695"/>
<text text-anchor="start" x="15" y="-704.2" font-family="Helvetica,sans-Serif" font-weight="bold" font-size="11.00">deceased</text>
<text text-anchor="start" x="276" y="-703.2" font-family="Helvetica,sans-Serif" font-size="11.00">[table]</text>
<polygon fill="none" stroke="black" points="10,-673 10,-695 182,-695 182,-673 10,-673"/>
<image xlink:href="../../images/primaryKeys.png" width="11px" height="12px" preserveAspectRatio="xMinYMin meet" x="15" y="-690"/>
<text text-anchor="start" x="30" y="-681.2" font-family="Helvetica,sans-Serif" font-size="11.00">id</text>
<polygon fill="none" stroke="black" points="182,-673 182,-695 318,-695 318,-673 182,-673"/>
<text text-anchor="start" x="185" y="-681.2" font-family="Helvetica,sans-Serif" font-size="11.00">uuid[2147483647]</text>
<polygon fill="none" stroke="black" points="10,-651 10,-673 182,-673 182,-651 10,-651"/>
<text text-anchor="start" x="30" y="-659.2" font-family="Helvetica,sans-Serif" font-size="11.00">ahv_number</text>
<polygon fill="none" stroke="black" points="182,-651 182,-673 318,-673 318,-651 182,-651"/>
<text text-anchor="start" x="185" y="-659.2" font-family="Helvetica,sans-Serif" font-size="11.00">varchar[16]</text>
<polygon fill="none" stroke="black" points="10,-629 10,-651 182,-651 182,-629 10,-629"/>
<text text-anchor="start" x="30" y="-637.2" font-family="Helvetica,sans-Serif" font-size="11.00">fk_civility</text>
<polygon fill="none" stroke="black" points="182,-629 182,-651 318,-651 318,-629 182,-629"/>
<text text-anchor="start" x="185" y="-637.2" font-family="Helvetica,sans-Serif" font-size="11.00">int4[10]</text>
<polygon fill="none" stroke="black" points="10,-607 10,-629 182,-629 182,-607 10,-607"/>
<text text-anchor="start" x="30" y="-615.2" font-family="Helvetica,sans-Serif" font-size="11.00">first_name</text>
<polygon fill="none" stroke="black" points="182,-607 182,-629 318,-629 318,-607 182,-607"/>
<text text-anchor="start" x="185" y="-615.2" font-family="Helvetica,sans-Serif" font-size="11.00">text[2147483647]</text>
<polygon fill="none" stroke="black" points="10,-585 10,-607 182,-607 182,-585 10,-585"/>
<text text-anchor="start" x="30" y="-593.2" font-family="Helvetica,sans-Serif" font-size="11.00">second_first_name</text>
<polygon fill="none" stroke="black" points="182,-585 182,-607 318,-607 318,-585 182,-585"/>
<text text-anchor="start" x="185" y="-593.2" font-family="Helvetica,sans-Serif" font-size="11.00">text[2147483647]</text>
<polygon fill="none" stroke="black" points="10,-563 10,-585 182,-585 182,-563 10,-563"/>
<text text-anchor="start" x="30" y="-571.2" font-family="Helvetica,sans-Serif" font-size="11.00">last_name</text>
<polygon fill="none" stroke="black" points="182,-563 182,-585 318,-585 318,-563 182,-563"/>
<text text-anchor="start" x="185" y="-571.2" font-family="Helvetica,sans-Serif" font-size="11.00">text[2147483647]</text>
<polygon fill="none" stroke="black" points="10,-541 10,-563 182,-563 182,-541 10,-541"/>
<text text-anchor="start" x="30" y="-549.2" font-family="Helvetica,sans-Serif" font-size="11.00">street_name</text>
<polygon fill="none" stroke="black" points="182,-541 182,-563 318,-563 318,-541 182,-541"/>
<text text-anchor="start" x="185" y="-549.2" font-family="Helvetica,sans-Serif" font-size="11.00">text[2147483647]</text>
<polygon fill="none" stroke="black" points="10,-519 10,-541 182,-541 182,-519 10,-519"/>
<text text-anchor="start" x="30" y="-527.2" font-family="Helvetica,sans-Serif" font-size="11.00">house_number</text>
<polygon fill="none" stroke="black" points="182,-519 182,-541 318,-541 318,-519 182,-519"/>
<text text-anchor="start" x="185" y="-527.2" font-family="Helvetica,sans-Serif" font-size="11.00">varchar[10]</text>
<polygon fill="none" stroke="black" points="10,-497 10,-519 182,-519 182,-497 10,-497"/>
<text text-anchor="start" x="30" y="-505.2" font-family="Helvetica,sans-Serif" font-size="11.00">address_supplement</text>
<polygon fill="none" stroke="black" points="182,-497 182,-519 318,-519 318,-497 182,-497"/>
<text text-anchor="start" x="185" y="-505.2" font-family="Helvetica,sans-Serif" font-size="11.00">text[2147483647]</text>
<polygon fill="none" stroke="black" points="10,-475 10,-497 182,-497 182,-475 10,-475"/>
<text text-anchor="start" x="30" y="-483.2" font-family="Helvetica,sans-Serif" font-size="11.00">city</text>
<polygon fill="none" stroke="black" points="182,-475 182,-497 318,-497 318,-475 182,-475"/>
<text text-anchor="start" x="185" y="-483.2" font-family="Helvetica,sans-Serif" font-size="11.00">text[2147483647]</text>
<polygon fill="none" stroke="black" points="10,-453 10,-475 182,-475 182,-453 10,-453"/>
<text text-anchor="start" x="30" y="-461.2" font-family="Helvetica,sans-Serif" font-size="11.00">postal_code</text>
<polygon fill="none" stroke="black" points="182,-453 182,-475 318,-475 318,-453 182,-453"/>
<text text-anchor="start" x="185" y="-461.2" font-family="Helvetica,sans-Serif" font-size="11.00">varchar[10]</text>
<polygon fill="none" stroke="black" points="10,-431 10,-453 182,-453 182,-431 10,-431"/>
<text text-anchor="start" x="30" y="-439.2" font-family="Helvetica,sans-Serif" font-size="11.00">birth_date</text>
<polygon fill="none" stroke="black" points="182,-431 182,-453 318,-453 318,-431 182,-431"/>
<text text-anchor="start" x="185" y="-439.2" font-family="Helvetica,sans-Serif" font-size="11.00">date[13]</text>
<polygon fill="none" stroke="black" points="10,-409 10,-431 182,-431 182,-409 10,-409"/>
<text text-anchor="start" x="30" y="-417.2" font-family="Helvetica,sans-Serif" font-size="11.00">death_date</text>
<polygon fill="none" stroke="black" points="182,-409 182,-431 318,-431 318,-409 182,-409"/>
<text text-anchor="start" x="185" y="-417.2" font-family="Helvetica,sans-Serif" font-size="11.00">date[13]</text>
<polygon fill="none" stroke="black" points="10,-387 10,-409 182,-409 182,-387 10,-387"/>
<text text-anchor="start" x="30" y="-395.2" font-family="Helvetica,sans-Serif" font-size="11.00">death_place</text>
<polygon fill="none" stroke="black" points="182,-387 182,-409 318,-409 318,-387 182,-387"/>
<text text-anchor="start" x="185" y="-395.2" font-family="Helvetica,sans-Serif" font-size="11.00">text[2147483647]</text>
<polygon fill="none" stroke="black" points="10,-365 10,-387 182,-387 182,-365 10,-365"/>
<text text-anchor="start" x="30" y="-373.2" font-family="Helvetica,sans-Serif" font-size="11.00">burial_date</text>
<polygon fill="none" stroke="black" points="182,-365 182,-387 318,-387 318,-365 182,-365"/>
<text text-anchor="start" x="185" y="-373.2" font-family="Helvetica,sans-Serif" font-size="11.00">date[13]</text>
<polygon fill="none" stroke="black" points="10,-343 10,-365 182,-365 182,-343 10,-343"/>
<text text-anchor="start" x="30" y="-351.2" font-family="Helvetica,sans-Serif" font-size="11.00">burial_place</text>
<polygon fill="none" stroke="black" points="182,-343 182,-365 318,-365 318,-343 182,-343"/>
<text text-anchor="start" x="185" y="-351.2" font-family="Helvetica,sans-Serif" font-size="11.00">text[2147483647]</text>
<polygon fill="none" stroke="black" points="10,-321 10,-343 182,-343 182,-321 10,-321"/>
<text text-anchor="start" x="30" y="-329.2" font-family="Helvetica,sans-Serif" font-size="11.00">flag_main</text>
<polygon fill="none" stroke="black" points="182,-321 182,-343 318,-343 318,-321 182,-321"/>
<text text-anchor="start" x="185" y="-329.2" font-family="Helvetica,sans-Serif" font-size="11.00">bool[1]</text>
<polygon fill="none" stroke="black" points="10,-299 10,-321 182,-321 182,-299 10,-299"/>
<text text-anchor="start" x="30" y="-307.2" font-family="Helvetica,sans-Serif" font-size="11.00">flag_ashes</text>
<polygon fill="none" stroke="black" points="182,-299 182,-321 318,-321 318,-299 182,-299"/>
<text text-anchor="start" x="185" y="-307.2" font-family="Helvetica,sans-Serif" font-size="11.00">bool[1]</text>
<polygon fill="none" stroke="black" points="10,-277 10,-299 182,-299 182,-277 10,-277"/>
<text text-anchor="start" x="30" y="-285.2" font-family="Helvetica,sans-Serif" font-size="11.00">incineration_date</text>
<polygon fill="none" stroke="black" points="182,-277 182,-299 318,-299 318,-277 182,-277"/>
<text text-anchor="start" x="185" y="-285.2" font-family="Helvetica,sans-Serif" font-size="11.00">date[13]</text>
<polygon fill="none" stroke="black" points="10,-255 10,-277 182,-277 182,-255 10,-255"/>
<text text-anchor="start" x="30" y="-263.2" font-family="Helvetica,sans-Serif" font-size="11.00">incineration_place</text>
<polygon fill="none" stroke="black" points="182,-255 182,-277 318,-277 318,-255 182,-255"/>
<text text-anchor="start" x="185" y="-263.2" font-family="Helvetica,sans-Serif" font-size="11.00">text[2147483647]</text>
<polygon fill="none" stroke="black" points="10,-233 10,-255 182,-255 182,-233 10,-233"/>
<text text-anchor="start" x="30" y="-241.2" font-family="Helvetica,sans-Serif" font-size="11.00">fk_urn_kind</text>
<polygon fill="none" stroke="black" points="182,-233 182,-255 318,-255 318,-233 182,-233"/>
<text text-anchor="start" x="185" y="-241.2" font-family="Helvetica,sans-Serif" font-size="11.00">int4[10]</text>
<polygon fill="none" stroke="black" points="10,-211 10,-233 182,-233 182,-211 10,-211"/>
<text text-anchor="start" x="30" y="-219.2" font-family="Helvetica,sans-Serif" font-size="11.00">exumation_date</text>
<polygon fill="none" stroke="black" points="182,-211 182,-233 318,-233 318,-211 182,-211"/>
<text text-anchor="start" x="185" y="-219.2" font-family="Helvetica,sans-Serif" font-size="11.00">date[13]</text>
<polygon fill="none" stroke="black" points="10,-189 10,-211 182,-211 182,-189 10,-189"/>
<text text-anchor="start" x="30" y="-197.2" font-family="Helvetica,sans-Serif" font-size="11.00">exumation_place</text>
<polygon fill="none" stroke="black" points="182,-189 182,-211 318,-211 318,-189 182,-189"/>
<text text-anchor="start" x="185" y="-197.2" font-family="Helvetica,sans-Serif" font-size="11.00">text[2147483647]</text>
<polygon fill="none" stroke="black" points="10,-167 10,-189 182,-189 182,-167 10,-167"/>
<text text-anchor="start" x="30" y="-175.2" font-family="Helvetica,sans-Serif" font-size="11.00">remark</text>
<polygon fill="none" stroke="black" points="182,-167 182,-189 318,-189 318,-167 182,-167"/>
<text text-anchor="start" x="185" y="-175.2" font-family="Helvetica,sans-Serif" font-size="11.00">text[2147483647]</text>
<polygon fill="none" stroke="black" points="10,-145 10,-167 182,-167 182,-145 10,-145"/>
<text text-anchor="start" x="30" y="-153.2" font-family="Helvetica,sans-Serif" font-size="11.00">child</text>
<polygon fill="none" stroke="black" points="182,-145 182,-167 318,-167 318,-145 182,-145"/>
<text text-anchor="start" x="185" y="-153.2" font-family="Helvetica,sans-Serif" font-size="11.00">bool[1]</text>
<polygon fill="none" stroke="black" points="10,-123 10,-145 182,-145 182,-123 10,-123"/>
<text text-anchor="start" x="30" y="-131.2" font-family="Helvetica,sans-Serif" font-size="11.00">quality</text>
<polygon fill="none" stroke="black" points="182,-123 182,-145 318,-145 318,-123 182,-123"/>
<text text-anchor="start" x="185" y="-131.2" font-family="Helvetica,sans-Serif" font-size="11.00">float8[17,17]</text>
<polygon fill="none" stroke="black" points="10,-101 10,-123 182,-123 182,-101 10,-101"/>
<text text-anchor="start" x="30" y="-109.2" font-family="Helvetica,sans-Serif" font-size="11.00">orientation</text>
<polygon fill="none" stroke="black" points="182,-101 182,-123 318,-123 318,-101 182,-101"/>
<text text-anchor="start" x="185" y="-109.2" font-family="Helvetica,sans-Serif" font-size="11.00">float8[17,17]</text>
<polygon fill="none" stroke="black" points="10,-79 10,-101 182,-101 182,-79 10,-79"/>
<text text-anchor="start" x="30" y="-87.2" font-family="Helvetica,sans-Serif" font-size="11.00">fk_unit</text>
<polygon fill="none" stroke="black" points="182,-79 182,-101 318,-101 318,-79 182,-79"/>
<text text-anchor="start" x="185" y="-87.2" font-family="Helvetica,sans-Serif" font-size="11.00">uuid[2147483647]</text>
<polygon fill="none" stroke="black" points="10,-57 10,-79 182,-79 182,-57 10,-57"/>
<text text-anchor="start" x="30" y="-65.2" font-family="Helvetica,sans-Serif" font-size="11.00">the_geom</text>
<polygon fill="none" stroke="black" points="182,-57 182,-79 318,-79 318,-57 182,-57"/>
<text text-anchor="start" x="185" y="-65.2" font-family="Helvetica,sans-Serif" font-size="11.00">geometry[2147483647]</text>
<polygon fill="#ffffff" stroke="transparent" points="10,-39 10,-57 318,-57 318,-39 10,-39"/>
<polygon fill="none" stroke="black" points="10,-39 10,-57 318,-57 318,-39 10,-39"/>
<polygon fill="#ffffff" stroke="transparent" points="11,-40 11,-56 117,-56 117,-40 11,-40"/>
<text text-anchor="start" x="13" y="-45.2" font-family="Helvetica,sans-Serif" font-size="11.00">&lt; 0</text>
<polygon fill="#ffffff" stroke="transparent" points="117,-40 117,-56 211,-56 211,-40 117,-40"/>
<text text-anchor="start" x="160" y="-45.2" font-family="Helvetica,sans-Serif" font-size="11.00"> &#160;</text>
<polygon fill="#ffffff" stroke="transparent" points="211,-40 211,-56 317,-56 317,-40 211,-40"/>
<text text-anchor="start" x="295" y="-45.2" font-family="Helvetica,sans-Serif" font-size="11.00">0 &gt;</text>
<polygon fill="black" stroke="black" points="117,-40 117,-56 117,-56 117,-40 117,-40"/>
<polygon fill="black" stroke="black" points="211,-40 211,-56 211,-56 211,-40 211,-40"/>
<polygon fill="none" stroke="black" stroke-width="2" points="9,-38 9,-718 319,-718 319,-38 9,-38"/>
</a>
</g>
</g>
</g>
</svg>
