<?xml version="1.0" encoding="UTF-8" standalone="no"?>
<!DOCTYPE svg PUBLIC "-//W3C//DTD SVG 1.1//EN"
 "http://www.w3.org/Graphics/SVG/1.1/DTD/svg11.dtd">
<!-- Generated by graphviz version 2.43.0 (0)
 -->
<!-- Title: oneDegreeRelationshipsDiagram Pages: 1 -->
<svg width="502pt" height="181pt"
 viewBox="0.00 0.00 502.00 181.00" xmlns="http://www.w3.org/2000/svg" xmlns:xlink="http://www.w3.org/1999/xlink">
<g id="graph0" class="graph" transform="scale(1 1) rotate(0) translate(4 177)">
<title>oneDegreeRelationshipsDiagram</title>
<polygon fill="#ffffff" stroke="transparent" points="-4,4 -4,-177 498,-177 498,4 -4,4"/>
<text text-anchor="middle" x="79.5" y="-7.2" font-family="Helvetica,sans-Serif" font-size="11.00">Generated by SchemaSpy</text>
<!-- furniture -->
<g id="node1" class="node">
<title>furniture</title>
<g id="a_node1"><a xlink:href="../../tables/furniture.html" xlink:title="furniture" target="_top">
<polygon fill="#ffffff" stroke="transparent" points="254,-37 254,-169 486,-169 486,-37 254,-37"/>
<polygon fill="#f5f5f5" stroke="transparent" points="256,-145 256,-167 484,-167 484,-145 256,-145"/>
<polygon fill="none" stroke="black" points="256,-145 256,-167 484,-167 484,-145 256,-145"/>
<text text-anchor="start" x="261" y="-154.2" font-family="Helvetica,sans-Serif" font-weight="bold" font-size="11.00">furniture</text>
<text text-anchor="start" x="442" y="-153.2" font-family="Helvetica,sans-Serif" font-size="11.00">[table]</text>
<polygon fill="none" stroke="black" points="256,-123 256,-145 348,-145 348,-123 256,-123"/>
<image xlink:href="../../images/primaryKeys.png" width="11px" height="12px" preserveAspectRatio="xMinYMin meet" x="261" y="-140"/>
<text text-anchor="start" x="276" y="-131.2" font-family="Helvetica,sans-Serif" font-size="11.00">id</text>
<polygon fill="none" stroke="black" points="348,-123 348,-145 484,-145 484,-123 348,-123"/>
<text text-anchor="start" x="351" y="-131.2" font-family="Helvetica,sans-Serif" font-size="11.00">uuid[2147483647]</text>
<polygon fill="none" stroke="black" points="256,-101 256,-123 348,-123 348,-101 256,-101"/>
<image xlink:href="../../images/foreignKeys.png" width="11px" height="12px" preserveAspectRatio="xMinYMin meet" x="261" y="-118"/>
<text text-anchor="start" x="276" y="-109.2" font-family="Helvetica,sans-Serif" font-size="11.00">fk_kind</text>
<polygon fill="none" stroke="black" points="348,-101 348,-123 484,-123 484,-101 348,-101"/>
<text text-anchor="start" x="351" y="-109.2" font-family="Helvetica,sans-Serif" font-size="11.00">int4[10]</text>
<polygon fill="none" stroke="black" points="256,-79 256,-101 348,-101 348,-79 256,-79"/>
<text text-anchor="start" x="276" y="-87.2" font-family="Helvetica,sans-Serif" font-size="11.00">remark</text>
<polygon fill="none" stroke="black" points="348,-79 348,-101 484,-101 484,-79 348,-79"/>
<text text-anchor="start" x="351" y="-87.2" font-family="Helvetica,sans-Serif" font-size="11.00">text[2147483647]</text>
<polygon fill="none" stroke="black" points="256,-57 256,-79 348,-79 348,-57 256,-57"/>
<text text-anchor="start" x="276" y="-65.2" font-family="Helvetica,sans-Serif" font-size="11.00">the_geom</text>
<polygon fill="none" stroke="black" points="348,-57 348,-79 484,-79 484,-57 348,-57"/>
<text text-anchor="start" x="351" y="-65.2" font-family="Helvetica,sans-Serif" font-size="11.00">geometry[2147483647]</text>
<polygon fill="#ffffff" stroke="transparent" points="256,-39 256,-57 484,-57 484,-39 256,-39"/>
<polygon fill="none" stroke="black" points="256,-39 256,-57 484,-57 484,-39 256,-39"/>
<polygon fill="#ffffff" stroke="transparent" points="257,-40 257,-56 337,-56 337,-40 257,-40"/>
<text text-anchor="start" x="259" y="-45.2" font-family="Helvetica,sans-Serif" font-size="11.00">&lt; 1</text>
<polygon fill="#ffffff" stroke="transparent" points="337,-40 337,-56 404,-56 404,-40 337,-40"/>
<text text-anchor="start" x="366.5" y="-45.2" font-family="Helvetica,sans-Serif" font-size="11.00"> &#160;</text>
<polygon fill="#ffffff" stroke="transparent" points="404,-40 404,-56 483,-56 483,-40 404,-40"/>
<text text-anchor="start" x="461" y="-45.2" font-family="Helvetica,sans-Serif" font-size="11.00">0 &gt;</text>
<polygon fill="black" stroke="black" points="337,-40 337,-56 337,-56 337,-40 337,-40"/>
<polygon fill="black" stroke="black" points="404,-40 404,-56 404,-56 404,-40 404,-40"/>
<polygon fill="none" stroke="black" stroke-width="2" points="255,-38 255,-168 485,-168 485,-38 255,-38"/>
</a>
</g>
</g>
<!-- tce_vl.furniture_kind -->
<g id="node2" class="node">
<title>tce_vl.furniture_kind</title>
<g id="a_node2"><a xlink:href="../../../tce_vl/tables/furniture_kind.html" xlink:title="tce_vl.furniture_kind" target="_top">
<polygon fill="#ffffff" stroke="transparent" points="8,-83 8,-141 205,-141 205,-83 8,-83"/>
<polygon fill="#f5f5f5" stroke="transparent" points="8.5,-119 8.5,-141 205.5,-141 205.5,-119 8.5,-119"/>
<polygon fill="none" stroke="black" points="8.5,-119 8.5,-141 205.5,-141 205.5,-119 8.5,-119"/>
<text text-anchor="start" x="13.5" y="-128.2" font-family="Helvetica,sans-Serif" font-weight="bold" font-size="11.00">tce_vl.furniture_kind</text>
<text text-anchor="start" x="163.5" y="-127.2" font-family="Helvetica,sans-Serif" font-size="11.00">[table]</text>
<polygon fill="none" stroke="black" points="8.5,-101 8.5,-119 205.5,-119 205.5,-101 8.5,-101"/>
<text text-anchor="start" x="11.5" y="-107.2" font-family="Helvetica,sans-Serif" font-size="11.00">...</text>
<polygon fill="#ffffff" stroke="transparent" points="8.5,-83 8.5,-101 205.5,-101 205.5,-83 8.5,-83"/>
<polygon fill="none" stroke="black" points="8.5,-83 8.5,-101 205.5,-101 205.5,-83 8.5,-83"/>
<polygon fill="#ffffff" stroke="transparent" points="9.5,-84 9.5,-100 61.5,-100 61.5,-84 9.5,-84"/>
<text text-anchor="start" x="11.5" y="-89.2" font-family="Helvetica,sans-Serif" font-size="11.00"> &#160;</text>
<polygon fill="#ffffff" stroke="transparent" points="61.5,-84 61.5,-100 141.5,-100 141.5,-84 61.5,-84"/>
<text text-anchor="start" x="83" y="-89.2" font-family="Helvetica,sans-Serif" font-size="11.00">0 rows</text>
<polygon fill="#ffffff" stroke="transparent" points="141.5,-84 141.5,-100 204.5,-100 204.5,-84 141.5,-84"/>
<text text-anchor="start" x="182.5" y="-89.2" font-family="Helvetica,sans-Serif" font-size="11.00">1 &gt;</text>
<polygon fill="black" stroke="black" points="61.5,-84 61.5,-100 61.5,-100 61.5,-84 61.5,-84"/>
<polygon fill="black" stroke="black" points="141.5,-84 141.5,-100 141.5,-100 141.5,-84 141.5,-84"/>
</a>
</g>
</g>
<!-- furniture&#45;&gt;tce_vl.furniture_kind -->
<g id="edge1" class="edge">
<title>furniture:w&#45;&gt;tce_vl.furniture_kind:e</title>
<path fill="none" stroke="black" d="M240.46,-112C231.41,-112 222.19,-112 213.05,-112"/>
<polygon fill="black" stroke="black" points="247,-112 255,-115.6 251,-112 255,-112 255,-112 255,-112 251,-112 255,-108.4 247,-112 247,-112"/>
<ellipse fill="none" stroke="black" cx="243.8" cy="-112" rx="3.2" ry="3.2"/>
</g>
</g>
</svg>
