<?xml version="1.0" encoding="UTF-8" standalone="no"?>
<!DOCTYPE svg PUBLIC "-//W3C//DTD SVG 1.1//EN"
 "http://www.w3.org/Graphics/SVG/1.1/DTD/svg11.dtd">
<!-- Generated by graphviz version 2.43.0 (0)
 -->
<!-- Title: oneDegreeRelationshipsDiagram Pages: 1 -->
<svg width="819pt" height="871pt"
 viewBox="0.00 0.00 819.00 871.00" xmlns="http://www.w3.org/2000/svg" xmlns:xlink="http://www.w3.org/1999/xlink">
<g id="graph0" class="graph" transform="scale(1 1) rotate(0) translate(4 867)">
<title>oneDegreeRelationshipsDiagram</title>
<polygon fill="#ffffff" stroke="transparent" points="-4,4 -4,-867 815,-867 815,4 -4,4"/>
<text text-anchor="middle" x="79.5" y="-7.2" font-family="Helvetica,sans-Serif" font-size="11.00">Generated by SchemaSpy</text>
<!-- contract -->
<g id="node1" class="node">
<title>contract</title>
<g id="a_node1"><a xlink:href="../../tables/contract.html" xlink:title="contract" target="_top">
<polygon fill="#ffffff" stroke="transparent" points="614.5,-555 614.5,-701 773.5,-701 773.5,-555 614.5,-555"/>
<polygon fill="#f5f5f5" stroke="transparent" points="615,-679 615,-701 774,-701 774,-679 615,-679"/>
<polygon fill="none" stroke="black" points="615,-679 615,-701 774,-701 774,-679 615,-679"/>
<text text-anchor="start" x="620" y="-688.2" font-family="Helvetica,sans-Serif" font-weight="bold" font-size="11.00">contract</text>
<text text-anchor="start" x="732" y="-687.2" font-family="Helvetica,sans-Serif" font-size="11.00">[table]</text>
<polygon fill="none" stroke="black" points="615,-657 615,-679 774,-679 774,-657 615,-657"/>
<image xlink:href="../../images/primaryKeys.png" width="11px" height="12px" preserveAspectRatio="xMinYMin meet" x="620" y="-674"/>
<text text-anchor="start" x="635" y="-665.2" font-family="Helvetica,sans-Serif" font-size="11.00">id</text>
<polygon fill="none" stroke="black" points="615,-635 615,-657 774,-657 774,-635 615,-635"/>
<image xlink:href="../../images/foreignKeys.png" width="11px" height="12px" preserveAspectRatio="xMinYMin meet" x="620" y="-652"/>
<text text-anchor="start" x="635" y="-643.2" font-family="Helvetica,sans-Serif" font-size="11.00">fk_kind</text>
<polygon fill="none" stroke="black" points="615,-613 615,-635 774,-635 774,-613 615,-613"/>
<image xlink:href="../../images/foreignKeys.png" width="11px" height="12px" preserveAspectRatio="xMinYMin meet" x="620" y="-630"/>
<text text-anchor="start" x="635" y="-621.2" font-family="Helvetica,sans-Serif" font-size="11.00">fk_contract_person</text>
<polygon fill="none" stroke="black" points="615,-591 615,-613 774,-613 774,-591 615,-591"/>
<image xlink:href="../../images/foreignKeys.png" width="11px" height="12px" preserveAspectRatio="xMinYMin meet" x="620" y="-608"/>
<text text-anchor="start" x="635" y="-599.2" font-family="Helvetica,sans-Serif" font-size="11.00">fk_unit</text>
<polygon fill="none" stroke="black" points="615,-573 615,-591 774,-591 774,-573 615,-573"/>
<text text-anchor="start" x="618" y="-579.2" font-family="Helvetica,sans-Serif" font-size="11.00">...</text>
<polygon fill="#ffffff" stroke="transparent" points="615,-555 615,-573 774,-573 774,-555 615,-555"/>
<polygon fill="none" stroke="black" points="615,-555 615,-573 774,-573 774,-555 615,-555"/>
<polygon fill="#ffffff" stroke="transparent" points="616,-556 616,-572 677,-572 677,-556 616,-556"/>
<text text-anchor="start" x="618" y="-561.2" font-family="Helvetica,sans-Serif" font-size="11.00">&lt; 3</text>
<polygon fill="#ffffff" stroke="transparent" points="677,-556 677,-572 725,-572 725,-556 677,-556"/>
<text text-anchor="start" x="697" y="-561.2" font-family="Helvetica,sans-Serif" font-size="11.00"> &#160;</text>
<polygon fill="#ffffff" stroke="transparent" points="725,-556 725,-572 773,-572 773,-556 725,-556"/>
<text text-anchor="start" x="763" y="-561.2" font-family="Helvetica,sans-Serif" font-size="11.00"> &#160;</text>
<polygon fill="black" stroke="black" points="677,-556 677,-572 677,-572 677,-556 677,-556"/>
<polygon fill="black" stroke="black" points="725,-556 725,-572 725,-572 725,-556 725,-556"/>
</a>
</g>
</g>
<!-- contact -->
<g id="node2" class="node">
<title>contact</title>
<g id="a_node2"><a xlink:href="../../tables/contact.html" xlink:title="contact" target="_top">
<polygon fill="#ffffff" stroke="transparent" points="15,-533 15,-657 187,-657 187,-533 15,-533"/>
<polygon fill="#f5f5f5" stroke="transparent" points="15,-635 15,-657 187,-657 187,-635 15,-635"/>
<polygon fill="none" stroke="black" points="15,-635 15,-657 187,-657 187,-635 15,-635"/>
<text text-anchor="start" x="20" y="-644.2" font-family="Helvetica,sans-Serif" font-weight="bold" font-size="11.00">contact</text>
<text text-anchor="start" x="145" y="-643.2" font-family="Helvetica,sans-Serif" font-size="11.00">[table]</text>
<polygon fill="none" stroke="black" points="15,-613 15,-635 187,-635 187,-613 15,-613"/>
<image xlink:href="../../images/primaryKeys.png" width="11px" height="12px" preserveAspectRatio="xMinYMin meet" x="20" y="-630"/>
<text text-anchor="start" x="35" y="-621.2" font-family="Helvetica,sans-Serif" font-size="11.00">id</text>
<polygon fill="none" stroke="black" points="15,-591 15,-613 187,-613 187,-591 15,-591"/>
<image xlink:href="../../images/foreignKeys.png" width="11px" height="12px" preserveAspectRatio="xMinYMin meet" x="20" y="-608"/>
<text text-anchor="start" x="35" y="-599.2" font-family="Helvetica,sans-Serif" font-size="11.00">fk_kind</text>
<polygon fill="none" stroke="black" points="15,-569 15,-591 187,-591 187,-569 15,-569"/>
<image xlink:href="../../images/foreignKeys.png" width="11px" height="12px" preserveAspectRatio="xMinYMin meet" x="20" y="-586"/>
<text text-anchor="start" x="35" y="-577.2" font-family="Helvetica,sans-Serif" font-size="11.00">fk_civility</text>
<polygon fill="none" stroke="black" points="15,-551 15,-569 187,-569 187,-551 15,-551"/>
<text text-anchor="start" x="18" y="-557.2" font-family="Helvetica,sans-Serif" font-size="11.00">...</text>
<polygon fill="#ffffff" stroke="transparent" points="15,-533 15,-551 187,-551 187,-533 15,-533"/>
<polygon fill="none" stroke="black" points="15,-533 15,-551 187,-551 187,-533 15,-533"/>
<polygon fill="#ffffff" stroke="transparent" points="16,-534 16,-550 77,-550 77,-534 16,-534"/>
<text text-anchor="start" x="18" y="-539.2" font-family="Helvetica,sans-Serif" font-size="11.00">&lt; 2</text>
<polygon fill="#ffffff" stroke="transparent" points="77,-534 77,-550 126,-550 126,-534 77,-534"/>
<text text-anchor="start" x="97.5" y="-539.2" font-family="Helvetica,sans-Serif" font-size="11.00"> &#160;</text>
<polygon fill="#ffffff" stroke="transparent" points="126,-534 126,-550 186,-550 186,-534 126,-534"/>
<text text-anchor="start" x="164" y="-539.2" font-family="Helvetica,sans-Serif" font-size="11.00">2 &gt;</text>
<polygon fill="black" stroke="black" points="77,-534 77,-550 77,-550 77,-534 77,-534"/>
<polygon fill="black" stroke="black" points="126,-534 126,-550 126,-550 126,-534 126,-534"/>
</a>
</g>
</g>
<!-- contract&#45;&gt;contact -->
<g id="edge1" class="edge">
<title>contract:w&#45;&gt;contact:e</title>
<path fill="none" stroke="black" d="M599.58,-624C422.12,-624 372.43,-624 188,-624"/>
<polygon fill="black" stroke="black" points="606,-624 614,-627.6 610,-624 614,-624 614,-624 614,-624 610,-624 614,-620.4 606,-624 606,-624"/>
<ellipse fill="none" stroke="black" cx="602.8" cy="-624" rx="3.2" ry="3.2"/>
</g>
<!-- unit -->
<g id="node3" class="node">
<title>unit</title>
<g id="a_node3"><a xlink:href="../../tables/unit.html" xlink:title="unit" target="_top">
<polygon fill="#ffffff" stroke="transparent" points="243,-153 243,-593 536,-593 536,-153 243,-153"/>
<polygon fill="#f5f5f5" stroke="transparent" points="245.5,-569 245.5,-591 534.5,-591 534.5,-569 245.5,-569"/>
<polygon fill="none" stroke="black" points="245.5,-569 245.5,-591 534.5,-591 534.5,-569 245.5,-569"/>
<text text-anchor="start" x="250.5" y="-578.2" font-family="Helvetica,sans-Serif" font-weight="bold" font-size="11.00">unit</text>
<text text-anchor="start" x="492.5" y="-577.2" font-family="Helvetica,sans-Serif" font-size="11.00">[table]</text>
<polygon fill="none" stroke="black" points="245.5,-547 245.5,-569 398.5,-569 398.5,-547 245.5,-547"/>
<image xlink:href="../../images/primaryKeys.png" width="11px" height="12px" preserveAspectRatio="xMinYMin meet" x="250.5" y="-564"/>
<text text-anchor="start" x="265.5" y="-555.2" font-family="Helvetica,sans-Serif" font-size="11.00">id</text>
<polygon fill="none" stroke="black" points="398.5,-547 398.5,-569 534.5,-569 534.5,-547 398.5,-547"/>
<text text-anchor="start" x="401.5" y="-555.2" font-family="Helvetica,sans-Serif" font-size="11.00">uuid[2147483647]</text>
<polygon fill="#ffffff" stroke="transparent" points="245.5,-525 245.5,-547 398.5,-547 398.5,-525 245.5,-525"/>
<polygon fill="none" stroke="black" points="245.5,-525 245.5,-547 398.5,-547 398.5,-525 245.5,-525"/>
<text text-anchor="start" x="265.5" y="-533.2" font-family="Helvetica,sans-Serif" font-size="11.00">identifier</text>
<polygon fill="none" stroke="black" points="398.5,-525 398.5,-547 534.5,-547 534.5,-525 398.5,-525"/>
<text text-anchor="start" x="401.5" y="-533.2" font-family="Helvetica,sans-Serif" font-size="11.00">text[2147483647]</text>
<polygon fill="none" stroke="black" points="245.5,-503 245.5,-525 398.5,-525 398.5,-503 245.5,-503"/>
<text text-anchor="start" x="265.5" y="-511.2" font-family="Helvetica,sans-Serif" font-size="11.00">excavation_date</text>
<polygon fill="none" stroke="black" points="398.5,-503 398.5,-525 534.5,-525 534.5,-503 398.5,-503"/>
<text text-anchor="start" x="401.5" y="-511.2" font-family="Helvetica,sans-Serif" font-size="11.00">date[13]</text>
<polygon fill="none" stroke="black" points="245.5,-481 245.5,-503 398.5,-503 398.5,-481 245.5,-481"/>
<text text-anchor="start" x="265.5" y="-489.2" font-family="Helvetica,sans-Serif" font-size="11.00">begin_date</text>
<polygon fill="none" stroke="black" points="398.5,-481 398.5,-503 534.5,-503 534.5,-481 398.5,-481"/>
<text text-anchor="start" x="401.5" y="-489.2" font-family="Helvetica,sans-Serif" font-size="11.00">date[13]</text>
<polygon fill="none" stroke="black" points="245.5,-459 245.5,-481 398.5,-481 398.5,-459 245.5,-459"/>
<text text-anchor="start" x="265.5" y="-467.2" font-family="Helvetica,sans-Serif" font-size="11.00">end_date</text>
<polygon fill="none" stroke="black" points="398.5,-459 398.5,-481 534.5,-481 534.5,-459 398.5,-459"/>
<text text-anchor="start" x="401.5" y="-467.2" font-family="Helvetica,sans-Serif" font-size="11.00">date[13]</text>
<polygon fill="none" stroke="black" points="245.5,-437 245.5,-459 398.5,-459 398.5,-437 245.5,-437"/>
<image xlink:href="../../images/foreignKeys.png" width="11px" height="12px" preserveAspectRatio="xMinYMin meet" x="250.5" y="-454"/>
<text text-anchor="start" x="265.5" y="-445.2" font-family="Helvetica,sans-Serif" font-size="11.00">fk_company</text>
<polygon fill="none" stroke="black" points="398.5,-437 398.5,-459 534.5,-459 534.5,-437 398.5,-437"/>
<text text-anchor="start" x="401.5" y="-445.2" font-family="Helvetica,sans-Serif" font-size="11.00">uuid[2147483647]</text>
<polygon fill="none" stroke="black" points="245.5,-415 245.5,-437 398.5,-437 398.5,-415 245.5,-415"/>
<image xlink:href="../../images/foreignKeys.png" width="11px" height="12px" preserveAspectRatio="xMinYMin meet" x="250.5" y="-432"/>
<text text-anchor="start" x="265.5" y="-423.2" font-family="Helvetica,sans-Serif" font-size="11.00">fk_sector</text>
<polygon fill="none" stroke="black" points="398.5,-415 398.5,-437 534.5,-437 534.5,-415 398.5,-415"/>
<text text-anchor="start" x="401.5" y="-423.2" font-family="Helvetica,sans-Serif" font-size="11.00">uuid[2147483647]</text>
<polygon fill="none" stroke="black" points="245.5,-393 245.5,-415 398.5,-415 398.5,-393 245.5,-393"/>
<image xlink:href="../../images/foreignKeys.png" width="11px" height="12px" preserveAspectRatio="xMinYMin meet" x="250.5" y="-410"/>
<text text-anchor="start" x="265.5" y="-401.2" font-family="Helvetica,sans-Serif" font-size="11.00">fk_cemetery</text>
<polygon fill="none" stroke="black" points="398.5,-393 398.5,-415 534.5,-415 534.5,-393 398.5,-393"/>
<text text-anchor="start" x="401.5" y="-401.2" font-family="Helvetica,sans-Serif" font-size="11.00">uuid[2147483647]</text>
<polygon fill="none" stroke="black" points="245.5,-371 245.5,-393 398.5,-393 398.5,-371 245.5,-371"/>
<image xlink:href="../../images/foreignKeys.png" width="11px" height="12px" preserveAspectRatio="xMinYMin meet" x="250.5" y="-388"/>
<text text-anchor="start" x="265.5" y="-379.2" font-family="Helvetica,sans-Serif" font-size="11.00">fk_size</text>
<polygon fill="none" stroke="black" points="398.5,-371 398.5,-393 534.5,-393 534.5,-371 398.5,-371"/>
<text text-anchor="start" x="401.5" y="-379.2" font-family="Helvetica,sans-Serif" font-size="11.00">int4[10]</text>
<polygon fill="none" stroke="black" points="245.5,-349 245.5,-371 398.5,-371 398.5,-349 245.5,-349"/>
<image xlink:href="../../images/foreignKeys.png" width="11px" height="12px" preserveAspectRatio="xMinYMin meet" x="250.5" y="-366"/>
<text text-anchor="start" x="265.5" y="-357.2" font-family="Helvetica,sans-Serif" font-size="11.00">fk_kind</text>
<polygon fill="none" stroke="black" points="398.5,-349 398.5,-371 534.5,-371 534.5,-349 398.5,-349"/>
<text text-anchor="start" x="401.5" y="-357.2" font-family="Helvetica,sans-Serif" font-size="11.00">int4[10]</text>
<polygon fill="none" stroke="black" points="245.5,-327 245.5,-349 398.5,-349 398.5,-327 245.5,-327"/>
<image xlink:href="../../images/foreignKeys.png" width="11px" height="12px" preserveAspectRatio="xMinYMin meet" x="250.5" y="-344"/>
<text text-anchor="start" x="265.5" y="-335.2" font-family="Helvetica,sans-Serif" font-size="11.00">fk_urn_material</text>
<polygon fill="none" stroke="black" points="398.5,-327 398.5,-349 534.5,-349 534.5,-327 398.5,-327"/>
<text text-anchor="start" x="401.5" y="-335.2" font-family="Helvetica,sans-Serif" font-size="11.00">int4[10]</text>
<polygon fill="none" stroke="black" points="245.5,-305 245.5,-327 398.5,-327 398.5,-305 245.5,-305"/>
<image xlink:href="../../images/foreignKeys.png" width="11px" height="12px" preserveAspectRatio="xMinYMin meet" x="250.5" y="-322"/>
<text text-anchor="start" x="265.5" y="-313.2" font-family="Helvetica,sans-Serif" font-size="11.00">fk_urn_shape</text>
<polygon fill="none" stroke="black" points="398.5,-305 398.5,-327 534.5,-327 534.5,-305 398.5,-305"/>
<text text-anchor="start" x="401.5" y="-313.2" font-family="Helvetica,sans-Serif" font-size="11.00">int4[10]</text>
<polygon fill="none" stroke="black" points="245.5,-283 245.5,-305 398.5,-305 398.5,-283 245.5,-283"/>
<image xlink:href="../../images/foreignKeys.png" width="11px" height="12px" preserveAspectRatio="xMinYMin meet" x="250.5" y="-300"/>
<text text-anchor="start" x="265.5" y="-291.2" font-family="Helvetica,sans-Serif" font-size="11.00">fk_contact_person</text>
<polygon fill="none" stroke="black" points="398.5,-283 398.5,-305 534.5,-305 534.5,-283 398.5,-283"/>
<text text-anchor="start" x="401.5" y="-291.2" font-family="Helvetica,sans-Serif" font-size="11.00">uuid[2147483647]</text>
<polygon fill="none" stroke="black" points="245.5,-261 245.5,-283 398.5,-283 398.5,-261 245.5,-261"/>
<text text-anchor="start" x="265.5" y="-269.2" font-family="Helvetica,sans-Serif" font-size="11.00">remark</text>
<polygon fill="none" stroke="black" points="398.5,-261 398.5,-283 534.5,-283 534.5,-261 398.5,-261"/>
<text text-anchor="start" x="401.5" y="-269.2" font-family="Helvetica,sans-Serif" font-size="11.00">text[2147483647]</text>
<polygon fill="none" stroke="black" points="245.5,-239 245.5,-261 398.5,-261 398.5,-239 245.5,-239"/>
<text text-anchor="start" x="265.5" y="-247.2" font-family="Helvetica,sans-Serif" font-size="11.00">disused</text>
<polygon fill="none" stroke="black" points="398.5,-239 398.5,-261 534.5,-261 534.5,-239 398.5,-239"/>
<text text-anchor="start" x="401.5" y="-247.2" font-family="Helvetica,sans-Serif" font-size="11.00">bool[1]</text>
<polygon fill="none" stroke="black" points="245.5,-217 245.5,-239 398.5,-239 398.5,-217 245.5,-217"/>
<text text-anchor="start" x="265.5" y="-225.2" font-family="Helvetica,sans-Serif" font-size="11.00">disused_date</text>
<polygon fill="none" stroke="black" points="398.5,-217 398.5,-239 534.5,-239 534.5,-217 398.5,-217"/>
<text text-anchor="start" x="401.5" y="-225.2" font-family="Helvetica,sans-Serif" font-size="11.00">date[13]</text>
<polygon fill="none" stroke="black" points="245.5,-195 245.5,-217 398.5,-217 398.5,-195 245.5,-195"/>
<image xlink:href="../../images/foreignKeys.png" width="11px" height="12px" preserveAspectRatio="xMinYMin meet" x="250.5" y="-212"/>
<text text-anchor="start" x="265.5" y="-203.2" font-family="Helvetica,sans-Serif" font-size="11.00">fk_control</text>
<polygon fill="none" stroke="black" points="398.5,-195 398.5,-217 534.5,-217 534.5,-195 398.5,-195"/>
<text text-anchor="start" x="401.5" y="-203.2" font-family="Helvetica,sans-Serif" font-size="11.00">int4[10]</text>
<polygon fill="none" stroke="black" points="245.5,-173 245.5,-195 398.5,-195 398.5,-173 245.5,-173"/>
<text text-anchor="start" x="265.5" y="-181.2" font-family="Helvetica,sans-Serif" font-size="11.00">the_geom</text>
<polygon fill="none" stroke="black" points="398.5,-173 398.5,-195 534.5,-195 534.5,-173 398.5,-173"/>
<text text-anchor="start" x="401.5" y="-181.2" font-family="Helvetica,sans-Serif" font-size="11.00">geometry[2147483647]</text>
<polygon fill="#ffffff" stroke="transparent" points="245.5,-155 245.5,-173 534.5,-173 534.5,-155 245.5,-155"/>
<polygon fill="none" stroke="black" points="245.5,-155 245.5,-173 534.5,-173 534.5,-155 245.5,-155"/>
<polygon fill="#ffffff" stroke="transparent" points="246.5,-156 246.5,-172 346.5,-172 346.5,-156 246.5,-156"/>
<text text-anchor="start" x="248.5" y="-161.2" font-family="Helvetica,sans-Serif" font-size="11.00">&lt; 9</text>
<polygon fill="#ffffff" stroke="transparent" points="346.5,-156 346.5,-172 434.5,-172 434.5,-156 346.5,-156"/>
<text text-anchor="start" x="386.5" y="-161.2" font-family="Helvetica,sans-Serif" font-size="11.00"> &#160;</text>
<polygon fill="#ffffff" stroke="transparent" points="434.5,-156 434.5,-172 533.5,-172 533.5,-156 434.5,-156"/>
<text text-anchor="start" x="511.5" y="-161.2" font-family="Helvetica,sans-Serif" font-size="11.00">2 &gt;</text>
<polygon fill="black" stroke="black" points="346.5,-156 346.5,-172 346.5,-172 346.5,-156 346.5,-156"/>
<polygon fill="black" stroke="black" points="434.5,-156 434.5,-172 434.5,-172 434.5,-156 434.5,-156"/>
<polygon fill="none" stroke="black" stroke-width="2" points="244,-154 244,-592 535,-592 535,-154 244,-154"/>
</a>
</g>
</g>
<!-- contract&#45;&gt;unit -->
<g id="edge2" class="edge">
<title>contract:w&#45;&gt;unit:e</title>
<path fill="none" stroke="black" d="M599.71,-599.76C573.64,-590.79 570.03,-558 535.5,-558"/>
<polygon fill="black" stroke="black" points="606.1,-600.76 613.44,-605.56 610.05,-601.38 614,-602 614,-602 614,-602 610.05,-601.38 614.56,-598.44 606.1,-600.76 606.1,-600.76"/>
<ellipse fill="none" stroke="black" cx="602.94" cy="-600.26" rx="3.2" ry="3.2"/>
</g>
<!-- unit&#45;&gt;contact -->
<g id="edge6" class="edge">
<title>unit:w&#45;&gt;contact:e</title>
<path fill="none" stroke="black" d="M230.86,-298.92C182.57,-339.97 257.02,-624 188,-624"/>
<polygon fill="black" stroke="black" points="236.97,-296.71 245.72,-297.39 240.74,-295.36 244.5,-294 244.5,-294 244.5,-294 240.74,-295.36 243.28,-290.61 236.97,-296.71 236.97,-296.71"/>
<ellipse fill="none" stroke="black" cx="233.96" cy="-297.8" rx="3.2" ry="3.2"/>
</g>
<!-- cemetery -->
<g id="node5" class="node">
<title>cemetery</title>
<g id="a_node5"><a xlink:href="../../tables/cemetery.html" xlink:title="cemetery" target="_top">
<polygon fill="#ffffff" stroke="transparent" points="43.5,-432 43.5,-512 158.5,-512 158.5,-432 43.5,-432"/>
<polygon fill="#f5f5f5" stroke="transparent" points="44,-490 44,-512 159,-512 159,-490 44,-490"/>
<polygon fill="none" stroke="black" points="44,-490 44,-512 159,-512 159,-490 44,-490"/>
<text text-anchor="start" x="49" y="-499.2" font-family="Helvetica,sans-Serif" font-weight="bold" font-size="11.00">cemetery</text>
<text text-anchor="start" x="117" y="-498.2" font-family="Helvetica,sans-Serif" font-size="11.00">[table]</text>
<polygon fill="none" stroke="black" points="44,-468 44,-490 159,-490 159,-468 44,-468"/>
<image xlink:href="../../images/primaryKeys.png" width="11px" height="12px" preserveAspectRatio="xMinYMin meet" x="49" y="-485"/>
<text text-anchor="start" x="76" y="-476.2" font-family="Helvetica,sans-Serif" font-size="11.00">id</text>
<polygon fill="none" stroke="black" points="44,-450 44,-468 159,-468 159,-450 44,-450"/>
<text text-anchor="start" x="47" y="-456.2" font-family="Helvetica,sans-Serif" font-size="11.00">...</text>
<polygon fill="#ffffff" stroke="transparent" points="44,-432 44,-450 159,-450 159,-432 44,-432"/>
<polygon fill="none" stroke="black" points="44,-432 44,-450 159,-450 159,-432 44,-432"/>
<polygon fill="#ffffff" stroke="transparent" points="45,-433 45,-449 79,-449 79,-433 45,-433"/>
<text text-anchor="start" x="47" y="-438.2" font-family="Helvetica,sans-Serif" font-size="11.00"> &#160;</text>
<polygon fill="#ffffff" stroke="transparent" points="79,-433 79,-449 113,-449 113,-433 79,-433"/>
<text text-anchor="start" x="92" y="-438.2" font-family="Helvetica,sans-Serif" font-size="11.00"> &#160;</text>
<polygon fill="#ffffff" stroke="transparent" points="113,-433 113,-449 158,-449 158,-433 113,-433"/>
<text text-anchor="start" x="136" y="-438.2" font-family="Helvetica,sans-Serif" font-size="11.00">1 &gt;</text>
<polygon fill="black" stroke="black" points="79,-433 79,-449 79,-449 79,-433 79,-433"/>
<polygon fill="black" stroke="black" points="113,-433 113,-449 113,-449 113,-433 113,-433"/>
</a>
</g>
</g>
<!-- unit&#45;&gt;cemetery -->
<g id="edge4" class="edge">
<title>unit:w&#45;&gt;cemetery:e</title>
<path fill="none" stroke="black" d="M230.22,-406.5C196.98,-419.51 204.72,-479 160,-479"/>
<polygon fill="black" stroke="black" points="236.62,-405.38 245.12,-407.55 240.56,-404.69 244.5,-404 244.5,-404 244.5,-404 240.56,-404.69 243.88,-400.45 236.62,-405.38 236.62,-405.38"/>
<ellipse fill="none" stroke="black" cx="233.47" cy="-405.93" rx="3.2" ry="3.2"/>
</g>
<!-- organisation -->
<g id="node6" class="node">
<title>organisation</title>
<g id="a_node6"><a xlink:href="../../tables/organisation.html" xlink:title="organisation" target="_top">
<polygon fill="#ffffff" stroke="transparent" points="31.5,-779 31.5,-859 170.5,-859 170.5,-779 31.5,-779"/>
<polygon fill="#f5f5f5" stroke="transparent" points="32,-837 32,-859 171,-859 171,-837 32,-837"/>
<polygon fill="none" stroke="black" points="32,-837 32,-859 171,-859 171,-837 32,-837"/>
<text text-anchor="start" x="37" y="-846.2" font-family="Helvetica,sans-Serif" font-weight="bold" font-size="11.00">organisation</text>
<text text-anchor="start" x="129" y="-845.2" font-family="Helvetica,sans-Serif" font-size="11.00">[table]</text>
<polygon fill="none" stroke="black" points="32,-815 32,-837 171,-837 171,-815 32,-815"/>
<image xlink:href="../../images/primaryKeys.png" width="11px" height="12px" preserveAspectRatio="xMinYMin meet" x="37" y="-832"/>
<text text-anchor="start" x="65" y="-823.2" font-family="Helvetica,sans-Serif" font-size="11.00">id</text>
<polygon fill="none" stroke="black" points="32,-797 32,-815 171,-815 171,-797 32,-797"/>
<text text-anchor="start" x="35" y="-803.2" font-family="Helvetica,sans-Serif" font-size="11.00">...</text>
<polygon fill="#ffffff" stroke="transparent" points="32,-779 32,-797 171,-797 171,-779 32,-779"/>
<polygon fill="none" stroke="black" points="32,-779 32,-797 171,-797 171,-779 32,-779"/>
<polygon fill="#ffffff" stroke="transparent" points="33,-780 33,-796 75,-796 75,-780 33,-780"/>
<text text-anchor="start" x="35" y="-785.2" font-family="Helvetica,sans-Serif" font-size="11.00"> &#160;</text>
<polygon fill="#ffffff" stroke="transparent" points="75,-780 75,-796 117,-796 117,-780 75,-780"/>
<text text-anchor="start" x="92" y="-785.2" font-family="Helvetica,sans-Serif" font-size="11.00"> &#160;</text>
<polygon fill="#ffffff" stroke="transparent" points="117,-780 117,-796 170,-796 170,-780 117,-780"/>
<text text-anchor="start" x="148" y="-785.2" font-family="Helvetica,sans-Serif" font-size="11.00">1 &gt;</text>
<polygon fill="black" stroke="black" points="75,-780 75,-796 75,-796 75,-780 75,-780"/>
<polygon fill="black" stroke="black" points="117,-780 117,-796 117,-796 117,-780 117,-780"/>
</a>
</g>
</g>
<!-- unit&#45;&gt;organisation -->
<g id="edge5" class="edge">
<title>unit:w&#45;&gt;organisation:e</title>
<path fill="none" stroke="black" d="M230.53,-452.25C170.57,-493.77 252.19,-826 172,-826"/>
<polygon fill="black" stroke="black" points="236.85,-450.33 245.55,-451.44 240.67,-449.16 244.5,-448 244.5,-448 244.5,-448 240.67,-449.16 243.45,-444.56 236.85,-450.33 236.85,-450.33"/>
<ellipse fill="none" stroke="black" cx="233.78" cy="-451.26" rx="3.2" ry="3.2"/>
</g>
<!-- tce_vl.control_kind -->
<g id="node7" class="node">
<title>tce_vl.control_kind</title>
<g id="a_node7"><a xlink:href="../../../tce_vl/tables/control_kind.html" xlink:title="tce_vl.control_kind" target="_top">
<polygon fill="#ffffff" stroke="transparent" points="9,-37 9,-95 193,-95 193,-37 9,-37"/>
<polygon fill="#f5f5f5" stroke="transparent" points="9,-73 9,-95 193,-95 193,-73 9,-73"/>
<polygon fill="none" stroke="black" points="9,-73 9,-95 193,-95 193,-73 9,-73"/>
<text text-anchor="start" x="14" y="-82.2" font-family="Helvetica,sans-Serif" font-weight="bold" font-size="11.00">tce_vl.control_kind</text>
<text text-anchor="start" x="151" y="-81.2" font-family="Helvetica,sans-Serif" font-size="11.00">[table]</text>
<polygon fill="none" stroke="black" points="9,-55 9,-73 193,-73 193,-55 9,-55"/>
<text text-anchor="start" x="12" y="-61.2" font-family="Helvetica,sans-Serif" font-size="11.00">...</text>
<polygon fill="#ffffff" stroke="transparent" points="9,-37 9,-55 193,-55 193,-37 9,-37"/>
<polygon fill="none" stroke="black" points="9,-37 9,-55 193,-55 193,-37 9,-37"/>
<polygon fill="#ffffff" stroke="transparent" points="10,-38 10,-54 57,-54 57,-38 10,-38"/>
<text text-anchor="start" x="12" y="-43.2" font-family="Helvetica,sans-Serif" font-size="11.00"> &#160;</text>
<polygon fill="#ffffff" stroke="transparent" points="57,-38 57,-54 133,-54 133,-38 57,-38"/>
<text text-anchor="start" x="76.5" y="-43.2" font-family="Helvetica,sans-Serif" font-size="11.00">0 rows</text>
<polygon fill="#ffffff" stroke="transparent" points="133,-38 133,-54 192,-54 192,-38 133,-38"/>
<text text-anchor="start" x="170" y="-43.2" font-family="Helvetica,sans-Serif" font-size="11.00">1 &gt;</text>
<polygon fill="black" stroke="black" points="57,-38 57,-54 57,-54 57,-38 57,-38"/>
<polygon fill="black" stroke="black" points="133,-38 133,-54 133,-54 133,-38 133,-38"/>
</a>
</g>
</g>
<!-- unit&#45;&gt;tce_vl.control_kind -->
<g id="edge7" class="edge">
<title>unit:w&#45;&gt;tce_vl.control_kind:e</title>
<path fill="none" stroke="black" d="M230.12,-203.05C204.88,-189.76 232.53,-134.73 202,-105 199.86,-102.92 197.6,-100.95 195.25,-99.08"/>
<polygon fill="black" stroke="black" points="236.66,-204.39 243.78,-209.53 240.58,-205.2 244.5,-206 244.5,-206 244.5,-206 240.58,-205.2 245.22,-202.47 236.66,-204.39 236.66,-204.39"/>
<ellipse fill="none" stroke="black" cx="233.53" cy="-203.75" rx="3.2" ry="3.2"/>
</g>
<!-- tce_vl.unit_kind -->
<g id="node8" class="node">
<title>tce_vl.unit_kind</title>
<g id="a_node8"><a xlink:href="../../../tce_vl/tables/unit_kind.html" xlink:title="tce_vl.unit_kind" target="_top">
<polygon fill="#ffffff" stroke="transparent" points="20.5,-274 20.5,-332 181.5,-332 181.5,-274 20.5,-274"/>
<polygon fill="#f5f5f5" stroke="transparent" points="21,-310 21,-332 182,-332 182,-310 21,-310"/>
<polygon fill="none" stroke="black" points="21,-310 21,-332 182,-332 182,-310 21,-310"/>
<text text-anchor="start" x="26" y="-319.2" font-family="Helvetica,sans-Serif" font-weight="bold" font-size="11.00">tce_vl.unit_kind</text>
<text text-anchor="start" x="140" y="-318.2" font-family="Helvetica,sans-Serif" font-size="11.00">[table]</text>
<polygon fill="none" stroke="black" points="21,-292 21,-310 182,-310 182,-292 21,-292"/>
<text text-anchor="start" x="24" y="-298.2" font-family="Helvetica,sans-Serif" font-size="11.00">...</text>
<polygon fill="#ffffff" stroke="transparent" points="21,-274 21,-292 182,-292 182,-274 21,-274"/>
<polygon fill="none" stroke="black" points="21,-274 21,-292 182,-292 182,-274 21,-274"/>
<polygon fill="#ffffff" stroke="transparent" points="22,-275 22,-291 62,-291 62,-275 22,-275"/>
<text text-anchor="start" x="24" y="-280.2" font-family="Helvetica,sans-Serif" font-size="11.00"> &#160;</text>
<polygon fill="#ffffff" stroke="transparent" points="62,-275 62,-291 130,-291 130,-275 62,-275"/>
<text text-anchor="start" x="77.5" y="-280.2" font-family="Helvetica,sans-Serif" font-size="11.00">0 rows</text>
<polygon fill="#ffffff" stroke="transparent" points="130,-275 130,-291 181,-291 181,-275 130,-275"/>
<text text-anchor="start" x="159" y="-280.2" font-family="Helvetica,sans-Serif" font-size="11.00">1 &gt;</text>
<polygon fill="black" stroke="black" points="62,-275 62,-291 62,-291 62,-275 62,-275"/>
<polygon fill="black" stroke="black" points="130,-275 130,-291 130,-291 130,-275 130,-275"/>
</a>
</g>
</g>
<!-- unit&#45;&gt;tce_vl.unit_kind -->
<g id="edge8" class="edge">
<title>unit:w&#45;&gt;tce_vl.unit_kind:e</title>
<path fill="none" stroke="black" d="M230.84,-354.54C219.64,-350.06 202.77,-343.31 184.89,-336.16"/>
<polygon fill="black" stroke="black" points="237.07,-357.03 243.16,-363.34 240.79,-358.51 244.5,-360 244.5,-360 244.5,-360 240.79,-358.51 245.84,-356.66 237.07,-357.03 237.07,-357.03"/>
<ellipse fill="none" stroke="black" cx="234.1" cy="-355.84" rx="3.2" ry="3.2"/>
</g>
<!-- sector -->
<g id="node9" class="node">
<title>sector</title>
<g id="a_node9"><a xlink:href="../../tables/sector.html" xlink:title="sector" target="_top">
<polygon fill="#ffffff" stroke="transparent" points="49,-678 49,-758 153,-758 153,-678 49,-678"/>
<polygon fill="#f5f5f5" stroke="transparent" points="49,-736 49,-758 153,-758 153,-736 49,-736"/>
<polygon fill="none" stroke="black" points="49,-736 49,-758 153,-758 153,-736 49,-736"/>
<text text-anchor="start" x="54" y="-745.2" font-family="Helvetica,sans-Serif" font-weight="bold" font-size="11.00">sector</text>
<text text-anchor="start" x="111" y="-744.2" font-family="Helvetica,sans-Serif" font-size="11.00">[table]</text>
<polygon fill="none" stroke="black" points="49,-714 49,-736 153,-736 153,-714 49,-714"/>
<image xlink:href="../../images/primaryKeys.png" width="11px" height="12px" preserveAspectRatio="xMinYMin meet" x="54" y="-731"/>
<text text-anchor="start" x="69" y="-722.2" font-family="Helvetica,sans-Serif" font-size="11.00">id</text>
<polygon fill="none" stroke="black" points="49,-696 49,-714 153,-714 153,-696 49,-696"/>
<text text-anchor="start" x="52" y="-702.2" font-family="Helvetica,sans-Serif" font-size="11.00">...</text>
<polygon fill="#ffffff" stroke="transparent" points="49,-678 49,-696 153,-696 153,-678 49,-678"/>
<polygon fill="none" stroke="black" points="49,-678 49,-696 153,-696 153,-678 49,-678"/>
<polygon fill="#ffffff" stroke="transparent" points="50,-679 50,-695 80,-695 80,-679 50,-679"/>
<text text-anchor="start" x="52" y="-684.2" font-family="Helvetica,sans-Serif" font-size="11.00"> &#160;</text>
<polygon fill="#ffffff" stroke="transparent" points="80,-679 80,-695 110,-695 110,-679 80,-679"/>
<text text-anchor="start" x="91" y="-684.2" font-family="Helvetica,sans-Serif" font-size="11.00"> &#160;</text>
<polygon fill="#ffffff" stroke="transparent" points="110,-679 110,-695 152,-695 152,-679 110,-679"/>
<text text-anchor="start" x="130" y="-684.2" font-family="Helvetica,sans-Serif" font-size="11.00">1 &gt;</text>
<polygon fill="black" stroke="black" points="80,-679 80,-695 80,-695 80,-679 80,-679"/>
<polygon fill="black" stroke="black" points="110,-679 110,-695 110,-695 110,-679 110,-679"/>
</a>
</g>
</g>
<!-- unit&#45;&gt;sector -->
<g id="edge9" class="edge">
<title>unit:w&#45;&gt;sector:e</title>
<path fill="none" stroke="black" d="M230.94,-431.2C196.22,-462.24 222.85,-623.36 202,-668 187.99,-698.01 187.12,-725 154,-725"/>
<polygon fill="black" stroke="black" points="237.03,-428.86 245.79,-429.36 240.76,-427.43 244.5,-426 244.5,-426 244.5,-426 240.76,-427.43 243.21,-422.64 237.03,-428.86 237.03,-428.86"/>
<ellipse fill="none" stroke="black" cx="234.04" cy="-430.01" rx="3.2" ry="3.2"/>
</g>
<!-- tce_vl.unit_size -->
<g id="node10" class="node">
<title>tce_vl.unit_size</title>
<g id="a_node10"><a xlink:href="../../../tce_vl/tables/unit_size.html" xlink:title="tce_vl.unit_size" target="_top">
<polygon fill="#ffffff" stroke="transparent" points="22,-353 22,-411 180,-411 180,-353 22,-353"/>
<polygon fill="#f5f5f5" stroke="transparent" points="22,-389 22,-411 180,-411 180,-389 22,-389"/>
<polygon fill="none" stroke="black" points="22,-389 22,-411 180,-411 180,-389 22,-389"/>
<text text-anchor="start" x="27" y="-398.2" font-family="Helvetica,sans-Serif" font-weight="bold" font-size="11.00">tce_vl.unit_size</text>
<text text-anchor="start" x="138" y="-397.2" font-family="Helvetica,sans-Serif" font-size="11.00">[table]</text>
<polygon fill="none" stroke="black" points="22,-371 22,-389 180,-389 180,-371 22,-371"/>
<text text-anchor="start" x="25" y="-377.2" font-family="Helvetica,sans-Serif" font-size="11.00">...</text>
<polygon fill="#ffffff" stroke="transparent" points="22,-353 22,-371 180,-371 180,-353 22,-353"/>
<polygon fill="none" stroke="black" points="22,-353 22,-371 180,-371 180,-353 22,-353"/>
<polygon fill="#ffffff" stroke="transparent" points="23,-354 23,-370 62,-370 62,-354 23,-354"/>
<text text-anchor="start" x="25" y="-359.2" font-family="Helvetica,sans-Serif" font-size="11.00"> &#160;</text>
<polygon fill="#ffffff" stroke="transparent" points="62,-354 62,-370 129,-370 129,-354 62,-354"/>
<text text-anchor="start" x="77" y="-359.2" font-family="Helvetica,sans-Serif" font-size="11.00">0 rows</text>
<polygon fill="#ffffff" stroke="transparent" points="129,-354 129,-370 179,-370 179,-354 129,-354"/>
<text text-anchor="start" x="157" y="-359.2" font-family="Helvetica,sans-Serif" font-size="11.00">1 &gt;</text>
<polygon fill="black" stroke="black" points="62,-354 62,-370 62,-370 62,-354 62,-354"/>
<polygon fill="black" stroke="black" points="129,-354 129,-370 129,-370 129,-354 129,-354"/>
</a>
</g>
</g>
<!-- unit&#45;&gt;tce_vl.unit_size -->
<g id="edge10" class="edge">
<title>unit:w&#45;&gt;tce_vl.unit_size:e</title>
<path fill="none" stroke="black" d="M229.78,-382C216.03,-382 201.9,-382 188.28,-382"/>
<polygon fill="black" stroke="black" points="236.5,-382 244.5,-385.6 240.5,-382 244.5,-382 244.5,-382 244.5,-382 240.5,-382 244.5,-378.4 236.5,-382 236.5,-382"/>
<ellipse fill="none" stroke="black" cx="233.3" cy="-382" rx="3.2" ry="3.2"/>
</g>
<!-- tce_vl.urn_material -->
<g id="node11" class="node">
<title>tce_vl.urn_material</title>
<g id="a_node11"><a xlink:href="../../../tce_vl/tables/urn_material.html" xlink:title="tce_vl.urn_material" target="_top">
<polygon fill="#ffffff" stroke="transparent" points="8,-195 8,-253 194,-253 194,-195 8,-195"/>
<polygon fill="#f5f5f5" stroke="transparent" points="8,-231 8,-253 194,-253 194,-231 8,-231"/>
<polygon fill="none" stroke="black" points="8,-231 8,-253 194,-253 194,-231 8,-231"/>
<text text-anchor="start" x="13" y="-240.2" font-family="Helvetica,sans-Serif" font-weight="bold" font-size="11.00">tce_vl.urn_material</text>
<text text-anchor="start" x="152" y="-239.2" font-family="Helvetica,sans-Serif" font-size="11.00">[table]</text>
<polygon fill="none" stroke="black" points="8,-213 8,-231 194,-231 194,-213 8,-213"/>
<text text-anchor="start" x="11" y="-219.2" font-family="Helvetica,sans-Serif" font-size="11.00">...</text>
<polygon fill="#ffffff" stroke="transparent" points="8,-195 8,-213 194,-213 194,-195 8,-195"/>
<polygon fill="none" stroke="black" points="8,-195 8,-213 194,-213 194,-195 8,-195"/>
<polygon fill="#ffffff" stroke="transparent" points="9,-196 9,-212 57,-212 57,-196 9,-196"/>
<text text-anchor="start" x="11" y="-201.2" font-family="Helvetica,sans-Serif" font-size="11.00"> &#160;</text>
<polygon fill="#ffffff" stroke="transparent" points="57,-196 57,-212 134,-212 134,-196 57,-196"/>
<text text-anchor="start" x="77" y="-201.2" font-family="Helvetica,sans-Serif" font-size="11.00">0 rows</text>
<polygon fill="#ffffff" stroke="transparent" points="134,-196 134,-212 193,-212 193,-196 134,-196"/>
<text text-anchor="start" x="171" y="-201.2" font-family="Helvetica,sans-Serif" font-size="11.00">1 &gt;</text>
<polygon fill="black" stroke="black" points="57,-196 57,-212 57,-212 57,-196 57,-196"/>
<polygon fill="black" stroke="black" points="134,-196 134,-212 134,-212 134,-196 134,-196"/>
</a>
</g>
</g>
<!-- unit&#45;&gt;tce_vl.urn_material -->
<g id="edge11" class="edge">
<title>unit:w&#45;&gt;tce_vl.urn_material:e</title>
<path fill="none" stroke="black" d="M230.33,-334.36C213.05,-322.53 225.94,-284.79 202,-264 199.18,-261.55 196.18,-259.24 193.06,-257.05"/>
<polygon fill="black" stroke="black" points="236.75,-336.01 243.6,-341.49 240.63,-337 244.5,-338 244.5,-338 244.5,-338 240.63,-337 245.4,-334.51 236.75,-336.01 236.75,-336.01"/>
<ellipse fill="none" stroke="black" cx="233.65" cy="-335.21" rx="3.2" ry="3.2"/>
</g>
<!-- tce_vl.urn_shape -->
<g id="node12" class="node">
<title>tce_vl.urn_shape</title>
<g id="a_node12"><a xlink:href="../../../tce_vl/tables/urn_shape.html" xlink:title="tce_vl.urn_shape" target="_top">
<polygon fill="#ffffff" stroke="transparent" points="16.5,-116 16.5,-174 185.5,-174 185.5,-116 16.5,-116"/>
<polygon fill="#f5f5f5" stroke="transparent" points="17,-152 17,-174 186,-174 186,-152 17,-152"/>
<polygon fill="none" stroke="black" points="17,-152 17,-174 186,-174 186,-152 17,-152"/>
<text text-anchor="start" x="22" y="-161.2" font-family="Helvetica,sans-Serif" font-weight="bold" font-size="11.00">tce_vl.urn_shape</text>
<text text-anchor="start" x="144" y="-160.2" font-family="Helvetica,sans-Serif" font-size="11.00">[table]</text>
<polygon fill="none" stroke="black" points="17,-134 17,-152 186,-152 186,-134 17,-134"/>
<text text-anchor="start" x="20" y="-140.2" font-family="Helvetica,sans-Serif" font-size="11.00">...</text>
<polygon fill="#ffffff" stroke="transparent" points="17,-116 17,-134 186,-134 186,-116 17,-116"/>
<polygon fill="none" stroke="black" points="17,-116 17,-134 186,-134 186,-116 17,-116"/>
<polygon fill="#ffffff" stroke="transparent" points="18,-117 18,-133 60,-133 60,-117 18,-117"/>
<text text-anchor="start" x="20" y="-122.2" font-family="Helvetica,sans-Serif" font-size="11.00"> &#160;</text>
<polygon fill="#ffffff" stroke="transparent" points="60,-117 60,-133 131,-133 131,-117 60,-117"/>
<text text-anchor="start" x="77" y="-122.2" font-family="Helvetica,sans-Serif" font-size="11.00">0 rows</text>
<polygon fill="#ffffff" stroke="transparent" points="131,-117 131,-133 185,-133 185,-117 131,-117"/>
<text text-anchor="start" x="163" y="-122.2" font-family="Helvetica,sans-Serif" font-size="11.00">1 &gt;</text>
<polygon fill="black" stroke="black" points="60,-117 60,-133 60,-133 60,-117 60,-117"/>
<polygon fill="black" stroke="black" points="131,-117 131,-133 131,-133 131,-117 131,-117"/>
</a>
</g>
</g>
<!-- unit&#45;&gt;tce_vl.urn_shape -->
<g id="edge12" class="edge">
<title>unit:w&#45;&gt;tce_vl.urn_shape:e</title>
<path fill="none" stroke="black" d="M229.84,-313.65C194.14,-299.54 239.73,-225.34 202,-185 199.45,-182.27 196.68,-179.72 193.75,-177.34"/>
<polygon fill="black" stroke="black" points="236.6,-314.73 243.93,-319.55 240.55,-315.37 244.5,-316 244.5,-316 244.5,-316 240.55,-315.37 245.07,-312.45 236.6,-314.73 236.6,-314.73"/>
<ellipse fill="none" stroke="black" cx="233.44" cy="-314.23" rx="3.2" ry="3.2"/>
</g>
<!-- deceased -->
<g id="node4" class="node">
<title>deceased</title>
<g id="a_node4"><a xlink:href="../../tables/deceased.html" xlink:title="deceased" target="_top">
<polygon fill="#ffffff" stroke="transparent" points="585,-344 585,-534 803,-534 803,-344 585,-344"/>
<polygon fill="#f5f5f5" stroke="transparent" points="585,-512 585,-534 803,-534 803,-512 585,-512"/>
<polygon fill="none" stroke="black" points="585,-512 585,-534 803,-534 803,-512 585,-512"/>
<text text-anchor="start" x="590" y="-521.2" font-family="Helvetica,sans-Serif" font-weight="bold" font-size="11.00">deceased</text>
<text text-anchor="start" x="761" y="-520.2" font-family="Helvetica,sans-Serif" font-size="11.00">[table]</text>
<polygon fill="none" stroke="black" points="585,-490 585,-512 803,-512 803,-490 585,-490"/>
<image xlink:href="../../images/primaryKeys.png" width="11px" height="12px" preserveAspectRatio="xMinYMin meet" x="590" y="-507"/>
<text text-anchor="start" x="605" y="-498.2" font-family="Helvetica,sans-Serif" font-size="11.00">id</text>
<polygon fill="none" stroke="black" points="585,-468 585,-490 803,-490 803,-468 585,-468"/>
<image xlink:href="../../images/foreignKeys.png" width="11px" height="12px" preserveAspectRatio="xMinYMin meet" x="590" y="-485"/>
<text text-anchor="start" x="605" y="-476.2" font-family="Helvetica,sans-Serif" font-size="11.00">fk_civility</text>
<polygon fill="none" stroke="black" points="585,-446 585,-468 803,-468 803,-446 585,-446"/>
<image xlink:href="../../images/foreignKeys.png" width="11px" height="12px" preserveAspectRatio="xMinYMin meet" x="590" y="-463"/>
<text text-anchor="start" x="605" y="-454.2" font-family="Helvetica,sans-Serif" font-size="11.00">fk_birth_country</text>
<polygon fill="none" stroke="black" points="585,-424 585,-446 803,-446 803,-424 585,-424"/>
<image xlink:href="../../images/foreignKeys.png" width="11px" height="12px" preserveAspectRatio="xMinYMin meet" x="590" y="-441"/>
<text text-anchor="start" x="605" y="-432.2" font-family="Helvetica,sans-Serif" font-size="11.00">fk_death_country</text>
<polygon fill="none" stroke="black" points="585,-402 585,-424 803,-424 803,-402 585,-402"/>
<image xlink:href="../../images/foreignKeys.png" width="11px" height="12px" preserveAspectRatio="xMinYMin meet" x="590" y="-419"/>
<text text-anchor="start" x="605" y="-410.2" font-family="Helvetica,sans-Serif" font-size="11.00">fk_burial_country</text>
<polygon fill="none" stroke="black" points="585,-380 585,-402 803,-402 803,-380 585,-380"/>
<image xlink:href="../../images/foreignKeys.png" width="11px" height="12px" preserveAspectRatio="xMinYMin meet" x="590" y="-397"/>
<text text-anchor="start" x="605" y="-388.2" font-family="Helvetica,sans-Serif" font-size="11.00">fk_unit</text>
<polygon fill="none" stroke="black" points="585,-362 585,-380 803,-380 803,-362 585,-362"/>
<text text-anchor="start" x="588" y="-368.2" font-family="Helvetica,sans-Serif" font-size="11.00">...</text>
<polygon fill="#ffffff" stroke="transparent" points="585,-344 585,-362 803,-362 803,-344 585,-344"/>
<polygon fill="none" stroke="black" points="585,-344 585,-362 803,-362 803,-344 585,-344"/>
<polygon fill="#ffffff" stroke="transparent" points="586,-345 586,-361 666,-361 666,-345 586,-345"/>
<text text-anchor="start" x="588" y="-350.2" font-family="Helvetica,sans-Serif" font-size="11.00">&lt; 5</text>
<polygon fill="#ffffff" stroke="transparent" points="666,-345 666,-361 734,-361 734,-345 666,-345"/>
<text text-anchor="start" x="696" y="-350.2" font-family="Helvetica,sans-Serif" font-size="11.00"> &#160;</text>
<polygon fill="#ffffff" stroke="transparent" points="734,-345 734,-361 802,-361 802,-345 734,-345"/>
<text text-anchor="start" x="792" y="-350.2" font-family="Helvetica,sans-Serif" font-size="11.00"> &#160;</text>
<polygon fill="black" stroke="black" points="666,-345 666,-361 666,-361 666,-345 666,-345"/>
<polygon fill="black" stroke="black" points="734,-345 734,-361 734,-361 734,-345 734,-345"/>
</a>
</g>
</g>
<!-- deceased&#45;&gt;unit -->
<g id="edge3" class="edge">
<title>deceased:w&#45;&gt;unit:e</title>
<path fill="none" stroke="black" d="M569.67,-393.62C521.45,-414.87 607.05,-558 535.5,-558"/>
<polygon fill="black" stroke="black" points="576.13,-392.44 584.65,-394.54 580.07,-391.72 584,-391 584,-391 584,-391 580.07,-391.72 583.35,-387.46 576.13,-392.44 576.13,-392.44"/>
<ellipse fill="none" stroke="black" cx="572.98" cy="-393.02" rx="3.2" ry="3.2"/>
</g>
</g>
</svg>
