<?xml version="1.0" encoding="UTF-8" standalone="no"?>
<!DOCTYPE svg PUBLIC "-//W3C//DTD SVG 1.1//EN"
 "http://www.w3.org/Graphics/SVG/1.1/DTD/svg11.dtd">
<!-- Generated by graphviz version 2.43.0 (0)
 -->
<!-- Title: oneDegreeRelationshipsDiagram Pages: 1 -->
<svg width="529pt" height="443pt"
 viewBox="0.00 0.00 529.00 443.00" xmlns="http://www.w3.org/2000/svg" xmlns:xlink="http://www.w3.org/1999/xlink">
<g id="graph0" class="graph" transform="scale(1 1) rotate(0) translate(4 439)">
<title>oneDegreeRelationshipsDiagram</title>
<polygon fill="#ffffff" stroke="transparent" points="-4,4 -4,-439 525,-439 525,4 -4,4"/>
<text text-anchor="middle" x="79.5" y="-7.2" font-family="Helvetica,sans-Serif" font-size="11.00">Generated by SchemaSpy</text>
<!-- tce_od.deceased -->
<g id="node1" class="node">
<title>tce_od.deceased</title>
<g id="a_node1"><a xlink:href="../../../tce_od/tables/deceased.html" xlink:title="tce_od.deceased" target="_top">
<polygon fill="#ffffff" stroke="transparent" points="295,-285 295,-431 513,-431 513,-285 295,-285"/>
<polygon fill="#f5f5f5" stroke="transparent" points="295,-409 295,-431 513,-431 513,-409 295,-409"/>
<polygon fill="none" stroke="black" points="295,-409 295,-431 513,-431 513,-409 295,-409"/>
<text text-anchor="start" x="300" y="-418.2" font-family="Helvetica,sans-Serif" font-weight="bold" font-size="11.00">tce_od.deceased</text>
<text text-anchor="start" x="471" y="-417.2" font-family="Helvetica,sans-Serif" font-size="11.00">[table]</text>
<polygon fill="none" stroke="black" points="295,-387 295,-409 513,-409 513,-387 295,-387"/>
<image xlink:href="../../images/foreignKeys.png" width="11px" height="12px" preserveAspectRatio="xMinYMin meet" x="300" y="-404"/>
<text text-anchor="start" x="315" y="-395.2" font-family="Helvetica,sans-Serif" font-size="11.00">fk_civility</text>
<polygon fill="none" stroke="black" points="295,-365 295,-387 513,-387 513,-365 295,-365"/>
<image xlink:href="../../images/foreignKeys.png" width="11px" height="12px" preserveAspectRatio="xMinYMin meet" x="300" y="-382"/>
<text text-anchor="start" x="315" y="-373.2" font-family="Helvetica,sans-Serif" font-size="11.00">fk_birth_country</text>
<polygon fill="none" stroke="black" points="295,-343 295,-365 513,-365 513,-343 295,-343"/>
<image xlink:href="../../images/foreignKeys.png" width="11px" height="12px" preserveAspectRatio="xMinYMin meet" x="300" y="-360"/>
<text text-anchor="start" x="315" y="-351.2" font-family="Helvetica,sans-Serif" font-size="11.00">fk_death_country</text>
<polygon fill="none" stroke="black" points="295,-321 295,-343 513,-343 513,-321 295,-321"/>
<image xlink:href="../../images/foreignKeys.png" width="11px" height="12px" preserveAspectRatio="xMinYMin meet" x="300" y="-338"/>
<text text-anchor="start" x="315" y="-329.2" font-family="Helvetica,sans-Serif" font-size="11.00">fk_burial_country</text>
<polygon fill="none" stroke="black" points="295,-303 295,-321 513,-321 513,-303 295,-303"/>
<text text-anchor="start" x="298" y="-309.2" font-family="Helvetica,sans-Serif" font-size="11.00">...</text>
<polygon fill="#ffffff" stroke="transparent" points="295,-285 295,-303 513,-303 513,-285 295,-285"/>
<polygon fill="none" stroke="black" points="295,-285 295,-303 513,-303 513,-285 295,-285"/>
<polygon fill="#ffffff" stroke="transparent" points="296,-286 296,-302 367,-302 367,-286 296,-286"/>
<text text-anchor="start" x="298" y="-291.2" font-family="Helvetica,sans-Serif" font-size="11.00">&lt; 4</text>
<polygon fill="#ffffff" stroke="transparent" points="367,-286 367,-302 454,-302 454,-286 367,-286"/>
<text text-anchor="start" x="392" y="-291.2" font-family="Helvetica,sans-Serif" font-size="11.00">0 rows</text>
<polygon fill="#ffffff" stroke="transparent" points="454,-286 454,-302 512,-302 512,-286 454,-286"/>
<text text-anchor="start" x="502" y="-291.2" font-family="Helvetica,sans-Serif" font-size="11.00"> &#160;</text>
<polygon fill="black" stroke="black" points="367,-286 367,-302 367,-302 367,-286 367,-286"/>
<polygon fill="black" stroke="black" points="454,-286 454,-302 454,-302 454,-286 454,-286"/>
</a>
</g>
</g>
<!-- country -->
<g id="node2" class="node">
<title>country</title>
<g id="a_node2"><a xlink:href="../../tables/country.html" xlink:title="country" target="_top">
<polygon fill="#ffffff" stroke="transparent" points="8,-37 8,-389 246,-389 246,-37 8,-37"/>
<polygon fill="#f5f5f5" stroke="transparent" points="10,-365 10,-387 244,-387 244,-365 10,-365"/>
<polygon fill="none" stroke="black" points="10,-365 10,-387 244,-387 244,-365 10,-365"/>
<text text-anchor="start" x="15" y="-374.2" font-family="Helvetica,sans-Serif" font-weight="bold" font-size="11.00">country</text>
<text text-anchor="start" x="202" y="-373.2" font-family="Helvetica,sans-Serif" font-size="11.00">[table]</text>
<polygon fill="none" stroke="black" points="10,-343 10,-365 138,-365 138,-343 10,-343"/>
<image xlink:href="../../images/primaryKeys.png" width="11px" height="12px" preserveAspectRatio="xMinYMin meet" x="15" y="-360"/>
<text text-anchor="start" x="30" y="-351.2" font-family="Helvetica,sans-Serif" font-size="11.00">id</text>
<polygon fill="none" stroke="black" points="138,-343 138,-365 244,-365 244,-343 138,-343"/>
<text text-anchor="start" x="141" y="-351.2" font-family="Helvetica,sans-Serif" font-size="11.00">int4[10]</text>
<polygon fill="none" stroke="black" points="10,-321 10,-343 138,-343 138,-321 10,-321"/>
<text text-anchor="start" x="30" y="-329.2" font-family="Helvetica,sans-Serif" font-size="11.00">active</text>
<polygon fill="none" stroke="black" points="138,-321 138,-343 244,-343 244,-321 138,-321"/>
<text text-anchor="start" x="141" y="-329.2" font-family="Helvetica,sans-Serif" font-size="11.00">bool[1]</text>
<polygon fill="none" stroke="black" points="10,-299 10,-321 138,-321 138,-299 10,-299"/>
<text text-anchor="start" x="30" y="-307.2" font-family="Helvetica,sans-Serif" font-size="11.00">short_en</text>
<polygon fill="none" stroke="black" points="138,-299 138,-321 244,-321 244,-299 138,-299"/>
<text text-anchor="start" x="141" y="-307.2" font-family="Helvetica,sans-Serif" font-size="11.00">varchar[10]</text>
<polygon fill="none" stroke="black" points="10,-277 10,-299 138,-299 138,-277 10,-277"/>
<text text-anchor="start" x="30" y="-285.2" font-family="Helvetica,sans-Serif" font-size="11.00">short_fr</text>
<polygon fill="none" stroke="black" points="138,-277 138,-299 244,-299 244,-277 138,-277"/>
<text text-anchor="start" x="141" y="-285.2" font-family="Helvetica,sans-Serif" font-size="11.00">varchar[10]</text>
<polygon fill="none" stroke="black" points="10,-255 10,-277 138,-277 138,-255 10,-255"/>
<text text-anchor="start" x="30" y="-263.2" font-family="Helvetica,sans-Serif" font-size="11.00">short_de</text>
<polygon fill="none" stroke="black" points="138,-255 138,-277 244,-277 244,-255 138,-255"/>
<text text-anchor="start" x="141" y="-263.2" font-family="Helvetica,sans-Serif" font-size="11.00">varchar[10]</text>
<polygon fill="none" stroke="black" points="10,-233 10,-255 138,-255 138,-233 10,-233"/>
<text text-anchor="start" x="30" y="-241.2" font-family="Helvetica,sans-Serif" font-size="11.00">short_it</text>
<polygon fill="none" stroke="black" points="138,-233 138,-255 244,-255 244,-233 138,-233"/>
<text text-anchor="start" x="141" y="-241.2" font-family="Helvetica,sans-Serif" font-size="11.00">varchar[10]</text>
<polygon fill="none" stroke="black" points="10,-211 10,-233 138,-233 138,-211 10,-211"/>
<text text-anchor="start" x="30" y="-219.2" font-family="Helvetica,sans-Serif" font-size="11.00">value_en</text>
<polygon fill="none" stroke="black" points="138,-211 138,-233 244,-233 244,-211 138,-211"/>
<text text-anchor="start" x="141" y="-219.2" font-family="Helvetica,sans-Serif" font-size="11.00">varchar[50]</text>
<polygon fill="none" stroke="black" points="10,-189 10,-211 138,-211 138,-189 10,-189"/>
<text text-anchor="start" x="30" y="-197.2" font-family="Helvetica,sans-Serif" font-size="11.00">value_fr</text>
<polygon fill="none" stroke="black" points="138,-189 138,-211 244,-211 244,-189 138,-189"/>
<text text-anchor="start" x="141" y="-197.2" font-family="Helvetica,sans-Serif" font-size="11.00">varchar[50]</text>
<polygon fill="none" stroke="black" points="10,-167 10,-189 138,-189 138,-167 10,-167"/>
<text text-anchor="start" x="30" y="-175.2" font-family="Helvetica,sans-Serif" font-size="11.00">value_de</text>
<polygon fill="none" stroke="black" points="138,-167 138,-189 244,-189 244,-167 138,-167"/>
<text text-anchor="start" x="141" y="-175.2" font-family="Helvetica,sans-Serif" font-size="11.00">varchar[50]</text>
<polygon fill="none" stroke="black" points="10,-145 10,-167 138,-167 138,-145 10,-145"/>
<text text-anchor="start" x="30" y="-153.2" font-family="Helvetica,sans-Serif" font-size="11.00">value_it</text>
<polygon fill="none" stroke="black" points="138,-145 138,-167 244,-167 244,-145 138,-145"/>
<text text-anchor="start" x="141" y="-153.2" font-family="Helvetica,sans-Serif" font-size="11.00">varchar[50]</text>
<polygon fill="none" stroke="black" points="10,-123 10,-145 138,-145 138,-123 10,-123"/>
<text text-anchor="start" x="30" y="-131.2" font-family="Helvetica,sans-Serif" font-size="11.00">description_en</text>
<polygon fill="none" stroke="black" points="138,-123 138,-145 244,-145 244,-123 138,-123"/>
<text text-anchor="start" x="141" y="-131.2" font-family="Helvetica,sans-Serif" font-size="11.00">text[2147483647]</text>
<polygon fill="none" stroke="black" points="10,-101 10,-123 138,-123 138,-101 10,-101"/>
<text text-anchor="start" x="30" y="-109.2" font-family="Helvetica,sans-Serif" font-size="11.00">description_fr</text>
<polygon fill="none" stroke="black" points="138,-101 138,-123 244,-123 244,-101 138,-101"/>
<text text-anchor="start" x="141" y="-109.2" font-family="Helvetica,sans-Serif" font-size="11.00">text[2147483647]</text>
<polygon fill="none" stroke="black" points="10,-79 10,-101 138,-101 138,-79 10,-79"/>
<text text-anchor="start" x="30" y="-87.2" font-family="Helvetica,sans-Serif" font-size="11.00">description_de</text>
<polygon fill="none" stroke="black" points="138,-79 138,-101 244,-101 244,-79 138,-79"/>
<text text-anchor="start" x="141" y="-87.2" font-family="Helvetica,sans-Serif" font-size="11.00">text[2147483647]</text>
<polygon fill="none" stroke="black" points="10,-57 10,-79 138,-79 138,-57 10,-57"/>
<text text-anchor="start" x="30" y="-65.2" font-family="Helvetica,sans-Serif" font-size="11.00">description_it</text>
<polygon fill="none" stroke="black" points="138,-57 138,-79 244,-79 244,-57 138,-57"/>
<text text-anchor="start" x="141" y="-65.2" font-family="Helvetica,sans-Serif" font-size="11.00">text[2147483647]</text>
<polygon fill="#ffffff" stroke="transparent" points="10,-39 10,-57 244,-57 244,-39 10,-39"/>
<polygon fill="none" stroke="black" points="10,-39 10,-57 244,-57 244,-39 10,-39"/>
<polygon fill="#ffffff" stroke="transparent" points="11,-40 11,-56 93,-56 93,-40 11,-40"/>
<text text-anchor="start" x="13" y="-45.2" font-family="Helvetica,sans-Serif" font-size="11.00">&lt; 0</text>
<polygon fill="#ffffff" stroke="transparent" points="93,-40 93,-56 162,-56 162,-40 93,-40"/>
<text text-anchor="start" x="123.5" y="-45.2" font-family="Helvetica,sans-Serif" font-size="11.00"> &#160;</text>
<polygon fill="#ffffff" stroke="transparent" points="162,-40 162,-56 243,-56 243,-40 162,-40"/>
<text text-anchor="start" x="221" y="-45.2" font-family="Helvetica,sans-Serif" font-size="11.00">3 &gt;</text>
<polygon fill="black" stroke="black" points="93,-40 93,-56 93,-56 93,-40 93,-40"/>
<polygon fill="black" stroke="black" points="162,-40 162,-56 162,-56 162,-40 162,-40"/>
<polygon fill="none" stroke="black" stroke-width="2" points="9,-38 9,-388 245,-388 245,-38 9,-38"/>
</a>
</g>
</g>
<!-- tce_od.deceased&#45;&gt;country -->
<g id="edge1" class="edge">
<title>tce_od.deceased:w&#45;&gt;country:e</title>
<path fill="none" stroke="black" d="M279.63,-372.56C268.09,-366.38 262.9,-354 245,-354"/>
<polygon fill="black" stroke="black" points="286.22,-374.14 293.16,-379.5 290.11,-375.07 294,-376 294,-376 294,-376 290.11,-375.07 294.84,-372.5 286.22,-374.14 286.22,-374.14"/>
<ellipse fill="none" stroke="black" cx="283.11" cy="-373.39" rx="3.2" ry="3.2"/>
</g>
<!-- tce_od.deceased&#45;&gt;country -->
<g id="edge2" class="edge">
<title>tce_od.deceased:w&#45;&gt;country:e</title>
<path fill="none" stroke="black" d="M279.63,-335.44C268.09,-341.62 262.9,-354 245,-354"/>
<polygon fill="black" stroke="black" points="286.22,-333.86 294.84,-335.5 290.11,-332.93 294,-332 294,-332 294,-332 290.11,-332.93 293.16,-328.5 286.22,-333.86 286.22,-333.86"/>
<ellipse fill="none" stroke="black" cx="283.11" cy="-334.61" rx="3.2" ry="3.2"/>
</g>
<!-- tce_od.deceased&#45;&gt;country -->
<g id="edge3" class="edge">
<title>tce_od.deceased:w&#45;&gt;country:e</title>
<path fill="none" stroke="black" d="M279.49,-354C268.18,-354 260.99,-354 245,-354"/>
<polygon fill="black" stroke="black" points="286,-354 294,-357.6 290,-354 294,-354 294,-354 294,-354 290,-354 294,-350.4 286,-354 286,-354"/>
<ellipse fill="none" stroke="black" cx="282.8" cy="-354" rx="3.2" ry="3.2"/>
</g>
</g>
</svg>
