<?xml version="1.0" encoding="UTF-8" standalone="no"?>
<!DOCTYPE svg PUBLIC "-//W3C//DTD SVG 1.1//EN"
 "http://www.w3.org/Graphics/SVG/1.1/DTD/svg11.dtd">
<!-- Generated by graphviz version 2.43.0 (0)
 -->
<!-- Title: oneDegreeRelationshipsDiagram Pages: 1 -->
<svg width="529pt" height="471pt"
 viewBox="0.00 0.00 529.00 471.00" xmlns="http://www.w3.org/2000/svg" xmlns:xlink="http://www.w3.org/1999/xlink">
<g id="graph0" class="graph" transform="scale(1 1) rotate(0) translate(4 467)">
<title>oneDegreeRelationshipsDiagram</title>
<polygon fill="#ffffff" stroke="transparent" points="-4,4 -4,-467 525,-467 525,4 -4,4"/>
<text text-anchor="middle" x="79.5" y="-7.2" font-family="Helvetica,sans-Serif" font-size="11.00">Generated by SchemaSpy</text>
<!-- tce_od.contact -->
<g id="node1" class="node">
<title>tce_od.contact</title>
<g id="a_node1"><a xlink:href="../../../tce_od/tables/contact.html" xlink:title="tce_od.contact" target="_top">
<polygon fill="#ffffff" stroke="transparent" points="318,-357 318,-459 490,-459 490,-357 318,-357"/>
<polygon fill="#f5f5f5" stroke="transparent" points="318,-437 318,-459 490,-459 490,-437 318,-437"/>
<polygon fill="none" stroke="black" points="318,-437 318,-459 490,-459 490,-437 318,-437"/>
<text text-anchor="start" x="323" y="-446.2" font-family="Helvetica,sans-Serif" font-weight="bold" font-size="11.00">tce_od.contact</text>
<text text-anchor="start" x="448" y="-445.2" font-family="Helvetica,sans-Serif" font-size="11.00">[table]</text>
<polygon fill="none" stroke="black" points="318,-415 318,-437 490,-437 490,-415 318,-415"/>
<image xlink:href="../../images/foreignKeys.png" width="11px" height="12px" preserveAspectRatio="xMinYMin meet" x="323" y="-432"/>
<text text-anchor="start" x="338" y="-423.2" font-family="Helvetica,sans-Serif" font-size="11.00">fk_kind</text>
<polygon fill="none" stroke="black" points="318,-393 318,-415 490,-415 490,-393 318,-393"/>
<image xlink:href="../../images/foreignKeys.png" width="11px" height="12px" preserveAspectRatio="xMinYMin meet" x="323" y="-410"/>
<text text-anchor="start" x="338" y="-401.2" font-family="Helvetica,sans-Serif" font-size="11.00">fk_civility</text>
<polygon fill="none" stroke="black" points="318,-375 318,-393 490,-393 490,-375 318,-375"/>
<text text-anchor="start" x="321" y="-381.2" font-family="Helvetica,sans-Serif" font-size="11.00">...</text>
<polygon fill="#ffffff" stroke="transparent" points="318,-357 318,-375 490,-375 490,-357 318,-357"/>
<polygon fill="none" stroke="black" points="318,-357 318,-375 490,-375 490,-357 318,-357"/>
<polygon fill="#ffffff" stroke="transparent" points="319,-358 319,-374 374,-374 374,-358 319,-358"/>
<text text-anchor="start" x="321" y="-363.2" font-family="Helvetica,sans-Serif" font-size="11.00">&lt; 2</text>
<polygon fill="#ffffff" stroke="transparent" points="374,-358 374,-374 446,-374 446,-358 374,-358"/>
<text text-anchor="start" x="391.5" y="-363.2" font-family="Helvetica,sans-Serif" font-size="11.00">0 rows</text>
<polygon fill="#ffffff" stroke="transparent" points="446,-358 446,-374 489,-374 489,-358 446,-358"/>
<text text-anchor="start" x="479" y="-363.2" font-family="Helvetica,sans-Serif" font-size="11.00"> &#160;</text>
<polygon fill="black" stroke="black" points="374,-358 374,-374 374,-374 374,-358 374,-358"/>
<polygon fill="black" stroke="black" points="446,-358 446,-374 446,-374 446,-358 446,-358"/>
</a>
</g>
</g>
<!-- civility -->
<g id="node2" class="node">
<title>civility</title>
<g id="a_node2"><a xlink:href="../../tables/civility.html" xlink:title="civility" target="_top">
<polygon fill="#ffffff" stroke="transparent" points="8,-37 8,-389 246,-389 246,-37 8,-37"/>
<polygon fill="#f5f5f5" stroke="transparent" points="10,-365 10,-387 244,-387 244,-365 10,-365"/>
<polygon fill="none" stroke="black" points="10,-365 10,-387 244,-387 244,-365 10,-365"/>
<text text-anchor="start" x="15" y="-374.2" font-family="Helvetica,sans-Serif" font-weight="bold" font-size="11.00">civility</text>
<text text-anchor="start" x="202" y="-373.2" font-family="Helvetica,sans-Serif" font-size="11.00">[table]</text>
<polygon fill="none" stroke="black" points="10,-343 10,-365 138,-365 138,-343 10,-343"/>
<image xlink:href="../../images/primaryKeys.png" width="11px" height="12px" preserveAspectRatio="xMinYMin meet" x="15" y="-360"/>
<text text-anchor="start" x="30" y="-351.2" font-family="Helvetica,sans-Serif" font-size="11.00">id</text>
<polygon fill="none" stroke="black" points="138,-343 138,-365 244,-365 244,-343 138,-343"/>
<text text-anchor="start" x="141" y="-351.2" font-family="Helvetica,sans-Serif" font-size="11.00">int4[10]</text>
<polygon fill="none" stroke="black" points="10,-321 10,-343 138,-343 138,-321 10,-321"/>
<text text-anchor="start" x="30" y="-329.2" font-family="Helvetica,sans-Serif" font-size="11.00">active</text>
<polygon fill="none" stroke="black" points="138,-321 138,-343 244,-343 244,-321 138,-321"/>
<text text-anchor="start" x="141" y="-329.2" font-family="Helvetica,sans-Serif" font-size="11.00">bool[1]</text>
<polygon fill="none" stroke="black" points="10,-299 10,-321 138,-321 138,-299 10,-299"/>
<text text-anchor="start" x="30" y="-307.2" font-family="Helvetica,sans-Serif" font-size="11.00">short_en</text>
<polygon fill="none" stroke="black" points="138,-299 138,-321 244,-321 244,-299 138,-299"/>
<text text-anchor="start" x="141" y="-307.2" font-family="Helvetica,sans-Serif" font-size="11.00">varchar[10]</text>
<polygon fill="none" stroke="black" points="10,-277 10,-299 138,-299 138,-277 10,-277"/>
<text text-anchor="start" x="30" y="-285.2" font-family="Helvetica,sans-Serif" font-size="11.00">short_fr</text>
<polygon fill="none" stroke="black" points="138,-277 138,-299 244,-299 244,-277 138,-277"/>
<text text-anchor="start" x="141" y="-285.2" font-family="Helvetica,sans-Serif" font-size="11.00">varchar[10]</text>
<polygon fill="none" stroke="black" points="10,-255 10,-277 138,-277 138,-255 10,-255"/>
<text text-anchor="start" x="30" y="-263.2" font-family="Helvetica,sans-Serif" font-size="11.00">short_de</text>
<polygon fill="none" stroke="black" points="138,-255 138,-277 244,-277 244,-255 138,-255"/>
<text text-anchor="start" x="141" y="-263.2" font-family="Helvetica,sans-Serif" font-size="11.00">varchar[10]</text>
<polygon fill="none" stroke="black" points="10,-233 10,-255 138,-255 138,-233 10,-233"/>
<text text-anchor="start" x="30" y="-241.2" font-family="Helvetica,sans-Serif" font-size="11.00">short_it</text>
<polygon fill="none" stroke="black" points="138,-233 138,-255 244,-255 244,-233 138,-233"/>
<text text-anchor="start" x="141" y="-241.2" font-family="Helvetica,sans-Serif" font-size="11.00">varchar[10]</text>
<polygon fill="none" stroke="black" points="10,-211 10,-233 138,-233 138,-211 10,-211"/>
<text text-anchor="start" x="30" y="-219.2" font-family="Helvetica,sans-Serif" font-size="11.00">value_en</text>
<polygon fill="none" stroke="black" points="138,-211 138,-233 244,-233 244,-211 138,-211"/>
<text text-anchor="start" x="141" y="-219.2" font-family="Helvetica,sans-Serif" font-size="11.00">varchar[50]</text>
<polygon fill="none" stroke="black" points="10,-189 10,-211 138,-211 138,-189 10,-189"/>
<text text-anchor="start" x="30" y="-197.2" font-family="Helvetica,sans-Serif" font-size="11.00">value_fr</text>
<polygon fill="none" stroke="black" points="138,-189 138,-211 244,-211 244,-189 138,-189"/>
<text text-anchor="start" x="141" y="-197.2" font-family="Helvetica,sans-Serif" font-size="11.00">varchar[50]</text>
<polygon fill="none" stroke="black" points="10,-167 10,-189 138,-189 138,-167 10,-167"/>
<text text-anchor="start" x="30" y="-175.2" font-family="Helvetica,sans-Serif" font-size="11.00">value_de</text>
<polygon fill="none" stroke="black" points="138,-167 138,-189 244,-189 244,-167 138,-167"/>
<text text-anchor="start" x="141" y="-175.2" font-family="Helvetica,sans-Serif" font-size="11.00">varchar[50]</text>
<polygon fill="none" stroke="black" points="10,-145 10,-167 138,-167 138,-145 10,-145"/>
<text text-anchor="start" x="30" y="-153.2" font-family="Helvetica,sans-Serif" font-size="11.00">value_it</text>
<polygon fill="none" stroke="black" points="138,-145 138,-167 244,-167 244,-145 138,-145"/>
<text text-anchor="start" x="141" y="-153.2" font-family="Helvetica,sans-Serif" font-size="11.00">varchar[50]</text>
<polygon fill="none" stroke="black" points="10,-123 10,-145 138,-145 138,-123 10,-123"/>
<text text-anchor="start" x="30" y="-131.2" font-family="Helvetica,sans-Serif" font-size="11.00">description_en</text>
<polygon fill="none" stroke="black" points="138,-123 138,-145 244,-145 244,-123 138,-123"/>
<text text-anchor="start" x="141" y="-131.2" font-family="Helvetica,sans-Serif" font-size="11.00">text[2147483647]</text>
<polygon fill="none" stroke="black" points="10,-101 10,-123 138,-123 138,-101 10,-101"/>
<text text-anchor="start" x="30" y="-109.2" font-family="Helvetica,sans-Serif" font-size="11.00">description_fr</text>
<polygon fill="none" stroke="black" points="138,-101 138,-123 244,-123 244,-101 138,-101"/>
<text text-anchor="start" x="141" y="-109.2" font-family="Helvetica,sans-Serif" font-size="11.00">text[2147483647]</text>
<polygon fill="none" stroke="black" points="10,-79 10,-101 138,-101 138,-79 10,-79"/>
<text text-anchor="start" x="30" y="-87.2" font-family="Helvetica,sans-Serif" font-size="11.00">description_de</text>
<polygon fill="none" stroke="black" points="138,-79 138,-101 244,-101 244,-79 138,-79"/>
<text text-anchor="start" x="141" y="-87.2" font-family="Helvetica,sans-Serif" font-size="11.00">text[2147483647]</text>
<polygon fill="none" stroke="black" points="10,-57 10,-79 138,-79 138,-57 10,-57"/>
<text text-anchor="start" x="30" y="-65.2" font-family="Helvetica,sans-Serif" font-size="11.00">description_it</text>
<polygon fill="none" stroke="black" points="138,-57 138,-79 244,-79 244,-57 138,-57"/>
<text text-anchor="start" x="141" y="-65.2" font-family="Helvetica,sans-Serif" font-size="11.00">text[2147483647]</text>
<polygon fill="#ffffff" stroke="transparent" points="10,-39 10,-57 244,-57 244,-39 10,-39"/>
<polygon fill="none" stroke="black" points="10,-39 10,-57 244,-57 244,-39 10,-39"/>
<polygon fill="#ffffff" stroke="transparent" points="11,-40 11,-56 93,-56 93,-40 11,-40"/>
<text text-anchor="start" x="13" y="-45.2" font-family="Helvetica,sans-Serif" font-size="11.00">&lt; 0</text>
<polygon fill="#ffffff" stroke="transparent" points="93,-40 93,-56 162,-56 162,-40 93,-40"/>
<text text-anchor="start" x="123.5" y="-45.2" font-family="Helvetica,sans-Serif" font-size="11.00"> &#160;</text>
<polygon fill="#ffffff" stroke="transparent" points="162,-40 162,-56 243,-56 243,-40 162,-40"/>
<text text-anchor="start" x="221" y="-45.2" font-family="Helvetica,sans-Serif" font-size="11.00">2 &gt;</text>
<polygon fill="black" stroke="black" points="93,-40 93,-56 93,-56 93,-40 93,-40"/>
<polygon fill="black" stroke="black" points="162,-40 162,-56 162,-56 162,-40 162,-40"/>
<polygon fill="none" stroke="black" stroke-width="2" points="9,-38 9,-388 245,-388 245,-38 9,-38"/>
</a>
</g>
</g>
<!-- tce_od.contact&#45;&gt;civility -->
<g id="edge1" class="edge">
<title>tce_od.contact:w&#45;&gt;civility:e</title>
<path fill="none" stroke="black" d="M302.65,-401.17C278.81,-390.59 278.33,-354 245,-354"/>
<polygon fill="black" stroke="black" points="309.15,-402.45 316.3,-407.53 313.08,-403.23 317,-404 317,-404 317,-404 313.08,-403.23 317.7,-400.47 309.15,-402.45 309.15,-402.45"/>
<ellipse fill="none" stroke="black" cx="306.01" cy="-401.83" rx="3.2" ry="3.2"/>
</g>
<!-- tce_od.deceased -->
<g id="node3" class="node">
<title>tce_od.deceased</title>
<g id="a_node3"><a xlink:href="../../../tce_od/tables/deceased.html" xlink:title="tce_od.deceased" target="_top">
<polygon fill="#ffffff" stroke="transparent" points="295,-190 295,-336 513,-336 513,-190 295,-190"/>
<polygon fill="#f5f5f5" stroke="transparent" points="295,-314 295,-336 513,-336 513,-314 295,-314"/>
<polygon fill="none" stroke="black" points="295,-314 295,-336 513,-336 513,-314 295,-314"/>
<text text-anchor="start" x="300" y="-323.2" font-family="Helvetica,sans-Serif" font-weight="bold" font-size="11.00">tce_od.deceased</text>
<text text-anchor="start" x="471" y="-322.2" font-family="Helvetica,sans-Serif" font-size="11.00">[table]</text>
<polygon fill="none" stroke="black" points="295,-292 295,-314 513,-314 513,-292 295,-292"/>
<image xlink:href="../../images/foreignKeys.png" width="11px" height="12px" preserveAspectRatio="xMinYMin meet" x="300" y="-309"/>
<text text-anchor="start" x="315" y="-300.2" font-family="Helvetica,sans-Serif" font-size="11.00">fk_civility</text>
<polygon fill="none" stroke="black" points="295,-270 295,-292 513,-292 513,-270 295,-270"/>
<image xlink:href="../../images/foreignKeys.png" width="11px" height="12px" preserveAspectRatio="xMinYMin meet" x="300" y="-287"/>
<text text-anchor="start" x="315" y="-278.2" font-family="Helvetica,sans-Serif" font-size="11.00">fk_birth_country</text>
<polygon fill="none" stroke="black" points="295,-248 295,-270 513,-270 513,-248 295,-248"/>
<image xlink:href="../../images/foreignKeys.png" width="11px" height="12px" preserveAspectRatio="xMinYMin meet" x="300" y="-265"/>
<text text-anchor="start" x="315" y="-256.2" font-family="Helvetica,sans-Serif" font-size="11.00">fk_death_country</text>
<polygon fill="none" stroke="black" points="295,-226 295,-248 513,-248 513,-226 295,-226"/>
<image xlink:href="../../images/foreignKeys.png" width="11px" height="12px" preserveAspectRatio="xMinYMin meet" x="300" y="-243"/>
<text text-anchor="start" x="315" y="-234.2" font-family="Helvetica,sans-Serif" font-size="11.00">fk_burial_country</text>
<polygon fill="none" stroke="black" points="295,-208 295,-226 513,-226 513,-208 295,-208"/>
<text text-anchor="start" x="298" y="-214.2" font-family="Helvetica,sans-Serif" font-size="11.00">...</text>
<polygon fill="#ffffff" stroke="transparent" points="295,-190 295,-208 513,-208 513,-190 295,-190"/>
<polygon fill="none" stroke="black" points="295,-190 295,-208 513,-208 513,-190 295,-190"/>
<polygon fill="#ffffff" stroke="transparent" points="296,-191 296,-207 367,-207 367,-191 296,-191"/>
<text text-anchor="start" x="298" y="-196.2" font-family="Helvetica,sans-Serif" font-size="11.00">&lt; 4</text>
<polygon fill="#ffffff" stroke="transparent" points="367,-191 367,-207 454,-207 454,-191 367,-191"/>
<text text-anchor="start" x="392" y="-196.2" font-family="Helvetica,sans-Serif" font-size="11.00">0 rows</text>
<polygon fill="#ffffff" stroke="transparent" points="454,-191 454,-207 512,-207 512,-191 454,-191"/>
<text text-anchor="start" x="502" y="-196.2" font-family="Helvetica,sans-Serif" font-size="11.00"> &#160;</text>
<polygon fill="black" stroke="black" points="367,-191 367,-207 367,-207 367,-191 367,-191"/>
<polygon fill="black" stroke="black" points="454,-191 454,-207 454,-207 454,-191 454,-191"/>
</a>
</g>
</g>
<!-- tce_od.deceased&#45;&gt;civility -->
<g id="edge2" class="edge">
<title>tce_od.deceased:w&#45;&gt;civility:e</title>
<path fill="none" stroke="black" d="M280.09,-308.08C266.26,-320.98 270.29,-354 245,-354"/>
<polygon fill="black" stroke="black" points="286.48,-305.74 295.23,-306.38 290.24,-304.37 294,-303 294,-303 294,-303 290.24,-304.37 292.77,-299.62 286.48,-305.74 286.48,-305.74"/>
<ellipse fill="none" stroke="black" cx="283.48" cy="-306.84" rx="3.2" ry="3.2"/>
</g>
</g>
</svg>
