<?xml version="1.0" encoding="UTF-8" standalone="no"?>
<!DOCTYPE svg PUBLIC "-//W3C//DTD SVG 1.1//EN"
 "http://www.w3.org/Graphics/SVG/1.1/DTD/svg11.dtd">
<!-- Generated by graphviz version 2.43.0 (0)
 -->
<!-- Title: oneDegreeRelationshipsDiagram Pages: 1 -->
<svg width="499pt" height="401pt"
 viewBox="0.00 0.00 499.00 401.00" xmlns="http://www.w3.org/2000/svg" xmlns:xlink="http://www.w3.org/1999/xlink">
<g id="graph0" class="graph" transform="scale(1 1) rotate(0) translate(4 397)">
<title>oneDegreeRelationshipsDiagram</title>
<polygon fill="#ffffff" stroke="transparent" points="-4,4 -4,-397 495,-397 495,4 -4,4"/>
<text text-anchor="middle" x="79.5" y="-7.2" font-family="Helvetica,sans-Serif" font-size="11.00">Generated by SchemaSpy</text>
<!-- tce_od.vegetation -->
<g id="node1" class="node">
<title>tce_od.vegetation</title>
<g id="a_node1"><a xlink:href="../../../tce_od/tables/vegetation.html" xlink:title="tce_od.vegetation" target="_top">
<polygon fill="#ffffff" stroke="transparent" points="305,-307 305,-387 483,-387 483,-307 305,-307"/>
<polygon fill="#f5f5f5" stroke="transparent" points="305,-365 305,-387 483,-387 483,-365 305,-365"/>
<polygon fill="none" stroke="black" points="305,-365 305,-387 483,-387 483,-365 305,-365"/>
<text text-anchor="start" x="310" y="-374.2" font-family="Helvetica,sans-Serif" font-weight="bold" font-size="11.00">tce_od.vegetation</text>
<text text-anchor="start" x="441" y="-373.2" font-family="Helvetica,sans-Serif" font-size="11.00">[table]</text>
<polygon fill="none" stroke="black" points="305,-343 305,-365 483,-365 483,-343 305,-343"/>
<image xlink:href="../../images/foreignKeys.png" width="11px" height="12px" preserveAspectRatio="xMinYMin meet" x="310" y="-360"/>
<text text-anchor="start" x="364" y="-351.2" font-family="Helvetica,sans-Serif" font-size="11.00">fk_kind</text>
<polygon fill="none" stroke="black" points="305,-325 305,-343 483,-343 483,-325 305,-325"/>
<text text-anchor="start" x="308" y="-331.2" font-family="Helvetica,sans-Serif" font-size="11.00">...</text>
<polygon fill="#ffffff" stroke="transparent" points="305,-307 305,-325 483,-325 483,-307 305,-307"/>
<polygon fill="none" stroke="black" points="305,-307 305,-325 483,-325 483,-307 305,-307"/>
<polygon fill="#ffffff" stroke="transparent" points="306,-308 306,-324 363,-324 363,-308 306,-308"/>
<text text-anchor="start" x="308" y="-313.2" font-family="Helvetica,sans-Serif" font-size="11.00">&lt; 1</text>
<polygon fill="#ffffff" stroke="transparent" points="363,-308 363,-324 437,-324 437,-308 363,-308"/>
<text text-anchor="start" x="381.5" y="-313.2" font-family="Helvetica,sans-Serif" font-size="11.00">0 rows</text>
<polygon fill="#ffffff" stroke="transparent" points="437,-308 437,-324 482,-324 482,-308 437,-308"/>
<text text-anchor="start" x="472" y="-313.2" font-family="Helvetica,sans-Serif" font-size="11.00"> &#160;</text>
<polygon fill="black" stroke="black" points="363,-308 363,-324 363,-324 363,-308 363,-308"/>
<polygon fill="black" stroke="black" points="437,-308 437,-324 437,-324 437,-308 437,-308"/>
</a>
</g>
</g>
<!-- vegetation_kind -->
<g id="node2" class="node">
<title>vegetation_kind</title>
<g id="a_node2"><a xlink:href="../../tables/vegetation_kind.html" xlink:title="vegetation_kind" target="_top">
<polygon fill="#ffffff" stroke="transparent" points="8,-37 8,-389 256,-389 256,-37 8,-37"/>
<polygon fill="#f5f5f5" stroke="transparent" points="10,-365 10,-387 254,-387 254,-365 10,-365"/>
<polygon fill="none" stroke="black" points="10,-365 10,-387 254,-387 254,-365 10,-365"/>
<text text-anchor="start" x="15" y="-374.2" font-family="Helvetica,sans-Serif" font-weight="bold" font-size="11.00">vegetation_kind</text>
<text text-anchor="start" x="212" y="-373.2" font-family="Helvetica,sans-Serif" font-size="11.00">[table]</text>
<polygon fill="none" stroke="black" points="10,-343 10,-365 148,-365 148,-343 10,-343"/>
<image xlink:href="../../images/primaryKeys.png" width="11px" height="12px" preserveAspectRatio="xMinYMin meet" x="15" y="-360"/>
<text text-anchor="start" x="30" y="-351.2" font-family="Helvetica,sans-Serif" font-size="11.00">id</text>
<polygon fill="none" stroke="black" points="148,-343 148,-365 254,-365 254,-343 148,-343"/>
<text text-anchor="start" x="151" y="-351.2" font-family="Helvetica,sans-Serif" font-size="11.00">int4[10]</text>
<polygon fill="none" stroke="black" points="10,-321 10,-343 148,-343 148,-321 10,-321"/>
<text text-anchor="start" x="30" y="-329.2" font-family="Helvetica,sans-Serif" font-size="11.00">active</text>
<polygon fill="none" stroke="black" points="148,-321 148,-343 254,-343 254,-321 148,-321"/>
<text text-anchor="start" x="151" y="-329.2" font-family="Helvetica,sans-Serif" font-size="11.00">bool[1]</text>
<polygon fill="none" stroke="black" points="10,-299 10,-321 148,-321 148,-299 10,-299"/>
<text text-anchor="start" x="30" y="-307.2" font-family="Helvetica,sans-Serif" font-size="11.00">short_en</text>
<polygon fill="none" stroke="black" points="148,-299 148,-321 254,-321 254,-299 148,-299"/>
<text text-anchor="start" x="151" y="-307.2" font-family="Helvetica,sans-Serif" font-size="11.00">varchar[10]</text>
<polygon fill="none" stroke="black" points="10,-277 10,-299 148,-299 148,-277 10,-277"/>
<text text-anchor="start" x="30" y="-285.2" font-family="Helvetica,sans-Serif" font-size="11.00">short_fr</text>
<polygon fill="none" stroke="black" points="148,-277 148,-299 254,-299 254,-277 148,-277"/>
<text text-anchor="start" x="151" y="-285.2" font-family="Helvetica,sans-Serif" font-size="11.00">varchar[10]</text>
<polygon fill="none" stroke="black" points="10,-255 10,-277 148,-277 148,-255 10,-255"/>
<text text-anchor="start" x="30" y="-263.2" font-family="Helvetica,sans-Serif" font-size="11.00">short_de</text>
<polygon fill="none" stroke="black" points="148,-255 148,-277 254,-277 254,-255 148,-255"/>
<text text-anchor="start" x="151" y="-263.2" font-family="Helvetica,sans-Serif" font-size="11.00">varchar[10]</text>
<polygon fill="none" stroke="black" points="10,-233 10,-255 148,-255 148,-233 10,-233"/>
<text text-anchor="start" x="30" y="-241.2" font-family="Helvetica,sans-Serif" font-size="11.00">short_it</text>
<polygon fill="none" stroke="black" points="148,-233 148,-255 254,-255 254,-233 148,-233"/>
<text text-anchor="start" x="151" y="-241.2" font-family="Helvetica,sans-Serif" font-size="11.00">varchar[10]</text>
<polygon fill="none" stroke="black" points="10,-211 10,-233 148,-233 148,-211 10,-211"/>
<text text-anchor="start" x="30" y="-219.2" font-family="Helvetica,sans-Serif" font-size="11.00">value_en</text>
<polygon fill="none" stroke="black" points="148,-211 148,-233 254,-233 254,-211 148,-211"/>
<text text-anchor="start" x="151" y="-219.2" font-family="Helvetica,sans-Serif" font-size="11.00">varchar[50]</text>
<polygon fill="none" stroke="black" points="10,-189 10,-211 148,-211 148,-189 10,-189"/>
<text text-anchor="start" x="30" y="-197.2" font-family="Helvetica,sans-Serif" font-size="11.00">value_fr</text>
<polygon fill="none" stroke="black" points="148,-189 148,-211 254,-211 254,-189 148,-189"/>
<text text-anchor="start" x="151" y="-197.2" font-family="Helvetica,sans-Serif" font-size="11.00">varchar[50]</text>
<polygon fill="none" stroke="black" points="10,-167 10,-189 148,-189 148,-167 10,-167"/>
<text text-anchor="start" x="30" y="-175.2" font-family="Helvetica,sans-Serif" font-size="11.00">value_de</text>
<polygon fill="none" stroke="black" points="148,-167 148,-189 254,-189 254,-167 148,-167"/>
<text text-anchor="start" x="151" y="-175.2" font-family="Helvetica,sans-Serif" font-size="11.00">varchar[50]</text>
<polygon fill="none" stroke="black" points="10,-145 10,-167 148,-167 148,-145 10,-145"/>
<text text-anchor="start" x="30" y="-153.2" font-family="Helvetica,sans-Serif" font-size="11.00">value_it</text>
<polygon fill="none" stroke="black" points="148,-145 148,-167 254,-167 254,-145 148,-145"/>
<text text-anchor="start" x="151" y="-153.2" font-family="Helvetica,sans-Serif" font-size="11.00">varchar[50]</text>
<polygon fill="none" stroke="black" points="10,-123 10,-145 148,-145 148,-123 10,-123"/>
<text text-anchor="start" x="30" y="-131.2" font-family="Helvetica,sans-Serif" font-size="11.00">description_en</text>
<polygon fill="none" stroke="black" points="148,-123 148,-145 254,-145 254,-123 148,-123"/>
<text text-anchor="start" x="151" y="-131.2" font-family="Helvetica,sans-Serif" font-size="11.00">text[2147483647]</text>
<polygon fill="none" stroke="black" points="10,-101 10,-123 148,-123 148,-101 10,-101"/>
<text text-anchor="start" x="30" y="-109.2" font-family="Helvetica,sans-Serif" font-size="11.00">description_fr</text>
<polygon fill="none" stroke="black" points="148,-101 148,-123 254,-123 254,-101 148,-101"/>
<text text-anchor="start" x="151" y="-109.2" font-family="Helvetica,sans-Serif" font-size="11.00">text[2147483647]</text>
<polygon fill="none" stroke="black" points="10,-79 10,-101 148,-101 148,-79 10,-79"/>
<text text-anchor="start" x="30" y="-87.2" font-family="Helvetica,sans-Serif" font-size="11.00">description_de</text>
<polygon fill="none" stroke="black" points="148,-79 148,-101 254,-101 254,-79 148,-79"/>
<text text-anchor="start" x="151" y="-87.2" font-family="Helvetica,sans-Serif" font-size="11.00">text[2147483647]</text>
<polygon fill="none" stroke="black" points="10,-57 10,-79 148,-79 148,-57 10,-57"/>
<text text-anchor="start" x="30" y="-65.2" font-family="Helvetica,sans-Serif" font-size="11.00">description_it</text>
<polygon fill="none" stroke="black" points="148,-57 148,-79 254,-79 254,-57 148,-57"/>
<text text-anchor="start" x="151" y="-65.2" font-family="Helvetica,sans-Serif" font-size="11.00">text[2147483647]</text>
<polygon fill="#ffffff" stroke="transparent" points="10,-39 10,-57 254,-57 254,-39 10,-39"/>
<polygon fill="none" stroke="black" points="10,-39 10,-57 254,-57 254,-39 10,-39"/>
<polygon fill="#ffffff" stroke="transparent" points="11,-40 11,-56 96,-56 96,-40 11,-40"/>
<text text-anchor="start" x="13" y="-45.2" font-family="Helvetica,sans-Serif" font-size="11.00">&lt; 0</text>
<polygon fill="#ffffff" stroke="transparent" points="96,-40 96,-56 169,-56 169,-40 96,-40"/>
<text text-anchor="start" x="128.5" y="-45.2" font-family="Helvetica,sans-Serif" font-size="11.00"> &#160;</text>
<polygon fill="#ffffff" stroke="transparent" points="169,-40 169,-56 253,-56 253,-40 169,-40"/>
<text text-anchor="start" x="231" y="-45.2" font-family="Helvetica,sans-Serif" font-size="11.00">1 &gt;</text>
<polygon fill="black" stroke="black" points="96,-40 96,-56 96,-56 96,-40 96,-40"/>
<polygon fill="black" stroke="black" points="169,-40 169,-56 169,-56 169,-40 169,-40"/>
<polygon fill="none" stroke="black" stroke-width="2" points="9,-38 9,-388 255,-388 255,-38 9,-38"/>
</a>
</g>
</g>
<!-- tce_od.vegetation&#45;&gt;vegetation_kind -->
<g id="edge1" class="edge">
<title>tce_od.vegetation:w&#45;&gt;vegetation_kind:e</title>
<path fill="none" stroke="black" d="M289.49,-354C278.18,-354 270.99,-354 255,-354"/>
<polygon fill="black" stroke="black" points="296,-354 304,-357.6 300,-354 304,-354 304,-354 304,-354 300,-354 304,-350.4 296,-354 296,-354"/>
<ellipse fill="none" stroke="black" cx="292.8" cy="-354" rx="3.2" ry="3.2"/>
</g>
</g>
</svg>
