<?xml version="1.0" encoding="UTF-8" standalone="no"?>
<!DOCTYPE svg PUBLIC "-//W3C//DTD SVG 1.1//EN"
 "http://www.w3.org/Graphics/SVG/1.1/DTD/svg11.dtd">
<!-- Generated by graphviz version 2.43.0 (0)
 -->
<!-- Title: compactRelationshipsDiagram Pages: 1 -->
<svg width="952pt" height="745pt"
 viewBox="0.00 0.00 952.00 745.00" xmlns="http://www.w3.org/2000/svg" xmlns:xlink="http://www.w3.org/1999/xlink">
<g id="graph0" class="graph" transform="scale(1 1) rotate(0) translate(4 741)">
<title>compactRelationshipsDiagram</title>
<polygon fill="#ffffff" stroke="transparent" points="-4,4 -4,-741 948,-741 948,4 -4,4"/>
<text text-anchor="middle" x="79.5" y="-7.2" font-family="Helvetica,sans-Serif" font-size="11.00">Generated by SchemaSpy</text>
<!-- furniture_kind -->
<g id="node1" class="node">
<title>furniture_kind</title>
<g id="a_node1"><a xlink:href="../../tables/furniture_kind.html" xlink:title="furniture_kind" target="_top">
<polygon fill="#ffffff" stroke="transparent" points="530,-240 530,-320 680,-320 680,-240 530,-240"/>
<polygon fill="#f5f5f5" stroke="transparent" points="530,-298 530,-320 680,-320 680,-298 530,-298"/>
<polygon fill="none" stroke="black" points="530,-298 530,-320 680,-320 680,-298 530,-298"/>
<text text-anchor="start" x="535" y="-307.2" font-family="Helvetica,sans-Serif" font-weight="bold" font-size="11.00">furniture_kind</text>
<text text-anchor="start" x="638" y="-306.2" font-family="Helvetica,sans-Serif" font-size="11.00">[table]</text>
<polygon fill="none" stroke="black" points="530,-276 530,-298 680,-298 680,-276 530,-276"/>
<image xlink:href="../../images/primaryKeys.png" width="11px" height="12px" preserveAspectRatio="xMinYMin meet" x="535" y="-293"/>
<text text-anchor="start" x="561" y="-284.2" font-family="Helvetica,sans-Serif" font-size="11.00">id</text>
<polygon fill="none" stroke="black" points="530,-258 530,-276 680,-276 680,-258 530,-258"/>
<text text-anchor="start" x="533" y="-264.2" font-family="Helvetica,sans-Serif" font-size="11.00">...</text>
<polygon fill="#ffffff" stroke="transparent" points="530,-240 530,-258 680,-258 680,-240 530,-240"/>
<polygon fill="none" stroke="black" points="530,-240 530,-258 680,-258 680,-240 530,-240"/>
<polygon fill="#ffffff" stroke="transparent" points="531,-241 531,-257 577,-257 577,-241 531,-241"/>
<text text-anchor="start" x="533" y="-246.2" font-family="Helvetica,sans-Serif" font-size="11.00"> &#160;</text>
<polygon fill="#ffffff" stroke="transparent" points="577,-241 577,-257 622,-257 622,-241 577,-241"/>
<text text-anchor="start" x="595.5" y="-246.2" font-family="Helvetica,sans-Serif" font-size="11.00"> &#160;</text>
<polygon fill="#ffffff" stroke="transparent" points="622,-241 622,-257 679,-257 679,-241 622,-241"/>
<text text-anchor="start" x="657" y="-246.2" font-family="Helvetica,sans-Serif" font-size="11.00">1 &gt;</text>
<polygon fill="black" stroke="black" points="577,-241 577,-257 577,-257 577,-241 577,-241"/>
<polygon fill="black" stroke="black" points="622,-241 622,-257 622,-257 622,-241 622,-241"/>
</a>
</g>
</g>
<!-- vegetation_kind -->
<g id="node2" class="node">
<title>vegetation_kind</title>
<g id="a_node2"><a xlink:href="../../tables/vegetation_kind.html" xlink:title="vegetation_kind" target="_top">
<polygon fill="#ffffff" stroke="transparent" points="530,-385 530,-465 694,-465 694,-385 530,-385"/>
<polygon fill="#f5f5f5" stroke="transparent" points="530,-443 530,-465 694,-465 694,-443 530,-443"/>
<polygon fill="none" stroke="black" points="530,-443 530,-465 694,-465 694,-443 530,-443"/>
<text text-anchor="start" x="535" y="-452.2" font-family="Helvetica,sans-Serif" font-weight="bold" font-size="11.00">vegetation_kind</text>
<text text-anchor="start" x="652" y="-451.2" font-family="Helvetica,sans-Serif" font-size="11.00">[table]</text>
<polygon fill="none" stroke="black" points="530,-421 530,-443 694,-443 694,-421 530,-421"/>
<image xlink:href="../../images/primaryKeys.png" width="11px" height="12px" preserveAspectRatio="xMinYMin meet" x="535" y="-438"/>
<text text-anchor="start" x="563" y="-429.2" font-family="Helvetica,sans-Serif" font-size="11.00">id</text>
<polygon fill="none" stroke="black" points="530,-403 530,-421 694,-421 694,-403 530,-403"/>
<text text-anchor="start" x="533" y="-409.2" font-family="Helvetica,sans-Serif" font-size="11.00">...</text>
<polygon fill="#ffffff" stroke="transparent" points="530,-385 530,-403 694,-403 694,-385 530,-385"/>
<polygon fill="none" stroke="black" points="530,-385 530,-403 694,-403 694,-385 530,-385"/>
<polygon fill="#ffffff" stroke="transparent" points="531,-386 531,-402 581,-402 581,-386 531,-386"/>
<text text-anchor="start" x="533" y="-391.2" font-family="Helvetica,sans-Serif" font-size="11.00"> &#160;</text>
<polygon fill="#ffffff" stroke="transparent" points="581,-386 581,-402 631,-402 631,-386 581,-386"/>
<text text-anchor="start" x="602" y="-391.2" font-family="Helvetica,sans-Serif" font-size="11.00"> &#160;</text>
<polygon fill="#ffffff" stroke="transparent" points="631,-386 631,-402 693,-402 693,-386 631,-386"/>
<text text-anchor="start" x="671" y="-391.2" font-family="Helvetica,sans-Serif" font-size="11.00">1 &gt;</text>
<polygon fill="black" stroke="black" points="581,-386 581,-402 581,-402 581,-386 581,-386"/>
<polygon fill="black" stroke="black" points="631,-386 631,-402 631,-402 631,-386 631,-386"/>
</a>
</g>
</g>
<!-- contract_kind -->
<g id="node3" class="node">
<title>contract_kind</title>
<g id="a_node3"><a xlink:href="../../tables/contract_kind.html" xlink:title="contract_kind" target="_top">
<polygon fill="#ffffff" stroke="transparent" points="530,-95 530,-175 676,-175 676,-95 530,-95"/>
<polygon fill="#f5f5f5" stroke="transparent" points="530,-153 530,-175 676,-175 676,-153 530,-153"/>
<polygon fill="none" stroke="black" points="530,-153 530,-175 676,-175 676,-153 530,-153"/>
<text text-anchor="start" x="535" y="-162.2" font-family="Helvetica,sans-Serif" font-weight="bold" font-size="11.00">contract_kind</text>
<text text-anchor="start" x="634" y="-161.2" font-family="Helvetica,sans-Serif" font-size="11.00">[table]</text>
<polygon fill="none" stroke="black" points="530,-131 530,-153 676,-153 676,-131 530,-131"/>
<image xlink:href="../../images/primaryKeys.png" width="11px" height="12px" preserveAspectRatio="xMinYMin meet" x="535" y="-148"/>
<text text-anchor="start" x="559" y="-139.2" font-family="Helvetica,sans-Serif" font-size="11.00">id</text>
<polygon fill="none" stroke="black" points="530,-113 530,-131 676,-131 676,-113 530,-113"/>
<text text-anchor="start" x="533" y="-119.2" font-family="Helvetica,sans-Serif" font-size="11.00">...</text>
<polygon fill="#ffffff" stroke="transparent" points="530,-95 530,-113 676,-113 676,-95 530,-95"/>
<polygon fill="none" stroke="black" points="530,-95 530,-113 676,-113 676,-95 530,-95"/>
<polygon fill="#ffffff" stroke="transparent" points="531,-96 531,-112 575,-112 575,-96 531,-96"/>
<text text-anchor="start" x="533" y="-101.2" font-family="Helvetica,sans-Serif" font-size="11.00"> &#160;</text>
<polygon fill="#ffffff" stroke="transparent" points="575,-96 575,-112 619,-112 619,-96 575,-96"/>
<text text-anchor="start" x="593" y="-101.2" font-family="Helvetica,sans-Serif" font-size="11.00"> &#160;</text>
<polygon fill="#ffffff" stroke="transparent" points="619,-96 619,-112 675,-112 675,-96 619,-96"/>
<text text-anchor="start" x="653" y="-101.2" font-family="Helvetica,sans-Serif" font-size="11.00">1 &gt;</text>
<polygon fill="black" stroke="black" points="575,-96 575,-112 575,-112 575,-96 575,-96"/>
<polygon fill="black" stroke="black" points="619,-96 619,-112 619,-112 619,-96 619,-96"/>
</a>
</g>
</g>
<!-- civility -->
<g id="node4" class="node">
<title>civility</title>
<g id="a_node4"><a xlink:href="../../tables/civility.html" xlink:title="civility" target="_top">
<polygon fill="#ffffff" stroke="transparent" points="535.5,-541 535.5,-621 663.5,-621 663.5,-541 535.5,-541"/>
<polygon fill="#f5f5f5" stroke="transparent" points="535.5,-599 535.5,-621 663.5,-621 663.5,-599 535.5,-599"/>
<polygon fill="none" stroke="black" points="535.5,-599 535.5,-621 663.5,-621 663.5,-599 535.5,-599"/>
<text text-anchor="start" x="540.5" y="-608.2" font-family="Helvetica,sans-Serif" font-weight="bold" font-size="11.00">civility</text>
<text text-anchor="start" x="621.5" y="-607.2" font-family="Helvetica,sans-Serif" font-size="11.00">[table]</text>
<polygon fill="none" stroke="black" points="535.5,-577 535.5,-599 663.5,-599 663.5,-577 535.5,-577"/>
<image xlink:href="../../images/primaryKeys.png" width="11px" height="12px" preserveAspectRatio="xMinYMin meet" x="540.5" y="-594"/>
<text text-anchor="start" x="555.5" y="-585.2" font-family="Helvetica,sans-Serif" font-size="11.00">id</text>
<polygon fill="none" stroke="black" points="535.5,-559 535.5,-577 663.5,-577 663.5,-559 535.5,-559"/>
<text text-anchor="start" x="538.5" y="-565.2" font-family="Helvetica,sans-Serif" font-size="11.00">...</text>
<polygon fill="#ffffff" stroke="transparent" points="535.5,-541 535.5,-559 663.5,-559 663.5,-541 535.5,-541"/>
<polygon fill="none" stroke="black" points="535.5,-541 535.5,-559 663.5,-559 663.5,-541 535.5,-541"/>
<polygon fill="#ffffff" stroke="transparent" points="536.5,-542 536.5,-558 574.5,-558 574.5,-542 536.5,-542"/>
<text text-anchor="start" x="538.5" y="-547.2" font-family="Helvetica,sans-Serif" font-size="11.00"> &#160;</text>
<polygon fill="#ffffff" stroke="transparent" points="574.5,-542 574.5,-558 612.5,-558 612.5,-542 574.5,-542"/>
<text text-anchor="start" x="589.5" y="-547.2" font-family="Helvetica,sans-Serif" font-size="11.00"> &#160;</text>
<polygon fill="#ffffff" stroke="transparent" points="612.5,-542 612.5,-558 662.5,-558 662.5,-542 612.5,-542"/>
<text text-anchor="start" x="640.5" y="-547.2" font-family="Helvetica,sans-Serif" font-size="11.00">2 &gt;</text>
<polygon fill="black" stroke="black" points="574.5,-542 574.5,-558 574.5,-558 574.5,-542 574.5,-542"/>
<polygon fill="black" stroke="black" points="612.5,-542 612.5,-558 612.5,-558 612.5,-542 612.5,-542"/>
</a>
</g>
</g>
<!-- control_kind -->
<g id="node5" class="node">
<title>control_kind</title>
<g id="a_node5"><a xlink:href="../../tables/control_kind.html" xlink:title="control_kind" target="_top">
<polygon fill="#ffffff" stroke="transparent" points="125,-37 125,-117 262,-117 262,-37 125,-37"/>
<polygon fill="#f5f5f5" stroke="transparent" points="125.5,-95 125.5,-117 262.5,-117 262.5,-95 125.5,-95"/>
<polygon fill="none" stroke="black" points="125.5,-95 125.5,-117 262.5,-117 262.5,-95 125.5,-95"/>
<text text-anchor="start" x="130.5" y="-104.2" font-family="Helvetica,sans-Serif" font-weight="bold" font-size="11.00">control_kind</text>
<text text-anchor="start" x="220.5" y="-103.2" font-family="Helvetica,sans-Serif" font-size="11.00">[table]</text>
<polygon fill="none" stroke="black" points="125.5,-73 125.5,-95 262.5,-95 262.5,-73 125.5,-73"/>
<image xlink:href="../../images/primaryKeys.png" width="11px" height="12px" preserveAspectRatio="xMinYMin meet" x="130.5" y="-90"/>
<text text-anchor="start" x="150.5" y="-81.2" font-family="Helvetica,sans-Serif" font-size="11.00">id</text>
<polygon fill="none" stroke="black" points="125.5,-55 125.5,-73 262.5,-73 262.5,-55 125.5,-55"/>
<text text-anchor="start" x="128.5" y="-61.2" font-family="Helvetica,sans-Serif" font-size="11.00">...</text>
<polygon fill="#ffffff" stroke="transparent" points="125.5,-37 125.5,-55 262.5,-55 262.5,-37 125.5,-37"/>
<polygon fill="none" stroke="black" points="125.5,-37 125.5,-55 262.5,-55 262.5,-37 125.5,-37"/>
<polygon fill="#ffffff" stroke="transparent" points="126.5,-38 126.5,-54 167.5,-54 167.5,-38 126.5,-38"/>
<text text-anchor="start" x="128.5" y="-43.2" font-family="Helvetica,sans-Serif" font-size="11.00"> &#160;</text>
<polygon fill="#ffffff" stroke="transparent" points="167.5,-38 167.5,-54 208.5,-54 208.5,-38 167.5,-38"/>
<text text-anchor="start" x="184" y="-43.2" font-family="Helvetica,sans-Serif" font-size="11.00"> &#160;</text>
<polygon fill="#ffffff" stroke="transparent" points="208.5,-38 208.5,-54 261.5,-54 261.5,-38 208.5,-38"/>
<text text-anchor="start" x="239.5" y="-43.2" font-family="Helvetica,sans-Serif" font-size="11.00">1 &gt;</text>
<polygon fill="black" stroke="black" points="167.5,-38 167.5,-54 167.5,-54 167.5,-38 167.5,-38"/>
<polygon fill="black" stroke="black" points="208.5,-38 208.5,-54 208.5,-54 208.5,-38 208.5,-38"/>
</a>
</g>
</g>
<!-- unit_size -->
<g id="node6" class="node">
<title>unit_size</title>
<g id="a_node6"><a xlink:href="../../tables/unit_size.html" xlink:title="unit_size" target="_top">
<polygon fill="#ffffff" stroke="transparent" points="129.5,-441 129.5,-521 257.5,-521 257.5,-441 129.5,-441"/>
<polygon fill="#f5f5f5" stroke="transparent" points="129.5,-499 129.5,-521 257.5,-521 257.5,-499 129.5,-499"/>
<polygon fill="none" stroke="black" points="129.5,-499 129.5,-521 257.5,-521 257.5,-499 129.5,-499"/>
<text text-anchor="start" x="134.5" y="-508.2" font-family="Helvetica,sans-Serif" font-weight="bold" font-size="11.00">unit_size</text>
<text text-anchor="start" x="215.5" y="-507.2" font-family="Helvetica,sans-Serif" font-size="11.00">[table]</text>
<polygon fill="none" stroke="black" points="129.5,-477 129.5,-499 257.5,-499 257.5,-477 129.5,-477"/>
<image xlink:href="../../images/primaryKeys.png" width="11px" height="12px" preserveAspectRatio="xMinYMin meet" x="134.5" y="-494"/>
<text text-anchor="start" x="149.5" y="-485.2" font-family="Helvetica,sans-Serif" font-size="11.00">id</text>
<polygon fill="none" stroke="black" points="129.5,-459 129.5,-477 257.5,-477 257.5,-459 129.5,-459"/>
<text text-anchor="start" x="132.5" y="-465.2" font-family="Helvetica,sans-Serif" font-size="11.00">...</text>
<polygon fill="#ffffff" stroke="transparent" points="129.5,-441 129.5,-459 257.5,-459 257.5,-441 129.5,-441"/>
<polygon fill="none" stroke="black" points="129.5,-441 129.5,-459 257.5,-459 257.5,-441 129.5,-441"/>
<polygon fill="#ffffff" stroke="transparent" points="130.5,-442 130.5,-458 168.5,-458 168.5,-442 130.5,-442"/>
<text text-anchor="start" x="132.5" y="-447.2" font-family="Helvetica,sans-Serif" font-size="11.00"> &#160;</text>
<polygon fill="#ffffff" stroke="transparent" points="168.5,-442 168.5,-458 206.5,-458 206.5,-442 168.5,-442"/>
<text text-anchor="start" x="183.5" y="-447.2" font-family="Helvetica,sans-Serif" font-size="11.00"> &#160;</text>
<polygon fill="#ffffff" stroke="transparent" points="206.5,-442 206.5,-458 256.5,-458 256.5,-442 206.5,-442"/>
<text text-anchor="start" x="234.5" y="-447.2" font-family="Helvetica,sans-Serif" font-size="11.00">1 &gt;</text>
<polygon fill="black" stroke="black" points="168.5,-442 168.5,-458 168.5,-458 168.5,-442 168.5,-442"/>
<polygon fill="black" stroke="black" points="206.5,-442 206.5,-458 206.5,-458 206.5,-442 206.5,-442"/>
</a>
</g>
</g>
<!-- urn_material -->
<g id="node7" class="node">
<title>urn_material</title>
<g id="a_node7"><a xlink:href="../../tables/urn_material.html" xlink:title="urn_material" target="_top">
<polygon fill="#ffffff" stroke="transparent" points="124,-239 124,-319 263,-319 263,-239 124,-239"/>
<polygon fill="#f5f5f5" stroke="transparent" points="124.5,-297 124.5,-319 263.5,-319 263.5,-297 124.5,-297"/>
<polygon fill="none" stroke="black" points="124.5,-297 124.5,-319 263.5,-319 263.5,-297 124.5,-297"/>
<text text-anchor="start" x="129.5" y="-306.2" font-family="Helvetica,sans-Serif" font-weight="bold" font-size="11.00">urn_material</text>
<text text-anchor="start" x="221.5" y="-305.2" font-family="Helvetica,sans-Serif" font-size="11.00">[table]</text>
<polygon fill="none" stroke="black" points="124.5,-275 124.5,-297 263.5,-297 263.5,-275 124.5,-275"/>
<image xlink:href="../../images/primaryKeys.png" width="11px" height="12px" preserveAspectRatio="xMinYMin meet" x="129.5" y="-292"/>
<text text-anchor="start" x="150.5" y="-283.2" font-family="Helvetica,sans-Serif" font-size="11.00">id</text>
<polygon fill="none" stroke="black" points="124.5,-257 124.5,-275 263.5,-275 263.5,-257 124.5,-257"/>
<text text-anchor="start" x="127.5" y="-263.2" font-family="Helvetica,sans-Serif" font-size="11.00">...</text>
<polygon fill="#ffffff" stroke="transparent" points="124.5,-239 124.5,-257 263.5,-257 263.5,-239 124.5,-239"/>
<polygon fill="none" stroke="black" points="124.5,-239 124.5,-257 263.5,-257 263.5,-239 124.5,-239"/>
<polygon fill="#ffffff" stroke="transparent" points="125.5,-240 125.5,-256 167.5,-256 167.5,-240 125.5,-240"/>
<text text-anchor="start" x="127.5" y="-245.2" font-family="Helvetica,sans-Serif" font-size="11.00"> &#160;</text>
<polygon fill="#ffffff" stroke="transparent" points="167.5,-240 167.5,-256 209.5,-256 209.5,-240 167.5,-240"/>
<text text-anchor="start" x="184.5" y="-245.2" font-family="Helvetica,sans-Serif" font-size="11.00"> &#160;</text>
<polygon fill="#ffffff" stroke="transparent" points="209.5,-240 209.5,-256 262.5,-256 262.5,-240 209.5,-240"/>
<text text-anchor="start" x="240.5" y="-245.2" font-family="Helvetica,sans-Serif" font-size="11.00">1 &gt;</text>
<polygon fill="black" stroke="black" points="167.5,-240 167.5,-256 167.5,-256 167.5,-240 167.5,-240"/>
<polygon fill="black" stroke="black" points="209.5,-240 209.5,-256 209.5,-256 209.5,-240 209.5,-240"/>
</a>
</g>
</g>
<!-- contact_kind -->
<g id="node8" class="node">
<title>contact_kind</title>
<g id="a_node8"><a xlink:href="../../tables/contact_kind.html" xlink:title="contact_kind" target="_top">
<polygon fill="#ffffff" stroke="transparent" points="530,-653 530,-733 669,-733 669,-653 530,-653"/>
<polygon fill="#f5f5f5" stroke="transparent" points="530.5,-711 530.5,-733 669.5,-733 669.5,-711 530.5,-711"/>
<polygon fill="none" stroke="black" points="530.5,-711 530.5,-733 669.5,-733 669.5,-711 530.5,-711"/>
<text text-anchor="start" x="535.5" y="-720.2" font-family="Helvetica,sans-Serif" font-weight="bold" font-size="11.00">contact_kind</text>
<text text-anchor="start" x="627.5" y="-719.2" font-family="Helvetica,sans-Serif" font-size="11.00">[table]</text>
<polygon fill="none" stroke="black" points="530.5,-689 530.5,-711 669.5,-711 669.5,-689 530.5,-689"/>
<image xlink:href="../../images/primaryKeys.png" width="11px" height="12px" preserveAspectRatio="xMinYMin meet" x="535.5" y="-706"/>
<text text-anchor="start" x="556.5" y="-697.2" font-family="Helvetica,sans-Serif" font-size="11.00">id</text>
<polygon fill="none" stroke="black" points="530.5,-671 530.5,-689 669.5,-689 669.5,-671 530.5,-671"/>
<text text-anchor="start" x="533.5" y="-677.2" font-family="Helvetica,sans-Serif" font-size="11.00">...</text>
<polygon fill="#ffffff" stroke="transparent" points="530.5,-653 530.5,-671 669.5,-671 669.5,-653 530.5,-653"/>
<polygon fill="none" stroke="black" points="530.5,-653 530.5,-671 669.5,-671 669.5,-653 530.5,-653"/>
<polygon fill="#ffffff" stroke="transparent" points="531.5,-654 531.5,-670 573.5,-670 573.5,-654 531.5,-654"/>
<text text-anchor="start" x="533.5" y="-659.2" font-family="Helvetica,sans-Serif" font-size="11.00"> &#160;</text>
<polygon fill="#ffffff" stroke="transparent" points="573.5,-654 573.5,-670 615.5,-670 615.5,-654 573.5,-654"/>
<text text-anchor="start" x="590.5" y="-659.2" font-family="Helvetica,sans-Serif" font-size="11.00"> &#160;</text>
<polygon fill="#ffffff" stroke="transparent" points="615.5,-654 615.5,-670 668.5,-670 668.5,-654 615.5,-654"/>
<text text-anchor="start" x="646.5" y="-659.2" font-family="Helvetica,sans-Serif" font-size="11.00">1 &gt;</text>
<polygon fill="black" stroke="black" points="573.5,-654 573.5,-670 573.5,-670 573.5,-654 573.5,-654"/>
<polygon fill="black" stroke="black" points="615.5,-654 615.5,-670 615.5,-670 615.5,-654 615.5,-654"/>
</a>
</g>
</g>
<!-- urn_shape -->
<g id="node9" class="node">
<title>urn_shape</title>
<g id="a_node9"><a xlink:href="../../tables/urn_shape.html" xlink:title="urn_shape" target="_top">
<polygon fill="#ffffff" stroke="transparent" points="129.5,-138 129.5,-218 257.5,-218 257.5,-138 129.5,-138"/>
<polygon fill="#f5f5f5" stroke="transparent" points="129.5,-196 129.5,-218 257.5,-218 257.5,-196 129.5,-196"/>
<polygon fill="none" stroke="black" points="129.5,-196 129.5,-218 257.5,-218 257.5,-196 129.5,-196"/>
<text text-anchor="start" x="134.5" y="-205.2" font-family="Helvetica,sans-Serif" font-weight="bold" font-size="11.00">urn_shape</text>
<text text-anchor="start" x="215.5" y="-204.2" font-family="Helvetica,sans-Serif" font-size="11.00">[table]</text>
<polygon fill="none" stroke="black" points="129.5,-174 129.5,-196 257.5,-196 257.5,-174 129.5,-174"/>
<image xlink:href="../../images/primaryKeys.png" width="11px" height="12px" preserveAspectRatio="xMinYMin meet" x="134.5" y="-191"/>
<text text-anchor="start" x="149.5" y="-182.2" font-family="Helvetica,sans-Serif" font-size="11.00">id</text>
<polygon fill="none" stroke="black" points="129.5,-156 129.5,-174 257.5,-174 257.5,-156 129.5,-156"/>
<text text-anchor="start" x="132.5" y="-162.2" font-family="Helvetica,sans-Serif" font-size="11.00">...</text>
<polygon fill="#ffffff" stroke="transparent" points="129.5,-138 129.5,-156 257.5,-156 257.5,-138 129.5,-138"/>
<polygon fill="none" stroke="black" points="129.5,-138 129.5,-156 257.5,-156 257.5,-138 129.5,-138"/>
<polygon fill="#ffffff" stroke="transparent" points="130.5,-139 130.5,-155 168.5,-155 168.5,-139 130.5,-139"/>
<text text-anchor="start" x="132.5" y="-144.2" font-family="Helvetica,sans-Serif" font-size="11.00"> &#160;</text>
<polygon fill="#ffffff" stroke="transparent" points="168.5,-139 168.5,-155 206.5,-155 206.5,-139 168.5,-139"/>
<text text-anchor="start" x="183.5" y="-144.2" font-family="Helvetica,sans-Serif" font-size="11.00"> &#160;</text>
<polygon fill="#ffffff" stroke="transparent" points="206.5,-139 206.5,-155 256.5,-155 256.5,-139 206.5,-139"/>
<text text-anchor="start" x="234.5" y="-144.2" font-family="Helvetica,sans-Serif" font-size="11.00">1 &gt;</text>
<polygon fill="black" stroke="black" points="168.5,-139 168.5,-155 168.5,-155 168.5,-139 168.5,-139"/>
<polygon fill="black" stroke="black" points="206.5,-139 206.5,-155 206.5,-155 206.5,-139 206.5,-139"/>
</a>
</g>
</g>
<!-- value_list_base -->
<g id="node10" class="node">
<title>value_list_base</title>
<g id="a_node10"><a xlink:href="../../tables/value_list_base.html" xlink:title="value_list_base" target="_top">
<polygon fill="#ffffff" stroke="transparent" points="8,-588 8,-668 165,-668 165,-588 8,-588"/>
<polygon fill="#f5f5f5" stroke="transparent" points="8.5,-646 8.5,-668 165.5,-668 165.5,-646 8.5,-646"/>
<polygon fill="none" stroke="black" points="8.5,-646 8.5,-668 165.5,-668 165.5,-646 8.5,-646"/>
<text text-anchor="start" x="13.5" y="-655.2" font-family="Helvetica,sans-Serif" font-weight="bold" font-size="11.00">value_list_base</text>
<text text-anchor="start" x="123.5" y="-654.2" font-family="Helvetica,sans-Serif" font-size="11.00">[table]</text>
<polygon fill="none" stroke="black" points="8.5,-624 8.5,-646 165.5,-646 165.5,-624 8.5,-624"/>
<image xlink:href="../../images/primaryKeys.png" width="11px" height="12px" preserveAspectRatio="xMinYMin meet" x="13.5" y="-641"/>
<text text-anchor="start" x="41.5" y="-632.2" font-family="Helvetica,sans-Serif" font-size="11.00">id</text>
<polygon fill="none" stroke="black" points="8.5,-606 8.5,-624 165.5,-624 165.5,-606 8.5,-606"/>
<text text-anchor="start" x="11.5" y="-612.2" font-family="Helvetica,sans-Serif" font-size="11.00">...</text>
<polygon fill="#ffffff" stroke="transparent" points="8.5,-588 8.5,-606 165.5,-606 165.5,-588 8.5,-588"/>
<polygon fill="none" stroke="black" points="8.5,-588 8.5,-606 165.5,-606 165.5,-588 8.5,-588"/>
<polygon fill="#ffffff" stroke="transparent" points="9.5,-589 9.5,-605 61.5,-605 61.5,-589 9.5,-589"/>
<text text-anchor="start" x="11.5" y="-594.2" font-family="Helvetica,sans-Serif" font-size="11.00"> &#160;</text>
<polygon fill="#ffffff" stroke="transparent" points="61.5,-589 61.5,-605 113.5,-605 113.5,-589 61.5,-589"/>
<text text-anchor="start" x="83.5" y="-594.2" font-family="Helvetica,sans-Serif" font-size="11.00"> &#160;</text>
<polygon fill="#ffffff" stroke="transparent" points="113.5,-589 113.5,-605 164.5,-605 164.5,-589 113.5,-589"/>
<text text-anchor="start" x="154.5" y="-594.2" font-family="Helvetica,sans-Serif" font-size="11.00"> &#160;</text>
<polygon fill="black" stroke="black" points="61.5,-589 61.5,-605 61.5,-605 61.5,-589 61.5,-589"/>
<polygon fill="black" stroke="black" points="113.5,-589 113.5,-605 113.5,-605 113.5,-589 113.5,-589"/>
</a>
</g>
</g>
<!-- unit_kind -->
<g id="node11" class="node">
<title>unit_kind</title>
<g id="a_node11"><a xlink:href="../../tables/unit_kind.html" xlink:title="unit_kind" target="_top">
<polygon fill="#ffffff" stroke="transparent" points="129.5,-340 129.5,-420 257.5,-420 257.5,-340 129.5,-340"/>
<polygon fill="#f5f5f5" stroke="transparent" points="129.5,-398 129.5,-420 257.5,-420 257.5,-398 129.5,-398"/>
<polygon fill="none" stroke="black" points="129.5,-398 129.5,-420 257.5,-420 257.5,-398 129.5,-398"/>
<text text-anchor="start" x="134.5" y="-407.2" font-family="Helvetica,sans-Serif" font-weight="bold" font-size="11.00">unit_kind</text>
<text text-anchor="start" x="215.5" y="-406.2" font-family="Helvetica,sans-Serif" font-size="11.00">[table]</text>
<polygon fill="none" stroke="black" points="129.5,-376 129.5,-398 257.5,-398 257.5,-376 129.5,-376"/>
<image xlink:href="../../images/primaryKeys.png" width="11px" height="12px" preserveAspectRatio="xMinYMin meet" x="134.5" y="-393"/>
<text text-anchor="start" x="149.5" y="-384.2" font-family="Helvetica,sans-Serif" font-size="11.00">id</text>
<polygon fill="none" stroke="black" points="129.5,-358 129.5,-376 257.5,-376 257.5,-358 129.5,-358"/>
<text text-anchor="start" x="132.5" y="-364.2" font-family="Helvetica,sans-Serif" font-size="11.00">...</text>
<polygon fill="#ffffff" stroke="transparent" points="129.5,-340 129.5,-358 257.5,-358 257.5,-340 129.5,-340"/>
<polygon fill="none" stroke="black" points="129.5,-340 129.5,-358 257.5,-358 257.5,-340 129.5,-340"/>
<polygon fill="#ffffff" stroke="transparent" points="130.5,-341 130.5,-357 168.5,-357 168.5,-341 130.5,-341"/>
<text text-anchor="start" x="132.5" y="-346.2" font-family="Helvetica,sans-Serif" font-size="11.00"> &#160;</text>
<polygon fill="#ffffff" stroke="transparent" points="168.5,-341 168.5,-357 206.5,-357 206.5,-341 168.5,-341"/>
<text text-anchor="start" x="183.5" y="-346.2" font-family="Helvetica,sans-Serif" font-size="11.00"> &#160;</text>
<polygon fill="#ffffff" stroke="transparent" points="206.5,-341 206.5,-357 256.5,-357 256.5,-341 206.5,-341"/>
<text text-anchor="start" x="234.5" y="-346.2" font-family="Helvetica,sans-Serif" font-size="11.00">1 &gt;</text>
<polygon fill="black" stroke="black" points="168.5,-341 168.5,-357 168.5,-357 168.5,-341 168.5,-341"/>
<polygon fill="black" stroke="black" points="206.5,-341 206.5,-357 206.5,-357 206.5,-341 206.5,-341"/>
</a>
</g>
</g>
<!-- tce_od.contact -->
<g id="node12" class="node">
<title>tce_od.contact</title>
<g id="a_node12"><a xlink:href="../../../tce_od/tables/contact.html" xlink:title="tce_od.contact" target="_top">
<polygon fill="#ffffff" stroke="transparent" points="741,-631 741,-733 913,-733 913,-631 741,-631"/>
<polygon fill="#f5f5f5" stroke="transparent" points="741,-711 741,-733 913,-733 913,-711 741,-711"/>
<polygon fill="none" stroke="black" points="741,-711 741,-733 913,-733 913,-711 741,-711"/>
<text text-anchor="start" x="746" y="-720.2" font-family="Helvetica,sans-Serif" font-weight="bold" font-size="11.00">tce_od.contact</text>
<text text-anchor="start" x="871" y="-719.2" font-family="Helvetica,sans-Serif" font-size="11.00">[table]</text>
<polygon fill="none" stroke="black" points="741,-689 741,-711 913,-711 913,-689 741,-689"/>
<image xlink:href="../../images/foreignKeys.png" width="11px" height="12px" preserveAspectRatio="xMinYMin meet" x="746" y="-706"/>
<text text-anchor="start" x="761" y="-697.2" font-family="Helvetica,sans-Serif" font-size="11.00">fk_kind</text>
<polygon fill="none" stroke="black" points="741,-667 741,-689 913,-689 913,-667 741,-667"/>
<image xlink:href="../../images/foreignKeys.png" width="11px" height="12px" preserveAspectRatio="xMinYMin meet" x="746" y="-684"/>
<text text-anchor="start" x="761" y="-675.2" font-family="Helvetica,sans-Serif" font-size="11.00">fk_civility</text>
<polygon fill="none" stroke="black" points="741,-649 741,-667 913,-667 913,-649 741,-649"/>
<text text-anchor="start" x="744" y="-655.2" font-family="Helvetica,sans-Serif" font-size="11.00">...</text>
<polygon fill="#ffffff" stroke="transparent" points="741,-631 741,-649 913,-649 913,-631 741,-631"/>
<polygon fill="none" stroke="black" points="741,-631 741,-649 913,-649 913,-631 741,-631"/>
<polygon fill="#ffffff" stroke="transparent" points="742,-632 742,-648 797,-648 797,-632 742,-632"/>
<text text-anchor="start" x="744" y="-637.2" font-family="Helvetica,sans-Serif" font-size="11.00">&lt; 2</text>
<polygon fill="#ffffff" stroke="transparent" points="797,-632 797,-648 869,-648 869,-632 797,-632"/>
<text text-anchor="start" x="814.5" y="-637.2" font-family="Helvetica,sans-Serif" font-size="11.00">0 rows</text>
<polygon fill="#ffffff" stroke="transparent" points="869,-632 869,-648 912,-648 912,-632 869,-632"/>
<text text-anchor="start" x="902" y="-637.2" font-family="Helvetica,sans-Serif" font-size="11.00"> &#160;</text>
<polygon fill="black" stroke="black" points="797,-632 797,-648 797,-648 797,-632 797,-632"/>
<polygon fill="black" stroke="black" points="869,-632 869,-648 869,-648 869,-632 869,-632"/>
</a>
</g>
</g>
<!-- tce_od.contact&#45;&gt;civility -->
<g id="edge1" class="edge">
<title>tce_od.contact:w&#45;&gt;civility:e</title>
<path fill="none" stroke="black" d="M725.57,-675.01C693.15,-659.39 711,-588 664.5,-588"/>
<polygon fill="black" stroke="black" points="732.17,-676.37 739.27,-681.52 736.08,-677.19 740,-678 740,-678 740,-678 736.08,-677.19 740.73,-674.48 732.17,-676.37 732.17,-676.37"/>
<ellipse fill="none" stroke="black" cx="729.03" cy="-675.72" rx="3.2" ry="3.2"/>
</g>
<!-- tce_od.contact&#45;&gt;contact_kind -->
<g id="edge2" class="edge">
<title>tce_od.contact:w&#45;&gt;contact_kind:e</title>
<path fill="none" stroke="black" d="M725.32,-700C705.59,-700 695.84,-700 670.5,-700"/>
<polygon fill="black" stroke="black" points="732,-700 740,-703.6 736,-700 740,-700 740,-700 740,-700 736,-700 740,-696.4 732,-700 732,-700"/>
<ellipse fill="none" stroke="black" cx="728.8" cy="-700" rx="3.2" ry="3.2"/>
</g>
<!-- tce_od.furniture -->
<g id="node13" class="node">
<title>tce_od.furniture</title>
<g id="a_node13"><a xlink:href="../../../tce_od/tables/furniture.html" xlink:title="tce_od.furniture" target="_top">
<polygon fill="#ffffff" stroke="transparent" points="729,-240 729,-320 894,-320 894,-240 729,-240"/>
<polygon fill="#f5f5f5" stroke="transparent" points="729.5,-298 729.5,-320 894.5,-320 894.5,-298 729.5,-298"/>
<polygon fill="none" stroke="black" points="729.5,-298 729.5,-320 894.5,-320 894.5,-298 729.5,-298"/>
<text text-anchor="start" x="734.5" y="-307.2" font-family="Helvetica,sans-Serif" font-weight="bold" font-size="11.00">tce_od.furniture</text>
<text text-anchor="start" x="852.5" y="-306.2" font-family="Helvetica,sans-Serif" font-size="11.00">[table]</text>
<polygon fill="none" stroke="black" points="729.5,-276 729.5,-298 894.5,-298 894.5,-276 729.5,-276"/>
<image xlink:href="../../images/foreignKeys.png" width="11px" height="12px" preserveAspectRatio="xMinYMin meet" x="734.5" y="-293"/>
<text text-anchor="start" x="786.5" y="-284.2" font-family="Helvetica,sans-Serif" font-size="11.00">fk_kind</text>
<polygon fill="none" stroke="black" points="729.5,-258 729.5,-276 894.5,-276 894.5,-258 729.5,-258"/>
<text text-anchor="start" x="732.5" y="-264.2" font-family="Helvetica,sans-Serif" font-size="11.00">...</text>
<polygon fill="#ffffff" stroke="transparent" points="729.5,-240 729.5,-258 894.5,-258 894.5,-240 729.5,-240"/>
<polygon fill="none" stroke="black" points="729.5,-240 729.5,-258 894.5,-258 894.5,-240 729.5,-240"/>
<polygon fill="#ffffff" stroke="transparent" points="730.5,-241 730.5,-257 783.5,-257 783.5,-241 730.5,-241"/>
<text text-anchor="start" x="732.5" y="-246.2" font-family="Helvetica,sans-Serif" font-size="11.00">&lt; 1</text>
<polygon fill="#ffffff" stroke="transparent" points="783.5,-241 783.5,-257 853.5,-257 853.5,-241 783.5,-241"/>
<text text-anchor="start" x="800" y="-246.2" font-family="Helvetica,sans-Serif" font-size="11.00">0 rows</text>
<polygon fill="#ffffff" stroke="transparent" points="853.5,-241 853.5,-257 893.5,-257 893.5,-241 853.5,-241"/>
<text text-anchor="start" x="883.5" y="-246.2" font-family="Helvetica,sans-Serif" font-size="11.00"> &#160;</text>
<polygon fill="black" stroke="black" points="783.5,-241 783.5,-257 783.5,-257 783.5,-241 783.5,-241"/>
<polygon fill="black" stroke="black" points="853.5,-241 853.5,-257 853.5,-257 853.5,-241 853.5,-241"/>
</a>
</g>
</g>
<!-- tce_od.furniture&#45;&gt;furniture_kind -->
<g id="edge5" class="edge">
<title>tce_od.furniture:w&#45;&gt;furniture_kind:e</title>
<path fill="none" stroke="black" d="M714.09,-287C703.32,-287 696.34,-287 681,-287"/>
<polygon fill="black" stroke="black" points="720.5,-287 728.5,-290.6 724.5,-287 728.5,-287 728.5,-287 728.5,-287 724.5,-287 728.5,-283.4 720.5,-287 720.5,-287"/>
<ellipse fill="none" stroke="black" cx="717.3" cy="-287" rx="3.2" ry="3.2"/>
</g>
<!-- tce_od.contract -->
<g id="node14" class="node">
<title>tce_od.contract</title>
<g id="a_node14"><a xlink:href="../../../tce_od/tables/contract.html" xlink:title="tce_od.contract" target="_top">
<polygon fill="#ffffff" stroke="transparent" points="725,-95 725,-175 885,-175 885,-95 725,-95"/>
<polygon fill="#f5f5f5" stroke="transparent" points="725,-153 725,-175 885,-175 885,-153 725,-153"/>
<polygon fill="none" stroke="black" points="725,-153 725,-175 885,-175 885,-153 725,-153"/>
<text text-anchor="start" x="730" y="-162.2" font-family="Helvetica,sans-Serif" font-weight="bold" font-size="11.00">tce_od.contract</text>
<text text-anchor="start" x="843" y="-161.2" font-family="Helvetica,sans-Serif" font-size="11.00">[table]</text>
<polygon fill="none" stroke="black" points="725,-131 725,-153 885,-153 885,-131 725,-131"/>
<image xlink:href="../../images/foreignKeys.png" width="11px" height="12px" preserveAspectRatio="xMinYMin meet" x="730" y="-148"/>
<text text-anchor="start" x="746" y="-139.2" font-family="Helvetica,sans-Serif" font-size="11.00">fk_kind</text>
<polygon fill="none" stroke="black" points="725,-113 725,-131 885,-131 885,-113 725,-113"/>
<text text-anchor="start" x="728" y="-119.2" font-family="Helvetica,sans-Serif" font-size="11.00">...</text>
<polygon fill="#ffffff" stroke="transparent" points="725,-95 725,-113 885,-113 885,-95 725,-95"/>
<polygon fill="none" stroke="black" points="725,-95 725,-113 885,-113 885,-95 725,-95"/>
<polygon fill="#ffffff" stroke="transparent" points="726,-96 726,-112 777,-112 777,-96 726,-96"/>
<text text-anchor="start" x="728" y="-101.2" font-family="Helvetica,sans-Serif" font-size="11.00">&lt; 1</text>
<polygon fill="#ffffff" stroke="transparent" points="777,-96 777,-112 845,-112 845,-96 777,-96"/>
<text text-anchor="start" x="792.5" y="-101.2" font-family="Helvetica,sans-Serif" font-size="11.00">0 rows</text>
<polygon fill="#ffffff" stroke="transparent" points="845,-96 845,-112 884,-112 884,-96 845,-96"/>
<text text-anchor="start" x="874" y="-101.2" font-family="Helvetica,sans-Serif" font-size="11.00"> &#160;</text>
<polygon fill="black" stroke="black" points="777,-96 777,-112 777,-112 777,-96 777,-96"/>
<polygon fill="black" stroke="black" points="845,-96 845,-112 845,-112 845,-96 845,-96"/>
</a>
</g>
</g>
<!-- tce_od.contract&#45;&gt;contract_kind -->
<g id="edge3" class="edge">
<title>tce_od.contract:w&#45;&gt;contract_kind:e</title>
<path fill="none" stroke="black" d="M709.4,-142C698.93,-142 692.01,-142 677,-142"/>
<polygon fill="black" stroke="black" points="716,-142 724,-145.6 720,-142 724,-142 724,-142 724,-142 720,-142 724,-138.4 716,-142 716,-142"/>
<ellipse fill="none" stroke="black" cx="712.8" cy="-142" rx="3.2" ry="3.2"/>
</g>
<!-- tce_od.deceased -->
<g id="node15" class="node">
<title>tce_od.deceased</title>
<g id="a_node15"><a xlink:href="../../../tce_od/tables/deceased.html" xlink:title="tce_od.deceased" target="_top">
<polygon fill="#ffffff" stroke="transparent" points="718,-530 718,-610 936,-610 936,-530 718,-530"/>
<polygon fill="#f5f5f5" stroke="transparent" points="718,-588 718,-610 936,-610 936,-588 718,-588"/>
<polygon fill="none" stroke="black" points="718,-588 718,-610 936,-610 936,-588 718,-588"/>
<text text-anchor="start" x="723" y="-597.2" font-family="Helvetica,sans-Serif" font-weight="bold" font-size="11.00">tce_od.deceased</text>
<text text-anchor="start" x="894" y="-596.2" font-family="Helvetica,sans-Serif" font-size="11.00">[table]</text>
<polygon fill="none" stroke="black" points="718,-566 718,-588 936,-588 936,-566 718,-566"/>
<image xlink:href="../../images/foreignKeys.png" width="11px" height="12px" preserveAspectRatio="xMinYMin meet" x="723" y="-583"/>
<text text-anchor="start" x="738" y="-574.2" font-family="Helvetica,sans-Serif" font-size="11.00">fk_civility</text>
<polygon fill="none" stroke="black" points="718,-548 718,-566 936,-566 936,-548 718,-548"/>
<text text-anchor="start" x="721" y="-554.2" font-family="Helvetica,sans-Serif" font-size="11.00">...</text>
<polygon fill="#ffffff" stroke="transparent" points="718,-530 718,-548 936,-548 936,-530 718,-530"/>
<polygon fill="none" stroke="black" points="718,-530 718,-548 936,-548 936,-530 718,-530"/>
<polygon fill="#ffffff" stroke="transparent" points="719,-531 719,-547 790,-547 790,-531 719,-531"/>
<text text-anchor="start" x="721" y="-536.2" font-family="Helvetica,sans-Serif" font-size="11.00">&lt; 1</text>
<polygon fill="#ffffff" stroke="transparent" points="790,-531 790,-547 877,-547 877,-531 790,-531"/>
<text text-anchor="start" x="815" y="-536.2" font-family="Helvetica,sans-Serif" font-size="11.00">0 rows</text>
<polygon fill="#ffffff" stroke="transparent" points="877,-531 877,-547 935,-547 935,-531 877,-531"/>
<text text-anchor="start" x="925" y="-536.2" font-family="Helvetica,sans-Serif" font-size="11.00"> &#160;</text>
<polygon fill="black" stroke="black" points="790,-531 790,-547 790,-547 790,-531 790,-531"/>
<polygon fill="black" stroke="black" points="877,-531 877,-547 877,-547 877,-531 877,-531"/>
</a>
</g>
</g>
<!-- tce_od.deceased&#45;&gt;civility -->
<g id="edge4" class="edge">
<title>tce_od.deceased:w&#45;&gt;civility:e</title>
<path fill="none" stroke="black" d="M702.49,-578.62C689.71,-581.68 682.57,-588 664.5,-588"/>
<polygon fill="black" stroke="black" points="709.05,-577.89 717.4,-580.58 713.02,-577.44 717,-577 717,-577 717,-577 713.02,-577.44 716.6,-573.42 709.05,-577.89 709.05,-577.89"/>
<ellipse fill="none" stroke="black" cx="705.87" cy="-578.24" rx="3.2" ry="3.2"/>
</g>
<!-- tce_od.vegetation -->
<g id="node16" class="node">
<title>tce_od.vegetation</title>
<g id="a_node16"><a xlink:href="../../../tce_od/tables/vegetation.html" xlink:title="tce_od.vegetation" target="_top">
<polygon fill="#ffffff" stroke="transparent" points="743,-385 743,-465 921,-465 921,-385 743,-385"/>
<polygon fill="#f5f5f5" stroke="transparent" points="743,-443 743,-465 921,-465 921,-443 743,-443"/>
<polygon fill="none" stroke="black" points="743,-443 743,-465 921,-465 921,-443 743,-443"/>
<text text-anchor="start" x="748" y="-452.2" font-family="Helvetica,sans-Serif" font-weight="bold" font-size="11.00">tce_od.vegetation</text>
<text text-anchor="start" x="879" y="-451.2" font-family="Helvetica,sans-Serif" font-size="11.00">[table]</text>
<polygon fill="none" stroke="black" points="743,-421 743,-443 921,-443 921,-421 743,-421"/>
<image xlink:href="../../images/foreignKeys.png" width="11px" height="12px" preserveAspectRatio="xMinYMin meet" x="748" y="-438"/>
<text text-anchor="start" x="802" y="-429.2" font-family="Helvetica,sans-Serif" font-size="11.00">fk_kind</text>
<polygon fill="none" stroke="black" points="743,-403 743,-421 921,-421 921,-403 743,-403"/>
<text text-anchor="start" x="746" y="-409.2" font-family="Helvetica,sans-Serif" font-size="11.00">...</text>
<polygon fill="#ffffff" stroke="transparent" points="743,-385 743,-403 921,-403 921,-385 743,-385"/>
<polygon fill="none" stroke="black" points="743,-385 743,-403 921,-403 921,-385 743,-385"/>
<polygon fill="#ffffff" stroke="transparent" points="744,-386 744,-402 801,-402 801,-386 744,-386"/>
<text text-anchor="start" x="746" y="-391.2" font-family="Helvetica,sans-Serif" font-size="11.00">&lt; 1</text>
<polygon fill="#ffffff" stroke="transparent" points="801,-386 801,-402 875,-402 875,-386 801,-386"/>
<text text-anchor="start" x="819.5" y="-391.2" font-family="Helvetica,sans-Serif" font-size="11.00">0 rows</text>
<polygon fill="#ffffff" stroke="transparent" points="875,-386 875,-402 920,-402 920,-386 875,-386"/>
<text text-anchor="start" x="910" y="-391.2" font-family="Helvetica,sans-Serif" font-size="11.00"> &#160;</text>
<polygon fill="black" stroke="black" points="801,-386 801,-402 801,-402 801,-386 801,-386"/>
<polygon fill="black" stroke="black" points="875,-386 875,-402 875,-402 875,-386 875,-386"/>
</a>
</g>
</g>
<!-- tce_od.vegetation&#45;&gt;vegetation_kind -->
<g id="edge11" class="edge">
<title>tce_od.vegetation:w&#45;&gt;vegetation_kind:e</title>
<path fill="none" stroke="black" d="M727.4,-432C716.93,-432 710.01,-432 695,-432"/>
<polygon fill="black" stroke="black" points="734,-432 742,-435.6 738,-432 742,-432 742,-432 742,-432 738,-432 742,-428.4 734,-432 734,-432"/>
<ellipse fill="none" stroke="black" cx="730.8" cy="-432" rx="3.2" ry="3.2"/>
</g>
<!-- tce_od.unit -->
<g id="node17" class="node">
<title>tce_od.unit</title>
<g id="a_node17"><a xlink:href="../../../tce_od/tables/unit.html" xlink:title="tce_od.unit" target="_top">
<polygon fill="#ffffff" stroke="transparent" points="312,-195 312,-363 465,-363 465,-195 312,-195"/>
<polygon fill="#f5f5f5" stroke="transparent" points="312.5,-341 312.5,-363 465.5,-363 465.5,-341 312.5,-341"/>
<polygon fill="none" stroke="black" points="312.5,-341 312.5,-363 465.5,-363 465.5,-341 312.5,-341"/>
<text text-anchor="start" x="317.5" y="-350.2" font-family="Helvetica,sans-Serif" font-weight="bold" font-size="11.00">tce_od.unit</text>
<text text-anchor="start" x="423.5" y="-349.2" font-family="Helvetica,sans-Serif" font-size="11.00">[table]</text>
<polygon fill="none" stroke="black" points="312.5,-319 312.5,-341 465.5,-341 465.5,-319 312.5,-319"/>
<image xlink:href="../../images/foreignKeys.png" width="11px" height="12px" preserveAspectRatio="xMinYMin meet" x="317.5" y="-336"/>
<text text-anchor="start" x="332.5" y="-327.2" font-family="Helvetica,sans-Serif" font-size="11.00">fk_size</text>
<polygon fill="none" stroke="black" points="312.5,-297 312.5,-319 465.5,-319 465.5,-297 312.5,-297"/>
<image xlink:href="../../images/foreignKeys.png" width="11px" height="12px" preserveAspectRatio="xMinYMin meet" x="317.5" y="-314"/>
<text text-anchor="start" x="332.5" y="-305.2" font-family="Helvetica,sans-Serif" font-size="11.00">fk_kind</text>
<polygon fill="none" stroke="black" points="312.5,-275 312.5,-297 465.5,-297 465.5,-275 312.5,-275"/>
<image xlink:href="../../images/foreignKeys.png" width="11px" height="12px" preserveAspectRatio="xMinYMin meet" x="317.5" y="-292"/>
<text text-anchor="start" x="332.5" y="-283.2" font-family="Helvetica,sans-Serif" font-size="11.00">fk_urn_material</text>
<polygon fill="none" stroke="black" points="312.5,-253 312.5,-275 465.5,-275 465.5,-253 312.5,-253"/>
<image xlink:href="../../images/foreignKeys.png" width="11px" height="12px" preserveAspectRatio="xMinYMin meet" x="317.5" y="-270"/>
<text text-anchor="start" x="332.5" y="-261.2" font-family="Helvetica,sans-Serif" font-size="11.00">fk_urn_shape</text>
<polygon fill="none" stroke="black" points="312.5,-231 312.5,-253 465.5,-253 465.5,-231 312.5,-231"/>
<image xlink:href="../../images/foreignKeys.png" width="11px" height="12px" preserveAspectRatio="xMinYMin meet" x="317.5" y="-248"/>
<text text-anchor="start" x="332.5" y="-239.2" font-family="Helvetica,sans-Serif" font-size="11.00">fk_control</text>
<polygon fill="none" stroke="black" points="312.5,-213 312.5,-231 465.5,-231 465.5,-213 312.5,-213"/>
<text text-anchor="start" x="315.5" y="-219.2" font-family="Helvetica,sans-Serif" font-size="11.00">...</text>
<polygon fill="#ffffff" stroke="transparent" points="312.5,-195 312.5,-213 465.5,-213 465.5,-195 312.5,-195"/>
<polygon fill="none" stroke="black" points="312.5,-195 312.5,-213 465.5,-213 465.5,-195 312.5,-195"/>
<polygon fill="#ffffff" stroke="transparent" points="313.5,-196 313.5,-212 362.5,-212 362.5,-196 313.5,-196"/>
<text text-anchor="start" x="315.5" y="-201.2" font-family="Helvetica,sans-Serif" font-size="11.00">&lt; 5</text>
<polygon fill="#ffffff" stroke="transparent" points="362.5,-196 362.5,-212 428.5,-212 428.5,-196 362.5,-196"/>
<text text-anchor="start" x="377" y="-201.2" font-family="Helvetica,sans-Serif" font-size="11.00">0 rows</text>
<polygon fill="#ffffff" stroke="transparent" points="428.5,-196 428.5,-212 464.5,-212 464.5,-196 428.5,-196"/>
<text text-anchor="start" x="454.5" y="-201.2" font-family="Helvetica,sans-Serif" font-size="11.00"> &#160;</text>
<polygon fill="black" stroke="black" points="362.5,-196 362.5,-212 362.5,-212 362.5,-196 362.5,-196"/>
<polygon fill="black" stroke="black" points="428.5,-196 428.5,-212 428.5,-212 428.5,-196 428.5,-196"/>
</a>
</g>
</g>
<!-- tce_od.unit&#45;&gt;control_kind -->
<g id="edge6" class="edge">
<title>tce_od.unit:w&#45;&gt;control_kind:e</title>
<path fill="none" stroke="black" d="M297.29,-239.26C252.49,-218.28 331.16,-84 263.5,-84"/>
<polygon fill="black" stroke="black" points="303.64,-240.48 310.82,-245.53 307.57,-241.24 311.5,-242 311.5,-242 311.5,-242 307.57,-241.24 312.18,-238.47 303.64,-240.48 303.64,-240.48"/>
<ellipse fill="none" stroke="black" cx="300.5" cy="-239.88" rx="3.2" ry="3.2"/>
</g>
<!-- tce_od.unit&#45;&gt;unit_size -->
<g id="edge8" class="edge">
<title>tce_od.unit:w&#45;&gt;unit_size:e</title>
<path fill="none" stroke="black" d="M297.08,-332.74C251.26,-353.72 326.78,-488 258.5,-488"/>
<polygon fill="black" stroke="black" points="303.64,-331.49 312.17,-333.54 307.57,-330.75 311.5,-330 311.5,-330 311.5,-330 307.57,-330.75 310.83,-326.46 303.64,-331.49 303.64,-331.49"/>
<ellipse fill="none" stroke="black" cx="300.5" cy="-332.09" rx="3.2" ry="3.2"/>
</g>
<!-- tce_od.unit&#45;&gt;urn_material -->
<g id="edge9" class="edge">
<title>tce_od.unit:w&#45;&gt;urn_material:e</title>
<path fill="none" stroke="black" d="M296.9,-286C286.43,-286 279.51,-286 264.5,-286"/>
<polygon fill="black" stroke="black" points="303.5,-286 311.5,-289.6 307.5,-286 311.5,-286 311.5,-286 311.5,-286 307.5,-286 311.5,-282.4 303.5,-286 303.5,-286"/>
<ellipse fill="none" stroke="black" cx="300.3" cy="-286" rx="3.2" ry="3.2"/>
</g>
<!-- tce_od.unit&#45;&gt;urn_shape -->
<g id="edge10" class="edge">
<title>tce_od.unit:w&#45;&gt;urn_shape:e</title>
<path fill="none" stroke="black" d="M297.63,-259.75C276.64,-243.34 294.83,-185 258.5,-185"/>
<polygon fill="black" stroke="black" points="303.85,-261.66 310.45,-267.44 307.68,-262.83 311.5,-264 311.5,-264 311.5,-264 307.68,-262.83 312.55,-260.56 303.85,-261.66 303.85,-261.66"/>
<ellipse fill="none" stroke="black" cx="300.79" cy="-260.72" rx="3.2" ry="3.2"/>
</g>
<!-- tce_od.unit&#45;&gt;unit_kind -->
<g id="edge7" class="edge">
<title>tce_od.unit:w&#45;&gt;unit_kind:e</title>
<path fill="none" stroke="black" d="M297.63,-312.25C276.64,-328.66 294.83,-387 258.5,-387"/>
<polygon fill="black" stroke="black" points="303.85,-310.34 312.55,-311.44 307.68,-309.17 311.5,-308 311.5,-308 311.5,-308 307.68,-309.17 310.45,-304.56 303.85,-310.34 303.85,-310.34"/>
<ellipse fill="none" stroke="black" cx="300.79" cy="-311.28" rx="3.2" ry="3.2"/>
</g>
</g>
</svg>
