<?xml version="1.0" encoding="UTF-8" standalone="no"?>
<!DOCTYPE svg PUBLIC "-//W3C//DTD SVG 1.1//EN"
 "http://www.w3.org/Graphics/SVG/1.1/DTD/svg11.dtd">
<!-- Generated by graphviz version 2.43.0 (0)
 -->
<!-- Title: oneDegreeRelationshipsDiagram Pages: 1 -->
<svg width="655pt" height="470pt"
 viewBox="0.00 0.00 655.00 469.98" xmlns="http://www.w3.org/2000/svg" xmlns:xlink="http://www.w3.org/1999/xlink">
<g id="graph0" class="graph" transform="scale(1 1) rotate(0) translate(4 465.98)">
<title>oneDegreeRelationshipsDiagram</title>
<polygon fill="#ffffff" stroke="transparent" points="-4,4 -4,-465.98 651,-465.98 651,4 -4,4"/>
<text text-anchor="middle" x="79.5" y="-7.2" font-family="Helvetica,sans-Serif" font-size="11.00">Generated by SchemaSpy</text>
<!-- file -->
<g id="node1" class="node">
<title>file</title>
<g id="a_node1"><a xlink:href="../../tables/file.html" xlink:title="file" target="_top">
<polygon fill="#ffffff" stroke="transparent" points="499,-179.98 499,-457.98 639,-457.98 639,-179.98 499,-179.98"/>
<polygon fill="#f5f5f5" stroke="transparent" points="499,-435.98 499,-457.98 639,-457.98 639,-435.98 499,-435.98"/>
<polygon fill="none" stroke="black" points="499,-435.98 499,-457.98 639,-457.98 639,-435.98 499,-435.98"/>
<text text-anchor="start" x="503.5" y="-445.18" font-family="Helvetica,sans-Serif" font-weight="bold" font-size="11.00">file</text>
<text text-anchor="start" x="597" y="-444.18" font-family="Helvetica,sans-Serif" font-size="11.00">[table]</text>
<polygon fill="none" stroke="black" points="499,-413.98 499,-435.98 639,-435.98 639,-413.98 499,-413.98"/>
<image xlink:href="../../images/primaryKeys.png" width="11px" height="12px" preserveAspectRatio="xMinYMin meet" x="504" y="-430.981"/>
<text text-anchor="start" x="519" y="-422.18" font-family="Helvetica,sans-Serif" font-size="11.00">id</text>
<polygon fill="none" stroke="black" points="499,-391.98 499,-413.98 639,-413.98 639,-391.98 499,-391.98"/>
<image xlink:href="../../images/foreignKeys.png" width="11px" height="12px" preserveAspectRatio="xMinYMin meet" x="504" y="-408.981"/>
<text text-anchor="start" x="519" y="-400.18" font-family="Helvetica,sans-Serif" font-size="11.00">cemetery_ref</text>
<polygon fill="none" stroke="black" points="499,-369.98 499,-391.98 639,-391.98 639,-369.98 499,-369.98"/>
<image xlink:href="../../images/foreignKeys.png" width="11px" height="12px" preserveAspectRatio="xMinYMin meet" x="504" y="-386.981"/>
<text text-anchor="start" x="519" y="-378.18" font-family="Helvetica,sans-Serif" font-size="11.00">contact_ref</text>
<polygon fill="none" stroke="black" points="499,-347.98 499,-369.98 639,-369.98 639,-347.98 499,-347.98"/>
<image xlink:href="../../images/foreignKeys.png" width="11px" height="12px" preserveAspectRatio="xMinYMin meet" x="504" y="-364.981"/>
<text text-anchor="start" x="519" y="-356.18" font-family="Helvetica,sans-Serif" font-size="11.00">contract_ref</text>
<polygon fill="none" stroke="black" points="499,-325.98 499,-347.98 639,-347.98 639,-325.98 499,-325.98"/>
<image xlink:href="../../images/foreignKeys.png" width="11px" height="12px" preserveAspectRatio="xMinYMin meet" x="504" y="-342.981"/>
<text text-anchor="start" x="519" y="-334.18" font-family="Helvetica,sans-Serif" font-size="11.00">deceased_ref</text>
<polygon fill="none" stroke="black" points="499,-303.98 499,-325.98 639,-325.98 639,-303.98 499,-303.98"/>
<image xlink:href="../../images/foreignKeys.png" width="11px" height="12px" preserveAspectRatio="xMinYMin meet" x="504" y="-320.981"/>
<text text-anchor="start" x="519" y="-312.18" font-family="Helvetica,sans-Serif" font-size="11.00">furniture_ref</text>
<polygon fill="none" stroke="black" points="499,-281.98 499,-303.98 639,-303.98 639,-281.98 499,-281.98"/>
<image xlink:href="../../images/foreignKeys.png" width="11px" height="12px" preserveAspectRatio="xMinYMin meet" x="504" y="-298.981"/>
<text text-anchor="start" x="519" y="-290.18" font-family="Helvetica,sans-Serif" font-size="11.00">organisation_ref</text>
<polygon fill="none" stroke="black" points="499,-259.98 499,-281.98 639,-281.98 639,-259.98 499,-259.98"/>
<image xlink:href="../../images/foreignKeys.png" width="11px" height="12px" preserveAspectRatio="xMinYMin meet" x="504" y="-276.981"/>
<text text-anchor="start" x="519" y="-268.18" font-family="Helvetica,sans-Serif" font-size="11.00">sector_ref</text>
<polygon fill="none" stroke="black" points="499,-237.98 499,-259.98 639,-259.98 639,-237.98 499,-237.98"/>
<image xlink:href="../../images/foreignKeys.png" width="11px" height="12px" preserveAspectRatio="xMinYMin meet" x="504" y="-254.981"/>
<text text-anchor="start" x="519" y="-246.18" font-family="Helvetica,sans-Serif" font-size="11.00">unit_ref</text>
<polygon fill="none" stroke="black" points="499,-215.98 499,-237.98 639,-237.98 639,-215.98 499,-215.98"/>
<image xlink:href="../../images/foreignKeys.png" width="11px" height="12px" preserveAspectRatio="xMinYMin meet" x="504" y="-232.981"/>
<text text-anchor="start" x="519" y="-224.18" font-family="Helvetica,sans-Serif" font-size="11.00">vegetation_ref</text>
<polygon fill="none" stroke="black" points="499,-197.98 499,-215.98 639,-215.98 639,-197.98 499,-197.98"/>
<text text-anchor="start" x="502" y="-204.18" font-family="Helvetica,sans-Serif" font-size="11.00">...</text>
<polygon fill="#ffffff" stroke="transparent" points="499,-179.98 499,-197.98 639,-197.98 639,-179.98 499,-179.98"/>
<polygon fill="none" stroke="black" points="499,-179.98 499,-197.98 639,-197.98 639,-179.98 499,-179.98"/>
<polygon fill="#ffffff" stroke="transparent" points="500,-180.98 500,-196.98 554,-196.98 554,-180.98 500,-180.98"/>
<text text-anchor="start" x="502" y="-186.18" font-family="Helvetica,sans-Serif" font-size="11.00">&lt; 9</text>
<polygon fill="#ffffff" stroke="transparent" points="554,-180.98 554,-196.98 596,-196.98 596,-180.98 554,-180.98"/>
<text text-anchor="start" x="571" y="-186.18" font-family="Helvetica,sans-Serif" font-size="11.00"> &#160;</text>
<polygon fill="#ffffff" stroke="transparent" points="596,-180.98 596,-196.98 638,-196.98 638,-180.98 596,-180.98"/>
<text text-anchor="start" x="628" y="-186.18" font-family="Helvetica,sans-Serif" font-size="11.00"> &#160;</text>
<polygon fill="black" stroke="black" points="554,-180.98 554,-196.98 554,-196.98 554,-180.98 554,-180.98"/>
<polygon fill="black" stroke="black" points="596,-180.98 596,-196.98 596,-196.98 596,-180.98 596,-180.98"/>
</a>
</g>
</g>
<!-- cemetery -->
<g id="node2" class="node">
<title>cemetery</title>
<g id="a_node2"><a xlink:href="../../tables/cemetery.html" xlink:title="cemetery" target="_top">
<polygon fill="#ffffff" stroke="transparent" points="8,-138.98 8,-292.98 248,-292.98 248,-138.98 8,-138.98"/>
<polygon fill="#f5f5f5" stroke="transparent" points="10,-268.98 10,-290.98 246,-290.98 246,-268.98 10,-268.98"/>
<polygon fill="none" stroke="black" points="10,-268.98 10,-290.98 246,-290.98 246,-268.98 10,-268.98"/>
<text text-anchor="start" x="15" y="-278.18" font-family="Helvetica,sans-Serif" font-weight="bold" font-size="11.00">cemetery</text>
<text text-anchor="start" x="204" y="-277.18" font-family="Helvetica,sans-Serif" font-size="11.00">[table]</text>
<polygon fill="none" stroke="black" points="10,-246.98 10,-268.98 110,-268.98 110,-246.98 10,-246.98"/>
<image xlink:href="../../images/primaryKeys.png" width="11px" height="12px" preserveAspectRatio="xMinYMin meet" x="15" y="-263.981"/>
<text text-anchor="start" x="30" y="-255.18" font-family="Helvetica,sans-Serif" font-size="11.00">id</text>
<polygon fill="none" stroke="black" points="110,-246.98 110,-268.98 246,-268.98 246,-246.98 110,-246.98"/>
<text text-anchor="start" x="113" y="-255.18" font-family="Helvetica,sans-Serif" font-size="11.00">uuid[2147483647]</text>
<polygon fill="none" stroke="black" points="10,-224.98 10,-246.98 110,-246.98 110,-224.98 10,-224.98"/>
<text text-anchor="start" x="30" y="-233.18" font-family="Helvetica,sans-Serif" font-size="11.00">identifier</text>
<polygon fill="none" stroke="black" points="110,-224.98 110,-246.98 246,-246.98 246,-224.98 110,-224.98"/>
<text text-anchor="start" x="113" y="-233.18" font-family="Helvetica,sans-Serif" font-size="11.00">text[2147483647]</text>
<polygon fill="none" stroke="black" points="10,-202.98 10,-224.98 110,-224.98 110,-202.98 10,-202.98"/>
<text text-anchor="start" x="30" y="-211.18" font-family="Helvetica,sans-Serif" font-size="11.00">remark</text>
<polygon fill="none" stroke="black" points="110,-202.98 110,-224.98 246,-224.98 246,-202.98 110,-202.98"/>
<text text-anchor="start" x="113" y="-211.18" font-family="Helvetica,sans-Serif" font-size="11.00">text[2147483647]</text>
<polygon fill="none" stroke="black" points="10,-180.98 10,-202.98 110,-202.98 110,-180.98 10,-180.98"/>
<text text-anchor="start" x="30" y="-189.18" font-family="Helvetica,sans-Serif" font-size="11.00">the_geom</text>
<polygon fill="none" stroke="black" points="110,-180.98 110,-202.98 246,-202.98 246,-180.98 110,-180.98"/>
<text text-anchor="start" x="113" y="-189.18" font-family="Helvetica,sans-Serif" font-size="11.00">geometry[2147483647]</text>
<polygon fill="none" stroke="black" points="10,-158.98 10,-180.98 110,-180.98 110,-158.98 10,-158.98"/>
<text text-anchor="start" x="30" y="-167.18" font-family="Helvetica,sans-Serif" font-size="11.00">display_txt</text>
<polygon fill="none" stroke="black" points="110,-158.98 110,-180.98 246,-180.98 246,-158.98 110,-158.98"/>
<text text-anchor="start" x="113" y="-167.18" font-family="Helvetica,sans-Serif" font-size="11.00">text[2147483647]</text>
<polygon fill="#ffffff" stroke="transparent" points="10,-140.98 10,-158.98 246,-158.98 246,-140.98 10,-140.98"/>
<polygon fill="none" stroke="black" points="10,-140.98 10,-158.98 246,-158.98 246,-140.98 10,-140.98"/>
<polygon fill="#ffffff" stroke="transparent" points="11,-141.98 11,-157.98 93,-157.98 93,-141.98 11,-141.98"/>
<text text-anchor="start" x="13" y="-147.18" font-family="Helvetica,sans-Serif" font-size="11.00">&lt; 0</text>
<polygon fill="#ffffff" stroke="transparent" points="93,-141.98 93,-157.98 163,-157.98 163,-141.98 93,-141.98"/>
<text text-anchor="start" x="124" y="-147.18" font-family="Helvetica,sans-Serif" font-size="11.00"> &#160;</text>
<polygon fill="#ffffff" stroke="transparent" points="163,-141.98 163,-157.98 245,-157.98 245,-141.98 163,-141.98"/>
<text text-anchor="start" x="223" y="-147.18" font-family="Helvetica,sans-Serif" font-size="11.00">3 &gt;</text>
<polygon fill="black" stroke="black" points="93,-141.98 93,-157.98 93,-157.98 93,-141.98 93,-141.98"/>
<polygon fill="black" stroke="black" points="163,-141.98 163,-157.98 163,-157.98 163,-141.98 163,-141.98"/>
<polygon fill="none" stroke="black" stroke-width="2" points="9,-139.98 9,-291.98 247,-291.98 247,-139.98 9,-139.98"/>
</a>
</g>
</g>
<!-- file&#45;&gt;cemetery -->
<g id="edge1" class="edge">
<title>file:w&#45;&gt;cemetery:e</title>
<path fill="none" stroke="black" d="M483.43,-403.34C400.27,-407.44 358.44,-444.15 289,-389.98 240.46,-352.12 308.56,-257.98 247,-257.98"/>
<polygon fill="black" stroke="black" points="490,-403.18 498.09,-406.58 494,-403.08 498,-402.98 498,-402.98 498,-402.98 494,-403.08 497.91,-399.38 490,-403.18 490,-403.18"/>
<ellipse fill="none" stroke="black" cx="486.8" cy="-403.26" rx="3.2" ry="3.2"/>
</g>
<!-- file&#45;&gt;cemetery -->
<g id="edge3" class="edge">
<title>file:w&#45;&gt;cemetery:e</title>
<path fill="none" stroke="black" d="M483.47,-224.88C438.65,-209.14 510.87,-109.2 458,-67.98 398.76,-21.8 347.56,-20.95 289,-67.98 221.57,-122.13 333.48,-257.98 247,-257.98"/>
<polygon fill="black" stroke="black" points="490.08,-225.84 497.48,-230.54 494.04,-226.41 498,-226.98 498,-226.98 498,-226.98 494.04,-226.41 498.52,-223.42 490.08,-225.84 490.08,-225.84"/>
<ellipse fill="none" stroke="black" cx="486.92" cy="-225.38" rx="3.2" ry="3.2"/>
</g>
<!-- unit -->
<g id="node3" class="node">
<title>unit</title>
<g id="a_node3"><a xlink:href="../../tables/unit.html" xlink:title="unit" target="_top">
<polygon fill="#ffffff" stroke="transparent" points="297,-78.98 297,-378.98 450,-378.98 450,-78.98 297,-78.98"/>
<polygon fill="#f5f5f5" stroke="transparent" points="297.5,-356.98 297.5,-378.98 450.5,-378.98 450.5,-356.98 297.5,-356.98"/>
<polygon fill="none" stroke="black" points="297.5,-356.98 297.5,-378.98 450.5,-378.98 450.5,-356.98 297.5,-356.98"/>
<text text-anchor="start" x="302.5" y="-366.18" font-family="Helvetica,sans-Serif" font-weight="bold" font-size="11.00">unit</text>
<text text-anchor="start" x="408.5" y="-365.18" font-family="Helvetica,sans-Serif" font-size="11.00">[table]</text>
<polygon fill="none" stroke="black" points="297.5,-334.98 297.5,-356.98 450.5,-356.98 450.5,-334.98 297.5,-334.98"/>
<image xlink:href="../../images/primaryKeys.png" width="11px" height="12px" preserveAspectRatio="xMinYMin meet" x="302.5" y="-351.981"/>
<text text-anchor="start" x="317.5" y="-343.18" font-family="Helvetica,sans-Serif" font-size="11.00">id</text>
<polygon fill="#ffffff" stroke="transparent" points="297.5,-312.98 297.5,-334.98 450.5,-334.98 450.5,-312.98 297.5,-312.98"/>
<polygon fill="none" stroke="black" points="297.5,-312.98 297.5,-334.98 450.5,-334.98 450.5,-312.98 297.5,-312.98"/>
<text text-anchor="start" x="317.5" y="-321.18" font-family="Helvetica,sans-Serif" font-size="11.00">identifier</text>
<polygon fill="none" stroke="black" points="297.5,-290.98 297.5,-312.98 450.5,-312.98 450.5,-290.98 297.5,-290.98"/>
<image xlink:href="../../images/foreignKeys.png" width="11px" height="12px" preserveAspectRatio="xMinYMin meet" x="302.5" y="-307.981"/>
<text text-anchor="start" x="317.5" y="-299.18" font-family="Helvetica,sans-Serif" font-size="11.00">fk_company</text>
<polygon fill="none" stroke="black" points="297.5,-268.98 297.5,-290.98 450.5,-290.98 450.5,-268.98 297.5,-268.98"/>
<image xlink:href="../../images/foreignKeys.png" width="11px" height="12px" preserveAspectRatio="xMinYMin meet" x="302.5" y="-285.981"/>
<text text-anchor="start" x="317.5" y="-277.18" font-family="Helvetica,sans-Serif" font-size="11.00">fk_sector</text>
<polygon fill="none" stroke="black" points="297.5,-246.98 297.5,-268.98 450.5,-268.98 450.5,-246.98 297.5,-246.98"/>
<image xlink:href="../../images/foreignKeys.png" width="11px" height="12px" preserveAspectRatio="xMinYMin meet" x="302.5" y="-263.981"/>
<text text-anchor="start" x="317.5" y="-255.18" font-family="Helvetica,sans-Serif" font-size="11.00">fk_cemetery</text>
<polygon fill="none" stroke="black" points="297.5,-224.98 297.5,-246.98 450.5,-246.98 450.5,-224.98 297.5,-224.98"/>
<image xlink:href="../../images/foreignKeys.png" width="11px" height="12px" preserveAspectRatio="xMinYMin meet" x="302.5" y="-241.981"/>
<text text-anchor="start" x="317.5" y="-233.18" font-family="Helvetica,sans-Serif" font-size="11.00">fk_size</text>
<polygon fill="none" stroke="black" points="297.5,-202.98 297.5,-224.98 450.5,-224.98 450.5,-202.98 297.5,-202.98"/>
<image xlink:href="../../images/foreignKeys.png" width="11px" height="12px" preserveAspectRatio="xMinYMin meet" x="302.5" y="-219.981"/>
<text text-anchor="start" x="317.5" y="-211.18" font-family="Helvetica,sans-Serif" font-size="11.00">fk_kind</text>
<polygon fill="none" stroke="black" points="297.5,-180.98 297.5,-202.98 450.5,-202.98 450.5,-180.98 297.5,-180.98"/>
<image xlink:href="../../images/foreignKeys.png" width="11px" height="12px" preserveAspectRatio="xMinYMin meet" x="302.5" y="-197.981"/>
<text text-anchor="start" x="317.5" y="-189.18" font-family="Helvetica,sans-Serif" font-size="11.00">fk_urn_material</text>
<polygon fill="none" stroke="black" points="297.5,-158.98 297.5,-180.98 450.5,-180.98 450.5,-158.98 297.5,-158.98"/>
<image xlink:href="../../images/foreignKeys.png" width="11px" height="12px" preserveAspectRatio="xMinYMin meet" x="302.5" y="-175.981"/>
<text text-anchor="start" x="317.5" y="-167.18" font-family="Helvetica,sans-Serif" font-size="11.00">fk_urn_shape</text>
<polygon fill="none" stroke="black" points="297.5,-136.98 297.5,-158.98 450.5,-158.98 450.5,-136.98 297.5,-136.98"/>
<image xlink:href="../../images/foreignKeys.png" width="11px" height="12px" preserveAspectRatio="xMinYMin meet" x="302.5" y="-153.981"/>
<text text-anchor="start" x="317.5" y="-145.18" font-family="Helvetica,sans-Serif" font-size="11.00">fk_contact_person</text>
<polygon fill="none" stroke="black" points="297.5,-114.98 297.5,-136.98 450.5,-136.98 450.5,-114.98 297.5,-114.98"/>
<image xlink:href="../../images/foreignKeys.png" width="11px" height="12px" preserveAspectRatio="xMinYMin meet" x="302.5" y="-131.981"/>
<text text-anchor="start" x="317.5" y="-123.18" font-family="Helvetica,sans-Serif" font-size="11.00">fk_control</text>
<polygon fill="none" stroke="black" points="297.5,-96.98 297.5,-114.98 450.5,-114.98 450.5,-96.98 297.5,-96.98"/>
<text text-anchor="start" x="300.5" y="-103.18" font-family="Helvetica,sans-Serif" font-size="11.00">...</text>
<polygon fill="#ffffff" stroke="transparent" points="297.5,-78.98 297.5,-96.98 450.5,-96.98 450.5,-78.98 297.5,-78.98"/>
<polygon fill="none" stroke="black" points="297.5,-78.98 297.5,-96.98 450.5,-96.98 450.5,-78.98 297.5,-78.98"/>
<polygon fill="#ffffff" stroke="transparent" points="298.5,-79.98 298.5,-95.98 353.5,-95.98 353.5,-79.98 298.5,-79.98"/>
<text text-anchor="start" x="300.5" y="-85.18" font-family="Helvetica,sans-Serif" font-size="11.00">&lt; 9</text>
<polygon fill="#ffffff" stroke="transparent" points="353.5,-79.98 353.5,-95.98 395.5,-95.98 395.5,-79.98 353.5,-79.98"/>
<text text-anchor="start" x="370.5" y="-85.18" font-family="Helvetica,sans-Serif" font-size="11.00"> &#160;</text>
<polygon fill="#ffffff" stroke="transparent" points="395.5,-79.98 395.5,-95.98 449.5,-95.98 449.5,-79.98 395.5,-79.98"/>
<text text-anchor="start" x="427.5" y="-85.18" font-family="Helvetica,sans-Serif" font-size="11.00">3 &gt;</text>
<polygon fill="black" stroke="black" points="353.5,-79.98 353.5,-95.98 353.5,-95.98 353.5,-79.98 353.5,-79.98"/>
<polygon fill="black" stroke="black" points="395.5,-79.98 395.5,-95.98 395.5,-95.98 395.5,-79.98 395.5,-79.98"/>
</a>
</g>
</g>
<!-- file&#45;&gt;unit -->
<g id="edge2" class="edge">
<title>file:w&#45;&gt;unit:e</title>
<path fill="none" stroke="black" d="M483.93,-253.4C461.24,-272.38 493.15,-345.98 451.5,-345.98"/>
<polygon fill="black" stroke="black" points="490.37,-251.38 499.08,-252.42 494.18,-250.18 498,-248.98 498,-248.98 498,-248.98 494.18,-250.18 496.92,-245.55 490.37,-251.38 490.37,-251.38"/>
<ellipse fill="none" stroke="black" cx="487.31" cy="-252.34" rx="3.2" ry="3.2"/>
</g>
<!-- unit&#45;&gt;cemetery -->
<g id="edge4" class="edge">
<title>unit:w&#45;&gt;cemetery:e</title>
<path fill="none" stroke="black" d="M281.84,-257.98C270.41,-257.98 263.16,-257.98 247,-257.98"/>
<polygon fill="black" stroke="black" points="288.5,-257.98 296.5,-261.58 292.5,-257.98 296.5,-257.98 296.5,-257.98 296.5,-257.98 292.5,-257.98 296.5,-254.38 288.5,-257.98 288.5,-257.98"/>
<ellipse fill="none" stroke="black" cx="285.3" cy="-257.98" rx="3.2" ry="3.2"/>
</g>
</g>
</svg>
