<?xml version="1.0" encoding="UTF-8" standalone="no"?>
<!DOCTYPE svg PUBLIC "-//W3C//DTD SVG 1.1//EN"
 "http://www.w3.org/Graphics/SVG/1.1/DTD/svg11.dtd">
<!-- Generated by graphviz version 2.43.0 (0)
 -->
<!-- Title: oneDegreeRelationshipsDiagram Pages: 1 -->
<svg width="458pt" height="349pt"
 viewBox="0.00 0.00 458.00 349.00" xmlns="http://www.w3.org/2000/svg" xmlns:xlink="http://www.w3.org/1999/xlink">
<g id="graph0" class="graph" transform="scale(1 1) rotate(0) translate(4 345)">
<title>oneDegreeRelationshipsDiagram</title>
<polygon fill="#ffffff" stroke="transparent" points="-4,4 -4,-345 454,-345 454,4 -4,4"/>
<text text-anchor="middle" x="79.5" y="-7.2" font-family="Helvetica,sans-Serif" font-size="11.00">Generated by SchemaSpy</text>
<!-- unit -->
<g id="node1" class="node">
<title>unit</title>
<g id="a_node1"><a xlink:href="../../tables/unit.html" xlink:title="unit" target="_top">
<polygon fill="#ffffff" stroke="transparent" points="289,-37 289,-337 442,-337 442,-37 289,-37"/>
<polygon fill="#f5f5f5" stroke="transparent" points="289.5,-315 289.5,-337 442.5,-337 442.5,-315 289.5,-315"/>
<polygon fill="none" stroke="black" points="289.5,-315 289.5,-337 442.5,-337 442.5,-315 289.5,-315"/>
<text text-anchor="start" x="294.5" y="-324.2" font-family="Helvetica,sans-Serif" font-weight="bold" font-size="11.00">unit</text>
<text text-anchor="start" x="400.5" y="-323.2" font-family="Helvetica,sans-Serif" font-size="11.00">[table]</text>
<polygon fill="none" stroke="black" points="289.5,-293 289.5,-315 442.5,-315 442.5,-293 289.5,-293"/>
<image xlink:href="../../images/primaryKeys.png" width="11px" height="12px" preserveAspectRatio="xMinYMin meet" x="294.5" y="-310"/>
<text text-anchor="start" x="309.5" y="-301.2" font-family="Helvetica,sans-Serif" font-size="11.00">id</text>
<polygon fill="#ffffff" stroke="transparent" points="289.5,-271 289.5,-293 442.5,-293 442.5,-271 289.5,-271"/>
<polygon fill="none" stroke="black" points="289.5,-271 289.5,-293 442.5,-293 442.5,-271 289.5,-271"/>
<text text-anchor="start" x="309.5" y="-279.2" font-family="Helvetica,sans-Serif" font-size="11.00">identifier</text>
<polygon fill="none" stroke="black" points="289.5,-249 289.5,-271 442.5,-271 442.5,-249 289.5,-249"/>
<image xlink:href="../../images/foreignKeys.png" width="11px" height="12px" preserveAspectRatio="xMinYMin meet" x="294.5" y="-266"/>
<text text-anchor="start" x="309.5" y="-257.2" font-family="Helvetica,sans-Serif" font-size="11.00">fk_company</text>
<polygon fill="none" stroke="black" points="289.5,-227 289.5,-249 442.5,-249 442.5,-227 289.5,-227"/>
<image xlink:href="../../images/foreignKeys.png" width="11px" height="12px" preserveAspectRatio="xMinYMin meet" x="294.5" y="-244"/>
<text text-anchor="start" x="309.5" y="-235.2" font-family="Helvetica,sans-Serif" font-size="11.00">fk_sector</text>
<polygon fill="none" stroke="black" points="289.5,-205 289.5,-227 442.5,-227 442.5,-205 289.5,-205"/>
<image xlink:href="../../images/foreignKeys.png" width="11px" height="12px" preserveAspectRatio="xMinYMin meet" x="294.5" y="-222"/>
<text text-anchor="start" x="309.5" y="-213.2" font-family="Helvetica,sans-Serif" font-size="11.00">fk_cemetery</text>
<polygon fill="none" stroke="black" points="289.5,-183 289.5,-205 442.5,-205 442.5,-183 289.5,-183"/>
<image xlink:href="../../images/foreignKeys.png" width="11px" height="12px" preserveAspectRatio="xMinYMin meet" x="294.5" y="-200"/>
<text text-anchor="start" x="309.5" y="-191.2" font-family="Helvetica,sans-Serif" font-size="11.00">fk_size</text>
<polygon fill="none" stroke="black" points="289.5,-161 289.5,-183 442.5,-183 442.5,-161 289.5,-161"/>
<image xlink:href="../../images/foreignKeys.png" width="11px" height="12px" preserveAspectRatio="xMinYMin meet" x="294.5" y="-178"/>
<text text-anchor="start" x="309.5" y="-169.2" font-family="Helvetica,sans-Serif" font-size="11.00">fk_kind</text>
<polygon fill="none" stroke="black" points="289.5,-139 289.5,-161 442.5,-161 442.5,-139 289.5,-139"/>
<image xlink:href="../../images/foreignKeys.png" width="11px" height="12px" preserveAspectRatio="xMinYMin meet" x="294.5" y="-156"/>
<text text-anchor="start" x="309.5" y="-147.2" font-family="Helvetica,sans-Serif" font-size="11.00">fk_urn_material</text>
<polygon fill="none" stroke="black" points="289.5,-117 289.5,-139 442.5,-139 442.5,-117 289.5,-117"/>
<image xlink:href="../../images/foreignKeys.png" width="11px" height="12px" preserveAspectRatio="xMinYMin meet" x="294.5" y="-134"/>
<text text-anchor="start" x="309.5" y="-125.2" font-family="Helvetica,sans-Serif" font-size="11.00">fk_urn_shape</text>
<polygon fill="none" stroke="black" points="289.5,-95 289.5,-117 442.5,-117 442.5,-95 289.5,-95"/>
<image xlink:href="../../images/foreignKeys.png" width="11px" height="12px" preserveAspectRatio="xMinYMin meet" x="294.5" y="-112"/>
<text text-anchor="start" x="309.5" y="-103.2" font-family="Helvetica,sans-Serif" font-size="11.00">fk_contact_person</text>
<polygon fill="none" stroke="black" points="289.5,-73 289.5,-95 442.5,-95 442.5,-73 289.5,-73"/>
<image xlink:href="../../images/foreignKeys.png" width="11px" height="12px" preserveAspectRatio="xMinYMin meet" x="294.5" y="-90"/>
<text text-anchor="start" x="309.5" y="-81.2" font-family="Helvetica,sans-Serif" font-size="11.00">fk_control</text>
<polygon fill="none" stroke="black" points="289.5,-55 289.5,-73 442.5,-73 442.5,-55 289.5,-55"/>
<text text-anchor="start" x="292.5" y="-61.2" font-family="Helvetica,sans-Serif" font-size="11.00">...</text>
<polygon fill="#ffffff" stroke="transparent" points="289.5,-37 289.5,-55 442.5,-55 442.5,-37 289.5,-37"/>
<polygon fill="none" stroke="black" points="289.5,-37 289.5,-55 442.5,-55 442.5,-37 289.5,-37"/>
<polygon fill="#ffffff" stroke="transparent" points="290.5,-38 290.5,-54 345.5,-54 345.5,-38 290.5,-38"/>
<text text-anchor="start" x="292.5" y="-43.2" font-family="Helvetica,sans-Serif" font-size="11.00">&lt; 9</text>
<polygon fill="#ffffff" stroke="transparent" points="345.5,-38 345.5,-54 387.5,-54 387.5,-38 345.5,-38"/>
<text text-anchor="start" x="362.5" y="-43.2" font-family="Helvetica,sans-Serif" font-size="11.00"> &#160;</text>
<polygon fill="#ffffff" stroke="transparent" points="387.5,-38 387.5,-54 441.5,-54 441.5,-38 387.5,-38"/>
<text text-anchor="start" x="419.5" y="-43.2" font-family="Helvetica,sans-Serif" font-size="11.00">2 &gt;</text>
<polygon fill="black" stroke="black" points="345.5,-38 345.5,-54 345.5,-54 345.5,-38 345.5,-38"/>
<polygon fill="black" stroke="black" points="387.5,-38 387.5,-54 387.5,-54 387.5,-38 387.5,-38"/>
</a>
</g>
</g>
<!-- cemetery -->
<g id="node2" class="node">
<title>cemetery</title>
<g id="a_node2"><a xlink:href="../../tables/cemetery.html" xlink:title="cemetery" target="_top">
<polygon fill="#ffffff" stroke="transparent" points="8,-119 8,-251 240,-251 240,-119 8,-119"/>
<polygon fill="#f5f5f5" stroke="transparent" points="10,-227 10,-249 238,-249 238,-227 10,-227"/>
<polygon fill="none" stroke="black" points="10,-227 10,-249 238,-249 238,-227 10,-227"/>
<text text-anchor="start" x="15" y="-236.2" font-family="Helvetica,sans-Serif" font-weight="bold" font-size="11.00">cemetery</text>
<text text-anchor="start" x="196" y="-235.2" font-family="Helvetica,sans-Serif" font-size="11.00">[table]</text>
<polygon fill="none" stroke="black" points="10,-205 10,-227 102,-227 102,-205 10,-205"/>
<image xlink:href="../../images/primaryKeys.png" width="11px" height="12px" preserveAspectRatio="xMinYMin meet" x="15" y="-222"/>
<text text-anchor="start" x="30" y="-213.2" font-family="Helvetica,sans-Serif" font-size="11.00">id</text>
<polygon fill="none" stroke="black" points="102,-205 102,-227 238,-227 238,-205 102,-205"/>
<text text-anchor="start" x="105" y="-213.2" font-family="Helvetica,sans-Serif" font-size="11.00">uuid[2147483647]</text>
<polygon fill="none" stroke="black" points="10,-183 10,-205 102,-205 102,-183 10,-183"/>
<text text-anchor="start" x="30" y="-191.2" font-family="Helvetica,sans-Serif" font-size="11.00">identifier</text>
<polygon fill="none" stroke="black" points="102,-183 102,-205 238,-205 238,-183 102,-183"/>
<text text-anchor="start" x="105" y="-191.2" font-family="Helvetica,sans-Serif" font-size="11.00">text[2147483647]</text>
<polygon fill="none" stroke="black" points="10,-161 10,-183 102,-183 102,-161 10,-161"/>
<text text-anchor="start" x="30" y="-169.2" font-family="Helvetica,sans-Serif" font-size="11.00">remark</text>
<polygon fill="none" stroke="black" points="102,-161 102,-183 238,-183 238,-161 102,-161"/>
<text text-anchor="start" x="105" y="-169.2" font-family="Helvetica,sans-Serif" font-size="11.00">text[2147483647]</text>
<polygon fill="none" stroke="black" points="10,-139 10,-161 102,-161 102,-139 10,-139"/>
<text text-anchor="start" x="30" y="-147.2" font-family="Helvetica,sans-Serif" font-size="11.00">the_geom</text>
<polygon fill="none" stroke="black" points="102,-139 102,-161 238,-161 238,-139 102,-139"/>
<text text-anchor="start" x="105" y="-147.2" font-family="Helvetica,sans-Serif" font-size="11.00">geometry[2147483647]</text>
<polygon fill="#ffffff" stroke="transparent" points="10,-121 10,-139 238,-139 238,-121 10,-121"/>
<polygon fill="none" stroke="black" points="10,-121 10,-139 238,-139 238,-121 10,-121"/>
<polygon fill="#ffffff" stroke="transparent" points="11,-122 11,-138 91,-138 91,-122 11,-122"/>
<text text-anchor="start" x="13" y="-127.2" font-family="Helvetica,sans-Serif" font-size="11.00">&lt; 0</text>
<polygon fill="#ffffff" stroke="transparent" points="91,-122 91,-138 158,-138 158,-122 91,-122"/>
<text text-anchor="start" x="120.5" y="-127.2" font-family="Helvetica,sans-Serif" font-size="11.00"> &#160;</text>
<polygon fill="#ffffff" stroke="transparent" points="158,-122 158,-138 237,-138 237,-122 158,-122"/>
<text text-anchor="start" x="215" y="-127.2" font-family="Helvetica,sans-Serif" font-size="11.00">1 &gt;</text>
<polygon fill="black" stroke="black" points="91,-122 91,-138 91,-138 91,-122 91,-122"/>
<polygon fill="black" stroke="black" points="158,-122 158,-138 158,-138 158,-122 158,-122"/>
<polygon fill="none" stroke="black" stroke-width="2" points="9,-120 9,-250 239,-250 239,-120 9,-120"/>
</a>
</g>
</g>
<!-- unit&#45;&gt;cemetery -->
<g id="edge1" class="edge">
<title>unit:w&#45;&gt;cemetery:e</title>
<path fill="none" stroke="black" d="M273.84,-216C262.41,-216 255.16,-216 239,-216"/>
<polygon fill="black" stroke="black" points="280.5,-216 288.5,-219.6 284.5,-216 288.5,-216 288.5,-216 288.5,-216 284.5,-216 288.5,-212.4 280.5,-216 280.5,-216"/>
<ellipse fill="none" stroke="black" cx="277.3" cy="-216" rx="3.2" ry="3.2"/>
</g>
</g>
</svg>
