<?xml version="1.0" encoding="UTF-8" standalone="no"?>
<!DOCTYPE svg PUBLIC "-//W3C//DTD SVG 1.1//EN"
 "http://www.w3.org/Graphics/SVG/1.1/DTD/svg11.dtd">
<!-- Generated by graphviz version 2.43.0 (0)
 -->
<!-- Title: oneDegreeRelationshipsDiagram Pages: 1 -->
<svg width="584pt" height="1055pt"
 viewBox="0.00 0.00 584.00 1055.00" xmlns="http://www.w3.org/2000/svg" xmlns:xlink="http://www.w3.org/1999/xlink">
<g id="graph0" class="graph" transform="scale(1 1) rotate(0) translate(4 1051)">
<title>oneDegreeRelationshipsDiagram</title>
<polygon fill="#ffffff" stroke="transparent" points="-4,4 -4,-1051 580,-1051 580,4 -4,4"/>
<text text-anchor="middle" x="79.5" y="-7.2" font-family="Helvetica,sans-Serif" font-size="11.00">Generated by SchemaSpy</text>
<!-- deceased -->
<g id="node1" class="node">
<title>deceased</title>
<g id="a_node1"><a xlink:href="../../tables/deceased.html" xlink:title="deceased" target="_top">
<polygon fill="#ffffff" stroke="transparent" points="210,-251 210,-1043 568,-1043 568,-251 210,-251"/>
<polygon fill="#f5f5f5" stroke="transparent" points="212,-1019 212,-1041 566,-1041 566,-1019 212,-1019"/>
<polygon fill="none" stroke="black" points="212,-1019 212,-1041 566,-1041 566,-1019 212,-1019"/>
<text text-anchor="start" x="217" y="-1028.2" font-family="Helvetica,sans-Serif" font-weight="bold" font-size="11.00">deceased</text>
<text text-anchor="start" x="524" y="-1027.2" font-family="Helvetica,sans-Serif" font-size="11.00">[table]</text>
<polygon fill="none" stroke="black" points="212,-997 212,-1019 430,-1019 430,-997 212,-997"/>
<image xlink:href="../../images/primaryKeys.png" width="11px" height="12px" preserveAspectRatio="xMinYMin meet" x="217" y="-1014"/>
<text text-anchor="start" x="232" y="-1005.2" font-family="Helvetica,sans-Serif" font-size="11.00">id</text>
<polygon fill="none" stroke="black" points="430,-997 430,-1019 566,-1019 566,-997 430,-997"/>
<text text-anchor="start" x="433" y="-1005.2" font-family="Helvetica,sans-Serif" font-size="11.00">uuid[2147483647]</text>
<polygon fill="none" stroke="black" points="212,-975 212,-997 430,-997 430,-975 212,-975"/>
<text text-anchor="start" x="232" y="-983.2" font-family="Helvetica,sans-Serif" font-size="11.00">ahv_number</text>
<polygon fill="none" stroke="black" points="430,-975 430,-997 566,-997 566,-975 430,-975"/>
<text text-anchor="start" x="433" y="-983.2" font-family="Helvetica,sans-Serif" font-size="11.00">varchar[16]</text>
<polygon fill="none" stroke="black" points="212,-953 212,-975 430,-975 430,-953 212,-953"/>
<image xlink:href="../../images/foreignKeys.png" width="11px" height="12px" preserveAspectRatio="xMinYMin meet" x="217" y="-970"/>
<text text-anchor="start" x="232" y="-961.2" font-family="Helvetica,sans-Serif" font-size="11.00">fk_civility</text>
<polygon fill="none" stroke="black" points="430,-953 430,-975 566,-975 566,-953 430,-953"/>
<text text-anchor="start" x="433" y="-961.2" font-family="Helvetica,sans-Serif" font-size="11.00">int4[10]</text>
<polygon fill="none" stroke="black" points="212,-931 212,-953 430,-953 430,-931 212,-931"/>
<text text-anchor="start" x="232" y="-939.2" font-family="Helvetica,sans-Serif" font-size="11.00">first_name</text>
<polygon fill="none" stroke="black" points="430,-931 430,-953 566,-953 566,-931 430,-931"/>
<text text-anchor="start" x="433" y="-939.2" font-family="Helvetica,sans-Serif" font-size="11.00">text[2147483647]</text>
<polygon fill="none" stroke="black" points="212,-909 212,-931 430,-931 430,-909 212,-909"/>
<text text-anchor="start" x="232" y="-917.2" font-family="Helvetica,sans-Serif" font-size="11.00">second_first_name</text>
<polygon fill="none" stroke="black" points="430,-909 430,-931 566,-931 566,-909 430,-909"/>
<text text-anchor="start" x="433" y="-917.2" font-family="Helvetica,sans-Serif" font-size="11.00">text[2147483647]</text>
<polygon fill="none" stroke="black" points="212,-887 212,-909 430,-909 430,-887 212,-887"/>
<text text-anchor="start" x="232" y="-895.2" font-family="Helvetica,sans-Serif" font-size="11.00">last_name</text>
<polygon fill="none" stroke="black" points="430,-887 430,-909 566,-909 566,-887 430,-887"/>
<text text-anchor="start" x="433" y="-895.2" font-family="Helvetica,sans-Serif" font-size="11.00">text[2147483647]</text>
<polygon fill="none" stroke="black" points="212,-865 212,-887 430,-887 430,-865 212,-865"/>
<text text-anchor="start" x="232" y="-873.2" font-family="Helvetica,sans-Serif" font-size="11.00">street_name</text>
<polygon fill="none" stroke="black" points="430,-865 430,-887 566,-887 566,-865 430,-865"/>
<text text-anchor="start" x="433" y="-873.2" font-family="Helvetica,sans-Serif" font-size="11.00">text[2147483647]</text>
<polygon fill="none" stroke="black" points="212,-843 212,-865 430,-865 430,-843 212,-843"/>
<text text-anchor="start" x="232" y="-851.2" font-family="Helvetica,sans-Serif" font-size="11.00">house_number</text>
<polygon fill="none" stroke="black" points="430,-843 430,-865 566,-865 566,-843 430,-843"/>
<text text-anchor="start" x="433" y="-851.2" font-family="Helvetica,sans-Serif" font-size="11.00">varchar[10]</text>
<polygon fill="none" stroke="black" points="212,-821 212,-843 430,-843 430,-821 212,-821"/>
<text text-anchor="start" x="232" y="-829.2" font-family="Helvetica,sans-Serif" font-size="11.00">address_supplement</text>
<polygon fill="none" stroke="black" points="430,-821 430,-843 566,-843 566,-821 430,-821"/>
<text text-anchor="start" x="433" y="-829.2" font-family="Helvetica,sans-Serif" font-size="11.00">text[2147483647]</text>
<polygon fill="none" stroke="black" points="212,-799 212,-821 430,-821 430,-799 212,-799"/>
<text text-anchor="start" x="232" y="-807.2" font-family="Helvetica,sans-Serif" font-size="11.00">city</text>
<polygon fill="none" stroke="black" points="430,-799 430,-821 566,-821 566,-799 430,-799"/>
<text text-anchor="start" x="433" y="-807.2" font-family="Helvetica,sans-Serif" font-size="11.00">text[2147483647]</text>
<polygon fill="none" stroke="black" points="212,-777 212,-799 430,-799 430,-777 212,-777"/>
<text text-anchor="start" x="232" y="-785.2" font-family="Helvetica,sans-Serif" font-size="11.00">postal_code</text>
<polygon fill="none" stroke="black" points="430,-777 430,-799 566,-799 566,-777 430,-777"/>
<text text-anchor="start" x="433" y="-785.2" font-family="Helvetica,sans-Serif" font-size="11.00">varchar[10]</text>
<polygon fill="none" stroke="black" points="212,-755 212,-777 430,-777 430,-755 212,-755"/>
<text text-anchor="start" x="232" y="-763.2" font-family="Helvetica,sans-Serif" font-size="11.00">birth_date</text>
<polygon fill="none" stroke="black" points="430,-755 430,-777 566,-777 566,-755 430,-755"/>
<text text-anchor="start" x="433" y="-763.2" font-family="Helvetica,sans-Serif" font-size="11.00">date[13]</text>
<polygon fill="none" stroke="black" points="212,-733 212,-755 430,-755 430,-733 212,-733"/>
<text text-anchor="start" x="232" y="-741.2" font-family="Helvetica,sans-Serif" font-size="11.00">birth_place</text>
<polygon fill="none" stroke="black" points="430,-733 430,-755 566,-755 566,-733 430,-733"/>
<text text-anchor="start" x="433" y="-741.2" font-family="Helvetica,sans-Serif" font-size="11.00">text[2147483647]</text>
<polygon fill="none" stroke="black" points="212,-711 212,-733 430,-733 430,-711 212,-711"/>
<image xlink:href="../../images/foreignKeys.png" width="11px" height="12px" preserveAspectRatio="xMinYMin meet" x="217" y="-728"/>
<text text-anchor="start" x="232" y="-719.2" font-family="Helvetica,sans-Serif" font-size="11.00">fk_birth_country</text>
<polygon fill="none" stroke="black" points="430,-711 430,-733 566,-733 566,-711 430,-711"/>
<text text-anchor="start" x="433" y="-719.2" font-family="Helvetica,sans-Serif" font-size="11.00">int4[10]</text>
<polygon fill="none" stroke="black" points="212,-689 212,-711 430,-711 430,-689 212,-689"/>
<text text-anchor="start" x="232" y="-697.2" font-family="Helvetica,sans-Serif" font-size="11.00">death_date</text>
<polygon fill="none" stroke="black" points="430,-689 430,-711 566,-711 566,-689 430,-689"/>
<text text-anchor="start" x="433" y="-697.2" font-family="Helvetica,sans-Serif" font-size="11.00">date[13]</text>
<polygon fill="none" stroke="black" points="212,-667 212,-689 430,-689 430,-667 212,-667"/>
<text text-anchor="start" x="232" y="-675.2" font-family="Helvetica,sans-Serif" font-size="11.00">death_place</text>
<polygon fill="none" stroke="black" points="430,-667 430,-689 566,-689 566,-667 430,-667"/>
<text text-anchor="start" x="433" y="-675.2" font-family="Helvetica,sans-Serif" font-size="11.00">text[2147483647]</text>
<polygon fill="none" stroke="black" points="212,-645 212,-667 430,-667 430,-645 212,-645"/>
<image xlink:href="../../images/foreignKeys.png" width="11px" height="12px" preserveAspectRatio="xMinYMin meet" x="217" y="-662"/>
<text text-anchor="start" x="232" y="-653.2" font-family="Helvetica,sans-Serif" font-size="11.00">fk_death_country</text>
<polygon fill="none" stroke="black" points="430,-645 430,-667 566,-667 566,-645 430,-645"/>
<text text-anchor="start" x="433" y="-653.2" font-family="Helvetica,sans-Serif" font-size="11.00">int4[10]</text>
<polygon fill="none" stroke="black" points="212,-623 212,-645 430,-645 430,-623 212,-623"/>
<text text-anchor="start" x="232" y="-631.2" font-family="Helvetica,sans-Serif" font-size="11.00">burial_date</text>
<polygon fill="none" stroke="black" points="430,-623 430,-645 566,-645 566,-623 430,-623"/>
<text text-anchor="start" x="433" y="-631.2" font-family="Helvetica,sans-Serif" font-size="11.00">date[13]</text>
<polygon fill="none" stroke="black" points="212,-601 212,-623 430,-623 430,-601 212,-601"/>
<text text-anchor="start" x="232" y="-609.2" font-family="Helvetica,sans-Serif" font-size="11.00">burial_place</text>
<polygon fill="none" stroke="black" points="430,-601 430,-623 566,-623 566,-601 430,-601"/>
<text text-anchor="start" x="433" y="-609.2" font-family="Helvetica,sans-Serif" font-size="11.00">text[2147483647]</text>
<polygon fill="none" stroke="black" points="212,-579 212,-601 430,-601 430,-579 212,-579"/>
<image xlink:href="../../images/foreignKeys.png" width="11px" height="12px" preserveAspectRatio="xMinYMin meet" x="217" y="-596"/>
<text text-anchor="start" x="232" y="-587.2" font-family="Helvetica,sans-Serif" font-size="11.00">fk_burial_country</text>
<polygon fill="none" stroke="black" points="430,-579 430,-601 566,-601 566,-579 430,-579"/>
<text text-anchor="start" x="433" y="-587.2" font-family="Helvetica,sans-Serif" font-size="11.00">int4[10]</text>
<polygon fill="none" stroke="black" points="212,-557 212,-579 430,-579 430,-557 212,-557"/>
<text text-anchor="start" x="232" y="-565.2" font-family="Helvetica,sans-Serif" font-size="11.00">municipality_disposal_date</text>
<polygon fill="none" stroke="black" points="430,-557 430,-579 566,-579 566,-557 430,-557"/>
<text text-anchor="start" x="433" y="-565.2" font-family="Helvetica,sans-Serif" font-size="11.00">date[13]</text>
<polygon fill="none" stroke="black" points="212,-535 212,-557 430,-557 430,-535 212,-535"/>
<text text-anchor="start" x="232" y="-543.2" font-family="Helvetica,sans-Serif" font-size="11.00">municipality_approval</text>
<polygon fill="none" stroke="black" points="430,-535 430,-557 566,-557 566,-535 430,-535"/>
<text text-anchor="start" x="433" y="-543.2" font-family="Helvetica,sans-Serif" font-size="11.00">bool[1]</text>
<polygon fill="none" stroke="black" points="212,-513 212,-535 430,-535 430,-513 212,-513"/>
<text text-anchor="start" x="232" y="-521.2" font-family="Helvetica,sans-Serif" font-size="11.00">incineration_date</text>
<polygon fill="none" stroke="black" points="430,-513 430,-535 566,-535 566,-513 430,-513"/>
<text text-anchor="start" x="433" y="-521.2" font-family="Helvetica,sans-Serif" font-size="11.00">date[13]</text>
<polygon fill="none" stroke="black" points="212,-491 212,-513 430,-513 430,-491 212,-491"/>
<text text-anchor="start" x="232" y="-499.2" font-family="Helvetica,sans-Serif" font-size="11.00">incineration_place</text>
<polygon fill="none" stroke="black" points="430,-491 430,-513 566,-513 566,-491 430,-491"/>
<text text-anchor="start" x="433" y="-499.2" font-family="Helvetica,sans-Serif" font-size="11.00">text[2147483647]</text>
<polygon fill="none" stroke="black" points="212,-469 212,-491 430,-491 430,-469 212,-469"/>
<text text-anchor="start" x="232" y="-477.2" font-family="Helvetica,sans-Serif" font-size="11.00">fk_urn_kind</text>
<polygon fill="none" stroke="black" points="430,-469 430,-491 566,-491 566,-469 430,-469"/>
<text text-anchor="start" x="433" y="-477.2" font-family="Helvetica,sans-Serif" font-size="11.00">int4[10]</text>
<polygon fill="none" stroke="black" points="212,-447 212,-469 430,-469 430,-447 212,-447"/>
<text text-anchor="start" x="232" y="-455.2" font-family="Helvetica,sans-Serif" font-size="11.00">exumation_date</text>
<polygon fill="none" stroke="black" points="430,-447 430,-469 566,-469 566,-447 430,-447"/>
<text text-anchor="start" x="433" y="-455.2" font-family="Helvetica,sans-Serif" font-size="11.00">date[13]</text>
<polygon fill="none" stroke="black" points="212,-425 212,-447 430,-447 430,-425 212,-425"/>
<text text-anchor="start" x="232" y="-433.2" font-family="Helvetica,sans-Serif" font-size="11.00">exumation_place</text>
<polygon fill="none" stroke="black" points="430,-425 430,-447 566,-447 566,-425 430,-425"/>
<text text-anchor="start" x="433" y="-433.2" font-family="Helvetica,sans-Serif" font-size="11.00">text[2147483647]</text>
<polygon fill="none" stroke="black" points="212,-403 212,-425 430,-425 430,-403 212,-403"/>
<text text-anchor="start" x="232" y="-411.2" font-family="Helvetica,sans-Serif" font-size="11.00">remark</text>
<polygon fill="none" stroke="black" points="430,-403 430,-425 566,-425 566,-403 430,-403"/>
<text text-anchor="start" x="433" y="-411.2" font-family="Helvetica,sans-Serif" font-size="11.00">text[2147483647]</text>
<polygon fill="none" stroke="black" points="212,-381 212,-403 430,-403 430,-381 212,-381"/>
<text text-anchor="start" x="232" y="-389.2" font-family="Helvetica,sans-Serif" font-size="11.00">child</text>
<polygon fill="none" stroke="black" points="430,-381 430,-403 566,-403 566,-381 430,-381"/>
<text text-anchor="start" x="433" y="-389.2" font-family="Helvetica,sans-Serif" font-size="11.00">bool[1]</text>
<polygon fill="none" stroke="black" points="212,-359 212,-381 430,-381 430,-359 212,-359"/>
<text text-anchor="start" x="232" y="-367.2" font-family="Helvetica,sans-Serif" font-size="11.00">quality</text>
<polygon fill="none" stroke="black" points="430,-359 430,-381 566,-381 566,-359 430,-359"/>
<text text-anchor="start" x="433" y="-367.2" font-family="Helvetica,sans-Serif" font-size="11.00">float8[17,17]</text>
<polygon fill="none" stroke="black" points="212,-337 212,-359 430,-359 430,-337 212,-337"/>
<text text-anchor="start" x="232" y="-345.2" font-family="Helvetica,sans-Serif" font-size="11.00">depth</text>
<polygon fill="none" stroke="black" points="430,-337 430,-359 566,-359 566,-337 430,-337"/>
<text text-anchor="start" x="433" y="-345.2" font-family="Helvetica,sans-Serif" font-size="11.00">float8[17,17]</text>
<polygon fill="none" stroke="black" points="212,-315 212,-337 430,-337 430,-315 212,-315"/>
<text text-anchor="start" x="232" y="-323.2" font-family="Helvetica,sans-Serif" font-size="11.00">orientation</text>
<polygon fill="none" stroke="black" points="430,-315 430,-337 566,-337 566,-315 430,-315"/>
<text text-anchor="start" x="433" y="-323.2" font-family="Helvetica,sans-Serif" font-size="11.00">float8[17,17]</text>
<polygon fill="none" stroke="black" points="212,-293 212,-315 430,-315 430,-293 212,-293"/>
<image xlink:href="../../images/foreignKeys.png" width="11px" height="12px" preserveAspectRatio="xMinYMin meet" x="217" y="-310"/>
<text text-anchor="start" x="232" y="-301.2" font-family="Helvetica,sans-Serif" font-size="11.00">fk_unit</text>
<polygon fill="none" stroke="black" points="430,-293 430,-315 566,-315 566,-293 430,-293"/>
<text text-anchor="start" x="433" y="-301.2" font-family="Helvetica,sans-Serif" font-size="11.00">uuid[2147483647]</text>
<polygon fill="none" stroke="black" points="212,-271 212,-293 430,-293 430,-271 212,-271"/>
<text text-anchor="start" x="232" y="-279.2" font-family="Helvetica,sans-Serif" font-size="11.00">the_geom</text>
<polygon fill="none" stroke="black" points="430,-271 430,-293 566,-293 566,-271 430,-271"/>
<text text-anchor="start" x="433" y="-279.2" font-family="Helvetica,sans-Serif" font-size="11.00">geometry[2147483647]</text>
<polygon fill="#ffffff" stroke="transparent" points="212,-253 212,-271 566,-271 566,-253 212,-253"/>
<polygon fill="none" stroke="black" points="212,-253 212,-271 566,-271 566,-253 212,-253"/>
<polygon fill="#ffffff" stroke="transparent" points="213,-254 213,-270 335,-270 335,-254 213,-254"/>
<text text-anchor="start" x="215" y="-259.2" font-family="Helvetica,sans-Serif" font-size="11.00">&lt; 5</text>
<polygon fill="#ffffff" stroke="transparent" points="335,-254 335,-270 444,-270 444,-254 335,-254"/>
<text text-anchor="start" x="385.5" y="-259.2" font-family="Helvetica,sans-Serif" font-size="11.00"> &#160;</text>
<polygon fill="#ffffff" stroke="transparent" points="444,-254 444,-270 565,-270 565,-254 444,-254"/>
<text text-anchor="start" x="543" y="-259.2" font-family="Helvetica,sans-Serif" font-size="11.00">0 &gt;</text>
<polygon fill="black" stroke="black" points="335,-254 335,-270 335,-270 335,-254 335,-254"/>
<polygon fill="black" stroke="black" points="444,-254 444,-270 444,-270 444,-254 444,-254"/>
<polygon fill="none" stroke="black" stroke-width="2" points="211,-252 211,-1042 567,-1042 567,-252 211,-252"/>
</a>
</g>
</g>
<!-- tce_vl.country -->
<g id="node2" class="node">
<title>tce_vl.country</title>
<g id="a_node2"><a xlink:href="../../../tce_vl/tables/country.html" xlink:title="tce_vl.country" target="_top">
<polygon fill="#ffffff" stroke="transparent" points="9.5,-627 9.5,-685 159.5,-685 159.5,-627 9.5,-627"/>
<polygon fill="#f5f5f5" stroke="transparent" points="9.5,-663 9.5,-685 159.5,-685 159.5,-663 9.5,-663"/>
<polygon fill="none" stroke="black" points="9.5,-663 9.5,-685 159.5,-685 159.5,-663 9.5,-663"/>
<text text-anchor="start" x="14.5" y="-672.2" font-family="Helvetica,sans-Serif" font-weight="bold" font-size="11.00">tce_vl.country</text>
<text text-anchor="start" x="117.5" y="-671.2" font-family="Helvetica,sans-Serif" font-size="11.00">[table]</text>
<polygon fill="none" stroke="black" points="9.5,-645 9.5,-663 159.5,-663 159.5,-645 9.5,-645"/>
<text text-anchor="start" x="12.5" y="-651.2" font-family="Helvetica,sans-Serif" font-size="11.00">...</text>
<polygon fill="#ffffff" stroke="transparent" points="9.5,-627 9.5,-645 159.5,-645 159.5,-627 9.5,-627"/>
<polygon fill="none" stroke="black" points="9.5,-627 9.5,-645 159.5,-645 159.5,-627 9.5,-627"/>
<polygon fill="#ffffff" stroke="transparent" points="10.5,-628 10.5,-644 46.5,-644 46.5,-628 10.5,-628"/>
<text text-anchor="start" x="12.5" y="-633.2" font-family="Helvetica,sans-Serif" font-size="11.00"> &#160;</text>
<polygon fill="#ffffff" stroke="transparent" points="46.5,-628 46.5,-644 111.5,-644 111.5,-628 46.5,-628"/>
<text text-anchor="start" x="60.5" y="-633.2" font-family="Helvetica,sans-Serif" font-size="11.00">0 rows</text>
<polygon fill="#ffffff" stroke="transparent" points="111.5,-628 111.5,-644 158.5,-644 158.5,-628 111.5,-628"/>
<text text-anchor="start" x="136.5" y="-633.2" font-family="Helvetica,sans-Serif" font-size="11.00">3 &gt;</text>
<polygon fill="black" stroke="black" points="46.5,-628 46.5,-644 46.5,-644 46.5,-628 46.5,-628"/>
<polygon fill="black" stroke="black" points="111.5,-628 111.5,-644 111.5,-644 111.5,-628 111.5,-628"/>
</a>
</g>
</g>
<!-- deceased&#45;&gt;tce_vl.country -->
<g id="edge1" class="edge">
<title>deceased:w&#45;&gt;tce_vl.country:e</title>
<path fill="none" stroke="black" d="M196.33,-720.86C170.04,-716.88 144.69,-703.06 124.89,-689.19"/>
<polygon fill="black" stroke="black" points="203.02,-721.38 210.72,-725.59 207.01,-721.69 211,-722 211,-722 211,-722 207.01,-721.69 211.28,-718.41 203.02,-721.38 203.02,-721.38"/>
<ellipse fill="none" stroke="black" cx="199.83" cy="-721.13" rx="3.2" ry="3.2"/>
</g>
<!-- deceased&#45;&gt;tce_vl.country -->
<g id="edge2" class="edge">
<title>deceased:w&#45;&gt;tce_vl.country:e</title>
<path fill="none" stroke="black" d="M196.33,-591.14C170.04,-595.12 144.69,-608.94 124.89,-622.81"/>
<polygon fill="black" stroke="black" points="203.02,-590.62 211.28,-593.59 207.01,-590.31 211,-590 211,-590 211,-590 207.01,-590.31 210.72,-586.41 203.02,-590.62 203.02,-590.62"/>
<ellipse fill="none" stroke="black" cx="199.83" cy="-590.87" rx="3.2" ry="3.2"/>
</g>
<!-- deceased&#45;&gt;tce_vl.country -->
<g id="edge4" class="edge">
<title>deceased:w&#45;&gt;tce_vl.country:e</title>
<path fill="none" stroke="black" d="M196.59,-656C186.96,-656 177.14,-656 167.52,-656"/>
<polygon fill="black" stroke="black" points="203,-656 211,-659.6 207,-656 211,-656 211,-656 211,-656 207,-656 211,-652.4 203,-656 203,-656"/>
<ellipse fill="none" stroke="black" cx="199.8" cy="-656" rx="3.2" ry="3.2"/>
</g>
<!-- tce_vl.civility -->
<g id="node3" class="node">
<title>tce_vl.civility</title>
<g id="a_node3"><a xlink:href="../../../tce_vl/tables/civility.html" xlink:title="tce_vl.civility" target="_top">
<polygon fill="#ffffff" stroke="transparent" points="13.5,-935 13.5,-993 155.5,-993 155.5,-935 13.5,-935"/>
<polygon fill="#f5f5f5" stroke="transparent" points="13.5,-971 13.5,-993 155.5,-993 155.5,-971 13.5,-971"/>
<polygon fill="none" stroke="black" points="13.5,-971 13.5,-993 155.5,-993 155.5,-971 13.5,-971"/>
<text text-anchor="start" x="18.5" y="-980.2" font-family="Helvetica,sans-Serif" font-weight="bold" font-size="11.00">tce_vl.civility</text>
<text text-anchor="start" x="113.5" y="-979.2" font-family="Helvetica,sans-Serif" font-size="11.00">[table]</text>
<polygon fill="none" stroke="black" points="13.5,-953 13.5,-971 155.5,-971 155.5,-953 13.5,-953"/>
<text text-anchor="start" x="16.5" y="-959.2" font-family="Helvetica,sans-Serif" font-size="11.00">...</text>
<polygon fill="#ffffff" stroke="transparent" points="13.5,-935 13.5,-953 155.5,-953 155.5,-935 13.5,-935"/>
<polygon fill="none" stroke="black" points="13.5,-935 13.5,-953 155.5,-953 155.5,-935 13.5,-935"/>
<polygon fill="#ffffff" stroke="transparent" points="14.5,-936 14.5,-952 47.5,-952 47.5,-936 14.5,-936"/>
<text text-anchor="start" x="16.5" y="-941.2" font-family="Helvetica,sans-Serif" font-size="11.00"> &#160;</text>
<polygon fill="#ffffff" stroke="transparent" points="47.5,-936 47.5,-952 109.5,-952 109.5,-936 47.5,-936"/>
<text text-anchor="start" x="60" y="-941.2" font-family="Helvetica,sans-Serif" font-size="11.00">0 rows</text>
<polygon fill="#ffffff" stroke="transparent" points="109.5,-936 109.5,-952 154.5,-952 154.5,-936 109.5,-936"/>
<text text-anchor="start" x="132.5" y="-941.2" font-family="Helvetica,sans-Serif" font-size="11.00">2 &gt;</text>
<polygon fill="black" stroke="black" points="47.5,-936 47.5,-952 47.5,-952 47.5,-936 47.5,-936"/>
<polygon fill="black" stroke="black" points="109.5,-936 109.5,-952 109.5,-952 109.5,-936 109.5,-936"/>
</a>
</g>
</g>
<!-- deceased&#45;&gt;tce_vl.civility -->
<g id="edge3" class="edge">
<title>deceased:w&#45;&gt;tce_vl.civility:e</title>
<path fill="none" stroke="black" d="M196.45,-964C185.63,-964 174.57,-964 163.83,-964"/>
<polygon fill="black" stroke="black" points="203,-964 211,-967.6 207,-964 211,-964 211,-964 211,-964 207,-964 211,-960.4 203,-964 203,-964"/>
<ellipse fill="none" stroke="black" cx="199.8" cy="-964" rx="3.2" ry="3.2"/>
</g>
<!-- unit -->
<g id="node4" class="node">
<title>unit</title>
<g id="a_node4"><a xlink:href="../../tables/unit.html" xlink:title="unit" target="_top">
<polygon fill="#ffffff" stroke="transparent" points="8,-37 8,-337 161,-337 161,-37 8,-37"/>
<polygon fill="#f5f5f5" stroke="transparent" points="8.5,-315 8.5,-337 161.5,-337 161.5,-315 8.5,-315"/>
<polygon fill="none" stroke="black" points="8.5,-315 8.5,-337 161.5,-337 161.5,-315 8.5,-315"/>
<text text-anchor="start" x="13.5" y="-324.2" font-family="Helvetica,sans-Serif" font-weight="bold" font-size="11.00">unit</text>
<text text-anchor="start" x="119.5" y="-323.2" font-family="Helvetica,sans-Serif" font-size="11.00">[table]</text>
<polygon fill="none" stroke="black" points="8.5,-293 8.5,-315 161.5,-315 161.5,-293 8.5,-293"/>
<image xlink:href="../../images/primaryKeys.png" width="11px" height="12px" preserveAspectRatio="xMinYMin meet" x="13.5" y="-310"/>
<text text-anchor="start" x="28.5" y="-301.2" font-family="Helvetica,sans-Serif" font-size="11.00">id</text>
<polygon fill="#ffffff" stroke="transparent" points="8.5,-271 8.5,-293 161.5,-293 161.5,-271 8.5,-271"/>
<polygon fill="none" stroke="black" points="8.5,-271 8.5,-293 161.5,-293 161.5,-271 8.5,-271"/>
<text text-anchor="start" x="28.5" y="-279.2" font-family="Helvetica,sans-Serif" font-size="11.00">identifier</text>
<polygon fill="none" stroke="black" points="8.5,-249 8.5,-271 161.5,-271 161.5,-249 8.5,-249"/>
<image xlink:href="../../images/foreignKeys.png" width="11px" height="12px" preserveAspectRatio="xMinYMin meet" x="13.5" y="-266"/>
<text text-anchor="start" x="28.5" y="-257.2" font-family="Helvetica,sans-Serif" font-size="11.00">fk_company</text>
<polygon fill="none" stroke="black" points="8.5,-227 8.5,-249 161.5,-249 161.5,-227 8.5,-227"/>
<image xlink:href="../../images/foreignKeys.png" width="11px" height="12px" preserveAspectRatio="xMinYMin meet" x="13.5" y="-244"/>
<text text-anchor="start" x="28.5" y="-235.2" font-family="Helvetica,sans-Serif" font-size="11.00">fk_sector</text>
<polygon fill="none" stroke="black" points="8.5,-205 8.5,-227 161.5,-227 161.5,-205 8.5,-205"/>
<image xlink:href="../../images/foreignKeys.png" width="11px" height="12px" preserveAspectRatio="xMinYMin meet" x="13.5" y="-222"/>
<text text-anchor="start" x="28.5" y="-213.2" font-family="Helvetica,sans-Serif" font-size="11.00">fk_cemetery</text>
<polygon fill="none" stroke="black" points="8.5,-183 8.5,-205 161.5,-205 161.5,-183 8.5,-183"/>
<image xlink:href="../../images/foreignKeys.png" width="11px" height="12px" preserveAspectRatio="xMinYMin meet" x="13.5" y="-200"/>
<text text-anchor="start" x="28.5" y="-191.2" font-family="Helvetica,sans-Serif" font-size="11.00">fk_size</text>
<polygon fill="none" stroke="black" points="8.5,-161 8.5,-183 161.5,-183 161.5,-161 8.5,-161"/>
<image xlink:href="../../images/foreignKeys.png" width="11px" height="12px" preserveAspectRatio="xMinYMin meet" x="13.5" y="-178"/>
<text text-anchor="start" x="28.5" y="-169.2" font-family="Helvetica,sans-Serif" font-size="11.00">fk_kind</text>
<polygon fill="none" stroke="black" points="8.5,-139 8.5,-161 161.5,-161 161.5,-139 8.5,-139"/>
<image xlink:href="../../images/foreignKeys.png" width="11px" height="12px" preserveAspectRatio="xMinYMin meet" x="13.5" y="-156"/>
<text text-anchor="start" x="28.5" y="-147.2" font-family="Helvetica,sans-Serif" font-size="11.00">fk_urn_material</text>
<polygon fill="none" stroke="black" points="8.5,-117 8.5,-139 161.5,-139 161.5,-117 8.5,-117"/>
<image xlink:href="../../images/foreignKeys.png" width="11px" height="12px" preserveAspectRatio="xMinYMin meet" x="13.5" y="-134"/>
<text text-anchor="start" x="28.5" y="-125.2" font-family="Helvetica,sans-Serif" font-size="11.00">fk_urn_shape</text>
<polygon fill="none" stroke="black" points="8.5,-95 8.5,-117 161.5,-117 161.5,-95 8.5,-95"/>
<image xlink:href="../../images/foreignKeys.png" width="11px" height="12px" preserveAspectRatio="xMinYMin meet" x="13.5" y="-112"/>
<text text-anchor="start" x="28.5" y="-103.2" font-family="Helvetica,sans-Serif" font-size="11.00">fk_contact_person</text>
<polygon fill="none" stroke="black" points="8.5,-73 8.5,-95 161.5,-95 161.5,-73 8.5,-73"/>
<image xlink:href="../../images/foreignKeys.png" width="11px" height="12px" preserveAspectRatio="xMinYMin meet" x="13.5" y="-90"/>
<text text-anchor="start" x="28.5" y="-81.2" font-family="Helvetica,sans-Serif" font-size="11.00">fk_control</text>
<polygon fill="none" stroke="black" points="8.5,-55 8.5,-73 161.5,-73 161.5,-55 8.5,-55"/>
<text text-anchor="start" x="11.5" y="-61.2" font-family="Helvetica,sans-Serif" font-size="11.00">...</text>
<polygon fill="#ffffff" stroke="transparent" points="8.5,-37 8.5,-55 161.5,-55 161.5,-37 8.5,-37"/>
<polygon fill="none" stroke="black" points="8.5,-37 8.5,-55 161.5,-55 161.5,-37 8.5,-37"/>
<polygon fill="#ffffff" stroke="transparent" points="9.5,-38 9.5,-54 64.5,-54 64.5,-38 9.5,-38"/>
<text text-anchor="start" x="11.5" y="-43.2" font-family="Helvetica,sans-Serif" font-size="11.00">&lt; 9</text>
<polygon fill="#ffffff" stroke="transparent" points="64.5,-38 64.5,-54 106.5,-54 106.5,-38 64.5,-38"/>
<text text-anchor="start" x="81.5" y="-43.2" font-family="Helvetica,sans-Serif" font-size="11.00"> &#160;</text>
<polygon fill="#ffffff" stroke="transparent" points="106.5,-38 106.5,-54 160.5,-54 160.5,-38 106.5,-38"/>
<text text-anchor="start" x="138.5" y="-43.2" font-family="Helvetica,sans-Serif" font-size="11.00">2 &gt;</text>
<polygon fill="black" stroke="black" points="64.5,-38 64.5,-54 64.5,-54 64.5,-38 64.5,-38"/>
<polygon fill="black" stroke="black" points="106.5,-38 106.5,-54 106.5,-54 106.5,-38 106.5,-38"/>
</a>
</g>
</g>
<!-- deceased&#45;&gt;unit -->
<g id="edge5" class="edge">
<title>deceased:w&#45;&gt;unit:e</title>
<path fill="none" stroke="black" d="M196.28,-304C185.29,-304 178.16,-304 162.5,-304"/>
<polygon fill="black" stroke="black" points="203,-304 211,-307.6 207,-304 211,-304 211,-304 211,-304 207,-304 211,-300.4 203,-304 203,-304"/>
<ellipse fill="none" stroke="black" cx="199.8" cy="-304" rx="3.2" ry="3.2"/>
</g>
</g>
</svg>
