<?xml version="1.0" encoding="UTF-8" standalone="no"?>
<!DOCTYPE svg PUBLIC "-//W3C//DTD SVG 1.1//EN"
 "http://www.w3.org/Graphics/SVG/1.1/DTD/svg11.dtd">
<!-- Generated by graphviz version 2.43.0 (0)
 -->
<!-- Title: oneDegreeRelationshipsDiagram Pages: 1 -->
<svg width="964pt" height="776pt"
 viewBox="0.00 0.00 964.00 776.26" xmlns="http://www.w3.org/2000/svg" xmlns:xlink="http://www.w3.org/1999/xlink">
<g id="graph0" class="graph" transform="scale(1 1) rotate(0) translate(4 772.26)">
<title>oneDegreeRelationshipsDiagram</title>
<polygon fill="#ffffff" stroke="transparent" points="-4,4 -4,-772.26 960,-772.26 960,4 -4,4"/>
<text text-anchor="middle" x="79.5" y="-7.2" font-family="Helvetica,sans-Serif" font-size="11.00">Generated by SchemaSpy</text>
<!-- contract -->
<g id="node1" class="node">
<title>contract</title>
<g id="a_node1"><a xlink:href="../../tables/contract.html" xlink:title="contract" target="_top">
<polygon fill="#ffffff" stroke="transparent" points="460.5,-531 460.5,-677 619.5,-677 619.5,-531 460.5,-531"/>
<polygon fill="#f5f5f5" stroke="transparent" points="461,-655 461,-677 620,-677 620,-655 461,-655"/>
<polygon fill="none" stroke="black" points="461,-655 461,-677 620,-677 620,-655 461,-655"/>
<text text-anchor="start" x="466" y="-664.2" font-family="Helvetica,sans-Serif" font-weight="bold" font-size="11.00">contract</text>
<text text-anchor="start" x="578" y="-663.2" font-family="Helvetica,sans-Serif" font-size="11.00">[table]</text>
<polygon fill="none" stroke="black" points="461,-633 461,-655 620,-655 620,-633 461,-633"/>
<image xlink:href="../../images/primaryKeys.png" width="11px" height="12px" preserveAspectRatio="xMinYMin meet" x="466" y="-650"/>
<text text-anchor="start" x="481" y="-641.2" font-family="Helvetica,sans-Serif" font-size="11.00">id</text>
<polygon fill="none" stroke="black" points="461,-611 461,-633 620,-633 620,-611 461,-611"/>
<image xlink:href="../../images/foreignKeys.png" width="11px" height="12px" preserveAspectRatio="xMinYMin meet" x="466" y="-628"/>
<text text-anchor="start" x="481" y="-619.2" font-family="Helvetica,sans-Serif" font-size="11.00">fk_kind</text>
<polygon fill="none" stroke="black" points="461,-589 461,-611 620,-611 620,-589 461,-589"/>
<image xlink:href="../../images/foreignKeys.png" width="11px" height="12px" preserveAspectRatio="xMinYMin meet" x="466" y="-606"/>
<text text-anchor="start" x="481" y="-597.2" font-family="Helvetica,sans-Serif" font-size="11.00">fk_contract_person</text>
<polygon fill="none" stroke="black" points="461,-567 461,-589 620,-589 620,-567 461,-567"/>
<image xlink:href="../../images/foreignKeys.png" width="11px" height="12px" preserveAspectRatio="xMinYMin meet" x="466" y="-584"/>
<text text-anchor="start" x="481" y="-575.2" font-family="Helvetica,sans-Serif" font-size="11.00">fk_unit</text>
<polygon fill="none" stroke="black" points="461,-549 461,-567 620,-567 620,-549 461,-549"/>
<text text-anchor="start" x="464" y="-555.2" font-family="Helvetica,sans-Serif" font-size="11.00">...</text>
<polygon fill="#ffffff" stroke="transparent" points="461,-531 461,-549 620,-549 620,-531 461,-531"/>
<polygon fill="none" stroke="black" points="461,-531 461,-549 620,-549 620,-531 461,-531"/>
<polygon fill="#ffffff" stroke="transparent" points="462,-532 462,-548 519,-548 519,-532 462,-532"/>
<text text-anchor="start" x="464" y="-537.2" font-family="Helvetica,sans-Serif" font-size="11.00">&lt; 3</text>
<polygon fill="#ffffff" stroke="transparent" points="519,-532 519,-548 563,-548 563,-532 519,-532"/>
<text text-anchor="start" x="537" y="-537.2" font-family="Helvetica,sans-Serif" font-size="11.00"> &#160;</text>
<polygon fill="#ffffff" stroke="transparent" points="563,-532 563,-548 619,-548 619,-532 563,-532"/>
<text text-anchor="start" x="597" y="-537.2" font-family="Helvetica,sans-Serif" font-size="11.00">1 &gt;</text>
<polygon fill="black" stroke="black" points="519,-532 519,-548 519,-548 519,-532 519,-532"/>
<polygon fill="black" stroke="black" points="563,-532 563,-548 563,-548 563,-532 563,-532"/>
</a>
</g>
</g>
<!-- contact -->
<g id="node2" class="node">
<title>contact</title>
<g id="a_node2"><a xlink:href="../../tables/contact.html" xlink:title="contact" target="_top">
<polygon fill="#ffffff" stroke="transparent" points="8,-386 8,-730 180,-730 180,-386 8,-386"/>
<polygon fill="#f5f5f5" stroke="transparent" points="8,-708 8,-730 180,-730 180,-708 8,-708"/>
<polygon fill="none" stroke="black" points="8,-708 8,-730 180,-730 180,-708 8,-708"/>
<text text-anchor="start" x="13" y="-717.2" font-family="Helvetica,sans-Serif" font-weight="bold" font-size="11.00">contact</text>
<text text-anchor="start" x="138" y="-716.2" font-family="Helvetica,sans-Serif" font-size="11.00">[table]</text>
<polygon fill="none" stroke="black" points="8,-686 8,-708 180,-708 180,-686 8,-686"/>
<image xlink:href="../../images/primaryKeys.png" width="11px" height="12px" preserveAspectRatio="xMinYMin meet" x="13" y="-703"/>
<text text-anchor="start" x="28" y="-694.2" font-family="Helvetica,sans-Serif" font-size="11.00">id</text>
<polygon fill="#ffffff" stroke="transparent" points="8,-664 8,-686 180,-686 180,-664 8,-664"/>
<polygon fill="none" stroke="black" points="8,-664 8,-686 180,-686 180,-664 8,-664"/>
<image xlink:href="../../images/foreignKeys.png" width="11px" height="12px" preserveAspectRatio="xMinYMin meet" x="13" y="-681"/>
<text text-anchor="start" x="28" y="-672.2" font-family="Helvetica,sans-Serif" font-size="11.00">fk_kind</text>
<polygon fill="#ffffff" stroke="transparent" points="8,-642 8,-664 180,-664 180,-642 8,-642"/>
<polygon fill="none" stroke="black" points="8,-642 8,-664 180,-664 180,-642 8,-642"/>
<text text-anchor="start" x="28" y="-650.2" font-family="Helvetica,sans-Serif" font-size="11.00">fk_organisation</text>
<polygon fill="#ffffff" stroke="transparent" points="8,-620 8,-642 180,-642 180,-620 8,-620"/>
<polygon fill="none" stroke="black" points="8,-620 8,-642 180,-642 180,-620 8,-620"/>
<image xlink:href="../../images/foreignKeys.png" width="11px" height="12px" preserveAspectRatio="xMinYMin meet" x="13" y="-637"/>
<text text-anchor="start" x="28" y="-628.2" font-family="Helvetica,sans-Serif" font-size="11.00">fk_civility</text>
<polygon fill="#ffffff" stroke="transparent" points="8,-598 8,-620 180,-620 180,-598 8,-598"/>
<polygon fill="none" stroke="black" points="8,-598 8,-620 180,-620 180,-598 8,-598"/>
<text text-anchor="start" x="28" y="-606.2" font-family="Helvetica,sans-Serif" font-size="11.00">first_name</text>
<polygon fill="#ffffff" stroke="transparent" points="8,-576 8,-598 180,-598 180,-576 8,-576"/>
<polygon fill="none" stroke="black" points="8,-576 8,-598 180,-598 180,-576 8,-576"/>
<text text-anchor="start" x="28" y="-584.2" font-family="Helvetica,sans-Serif" font-size="11.00">last_name</text>
<polygon fill="#ffffff" stroke="transparent" points="8,-554 8,-576 180,-576 180,-554 8,-554"/>
<polygon fill="none" stroke="black" points="8,-554 8,-576 180,-576 180,-554 8,-554"/>
<text text-anchor="start" x="28" y="-562.2" font-family="Helvetica,sans-Serif" font-size="11.00">street_name</text>
<polygon fill="#ffffff" stroke="transparent" points="8,-532 8,-554 180,-554 180,-532 8,-532"/>
<polygon fill="none" stroke="black" points="8,-532 8,-554 180,-554 180,-532 8,-532"/>
<text text-anchor="start" x="28" y="-540.2" font-family="Helvetica,sans-Serif" font-size="11.00">house_number</text>
<polygon fill="#ffffff" stroke="transparent" points="8,-510 8,-532 180,-532 180,-510 8,-510"/>
<polygon fill="none" stroke="black" points="8,-510 8,-532 180,-532 180,-510 8,-510"/>
<text text-anchor="start" x="28" y="-518.2" font-family="Helvetica,sans-Serif" font-size="11.00">address_supplement</text>
<polygon fill="#ffffff" stroke="transparent" points="8,-488 8,-510 180,-510 180,-488 8,-488"/>
<polygon fill="none" stroke="black" points="8,-488 8,-510 180,-510 180,-488 8,-488"/>
<text text-anchor="start" x="28" y="-496.2" font-family="Helvetica,sans-Serif" font-size="11.00">city</text>
<polygon fill="#ffffff" stroke="transparent" points="8,-466 8,-488 180,-488 180,-466 8,-466"/>
<polygon fill="none" stroke="black" points="8,-466 8,-488 180,-488 180,-466 8,-466"/>
<text text-anchor="start" x="28" y="-474.2" font-family="Helvetica,sans-Serif" font-size="11.00">postal_code</text>
<polygon fill="#ffffff" stroke="transparent" points="8,-444 8,-466 180,-466 180,-444 8,-444"/>
<polygon fill="none" stroke="black" points="8,-444 8,-466 180,-466 180,-444 8,-444"/>
<text text-anchor="start" x="28" y="-452.2" font-family="Helvetica,sans-Serif" font-size="11.00">phone</text>
<polygon fill="#ffffff" stroke="transparent" points="8,-422 8,-444 180,-444 180,-422 8,-422"/>
<polygon fill="none" stroke="black" points="8,-422 8,-444 180,-444 180,-422 8,-422"/>
<text text-anchor="start" x="28" y="-430.2" font-family="Helvetica,sans-Serif" font-size="11.00">email</text>
<polygon fill="none" stroke="black" points="8,-404 8,-422 180,-422 180,-404 8,-404"/>
<text text-anchor="start" x="11" y="-410.2" font-family="Helvetica,sans-Serif" font-size="11.00">...</text>
<polygon fill="#ffffff" stroke="transparent" points="8,-386 8,-404 180,-404 180,-386 8,-386"/>
<polygon fill="none" stroke="black" points="8,-386 8,-404 180,-404 180,-386 8,-386"/>
<polygon fill="#ffffff" stroke="transparent" points="9,-387 9,-403 70,-403 70,-387 9,-387"/>
<text text-anchor="start" x="11" y="-392.2" font-family="Helvetica,sans-Serif" font-size="11.00">&lt; 2</text>
<polygon fill="#ffffff" stroke="transparent" points="70,-387 70,-403 119,-403 119,-387 70,-387"/>
<text text-anchor="start" x="90.5" y="-392.2" font-family="Helvetica,sans-Serif" font-size="11.00"> &#160;</text>
<polygon fill="#ffffff" stroke="transparent" points="119,-387 119,-403 179,-403 179,-387 119,-387"/>
<text text-anchor="start" x="157" y="-392.2" font-family="Helvetica,sans-Serif" font-size="11.00">4 &gt;</text>
<polygon fill="black" stroke="black" points="70,-387 70,-403 70,-403 70,-387 70,-387"/>
<polygon fill="black" stroke="black" points="119,-387 119,-403 119,-403 119,-387 119,-387"/>
</a>
</g>
</g>
<!-- contract&#45;&gt;contact -->
<g id="edge1" class="edge">
<title>contract:w&#45;&gt;contact:e</title>
<path fill="none" stroke="black" d="M445.49,-600.41C327.3,-607.25 307.28,-697 181,-697"/>
<polygon fill="black" stroke="black" points="452,-600.23 460.1,-603.6 456,-600.11 460,-600 460,-600 460,-600 456,-600.11 459.9,-596.4 452,-600.23 452,-600.23"/>
<ellipse fill="none" stroke="black" cx="448.8" cy="-600.32" rx="3.2" ry="3.2"/>
</g>
<!-- unit -->
<g id="node3" class="node">
<title>unit</title>
<g id="a_node3"><a xlink:href="../../tables/unit.html" xlink:title="unit" target="_top">
<polygon fill="#ffffff" stroke="transparent" points="229,-148 229,-448 382,-448 382,-148 229,-148"/>
<polygon fill="#f5f5f5" stroke="transparent" points="229.5,-426 229.5,-448 382.5,-448 382.5,-426 229.5,-426"/>
<polygon fill="none" stroke="black" points="229.5,-426 229.5,-448 382.5,-448 382.5,-426 229.5,-426"/>
<text text-anchor="start" x="234.5" y="-435.2" font-family="Helvetica,sans-Serif" font-weight="bold" font-size="11.00">unit</text>
<text text-anchor="start" x="340.5" y="-434.2" font-family="Helvetica,sans-Serif" font-size="11.00">[table]</text>
<polygon fill="none" stroke="black" points="229.5,-404 229.5,-426 382.5,-426 382.5,-404 229.5,-404"/>
<image xlink:href="../../images/primaryKeys.png" width="11px" height="12px" preserveAspectRatio="xMinYMin meet" x="234.5" y="-421"/>
<text text-anchor="start" x="249.5" y="-412.2" font-family="Helvetica,sans-Serif" font-size="11.00">id</text>
<polygon fill="#ffffff" stroke="transparent" points="229.5,-382 229.5,-404 382.5,-404 382.5,-382 229.5,-382"/>
<polygon fill="none" stroke="black" points="229.5,-382 229.5,-404 382.5,-404 382.5,-382 229.5,-382"/>
<text text-anchor="start" x="249.5" y="-390.2" font-family="Helvetica,sans-Serif" font-size="11.00">identifier</text>
<polygon fill="none" stroke="black" points="229.5,-360 229.5,-382 382.5,-382 382.5,-360 229.5,-360"/>
<image xlink:href="../../images/foreignKeys.png" width="11px" height="12px" preserveAspectRatio="xMinYMin meet" x="234.5" y="-377"/>
<text text-anchor="start" x="249.5" y="-368.2" font-family="Helvetica,sans-Serif" font-size="11.00">fk_company</text>
<polygon fill="none" stroke="black" points="229.5,-338 229.5,-360 382.5,-360 382.5,-338 229.5,-338"/>
<image xlink:href="../../images/foreignKeys.png" width="11px" height="12px" preserveAspectRatio="xMinYMin meet" x="234.5" y="-355"/>
<text text-anchor="start" x="249.5" y="-346.2" font-family="Helvetica,sans-Serif" font-size="11.00">fk_sector</text>
<polygon fill="none" stroke="black" points="229.5,-316 229.5,-338 382.5,-338 382.5,-316 229.5,-316"/>
<image xlink:href="../../images/foreignKeys.png" width="11px" height="12px" preserveAspectRatio="xMinYMin meet" x="234.5" y="-333"/>
<text text-anchor="start" x="249.5" y="-324.2" font-family="Helvetica,sans-Serif" font-size="11.00">fk_cemetery</text>
<polygon fill="none" stroke="black" points="229.5,-294 229.5,-316 382.5,-316 382.5,-294 229.5,-294"/>
<image xlink:href="../../images/foreignKeys.png" width="11px" height="12px" preserveAspectRatio="xMinYMin meet" x="234.5" y="-311"/>
<text text-anchor="start" x="249.5" y="-302.2" font-family="Helvetica,sans-Serif" font-size="11.00">fk_size</text>
<polygon fill="none" stroke="black" points="229.5,-272 229.5,-294 382.5,-294 382.5,-272 229.5,-272"/>
<image xlink:href="../../images/foreignKeys.png" width="11px" height="12px" preserveAspectRatio="xMinYMin meet" x="234.5" y="-289"/>
<text text-anchor="start" x="249.5" y="-280.2" font-family="Helvetica,sans-Serif" font-size="11.00">fk_kind</text>
<polygon fill="none" stroke="black" points="229.5,-250 229.5,-272 382.5,-272 382.5,-250 229.5,-250"/>
<image xlink:href="../../images/foreignKeys.png" width="11px" height="12px" preserveAspectRatio="xMinYMin meet" x="234.5" y="-267"/>
<text text-anchor="start" x="249.5" y="-258.2" font-family="Helvetica,sans-Serif" font-size="11.00">fk_urn_material</text>
<polygon fill="none" stroke="black" points="229.5,-228 229.5,-250 382.5,-250 382.5,-228 229.5,-228"/>
<image xlink:href="../../images/foreignKeys.png" width="11px" height="12px" preserveAspectRatio="xMinYMin meet" x="234.5" y="-245"/>
<text text-anchor="start" x="249.5" y="-236.2" font-family="Helvetica,sans-Serif" font-size="11.00">fk_urn_shape</text>
<polygon fill="none" stroke="black" points="229.5,-206 229.5,-228 382.5,-228 382.5,-206 229.5,-206"/>
<image xlink:href="../../images/foreignKeys.png" width="11px" height="12px" preserveAspectRatio="xMinYMin meet" x="234.5" y="-223"/>
<text text-anchor="start" x="249.5" y="-214.2" font-family="Helvetica,sans-Serif" font-size="11.00">fk_contact_person</text>
<polygon fill="none" stroke="black" points="229.5,-184 229.5,-206 382.5,-206 382.5,-184 229.5,-184"/>
<image xlink:href="../../images/foreignKeys.png" width="11px" height="12px" preserveAspectRatio="xMinYMin meet" x="234.5" y="-201"/>
<text text-anchor="start" x="249.5" y="-192.2" font-family="Helvetica,sans-Serif" font-size="11.00">fk_control</text>
<polygon fill="none" stroke="black" points="229.5,-166 229.5,-184 382.5,-184 382.5,-166 229.5,-166"/>
<text text-anchor="start" x="232.5" y="-172.2" font-family="Helvetica,sans-Serif" font-size="11.00">...</text>
<polygon fill="#ffffff" stroke="transparent" points="229.5,-148 229.5,-166 382.5,-166 382.5,-148 229.5,-148"/>
<polygon fill="none" stroke="black" points="229.5,-148 229.5,-166 382.5,-166 382.5,-148 229.5,-148"/>
<polygon fill="#ffffff" stroke="transparent" points="230.5,-149 230.5,-165 285.5,-165 285.5,-149 230.5,-149"/>
<text text-anchor="start" x="232.5" y="-154.2" font-family="Helvetica,sans-Serif" font-size="11.00">&lt; 9</text>
<polygon fill="#ffffff" stroke="transparent" points="285.5,-149 285.5,-165 327.5,-165 327.5,-149 285.5,-149"/>
<text text-anchor="start" x="302.5" y="-154.2" font-family="Helvetica,sans-Serif" font-size="11.00"> &#160;</text>
<polygon fill="#ffffff" stroke="transparent" points="327.5,-149 327.5,-165 381.5,-165 381.5,-149 327.5,-149"/>
<text text-anchor="start" x="359.5" y="-154.2" font-family="Helvetica,sans-Serif" font-size="11.00">3 &gt;</text>
<polygon fill="black" stroke="black" points="285.5,-149 285.5,-165 285.5,-165 285.5,-149 285.5,-149"/>
<polygon fill="black" stroke="black" points="327.5,-149 327.5,-165 327.5,-165 327.5,-149 327.5,-149"/>
</a>
</g>
</g>
<!-- contract&#45;&gt;unit -->
<g id="edge2" class="edge">
<title>contract:w&#45;&gt;unit:e</title>
<path fill="none" stroke="black" d="M445.43,-575.7C390.91,-555.88 457.9,-415 383.5,-415"/>
<polygon fill="black" stroke="black" points="452.1,-576.75 459.44,-581.56 456.05,-577.38 460,-578 460,-578 460,-578 456.05,-577.38 460.56,-574.44 452.1,-576.75 452.1,-576.75"/>
<ellipse fill="none" stroke="black" cx="448.94" cy="-576.25" rx="3.2" ry="3.2"/>
</g>
<!-- unit&#45;&gt;contact -->
<g id="edge16" class="edge">
<title>unit:w&#45;&gt;contact:e</title>
<path fill="none" stroke="black" d="M214.22,-220.59C137.55,-264.51 282.74,-697 181,-697"/>
<polygon fill="black" stroke="black" points="220.74,-218.95 229.38,-220.49 224.62,-217.97 228.5,-217 228.5,-217 228.5,-217 224.62,-217.97 227.62,-213.51 220.74,-218.95 220.74,-218.95"/>
<ellipse fill="none" stroke="black" cx="217.64" cy="-219.73" rx="3.2" ry="3.2"/>
</g>
<!-- cemetery -->
<g id="node6" class="node">
<title>cemetery</title>
<g id="a_node6"><a xlink:href="../../tables/cemetery.html" xlink:title="cemetery" target="_top">
<polygon fill="#ffffff" stroke="transparent" points="36.5,-280 36.5,-360 151.5,-360 151.5,-280 36.5,-280"/>
<polygon fill="#f5f5f5" stroke="transparent" points="37,-338 37,-360 152,-360 152,-338 37,-338"/>
<polygon fill="none" stroke="black" points="37,-338 37,-360 152,-360 152,-338 37,-338"/>
<text text-anchor="start" x="42" y="-347.2" font-family="Helvetica,sans-Serif" font-weight="bold" font-size="11.00">cemetery</text>
<text text-anchor="start" x="110" y="-346.2" font-family="Helvetica,sans-Serif" font-size="11.00">[table]</text>
<polygon fill="none" stroke="black" points="37,-316 37,-338 152,-338 152,-316 37,-316"/>
<image xlink:href="../../images/primaryKeys.png" width="11px" height="12px" preserveAspectRatio="xMinYMin meet" x="42" y="-333"/>
<text text-anchor="start" x="65" y="-324.2" font-family="Helvetica,sans-Serif" font-size="11.00">id</text>
<polygon fill="none" stroke="black" points="37,-298 37,-316 152,-316 152,-298 37,-298"/>
<text text-anchor="start" x="40" y="-304.2" font-family="Helvetica,sans-Serif" font-size="11.00">...</text>
<polygon fill="#ffffff" stroke="transparent" points="37,-280 37,-298 152,-298 152,-280 37,-280"/>
<polygon fill="none" stroke="black" points="37,-280 37,-298 152,-298 152,-280 37,-280"/>
<polygon fill="#ffffff" stroke="transparent" points="38,-281 38,-297 72,-297 72,-281 38,-281"/>
<text text-anchor="start" x="40" y="-286.2" font-family="Helvetica,sans-Serif" font-size="11.00"> &#160;</text>
<polygon fill="#ffffff" stroke="transparent" points="72,-281 72,-297 106,-297 106,-281 72,-281"/>
<text text-anchor="start" x="85" y="-286.2" font-family="Helvetica,sans-Serif" font-size="11.00"> &#160;</text>
<polygon fill="#ffffff" stroke="transparent" points="106,-281 106,-297 151,-297 151,-281 106,-281"/>
<text text-anchor="start" x="129" y="-286.2" font-family="Helvetica,sans-Serif" font-size="11.00">3 &gt;</text>
<polygon fill="black" stroke="black" points="72,-281 72,-297 72,-297 72,-281 72,-281"/>
<polygon fill="black" stroke="black" points="106,-281 106,-297 106,-297 106,-281 106,-281"/>
</a>
</g>
</g>
<!-- unit&#45;&gt;cemetery -->
<g id="edge14" class="edge">
<title>unit:w&#45;&gt;cemetery:e</title>
<path fill="none" stroke="black" d="M213.79,-327C191.51,-327 181.05,-327 153,-327"/>
<polygon fill="black" stroke="black" points="220.5,-327 228.5,-330.6 224.5,-327 228.5,-327 228.5,-327 228.5,-327 224.5,-327 228.5,-323.4 220.5,-327 220.5,-327"/>
<ellipse fill="none" stroke="black" cx="217.3" cy="-327" rx="3.2" ry="3.2"/>
</g>
<!-- organisation -->
<g id="node8" class="node">
<title>organisation</title>
<g id="a_node8"><a xlink:href="../../tables/organisation.html" xlink:title="organisation" target="_top">
<polygon fill="#ffffff" stroke="transparent" points="24.5,-165 24.5,-245 163.5,-245 163.5,-165 24.5,-165"/>
<polygon fill="#f5f5f5" stroke="transparent" points="25,-223 25,-245 164,-245 164,-223 25,-223"/>
<polygon fill="none" stroke="black" points="25,-223 25,-245 164,-245 164,-223 25,-223"/>
<text text-anchor="start" x="30" y="-232.2" font-family="Helvetica,sans-Serif" font-weight="bold" font-size="11.00">organisation</text>
<text text-anchor="start" x="122" y="-231.2" font-family="Helvetica,sans-Serif" font-size="11.00">[table]</text>
<polygon fill="none" stroke="black" points="25,-201 25,-223 164,-223 164,-201 25,-201"/>
<image xlink:href="../../images/primaryKeys.png" width="11px" height="12px" preserveAspectRatio="xMinYMin meet" x="30" y="-218"/>
<text text-anchor="start" x="58" y="-209.2" font-family="Helvetica,sans-Serif" font-size="11.00">id</text>
<polygon fill="none" stroke="black" points="25,-183 25,-201 164,-201 164,-183 25,-183"/>
<text text-anchor="start" x="28" y="-189.2" font-family="Helvetica,sans-Serif" font-size="11.00">...</text>
<polygon fill="#ffffff" stroke="transparent" points="25,-165 25,-183 164,-183 164,-165 25,-165"/>
<polygon fill="none" stroke="black" points="25,-165 25,-183 164,-183 164,-165 25,-165"/>
<polygon fill="#ffffff" stroke="transparent" points="26,-166 26,-182 68,-182 68,-166 26,-166"/>
<text text-anchor="start" x="28" y="-171.2" font-family="Helvetica,sans-Serif" font-size="11.00"> &#160;</text>
<polygon fill="#ffffff" stroke="transparent" points="68,-166 68,-182 110,-182 110,-166 68,-166"/>
<text text-anchor="start" x="85" y="-171.2" font-family="Helvetica,sans-Serif" font-size="11.00"> &#160;</text>
<polygon fill="#ffffff" stroke="transparent" points="110,-166 110,-182 163,-182 163,-166 110,-166"/>
<text text-anchor="start" x="141" y="-171.2" font-family="Helvetica,sans-Serif" font-size="11.00">2 &gt;</text>
<polygon fill="black" stroke="black" points="68,-166 68,-182 68,-182 68,-166 68,-166"/>
<polygon fill="black" stroke="black" points="110,-166 110,-182 110,-182 110,-166 110,-166"/>
</a>
</g>
</g>
<!-- unit&#45;&gt;organisation -->
<g id="edge15" class="edge">
<title>unit:w&#45;&gt;organisation:e</title>
<path fill="none" stroke="black" d="M214.15,-368.5C164.66,-348.27 235.45,-212 165,-212"/>
<polygon fill="black" stroke="black" points="220.62,-369.63 227.88,-374.55 224.56,-370.31 228.5,-371 228.5,-371 228.5,-371 224.56,-370.31 229.12,-367.45 220.62,-369.63 220.62,-369.63"/>
<ellipse fill="none" stroke="black" cx="217.47" cy="-369.08" rx="3.2" ry="3.2"/>
</g>
<!-- sector -->
<g id="node9" class="node">
<title>sector</title>
<g id="a_node9"><a xlink:href="../../tables/sector.html" xlink:title="sector" target="_top">
<polygon fill="#ffffff" stroke="transparent" points="42,-37 42,-117 146,-117 146,-37 42,-37"/>
<polygon fill="#f5f5f5" stroke="transparent" points="42,-95 42,-117 146,-117 146,-95 42,-95"/>
<polygon fill="none" stroke="black" points="42,-95 42,-117 146,-117 146,-95 42,-95"/>
<text text-anchor="start" x="47" y="-104.2" font-family="Helvetica,sans-Serif" font-weight="bold" font-size="11.00">sector</text>
<text text-anchor="start" x="104" y="-103.2" font-family="Helvetica,sans-Serif" font-size="11.00">[table]</text>
<polygon fill="none" stroke="black" points="42,-73 42,-95 146,-95 146,-73 42,-73"/>
<image xlink:href="../../images/primaryKeys.png" width="11px" height="12px" preserveAspectRatio="xMinYMin meet" x="47" y="-90"/>
<text text-anchor="start" x="62" y="-81.2" font-family="Helvetica,sans-Serif" font-size="11.00">id</text>
<polygon fill="none" stroke="black" points="42,-55 42,-73 146,-73 146,-55 42,-55"/>
<text text-anchor="start" x="45" y="-61.2" font-family="Helvetica,sans-Serif" font-size="11.00">...</text>
<polygon fill="#ffffff" stroke="transparent" points="42,-37 42,-55 146,-55 146,-37 42,-37"/>
<polygon fill="none" stroke="black" points="42,-37 42,-55 146,-55 146,-37 42,-37"/>
<polygon fill="#ffffff" stroke="transparent" points="43,-38 43,-54 73,-54 73,-38 43,-38"/>
<text text-anchor="start" x="45" y="-43.2" font-family="Helvetica,sans-Serif" font-size="11.00"> &#160;</text>
<polygon fill="#ffffff" stroke="transparent" points="73,-38 73,-54 103,-54 103,-38 73,-38"/>
<text text-anchor="start" x="84" y="-43.2" font-family="Helvetica,sans-Serif" font-size="11.00"> &#160;</text>
<polygon fill="#ffffff" stroke="transparent" points="103,-38 103,-54 145,-54 145,-38 103,-38"/>
<text text-anchor="start" x="123" y="-43.2" font-family="Helvetica,sans-Serif" font-size="11.00">2 &gt;</text>
<polygon fill="black" stroke="black" points="73,-38 73,-54 73,-54 73,-38 73,-38"/>
<polygon fill="black" stroke="black" points="103,-38 103,-54 103,-54 103,-38 103,-38"/>
</a>
</g>
</g>
<!-- unit&#45;&gt;sector -->
<g id="edge17" class="edge">
<title>unit:w&#45;&gt;sector:e</title>
<path fill="none" stroke="black" d="M215.11,-342.75C188.61,-313.62 201.81,-191.16 188,-155 175,-120.96 183.44,-84 147,-84"/>
<polygon fill="black" stroke="black" points="221.25,-345.61 226.98,-352.26 224.88,-347.31 228.5,-349 228.5,-349 228.5,-349 224.88,-347.31 230.02,-345.74 221.25,-345.61 221.25,-345.61"/>
<ellipse fill="none" stroke="black" cx="218.35" cy="-344.26" rx="3.2" ry="3.2"/>
</g>
<!-- deceased -->
<g id="node4" class="node">
<title>deceased</title>
<g id="a_node4"><a xlink:href="../../tables/deceased.html" xlink:title="deceased" target="_top">
<polygon fill="#ffffff" stroke="transparent" points="431,-298 431,-510 649,-510 649,-298 431,-298"/>
<polygon fill="#f5f5f5" stroke="transparent" points="431,-488 431,-510 649,-510 649,-488 431,-488"/>
<polygon fill="none" stroke="black" points="431,-488 431,-510 649,-510 649,-488 431,-488"/>
<text text-anchor="start" x="436" y="-497.2" font-family="Helvetica,sans-Serif" font-weight="bold" font-size="11.00">deceased</text>
<text text-anchor="start" x="607" y="-496.2" font-family="Helvetica,sans-Serif" font-size="11.00">[table]</text>
<polygon fill="none" stroke="black" points="431,-466 431,-488 649,-488 649,-466 431,-466"/>
<image xlink:href="../../images/primaryKeys.png" width="11px" height="12px" preserveAspectRatio="xMinYMin meet" x="436" y="-483"/>
<text text-anchor="start" x="451" y="-474.2" font-family="Helvetica,sans-Serif" font-size="11.00">id</text>
<polygon fill="none" stroke="black" points="431,-444 431,-466 649,-466 649,-444 431,-444"/>
<image xlink:href="../../images/foreignKeys.png" width="11px" height="12px" preserveAspectRatio="xMinYMin meet" x="436" y="-461"/>
<text text-anchor="start" x="451" y="-452.2" font-family="Helvetica,sans-Serif" font-size="11.00">fk_civility</text>
<polygon fill="none" stroke="black" points="431,-422 431,-444 649,-444 649,-422 431,-422"/>
<image xlink:href="../../images/foreignKeys.png" width="11px" height="12px" preserveAspectRatio="xMinYMin meet" x="436" y="-439"/>
<text text-anchor="start" x="451" y="-430.2" font-family="Helvetica,sans-Serif" font-size="11.00">fk_birth_country</text>
<polygon fill="none" stroke="black" points="431,-400 431,-422 649,-422 649,-400 431,-400"/>
<image xlink:href="../../images/foreignKeys.png" width="11px" height="12px" preserveAspectRatio="xMinYMin meet" x="436" y="-417"/>
<text text-anchor="start" x="451" y="-408.2" font-family="Helvetica,sans-Serif" font-size="11.00">fk_death_country</text>
<polygon fill="none" stroke="black" points="431,-378 431,-400 649,-400 649,-378 431,-378"/>
<image xlink:href="../../images/foreignKeys.png" width="11px" height="12px" preserveAspectRatio="xMinYMin meet" x="436" y="-395"/>
<text text-anchor="start" x="451" y="-386.2" font-family="Helvetica,sans-Serif" font-size="11.00">fk_burial_country</text>
<polygon fill="none" stroke="black" points="431,-356 431,-378 649,-378 649,-356 431,-356"/>
<image xlink:href="../../images/foreignKeys.png" width="11px" height="12px" preserveAspectRatio="xMinYMin meet" x="436" y="-373"/>
<text text-anchor="start" x="451" y="-364.2" font-family="Helvetica,sans-Serif" font-size="11.00">fk_unit</text>
<polygon fill="none" stroke="black" points="431,-334 431,-356 649,-356 649,-334 431,-334"/>
<image xlink:href="../../images/foreignKeys.png" width="11px" height="12px" preserveAspectRatio="xMinYMin meet" x="436" y="-351"/>
<text text-anchor="start" x="451" y="-342.2" font-family="Helvetica,sans-Serif" font-size="11.00">fk_contact_person</text>
<polygon fill="none" stroke="black" points="431,-316 431,-334 649,-334 649,-316 431,-316"/>
<text text-anchor="start" x="434" y="-322.2" font-family="Helvetica,sans-Serif" font-size="11.00">...</text>
<polygon fill="#ffffff" stroke="transparent" points="431,-298 431,-316 649,-316 649,-298 431,-298"/>
<polygon fill="none" stroke="black" points="431,-298 431,-316 649,-316 649,-298 431,-298"/>
<polygon fill="#ffffff" stroke="transparent" points="432,-299 432,-315 508,-315 508,-299 432,-299"/>
<text text-anchor="start" x="434" y="-304.2" font-family="Helvetica,sans-Serif" font-size="11.00">&lt; 6</text>
<polygon fill="#ffffff" stroke="transparent" points="508,-299 508,-315 572,-315 572,-299 508,-299"/>
<text text-anchor="start" x="536" y="-304.2" font-family="Helvetica,sans-Serif" font-size="11.00"> &#160;</text>
<polygon fill="#ffffff" stroke="transparent" points="572,-299 572,-315 648,-315 648,-299 572,-299"/>
<text text-anchor="start" x="626" y="-304.2" font-family="Helvetica,sans-Serif" font-size="11.00">1 &gt;</text>
<polygon fill="black" stroke="black" points="508,-299 508,-315 508,-315 508,-299 508,-299"/>
<polygon fill="black" stroke="black" points="572,-299 572,-315 572,-315 572,-299 572,-299"/>
</a>
</g>
</g>
<!-- deceased&#45;&gt;contact -->
<g id="edge3" class="edge">
<title>deceased:w&#45;&gt;contact:e</title>
<path fill="none" stroke="black" d="M415.65,-347.37C384.97,-359.89 416.65,-419.29 390,-459 334.03,-542.39 280.63,-528.19 221,-609 195.49,-643.57 223.96,-697 181,-697"/>
<polygon fill="black" stroke="black" points="422.11,-346.3 430.59,-348.55 426.05,-345.65 430,-345 430,-345 430,-345 426.05,-345.65 429.41,-341.45 422.11,-346.3 422.11,-346.3"/>
<ellipse fill="none" stroke="black" cx="418.95" cy="-346.82" rx="3.2" ry="3.2"/>
</g>
<!-- deceased&#45;&gt;unit -->
<g id="edge4" class="edge">
<title>deceased:w&#45;&gt;unit:e</title>
<path fill="none" stroke="black" d="M416.46,-372.14C403.78,-384.52 407.17,-415 383.5,-415"/>
<polygon fill="black" stroke="black" points="422.52,-369.84 431.28,-370.37 426.26,-368.42 430,-367 430,-367 430,-367 426.26,-368.42 428.72,-363.63 422.52,-369.84 422.52,-369.84"/>
<ellipse fill="none" stroke="black" cx="419.53" cy="-370.97" rx="3.2" ry="3.2"/>
</g>
<!-- file -->
<g id="node5" class="node">
<title>file</title>
<g id="a_node5"><a xlink:href="../../tables/file.html" xlink:title="file" target="_top">
<polygon fill="#ffffff" stroke="transparent" points="698,-103 698,-455 948,-455 948,-103 698,-103"/>
<polygon fill="#f5f5f5" stroke="transparent" points="700,-431 700,-453 946,-453 946,-431 700,-431"/>
<polygon fill="none" stroke="black" points="700,-431 700,-453 946,-453 946,-431 700,-431"/>
<text text-anchor="start" x="704.5" y="-440.2" font-family="Helvetica,sans-Serif" font-weight="bold" font-size="11.00">file</text>
<text text-anchor="start" x="904" y="-439.2" font-family="Helvetica,sans-Serif" font-size="11.00">[table]</text>
<polygon fill="none" stroke="black" points="700,-409 700,-431 840,-431 840,-409 700,-409"/>
<image xlink:href="../../images/primaryKeys.png" width="11px" height="12px" preserveAspectRatio="xMinYMin meet" x="705" y="-426"/>
<text text-anchor="start" x="720" y="-417.2" font-family="Helvetica,sans-Serif" font-size="11.00">id</text>
<polygon fill="none" stroke="black" points="840,-409 840,-431 946,-431 946,-409 840,-409"/>
<text text-anchor="start" x="843" y="-417.2" font-family="Helvetica,sans-Serif" font-size="11.00">uuid[2147483647]</text>
<polygon fill="none" stroke="black" points="700,-387 700,-409 840,-409 840,-387 700,-387"/>
<text text-anchor="start" x="720" y="-395.2" font-family="Helvetica,sans-Serif" font-size="11.00">identifier</text>
<polygon fill="none" stroke="black" points="840,-387 840,-409 946,-409 946,-387 840,-387"/>
<text text-anchor="start" x="843" y="-395.2" font-family="Helvetica,sans-Serif" font-size="11.00">text[2147483647]</text>
<polygon fill="none" stroke="black" points="700,-365 700,-387 840,-387 840,-365 700,-365"/>
<text text-anchor="start" x="720" y="-373.2" font-family="Helvetica,sans-Serif" font-size="11.00">filepath</text>
<polygon fill="none" stroke="black" points="840,-365 840,-387 946,-387 946,-365 840,-365"/>
<text text-anchor="start" x="843" y="-373.2" font-family="Helvetica,sans-Serif" font-size="11.00">text[2147483647]</text>
<polygon fill="none" stroke="black" points="700,-343 700,-365 840,-365 840,-343 700,-343"/>
<text text-anchor="start" x="720" y="-351.2" font-family="Helvetica,sans-Serif" font-size="11.00">remark</text>
<polygon fill="none" stroke="black" points="840,-343 840,-365 946,-365 946,-343 840,-343"/>
<text text-anchor="start" x="843" y="-351.2" font-family="Helvetica,sans-Serif" font-size="11.00">text[2147483647]</text>
<polygon fill="none" stroke="black" points="700,-321 700,-343 840,-343 840,-321 700,-321"/>
<image xlink:href="../../images/foreignKeys.png" width="11px" height="12px" preserveAspectRatio="xMinYMin meet" x="705" y="-338"/>
<text text-anchor="start" x="720" y="-329.2" font-family="Helvetica,sans-Serif" font-size="11.00">cemetery_ref</text>
<polygon fill="none" stroke="black" points="840,-321 840,-343 946,-343 946,-321 840,-321"/>
<text text-anchor="start" x="843" y="-329.2" font-family="Helvetica,sans-Serif" font-size="11.00">uuid[2147483647]</text>
<polygon fill="none" stroke="black" points="700,-299 700,-321 840,-321 840,-299 700,-299"/>
<image xlink:href="../../images/foreignKeys.png" width="11px" height="12px" preserveAspectRatio="xMinYMin meet" x="705" y="-316"/>
<text text-anchor="start" x="720" y="-307.2" font-family="Helvetica,sans-Serif" font-size="11.00">contact_ref</text>
<polygon fill="none" stroke="black" points="840,-299 840,-321 946,-321 946,-299 840,-299"/>
<text text-anchor="start" x="843" y="-307.2" font-family="Helvetica,sans-Serif" font-size="11.00">uuid[2147483647]</text>
<polygon fill="none" stroke="black" points="700,-277 700,-299 840,-299 840,-277 700,-277"/>
<image xlink:href="../../images/foreignKeys.png" width="11px" height="12px" preserveAspectRatio="xMinYMin meet" x="705" y="-294"/>
<text text-anchor="start" x="720" y="-285.2" font-family="Helvetica,sans-Serif" font-size="11.00">contract_ref</text>
<polygon fill="none" stroke="black" points="840,-277 840,-299 946,-299 946,-277 840,-277"/>
<text text-anchor="start" x="843" y="-285.2" font-family="Helvetica,sans-Serif" font-size="11.00">uuid[2147483647]</text>
<polygon fill="none" stroke="black" points="700,-255 700,-277 840,-277 840,-255 700,-255"/>
<image xlink:href="../../images/foreignKeys.png" width="11px" height="12px" preserveAspectRatio="xMinYMin meet" x="705" y="-272"/>
<text text-anchor="start" x="720" y="-263.2" font-family="Helvetica,sans-Serif" font-size="11.00">deceased_ref</text>
<polygon fill="none" stroke="black" points="840,-255 840,-277 946,-277 946,-255 840,-255"/>
<text text-anchor="start" x="843" y="-263.2" font-family="Helvetica,sans-Serif" font-size="11.00">uuid[2147483647]</text>
<polygon fill="none" stroke="black" points="700,-233 700,-255 840,-255 840,-233 700,-233"/>
<image xlink:href="../../images/foreignKeys.png" width="11px" height="12px" preserveAspectRatio="xMinYMin meet" x="705" y="-250"/>
<text text-anchor="start" x="720" y="-241.2" font-family="Helvetica,sans-Serif" font-size="11.00">furniture_ref</text>
<polygon fill="none" stroke="black" points="840,-233 840,-255 946,-255 946,-233 840,-233"/>
<text text-anchor="start" x="843" y="-241.2" font-family="Helvetica,sans-Serif" font-size="11.00">uuid[2147483647]</text>
<polygon fill="none" stroke="black" points="700,-211 700,-233 840,-233 840,-211 700,-211"/>
<image xlink:href="../../images/foreignKeys.png" width="11px" height="12px" preserveAspectRatio="xMinYMin meet" x="705" y="-228"/>
<text text-anchor="start" x="720" y="-219.2" font-family="Helvetica,sans-Serif" font-size="11.00">organisation_ref</text>
<polygon fill="none" stroke="black" points="840,-211 840,-233 946,-233 946,-211 840,-211"/>
<text text-anchor="start" x="843" y="-219.2" font-family="Helvetica,sans-Serif" font-size="11.00">uuid[2147483647]</text>
<polygon fill="none" stroke="black" points="700,-189 700,-211 840,-211 840,-189 700,-189"/>
<image xlink:href="../../images/foreignKeys.png" width="11px" height="12px" preserveAspectRatio="xMinYMin meet" x="705" y="-206"/>
<text text-anchor="start" x="720" y="-197.2" font-family="Helvetica,sans-Serif" font-size="11.00">sector_ref</text>
<polygon fill="none" stroke="black" points="840,-189 840,-211 946,-211 946,-189 840,-189"/>
<text text-anchor="start" x="843" y="-197.2" font-family="Helvetica,sans-Serif" font-size="11.00">uuid[2147483647]</text>
<polygon fill="none" stroke="black" points="700,-167 700,-189 840,-189 840,-167 700,-167"/>
<image xlink:href="../../images/foreignKeys.png" width="11px" height="12px" preserveAspectRatio="xMinYMin meet" x="705" y="-184"/>
<text text-anchor="start" x="720" y="-175.2" font-family="Helvetica,sans-Serif" font-size="11.00">unit_ref</text>
<polygon fill="none" stroke="black" points="840,-167 840,-189 946,-189 946,-167 840,-167"/>
<text text-anchor="start" x="843" y="-175.2" font-family="Helvetica,sans-Serif" font-size="11.00">uuid[2147483647]</text>
<polygon fill="none" stroke="black" points="700,-145 700,-167 840,-167 840,-145 700,-145"/>
<image xlink:href="../../images/foreignKeys.png" width="11px" height="12px" preserveAspectRatio="xMinYMin meet" x="705" y="-162"/>
<text text-anchor="start" x="720" y="-153.2" font-family="Helvetica,sans-Serif" font-size="11.00">vegetation_ref</text>
<polygon fill="none" stroke="black" points="840,-145 840,-167 946,-167 946,-145 840,-145"/>
<text text-anchor="start" x="843" y="-153.2" font-family="Helvetica,sans-Serif" font-size="11.00">uuid[2147483647]</text>
<polygon fill="none" stroke="black" points="700,-123 700,-145 840,-145 840,-123 700,-123"/>
<text text-anchor="start" x="720" y="-131.2" font-family="Helvetica,sans-Serif" font-size="11.00">display_txt</text>
<polygon fill="none" stroke="black" points="840,-123 840,-145 946,-145 946,-123 840,-123"/>
<text text-anchor="start" x="843" y="-131.2" font-family="Helvetica,sans-Serif" font-size="11.00">text[2147483647]</text>
<polygon fill="#ffffff" stroke="transparent" points="700,-105 700,-123 946,-123 946,-105 700,-105"/>
<polygon fill="none" stroke="black" points="700,-105 700,-123 946,-123 946,-105 700,-105"/>
<polygon fill="#ffffff" stroke="transparent" points="701,-106 701,-122 787,-122 787,-106 701,-106"/>
<text text-anchor="start" x="703" y="-111.2" font-family="Helvetica,sans-Serif" font-size="11.00">&lt; 9</text>
<polygon fill="#ffffff" stroke="transparent" points="787,-106 787,-122 860,-122 860,-106 787,-106"/>
<text text-anchor="start" x="819.5" y="-111.2" font-family="Helvetica,sans-Serif" font-size="11.00"> &#160;</text>
<polygon fill="#ffffff" stroke="transparent" points="860,-106 860,-122 945,-122 945,-106 860,-106"/>
<text text-anchor="start" x="923" y="-111.2" font-family="Helvetica,sans-Serif" font-size="11.00">0 &gt;</text>
<polygon fill="black" stroke="black" points="787,-106 787,-122 787,-122 787,-106 787,-106"/>
<polygon fill="black" stroke="black" points="860,-106 860,-122 860,-122 860,-106 860,-106"/>
<polygon fill="none" stroke="black" stroke-width="2" points="699,-104 699,-454 947,-454 947,-104 699,-104"/>
</a>
</g>
</g>
<!-- file&#45;&gt;contract -->
<g id="edge7" class="edge">
<title>file:w&#45;&gt;contract:e</title>
<path fill="none" stroke="black" d="M684.95,-292.5C628.44,-333.71 696.61,-644 621,-644"/>
<polygon fill="black" stroke="black" points="691.38,-290.44 700.1,-291.43 695.19,-289.22 699,-288 699,-288 699,-288 695.19,-289.22 697.9,-284.57 691.38,-290.44 691.38,-290.44"/>
<ellipse fill="none" stroke="black" cx="688.33" cy="-291.42" rx="3.2" ry="3.2"/>
</g>
<!-- file&#45;&gt;contact -->
<g id="edge6" class="edge">
<title>file:w&#45;&gt;contact:e</title>
<path fill="none" stroke="black" d="M684.98,-313.59C623.1,-349.97 719.1,-652.11 657,-708 499.71,-849.56 392.61,-697 181,-697"/>
<polygon fill="black" stroke="black" points="691.25,-311.98 699.89,-313.49 695.12,-310.99 699,-310 699,-310 699,-310 695.12,-310.99 698.11,-306.51 691.25,-311.98 691.25,-311.98"/>
<ellipse fill="none" stroke="black" cx="688.15" cy="-312.78" rx="3.2" ry="3.2"/>
</g>
<!-- file&#45;&gt;unit -->
<g id="edge12" class="edge">
<title>file:w&#45;&gt;unit:e</title>
<path fill="none" stroke="black" d="M684.79,-175.68C676.04,-172.52 670.43,-167.03 657,-165 605.58,-157.22 462.53,-131.22 423,-165 380.24,-201.54 439.74,-415 383.5,-415"/>
<polygon fill="black" stroke="black" points="691.1,-176.71 698.42,-181.55 695.05,-177.36 699,-178 699,-178 699,-178 695.05,-177.36 699.58,-174.45 691.1,-176.71 691.1,-176.71"/>
<ellipse fill="none" stroke="black" cx="687.95" cy="-176.2" rx="3.2" ry="3.2"/>
</g>
<!-- file&#45;&gt;deceased -->
<g id="edge8" class="edge">
<title>file:w&#45;&gt;deceased:e</title>
<path fill="none" stroke="black" d="M684.45,-268.09C618.73,-290 740.63,-477 650,-477"/>
<polygon fill="black" stroke="black" points="691.08,-267.14 699.51,-269.56 695.04,-266.57 699,-266 699,-266 699,-266 695.04,-266.57 698.49,-262.44 691.08,-267.14 691.08,-267.14"/>
<ellipse fill="none" stroke="black" cx="687.91" cy="-267.59" rx="3.2" ry="3.2"/>
</g>
<!-- file&#45;&gt;cemetery -->
<g id="edge5" class="edge">
<title>file:w&#45;&gt;cemetery:e</title>
<path fill="none" stroke="black" d="M685.04,-336.07C631.9,-372.27 712.47,-638.69 657,-688 618.14,-722.55 470.4,-709.39 423,-688 299.3,-632.17 292.01,-574.66 221,-459 186.47,-402.76 218.99,-327 153,-327"/>
<polygon fill="black" stroke="black" points="691.32,-334.24 700.01,-335.46 695.16,-333.12 699,-332 699,-332 699,-332 695.16,-333.12 697.99,-328.54 691.32,-334.24 691.32,-334.24"/>
<ellipse fill="none" stroke="black" cx="688.25" cy="-335.14" rx="3.2" ry="3.2"/>
</g>
<!-- file&#45;&gt;cemetery -->
<g id="edge13" class="edge">
<title>file:w&#45;&gt;cemetery:e</title>
<path fill="none" stroke="black" d="M684.56,-154C675.94,-151.37 670.13,-146.87 657,-145 539.47,-128.3 508.7,-139.56 390,-138 314.9,-137.02 280.84,-92.6 221,-138 149.88,-191.96 242.27,-327 153,-327"/>
<polygon fill="black" stroke="black" points="691.08,-154.9 698.51,-159.57 695.04,-155.45 699,-156 699,-156 699,-156 695.04,-155.45 699.49,-152.43 691.08,-154.9 691.08,-154.9"/>
<ellipse fill="none" stroke="black" cx="687.91" cy="-154.46" rx="3.2" ry="3.2"/>
</g>
<!-- furniture -->
<g id="node7" class="node">
<title>furniture</title>
<g id="a_node7"><a xlink:href="../../tables/furniture.html" xlink:title="furniture" target="_top">
<polygon fill="#ffffff" stroke="transparent" points="484,-175 484,-277 596,-277 596,-175 484,-175"/>
<polygon fill="#f5f5f5" stroke="transparent" points="484,-255 484,-277 596,-277 596,-255 484,-255"/>
<polygon fill="none" stroke="black" points="484,-255 484,-277 596,-277 596,-255 484,-255"/>
<text text-anchor="start" x="489" y="-264.2" font-family="Helvetica,sans-Serif" font-weight="bold" font-size="11.00">furniture</text>
<text text-anchor="start" x="554" y="-263.2" font-family="Helvetica,sans-Serif" font-size="11.00">[table]</text>
<polygon fill="none" stroke="black" points="484,-233 484,-255 596,-255 596,-233 484,-233"/>
<image xlink:href="../../images/primaryKeys.png" width="11px" height="12px" preserveAspectRatio="xMinYMin meet" x="489" y="-250"/>
<text text-anchor="start" x="510" y="-241.2" font-family="Helvetica,sans-Serif" font-size="11.00">id</text>
<polygon fill="none" stroke="black" points="484,-211 484,-233 596,-233 596,-211 484,-211"/>
<image xlink:href="../../images/foreignKeys.png" width="11px" height="12px" preserveAspectRatio="xMinYMin meet" x="489" y="-228"/>
<text text-anchor="start" x="510" y="-219.2" font-family="Helvetica,sans-Serif" font-size="11.00">fk_kind</text>
<polygon fill="none" stroke="black" points="484,-193 484,-211 596,-211 596,-193 484,-193"/>
<text text-anchor="start" x="487" y="-199.2" font-family="Helvetica,sans-Serif" font-size="11.00">...</text>
<polygon fill="#ffffff" stroke="transparent" points="484,-175 484,-193 596,-193 596,-175 484,-175"/>
<polygon fill="none" stroke="black" points="484,-175 484,-193 596,-193 596,-175 484,-175"/>
<polygon fill="#ffffff" stroke="transparent" points="485,-176 485,-192 526,-192 526,-176 485,-176"/>
<text text-anchor="start" x="487" y="-181.2" font-family="Helvetica,sans-Serif" font-size="11.00">&lt; 1</text>
<polygon fill="#ffffff" stroke="transparent" points="526,-176 526,-192 555,-192 555,-176 526,-176"/>
<text text-anchor="start" x="536.5" y="-181.2" font-family="Helvetica,sans-Serif" font-size="11.00"> &#160;</text>
<polygon fill="#ffffff" stroke="transparent" points="555,-176 555,-192 595,-192 595,-176 555,-176"/>
<text text-anchor="start" x="573" y="-181.2" font-family="Helvetica,sans-Serif" font-size="11.00">1 &gt;</text>
<polygon fill="black" stroke="black" points="526,-176 526,-192 526,-192 526,-176 526,-176"/>
<polygon fill="black" stroke="black" points="555,-176 555,-192 555,-192 555,-176 555,-176"/>
</a>
</g>
</g>
<!-- file&#45;&gt;furniture -->
<g id="edge9" class="edge">
<title>file:w&#45;&gt;furniture:e</title>
<path fill="none" stroke="black" d="M684.35,-244C650.54,-244 637.02,-244 597,-244"/>
<polygon fill="black" stroke="black" points="691,-244 699,-247.6 695,-244 699,-244 699,-244 699,-244 695,-244 699,-240.4 691,-244 691,-244"/>
<ellipse fill="none" stroke="black" cx="687.8" cy="-244" rx="3.2" ry="3.2"/>
</g>
<!-- file&#45;&gt;organisation -->
<g id="edge10" class="edge">
<title>file:w&#45;&gt;organisation:e</title>
<path fill="none" stroke="black" d="M684.85,-218.43C664.22,-204.5 688.29,-153.44 657,-132 558.89,-64.77 508.87,-118 390,-114 314.93,-111.47 285.96,-76.3 221,-114 177.61,-139.18 215.17,-212 165,-212"/>
<polygon fill="black" stroke="black" points="691.24,-220.05 698.12,-225.49 695.12,-221.02 699,-222 699,-222 699,-222 695.12,-221.02 699.88,-218.51 691.24,-220.05 691.24,-220.05"/>
<ellipse fill="none" stroke="black" cx="688.14" cy="-219.26" rx="3.2" ry="3.2"/>
</g>
<!-- file&#45;&gt;sector -->
<g id="edge11" class="edge">
<title>file:w&#45;&gt;sector:e</title>
<path fill="none" stroke="black" d="M684.69,-196.83C659.16,-182.03 693.59,-119.39 657,-94 470.73,35.24 373.71,-84 147,-84"/>
<polygon fill="black" stroke="black" points="691.19,-198.27 698.22,-203.51 695.09,-199.13 699,-200 699,-200 699,-200 695.09,-199.13 699.78,-196.49 691.19,-198.27 691.19,-198.27"/>
<ellipse fill="none" stroke="black" cx="688.07" cy="-197.58" rx="3.2" ry="3.2"/>
</g>
</g>
</svg>
