<?xml version="1.0" encoding="UTF-8" standalone="no"?>
<!DOCTYPE svg PUBLIC "-//W3C//DTD SVG 1.1//EN"
 "http://www.w3.org/Graphics/SVG/1.1/DTD/svg11.dtd">
<!-- Generated by graphviz version 2.43.0 (0)
 -->
<!-- Title: oneDegreeRelationshipsDiagram Pages: 1 -->
<svg width="964pt" height="733pt"
 viewBox="0.00 0.00 964.00 732.88" xmlns="http://www.w3.org/2000/svg" xmlns:xlink="http://www.w3.org/1999/xlink">
<g id="graph0" class="graph" transform="scale(1 1) rotate(0) translate(4 728.88)">
<title>oneDegreeRelationshipsDiagram</title>
<polygon fill="#ffffff" stroke="transparent" points="-4,4 -4,-728.88 960,-728.88 960,4 -4,4"/>
<text text-anchor="middle" x="79.5" y="-7.2" font-family="Helvetica,sans-Serif" font-size="11.00">Generated by SchemaSpy</text>
<!-- contract -->
<g id="node1" class="node">
<title>contract</title>
<g id="a_node1"><a xlink:href="../../tables/contract.html" xlink:title="contract" target="_top">
<polygon fill="#ffffff" stroke="transparent" points="460.5,-504.22 460.5,-650.22 619.5,-650.22 619.5,-504.22 460.5,-504.22"/>
<polygon fill="#f5f5f5" stroke="transparent" points="461,-628.22 461,-650.22 620,-650.22 620,-628.22 461,-628.22"/>
<polygon fill="none" stroke="black" points="461,-628.22 461,-650.22 620,-650.22 620,-628.22 461,-628.22"/>
<text text-anchor="start" x="466" y="-637.42" font-family="Helvetica,sans-Serif" font-weight="bold" font-size="11.00">contract</text>
<text text-anchor="start" x="578" y="-636.42" font-family="Helvetica,sans-Serif" font-size="11.00">[table]</text>
<polygon fill="none" stroke="black" points="461,-606.22 461,-628.22 620,-628.22 620,-606.22 461,-606.22"/>
<image xlink:href="../../images/primaryKeys.png" width="11px" height="12px" preserveAspectRatio="xMinYMin meet" x="466" y="-623.219"/>
<text text-anchor="start" x="481" y="-614.42" font-family="Helvetica,sans-Serif" font-size="11.00">id</text>
<polygon fill="none" stroke="black" points="461,-584.22 461,-606.22 620,-606.22 620,-584.22 461,-584.22"/>
<image xlink:href="../../images/foreignKeys.png" width="11px" height="12px" preserveAspectRatio="xMinYMin meet" x="466" y="-601.219"/>
<text text-anchor="start" x="481" y="-592.42" font-family="Helvetica,sans-Serif" font-size="11.00">fk_kind</text>
<polygon fill="none" stroke="black" points="461,-562.22 461,-584.22 620,-584.22 620,-562.22 461,-562.22"/>
<image xlink:href="../../images/foreignKeys.png" width="11px" height="12px" preserveAspectRatio="xMinYMin meet" x="466" y="-579.219"/>
<text text-anchor="start" x="481" y="-570.42" font-family="Helvetica,sans-Serif" font-size="11.00">fk_contract_person</text>
<polygon fill="none" stroke="black" points="461,-540.22 461,-562.22 620,-562.22 620,-540.22 461,-540.22"/>
<image xlink:href="../../images/foreignKeys.png" width="11px" height="12px" preserveAspectRatio="xMinYMin meet" x="466" y="-557.219"/>
<text text-anchor="start" x="481" y="-548.42" font-family="Helvetica,sans-Serif" font-size="11.00">fk_unit</text>
<polygon fill="none" stroke="black" points="461,-522.22 461,-540.22 620,-540.22 620,-522.22 461,-522.22"/>
<text text-anchor="start" x="464" y="-528.42" font-family="Helvetica,sans-Serif" font-size="11.00">...</text>
<polygon fill="#ffffff" stroke="transparent" points="461,-504.22 461,-522.22 620,-522.22 620,-504.22 461,-504.22"/>
<polygon fill="none" stroke="black" points="461,-504.22 461,-522.22 620,-522.22 620,-504.22 461,-504.22"/>
<polygon fill="#ffffff" stroke="transparent" points="462,-505.22 462,-521.22 519,-521.22 519,-505.22 462,-505.22"/>
<text text-anchor="start" x="464" y="-510.42" font-family="Helvetica,sans-Serif" font-size="11.00">&lt; 3</text>
<polygon fill="#ffffff" stroke="transparent" points="519,-505.22 519,-521.22 563,-521.22 563,-505.22 519,-505.22"/>
<text text-anchor="start" x="537" y="-510.42" font-family="Helvetica,sans-Serif" font-size="11.00"> &#160;</text>
<polygon fill="#ffffff" stroke="transparent" points="563,-505.22 563,-521.22 619,-521.22 619,-505.22 563,-505.22"/>
<text text-anchor="start" x="597" y="-510.42" font-family="Helvetica,sans-Serif" font-size="11.00">1 &gt;</text>
<polygon fill="black" stroke="black" points="519,-505.22 519,-521.22 519,-521.22 519,-505.22 519,-505.22"/>
<polygon fill="black" stroke="black" points="563,-505.22 563,-521.22 563,-521.22 563,-505.22 563,-505.22"/>
</a>
</g>
</g>
<!-- contact -->
<g id="node2" class="node">
<title>contact</title>
<g id="a_node2"><a xlink:href="../../tables/contact.html" xlink:title="contact" target="_top">
<polygon fill="#ffffff" stroke="transparent" points="8,-353.22 8,-697.22 180,-697.22 180,-353.22 8,-353.22"/>
<polygon fill="#f5f5f5" stroke="transparent" points="8,-675.22 8,-697.22 180,-697.22 180,-675.22 8,-675.22"/>
<polygon fill="none" stroke="black" points="8,-675.22 8,-697.22 180,-697.22 180,-675.22 8,-675.22"/>
<text text-anchor="start" x="13" y="-684.42" font-family="Helvetica,sans-Serif" font-weight="bold" font-size="11.00">contact</text>
<text text-anchor="start" x="138" y="-683.42" font-family="Helvetica,sans-Serif" font-size="11.00">[table]</text>
<polygon fill="none" stroke="black" points="8,-653.22 8,-675.22 180,-675.22 180,-653.22 8,-653.22"/>
<image xlink:href="../../images/primaryKeys.png" width="11px" height="12px" preserveAspectRatio="xMinYMin meet" x="13" y="-670.219"/>
<text text-anchor="start" x="28" y="-661.42" font-family="Helvetica,sans-Serif" font-size="11.00">id</text>
<polygon fill="#ffffff" stroke="transparent" points="8,-631.22 8,-653.22 180,-653.22 180,-631.22 8,-631.22"/>
<polygon fill="none" stroke="black" points="8,-631.22 8,-653.22 180,-653.22 180,-631.22 8,-631.22"/>
<image xlink:href="../../images/foreignKeys.png" width="11px" height="12px" preserveAspectRatio="xMinYMin meet" x="13" y="-648.219"/>
<text text-anchor="start" x="28" y="-639.42" font-family="Helvetica,sans-Serif" font-size="11.00">fk_kind</text>
<polygon fill="#ffffff" stroke="transparent" points="8,-609.22 8,-631.22 180,-631.22 180,-609.22 8,-609.22"/>
<polygon fill="none" stroke="black" points="8,-609.22 8,-631.22 180,-631.22 180,-609.22 8,-609.22"/>
<text text-anchor="start" x="28" y="-617.42" font-family="Helvetica,sans-Serif" font-size="11.00">fk_organisation</text>
<polygon fill="#ffffff" stroke="transparent" points="8,-587.22 8,-609.22 180,-609.22 180,-587.22 8,-587.22"/>
<polygon fill="none" stroke="black" points="8,-587.22 8,-609.22 180,-609.22 180,-587.22 8,-587.22"/>
<image xlink:href="../../images/foreignKeys.png" width="11px" height="12px" preserveAspectRatio="xMinYMin meet" x="13" y="-604.219"/>
<text text-anchor="start" x="28" y="-595.42" font-family="Helvetica,sans-Serif" font-size="11.00">fk_civility</text>
<polygon fill="#ffffff" stroke="transparent" points="8,-565.22 8,-587.22 180,-587.22 180,-565.22 8,-565.22"/>
<polygon fill="none" stroke="black" points="8,-565.22 8,-587.22 180,-587.22 180,-565.22 8,-565.22"/>
<text text-anchor="start" x="28" y="-573.42" font-family="Helvetica,sans-Serif" font-size="11.00">first_name</text>
<polygon fill="#ffffff" stroke="transparent" points="8,-543.22 8,-565.22 180,-565.22 180,-543.22 8,-543.22"/>
<polygon fill="none" stroke="black" points="8,-543.22 8,-565.22 180,-565.22 180,-543.22 8,-543.22"/>
<text text-anchor="start" x="28" y="-551.42" font-family="Helvetica,sans-Serif" font-size="11.00">last_name</text>
<polygon fill="#ffffff" stroke="transparent" points="8,-521.22 8,-543.22 180,-543.22 180,-521.22 8,-521.22"/>
<polygon fill="none" stroke="black" points="8,-521.22 8,-543.22 180,-543.22 180,-521.22 8,-521.22"/>
<text text-anchor="start" x="28" y="-529.42" font-family="Helvetica,sans-Serif" font-size="11.00">street_name</text>
<polygon fill="#ffffff" stroke="transparent" points="8,-499.22 8,-521.22 180,-521.22 180,-499.22 8,-499.22"/>
<polygon fill="none" stroke="black" points="8,-499.22 8,-521.22 180,-521.22 180,-499.22 8,-499.22"/>
<text text-anchor="start" x="28" y="-507.42" font-family="Helvetica,sans-Serif" font-size="11.00">house_number</text>
<polygon fill="#ffffff" stroke="transparent" points="8,-477.22 8,-499.22 180,-499.22 180,-477.22 8,-477.22"/>
<polygon fill="none" stroke="black" points="8,-477.22 8,-499.22 180,-499.22 180,-477.22 8,-477.22"/>
<text text-anchor="start" x="28" y="-485.42" font-family="Helvetica,sans-Serif" font-size="11.00">address_supplement</text>
<polygon fill="#ffffff" stroke="transparent" points="8,-455.22 8,-477.22 180,-477.22 180,-455.22 8,-455.22"/>
<polygon fill="none" stroke="black" points="8,-455.22 8,-477.22 180,-477.22 180,-455.22 8,-455.22"/>
<text text-anchor="start" x="28" y="-463.42" font-family="Helvetica,sans-Serif" font-size="11.00">city</text>
<polygon fill="#ffffff" stroke="transparent" points="8,-433.22 8,-455.22 180,-455.22 180,-433.22 8,-433.22"/>
<polygon fill="none" stroke="black" points="8,-433.22 8,-455.22 180,-455.22 180,-433.22 8,-433.22"/>
<text text-anchor="start" x="28" y="-441.42" font-family="Helvetica,sans-Serif" font-size="11.00">postal_code</text>
<polygon fill="#ffffff" stroke="transparent" points="8,-411.22 8,-433.22 180,-433.22 180,-411.22 8,-411.22"/>
<polygon fill="none" stroke="black" points="8,-411.22 8,-433.22 180,-433.22 180,-411.22 8,-411.22"/>
<text text-anchor="start" x="28" y="-419.42" font-family="Helvetica,sans-Serif" font-size="11.00">phone</text>
<polygon fill="#ffffff" stroke="transparent" points="8,-389.22 8,-411.22 180,-411.22 180,-389.22 8,-389.22"/>
<polygon fill="none" stroke="black" points="8,-389.22 8,-411.22 180,-411.22 180,-389.22 8,-389.22"/>
<text text-anchor="start" x="28" y="-397.42" font-family="Helvetica,sans-Serif" font-size="11.00">email</text>
<polygon fill="none" stroke="black" points="8,-371.22 8,-389.22 180,-389.22 180,-371.22 8,-371.22"/>
<text text-anchor="start" x="11" y="-377.42" font-family="Helvetica,sans-Serif" font-size="11.00">...</text>
<polygon fill="#ffffff" stroke="transparent" points="8,-353.22 8,-371.22 180,-371.22 180,-353.22 8,-353.22"/>
<polygon fill="none" stroke="black" points="8,-353.22 8,-371.22 180,-371.22 180,-353.22 8,-353.22"/>
<polygon fill="#ffffff" stroke="transparent" points="9,-354.22 9,-370.22 70,-370.22 70,-354.22 9,-354.22"/>
<text text-anchor="start" x="11" y="-359.42" font-family="Helvetica,sans-Serif" font-size="11.00">&lt; 2</text>
<polygon fill="#ffffff" stroke="transparent" points="70,-354.22 70,-370.22 119,-370.22 119,-354.22 70,-354.22"/>
<text text-anchor="start" x="90.5" y="-359.42" font-family="Helvetica,sans-Serif" font-size="11.00"> &#160;</text>
<polygon fill="#ffffff" stroke="transparent" points="119,-354.22 119,-370.22 179,-370.22 179,-354.22 119,-354.22"/>
<text text-anchor="start" x="157" y="-359.42" font-family="Helvetica,sans-Serif" font-size="11.00">3 &gt;</text>
<polygon fill="black" stroke="black" points="70,-354.22 70,-370.22 70,-370.22 70,-354.22 70,-354.22"/>
<polygon fill="black" stroke="black" points="119,-354.22 119,-370.22 119,-370.22 119,-354.22 119,-354.22"/>
</a>
</g>
</g>
<!-- contract&#45;&gt;contact -->
<g id="edge1" class="edge">
<title>contract:w&#45;&gt;contact:e</title>
<path fill="none" stroke="black" d="M445.57,-573.6C328.03,-580.02 306.46,-664.22 181,-664.22"/>
<polygon fill="black" stroke="black" points="452,-573.43 460.1,-576.82 456,-573.33 460,-573.22 460,-573.22 460,-573.22 456,-573.33 459.9,-569.62 452,-573.43 452,-573.43"/>
<ellipse fill="none" stroke="black" cx="448.8" cy="-573.52" rx="3.2" ry="3.2"/>
</g>
<!-- unit -->
<g id="node3" class="node">
<title>unit</title>
<g id="a_node3"><a xlink:href="../../tables/unit.html" xlink:title="unit" target="_top">
<polygon fill="#ffffff" stroke="transparent" points="229,-170.22 229,-470.22 382,-470.22 382,-170.22 229,-170.22"/>
<polygon fill="#f5f5f5" stroke="transparent" points="229.5,-448.22 229.5,-470.22 382.5,-470.22 382.5,-448.22 229.5,-448.22"/>
<polygon fill="none" stroke="black" points="229.5,-448.22 229.5,-470.22 382.5,-470.22 382.5,-448.22 229.5,-448.22"/>
<text text-anchor="start" x="234.5" y="-457.42" font-family="Helvetica,sans-Serif" font-weight="bold" font-size="11.00">unit</text>
<text text-anchor="start" x="340.5" y="-456.42" font-family="Helvetica,sans-Serif" font-size="11.00">[table]</text>
<polygon fill="none" stroke="black" points="229.5,-426.22 229.5,-448.22 382.5,-448.22 382.5,-426.22 229.5,-426.22"/>
<image xlink:href="../../images/primaryKeys.png" width="11px" height="12px" preserveAspectRatio="xMinYMin meet" x="234.5" y="-443.219"/>
<text text-anchor="start" x="249.5" y="-434.42" font-family="Helvetica,sans-Serif" font-size="11.00">id</text>
<polygon fill="#ffffff" stroke="transparent" points="229.5,-404.22 229.5,-426.22 382.5,-426.22 382.5,-404.22 229.5,-404.22"/>
<polygon fill="none" stroke="black" points="229.5,-404.22 229.5,-426.22 382.5,-426.22 382.5,-404.22 229.5,-404.22"/>
<text text-anchor="start" x="249.5" y="-412.42" font-family="Helvetica,sans-Serif" font-size="11.00">identifier</text>
<polygon fill="none" stroke="black" points="229.5,-382.22 229.5,-404.22 382.5,-404.22 382.5,-382.22 229.5,-382.22"/>
<image xlink:href="../../images/foreignKeys.png" width="11px" height="12px" preserveAspectRatio="xMinYMin meet" x="234.5" y="-399.219"/>
<text text-anchor="start" x="249.5" y="-390.42" font-family="Helvetica,sans-Serif" font-size="11.00">fk_company</text>
<polygon fill="none" stroke="black" points="229.5,-360.22 229.5,-382.22 382.5,-382.22 382.5,-360.22 229.5,-360.22"/>
<image xlink:href="../../images/foreignKeys.png" width="11px" height="12px" preserveAspectRatio="xMinYMin meet" x="234.5" y="-377.219"/>
<text text-anchor="start" x="249.5" y="-368.42" font-family="Helvetica,sans-Serif" font-size="11.00">fk_sector</text>
<polygon fill="none" stroke="black" points="229.5,-338.22 229.5,-360.22 382.5,-360.22 382.5,-338.22 229.5,-338.22"/>
<image xlink:href="../../images/foreignKeys.png" width="11px" height="12px" preserveAspectRatio="xMinYMin meet" x="234.5" y="-355.219"/>
<text text-anchor="start" x="249.5" y="-346.42" font-family="Helvetica,sans-Serif" font-size="11.00">fk_cemetery</text>
<polygon fill="none" stroke="black" points="229.5,-316.22 229.5,-338.22 382.5,-338.22 382.5,-316.22 229.5,-316.22"/>
<image xlink:href="../../images/foreignKeys.png" width="11px" height="12px" preserveAspectRatio="xMinYMin meet" x="234.5" y="-333.219"/>
<text text-anchor="start" x="249.5" y="-324.42" font-family="Helvetica,sans-Serif" font-size="11.00">fk_size</text>
<polygon fill="none" stroke="black" points="229.5,-294.22 229.5,-316.22 382.5,-316.22 382.5,-294.22 229.5,-294.22"/>
<image xlink:href="../../images/foreignKeys.png" width="11px" height="12px" preserveAspectRatio="xMinYMin meet" x="234.5" y="-311.219"/>
<text text-anchor="start" x="249.5" y="-302.42" font-family="Helvetica,sans-Serif" font-size="11.00">fk_kind</text>
<polygon fill="none" stroke="black" points="229.5,-272.22 229.5,-294.22 382.5,-294.22 382.5,-272.22 229.5,-272.22"/>
<image xlink:href="../../images/foreignKeys.png" width="11px" height="12px" preserveAspectRatio="xMinYMin meet" x="234.5" y="-289.219"/>
<text text-anchor="start" x="249.5" y="-280.42" font-family="Helvetica,sans-Serif" font-size="11.00">fk_urn_material</text>
<polygon fill="none" stroke="black" points="229.5,-250.22 229.5,-272.22 382.5,-272.22 382.5,-250.22 229.5,-250.22"/>
<image xlink:href="../../images/foreignKeys.png" width="11px" height="12px" preserveAspectRatio="xMinYMin meet" x="234.5" y="-267.219"/>
<text text-anchor="start" x="249.5" y="-258.42" font-family="Helvetica,sans-Serif" font-size="11.00">fk_urn_shape</text>
<polygon fill="none" stroke="black" points="229.5,-228.22 229.5,-250.22 382.5,-250.22 382.5,-228.22 229.5,-228.22"/>
<image xlink:href="../../images/foreignKeys.png" width="11px" height="12px" preserveAspectRatio="xMinYMin meet" x="234.5" y="-245.219"/>
<text text-anchor="start" x="249.5" y="-236.42" font-family="Helvetica,sans-Serif" font-size="11.00">fk_contact_person</text>
<polygon fill="none" stroke="black" points="229.5,-206.22 229.5,-228.22 382.5,-228.22 382.5,-206.22 229.5,-206.22"/>
<image xlink:href="../../images/foreignKeys.png" width="11px" height="12px" preserveAspectRatio="xMinYMin meet" x="234.5" y="-223.219"/>
<text text-anchor="start" x="249.5" y="-214.42" font-family="Helvetica,sans-Serif" font-size="11.00">fk_control</text>
<polygon fill="none" stroke="black" points="229.5,-188.22 229.5,-206.22 382.5,-206.22 382.5,-188.22 229.5,-188.22"/>
<text text-anchor="start" x="232.5" y="-194.42" font-family="Helvetica,sans-Serif" font-size="11.00">...</text>
<polygon fill="#ffffff" stroke="transparent" points="229.5,-170.22 229.5,-188.22 382.5,-188.22 382.5,-170.22 229.5,-170.22"/>
<polygon fill="none" stroke="black" points="229.5,-170.22 229.5,-188.22 382.5,-188.22 382.5,-170.22 229.5,-170.22"/>
<polygon fill="#ffffff" stroke="transparent" points="230.5,-171.22 230.5,-187.22 285.5,-187.22 285.5,-171.22 230.5,-171.22"/>
<text text-anchor="start" x="232.5" y="-176.42" font-family="Helvetica,sans-Serif" font-size="11.00">&lt; 9</text>
<polygon fill="#ffffff" stroke="transparent" points="285.5,-171.22 285.5,-187.22 327.5,-187.22 327.5,-171.22 285.5,-171.22"/>
<text text-anchor="start" x="302.5" y="-176.42" font-family="Helvetica,sans-Serif" font-size="11.00"> &#160;</text>
<polygon fill="#ffffff" stroke="transparent" points="327.5,-171.22 327.5,-187.22 381.5,-187.22 381.5,-171.22 327.5,-171.22"/>
<text text-anchor="start" x="359.5" y="-176.42" font-family="Helvetica,sans-Serif" font-size="11.00">3 &gt;</text>
<polygon fill="black" stroke="black" points="285.5,-171.22 285.5,-187.22 285.5,-187.22 285.5,-171.22 285.5,-171.22"/>
<polygon fill="black" stroke="black" points="327.5,-171.22 327.5,-187.22 327.5,-187.22 327.5,-171.22 327.5,-171.22"/>
</a>
</g>
</g>
<!-- contract&#45;&gt;unit -->
<g id="edge2" class="edge">
<title>contract:w&#45;&gt;unit:e</title>
<path fill="none" stroke="black" d="M445.73,-548.51C406.44,-531.25 438.92,-437.22 383.5,-437.22"/>
<polygon fill="black" stroke="black" points="452.14,-549.73 459.33,-554.76 456.07,-550.47 460,-551.22 460,-551.22 460,-551.22 456.07,-550.47 460.67,-547.68 452.14,-549.73 452.14,-549.73"/>
<ellipse fill="none" stroke="black" cx="449" cy="-549.13" rx="3.2" ry="3.2"/>
</g>
<!-- unit&#45;&gt;contact -->
<g id="edge15" class="edge">
<title>unit:w&#45;&gt;contact:e</title>
<path fill="none" stroke="black" d="M214.55,-243.15C148.86,-286 270.65,-664.22 181,-664.22"/>
<polygon fill="black" stroke="black" points="220.8,-241.39 229.48,-242.68 224.65,-240.3 228.5,-239.22 228.5,-239.22 228.5,-239.22 224.65,-240.3 227.52,-235.75 220.8,-241.39 220.8,-241.39"/>
<ellipse fill="none" stroke="black" cx="217.72" cy="-242.26" rx="3.2" ry="3.2"/>
</g>
<!-- cemetery -->
<g id="node6" class="node">
<title>cemetery</title>
<g id="a_node6"><a xlink:href="../../tables/cemetery.html" xlink:title="cemetery" target="_top">
<polygon fill="#ffffff" stroke="transparent" points="36.5,-151.22 36.5,-231.22 151.5,-231.22 151.5,-151.22 36.5,-151.22"/>
<polygon fill="#f5f5f5" stroke="transparent" points="37,-209.22 37,-231.22 152,-231.22 152,-209.22 37,-209.22"/>
<polygon fill="none" stroke="black" points="37,-209.22 37,-231.22 152,-231.22 152,-209.22 37,-209.22"/>
<text text-anchor="start" x="42" y="-218.42" font-family="Helvetica,sans-Serif" font-weight="bold" font-size="11.00">cemetery</text>
<text text-anchor="start" x="110" y="-217.42" font-family="Helvetica,sans-Serif" font-size="11.00">[table]</text>
<polygon fill="none" stroke="black" points="37,-187.22 37,-209.22 152,-209.22 152,-187.22 37,-187.22"/>
<image xlink:href="../../images/primaryKeys.png" width="11px" height="12px" preserveAspectRatio="xMinYMin meet" x="42" y="-204.219"/>
<text text-anchor="start" x="65" y="-195.42" font-family="Helvetica,sans-Serif" font-size="11.00">id</text>
<polygon fill="none" stroke="black" points="37,-169.22 37,-187.22 152,-187.22 152,-169.22 37,-169.22"/>
<text text-anchor="start" x="40" y="-175.42" font-family="Helvetica,sans-Serif" font-size="11.00">...</text>
<polygon fill="#ffffff" stroke="transparent" points="37,-151.22 37,-169.22 152,-169.22 152,-151.22 37,-151.22"/>
<polygon fill="none" stroke="black" points="37,-151.22 37,-169.22 152,-169.22 152,-151.22 37,-151.22"/>
<polygon fill="#ffffff" stroke="transparent" points="38,-152.22 38,-168.22 72,-168.22 72,-152.22 38,-152.22"/>
<text text-anchor="start" x="40" y="-157.42" font-family="Helvetica,sans-Serif" font-size="11.00"> &#160;</text>
<polygon fill="#ffffff" stroke="transparent" points="72,-152.22 72,-168.22 106,-168.22 106,-152.22 72,-152.22"/>
<text text-anchor="start" x="85" y="-157.42" font-family="Helvetica,sans-Serif" font-size="11.00"> &#160;</text>
<polygon fill="#ffffff" stroke="transparent" points="106,-152.22 106,-168.22 151,-168.22 151,-152.22 106,-152.22"/>
<text text-anchor="start" x="129" y="-157.42" font-family="Helvetica,sans-Serif" font-size="11.00">3 &gt;</text>
<polygon fill="black" stroke="black" points="72,-152.22 72,-168.22 72,-168.22 72,-152.22 72,-152.22"/>
<polygon fill="black" stroke="black" points="106,-152.22 106,-168.22 106,-168.22 106,-152.22 106,-152.22"/>
</a>
</g>
</g>
<!-- unit&#45;&gt;cemetery -->
<g id="edge13" class="edge">
<title>unit:w&#45;&gt;cemetery:e</title>
<path fill="none" stroke="black" d="M214.14,-346.85C163.71,-327.64 222.46,-198.22 153,-198.22"/>
<polygon fill="black" stroke="black" points="220.61,-347.91 227.91,-352.77 224.55,-348.57 228.5,-349.22 228.5,-349.22 228.5,-349.22 224.55,-348.57 229.09,-345.67 220.61,-347.91 220.61,-347.91"/>
<ellipse fill="none" stroke="black" cx="217.45" cy="-347.39" rx="3.2" ry="3.2"/>
</g>
<!-- organisation -->
<g id="node8" class="node">
<title>organisation</title>
<g id="a_node8"><a xlink:href="../../tables/organisation.html" xlink:title="organisation" target="_top">
<polygon fill="#ffffff" stroke="transparent" points="24.5,-252.22 24.5,-332.22 163.5,-332.22 163.5,-252.22 24.5,-252.22"/>
<polygon fill="#f5f5f5" stroke="transparent" points="25,-310.22 25,-332.22 164,-332.22 164,-310.22 25,-310.22"/>
<polygon fill="none" stroke="black" points="25,-310.22 25,-332.22 164,-332.22 164,-310.22 25,-310.22"/>
<text text-anchor="start" x="30" y="-319.42" font-family="Helvetica,sans-Serif" font-weight="bold" font-size="11.00">organisation</text>
<text text-anchor="start" x="122" y="-318.42" font-family="Helvetica,sans-Serif" font-size="11.00">[table]</text>
<polygon fill="none" stroke="black" points="25,-288.22 25,-310.22 164,-310.22 164,-288.22 25,-288.22"/>
<image xlink:href="../../images/primaryKeys.png" width="11px" height="12px" preserveAspectRatio="xMinYMin meet" x="30" y="-305.219"/>
<text text-anchor="start" x="58" y="-296.42" font-family="Helvetica,sans-Serif" font-size="11.00">id</text>
<polygon fill="none" stroke="black" points="25,-270.22 25,-288.22 164,-288.22 164,-270.22 25,-270.22"/>
<text text-anchor="start" x="28" y="-276.42" font-family="Helvetica,sans-Serif" font-size="11.00">...</text>
<polygon fill="#ffffff" stroke="transparent" points="25,-252.22 25,-270.22 164,-270.22 164,-252.22 25,-252.22"/>
<polygon fill="none" stroke="black" points="25,-252.22 25,-270.22 164,-270.22 164,-252.22 25,-252.22"/>
<polygon fill="#ffffff" stroke="transparent" points="26,-253.22 26,-269.22 68,-269.22 68,-253.22 26,-253.22"/>
<text text-anchor="start" x="28" y="-258.42" font-family="Helvetica,sans-Serif" font-size="11.00"> &#160;</text>
<polygon fill="#ffffff" stroke="transparent" points="68,-253.22 68,-269.22 110,-269.22 110,-253.22 68,-253.22"/>
<text text-anchor="start" x="85" y="-258.42" font-family="Helvetica,sans-Serif" font-size="11.00"> &#160;</text>
<polygon fill="#ffffff" stroke="transparent" points="110,-253.22 110,-269.22 163,-269.22 163,-253.22 110,-253.22"/>
<text text-anchor="start" x="141" y="-258.42" font-family="Helvetica,sans-Serif" font-size="11.00">2 &gt;</text>
<polygon fill="black" stroke="black" points="68,-253.22 68,-269.22 68,-269.22 68,-253.22 68,-253.22"/>
<polygon fill="black" stroke="black" points="110,-253.22 110,-269.22 110,-269.22 110,-253.22 110,-253.22"/>
</a>
</g>
</g>
<!-- unit&#45;&gt;organisation -->
<g id="edge14" class="edge">
<title>unit:w&#45;&gt;organisation:e</title>
<path fill="none" stroke="black" d="M214.49,-389.87C185.42,-373.13 209.71,-299.22 165,-299.22"/>
<polygon fill="black" stroke="black" points="220.72,-391.36 227.66,-396.72 224.61,-392.29 228.5,-393.22 228.5,-393.22 228.5,-393.22 224.61,-392.29 229.34,-389.72 220.72,-391.36 220.72,-391.36"/>
<ellipse fill="none" stroke="black" cx="217.61" cy="-390.62" rx="3.2" ry="3.2"/>
</g>
<!-- sector -->
<g id="node9" class="node">
<title>sector</title>
<g id="a_node9"><a xlink:href="../../tables/sector.html" xlink:title="sector" target="_top">
<polygon fill="#ffffff" stroke="transparent" points="42,-39.22 42,-119.22 146,-119.22 146,-39.22 42,-39.22"/>
<polygon fill="#f5f5f5" stroke="transparent" points="42,-97.22 42,-119.22 146,-119.22 146,-97.22 42,-97.22"/>
<polygon fill="none" stroke="black" points="42,-97.22 42,-119.22 146,-119.22 146,-97.22 42,-97.22"/>
<text text-anchor="start" x="47" y="-106.42" font-family="Helvetica,sans-Serif" font-weight="bold" font-size="11.00">sector</text>
<text text-anchor="start" x="104" y="-105.42" font-family="Helvetica,sans-Serif" font-size="11.00">[table]</text>
<polygon fill="none" stroke="black" points="42,-75.22 42,-97.22 146,-97.22 146,-75.22 42,-75.22"/>
<image xlink:href="../../images/primaryKeys.png" width="11px" height="12px" preserveAspectRatio="xMinYMin meet" x="47" y="-92.2185"/>
<text text-anchor="start" x="62" y="-83.42" font-family="Helvetica,sans-Serif" font-size="11.00">id</text>
<polygon fill="none" stroke="black" points="42,-57.22 42,-75.22 146,-75.22 146,-57.22 42,-57.22"/>
<text text-anchor="start" x="45" y="-63.42" font-family="Helvetica,sans-Serif" font-size="11.00">...</text>
<polygon fill="#ffffff" stroke="transparent" points="42,-39.22 42,-57.22 146,-57.22 146,-39.22 42,-39.22"/>
<polygon fill="none" stroke="black" points="42,-39.22 42,-57.22 146,-57.22 146,-39.22 42,-39.22"/>
<polygon fill="#ffffff" stroke="transparent" points="43,-40.22 43,-56.22 73,-56.22 73,-40.22 43,-40.22"/>
<text text-anchor="start" x="45" y="-45.42" font-family="Helvetica,sans-Serif" font-size="11.00"> &#160;</text>
<polygon fill="#ffffff" stroke="transparent" points="73,-40.22 73,-56.22 103,-56.22 103,-40.22 73,-40.22"/>
<text text-anchor="start" x="84" y="-45.42" font-family="Helvetica,sans-Serif" font-size="11.00"> &#160;</text>
<polygon fill="#ffffff" stroke="transparent" points="103,-40.22 103,-56.22 145,-56.22 145,-40.22 103,-40.22"/>
<text text-anchor="start" x="123" y="-45.42" font-family="Helvetica,sans-Serif" font-size="11.00">2 &gt;</text>
<polygon fill="black" stroke="black" points="73,-40.22 73,-56.22 73,-56.22 73,-40.22 73,-40.22"/>
<polygon fill="black" stroke="black" points="103,-40.22 103,-56.22 103,-56.22 103,-40.22 103,-40.22"/>
</a>
</g>
</g>
<!-- unit&#45;&gt;sector -->
<g id="edge16" class="edge">
<title>unit:w&#45;&gt;sector:e</title>
<path fill="none" stroke="black" d="M214.72,-365.51C182.76,-334.25 206.4,-183.84 188,-141.22 175.92,-113.23 177.49,-86.22 147,-86.22"/>
<polygon fill="black" stroke="black" points="221.11,-368.15 227.12,-374.54 224.8,-369.69 228.5,-371.22 228.5,-371.22 228.5,-371.22 224.8,-369.69 229.88,-367.89 221.11,-368.15 221.11,-368.15"/>
<ellipse fill="none" stroke="black" cx="218.15" cy="-366.93" rx="3.2" ry="3.2"/>
</g>
<!-- deceased -->
<g id="node4" class="node">
<title>deceased</title>
<g id="a_node4"><a xlink:href="../../tables/deceased.html" xlink:title="deceased" target="_top">
<polygon fill="#ffffff" stroke="transparent" points="431,-293.22 431,-483.22 649,-483.22 649,-293.22 431,-293.22"/>
<polygon fill="#f5f5f5" stroke="transparent" points="431,-461.22 431,-483.22 649,-483.22 649,-461.22 431,-461.22"/>
<polygon fill="none" stroke="black" points="431,-461.22 431,-483.22 649,-483.22 649,-461.22 431,-461.22"/>
<text text-anchor="start" x="436" y="-470.42" font-family="Helvetica,sans-Serif" font-weight="bold" font-size="11.00">deceased</text>
<text text-anchor="start" x="607" y="-469.42" font-family="Helvetica,sans-Serif" font-size="11.00">[table]</text>
<polygon fill="none" stroke="black" points="431,-439.22 431,-461.22 649,-461.22 649,-439.22 431,-439.22"/>
<image xlink:href="../../images/primaryKeys.png" width="11px" height="12px" preserveAspectRatio="xMinYMin meet" x="436" y="-456.219"/>
<text text-anchor="start" x="451" y="-447.42" font-family="Helvetica,sans-Serif" font-size="11.00">id</text>
<polygon fill="none" stroke="black" points="431,-417.22 431,-439.22 649,-439.22 649,-417.22 431,-417.22"/>
<image xlink:href="../../images/foreignKeys.png" width="11px" height="12px" preserveAspectRatio="xMinYMin meet" x="436" y="-434.219"/>
<text text-anchor="start" x="451" y="-425.42" font-family="Helvetica,sans-Serif" font-size="11.00">fk_civility</text>
<polygon fill="none" stroke="black" points="431,-395.22 431,-417.22 649,-417.22 649,-395.22 431,-395.22"/>
<image xlink:href="../../images/foreignKeys.png" width="11px" height="12px" preserveAspectRatio="xMinYMin meet" x="436" y="-412.219"/>
<text text-anchor="start" x="451" y="-403.42" font-family="Helvetica,sans-Serif" font-size="11.00">fk_birth_country</text>
<polygon fill="none" stroke="black" points="431,-373.22 431,-395.22 649,-395.22 649,-373.22 431,-373.22"/>
<image xlink:href="../../images/foreignKeys.png" width="11px" height="12px" preserveAspectRatio="xMinYMin meet" x="436" y="-390.219"/>
<text text-anchor="start" x="451" y="-381.42" font-family="Helvetica,sans-Serif" font-size="11.00">fk_death_country</text>
<polygon fill="none" stroke="black" points="431,-351.22 431,-373.22 649,-373.22 649,-351.22 431,-351.22"/>
<image xlink:href="../../images/foreignKeys.png" width="11px" height="12px" preserveAspectRatio="xMinYMin meet" x="436" y="-368.219"/>
<text text-anchor="start" x="451" y="-359.42" font-family="Helvetica,sans-Serif" font-size="11.00">fk_burial_country</text>
<polygon fill="none" stroke="black" points="431,-329.22 431,-351.22 649,-351.22 649,-329.22 431,-329.22"/>
<image xlink:href="../../images/foreignKeys.png" width="11px" height="12px" preserveAspectRatio="xMinYMin meet" x="436" y="-346.219"/>
<text text-anchor="start" x="451" y="-337.42" font-family="Helvetica,sans-Serif" font-size="11.00">fk_unit</text>
<polygon fill="none" stroke="black" points="431,-311.22 431,-329.22 649,-329.22 649,-311.22 431,-311.22"/>
<text text-anchor="start" x="434" y="-317.42" font-family="Helvetica,sans-Serif" font-size="11.00">...</text>
<polygon fill="#ffffff" stroke="transparent" points="431,-293.22 431,-311.22 649,-311.22 649,-293.22 431,-293.22"/>
<polygon fill="none" stroke="black" points="431,-293.22 431,-311.22 649,-311.22 649,-293.22 431,-293.22"/>
<polygon fill="#ffffff" stroke="transparent" points="432,-294.22 432,-310.22 508,-310.22 508,-294.22 432,-294.22"/>
<text text-anchor="start" x="434" y="-299.42" font-family="Helvetica,sans-Serif" font-size="11.00">&lt; 5</text>
<polygon fill="#ffffff" stroke="transparent" points="508,-294.22 508,-310.22 572,-310.22 572,-294.22 508,-294.22"/>
<text text-anchor="start" x="536" y="-299.42" font-family="Helvetica,sans-Serif" font-size="11.00"> &#160;</text>
<polygon fill="#ffffff" stroke="transparent" points="572,-294.22 572,-310.22 648,-310.22 648,-294.22 572,-294.22"/>
<text text-anchor="start" x="626" y="-299.42" font-family="Helvetica,sans-Serif" font-size="11.00">1 &gt;</text>
<polygon fill="black" stroke="black" points="508,-294.22 508,-310.22 508,-310.22 508,-294.22 508,-294.22"/>
<polygon fill="black" stroke="black" points="572,-294.22 572,-310.22 572,-310.22 572,-294.22 572,-294.22"/>
</a>
</g>
</g>
<!-- deceased&#45;&gt;unit -->
<g id="edge3" class="edge">
<title>deceased:w&#45;&gt;unit:e</title>
<path fill="none" stroke="black" d="M415.93,-344.64C393.24,-363.61 425.15,-437.22 383.5,-437.22"/>
<polygon fill="black" stroke="black" points="422.37,-342.62 431.08,-343.65 426.18,-341.42 430,-340.22 430,-340.22 430,-340.22 426.18,-341.42 428.92,-336.78 422.37,-342.62 422.37,-342.62"/>
<ellipse fill="none" stroke="black" cx="419.31" cy="-343.57" rx="3.2" ry="3.2"/>
</g>
<!-- file -->
<g id="node5" class="node">
<title>file</title>
<g id="a_node5"><a xlink:href="../../tables/file.html" xlink:title="file" target="_top">
<polygon fill="#ffffff" stroke="transparent" points="698,-98.22 698,-450.22 948,-450.22 948,-98.22 698,-98.22"/>
<polygon fill="#f5f5f5" stroke="transparent" points="700,-426.22 700,-448.22 946,-448.22 946,-426.22 700,-426.22"/>
<polygon fill="none" stroke="black" points="700,-426.22 700,-448.22 946,-448.22 946,-426.22 700,-426.22"/>
<text text-anchor="start" x="704.5" y="-435.42" font-family="Helvetica,sans-Serif" font-weight="bold" font-size="11.00">file</text>
<text text-anchor="start" x="904" y="-434.42" font-family="Helvetica,sans-Serif" font-size="11.00">[table]</text>
<polygon fill="none" stroke="black" points="700,-404.22 700,-426.22 840,-426.22 840,-404.22 700,-404.22"/>
<image xlink:href="../../images/primaryKeys.png" width="11px" height="12px" preserveAspectRatio="xMinYMin meet" x="705" y="-421.219"/>
<text text-anchor="start" x="720" y="-412.42" font-family="Helvetica,sans-Serif" font-size="11.00">id</text>
<polygon fill="none" stroke="black" points="840,-404.22 840,-426.22 946,-426.22 946,-404.22 840,-404.22"/>
<text text-anchor="start" x="843" y="-412.42" font-family="Helvetica,sans-Serif" font-size="11.00">uuid[2147483647]</text>
<polygon fill="none" stroke="black" points="700,-382.22 700,-404.22 840,-404.22 840,-382.22 700,-382.22"/>
<text text-anchor="start" x="720" y="-390.42" font-family="Helvetica,sans-Serif" font-size="11.00">identifier</text>
<polygon fill="none" stroke="black" points="840,-382.22 840,-404.22 946,-404.22 946,-382.22 840,-382.22"/>
<text text-anchor="start" x="843" y="-390.42" font-family="Helvetica,sans-Serif" font-size="11.00">text[2147483647]</text>
<polygon fill="none" stroke="black" points="700,-360.22 700,-382.22 840,-382.22 840,-360.22 700,-360.22"/>
<text text-anchor="start" x="720" y="-368.42" font-family="Helvetica,sans-Serif" font-size="11.00">filepath</text>
<polygon fill="none" stroke="black" points="840,-360.22 840,-382.22 946,-382.22 946,-360.22 840,-360.22"/>
<text text-anchor="start" x="843" y="-368.42" font-family="Helvetica,sans-Serif" font-size="11.00">text[2147483647]</text>
<polygon fill="none" stroke="black" points="700,-338.22 700,-360.22 840,-360.22 840,-338.22 700,-338.22"/>
<text text-anchor="start" x="720" y="-346.42" font-family="Helvetica,sans-Serif" font-size="11.00">remark</text>
<polygon fill="none" stroke="black" points="840,-338.22 840,-360.22 946,-360.22 946,-338.22 840,-338.22"/>
<text text-anchor="start" x="843" y="-346.42" font-family="Helvetica,sans-Serif" font-size="11.00">text[2147483647]</text>
<polygon fill="none" stroke="black" points="700,-316.22 700,-338.22 840,-338.22 840,-316.22 700,-316.22"/>
<image xlink:href="../../images/foreignKeys.png" width="11px" height="12px" preserveAspectRatio="xMinYMin meet" x="705" y="-333.219"/>
<text text-anchor="start" x="720" y="-324.42" font-family="Helvetica,sans-Serif" font-size="11.00">cemetery_ref</text>
<polygon fill="none" stroke="black" points="840,-316.22 840,-338.22 946,-338.22 946,-316.22 840,-316.22"/>
<text text-anchor="start" x="843" y="-324.42" font-family="Helvetica,sans-Serif" font-size="11.00">uuid[2147483647]</text>
<polygon fill="none" stroke="black" points="700,-294.22 700,-316.22 840,-316.22 840,-294.22 700,-294.22"/>
<image xlink:href="../../images/foreignKeys.png" width="11px" height="12px" preserveAspectRatio="xMinYMin meet" x="705" y="-311.219"/>
<text text-anchor="start" x="720" y="-302.42" font-family="Helvetica,sans-Serif" font-size="11.00">contact_ref</text>
<polygon fill="none" stroke="black" points="840,-294.22 840,-316.22 946,-316.22 946,-294.22 840,-294.22"/>
<text text-anchor="start" x="843" y="-302.42" font-family="Helvetica,sans-Serif" font-size="11.00">uuid[2147483647]</text>
<polygon fill="none" stroke="black" points="700,-272.22 700,-294.22 840,-294.22 840,-272.22 700,-272.22"/>
<image xlink:href="../../images/foreignKeys.png" width="11px" height="12px" preserveAspectRatio="xMinYMin meet" x="705" y="-289.219"/>
<text text-anchor="start" x="720" y="-280.42" font-family="Helvetica,sans-Serif" font-size="11.00">contract_ref</text>
<polygon fill="none" stroke="black" points="840,-272.22 840,-294.22 946,-294.22 946,-272.22 840,-272.22"/>
<text text-anchor="start" x="843" y="-280.42" font-family="Helvetica,sans-Serif" font-size="11.00">uuid[2147483647]</text>
<polygon fill="none" stroke="black" points="700,-250.22 700,-272.22 840,-272.22 840,-250.22 700,-250.22"/>
<image xlink:href="../../images/foreignKeys.png" width="11px" height="12px" preserveAspectRatio="xMinYMin meet" x="705" y="-267.219"/>
<text text-anchor="start" x="720" y="-258.42" font-family="Helvetica,sans-Serif" font-size="11.00">deceased_ref</text>
<polygon fill="none" stroke="black" points="840,-250.22 840,-272.22 946,-272.22 946,-250.22 840,-250.22"/>
<text text-anchor="start" x="843" y="-258.42" font-family="Helvetica,sans-Serif" font-size="11.00">uuid[2147483647]</text>
<polygon fill="none" stroke="black" points="700,-228.22 700,-250.22 840,-250.22 840,-228.22 700,-228.22"/>
<image xlink:href="../../images/foreignKeys.png" width="11px" height="12px" preserveAspectRatio="xMinYMin meet" x="705" y="-245.219"/>
<text text-anchor="start" x="720" y="-236.42" font-family="Helvetica,sans-Serif" font-size="11.00">furniture_ref</text>
<polygon fill="none" stroke="black" points="840,-228.22 840,-250.22 946,-250.22 946,-228.22 840,-228.22"/>
<text text-anchor="start" x="843" y="-236.42" font-family="Helvetica,sans-Serif" font-size="11.00">uuid[2147483647]</text>
<polygon fill="none" stroke="black" points="700,-206.22 700,-228.22 840,-228.22 840,-206.22 700,-206.22"/>
<image xlink:href="../../images/foreignKeys.png" width="11px" height="12px" preserveAspectRatio="xMinYMin meet" x="705" y="-223.219"/>
<text text-anchor="start" x="720" y="-214.42" font-family="Helvetica,sans-Serif" font-size="11.00">organisation_ref</text>
<polygon fill="none" stroke="black" points="840,-206.22 840,-228.22 946,-228.22 946,-206.22 840,-206.22"/>
<text text-anchor="start" x="843" y="-214.42" font-family="Helvetica,sans-Serif" font-size="11.00">uuid[2147483647]</text>
<polygon fill="none" stroke="black" points="700,-184.22 700,-206.22 840,-206.22 840,-184.22 700,-184.22"/>
<image xlink:href="../../images/foreignKeys.png" width="11px" height="12px" preserveAspectRatio="xMinYMin meet" x="705" y="-201.219"/>
<text text-anchor="start" x="720" y="-192.42" font-family="Helvetica,sans-Serif" font-size="11.00">sector_ref</text>
<polygon fill="none" stroke="black" points="840,-184.22 840,-206.22 946,-206.22 946,-184.22 840,-184.22"/>
<text text-anchor="start" x="843" y="-192.42" font-family="Helvetica,sans-Serif" font-size="11.00">uuid[2147483647]</text>
<polygon fill="none" stroke="black" points="700,-162.22 700,-184.22 840,-184.22 840,-162.22 700,-162.22"/>
<image xlink:href="../../images/foreignKeys.png" width="11px" height="12px" preserveAspectRatio="xMinYMin meet" x="705" y="-179.219"/>
<text text-anchor="start" x="720" y="-170.42" font-family="Helvetica,sans-Serif" font-size="11.00">unit_ref</text>
<polygon fill="none" stroke="black" points="840,-162.22 840,-184.22 946,-184.22 946,-162.22 840,-162.22"/>
<text text-anchor="start" x="843" y="-170.42" font-family="Helvetica,sans-Serif" font-size="11.00">uuid[2147483647]</text>
<polygon fill="none" stroke="black" points="700,-140.22 700,-162.22 840,-162.22 840,-140.22 700,-140.22"/>
<image xlink:href="../../images/foreignKeys.png" width="11px" height="12px" preserveAspectRatio="xMinYMin meet" x="705" y="-157.219"/>
<text text-anchor="start" x="720" y="-148.42" font-family="Helvetica,sans-Serif" font-size="11.00">vegetation_ref</text>
<polygon fill="none" stroke="black" points="840,-140.22 840,-162.22 946,-162.22 946,-140.22 840,-140.22"/>
<text text-anchor="start" x="843" y="-148.42" font-family="Helvetica,sans-Serif" font-size="11.00">uuid[2147483647]</text>
<polygon fill="none" stroke="black" points="700,-118.22 700,-140.22 840,-140.22 840,-118.22 700,-118.22"/>
<text text-anchor="start" x="720" y="-126.42" font-family="Helvetica,sans-Serif" font-size="11.00">display_txt</text>
<polygon fill="none" stroke="black" points="840,-118.22 840,-140.22 946,-140.22 946,-118.22 840,-118.22"/>
<text text-anchor="start" x="843" y="-126.42" font-family="Helvetica,sans-Serif" font-size="11.00">text[2147483647]</text>
<polygon fill="#ffffff" stroke="transparent" points="700,-100.22 700,-118.22 946,-118.22 946,-100.22 700,-100.22"/>
<polygon fill="none" stroke="black" points="700,-100.22 700,-118.22 946,-118.22 946,-100.22 700,-100.22"/>
<polygon fill="#ffffff" stroke="transparent" points="701,-101.22 701,-117.22 787,-117.22 787,-101.22 701,-101.22"/>
<text text-anchor="start" x="703" y="-106.42" font-family="Helvetica,sans-Serif" font-size="11.00">&lt; 9</text>
<polygon fill="#ffffff" stroke="transparent" points="787,-101.22 787,-117.22 860,-117.22 860,-101.22 787,-101.22"/>
<text text-anchor="start" x="819.5" y="-106.42" font-family="Helvetica,sans-Serif" font-size="11.00"> &#160;</text>
<polygon fill="#ffffff" stroke="transparent" points="860,-101.22 860,-117.22 945,-117.22 945,-101.22 860,-101.22"/>
<text text-anchor="start" x="923" y="-106.42" font-family="Helvetica,sans-Serif" font-size="11.00">0 &gt;</text>
<polygon fill="black" stroke="black" points="787,-101.22 787,-117.22 787,-117.22 787,-101.22 787,-101.22"/>
<polygon fill="black" stroke="black" points="860,-101.22 860,-117.22 860,-117.22 860,-101.22 860,-101.22"/>
<polygon fill="none" stroke="black" stroke-width="2" points="699,-99.22 699,-449.22 947,-449.22 947,-99.22 699,-99.22"/>
</a>
</g>
</g>
<!-- file&#45;&gt;contract -->
<g id="edge6" class="edge">
<title>file:w&#45;&gt;contract:e</title>
<path fill="none" stroke="black" d="M685.05,-287.94C632.5,-328.54 691.86,-617.22 621,-617.22"/>
<polygon fill="black" stroke="black" points="691.42,-285.78 700.15,-286.63 695.21,-284.5 699,-283.22 699,-283.22 699,-283.22 695.21,-284.5 697.85,-279.81 691.42,-285.78 691.42,-285.78"/>
<ellipse fill="none" stroke="black" cx="688.39" cy="-286.81" rx="3.2" ry="3.2"/>
</g>
<!-- file&#45;&gt;contact -->
<g id="edge5" class="edge">
<title>file:w&#45;&gt;contact:e</title>
<path fill="none" stroke="black" d="M685.03,-309.29C631.88,-345.46 712.31,-611.74 657,-661.22 499.33,-802.27 392.56,-664.22 181,-664.22"/>
<polygon fill="black" stroke="black" points="691.32,-307.46 700.01,-308.67 695.16,-306.34 699,-305.22 699,-305.22 699,-305.22 695.16,-306.34 697.99,-301.76 691.32,-307.46 691.32,-307.46"/>
<ellipse fill="none" stroke="black" cx="688.25" cy="-308.35" rx="3.2" ry="3.2"/>
</g>
<!-- file&#45;&gt;unit -->
<g id="edge11" class="edge">
<title>file:w&#45;&gt;unit:e</title>
<path fill="none" stroke="black" d="M684.79,-170.9C676.04,-167.74 670.43,-162.25 657,-160.22 554.17,-144.67 501.56,-92.07 423,-160.22 376.03,-200.96 445.68,-437.22 383.5,-437.22"/>
<polygon fill="black" stroke="black" points="691.1,-171.93 698.42,-176.77 695.05,-172.57 699,-173.22 699,-173.22 699,-173.22 695.05,-172.57 699.58,-169.67 691.1,-171.93 691.1,-171.93"/>
<ellipse fill="none" stroke="black" cx="687.95" cy="-171.41" rx="3.2" ry="3.2"/>
</g>
<!-- file&#45;&gt;deceased -->
<g id="edge7" class="edge">
<title>file:w&#45;&gt;deceased:e</title>
<path fill="none" stroke="black" d="M684.74,-263.47C627.4,-284.8 731.18,-450.22 650,-450.22"/>
<polygon fill="black" stroke="black" points="691.1,-262.47 699.56,-264.77 695.05,-261.84 699,-261.22 699,-261.22 699,-261.22 695.05,-261.84 698.44,-257.66 691.1,-262.47 691.1,-262.47"/>
<ellipse fill="none" stroke="black" cx="687.94" cy="-262.97" rx="3.2" ry="3.2"/>
</g>
<!-- file&#45;&gt;cemetery -->
<g id="edge4" class="edge">
<title>file:w&#45;&gt;cemetery:e</title>
<path fill="none" stroke="black" d="M685.23,-331.48C636.29,-367.11 709.05,-615.31 657,-661.22 579.01,-730.02 520.19,-698.24 423,-661.22 310.63,-618.42 277.6,-587.32 221,-481.22 160.11,-367.09 282.36,-198.22 153,-198.22"/>
<polygon fill="black" stroke="black" points="691.36,-329.58 700.06,-330.66 695.18,-328.4 699,-327.22 699,-327.22 699,-327.22 695.18,-328.4 697.94,-323.78 691.36,-329.58 691.36,-329.58"/>
<ellipse fill="none" stroke="black" cx="688.3" cy="-330.53" rx="3.2" ry="3.2"/>
</g>
<!-- file&#45;&gt;cemetery -->
<g id="edge12" class="edge">
<title>file:w&#45;&gt;cemetery:e</title>
<path fill="none" stroke="black" d="M685,-147.01C675.79,-140.24 672.72,-127.18 657,-122.22 564.61,-93.04 309.19,-80.1 221,-120.22 179.14,-139.26 198.99,-198.22 153,-198.22"/>
<polygon fill="black" stroke="black" points="691.34,-148.92 697.96,-154.67 695.17,-150.07 699,-151.22 699,-151.22 699,-151.22 695.17,-150.07 700.04,-147.77 691.34,-148.92 691.34,-148.92"/>
<ellipse fill="none" stroke="black" cx="688.27" cy="-148" rx="3.2" ry="3.2"/>
</g>
<!-- furniture -->
<g id="node7" class="node">
<title>furniture</title>
<g id="a_node7"><a xlink:href="../../tables/furniture.html" xlink:title="furniture" target="_top">
<polygon fill="#ffffff" stroke="transparent" points="484,-170.22 484,-272.22 596,-272.22 596,-170.22 484,-170.22"/>
<polygon fill="#f5f5f5" stroke="transparent" points="484,-250.22 484,-272.22 596,-272.22 596,-250.22 484,-250.22"/>
<polygon fill="none" stroke="black" points="484,-250.22 484,-272.22 596,-272.22 596,-250.22 484,-250.22"/>
<text text-anchor="start" x="489" y="-259.42" font-family="Helvetica,sans-Serif" font-weight="bold" font-size="11.00">furniture</text>
<text text-anchor="start" x="554" y="-258.42" font-family="Helvetica,sans-Serif" font-size="11.00">[table]</text>
<polygon fill="none" stroke="black" points="484,-228.22 484,-250.22 596,-250.22 596,-228.22 484,-228.22"/>
<image xlink:href="../../images/primaryKeys.png" width="11px" height="12px" preserveAspectRatio="xMinYMin meet" x="489" y="-245.219"/>
<text text-anchor="start" x="510" y="-236.42" font-family="Helvetica,sans-Serif" font-size="11.00">id</text>
<polygon fill="none" stroke="black" points="484,-206.22 484,-228.22 596,-228.22 596,-206.22 484,-206.22"/>
<image xlink:href="../../images/foreignKeys.png" width="11px" height="12px" preserveAspectRatio="xMinYMin meet" x="489" y="-223.219"/>
<text text-anchor="start" x="510" y="-214.42" font-family="Helvetica,sans-Serif" font-size="11.00">fk_kind</text>
<polygon fill="none" stroke="black" points="484,-188.22 484,-206.22 596,-206.22 596,-188.22 484,-188.22"/>
<text text-anchor="start" x="487" y="-194.42" font-family="Helvetica,sans-Serif" font-size="11.00">...</text>
<polygon fill="#ffffff" stroke="transparent" points="484,-170.22 484,-188.22 596,-188.22 596,-170.22 484,-170.22"/>
<polygon fill="none" stroke="black" points="484,-170.22 484,-188.22 596,-188.22 596,-170.22 484,-170.22"/>
<polygon fill="#ffffff" stroke="transparent" points="485,-171.22 485,-187.22 526,-187.22 526,-171.22 485,-171.22"/>
<text text-anchor="start" x="487" y="-176.42" font-family="Helvetica,sans-Serif" font-size="11.00">&lt; 1</text>
<polygon fill="#ffffff" stroke="transparent" points="526,-171.22 526,-187.22 555,-187.22 555,-171.22 526,-171.22"/>
<text text-anchor="start" x="536.5" y="-176.42" font-family="Helvetica,sans-Serif" font-size="11.00"> &#160;</text>
<polygon fill="#ffffff" stroke="transparent" points="555,-171.22 555,-187.22 595,-187.22 595,-171.22 555,-171.22"/>
<text text-anchor="start" x="573" y="-176.42" font-family="Helvetica,sans-Serif" font-size="11.00">1 &gt;</text>
<polygon fill="black" stroke="black" points="526,-171.22 526,-187.22 526,-187.22 526,-171.22 526,-171.22"/>
<polygon fill="black" stroke="black" points="555,-171.22 555,-187.22 555,-187.22 555,-171.22 555,-171.22"/>
</a>
</g>
</g>
<!-- file&#45;&gt;furniture -->
<g id="edge8" class="edge">
<title>file:w&#45;&gt;furniture:e</title>
<path fill="none" stroke="black" d="M684.35,-239.22C650.54,-239.22 637.02,-239.22 597,-239.22"/>
<polygon fill="black" stroke="black" points="691,-239.22 699,-242.82 695,-239.22 699,-239.22 699,-239.22 699,-239.22 695,-239.22 699,-235.62 691,-239.22 691,-239.22"/>
<ellipse fill="none" stroke="black" cx="687.8" cy="-239.22" rx="3.2" ry="3.2"/>
</g>
<!-- file&#45;&gt;organisation -->
<g id="edge9" class="edge">
<title>file:w&#45;&gt;organisation:e</title>
<path fill="none" stroke="black" d="M685.1,-212.52C672.78,-201.01 679.38,-171.53 657,-160.22 570.52,-116.52 301.29,-105.98 221,-160.22 165.81,-197.5 231.6,-299.22 165,-299.22"/>
<polygon fill="black" stroke="black" points="691.42,-214.66 697.85,-220.63 695.21,-215.94 699,-217.22 699,-217.22 699,-217.22 695.21,-215.94 700.15,-213.81 691.42,-214.66 691.42,-214.66"/>
<ellipse fill="none" stroke="black" cx="688.39" cy="-213.63" rx="3.2" ry="3.2"/>
</g>
<!-- file&#45;&gt;sector -->
<g id="edge10" class="edge">
<title>file:w&#45;&gt;sector:e</title>
<path fill="none" stroke="black" d="M684.91,-192.1C659.7,-177.53 693.2,-115.9 657,-91.22 469.71,36.47 373.68,-86.22 147,-86.22"/>
<polygon fill="black" stroke="black" points="691.19,-193.49 698.22,-198.73 695.09,-194.35 699,-195.22 699,-195.22 699,-195.22 695.09,-194.35 699.78,-191.7 691.19,-193.49 691.19,-193.49"/>
<ellipse fill="none" stroke="black" cx="688.06" cy="-192.8" rx="3.2" ry="3.2"/>
</g>
</g>
</svg>
