<?xml version="1.0" encoding="UTF-8" standalone="no"?>
<!DOCTYPE svg PUBLIC "-//W3C//DTD SVG 1.1//EN"
 "http://www.w3.org/Graphics/SVG/1.1/DTD/svg11.dtd">
<!-- Generated by graphviz version 2.43.0 (0)
 -->
<!-- Title: oneDegreeRelationshipsDiagram Pages: 1 -->
<svg width="699pt" height="327pt"
 viewBox="0.00 0.00 699.00 327.00" xmlns="http://www.w3.org/2000/svg" xmlns:xlink="http://www.w3.org/1999/xlink">
<g id="graph0" class="graph" transform="scale(1 1) rotate(0) translate(4 323)">
<title>oneDegreeRelationshipsDiagram</title>
<polygon fill="#ffffff" stroke="transparent" points="-4,4 -4,-323 695,-323 695,4 -4,4"/>
<text text-anchor="middle" x="79.5" y="-7.2" font-family="Helvetica,sans-Serif" font-size="11.00">Generated by SchemaSpy</text>
<!-- file -->
<g id="node1" class="node">
<title>file</title>
<g id="a_node1"><a xlink:href="../../tables/file.html" xlink:title="file" target="_top">
<polygon fill="#ffffff" stroke="transparent" points="543,-37 543,-315 683,-315 683,-37 543,-37"/>
<polygon fill="#f5f5f5" stroke="transparent" points="543,-293 543,-315 683,-315 683,-293 543,-293"/>
<polygon fill="none" stroke="black" points="543,-293 543,-315 683,-315 683,-293 543,-293"/>
<text text-anchor="start" x="547.5" y="-302.2" font-family="Helvetica,sans-Serif" font-weight="bold" font-size="11.00">file</text>
<text text-anchor="start" x="641" y="-301.2" font-family="Helvetica,sans-Serif" font-size="11.00">[table]</text>
<polygon fill="none" stroke="black" points="543,-271 543,-293 683,-293 683,-271 543,-271"/>
<image xlink:href="../../images/primaryKeys.png" width="11px" height="12px" preserveAspectRatio="xMinYMin meet" x="548" y="-288"/>
<text text-anchor="start" x="563" y="-279.2" font-family="Helvetica,sans-Serif" font-size="11.00">id</text>
<polygon fill="none" stroke="black" points="543,-249 543,-271 683,-271 683,-249 543,-249"/>
<image xlink:href="../../images/foreignKeys.png" width="11px" height="12px" preserveAspectRatio="xMinYMin meet" x="548" y="-266"/>
<text text-anchor="start" x="563" y="-257.2" font-family="Helvetica,sans-Serif" font-size="11.00">cemetery_ref</text>
<polygon fill="none" stroke="black" points="543,-227 543,-249 683,-249 683,-227 543,-227"/>
<image xlink:href="../../images/foreignKeys.png" width="11px" height="12px" preserveAspectRatio="xMinYMin meet" x="548" y="-244"/>
<text text-anchor="start" x="563" y="-235.2" font-family="Helvetica,sans-Serif" font-size="11.00">contact_ref</text>
<polygon fill="none" stroke="black" points="543,-205 543,-227 683,-227 683,-205 543,-205"/>
<image xlink:href="../../images/foreignKeys.png" width="11px" height="12px" preserveAspectRatio="xMinYMin meet" x="548" y="-222"/>
<text text-anchor="start" x="563" y="-213.2" font-family="Helvetica,sans-Serif" font-size="11.00">contract_ref</text>
<polygon fill="none" stroke="black" points="543,-183 543,-205 683,-205 683,-183 543,-183"/>
<image xlink:href="../../images/foreignKeys.png" width="11px" height="12px" preserveAspectRatio="xMinYMin meet" x="548" y="-200"/>
<text text-anchor="start" x="563" y="-191.2" font-family="Helvetica,sans-Serif" font-size="11.00">deceased_ref</text>
<polygon fill="none" stroke="black" points="543,-161 543,-183 683,-183 683,-161 543,-161"/>
<image xlink:href="../../images/foreignKeys.png" width="11px" height="12px" preserveAspectRatio="xMinYMin meet" x="548" y="-178"/>
<text text-anchor="start" x="563" y="-169.2" font-family="Helvetica,sans-Serif" font-size="11.00">furniture_ref</text>
<polygon fill="none" stroke="black" points="543,-139 543,-161 683,-161 683,-139 543,-139"/>
<image xlink:href="../../images/foreignKeys.png" width="11px" height="12px" preserveAspectRatio="xMinYMin meet" x="548" y="-156"/>
<text text-anchor="start" x="563" y="-147.2" font-family="Helvetica,sans-Serif" font-size="11.00">organisation_ref</text>
<polygon fill="none" stroke="black" points="543,-117 543,-139 683,-139 683,-117 543,-117"/>
<image xlink:href="../../images/foreignKeys.png" width="11px" height="12px" preserveAspectRatio="xMinYMin meet" x="548" y="-134"/>
<text text-anchor="start" x="563" y="-125.2" font-family="Helvetica,sans-Serif" font-size="11.00">sector_ref</text>
<polygon fill="none" stroke="black" points="543,-95 543,-117 683,-117 683,-95 543,-95"/>
<image xlink:href="../../images/foreignKeys.png" width="11px" height="12px" preserveAspectRatio="xMinYMin meet" x="548" y="-112"/>
<text text-anchor="start" x="563" y="-103.2" font-family="Helvetica,sans-Serif" font-size="11.00">unit_ref</text>
<polygon fill="none" stroke="black" points="543,-73 543,-95 683,-95 683,-73 543,-73"/>
<image xlink:href="../../images/foreignKeys.png" width="11px" height="12px" preserveAspectRatio="xMinYMin meet" x="548" y="-90"/>
<text text-anchor="start" x="563" y="-81.2" font-family="Helvetica,sans-Serif" font-size="11.00">vegetation_ref</text>
<polygon fill="none" stroke="black" points="543,-55 543,-73 683,-73 683,-55 543,-55"/>
<text text-anchor="start" x="546" y="-61.2" font-family="Helvetica,sans-Serif" font-size="11.00">...</text>
<polygon fill="#ffffff" stroke="transparent" points="543,-37 543,-55 683,-55 683,-37 543,-37"/>
<polygon fill="none" stroke="black" points="543,-37 543,-55 683,-55 683,-37 543,-37"/>
<polygon fill="#ffffff" stroke="transparent" points="544,-38 544,-54 598,-54 598,-38 544,-38"/>
<text text-anchor="start" x="546" y="-43.2" font-family="Helvetica,sans-Serif" font-size="11.00">&lt; 9</text>
<polygon fill="#ffffff" stroke="transparent" points="598,-38 598,-54 640,-54 640,-38 598,-38"/>
<text text-anchor="start" x="615" y="-43.2" font-family="Helvetica,sans-Serif" font-size="11.00"> &#160;</text>
<polygon fill="#ffffff" stroke="transparent" points="640,-38 640,-54 682,-54 682,-38 640,-38"/>
<text text-anchor="start" x="672" y="-43.2" font-family="Helvetica,sans-Serif" font-size="11.00"> &#160;</text>
<polygon fill="black" stroke="black" points="598,-38 598,-54 598,-54 598,-38 598,-38"/>
<polygon fill="black" stroke="black" points="640,-38 640,-54 640,-54 640,-38 640,-38"/>
</a>
</g>
</g>
<!-- furniture -->
<g id="node2" class="node">
<title>furniture</title>
<g id="a_node2"><a xlink:href="../../tables/furniture.html" xlink:title="furniture" target="_top">
<polygon fill="#ffffff" stroke="transparent" points="254,-53 254,-207 494,-207 494,-53 254,-53"/>
<polygon fill="#f5f5f5" stroke="transparent" points="256,-183 256,-205 492,-205 492,-183 256,-183"/>
<polygon fill="none" stroke="black" points="256,-183 256,-205 492,-205 492,-183 256,-183"/>
<text text-anchor="start" x="261" y="-192.2" font-family="Helvetica,sans-Serif" font-weight="bold" font-size="11.00">furniture</text>
<text text-anchor="start" x="450" y="-191.2" font-family="Helvetica,sans-Serif" font-size="11.00">[table]</text>
<polygon fill="none" stroke="black" points="256,-161 256,-183 356,-183 356,-161 256,-161"/>
<image xlink:href="../../images/primaryKeys.png" width="11px" height="12px" preserveAspectRatio="xMinYMin meet" x="261" y="-178"/>
<text text-anchor="start" x="276" y="-169.2" font-family="Helvetica,sans-Serif" font-size="11.00">id</text>
<polygon fill="none" stroke="black" points="356,-161 356,-183 492,-183 492,-161 356,-161"/>
<text text-anchor="start" x="359" y="-169.2" font-family="Helvetica,sans-Serif" font-size="11.00">uuid[2147483647]</text>
<polygon fill="none" stroke="black" points="256,-139 256,-161 356,-161 356,-139 256,-139"/>
<image xlink:href="../../images/foreignKeys.png" width="11px" height="12px" preserveAspectRatio="xMinYMin meet" x="261" y="-156"/>
<text text-anchor="start" x="276" y="-147.2" font-family="Helvetica,sans-Serif" font-size="11.00">fk_kind</text>
<polygon fill="none" stroke="black" points="356,-139 356,-161 492,-161 492,-139 356,-139"/>
<text text-anchor="start" x="359" y="-147.2" font-family="Helvetica,sans-Serif" font-size="11.00">int4[10]</text>
<polygon fill="none" stroke="black" points="256,-117 256,-139 356,-139 356,-117 256,-117"/>
<text text-anchor="start" x="276" y="-125.2" font-family="Helvetica,sans-Serif" font-size="11.00">remark</text>
<polygon fill="none" stroke="black" points="356,-117 356,-139 492,-139 492,-117 356,-117"/>
<text text-anchor="start" x="359" y="-125.2" font-family="Helvetica,sans-Serif" font-size="11.00">text[2147483647]</text>
<polygon fill="none" stroke="black" points="256,-95 256,-117 356,-117 356,-95 256,-95"/>
<text text-anchor="start" x="276" y="-103.2" font-family="Helvetica,sans-Serif" font-size="11.00">the_geom</text>
<polygon fill="none" stroke="black" points="356,-95 356,-117 492,-117 492,-95 356,-95"/>
<text text-anchor="start" x="359" y="-103.2" font-family="Helvetica,sans-Serif" font-size="11.00">geometry[2147483647]</text>
<polygon fill="none" stroke="black" points="256,-73 256,-95 356,-95 356,-73 256,-73"/>
<text text-anchor="start" x="276" y="-81.2" font-family="Helvetica,sans-Serif" font-size="11.00">display_txt</text>
<polygon fill="none" stroke="black" points="356,-73 356,-95 492,-95 492,-73 356,-73"/>
<text text-anchor="start" x="359" y="-81.2" font-family="Helvetica,sans-Serif" font-size="11.00">text[2147483647]</text>
<polygon fill="#ffffff" stroke="transparent" points="256,-55 256,-73 492,-73 492,-55 256,-55"/>
<polygon fill="none" stroke="black" points="256,-55 256,-73 492,-73 492,-55 256,-55"/>
<polygon fill="#ffffff" stroke="transparent" points="257,-56 257,-72 339,-72 339,-56 257,-56"/>
<text text-anchor="start" x="259" y="-61.2" font-family="Helvetica,sans-Serif" font-size="11.00">&lt; 1</text>
<polygon fill="#ffffff" stroke="transparent" points="339,-56 339,-72 409,-72 409,-56 339,-56"/>
<text text-anchor="start" x="370" y="-61.2" font-family="Helvetica,sans-Serif" font-size="11.00"> &#160;</text>
<polygon fill="#ffffff" stroke="transparent" points="409,-56 409,-72 491,-72 491,-56 409,-56"/>
<text text-anchor="start" x="469" y="-61.2" font-family="Helvetica,sans-Serif" font-size="11.00">1 &gt;</text>
<polygon fill="black" stroke="black" points="339,-56 339,-72 339,-72 339,-56 339,-56"/>
<polygon fill="black" stroke="black" points="409,-56 409,-72 409,-72 409,-56 409,-56"/>
<polygon fill="none" stroke="black" stroke-width="2" points="255,-54 255,-206 493,-206 493,-54 255,-54"/>
</a>
</g>
</g>
<!-- file&#45;&gt;furniture -->
<g id="edge1" class="edge">
<title>file:w&#45;&gt;furniture:e</title>
<path fill="none" stroke="black" d="M527.49,-172C516.18,-172 508.99,-172 493,-172"/>
<polygon fill="black" stroke="black" points="534,-172 542,-175.6 538,-172 542,-172 542,-172 542,-172 538,-172 542,-168.4 534,-172 534,-172"/>
<ellipse fill="none" stroke="black" cx="530.8" cy="-172" rx="3.2" ry="3.2"/>
</g>
<!-- tce_vl.furniture_kind -->
<g id="node3" class="node">
<title>tce_vl.furniture_kind</title>
<g id="a_node3"><a xlink:href="../../../tce_vl/tables/furniture_kind.html" xlink:title="tce_vl.furniture_kind" target="_top">
<polygon fill="#ffffff" stroke="transparent" points="8,-121 8,-179 205,-179 205,-121 8,-121"/>
<polygon fill="#f5f5f5" stroke="transparent" points="8.5,-157 8.5,-179 205.5,-179 205.5,-157 8.5,-157"/>
<polygon fill="none" stroke="black" points="8.5,-157 8.5,-179 205.5,-179 205.5,-157 8.5,-157"/>
<text text-anchor="start" x="13.5" y="-166.2" font-family="Helvetica,sans-Serif" font-weight="bold" font-size="11.00">tce_vl.furniture_kind</text>
<text text-anchor="start" x="163.5" y="-165.2" font-family="Helvetica,sans-Serif" font-size="11.00">[table]</text>
<polygon fill="none" stroke="black" points="8.5,-139 8.5,-157 205.5,-157 205.5,-139 8.5,-139"/>
<text text-anchor="start" x="11.5" y="-145.2" font-family="Helvetica,sans-Serif" font-size="11.00">...</text>
<polygon fill="#ffffff" stroke="transparent" points="8.5,-121 8.5,-139 205.5,-139 205.5,-121 8.5,-121"/>
<polygon fill="none" stroke="black" points="8.5,-121 8.5,-139 205.5,-139 205.5,-121 8.5,-121"/>
<polygon fill="#ffffff" stroke="transparent" points="9.5,-122 9.5,-138 61.5,-138 61.5,-122 9.5,-122"/>
<text text-anchor="start" x="11.5" y="-127.2" font-family="Helvetica,sans-Serif" font-size="11.00"> &#160;</text>
<polygon fill="#ffffff" stroke="transparent" points="61.5,-122 61.5,-138 141.5,-138 141.5,-122 61.5,-122"/>
<text text-anchor="start" x="83" y="-127.2" font-family="Helvetica,sans-Serif" font-size="11.00">0 rows</text>
<polygon fill="#ffffff" stroke="transparent" points="141.5,-122 141.5,-138 204.5,-138 204.5,-122 141.5,-122"/>
<text text-anchor="start" x="182.5" y="-127.2" font-family="Helvetica,sans-Serif" font-size="11.00">1 &gt;</text>
<polygon fill="black" stroke="black" points="61.5,-122 61.5,-138 61.5,-138 61.5,-122 61.5,-122"/>
<polygon fill="black" stroke="black" points="141.5,-122 141.5,-138 141.5,-138 141.5,-122 141.5,-122"/>
</a>
</g>
</g>
<!-- furniture&#45;&gt;tce_vl.furniture_kind -->
<g id="edge2" class="edge">
<title>furniture:w&#45;&gt;tce_vl.furniture_kind:e</title>
<path fill="none" stroke="black" d="M240.46,-150C231.41,-150 222.19,-150 213.05,-150"/>
<polygon fill="black" stroke="black" points="247,-150 255,-153.6 251,-150 255,-150 255,-150 255,-150 251,-150 255,-146.4 247,-150 247,-150"/>
<ellipse fill="none" stroke="black" cx="243.8" cy="-150" rx="3.2" ry="3.2"/>
</g>
</g>
</svg>
