<?xml version="1.0" encoding="UTF-8" standalone="no"?>
<!DOCTYPE svg PUBLIC "-//W3C//DTD SVG 1.1//EN"
 "http://www.w3.org/Graphics/SVG/1.1/DTD/svg11.dtd">
<!-- Generated by graphviz version 2.43.0 (0)
 -->
<!-- Title: oneDegreeRelationshipsDiagram Pages: 1 -->
<svg width="306pt" height="379pt"
 viewBox="0.00 0.00 306.00 379.00" xmlns="http://www.w3.org/2000/svg" xmlns:xlink="http://www.w3.org/1999/xlink">
<g id="graph0" class="graph" transform="scale(1 1) rotate(0) translate(4 375)">
<title>oneDegreeRelationshipsDiagram</title>
<polygon fill="#ffffff" stroke="transparent" points="-4,4 -4,-375 302,-375 302,4 -4,4"/>
<text text-anchor="middle" x="79.5" y="-7.2" font-family="Helvetica,sans-Serif" font-size="11.00">Generated by SchemaSpy</text>
<!-- person -->
<g id="node1" class="node">
<title>person</title>
<g id="a_node1"><a xlink:href="../../tables/person.html" xlink:title="person" target="_top">
<polygon fill="#ffffff" stroke="transparent" points="8,-37 8,-367 290,-367 290,-37 8,-37"/>
<polygon fill="#f5f5f5" stroke="transparent" points="10,-343 10,-365 288,-365 288,-343 10,-343"/>
<polygon fill="none" stroke="black" points="10,-343 10,-365 288,-365 288,-343 10,-343"/>
<text text-anchor="start" x="15" y="-352.2" font-family="Helvetica,sans-Serif" font-weight="bold" font-size="11.00">person</text>
<text text-anchor="start" x="246" y="-351.2" font-family="Helvetica,sans-Serif" font-size="11.00">[table]</text>
<polygon fill="none" stroke="black" points="10,-321 10,-343 182,-343 182,-321 10,-321"/>
<image xlink:href="../../images/primaryKeys.png" width="11px" height="12px" preserveAspectRatio="xMinYMin meet" x="15" y="-338"/>
<text text-anchor="start" x="30" y="-329.2" font-family="Helvetica,sans-Serif" font-size="11.00">id</text>
<polygon fill="none" stroke="black" points="182,-321 182,-343 288,-343 288,-321 182,-321"/>
<text text-anchor="start" x="185" y="-329.2" font-family="Helvetica,sans-Serif" font-size="11.00">uuid[2147483647]</text>
<polygon fill="none" stroke="black" points="10,-299 10,-321 182,-321 182,-299 10,-299"/>
<text text-anchor="start" x="30" y="-307.2" font-family="Helvetica,sans-Serif" font-size="11.00">kind</text>
<polygon fill="none" stroke="black" points="182,-299 182,-321 288,-321 288,-299 182,-299"/>
<text text-anchor="start" x="185" y="-307.2" font-family="Helvetica,sans-Serif" font-size="11.00">int4[10]</text>
<polygon fill="none" stroke="black" points="10,-277 10,-299 182,-299 182,-277 10,-277"/>
<text text-anchor="start" x="30" y="-285.2" font-family="Helvetica,sans-Serif" font-size="11.00">fk_civility</text>
<polygon fill="none" stroke="black" points="182,-277 182,-299 288,-299 288,-277 182,-277"/>
<text text-anchor="start" x="185" y="-285.2" font-family="Helvetica,sans-Serif" font-size="11.00">int4[10]</text>
<polygon fill="none" stroke="black" points="10,-255 10,-277 182,-277 182,-255 10,-255"/>
<text text-anchor="start" x="30" y="-263.2" font-family="Helvetica,sans-Serif" font-size="11.00">first_name</text>
<polygon fill="none" stroke="black" points="182,-255 182,-277 288,-277 288,-255 182,-255"/>
<text text-anchor="start" x="185" y="-263.2" font-family="Helvetica,sans-Serif" font-size="11.00">text[2147483647]</text>
<polygon fill="none" stroke="black" points="10,-233 10,-255 182,-255 182,-233 10,-233"/>
<text text-anchor="start" x="30" y="-241.2" font-family="Helvetica,sans-Serif" font-size="11.00">last_name</text>
<polygon fill="none" stroke="black" points="182,-233 182,-255 288,-255 288,-233 182,-233"/>
<text text-anchor="start" x="185" y="-241.2" font-family="Helvetica,sans-Serif" font-size="11.00">text[2147483647]</text>
<polygon fill="none" stroke="black" points="10,-211 10,-233 182,-233 182,-211 10,-211"/>
<text text-anchor="start" x="30" y="-219.2" font-family="Helvetica,sans-Serif" font-size="11.00">street_name</text>
<polygon fill="none" stroke="black" points="182,-211 182,-233 288,-233 288,-211 182,-211"/>
<text text-anchor="start" x="185" y="-219.2" font-family="Helvetica,sans-Serif" font-size="11.00">text[2147483647]</text>
<polygon fill="none" stroke="black" points="10,-189 10,-211 182,-211 182,-189 10,-189"/>
<text text-anchor="start" x="30" y="-197.2" font-family="Helvetica,sans-Serif" font-size="11.00">house_number</text>
<polygon fill="none" stroke="black" points="182,-189 182,-211 288,-211 288,-189 182,-189"/>
<text text-anchor="start" x="185" y="-197.2" font-family="Helvetica,sans-Serif" font-size="11.00">varchar[10]</text>
<polygon fill="none" stroke="black" points="10,-167 10,-189 182,-189 182,-167 10,-167"/>
<text text-anchor="start" x="30" y="-175.2" font-family="Helvetica,sans-Serif" font-size="11.00">address_supplement</text>
<polygon fill="none" stroke="black" points="182,-167 182,-189 288,-189 288,-167 182,-167"/>
<text text-anchor="start" x="185" y="-175.2" font-family="Helvetica,sans-Serif" font-size="11.00">text[2147483647]</text>
<polygon fill="none" stroke="black" points="10,-145 10,-167 182,-167 182,-145 10,-145"/>
<text text-anchor="start" x="30" y="-153.2" font-family="Helvetica,sans-Serif" font-size="11.00">city</text>
<polygon fill="none" stroke="black" points="182,-145 182,-167 288,-167 288,-145 182,-145"/>
<text text-anchor="start" x="185" y="-153.2" font-family="Helvetica,sans-Serif" font-size="11.00">text[2147483647]</text>
<polygon fill="none" stroke="black" points="10,-123 10,-145 182,-145 182,-123 10,-123"/>
<text text-anchor="start" x="30" y="-131.2" font-family="Helvetica,sans-Serif" font-size="11.00">postal_code</text>
<polygon fill="none" stroke="black" points="182,-123 182,-145 288,-145 288,-123 182,-123"/>
<text text-anchor="start" x="185" y="-131.2" font-family="Helvetica,sans-Serif" font-size="11.00">varchar[10]</text>
<polygon fill="none" stroke="black" points="10,-101 10,-123 182,-123 182,-101 10,-101"/>
<text text-anchor="start" x="30" y="-109.2" font-family="Helvetica,sans-Serif" font-size="11.00">phone</text>
<polygon fill="none" stroke="black" points="182,-101 182,-123 288,-123 288,-101 182,-101"/>
<text text-anchor="start" x="185" y="-109.2" font-family="Helvetica,sans-Serif" font-size="11.00">varchar[20]</text>
<polygon fill="none" stroke="black" points="10,-79 10,-101 182,-101 182,-79 10,-79"/>
<text text-anchor="start" x="30" y="-87.2" font-family="Helvetica,sans-Serif" font-size="11.00">email</text>
<polygon fill="none" stroke="black" points="182,-79 182,-101 288,-101 288,-79 182,-79"/>
<text text-anchor="start" x="185" y="-87.2" font-family="Helvetica,sans-Serif" font-size="11.00">varchar[255]</text>
<polygon fill="none" stroke="black" points="10,-57 10,-79 182,-79 182,-57 10,-57"/>
<text text-anchor="start" x="30" y="-65.2" font-family="Helvetica,sans-Serif" font-size="11.00">remark</text>
<polygon fill="none" stroke="black" points="182,-57 182,-79 288,-79 288,-57 182,-57"/>
<text text-anchor="start" x="185" y="-65.2" font-family="Helvetica,sans-Serif" font-size="11.00">text[2147483647]</text>
<polygon fill="#ffffff" stroke="transparent" points="10,-39 10,-57 288,-57 288,-39 10,-39"/>
<polygon fill="none" stroke="black" points="10,-39 10,-57 288,-57 288,-39 10,-39"/>
<polygon fill="#ffffff" stroke="transparent" points="11,-40 11,-56 107,-56 107,-40 11,-40"/>
<text text-anchor="start" x="13" y="-45.2" font-family="Helvetica,sans-Serif" font-size="11.00">&lt; 0</text>
<polygon fill="#ffffff" stroke="transparent" points="107,-40 107,-56 191,-56 191,-40 107,-40"/>
<text text-anchor="start" x="145" y="-45.2" font-family="Helvetica,sans-Serif" font-size="11.00"> &#160;</text>
<polygon fill="#ffffff" stroke="transparent" points="191,-40 191,-56 287,-56 287,-40 191,-40"/>
<text text-anchor="start" x="265" y="-45.2" font-family="Helvetica,sans-Serif" font-size="11.00">0 &gt;</text>
<polygon fill="black" stroke="black" points="107,-40 107,-56 107,-56 107,-40 107,-40"/>
<polygon fill="black" stroke="black" points="191,-40 191,-56 191,-56 191,-40 191,-40"/>
<polygon fill="none" stroke="black" stroke-width="2" points="9,-38 9,-366 289,-366 289,-38 9,-38"/>
</a>
</g>
</g>
</g>
</svg>
