<?xml version="1.0" encoding="UTF-8" standalone="no"?>
<!DOCTYPE svg PUBLIC "-//W3C//DTD SVG 1.1//EN"
 "http://www.w3.org/Graphics/SVG/1.1/DTD/svg11.dtd">
<!-- Generated by graphviz version 2.43.0 (0)
 -->
<!-- Title: oneDegreeRelationshipsDiagram Pages: 1 -->
<svg width="268pt" height="203pt"
 viewBox="0.00 0.00 268.00 203.00" xmlns="http://www.w3.org/2000/svg" xmlns:xlink="http://www.w3.org/1999/xlink">
<g id="graph0" class="graph" transform="scale(1 1) rotate(0) translate(4 199)">
<title>oneDegreeRelationshipsDiagram</title>
<polygon fill="#ffffff" stroke="transparent" points="-4,4 -4,-199 264,-199 264,4 -4,4"/>
<text text-anchor="middle" x="79.5" y="-7.2" font-family="Helvetica,sans-Serif" font-size="11.00">Generated by SchemaSpy</text>
<!-- sector -->
<g id="node1" class="node">
<title>sector</title>
<g id="a_node1"><a xlink:href="../../tables/sector.html" xlink:title="sector" target="_top">
<polygon fill="#ffffff" stroke="transparent" points="8,-37 8,-191 252,-191 252,-37 8,-37"/>
<polygon fill="#f5f5f5" stroke="transparent" points="10,-167 10,-189 250,-189 250,-167 10,-167"/>
<polygon fill="none" stroke="black" points="10,-167 10,-189 250,-189 250,-167 10,-167"/>
<text text-anchor="start" x="15" y="-176.2" font-family="Helvetica,sans-Serif" font-weight="bold" font-size="11.00">sector</text>
<text text-anchor="start" x="208" y="-175.2" font-family="Helvetica,sans-Serif" font-size="11.00">[table]</text>
<polygon fill="none" stroke="black" points="10,-145 10,-167 114,-167 114,-145 10,-145"/>
<image xlink:href="../../images/primaryKeys.png" width="11px" height="12px" preserveAspectRatio="xMinYMin meet" x="15" y="-162"/>
<text text-anchor="start" x="30" y="-153.2" font-family="Helvetica,sans-Serif" font-size="11.00">id</text>
<polygon fill="none" stroke="black" points="114,-145 114,-167 250,-167 250,-145 114,-145"/>
<text text-anchor="start" x="117" y="-153.2" font-family="Helvetica,sans-Serif" font-size="11.00">uuid[2147483647]</text>
<polygon fill="none" stroke="black" points="10,-123 10,-145 114,-145 114,-123 10,-123"/>
<text text-anchor="start" x="30" y="-131.2" font-family="Helvetica,sans-Serif" font-size="11.00">ident_short</text>
<polygon fill="none" stroke="black" points="114,-123 114,-145 250,-145 250,-123 114,-123"/>
<text text-anchor="start" x="117" y="-131.2" font-family="Helvetica,sans-Serif" font-size="11.00">varchar[10]</text>
<polygon fill="none" stroke="black" points="10,-101 10,-123 114,-123 114,-101 10,-101"/>
<text text-anchor="start" x="30" y="-109.2" font-family="Helvetica,sans-Serif" font-size="11.00">identifier</text>
<polygon fill="none" stroke="black" points="114,-101 114,-123 250,-123 250,-101 114,-101"/>
<text text-anchor="start" x="117" y="-109.2" font-family="Helvetica,sans-Serif" font-size="11.00">varchar[100]</text>
<polygon fill="none" stroke="black" points="10,-79 10,-101 114,-101 114,-79 10,-79"/>
<text text-anchor="start" x="30" y="-87.2" font-family="Helvetica,sans-Serif" font-size="11.00">remark</text>
<polygon fill="none" stroke="black" points="114,-79 114,-101 250,-101 250,-79 114,-79"/>
<text text-anchor="start" x="117" y="-87.2" font-family="Helvetica,sans-Serif" font-size="11.00">text[2147483647]</text>
<polygon fill="none" stroke="black" points="10,-57 10,-79 114,-79 114,-57 10,-57"/>
<text text-anchor="start" x="30" y="-65.2" font-family="Helvetica,sans-Serif" font-size="11.00">the_geom</text>
<polygon fill="none" stroke="black" points="114,-57 114,-79 250,-79 250,-57 114,-57"/>
<text text-anchor="start" x="117" y="-65.2" font-family="Helvetica,sans-Serif" font-size="11.00">geometry[2147483647]</text>
<polygon fill="#ffffff" stroke="transparent" points="10,-39 10,-57 250,-57 250,-39 10,-39"/>
<polygon fill="none" stroke="black" points="10,-39 10,-57 250,-57 250,-39 10,-39"/>
<polygon fill="#ffffff" stroke="transparent" points="11,-40 11,-56 95,-56 95,-40 11,-40"/>
<text text-anchor="start" x="13" y="-45.2" font-family="Helvetica,sans-Serif" font-size="11.00">&lt; 0</text>
<polygon fill="#ffffff" stroke="transparent" points="95,-40 95,-56 166,-56 166,-40 95,-40"/>
<text text-anchor="start" x="126.5" y="-45.2" font-family="Helvetica,sans-Serif" font-size="11.00"> &#160;</text>
<polygon fill="#ffffff" stroke="transparent" points="166,-40 166,-56 249,-56 249,-40 166,-40"/>
<text text-anchor="start" x="227" y="-45.2" font-family="Helvetica,sans-Serif" font-size="11.00">0 &gt;</text>
<polygon fill="black" stroke="black" points="95,-40 95,-56 95,-56 95,-40 95,-40"/>
<polygon fill="black" stroke="black" points="166,-40 166,-56 166,-56 166,-40 166,-40"/>
<polygon fill="none" stroke="black" stroke-width="2" points="9,-38 9,-190 251,-190 251,-38 9,-38"/>
</a>
</g>
</g>
</g>
</svg>
